<svg xmlns="http://www.w3.org/2000/svg" width="295" height="219" viewBox="0 0 295 219">
  <g id="Grupo_1101932" data-name="Grupo 1101932" transform="translate(-180.176 -2901)">
    <rect id="Rectángulo_403365" data-name="Rectángulo 403365" width="295" height="219" rx="10" transform="translate(180.176 2901)" fill="#7e9a00"/>
    <g id="Grupo_1101924" data-name="Grupo 1101924" transform="matrix(0.996, -0.087, 0.087, 0.996, 199.62, 2941.012)">
      <g id="Grupo_1101928" data-name="Grupo 1101928" transform="translate(0 0)">
        <path id="Trazado_912576" data-name="Trazado 912576" d="M15.68,0A116.893,116.893,0,0,0,218.145,116.893Z" transform="translate(0)" fill="#ffa000"/>
        <path id="Trazado_912577" data-name="Trazado 912577" d="M82.9,51.595,14.859,63.15a7.789,7.789,0,0,1-9.1-6.9,101.8,101.8,0,0,1,6.2-44.952,7.805,7.805,0,0,1,10.649-4.19L84.964,36.7a7.765,7.765,0,0,1,4.385,8.1l-.014.11A7.827,7.827,0,0,1,82.9,51.595" transform="translate(9.342 11.028)" fill="#ffdc00"/>
        <path id="Trazado_912578" data-name="Trazado 912578" d="M87.822,35.264,41.078,89.1a6.562,6.562,0,0,1-9.559.4A101.782,101.782,0,0,1,8.061,53.3a6.558,6.558,0,0,1,4.267-8.553L80.556,24.062a6.722,6.722,0,0,1,7.576,2.983c.025.036.047.071.068.107a6.691,6.691,0,0,1-.378,8.112" transform="translate(13.294 41.363)" fill="#fff" stroke="#048fe5" stroke-width="1"/>
        <path id="Trazado_912579" data-name="Trazado 912579" d="M78.155,112.032a101.54,101.54,0,0,1-47.475-8.994A9.046,9.046,0,0,1,26.509,90.3c8.915-15.5,25.759-44.829,33.4-57.962a8.9,8.9,0,0,1,9.405-4.3c.041.005.082.014.123.022a9.024,9.024,0,0,1,7.277,7.5l9.917,66.115a9.037,9.037,0,0,1-8.479,10.353" transform="translate(44.016 48.466)" fill="#ffdc00"/>
        <path id="Trazado_912580" data-name="Trazado 912580" d="M115.469,79.792A101.957,101.957,0,0,1,76.879,107.5a8.71,8.71,0,0,1-11.651-5.505l-19.58-64.54a8.664,8.664,0,0,1,3.289-9.575c.033-.025.066-.047.1-.071A8.612,8.612,0,0,1,59.084,27.8L114,66.966a8.721,8.721,0,0,1,1.471,12.826" transform="translate(78.726 45.531)" fill="#ffdc00"/>
        <rect id="Rectángulo_403587" data-name="Rectángulo 403587" width="3.304" height="3.304" transform="translate(26.063 84.92) rotate(-13)" fill="#048fe5"/>
        <rect id="Rectángulo_403589" data-name="Rectángulo 403589" width="3.304" height="3.304" transform="translate(90.754 64.531) rotate(-16)" fill="#048fe5"/>
        <rect id="Rectángulo_403592" data-name="Rectángulo 403592" width="3.304" height="3.304" transform="translate(31.232 116.533) rotate(-124)" fill="#048fe5"/>
        <rect id="Rectángulo_403590" data-name="Rectángulo 403590" width="3.304" height="3.304" transform="translate(98.723 76.368) rotate(-48)" fill="#048fe5"/>
        <rect id="Rectángulo_403591" data-name="Rectángulo 403591" width="3.304" height="3.304" transform="translate(98.733 67.743) rotate(-39)" fill="#048fe5"/>
        <rect id="Rectángulo_403588" data-name="Rectángulo 403588" width="3.304" height="3.304" transform="translate(54.406 127.454) rotate(-45)" fill="#048fe5"/>
      </g>
    </g>
    <g id="Grupo_1101929" data-name="Grupo 1101929" transform="translate(85.668 -81.895)">
      <g id="Grupo_1101925" data-name="Grupo 1101925" transform="matrix(0.996, 0.087, -0.087, 0.996, 264.622, 2989.052)">
        <g id="Grupo_1101926" data-name="Grupo 1101926" transform="matrix(-0.999, -0.035, 0.035, -0.999, 115.096, 95.877)">
          <path id="Trazado_912576-2" data-name="Trazado 912576" d="M8.393,0A62.571,62.571,0,1,0,116.77,62.571Z" transform="translate(0 0)" fill="#ffa000"/>
          <path id="Trazado_912577-2" data-name="Trazado 912577" d="M41.5,24.223,5.078,30.408a4.169,4.169,0,0,1-4.87-3.694A54.492,54.492,0,0,1,3.528,2.651,4.178,4.178,0,0,1,9.228.408L42.6,16.25a4.157,4.157,0,0,1,2.347,4.334l-.007.059a4.19,4.19,0,0,1-3.442,3.58" transform="translate(7.876 9.298)" fill="#ffdc00"/>
          <path id="Trazado_912578-2" data-name="Trazado 912578" d="M42.917,6.143,17.9,34.96a3.513,3.513,0,0,1-5.117.213A54.482,54.482,0,0,1,.223,15.8a3.51,3.51,0,0,1,2.284-4.578L39.028.147a3.6,3.6,0,0,1,4.055,1.6c.013.019.025.038.037.057a3.582,3.582,0,0,1-.2,4.342" transform="translate(11.208 34.874)" fill="#ffdc00"/>
          <path id="Trazado_912579-2" data-name="Trazado 912579" d="M28.285,45.049A54.353,54.353,0,0,1,2.873,40.235,4.842,4.842,0,0,1,.64,33.417c4.772-8.3,13.788-24,17.88-31.026A4.766,4.766,0,0,1,23.555.09L23.621.1a4.83,4.83,0,0,1,3.9,4.016l5.308,35.39a4.837,4.837,0,0,1-4.539,5.542" transform="translate(37.111 40.863)" fill="#ffdc00"/>
          <path id="Trazado_912580-2" data-name="Trazado 912580" d="M37.574,28.695A54.577,54.577,0,0,1,16.917,43.526a4.663,4.663,0,0,1-6.237-2.947L.2,6.031A4.638,4.638,0,0,1,1.96.906C1.978.893,2,.881,2.012.868a4.61,4.61,0,0,1,5.38,0L36.786,21.829a4.668,4.668,0,0,1,.787,6.866" transform="translate(66.375 38.388)" fill="#ffdc00"/>
        </g>
      </g>
      <g id="Grupo_1101927" data-name="Grupo 1101927" transform="translate(344.958 3012.357)">
        <g id="Grupo_1101930" data-name="Grupo 1101930" transform="translate(-3 26)">
          <g id="Grupo_1101931" data-name="Grupo 1101931">
            <path id="Trazado_912581" data-name="Trazado 912581" d="M11.432,9.227l3.024,2.914-8.1,8.184L4,20.889,2,22.395.72,20.889s2.3-1.962,2.307-2.9S11.432,9.227,11.432,9.227Z" fill="#fff"/>
            <path id="Trazado_911807" data-name="Trazado 911807" d="M23.244,2.016A3.832,3.832,0,0,0,19.42.03,3.884,3.884,0,0,0,17.079,1.2L13.455,4.922C12.513,4.317,12,4.284,11.429,4.8c-.547.5-1.073,1.026-1.577,1.569a1.255,1.255,0,0,0,.017,1.766c.183.2.4.372.683.636-.195.155-.337.247-.454.363Q6.71,12.494,3.33,15.858a4.866,4.866,0,0,0-1.535,2.616,3.51,3.51,0,0,1-.91,1.744c-.22.25-.455.486-.679.733a.593.593,0,0,0,.024.918l1.224,1.217c.56.557.722.549,1.309.005a4.337,4.337,0,0,1,2.158-1.349A4.637,4.637,0,0,0,7.41,20.431q3.284-3.2,6.543-6.431c.3-.294.541-.642.878-1.047.254.311.374.49.526.637a1.346,1.346,0,0,0,2.077-.005c.356-.35.732-.684,1.055-1.064a2.5,2.5,0,0,0,.662-1.032,3.64,3.64,0,0,0-.243-1.259l-.17-.043a3.341,3.341,0,0,0,.362-.275c1.2-1.195,2.421-2.376,3.6-3.6a3.739,3.739,0,0,0,.549-4.3M13.117,13.192q-3.072,3.028-6.139,6.06a4.658,4.658,0,0,1-2.522,1.414A5.067,5.067,0,0,0,2.1,22.089l-.623-.765c.053-.063.154-.188.259-.308a4.707,4.707,0,0,0,1.2-2.345,3.81,3.81,0,0,1,1.237-2.016q3.264-3.253,6.538-6.5a6.6,6.6,0,0,0,.51-.653l2.78,2.831-.894.854" fill="#323232"/>
          </g>
        </g>
      </g>
    </g>
  </g>
</svg>
