<svg xmlns="http://www.w3.org/2000/svg" xmlns:xlink="http://www.w3.org/1999/xlink" width="50" height="50" viewBox="0 0 50 50">
  <defs>
    <clipPath id="clip-path">
      <rect id="Rect치ngulo_403300" data-name="Rect치ngulo 403300" width="19.494" height="19.344" fill="none"/>
    </clipPath>
  </defs>
  <g id="Grupo_1102226" data-name="Grupo 1102226" transform="translate(-180 -2771)">
    <rect id="Rect치ngulo_403299" data-name="Rect치ngulo 403299" width="50" height="50" transform="translate(180 2771)" fill="#ffc7b8"/>
    <g id="Grupo_1101547" data-name="Grupo 1101547" transform="translate(0 2157)">
      <g id="Grupo_1101199" data-name="Grupo 1101199" transform="translate(0 -157)">
        <path id="Trazado_911258" data-name="Trazado 911258" d="M15.5,0A15.5,15.5,0,1,1,0,15.5,15.5,15.5,0,0,1,15.5,0Z" transform="translate(190.051 781)" fill="#3c3c3c"/>
      </g>
      <g id="Grupo_1101549" data-name="Grupo 1101549" transform="translate(196.051 630)">
        <g id="Grupo_1101548" data-name="Grupo 1101548" transform="translate(0 0)" clip-path="url(#clip-path)">
          <path id="Trazado_911807" data-name="Trazado 911807" d="M19.132,1.659A3.154,3.154,0,0,0,15.985.025a3.2,3.2,0,0,0-1.927.967l-2.983,3.06c-.775-.5-1.2-.525-1.667-.1-.45.412-.883.845-1.3,1.292A1.033,1.033,0,0,0,8.123,6.7c.151.165.327.306.562.524-.16.127-.277.2-.374.3q-2.788,2.763-5.571,5.532a4,4,0,0,0-1.264,2.153,2.889,2.889,0,0,1-.749,1.435c-.181.205-.375.4-.559.6A.488.488,0,0,0,.189,18L1.2,19c.461.458.595.452,1.077,0A3.57,3.57,0,0,1,4.051,17.9,3.817,3.817,0,0,0,6.1,16.817q2.7-2.636,5.385-5.293c.244-.242.445-.528.722-.862.209.256.308.4.433.524a1.108,1.108,0,0,0,1.71,0c.293-.288.6-.563.868-.875a2.058,2.058,0,0,0,.545-.85,3,3,0,0,0-.2-1.036l-.14-.035a2.75,2.75,0,0,0,.3-.226c.99-.983,1.993-1.956,2.961-2.96a3.077,3.077,0,0,0,.452-3.539m-8.335,9.2Q8.269,13.35,5.743,15.846A3.834,3.834,0,0,1,3.667,17.01a4.17,4.17,0,0,0-1.935,1.171l-.512-.63c.044-.052.126-.154.213-.253a3.875,3.875,0,0,0,.991-1.93,3.136,3.136,0,0,1,1.018-1.659Q6.13,11.032,8.824,8.362a5.436,5.436,0,0,0,.42-.537l2.288,2.33c-.235.224-.489.46-.736.7" transform="translate(0 0)" fill="#b6b5b6"/>
        </g>
      </g>
    </g>
  </g>
</svg>
