<svg xmlns="http://www.w3.org/2000/svg" xmlns:xlink="http://www.w3.org/1999/xlink" width="609.975" height="309.151" viewBox="0 0 609.975 309.151">
  <defs>
    <clipPath id="clip-path">
      <rect id="Rectángulo_403563" data-name="Rectángulo 403563" width="436.11" height="255.803" fill="#fff"/>
    </clipPath>
    <clipPath id="clip-path-2">
      <rect id="Rectángulo_403564" data-name="Rectángulo 403564" width="436.11" height="246.66" fill="#048fe5"/>
    </clipPath>
    <clipPath id="clip-path-3">
      <rect id="Rectángulo_403270" data-name="Rectángulo 403270" width="30.629" height="27.728" fill="#323232"/>
    </clipPath>
  </defs>
  <g id="Grupo_1102222" data-name="Grupo 1102222" transform="translate(-185.176 -879)">
    <path id="Trazado_912562" data-name="Trazado 912562" d="M10,0H599.975a10,10,0,0,1,10,10V299.151a10,10,0,0,1-10,10H10a10,10,0,0,1-10-10V10A10,10,0,0,1,10,0Z" transform="translate(185.176 879)" fill="#b2d7ff"/>
    <g id="Grupo_1101913" data-name="Grupo 1101913" transform="translate(-18 0.303)">
      <g id="Grupo_1101909" data-name="Grupo 1101909" transform="translate(272.176 904.697)">
        <g id="Grupo_1101908" data-name="Grupo 1101908" clip-path="url(#clip-path)">
          <path id="Trazado_912510" data-name="Trazado 912510" d="M2072.554,1216.015c.788-.562.319-1.756-1.945-1.515q-.794,1.039-1.612,2.078Z" transform="translate(-1636.8 -960.775)" fill="#fff"/>
          <path id="Trazado_912511" data-name="Trazado 912511" d="M1995.617,1200.989a18.152,18.152,0,0,0-2.043.715c-.332.146-.648.277-.945.428a6.433,6.433,0,0,0-.813.482c-.968.687-1.43,1.553-.675,2.611a11.132,11.132,0,0,1,1.8-.836c.5-.193.936-.316,1.375-.447a9.914,9.914,0,0,0,3.28-1.636,6.989,6.989,0,0,1,1.548.141,4.4,4.4,0,0,1,1.182.373c.637.319.945.75.735,1.123a5.116,5.116,0,0,1,2.22-.042,5.865,5.865,0,0,0,1.386-.048,2.136,2.136,0,0,0,1.15-.6,11.415,11.415,0,0,0-1.125-.532,10.62,10.62,0,0,0-1.185-.437,11.55,11.55,0,0,0-2.537-.46,13.389,13.389,0,0,0-1.345-.026c-.228,0-.459.024-.69.032s-.464.021-.7.04a18,18,0,0,0-2.9.486c-.785-.526.069-1,.289-1.362" transform="translate(-1574.91 -950.112)" fill="#fff"/>
          <path id="Trazado_912512" data-name="Trazado 912512" d="M1898.425,545.778l-1.119.924a5.521,5.521,0,0,0,1.119-.924" transform="translate(-1500.974 -431.769)" fill="#fff"/>
          <path id="Trazado_912513" data-name="Trazado 912513" d="M1376.953,555.972c.864-.574,1.128-.974,1.076-1.162-.756.611-1.368,1.126-1.076,1.162" transform="translate(-1089.26 -438.915)" fill="#fff"/>
          <path id="Trazado_912514" data-name="Trazado 912514" d="M1278.125,609.649c.447-.231.8-.453,1.2-.668a1.942,1.942,0,0,0-1.2.668" transform="translate(-1011.135 -481.77)" fill="#fff"/>
          <path id="Trazado_912515" data-name="Trazado 912515" d="M1902.663,535.08c.474-.377.99-.835,1.476-1.286s.973-.929,1.442-1.427c-.2-.307-.59.053-1.1.648l-.855,1.018c-.155.184-.317.367-.481.548s-.32.337-.481.5" transform="translate(-1505.212 -421.071)" fill="#fff"/>
          <path id="Trazado_912516" data-name="Trazado 912516" d="M1866.235,1194.04a7.444,7.444,0,0,0,2.1.076c-.637-.1-1.252-.213-1.88-.349a1.951,1.951,0,0,1-.218.274" transform="translate(-1476.393 -944.398)" fill="#fff"/>
          <path id="Trazado_912517" data-name="Trazado 912517" d="M1702.913,749.913l-.7.784a5.471,5.471,0,0,0,.044,1.208Z" transform="translate(-1346.619 -593.262)" fill="#fff"/>
          <path id="Trazado_912518" data-name="Trazado 912518" d="M1608.294,920.375c.047-.428-.349-.743-.858-1.015s-1.131-.493-1.5-.71a3.149,3.149,0,0,1,.756.972,3.626,3.626,0,0,1,.338,1.117,2.479,2.479,0,0,0,1.26-.365" transform="translate(-1270.473 -726.751)" fill="#fff"/>
          <path id="Trazado_912519" data-name="Trazado 912519" d="M1831.579,1145.973l1.26.248c-.332-.053-.87-.195-1.26-.248" transform="translate(-1448.977 -906.589)" fill="#fff"/>
          <path id="Trazado_912520" data-name="Trazado 912520" d="M1818.038,644.981a1.277,1.277,0,0,0,.732.183.884.884,0,0,0-.732-.183" transform="translate(-1438.265 -510.245)" fill="#fff"/>
          <path id="Trazado_912521" data-name="Trazado 912521" d="M240.263,400.227c-.036-.125-.122-.165-.171-.263-.128.291-.129.44.171.263" transform="translate(-189.875 -316.415)" fill="#fff"/>
          <path id="Trazado_912522" data-name="Trazado 912522" d="M6.785,497.6l.561-.478a4.409,4.409,0,0,0-.406-.913Z" transform="translate(-5.368 -392.554)" fill="#fff"/>
          <path id="Trazado_912523" data-name="Trazado 912523" d="M1108.8,722.411c.077-.034.1-.052.169-.088.756-.838.28-.425-.169.088" transform="translate(-877.184 -571.056)" fill="#fff"/>
          <path id="Trazado_912524" data-name="Trazado 912524" d="M1347.064,143.448c1.195.233,1.341.539,1.011.877a3.491,3.491,0,0,1-.785.528l-1.084.564c-1.461.778-2.594,1.521.868,1.836-.364-.3,1.053-1.187,1.872-2.035s1.028-1.655-1.883-1.77" transform="translate(-1063.877 -113.483)" fill="#fff"/>
          <path id="Trazado_912525" data-name="Trazado 912525" d="M1854.073,1189.868c-.607-.194-1.222-.4-1.828-.631a9.2,9.2,0,0,0,1.828.631" transform="translate(-1465.325 -940.815)" fill="#fff"/>
          <path id="Trazado_912526" data-name="Trazado 912526" d="M1355.716,161.664l0,.014.714.069-.715-.082" transform="translate(-1072.518 -127.894)" fill="#fff"/>
          <path id="Trazado_912527" data-name="Trazado 912527" d="M743.526,996.687a1.952,1.952,0,0,0,1.008.35c-.106-.149-.372-.251-1.008-.35" transform="translate(-588.209 -788.487)" fill="#fff"/>
          <path id="Trazado_912528" data-name="Trazado 912528" d="M1020.253,810.8l-1.549.909a9.5,9.5,0,0,0,1.549-.909" transform="translate(-805.905 -641.43)" fill="#fff"/>
          <path id="Trazado_912529" data-name="Trazado 912529" d="M727.5,911.439c.216-.377.423-.606.589-.89a4.271,4.271,0,0,0,.444-1.205,1.534,1.534,0,0,0-.347.24,2.013,2.013,0,0,1-.089.81,3.643,3.643,0,0,1-.6,1.046" transform="translate(-575.528 -719.389)" fill="#fff"/>
          <path id="Trazado_912530" data-name="Trazado 912530" d="M829.348,785.124a6.937,6.937,0,0,0-.763.167l-.849.841c.535-.339,1.068-.679,1.611-1.007" transform="translate(-654.829 -621.118)" fill="#fff"/>
          <path id="Trazado_912531" data-name="Trazado 912531" d="M715.686,117.132a5.885,5.885,0,0,1-2.261-.68c1.061.882-3.786,3.672,2.261.68" transform="translate(-563.731 -92.126)" fill="#fff"/>
          <path id="Trazado_912532" data-name="Trazado 912532" d="M1862.376,1190.539a1.422,1.422,0,0,1-1.38.359c.445.134.885.221,1.312.315.193-.215.292-.443.068-.674" transform="translate(-1472.25 -941.845)" fill="#fff"/>
          <path id="Trazado_912533" data-name="Trazado 912533" d="M668.806,863.007a60.937,60.937,0,0,1,3.476-6.372,36.94,36.94,0,0,0-3.476,6.372" transform="translate(-529.098 -677.691)" fill="#fff"/>
          <path id="Trazado_912534" data-name="Trazado 912534" d="M273.154,836.805a13.739,13.739,0,0,1-2.766-.815,5.975,5.975,0,0,0,2.766.815" transform="translate(-213.906 -661.358)" fill="#fff"/>
          <path id="Trazado_912535" data-name="Trazado 912535" d="M744.5,768.3a11.729,11.729,0,0,0,1.835-.782,16.9,16.9,0,0,0,1.7-1,2.787,2.787,0,0,0,.244-.861c-.635.422-1.261.864-1.894,1.3s-1.252.9-1.88,1.348" transform="translate(-588.979 -605.714)" fill="#fff"/>
          <path id="Trazado_912536" data-name="Trazado 912536" d="M716.519,116.4a.021.021,0,0,1,.02.011.021.021,0,0,0-.02-.011" transform="translate(-566.844 -92.085)" fill="#fff"/>
          <path id="Trazado_912537" data-name="Trazado 912537" d="M115.855,46.62a8.178,8.178,0,0,0,2.377-1.714,1.147,1.147,0,0,0,.261-1.2c-.258-.7-1.1-1.277-.878-2.156,5.825-3.918,3.653-.049,6.3-.14a35.174,35.174,0,0,0,4.441-4.167,15.054,15.054,0,0,1,3.979-3.3c.391.224,1.013.053.579.822,1.616-1.879,4.656-3.447,7.746-5.123l1.16-.633c.386-.208.77-.418,1.15-.632.76-.426,1.5-.868,2.208-1.321a16.885,16.885,0,0,0,3.623-2.967,1.589,1.589,0,0,1,.874.223,4.008,4.008,0,0,1-2.1-2.52c2.34-1.167,3.8-3.381,5.321-2.413-1.477.625-1.345,1.236-1.827,1.975l2.213-1.731c1.566.5.787,1.037-.285,1.66s-2.456,1.3-2.113,2.033c1.126-.714,2.275-1.507,3.433-2.315l1.745-1.187c.582-.393,1.161-.791,1.742-1.149a21.269,21.269,0,0,1,6.6-3.086c.381.432.031.875-.607,1.329a17.676,17.676,0,0,1-2.372,1.3c-.4.192-.769.379-1.05.549a1.528,1.528,0,0,0-.535.426c-.114.231.325.328,1.735.271-2.007.522-4.023,1.057-6.036,1.655,2.851.588,1.953.916,1.04,1.282s-1.858.778.841,1.56c1.909-.682,3.356-1.236,4.57-1.815,1.216-.554,2.2-1.069,3.195-1.6.992-.513,1.989-1,3.215-1.511.614-.245,1.288-.468,2.045-.7.379-.116.779-.232,1.2-.348s.876-.2,1.354-.307c.675-.812.419-1.193.155-1.572s-.532-.756.171-1.578q.485-.245.941-.454c.3-.132.6-.244.889-.351.574-.21,1.111-.377,1.613-.508a9.138,9.138,0,0,1,2.646-.314,7.626,7.626,0,0,1,2.021.306,13.093,13.093,0,0,1,1.617.651,10.152,10.152,0,0,0,2.96,1.057,5.209,5.209,0,0,0,1.84-.119c.349-.09.723-.173,1.128-.309a13.281,13.281,0,0,0,1.322-.522,7.768,7.768,0,0,0,.681-.638c.217-.226.427-.46.643-.676a7.491,7.491,0,0,1,1.478-1.234,4.973,4.973,0,0,1,.986-.457,5.465,5.465,0,0,1,.585-.162q.136-.029.281-.051c.091-.013.184-.023.28-.031a2.391,2.391,0,0,1,1.008.113,1.02,1.02,0,0,1,.176.089c.035.037.088.069.1.108a.126.126,0,0,1,.013.106.2.2,0,0,1-.115.08c-.132.383-.237.78-.332,1.17-.039.194-.1.391-.14.584-.062.2-.1.387-.163.583.066.026-.014.019-.186-.064a2.68,2.68,0,0,1-.657-.464,2.576,2.576,0,0,1-.806-1.472,1.491,1.491,0,0,1,.165-1.066.746.746,0,0,1,.508-.344c.35-.052.659.151.607.638a2.249,2.249,0,0,1-.429.967,5.493,5.493,0,0,1-.535.646c-.226.241-.454.429-.875.826a2.3,2.3,0,0,1,.049-.346c.013-.061.029-.123.046-.187s.017-.1.029-.159c.038-.207.1-.423.155-.637.125-.428.255-.841.33-1.146a1.616,1.616,0,0,0,.075-.574c-.021-.079-.063-.1-.145-.061a1.812,1.812,0,0,0-.68.394,1.594,1.594,0,0,0-.388.513A1.678,1.678,0,0,0,193,12.1l.017.073,0,.09.008.183c.006.122.012.246.018.374a4.546,4.546,0,0,1-.032.807,4.465,4.465,0,0,1-.92,2.065l-2.206-.6c-.282.433-.592.853-.89,1.285l-.9,1.307c-.6.881-1.178,1.789-1.81,2.679s-1.24,1.811-1.863,2.736c-.638.914-1.3,1.826-1.954,2.753l-.993,1.391-1.039,1.372L179.4,30c-.355.457-.7.924-1.075,1.369q-1.106,1.349-2.246,2.688c-.376.449-.769.884-1.167,1.316s-.8.863-1.2,1.291c-.067-.819.606-2.408-1.409-1.352a85.507,85.507,0,0,1-13.641,12.428c-5.04,3.774-10.351,7.148-15.308,10.16-.8,1.378-1.589,2.763-2.4,4.143-.837.6-2.029.487-1.352-.468-4.028,2.16.516,1.073-.787,2.958-1.983,1.652-3.364,1.191-2.381-.226C130.975,70.346,120,80.554,111.992,84.12L113,82.682a10.9,10.9,0,0,0-3.115,2.647,17.647,17.647,0,0,0-1.658,2.7,11.326,11.326,0,0,1-1.687,2.5,8.726,8.726,0,0,1-3.2,2.1l.738-.983A206.086,206.086,0,0,0,86.809,105.5c-1.361,1.2-2.716,2.368-4.052,3.5-1.32,1.153-2.64,2.248-3.936,3.3q-1.926,1.6-3.833,2.982c-1.269.938-2.522,1.814-3.769,2.6.2,1.7-2.563,4.169-5.013,6.835-2.464,2.637-4.575,5.491-3.346,6.96l-3.7,3.379-.663.6-.6.556c-.392.36-.762.708-1.135,1.1s-.764.8-1.176,1.3-.864,1.084-1.37,1.8-1.055,1.575-1.665,2.636c-.312.526-.616,1.117-.958,1.752l-.5,1.013-.262.54-.257.571a8.153,8.153,0,0,0-.231,4.725c.146.782.294,1.576.415,2.45.056.436.09.888.119,1.371s.009.985-.009,1.529l-1.926-.164.307,1.593c.111.554.231,1.127.373,1.725s.3,1.206.494,1.838a19.612,19.612,0,0,0,.693,1.926,11.289,11.289,0,0,0-.386,5.727,14.6,14.6,0,0,0,1.215,1.541l.336.366c.115.12.239.237.36.354.247.231.485.464.753.675a13.246,13.246,0,0,0,3.393,2.06,9.061,9.061,0,0,1-1.881-1.374,8.058,8.058,0,0,1-1.324-1.611,6.865,6.865,0,0,1-.376-.716,2.833,2.833,0,0,1-.179-.568c-.06-.318-.007-.5.167-.5a14.562,14.562,0,0,0,3.275,2.74,14.916,14.916,0,0,0,3.856,1.643,21.038,21.038,0,0,0,3.592.631c1.117.1,2.15.13,3.1.131s1.815-.029,2.591-.06,1.462-.063,2.046-.075c1.161-.03,1.909.013,2.043.229.646-.321,1.269-.663,1.882-1.016.306-.178.609-.358.909-.545q.226-.137.448-.282l.222-.143c.072-.047.156-.1.207-.137l2.793-1.992L82.635,169c.461-.333.928-.658,1.385-1l1.356-1.035c.065.413-.358.964-.962,1.582S83,169.8,82.326,170.456A19.819,19.819,0,0,1,83.982,169a5.371,5.371,0,0,1,1.025-.66.9.9,0,0,1,1.02.089c.481.331.917.713,3.328-1.756-.992.075-.173-1.234-.245-1.644a11.178,11.178,0,0,0,1.425-.393q.388-.132.8-.294c.272-.113.551-.239.837-.371,1.145-.533,2.4-1.209,3.689-1.967.644-.379,1.3-.779,1.947-1.191.324-.207.652-.413.971-.63l.945-.663c1.251-.891,2.456-1.8,3.542-2.672l-.148,1.7c1.069-.661,2.144-1.345,3.216-2.058q1.585-1.095,3.18-2.251t3.2-2.353c1.063-.808,2.116-1.643,3.183-2.478l3.213-2.527,3.211-2.584q1.615-1.294,3.256-2.578c1.091-.857,2.172-1.725,3.275-2.572-3.533,1.954-4.207-.445-1.779-2.607l2.279.818c.883-2.283-3.155,1.47-.7-2.388,1.708-1.171,2.611-1.146,2.908-.575s-.012,1.689-.751,2.681c1.191-1.212,2.354-2.444,3.522-3.67.609.295-.116,1.279.124,2.081.418-1.14,2.438-2.087,4.479-3.2s4.071-2.407,4.541-4.2l.6.3c2.163-1.729,3.974-3.264,5.611-4.675s3.083-2.7,4.469-3.957,2.727-2.47,4.147-3.731,2.915-2.556,4.629-3.984c-.488-.739.006-1.584.769-2.591a16.9,16.9,0,0,0,2.381-3.554c1.364-.915,2.789-1.832,4.267-2.739s2.994-1.834,4.53-2.8,3.1-1.957,4.655-3.022q1.167-.8,2.328-1.651.579-.428,1.155-.872t1.152-.892c1.913-2.015,2.012-2.552,1.794-2.879s-.754-.447-.079-1.608c.647.523,2.5-.432,3.891-1.064s2.287-.991,1,.67c3.683-2.884,6.071-4.666,8.642-6.73,1.294-1.017,2.623-2.125,4.216-3.421s3.427-2.829,5.729-4.7c-1.438.132-2.8.7-2.473-.173,1.66-1.4,4.482-2.078,4.63-1.263l-.387.446a24.488,24.488,0,0,1,1.956-1.638c.685-.521,1.4-1.025,2.136-1.505s1.509-.929,2.294-1.368c.392-.219.788-.438,1.191-.647s.811-.41,1.222-.61a98.825,98.825,0,0,1,10.241-4.168l5.069-1.785c.824-.291,1.628-.6,2.421-.894s1.567-.595,2.317-.909c.376-.156.743-.32,1.108-.479s.724-.317,1.077-.481q1.057-.493,2.028-1.039a19.568,19.568,0,0,0,3.506-2.39l-.469.382c3.072-1.908,6.191-3.781,9.392-5.509,2.383-.7,1.776-.165,1.057.506s-1.549,1.478.324,1.338c.311-.2.618-.4.926-.575s.615-.351.919-.517q.912-.5,1.8-.93c.59-.3,1.179-.541,1.758-.777s1.152-.452,1.716-.655c.283-.1.562-.2.842-.291l.836-.252q.831-.243,1.643-.454c1.081-.3,2.15-.5,3.2-.715l1.567-.31c.52-.1,1.041-.18,1.559-.274s1.035-.188,1.552-.29l.776-.158.78-.15c1.043-.2,2.091-.451,3.161-.748a33,33,0,0,0,3.3-1.018,11.654,11.654,0,0,0,3.373.891q.467.057.954.089t1,.072c.676.033,1.377.038,2.1.02s1.465-.036,2.226-.075,1.54-.092,2.332-.161c.695-.05,1.338-.089,1.91-.106s1.069-.013,1.441.007a6.5,6.5,0,0,0,.653.034c.055-.016-.084-.119-.233-.3a1.816,1.816,0,0,1-.308-.56c-.036-.12.008-.077.027.128a4.081,4.081,0,0,1-.049.963,8.242,8.242,0,0,1-.347,1.387c-.037.114-.093.267-.144.405l-.158.415c-.055.136-.106.271-.166.4l-.189.388a9,9,0,0,1-.859,1.407q.6-.066,1.2-.148a3.24,3.24,0,0,1,.078.78,2.186,2.186,0,0,1-.115.6,1.881,1.881,0,0,1-.592.827,6.367,6.367,0,0,0-1.554,1.412c.45.065.885-.387,1.235-.675.176-.144.316-.248.425-.222s.19.181.2.554a31.356,31.356,0,0,1-2.906,6.638,43.369,43.369,0,0,1-4.428,6.257A76.216,76.216,0,0,1,279.557,76.37c-1.109.853-2.223,1.694-3.39,2.519l-3.5,2.466c-2.309,1.666-4.739,3.2-7.115,4.782l-1.786,1.177-1.82,1.14-3.619,2.285c-1.19.774-2.426,1.5-3.635,2.252s-2.419,1.5-3.618,2.251c-3.527,2.2-3.72,4.041-4.3,5.812s-1.584,3.432-6.753,5.19l1.4-3.37a100.522,100.522,0,0,1-10.258,7.791q-2.7,1.807-5.465,3.532c-1.841,1.154-3.707,2.289-5.566,3.421-7.443,4.532-14.928,9.027-21.486,14.507.592-.945.281-1.482,1.679-2.367a10.9,10.9,0,0,0-3.357,1.4,29.72,29.72,0,0,0-3.591,2.569,23.127,23.127,0,0,0-2.75,2.632c-.651.784-.985,1.4-.827,1.66-2.274,1.375-1.129-.574-2.835-.171-1.746.658-3.371,2.306-4.818,3.848-1.456,1.526-2.774,2.86-4,2.81-.41-.007.549-.987,1.025-1.466a12.262,12.262,0,0,1-2.018,1.8c-.878.684-1.862,1.442-2.718,2.124-1.71,1.37-2.872,2.491-1.439,2.506-.708.4-1.388.822-2.042,1.262s-1.3.943-1.917,1.434c-1.23.995-2.375,2.036-3.474,3.07a48.982,48.982,0,0,1-6.511,5.559c-.6,1.9-2.775,3.766-4.626,5.611-.464.458-.909.909-1.295,1.362a10.119,10.119,0,0,0-.992,1.3,2.245,2.245,0,0,0-.353,2.263c-.477-.541-1.288-.312-2.275.421a16.21,16.21,0,0,0-3.177,3.53,28.814,28.814,0,0,0-2.774,5.042c-.181.432-.361.845-.507,1.264s-.281.821-.4,1.2a13.306,13.306,0,0,0-.477,2.061c-.066-.868-.7-.075-1.322.721s-1.264,1.579-1.461.5a24.626,24.626,0,0,0-1.781,6.977c-.018.232-.034.45-.034.658s.01.405.024.586a3.637,3.637,0,0,0,.165.9c.164.464.439.648.844.487a15.019,15.019,0,0,0-1.848,7.373c.01.629.04,1.255.086,1.872.016.309.066.615.108.92s.091.607.14.906.1.6.158.891l.206.871.212.854c.072.284.138.553.227.858.167.592.352,1.2.563,1.814.1.3.218.622.329.929s.236.626.373.949a24.457,24.457,0,0,0,1.993,3.881,20.733,20.733,0,0,0,1.382,1.9c.245.31.512.608.778.9s.531.562.795.842a41.88,41.88,0,0,0,3.411,3.012c.48.133.949.221,1.42.305.462.068.928.129,1.371.154s.879.036,1.31.036c.416-.012.836-.029,1.227-.069s.775-.09,1.155-.145c.362-.065.734-.128,1.073-.21a19.468,19.468,0,0,0,1.953-.549,24.114,24.114,0,0,0,3.291-1.4,31.736,31.736,0,0,0,2.754-1.593q.64-.412,1.241-.834.3-.21.594-.423l.145-.105.123-.095.247-.189,1.969-1.5,3.894-2.948,3.8-2.938c.629-.486,1.265-.96,1.884-1.449l1.856-1.458,3.692-2.873,3.631-2.869c.316.641-.211,1.463-1.148,2.37a21.07,21.07,0,0,1-1.657,1.411c-.62.481-1.3.959-1.964,1.44a30.832,30.832,0,0,0-3.485,2.745c-.84.846-1.241,1.561-.717,2.111l.848-.691.81-.693q.8-.688,1.547-1.358c1-.893,1.947-1.761,2.857-2.609,1.8-1.716,3.455-3.36,5.141-4.946s3.358-3.165,5.245-4.706a67.73,67.73,0,0,1,6.349-4.676c1.308-.737,1.153-.239.607.57s-1.5,1.913-1.763,2.407c4.333-3.917,8.822-7.257,13.15-10.548,2.158-1.649,4.268-3.29,6.294-4.983A70.382,70.382,0,0,0,224,175.821c.14.225-.555,1.133-1.248,1.946,1.543-1.316,3.959-2.566,2.988-3.439l-1.336,1.488c-3.687.517,3.917-8.009,3.592-9.006-.428,5.008,8.533-5.5,7.115,1.516.9-1.007,1.832-2.507,1.065-3,1.7-1.013,2.505-1,1.533,1,5.256-4.986,2.4-4.483,7.58-8.46.362.508-.533,1.5-.62,2.5a32.912,32.912,0,0,1,3.174-4.461,22.263,22.263,0,0,1,5.3-4.408c-.038.5.766.5-.55,1.483a58.368,58.368,0,0,0,4.986-4.456c1.523-1.49,2.951-2.994,4.428-4.482a64.214,64.214,0,0,1,4.765-4.328,40.53,40.53,0,0,1,5.981-3.97c-.478,1.987.371,1.663,1.556,1.047s2.736-1.487,3.618-.673c1.394-1.223,2.778-2.47,4.2-3.659-.825.092-1.659.172-2.482.277a45.44,45.44,0,0,0,5.386-4.4,19.113,19.113,0,0,1,5.325-3.565l-2.541,2.734,3.727-2.6,3.775-2.524-2.434.94c-.811.317-1.63.62-2.431.959.221-.228.406-.436.562-.626a5.245,5.245,0,0,0,.386-.511,2.111,2.111,0,0,0,.34-.773,1.371,1.371,0,0,0-.207-.913c-.211-.466-.13-.835,2.831-2.229-.5.447.543-.188,2.091-.919a15.03,15.03,0,0,1,5.045-1.564s-.015.008-.012.014c.435-.456.864-.934,1.338-1.374a18.556,18.556,0,0,1,1.527-1.3,14.536,14.536,0,0,1,4.157-2.2c.591.123.718.782.8,1.431s.114,1.3.494,1.373c.6-1.4,3.076-2.784,5.615-4.224,1.286-.683,2.591-1.375,3.69-2.1a12.407,12.407,0,0,0,1.468-1.1,5.688,5.688,0,0,0,1-1.145,1.569,1.569,0,0,0-.349,1.33c.076.405.289.714.489.76.382-.758.78-1.49,1.176-2.24,2.271-.416,2.663-.316,2.712.727,3.139-1.182,2.371-1.661,1.788-2.084-.291-.212-.536-.41-.214-.679a9.2,9.2,0,0,1,3.207-1.01c-.54.347-.173.461-1.3,1.157a57.354,57.354,0,0,0,5.576-2.01c1.818-.687,3.588-1.433,5.343-2.171.873-.384,1.764-.7,2.647-1.025s1.768-.635,2.655-.927q.666-.219,1.333-.423c.445-.136.89-.269,1.344-.367.9-.21,1.813-.39,2.729-.534,1.351.858-.162,1.411-1.641,1.906-.37.124-.738.244-1.06.365a3.667,3.667,0,0,0-.77.4c-.36.267-.352.538.374.834.616-.23,1.247-.417,1.874-.63s1.256-.426,1.886-.648,1.261-.451,1.893-.683l.949-.353c.317-.12.633-.239.95-.345,2.535-.908,5.093-1.765,7.673-2.506l.968-.272c.323-.092.646-.179.969-.256l1.942-.468c1.3-.264,2.594-.527,3.886-.686a31.487,31.487,0,0,1,7.612-.184c-.609-.107-1.219-.23-1.836-.326.708-1.641,2.646-1.191,4.883-.332.559.216,1.134.481,1.725.714.294.122.6.225.892.349s.6.242.9.348a10.092,10.092,0,0,0,3.727.671c-1.239-.072-1.965,1.409-1.572,1.12.38.133.769.241,1.149.373s.758.271,1.143.4l.581.184.293.089.286.107q.575.211,1.168.408a18.068,18.068,0,0,1,3.87,1.618,4.465,4.465,0,0,1,.567.418,3.481,3.481,0,0,1,.474.539,3.367,3.367,0,0,1,.574,1.678,7.732,7.732,0,0,1-.265,2.65,15.9,15.9,0,0,1-1.212,3.158c-.025-.493-.06-.974-.125-1.443l-2.038,2.348-.583.652-.644.7c-.454.49-.911.993-1.367,1.5s-.935,1-1.4,1.5l-.693.739-.7.713c-.464.468-.918.921-1.361,1.35s-.892.821-1.313,1.186a4.726,4.726,0,0,1-.443,1.159c-.195.373-.4.724-.54,1.02-.272.592-.258.968.734.855a35.83,35.83,0,0,0-8.539,5.826,82.948,82.948,0,0,0-6.836,7.168c-2.157,2.465-4.267,4.927-6.564,7.141a33,33,0,0,1-7.746,5.71,8.224,8.224,0,0,0,1.319-1.84c.274-.525.306-.814-.13-.395-2.4,2.715-4.749,5.5-6.993,8.382a2.147,2.147,0,0,0,1.717-.225,12.48,12.48,0,0,1,2.264-1.128,6.7,6.7,0,0,1-.454,1.358c-.109.25-.236.509-.373.776s-.283.546-.442.825c-.319.557-.685,1.124-1.078,1.676a18.31,18.31,0,0,1-1.23,1.6c1.2-2.125.768-2.514-.23-2.218a20.392,20.392,0,0,0-3.545,1.847c.568.007.486.879.949,1.026a8.419,8.419,0,0,0-1.544.919,2.073,2.073,0,0,0-.634.752,1.586,1.586,0,0,0,.182,1.288,2.226,2.226,0,0,1,.1,1.681,4.279,4.279,0,0,1-.722,1.258c-.187.243-.419.5-.686.784s-.57.6-.928.933l-.4-.765c-.322.655-.617,1.309-.874,1.979s-.492,1.347-.748,2.013l-.2.5-.189.505c-.13.336-.269.669-.419,1s-.314.659-.493.985-.352.662-.557.988c-1.037.176-.859-.592-.545-1.518.34-.907.809-1.962.267-2.4a12.118,12.118,0,0,0-1.17,3.129c-.131.547-.245,1.1-.355,1.64s-.183,1.1-.283,1.635-.2,1.063-.33,1.571a11.925,11.925,0,0,1-.415,1.5,7.913,7.913,0,0,1-.641,1.371,6.205,6.205,0,0,1-.907,1.252,14.127,14.127,0,0,1,.266-1.528c.136-.529.305-1.075.471-1.623l.247-.821c.079-.273.158-.544.245-.8a14.772,14.772,0,0,0,.406-1.505,13.678,13.678,0,0,0-3.213,3.534c-.072.12-.14.238-.2.358s-.118.244-.175.367c-.113.248-.221.5-.336.772-.226.544-.488,1.144-.834,1.912.049-.1.1-.2.147-.3a49.644,49.644,0,0,0-2.869,7.443c.142-.328.3-.646.453-.964s.307-.634.472-.944a14.9,14.9,0,0,1,1.24,4.692c.155,1.5.121,3,.163,4.575a19.36,19.36,0,0,0,.645,4.9c.133.414.278.83.439,1.244.084.206.156.417.261.618s.21.4.321.6.228.4.349.6a5.275,5.275,0,0,0,.394.583c.289.379.6.75.932,1.109-1.311-1.4-1.99-2.273-2.432-2.639-.221-.186-.36-.259-.456-.243s-.157.123-.182.278c-.112.62.16,2.1-.825,2.129.053.543.153,1.147.24,1.752.023.151.045.3.066.451s.055.289.082.429c.053.281.1.551.141.8.146,1.006.2,1.648-.266,1.357a9.353,9.353,0,0,1,1.811,2.21c.232.377.428.777.633,1.171l.631,1.2c.11.2.217.414.342.614s.254.4.392.6a9.31,9.31,0,0,0,.95,1.2,10.415,10.415,0,0,0,1.28,1.124,11.17,11.17,0,0,0,1.711.975c-.151.3.534,1.024,1.04,1.739s.87,1.377.03,1.636c.958.775,1.442,1.03,1.625,1.019s.073-.308-.13-.7c-.4-.8-1.151-2.007-.736-2.134a24.092,24.092,0,0,1,4.7,3.592q.575.525,1.147,1.092c.384.373.774.748,1.164,1.137s.793.762,1.2,1.153L349.892,228q.624.593,1.269,1.191l.652.6.331.3.346.281c.925.747,1.89,1.479,2.9,2.169q.76.518,1.558,1,.818.45,1.679.85a24.661,24.661,0,0,0,3.613,1.357,44.38,44.38,0,0,0,5.227,1.782c.737.214,1.452.339,2.128.466s1.326.229,1.967.332c1.286.2,2.524.428,3.957.662.712.128,1.46.282,2.268.476.4.1.822.2,1.258.324s.886.257,1.371.375c1.043.948.329,1.26-.664,1.327a7.831,7.831,0,0,1-1.485-.066c-.434-.051-.746-.107-.746-.107q.677.492,1.333.922c.444.275.888.517,1.326.751a26.073,26.073,0,0,0,2.623,1.2q.658.259,1.328.483c.45.142.912.256,1.38.372.936.227,1.905.421,2.93.6-.959.226-.3.938.675,2.014a4.713,4.713,0,0,0,3.1-.14,2.983,2.983,0,0,1,1.358-.063,5.057,5.057,0,0,1,.961.283c.369.139.784.356,1.283.593-.456.24-.986.537-1.624.8a7.775,7.775,0,0,1-2.259.588q1.484.235,2.979.379c1.006.064,2.015.109,3.022.154s2.014.095,3.022.15c1.016.024,2.032.066,3.048.147.412.634-.267.9-1.255,1.051s-2.285.207-3.064.341c.287.042.582.1.889.134l.945.112,1.99.232c.678.076,1.364.149,2.043.213.34.028.675.07,1.012.08l.995.031a24.879,24.879,0,0,0,3.5-.124,7.37,7.37,0,0,0,1.289-.264,2.489,2.489,0,0,0,.86-.469l-.7-.242-.692-.272-1.379-.544c1.631.2.609,1.575-.657,1.668a5.759,5.759,0,0,1-4.272-.656,2.772,2.772,0,0,1-1.237-1.625l1.441.113.719.056c.239.021.479.037.721.042a3.871,3.871,0,0,0-1.121-1.257,5.672,5.672,0,0,0-1.634-.786,11.794,11.794,0,0,0-2.041-.422c-.367-.051-.751-.074-1.137-.122s-.783-.083-1.187-.116c-.808-.066-1.646-.113-2.494-.159l-1.276-.072-.638-.04-.628-.069a22.4,22.4,0,0,1-4.646-.938q1.556-.884,3.069-1.781l-3.117.168-3.123.038c-.96-1.062-1.237-2.7,1.52-2.139a7.464,7.464,0,0,0-2.043-1.173,6.46,6.46,0,0,0-1.412-.279,4.333,4.333,0,0,1-2.955-1.528c-.269-.35-.061-.4.306-.365l-1.974-.378c-.657-.133-1.3-.3-1.956-.45.924-.183.153-1.95,2.189-.615a17.718,17.718,0,0,0-4.189-2.3c-.332-.131-.665-.24-.984-.358s-.629-.23-.936-.332c-.612-.2-1.2-.378-1.759-.541s-1.085-.313-1.573-.471a8.011,8.011,0,0,1-1.332-.527,3.549,3.549,0,0,1-1.716-1.681l.589.147a23.573,23.573,0,0,0-4.146-1.561c-.693-.129-.876.089-1.015.385-.284.588-.36,1.506-4.154.473l-.217-.829-.107-.413-.1-.424-.381-1.688q-.371-1.682-.7-3.339l-1.89,1.026c-.2-.16-.453-.345-.689-.571a7.7,7.7,0,0,1-.668-.693c-.382-.461-.571-.887-.2-1.085-1.888-.6-1.893-.341-1.724.034s.5.862-.752.695c-1.468-2.131-4.183-4.089-6.332-6.017s-3.678-3.818-2.876-5.211c-1.113-.151-.571.871-.251,1.564.156.347.264.6.058.577a6.179,6.179,0,0,1-1.768-1.14,2.123,2.123,0,0,0-.017-2.085,4.247,4.247,0,0,0-.66-.9c-.138-.149-.287-.3-.446-.449l-.478-.474-.515-.5c-.177-.169-.359-.342-.524-.531a14.264,14.264,0,0,1-1-1.2,9.242,9.242,0,0,1-.78-1.4,6.32,6.32,0,0,1-.382-1.611,2.965,2.965,0,0,1,1.336.826c.175.183.362.361.514.529s.289.32.4.435c.225.231.363.313.406.067a2.814,2.814,0,0,0-.005-.632c-.02-.306-.09-.705-.116-1.239-1.831-.442-2.481-2.482-2.517-4.591,0-.265-.01-.529-.007-.794l.053-.8c.011-.261.054-.528.077-.786s.049-.513.084-.767a11.4,11.4,0,0,0,.081-2.781.926.926,0,0,1-.683-.391,2.232,2.232,0,0,1-.377-.974,10.422,10.422,0,0,1,.086-3.3,39.122,39.122,0,0,1,.965-4.335c.1-.382.209-.765.317-1.15l.323-1.155c.217-.77.449-1.534.621-2.292.153.162.519-.422,1.134-1.414.305-.5.633-1.111,1.027-1.785s.842-1.413,1.3-2.193c.5-.765,1-1.574,1.531-2.381l.833-1.193.415-.593c.136-.2.275-.392.423-.58l.857-1.116c.285-.361.547-.721.836-1.049.564-.663,1.094-1.273,1.575-1.8l.219.357a2.639,2.639,0,0,1-.086-2.048,8.322,8.322,0,0,1,.481-1.266c.217-.435.475-.889.76-1.354.559-.939,1.275-1.892,1.981-2.853.347-.484.723-.95,1.073-1.418s.69-.931,1.007-1.381c.919,1.042.805,1.989-.221,4.15.419-.519.869-1.02,1.3-1.531l.655-.763c.22-.254.449-.5.673-.752a5.153,5.153,0,0,1,.56-1.921,16.872,16.872,0,0,1,1.733-2.6c.175.644.358,1.291.541,1.931,1.82-1.986,3.383-4.283,5.272-6.585a31.012,31.012,0,0,1,7.083-6.595c-.394-.728-2.191-.593-3.292-1.009s-1.5-1.392.941-4.345c.793.451,2,1.361.774,2.957.4-.521,1.222-2.091,2.441-2.7l-1.252,3.113c2.836-1.718.438-2.049,2.458-3.7.793.952,2.023-.644,2.406.335-.414.538-2.027,1.151-2.44,2.18,2.322-1.807,5.454-3.662,6.96-3.77-.666-.348-1.122-1.225.362-2.812,2.03-1.927,2.629-2,3.085-1.784s.757.692,2.175-.211a8.513,8.513,0,0,1,1.813-2.474c.7-.842,1.2-1.661.584-2.354,1.183-1.156,2.007-.766,2.819-.868a21.706,21.706,0,0,1,2.049-2.683l1.38-1.645c.466-.554.926-1.105,1.333-1.641s.78-1.032,1.075-1.474a5.5,5.5,0,0,0,.612-1.14c.212-.607-.008-.861-.92-.555l-.59.486c.064-.132.171-.259.253-.417l-.015.018.015-.018q.458-.8.96-1.564l1.045-1.566c.706-1.065,1.405-2.141,2.069-3.267a26.926,26.926,0,0,0,1.8-3.586,13.625,13.625,0,0,0,1.014-4.222,9.725,9.725,0,0,0-.139-2.368,9.122,9.122,0,0,0-.772-2.334,9.513,9.513,0,0,0-1.358-2.056,11.229,11.229,0,0,0-1.719-1.593,16.528,16.528,0,0,0-3.646-2.035q-.893-.342-1.792-.647c-.3-.1-.6-.207-.9-.286s-.61-.15-.915-.219l.2-.586a65.94,65.94,0,0,0-9.3-1.333,22.264,22.264,0,0,0-7.939.732,6.571,6.571,0,0,1-1.333-.15,5.917,5.917,0,0,1-1.24-.418c-.722-.352-1.154-.766-.809-1.168-1.105.205-1.962.39-2.717.582s-1.415.37-2.141.5a19.322,19.322,0,0,1-2.519.334c-.507.03-1.061.081-1.7.105s-1.348.038-2.15.07a5.7,5.7,0,0,0,1.6-.9c.135-.162-.018-.218-.113-.245s-.133-.023.233-.066l.893-.109.755-.1,1.01-.112-1.043.041-.949.046-1.685.059c-1.041.05-1.947.106-2.856.228a17,17,0,0,0-6.36,2.434c.809-1.035-.344-1.245-2.029-1.046a19.694,19.694,0,0,0-2.73.548c-.459.124-.9.26-1.312.4a11.081,11.081,0,0,0-1.079.471l1.035-.022c.346,0,.7.007,1.042.01l2.078.032c-2.888.962-5.438,1.669-8.063,2.322l.776-2.421c-.749.065-1.48.163-2.194.289-.357.064-.71.132-1.058.21s-.685.183-1.021.283a32.129,32.129,0,0,0-3.854,1.437c-.615.272-1.216.558-1.806.852s-1.152.636-1.714.961c-1.123.653-2.208,1.321-3.274,1.967l-1.584.955q-.777.489-1.55.943a28.648,28.648,0,0,1-3.123,1.6q-.793.342-1.606.61a15.79,15.79,0,0,1-1.637.494,14.21,14.21,0,0,1-3.509.4c-1.088,1.309.461.873,2.048.453s3.218-.825,2.328.528a21.439,21.439,0,0,1-3.862,1.1c-.654.131-1.313.227-1.948.328s-1.252.193-1.845.271a26.09,26.09,0,0,0-5.1.834,10.483,10.483,0,0,0-5.826,4.232,12.1,12.1,0,0,1-5.768,4.721c.611.08,1.362.437,1.391,1.2s-.653,1.942-2.884,3.688a10.308,10.308,0,0,1-3.043,1.108,3.436,3.436,0,0,1-1.961-.1c-.892-.4-.9-1.425.369-2.56,1.061-.709,1.711-.822,1.794-.579,1.33-1.111,3.1-2.546.883-2.156l-.211.993c-2.684.662-8.818,4.666-8.021,2.711-3.034,2.742-.8,1.942,1.923.687-.793.339-1.53.682-2.224,1.028q-.52.26-1.011.522t-.945.543c-1.229.727-2.344,1.466-3.457,2.217l-1.683,1.137c-.563.391-1.14.786-1.745,1.184-1.211.8-2.533,1.612-4.084,2.447,1.155-.289,2.494-.143,1.575.472-1.129.62-2,1.164-2.7,1.625a16.745,16.745,0,0,0-1.6,1.173,3.407,3.407,0,0,0-1.17,1.511c-.289.827-.161,1.529-2.861,3.687-1.922.688-2.035-.065-2.3-.386-.133-.161-.3-.213-.762.078a18.391,18.391,0,0,0-2.463,2.147c-3.874,1.908-1.9-1.052-.888-2.551a19.312,19.312,0,0,1-3.43,3.1c-.6.426-1.2.813-1.81,1.169s-1.2.689-1.793.994c-2.362,1.225-4.6,2.067-6.114,3.068q1.142-1.257,2.305-2.5a29.543,29.543,0,0,1-4.018,3.488l2.417.023c-1.715.984-3.036,1.99-3.384,1.476-1.01,2,2.73,1.025.366,4.514-2.522,1-5.777,5.491-7.691,4.49,6.882-4.495-1.938-1.012,3.357-5.515a16.561,16.561,0,0,1-3.924,3c-.367.006-.032-.493.32-.911-7.263,3.429-1.479,3.975-7.89,8.932.126-1.511-2.781-.5-3.675.5,2.586-1.995,2.371.5.541,3.015-4.62,2.515-4.045,3.983-6.248,5.57l2.694-1.584c-.143,1.523-2.278,3-4.915,5.5-.775-.494,2.223-2.488.972-2-1.971,4.01-8.395,3.955-12.025,8.376-2.509.967-1.463-1.507-3.575-.547a12.264,12.264,0,0,1-5.256,3.864,14.057,14.057,0,0,0-5.583,3.8c1.2.045,1.81-.056,1.767.321s-.736,1.24-2.18,3.17c1.356-1.182,2.693-2.395,4.032-3.6s2.682-2.4,4.008-3.629l-1.057,1.474-1.066,1.462-2.138,2.928a36.354,36.354,0,0,0,3.686-3.254,17.648,17.648,0,0,1,2.983-2.56c-1.905,2.96-1.86,2.461.133,2.514-2.452.453-4.039,2.013-5.64,3.717s-3.24,3.511-5.773,4.4l-2.031-3.1a20.457,20.457,0,0,0-2.516,1.324,23.329,23.329,0,0,0-2.237,1.543c-.71.55-1.392,1.134-2.066,1.742q-.505.456-1.007.929l-1.02.942c-1.37,1.27-2.788,2.6-4.416,3.918a37.952,37.952,0,0,1-5.708,3.721l3.032-1.215c-.161.977-1.419,1.88-2.951,2.787a27.294,27.294,0,0,0-4.547,2.937c-.2-.606-.784-.737-1.514-.708l-1.065.036a6.8,6.8,0,0,1-1.045-.031c.285.367-1.053,1.085-2.217,1.653a6.83,6.83,0,0,0-1.437.846,2,2,0,0,0-.429.537,3.1,3.1,0,0,0-.291.763,1.224,1.224,0,0,1-.411-.92,1.393,1.393,0,0,1,.088-.416,1.176,1.176,0,0,1,.082-.193c.042-.064.079-.1.126-.164.016-.039,0-.086-.042-.173s-.117-.186-.2-.328c-.177-.268-.405-.641-.65-1.044-.5-.791-1.04-1.8-1.616-2.726-.257-.474-.52-.958-.769-1.475a12.445,12.445,0,0,1-.593-1.677,8.171,8.171,0,0,1-.177-.955,9.682,9.682,0,0,1-.093-1.051,10.73,10.73,0,0,1,.251-2.425c.5,1.169,1.1.953,1.59,1.076a.97.97,0,0,1,.678.593,3.733,3.733,0,0,1,.274.816l.06.28.076.315c.05.222.1.468.146.741.033-.539.055-1.064.13-1.548.03-.242.057-.474.077-.694.009-.11.018-.217.026-.319s.021-.2.032-.3c.072-.763-.01-1.285-.429-1.381a2.552,2.552,0,0,0,.4-1.5c.028-.34.057-.716.071-1.117.007-.2.015-.408.022-.617s.036-.422.055-.636c.044-.428.07-.87.15-1.294s.17-.84.282-1.227a4.9,4.9,0,0,1,.449-1.045,2.472,2.472,0,0,1,.623-.75c-.04-.559-.32-1.052-.432-1.714a2.912,2.912,0,0,1,.038-1.139,4.779,4.779,0,0,1,.642-1.541c.366-.142.53.3.53.3-.132-.076-.113-.373-.046-.757.035-.192.077-.407.127-.623s.1-.434.14-.642c.144-.824.065-1.464-1.164-.751a27.013,27.013,0,0,0,5.149-4.691c1.664-1.855,3.344-3.925,5.1-5.919a48.643,48.643,0,0,1,5.444-5.435,14.82,14.82,0,0,1,5.576-3.115c.5-.477,1.014-.969,1.545-1.462s1.073-.992,1.633-1.483c1.1-.991,2.3-1.977,3.472-2.952s2.342-1.932,3.47-2.841,2.258-1.724,3.291-2.488c-.055.492.344.512-.523.969a8.432,8.432,0,0,0,3.068-2.233,7.042,7.042,0,0,0,1.034-2.106c.51-1.4,1.144-2.862,4.862-4.609,1.133-.169,1.523-.031,1.494.231s-.461.671-.953,1.076c-.986.808-2.218,1.6-.94,1.186a2.28,2.28,0,0,0,2.648.218,15.35,15.35,0,0,0,3.183-2.24c1.149-.961,2.379-2.047,3.695-2.945a10.717,10.717,0,0,1,4.195-1.831l-.982.912c2.127-.536,4.047-2.232,6.215-4.2,1.08-.985,2.212-2.043,3.447-3.067a28.015,28.015,0,0,1,4.072-2.844s-.093.481.29.544a37.236,37.236,0,0,1,6.776-6.824c2.82-2.335,5.938-4.657,8.583-6.647-.9,2.439-2.1,2.3-.174,3.012,2.389-1.763-2.107-1.735,2.644-5.272,1.044-.144,2.57-.625,4.012-.926s2.79-.445,3.5.128l-2.329,1.556-2.337,1.533c3.627.372,6.064-3.976,8.751-5.247l.217,1.023q.661-.463,1.229-.894c.377-.294.727-.578,1.052-.854.651-.551,1.206-1.067,1.7-1.56.987-.986,1.727-1.878,2.49-2.767l.581-.668c.2-.227.4-.457.608-.689.422-.464.884-.939,1.418-1.438a34.087,34.087,0,0,1,4.351-3.37c-.4-.012-.807-.038-1.21-.057a12.123,12.123,0,0,1,.963-1.475,4.854,4.854,0,0,1,.877-.88,4.246,4.246,0,0,1,1.656-.722,5.279,5.279,0,0,0,3.744-2.712l2.7,1.051c.577-.629,1.358-1.508,2.273-2.534s1.972-2.185,3.046-3.455c2.164-2.519,4.61-5.166,6.7-7.332a15.678,15.678,0,0,1-1.586,2.97c-.7,1.047-1.528,2.129-2.4,3.225s-1.783,2.19-2.649,3.24c-.215.265-.432.52-.648.766l-.629.733c-.409.48-.794.944-1.145,1.384.666-.5,1.555-1.2,2.524-1.981.95-.815,1.976-1.728,2.938-2.638a36.6,36.6,0,0,0,2.551-2.624,9.8,9.8,0,0,0,.86-1.136,3.372,3.372,0,0,0,.443-.915c-.439.525-.883,1.193-1.386,1.768a4.92,4.92,0,0,1-1.69,1.371,26.88,26.88,0,0,1,1.745-3.072c.674-1.038,1.433-2.095,2.284-3.159a82.873,82.873,0,0,1,6.082-6.7,1.348,1.348,0,0,0,1.321.7,4.192,4.192,0,0,0,1.92-.809,26.861,26.861,0,0,0,4.883-4.739c1.719-2.038,3.438-4.354,5-6.417s3.009-3.839,4.431-4.669c1.011-3.18,1.982-6.337,2.758-9.6.093-.409.2-.815.286-1.227s.176-.825.263-1.238c.177-.856.337-1.786.452-2.754a23.026,23.026,0,0,0,.169-3.117,16.88,16.88,0,0,0-.442-3.6,13.971,13.971,0,0,0-1.589-3.941,13.723,13.723,0,0,0-2.979-3.469,14.747,14.747,0,0,0-3.708-2.228,18.156,18.156,0,0,0-3.616-1.1,25.1,25.1,0,0,0-3.294-.417c-1.04-.06-2.037-.064-2.993-.036l-.7.027-.643.04-1.3.09c-.867.069-1.743.131-2.622.238,1.338.811,1.738,1.268,1.622,1.518s-.752.309-1.512.412c-1.522.2-3.548.474-2.9,2.33-.792.138-1.455.291-2.017.388s-1.018.173-1.387.215a2.387,2.387,0,0,1-1.283-.044l-2.494-.168-1.253-.081-.628-.039-.626-.024-2.516-.093c-.421-.013-.843-.034-1.264-.041l-1.261-.012c-1.261-.29-.553-.665.42-1.065l.751-.3c.25-.1.49-.192.691-.289.4-.194.657-.39.54-.587-.892.135-1.612.222-2.194.29a10.054,10.054,0,0,1-1.4.068,2.282,2.282,0,0,1-1.343-.372,3.938,3.938,0,0,0-.934-.6,6.019,6.019,0,0,0-2.363-.236c.646.545.148,1.175-1.016,1.729a14.94,14.94,0,0,1-2.185.794,24.666,24.666,0,0,1-2.854.6c1.01.012,2.022.045,3.026.069l1.5.041c.5.018,1.006.049,1.506.073a30.923,30.923,0,0,1-3.031,1.277,14.512,14.512,0,0,1-2.383.6,15.057,15.057,0,0,1-3.73.111,14.251,14.251,0,0,0-3.755.2,10.908,10.908,0,0,0-1.132.288c-.394.127-.808.281-1.248.465a21.048,21.048,0,0,0-2.95,1.537c.852-.757,1.728-1.477,2.6-2.221-.584.3-1.305.63-2.126.98s-1.728.756-2.705,1.169l-1.507.639-1.561.7c-1.054.483-2.148.964-3.207,1.51s-2.122,1.084-3.125,1.659-1.952,1.179-2.823,1.781a20.278,20.278,0,0,0-2.312,1.853,9.726,9.726,0,0,0-1.6,1.862c-1,0-2.54-.4-.642-1.655-5.622,2.489-11.24,6.452-16.445,10.247s-10.05,7.417-14.483,9.218l.251-1.286c-1.748,1.465-2.289,3.637-5.152,4.437-.1-.4.22-1.288-.671-.74-.4.473-1.4,1.662-2.638,2.888a16.222,16.222,0,0,1-4.066,3.16c.48-.784.969-1.56,1.461-2.337a41.339,41.339,0,0,0-11.27,9.4c-.714.82-1.406,1.642-2.1,2.463s-1.374,1.654-2.088,2.479-1.452,1.65-2.241,2.471-1.629,1.636-2.528,2.459c-.845-1.091-3.2-.387-5.826.9-1.318.644-2.689,1.443-3.974,2.237s-2.485,1.581-3.443,2.211l-.122-.4c-10.73,8.247-16.266,16.262-25.283,24.841a29.544,29.544,0,0,0-6.8,3.487c-1.266.8-2.585,1.7-3.942,2.656l-4.182,3-4.334,3.144c-1.463,1.043-2.945,2.06-4.408,3.055q-1.1.744-2.188,1.459c-.724.477-1.458.911-2.177,1.345-1.441.861-2.853,1.655-4.218,2.352.9-.325,1.148.16.961.912a4.483,4.483,0,0,1-.575,1.259,5.817,5.817,0,0,1-1.061,1.221c-1.348.56-2.729,2.053-3.908,3.115a4.775,4.775,0,0,1-1.58,1.087c-.457.13-.825-.017-1.071-.609.295-.168.594-.329.886-.5-1.581-.462-3.513.206-5.534,1.3-.506.272-1.016.57-1.529.883l-.77.479-.781.468c-1.04.628-2.07,1.267-3.055,1.827l1.021,3.239a21.049,21.049,0,0,0-2.394.512c-.4.114-.8.216-1.208.336s-.809.248-1.213.386a38.973,38.973,0,0,0-4.827,2.063l-.594.3-.471.226c-.316.15-.635.3-.954.441-.639.289-1.281.556-1.9.79a15.487,15.487,0,0,1-3.193.887c-.37.048-.64.067-.727.088a.174.174,0,0,0-.036.014.056.056,0,0,0-.016.013c0-.031-.065.144-.137.25-.022.04-.038.069-.062.105l-.052.075a.406.406,0,0,1-.031.041.139.139,0,0,1,.014-.016l.008-.007.025-.026a.974.974,0,0,1,.075-.07l.117-.1c.069-.055.036-.027.036-.027a.045.045,0,0,0-.014-.009l-.011,0h-.008l-.156.094.008,0,.015-.01c.041-.025.08-.047.118-.066.014,0,0-.005,0-.007-.031,0-.084-.152-.109-.411a4.4,4.4,0,0,1,.077-1.061,7.594,7.594,0,0,1,.387-1.345,5.611,5.611,0,0,1,1.531-2.336,13.851,13.851,0,0,1,.177-4.051c.22-1.4.517-2.8.638-4.145l1.585.812c.771-1.552,1.54-2.882,2.3-4.13s1.523-2.413,2.333-3.624,1.683-2.463,2.7-3.879,2.176-2.993,3.621-4.835c-.092.758-.176,1.511-.245,2.261,1.687-1.949,1.847-4.021,2.007-6.127s.335-4.215,2.12-6.065c.989.263,1.967.532,2.957.809.867-.841,1.761-1.656,2.671-2.455.451-.4.924-.787,1.395-1.171L90.2,119.5l1.429-1.134,1.458-1.108,2.9-2.228A56.01,56.01,0,0,0,106.6,104.99c.117.4.363,1.176-.794,2.255,1.8-1.422,5.581-3.823,8.486-6.077s4.941-4.383,3.175-5.326c.762.91,2.825-.575,5.174-2.786s4.993-5.149,6.847-7.162l.361,1.9c2.33-4.485,2.087-5.06,6.83-9.324,1.346-.712,1.892.34.018,1.17,4.581-2.249,2.162-3.647,7.6-6.544l-1.153,2.252a13.87,13.87,0,0,0,3.54-3.083c.541-.78.746-1.52,1.485-2.9,2.167-2.52,8.051-5.643,9.629-4.905-.047-1.2,1.384-3.955,4.035-5.549.7.2.067,1.193-.255,1.689a29.193,29.193,0,0,0,2.544-1.744c.761-.592,1.439-1.2,2.065-1.79s1.193-1.185,1.726-1.764,1.018-1.166,1.495-1.725c.952-1.121,1.857-2.16,2.849-3.123a14.851,14.851,0,0,1,1.608-1.342,15.567,15.567,0,0,1,1.907-1.154,1.377,1.377,0,0,0,1.453.068c-1.277,1.2-2.532,2.283-3.657,3.276-.565.493-1.1.967-1.6,1.393l-1.4,1.17a15.143,15.143,0,0,1-2.539,1.978c.525.62,1.9.054,2.9-.088s1.639.136.651,2.464c.667-.98,1.427-2.158,2.26-3.419s1.714-2.647,2.666-3.981c.48-.662.953-1.347,1.45-2s1-1.284,1.524-1.881,1.047-1.169,1.583-1.7a15.822,15.822,0,0,1,1.648-1.42,2.544,2.544,0,0,1,.916-.116l-.284.53a8.681,8.681,0,0,0,2.3-2.674c.715-.542,1.306-.981,1.869-1.435a17.078,17.078,0,0,0,1.678-1.559c.355.107.847-.111,1.416-.53a10.352,10.352,0,0,0,.9-.765c.317-.294.645-.624.965-.986.647-.717,1.311-1.512,1.934-2.26l.9-1.071c.282-.338.537-.657.776-.928-1.49-.964,1.11-3.641-2.238-1.9.193-.132.147.005-.091.363-.12.177-.283.415-.5.693s-.477.6-.775.965a6.8,6.8,0,0,0-.664,1.028,2.243,2.243,0,0,1,.012-.248l-.965,1.148c-.346.405-.7.843-1.105,1.278l-2.592,2.858A15.279,15.279,0,0,1,188.8,34.94c.179-.259.377-.511.588-.762a8.909,8.909,0,0,1,.684-.744,9.919,9.919,0,0,1,1.784-1.366c.05-.921.131-1.853.186-2.71s.127-1.6.2-2.118a14.439,14.439,0,0,0,1.683-.659,18.3,18.3,0,0,0,1.748-.907C196.835,25,198,24.225,199.1,23.5c.554-.359,1.062-.73,1.552-1.064s.949-.642,1.372-.9a4.584,4.584,0,0,1,2.007-.839l.461-.793c.184-.319.367-.642.547-.979.36-.67.71-1.385,1.041-2.163a19.58,19.58,0,0,0,.9-2.6,14.223,14.223,0,0,0,.5-3.345,11.036,11.036,0,0,0-.732-4.3,10.264,10.264,0,0,0-1.157-2.145A10.368,10.368,0,0,0,204,2.614a10.128,10.128,0,0,0-1.874-1.291,10.7,10.7,0,0,0-1.852-.776,12.56,12.56,0,0,0-3.1-.529,16.214,16.214,0,0,0-2.345.065c-.083.009-.175.015-.249.026l-.224.032-.445.066-.875.14q-.866.145-1.689.312c-.273.059-.545.107-.808.18s-.523.147-.778.223a23.333,23.333,0,0,0-2.811,1.023,12.322,12.322,0,0,0-2.214,1.365,4.216,4.216,0,0,1-1.5.214,2.514,2.514,0,0,1-1.016-.235c-.57-.263-.973-.674-1.482-.851a22.4,22.4,0,0,1,2.158-.7,4.957,4.957,0,0,0,1.68-.653c-2.486.7-6.143,1.493-9.243,2.467-.768.263-1.5.53-2.176.8a13.2,13.2,0,0,0-1.8.849c-1.033.6-1.713,1.218-1.827,1.853-.39.046-.721.073-1,.089a5.732,5.732,0,0,1-.686.019c-.366-.016-.56-.086-.643-.187-.166-.2.112-.525.337-.784.453-.516.672-.787-3.347.739.283-.357.581-.691.874-1.038q-.406.041-.806.091c-.265.036-.525.08-.784.124q-.776.133-1.527.3t-1.478.351c-.48.133-.949.28-1.413.431-.924.307-1.828.631-2.689,1s-1.694.776-2.508,1.2a69.117,69.117,0,0,0-8.935,5.865,92.535,92.535,0,0,1-8.977,6.089A42.891,42.891,0,0,1,124.393,26c1.248-.33,1.866-.5,2.273-.282-2.408.976-4.79,2.048-7.153,3.188-2.35,1.162-4.676,2.4-6.99,3.679s-4.6,2.632-6.878,3.989l-3.416,2.052-3.394,2.087-3.4,2.077-3.4,2.055c-2.261,1.368-4.534,2.7-6.828,3.975s-4.586,2.522-6.92,3.667-4.688,2.224-7.082,3.194c-5.307,2.435-5.067,4.034-7.484,6.845l-2.062-.952c-1.332,1.679-2.667,3.35-3.985,5.039-3.2,2.95-6.966,3.921-10.861,5.233a34.686,34.686,0,0,0-5.908,2.47,22.075,22.075,0,0,0-5.792,4.647l1.865.321c-3.416,1.885-9.96,7.3-10.212,5.709-.208.412-.354,1.8-1.992,2.071l-.636-.767-7.1,6.619c-6.6,3.435-1.168-3.929-10.338,1.8C3.552,97.23-1.3,103.376.324,103.108c1.385-.844,3.808-1.742,4.45-.978l-2.8,2.437c1.035,2.808.3,6.852,8.965,3.641l4.29-4.92,2.466.084-4.38,2.955c3.238-.519,4.188-2.541,5.532-4.378a4.084,4.084,0,0,0,3.055-.126l3.653-5.687c1.247.553-1.087,3.4,2.724,1.685,1.719-2.655-3.713-.644-.164-3.954,3.239-.52,3.091.869,5.436-1.991.823.364.455,1.17-.539,2.2,2.147-2.453,6.763-4.812,7.292-6.983,1.758-.152,3.928-1.665,5.813-2.828s3.489-1.964,4.1-.717a24.079,24.079,0,0,1,5.871-6.41c-2.691,5.585,9.222-5.544,9.921-1.792.865-2.28,3.674-4.4,6.889-6.58,3.229-2.151,6.853-4.37,9.375-6.841-.208.4-.61,1.194-1.207,1.378,3.445-1.774,4.87-1.577,7.286-2.367-.413-1.178.594-2.674,1.975-4.217a58.417,58.417,0,0,0,4.14-4.639c5.282-.347-1.033,3.946,1.4,5.158-.6-.8.917-2.265,2.316-3.611s2.686-2.541,1.573-2.862c3.874-.529,3.064-.935,5.689-.091-.485-1.492.183-2.024,1.179-2.574a6.662,6.662,0,0,0,3.182-2.651c5.313-1.229,2.571,1.847,7.143-1.753,1.426-.241,1.147.488.516,1.275a14.007,14.007,0,0,1-1.043,1.119c-.324.314-.569.529-.569.529M174.106,37.1l-.025-.025L176,35.058c-.4.422-.948,1.007-1.9,2.039M165.8,44.84c1.073-.877,2.372-2.014,3.711-3.252.7.171.821.939-.06,1.681.189-.718-2.049.822-3.65,1.571m26.156-8.594c-1.1,1.574-1.8,1.8-2.241,1.747.295-.339.61-.711.957-1.134s.73-.895,1.137-1.457c-.013-.085.007-.221-.012-.312a2.235,2.235,0,0,1,.159,1.156" transform="translate(0 0)" fill="#fff"/>
          <path id="Trazado_912538" data-name="Trazado 912538" d="M918.98,151.4a5.565,5.565,0,0,1,.417-.667,11.773,11.773,0,0,0-1.042.583c-.011.295-.027.592-.027.865l.651-.78" transform="translate(-726.497 -119.242)" fill="#fff"/>
          <path id="Trazado_912539" data-name="Trazado 912539" d="M1895.106,550.366l.193-.163a1.509,1.509,0,0,1-.53.232,1.6,1.6,0,0,1,.337-.069" transform="translate(-1498.967 -435.27)" fill="#fff"/>
          <path id="Trazado_912540" data-name="Trazado 912540" d="M232.167,746l.445.043c-.08-.415-.143-.829-.2-1.246-.088.4-.173.8-.242,1.2" transform="translate(-183.669 -589.213)" fill="#fff"/>
          <path id="Trazado_912541" data-name="Trazado 912541" d="M1654.049,746.955a1.631,1.631,0,0,0-.9.385c.113.043.474-.146.9-.385" transform="translate(-1307.822 -590.922)" fill="#fff"/>
          <path id="Trazado_912542" data-name="Trazado 912542" d="M1580.423,865.112q-.966,1.87-1.794,3.867c.8-1.7,1.363-2.9,1.794-3.867" transform="translate(-1248.866 -684.397)" fill="#fff"/>
          <path id="Trazado_912543" data-name="Trazado 912543" d="M1578.568,977.483a1.716,1.716,0,0,0,.862.217.321.321,0,0,1,0-.049q-.427-.079-.858-.168" transform="translate(-1248.818 -773.295)" fill="#fff"/>
          <path id="Trazado_912544" data-name="Trazado 912544" d="M1061.646,851a5.717,5.717,0,0,0-.6.566c-1.307,1.451-.359.542.6-.566" transform="translate(-838.898 -673.232)" fill="#fff"/>
          <path id="Trazado_912545" data-name="Trazado 912545" d="M1434.3,558.9a28.465,28.465,0,0,1-2.363,2.3c1.6-.753,2.806-1.4,2.363-2.3" transform="translate(-1132.819 -442.152)" fill="#fff"/>
          <path id="Trazado_912546" data-name="Trazado 912546" d="M667.188,887.879c0,.017.014.006.023.024.1-.267.205-.5.315-.763Z" transform="translate(-527.818 -701.824)" fill="#fff"/>
          <path id="Trazado_912547" data-name="Trazado 912547" d="M1412.815,572.2a13.417,13.417,0,0,0,3.995-2.293c-.658.306-1.38.63-2.079,1a10.842,10.842,0,0,0-1.916,1.3" transform="translate(-1117.689 -450.857)" fill="#fff"/>
          <path id="Trazado_912548" data-name="Trazado 912548" d="M1957.253,1218.379l1.035.252a.314.314,0,0,1,.171-.258Z" transform="translate(-1548.399 -963.866)" fill="#fff"/>
          <path id="Trazado_912549" data-name="Trazado 912549" d="M1963.025,1218l1.193,0c-.533-.092-1-.158-1.193,0" transform="translate(-1552.965 -963.489)" fill="#fff"/>
          <path id="Trazado_912550" data-name="Trazado 912550" d="M1971.249,1217.935c-.835.036-1.677.1-2.511.087a3.637,3.637,0,0,0,2.511-.087" transform="translate(-1557.485 -963.518)" fill="#fff"/>
          <path id="Trazado_912551" data-name="Trazado 912551" d="M1822.523,1176.645l-.547.469a.862.862,0,0,0,.547-.469" transform="translate(-1441.38 -930.853)" fill="#fff"/>
          <path id="Trazado_912552" data-name="Trazado 912552" d="M1785.513,1160.61c.927.5,1.987,1.357,3.181,2.2.3.21.6.419.919.621.157.1.316.2.478.3s.33.177.5.261a10.453,10.453,0,0,0,2.095.805l.446-.368a2.543,2.543,0,0,1-1.584-.448,16.55,16.55,0,0,1-2.026-1.35c-1.406-1.041-2.866-2.09-4.007-2.017" transform="translate(-1412.534 -918.166)" fill="#fff"/>
          <path id="Trazado_912553" data-name="Trazado 912553" d="M1663.415,1035.862c1.564,1.661,3.222,3.273,4.971,4.819a3.758,3.758,0,0,1-.494-1.741c.044-.179.184-.26.47-.184a2.634,2.634,0,0,1,.547.239,8.972,8.972,0,0,1,.831.5c-.726-.846-1.213-1.47-1.587-1.891a4.868,4.868,0,0,0-.76-.76c-.313-.2-.311.116-.349.475s-.116.756-.607.688-1.417-.589-3.023-2.15" transform="translate(-1315.941 -819.479)" fill="#fff"/>
          <path id="Trazado_912554" data-name="Trazado 912554" d="M1615.5,948.467a8.231,8.231,0,0,0,.342.864,1.089,1.089,0,0,0,.28.368c.154.11.244-.022.308-.239s.127-.523.193-.767.141-.426.244-.409l-.36-.587c-.1-.177-.183-.332-.263-.461-.16-.258-.285-.413-.381-.438s-.186.087-.245.354a5.785,5.785,0,0,0-.118,1.315" transform="translate(-1278.033 -749.017)" fill="#fff"/>
          <path id="Trazado_912555" data-name="Trazado 912555" d="M1763.662,405.561l.279-1.63c-1.576.233-1.559.408-1.2.616s1.071.51.923,1.014" transform="translate(-1394.361 -319.553)" fill="#fff"/>
          <path id="Trazado_912556" data-name="Trazado 912556" d="M1633.363,476.074l2.984.121.845-1.8Z" transform="translate(-1292.167 -375.3)" fill="#fff"/>
          <path id="Trazado_912557" data-name="Trazado 912557" d="M1520.16,459.583l1.138-.735-2.229,1.268c-.739.428-1.49.83-2.213,1.285.539-.323,1.093-.619,1.646-.918Z" transform="translate(-1199.997 -362.998)" fill="#fff"/>
          <path id="Trazado_912558" data-name="Trazado 912558" d="M807.321,808.206q-.975-.439-1.961-.867a1.524,1.524,0,0,0-.145,1.986c.4.335,1.171.163,2.107-1.119" transform="translate(-636.775 -638.692)" fill="#fff"/>
          <path id="Trazado_912559" data-name="Trazado 912559" d="M1267.737,483.353a6.373,6.373,0,0,0,3.078-.9,6.693,6.693,0,0,0,2.679-2.447,37.794,37.794,0,0,1-3.356,1.851,10.634,10.634,0,0,0-2.4,1.5" transform="translate(-1002.917 -379.736)" fill="#fff"/>
          <path id="Trazado_912560" data-name="Trazado 912560" d="M347.708,744.092l1.658-1.66-3.463,2.522Z" transform="translate(-273.646 -587.344)" fill="#fff"/>
        </g>
      </g>
      <g id="Grupo_1101910" data-name="Grupo 1101910" transform="translate(272.176 909.7)">
        <g id="Grupo_1101910-2" data-name="Grupo 1101910" transform="translate(0 -0.003)" clip-path="url(#clip-path-2)">
          <path id="Trazado_912561" data-name="Trazado 912561" d="M.462,100.428c24.054-15.671,48.114-31.344,72.659-46.24C97.56,39.357,122.49,24.868,148.446,12.83,161.21,6.911,174.718,1.9,188.861.849c3.1-.23,8.771-1.27,10.555,1.966,1.762,3.2-1.421,7-3.242,9.482A167.2,167.2,0,0,1,184.5,26.451c-16.264,17.717-35.7,32.094-55,46.29-19.194,14.12-38.891,28.194-55.327,45.574-8.048,8.51-15.4,18.382-18.312,29.915-1.088,4.308-2.644,10.811,1.3,14.164,3.151,2.68,7.978,1.738,11.512.48,5.546-1.975,10.752-5.409,15.783-8.412,5.719-3.414,11.313-7.035,16.8-10.8,10.824-7.431,21.24-15.437,31.5-23.628,20.985-16.759,41.329-34.393,63.444-49.68,21.268-14.7,44.3-27.5,69.338-34.457a151.539,151.539,0,0,1,18.624-3.961q5.063-.741,10.171-1.106c2.931-.209,6.084-.411,8.852.76,6.9,2.917,4.1,12.344,2.126,17.653a55.626,55.626,0,0,1-9.982,16.4c-8.318,9.813-18.784,17.835-29.131,25.375-10.833,7.895-22.124,15.135-33.495,22.225-11.394,7.1-22.88,14.064-34.124,21.4-10.706,6.99-21.48,14.2-31.132,22.617-8.634,7.53-16.728,16.469-21.067,27.221a37.794,37.794,0,0,0-2.851,16.082c.24,4.54,1.222,10.637,6.631,11.5,5.144.824,10.163-2.96,14.246-5.534q7.533-4.749,14.847-9.833c9.826-6.8,19.4-13.962,28.866-21.248,18.938-14.573,37.478-29.679,56.939-43.56,19.27-13.745,39.555-26.346,61.533-35.3a174.891,174.891,0,0,1,34.457-10.429,71.672,71.672,0,0,1,20.528-1.091,45.578,45.578,0,0,1,10.225,2.28c3.38,1.193,7.289,2.827,8.27,6.651,1.6,6.253-4.709,12.46-8.5,16.592s-7.846,8.065-11.963,11.9c-8.236,7.665-16.818,14.98-24.6,23.117-14.265,14.913-31.344,39.762-17.363,60.05,6.655,9.657,17.309,16.824,27.3,22.644a135.677,135.677,0,0,0,34.707,14.2,134.373,134.373,0,0,0,36.163,4.134.315.315,0,0,0,0-.629,134.849,134.849,0,0,1-74.329-20.531c-10.325-6.487-22.145-14.761-26.746-26.561-4.786-12.273,1.1-26.3,7.755-36.731,12.181-19.085,31.348-32.225,46.872-48.321,5.288-5.482,18.173-18.259,7.5-24.919-4.963-3.1-11.422-4.25-17.169-4.666A75.53,75.53,0,0,0,360.5,85.618c-23.108,4.29-45.167,14.145-65.376,25.911-20.287,11.811-39.138,25.893-57.662,40.261-19.161,14.862-38.032,30.135-57.963,43.97q-7.316,5.079-14.834,9.859c-4.627,2.929-14.075,9.92-18.519,3.167-1.771-2.692-1.99-6.431-2.034-9.555a35.509,35.509,0,0,1,1.051-8.985,49.2,49.2,0,0,1,7.613-16.122c7.316-10.535,17.356-18.744,27.631-26.241,10.944-7.985,22.356-15.3,33.848-22.466,22.535-14.049,45.532-27.6,66.068-44.546,9.144-7.545,18.135-16.018,23.533-26.744,3.623-7.2,8.75-22.26-3.45-23.913-5.666-.768-11.9.412-17.5,1.276a152.684,152.684,0,0,0-18.945,4.2,195.129,195.129,0,0,0-34.893,14.04c-23.138,11.848-44.1,27.358-64.324,43.57-21.051,16.873-41.536,34.53-63.8,49.819-5.6,3.843-11.3,7.529-17.134,11-5.248,3.123-10.776,6.881-16.684,8.6-2.531.736-5.446,1.194-7.956.152-3.508-1.457-4.089-5.3-3.736-8.7a47.575,47.575,0,0,1,6.126-18.242c6.151-10.948,15.318-19.947,24.566-28.292,9.045-8.162,18.636-15.693,28.372-23.007,19.034-14.3,38.749-27.814,56.41-43.841a194.644,194.644,0,0,0,23.753-25.43c2.339-3.047,7.721-8.6,5.383-12.883C199.023.6,196.895.127,194.926.036a59.279,59.279,0,0,0-9.959.572C171.7,2.263,159.084,7.143,147.048,12.791c-12.839,6.024-25.375,12.745-37.773,19.622C84.055,46.4,59.523,61.588,35.245,77.144Q17.638,88.426.145,99.885c-.338.22-.023.765.317.543" transform="translate(0 0.003)" fill="#048fe5"/>
        </g>
      </g>
      <g id="Grupo_1101912" data-name="Grupo 1101912" transform="translate(0 -12.951)">
        <g id="Grupo_1101911" data-name="Grupo 1101911" transform="translate(708.286 1141.581)">
          <g id="Grupo_1101519" data-name="Grupo 1101519" transform="translate(0 0)" clip-path="url(#clip-path-3)">
            <path id="Trazado_911801" data-name="Trazado 911801" d="M55.372.812h0A2.773,2.773,0,0,0,51.538.728L37.049,14a10.139,10.139,0,0,1,3.367,2.028,8.112,8.112,0,0,1,1.764,3.1L55.456,4.646A2.773,2.773,0,0,0,55.372.812" transform="translate(-25.555 0.001)" fill="#323232"/>
            <path id="Trazado_911802" data-name="Trazado 911802" d="M11.425,50.466a5.473,5.473,0,0,0-4.452-.025A5.962,5.962,0,0,0,3.288,55.83a3.572,3.572,0,0,1-.7,2.1,28.849,28.849,0,0,1-2.5,2.885.3.3,0,0,0,.166.507c1.9.315,4.291.982,6.081.862.824-.056,4.749.157,7-2.093a5.916,5.916,0,0,0-1.908-9.629" transform="translate(0 -34.475)" fill="#323232"/>
          </g>
        </g>
        <path id="Trazado_911894" data-name="Trazado 911894" d="M3.74-2.347.383-3.461l.792-2.492L4.693-4.8l.029-3.65H7.3l.1,3.768,3.372-1.143.777,2.507L8.138-2.156,10.161.805,8.05,2.359,5.866-.69,3.74,2.227,1.614.732Z" transform="translate(732.947 1165.768)" fill="#323232"/>
      </g>
    </g>
  </g>
</svg>
