<svg xmlns="http://www.w3.org/2000/svg" xmlns:xlink="http://www.w3.org/1999/xlink" width="50" height="50" viewBox="0 0 50 50">
  <defs>
    <clipPath id="clip-path">
      <rect id="Rect치ngulo_403280" data-name="Rect치ngulo 403280" width="22.502" height="20.143" fill="none"/>
    </clipPath>
  </defs>
  <g id="Grupo_1102223" data-name="Grupo 1102223" transform="translate(-180.176 -701)">
    <g id="Grupo_1102221" data-name="Grupo 1102221" transform="translate(0.176 0.151)">
      <rect id="Rect치ngulo_403269" data-name="Rect치ngulo 403269" width="50" height="50" transform="translate(180 700.849)" fill="#ffc7b8"/>
    </g>
    <g id="Grupo_1101526" data-name="Grupo 1101526" transform="translate(-2.875 84)">
      <g id="Grupo_1101199" data-name="Grupo 1101199" transform="translate(190.051 624)">
        <path id="Trazado_911258" data-name="Trazado 911258" d="M18,0A18,18,0,1,1,0,18,18,18,0,0,1,18,0Z" transform="translate(0 0)" fill="#3c3c3c"/>
      </g>
      <g id="Grupo_1101528" data-name="Grupo 1101528" transform="translate(197.179 632.402)">
        <g id="Grupo_1101527" data-name="Grupo 1101527" transform="translate(0 0)" clip-path="url(#clip-path)">
          <path id="Trazado_911803" data-name="Trazado 911803" d="M17.4,24.058A5.993,5.993,0,0,1,13.258,32.2l-.385.091v2.247H1V24.165l5.45,0,.133-.291a5.739,5.739,0,0,1,5.289-3.492,5.961,5.961,0,0,1,1.792.274l.832-.762a6.943,6.943,0,0,0-2.624-.512,6.689,6.689,0,0,0-6.057,3.784L0,23.165V35.536H13.874V33.068a6.991,6.991,0,0,0,4.259-9.809Z" transform="translate(0 -15.392)" fill="#b6b5b6"/>
          <path id="Trazado_911804" data-name="Trazado 911804" d="M65.618.477h0A1.626,1.626,0,0,0,63.37.427L54.877,8.21A5.939,5.939,0,0,1,56.851,9.4a4.754,4.754,0,0,1,1.034,1.819l7.783-8.493A1.626,1.626,0,0,0,65.618.477" transform="translate(-43.592 0)" fill="#b6b5b6"/>
          <path id="Trazado_911805" data-name="Trazado 911805" d="M24.041,47.629a2.1,2.1,0,0,1-.413,1.233,16.9,16.9,0,0,1-1.464,1.692.176.176,0,0,0,.1.3,17.741,17.741,0,0,0,3.565.505c.483-.032,2.784.092,4.1-1.227a3.468,3.468,0,0,0-1.118-5.644,3.208,3.208,0,0,0-2.61-.015,3.5,3.5,0,0,0-2.16,3.159" transform="translate(-17.566 -35.11)" fill="#b6b5b6"/>
        </g>
      </g>
    </g>
  </g>
</svg>
