<svg xmlns="http://www.w3.org/2000/svg" xmlns:xlink="http://www.w3.org/1999/xlink" width="50" height="50" viewBox="0 0 50 50">
  <defs>
    <clipPath id="clip-path">
      <rect id="Rect치ngulo_403283" data-name="Rect치ngulo 403283" width="20.335" height="17.539" transform="translate(0 0)" fill="none"/>
    </clipPath>
  </defs>
  <g id="Grupo_1102224" data-name="Grupo 1102224" transform="translate(-180 -1731)">
    <rect id="Rect치ngulo_403282" data-name="Rect치ngulo 403282" width="50" height="50" transform="translate(180 1731)" fill="#ffc7b8"/>
    <g id="Grupo_1101529" data-name="Grupo 1101529" transform="translate(0 1117)">
      <g id="Grupo_1101199" data-name="Grupo 1101199" transform="translate(0 -157)">
        <path id="Trazado_911258" data-name="Trazado 911258" d="M15.5,0A15.5,15.5,0,1,1,0,15.5,15.5,15.5,0,0,1,15.5,0Z" transform="translate(190.051 781)" fill="#3c3c3c"/>
      </g>
      <g id="Grupo_1101530" data-name="Grupo 1101530" transform="translate(195.051 631)">
        <g id="Grupo_1101530-2" data-name="Grupo 1101530" transform="translate(0 0)" clip-path="url(#clip-path)">
          <path id="Trazado_911806" data-name="Trazado 911806" d="M0,17.539H20.335V0H0Zm19.251-8.62a12.588,12.588,0,0,1-3.134-.172,16.463,16.463,0,0,0-2.123-7.663h5.257Zm-6.262,6.709a12.684,12.684,0,0,0,1.286.827H12.246c.115-.129.237-.265.365-.407s.248-.275.378-.421m-1.182-.306a14.234,14.234,0,0,0-.962,1.133H5.371a15.79,15.79,0,0,1,1.092-1.916,22.011,22.011,0,0,0,1.213-2.1,11.4,11.4,0,0,1,4.267,2.388l.179.14-.315.35m.8-1.344A12.559,12.559,0,0,0,8.1,11.438a8.094,8.094,0,0,0,.5-2.787,14.487,14.487,0,0,0-.222-2.578c.5.285.994.624,1.516.984a15.323,15.323,0,0,0,5.124,2.558,8.565,8.565,0,0,1-2.19,4.536l-.222-.173M1.084,7.354A7.06,7.06,0,0,1,5.8,5.28a4.671,4.671,0,0,1,1.349.234A13.045,13.045,0,0,1,7.52,8.649a7.06,7.06,0,0,1-.481,2.544c-.334-.06-.685-.108-1.057-.143a7.066,7.066,0,0,0-4.9,1.771ZM8.06,4.7A14.092,14.092,0,0,0,6.4,1.084h6.334a15.427,15.427,0,0,1,2.288,7.407,14.794,14.794,0,0,1-4.513-2.327A14.625,14.625,0,0,0,8.06,4.7M5.115,1.084l.006.009A14.705,14.705,0,0,1,6.788,4.3a5.74,5.74,0,0,0-.958-.1A7.609,7.609,0,0,0,1.084,5.957V1.084ZM1.084,14.215C2.854,12.7,4.468,12,5.882,12.13c.241.022.472.051.7.086-.314.607-.675,1.18-1.032,1.746A13.415,13.415,0,0,0,4.2,16.455H1.084Zm16.476,2.24A8.721,8.721,0,0,1,13.7,14.8a9.588,9.588,0,0,0,2.39-4.961,13.512,13.512,0,0,0,2.273.191c.3,0,.592-.01.89-.029v6.451Z" transform="translate(0 0)" fill="#b6b5b6"/>
        </g>
      </g>
    </g>
  </g>
</svg>
