<svg xmlns="http://www.w3.org/2000/svg" width="50" height="50" viewBox="0 0 50 50">
  <g id="Grupo_1102225" data-name="Grupo 1102225" transform="translate(-180 -2238)">
    <rect id="Rectángulo_403291" data-name="Rectángulo 403291" width="50" height="50" transform="translate(180 2238)" fill="#ffc7b8"/>
    <g id="Grupo_1101539" data-name="Grupo 1101539" transform="translate(0 1624)">
      <g id="Grupo_1101588" data-name="Grupo 1101588">
        <g id="Grupo_1101199" data-name="Grupo 1101199" transform="translate(0 -157)">
          <path id="Trazado_911258" data-name="Trazado 911258" d="M15.5,0A15.5,15.5,0,1,1,0,15.5,15.5,15.5,0,0,1,15.5,0Z" transform="translate(190.051 781)" fill="#3c3c3c"/>
        </g>
        <g id="Grupo_1101587" data-name="Grupo 1101587" transform="translate(196.051 632)">
          <rect id="Rectángulo_403316" data-name="Rectángulo 403316" width="0.999" height="13.981" transform="translate(17.684 0.816)" fill="#e4e4e3"/>
          <rect id="Rectángulo_403317" data-name="Rectángulo 403317" width="0.999" height="13.981" transform="translate(16.841 0.816)" fill="#d1d1d0"/>
          <rect id="Rectángulo_403318" data-name="Rectángulo 403318" width="0.999" height="13.981" transform="translate(15.998 0.816)" fill="#c3c2c1"/>
          <rect id="Rectángulo_403319" data-name="Rectángulo 403319" width="0.999" height="13.981" transform="translate(15.155 0.816)" fill="#b5b3b3"/>
          <rect id="Rectángulo_403320" data-name="Rectángulo 403320" width="0.999" height="13.981" transform="translate(14.311 0.816)" fill="#a7a5a5"/>
          <rect id="Rectángulo_403321" data-name="Rectángulo 403321" width="0.999" height="13.981" transform="translate(13.468 0.816)" fill="#9a9898"/>
          <rect id="Rectángulo_403322" data-name="Rectángulo 403322" width="0.999" height="13.981" transform="translate(12.625 0.816)" fill="#8e8c8c"/>
          <rect id="Rectángulo_403323" data-name="Rectángulo 403323" width="0.999" height="13.981" transform="translate(11.782 0.816)" fill="#82807f"/>
          <rect id="Rectángulo_403324" data-name="Rectángulo 403324" width="0.999" height="13.981" transform="translate(10.939 0.816)" fill="#767474"/>
          <rect id="Rectángulo_403325" data-name="Rectángulo 403325" width="0.999" height="13.981" transform="translate(10.095 0.816)" fill="#6c6969"/>
          <rect id="Rectángulo_403326" data-name="Rectángulo 403326" width="0.999" height="13.981" transform="translate(9.252 0.816)" fill="#615f5f"/>
          <rect id="Rectángulo_403327" data-name="Rectángulo 403327" width="0.999" height="13.981" transform="translate(8.409 0.816)" fill="#585555"/>
          <rect id="Rectángulo_403328" data-name="Rectángulo 403328" width="0.999" height="13.981" transform="translate(7.566 0.816)" fill="#4e4c4c"/>
          <rect id="Rectángulo_403329" data-name="Rectángulo 403329" width="0.999" height="13.981" transform="translate(6.722 0.816)" fill="#454443"/>
          <rect id="Rectángulo_403330" data-name="Rectángulo 403330" width="0.999" height="13.981" transform="translate(5.879 0.816)" fill="#3d3b3b"/>
          <rect id="Rectángulo_403331" data-name="Rectángulo 403331" width="0.999" height="13.981" transform="translate(5.036 0.816)" fill="#343333"/>
          <rect id="Rectángulo_403332" data-name="Rectángulo 403332" width="0.999" height="13.981" transform="translate(4.193 0.816)" fill="#2c2b2b"/>
          <rect id="Rectángulo_403333" data-name="Rectángulo 403333" width="0.999" height="13.981" transform="translate(3.349 0.816)" fill="#232222"/>
          <rect id="Rectángulo_403334" data-name="Rectángulo 403334" width="0.999" height="13.981" transform="translate(2.506 0.816)" fill="#191919"/>
          <rect id="Rectángulo_403335" data-name="Rectángulo 403335" width="0.999" height="13.981" transform="translate(1.663 0.816)" fill="#0e0e0e"/>
          <rect id="Rectángulo_403336" data-name="Rectángulo 403336" width="0.999" height="13.981" transform="translate(0.82 0.816)"/>
          <path id="Trazado_911811" data-name="Trazado 911811" d="M.82.82H18.675V14.795H.82ZM0,15.614H19.5V0H0Z" fill="#b6b5b6"/>
        </g>
      </g>
    </g>
  </g>
</svg>
