<svg xmlns="http://www.w3.org/2000/svg" width="68" height="68" viewBox="0 0 68 68">
  <g id="Grupo_1102217" data-name="Grupo 1102217" transform="translate(-922.053 -3074)">
    <circle id="Elipse_11536" data-name="Elipse 11536" cx="34" cy="34" r="34" transform="translate(922.053 3074)" fill="#3c3c3c"/>
    <path id="Trazado_911386" data-name="Trazado 911386" d="M2.088,22.671H12.7v8.2H2.088Zm12.7,0H25.4v8.2H14.788Zm12.7,0H38.1v8.2H27.488ZM2.088,12.38H12.7v8.2H2.088Zm12.7,0H25.4v8.2H14.788Zm12.7,0H38.1v8.2H27.488ZM2.088,2.088H12.7v8.2H2.088Zm12.7,0H25.4v8.2H14.788Zm12.7,0H38.1v8.2H27.488ZM0,0V32.962H40.188V0Z" transform="translate(936.053 3092)" fill="#b6b5b6"/>
  </g>
</svg>
