<svg xmlns="http://www.w3.org/2000/svg" xmlns:xlink="http://www.w3.org/1999/xlink" width="400" height="209" viewBox="0 0 400 209">
  <defs>
    <clipPath id="clip-path">
      <rect id="Rectángulo_403190" data-name="Rectángulo 403190" width="74.993" height="48.424" fill="none"/>
    </clipPath>
    <clipPath id="clip-path-2">
      <rect id="Rectángulo_403179" data-name="Rectángulo 403179" width="27.516" height="23.411" fill="none"/>
    </clipPath>
    <clipPath id="clip-path-3">
      <rect id="Rectángulo_403181" data-name="Rectángulo 403181" width="27.515" height="23.411" fill="none"/>
    </clipPath>
    <clipPath id="clip-path-5">
      <rect id="Rectángulo_403185" data-name="Rectángulo 403185" width="29.457" height="19.124" fill="none"/>
    </clipPath>
    <clipPath id="clip-path-6">
      <rect id="Rectángulo_403187" data-name="Rectángulo 403187" width="29.458" height="19.124" fill="none"/>
    </clipPath>
    <clipPath id="clip-path-8">
      <rect id="Rectángulo_403176" data-name="Rectángulo 403176" width="285.187" height="197.437" fill="none"/>
    </clipPath>
    <clipPath id="clip-path-10">
      <rect id="Rectángulo_403161" data-name="Rectángulo 403161" width="22.06" height="22.06" fill="none"/>
    </clipPath>
    <clipPath id="clip-path-11">
      <rect id="Rectángulo_403162" data-name="Rectángulo 403162" width="11.662" height="20.09" fill="none"/>
    </clipPath>
    <clipPath id="clip-path-12">
      <rect id="Rectángulo_403163" data-name="Rectángulo 403163" width="3" height="2.168" fill="none"/>
    </clipPath>
    <clipPath id="clip-path-13">
      <rect id="Rectángulo_403164" data-name="Rectángulo 403164" width="14.82" height="45.074" fill="none"/>
    </clipPath>
    <clipPath id="clip-path-14">
      <rect id="Rectángulo_403166" data-name="Rectángulo 403166" width="39.953" height="6.659" fill="none"/>
    </clipPath>
    <clipPath id="clip-path-15">
      <rect id="Rectángulo_403167" data-name="Rectángulo 403167" width="27.725" height="24.724" fill="none"/>
    </clipPath>
    <clipPath id="clip-path-16">
      <rect id="Rectángulo_403168" data-name="Rectángulo 403168" width="102.05" height="59.529" fill="none"/>
    </clipPath>
    <clipPath id="clip-path-17">
      <rect id="Rectángulo_403172" data-name="Rectángulo 403172" width="65.942" height="4.385" fill="none"/>
    </clipPath>
    <clipPath id="clip-path-18">
      <rect id="Rectángulo_403194" data-name="Rectángulo 403194" width="53.745" height="61.251" transform="translate(0 0)" fill="none"/>
    </clipPath>
    <clipPath id="clip-path-19">
      <rect id="Rectángulo_403200" data-name="Rectángulo 403200" width="41.931" height="41.551" transform="translate(0 0)" fill="none"/>
    </clipPath>
    <clipPath id="clip-path-20">
      <rect id="Rectángulo_403204" data-name="Rectángulo 403204" width="48.222" height="48.169" fill="none"/>
    </clipPath>
  </defs>
  <g id="Grupo_1101450" data-name="Grupo 1101450" transform="translate(-1020.026 -373)">
    <g id="Grupo_1101442" data-name="Grupo 1101442" transform="translate(1316.899 373.615)" clip-path="url(#clip-path)">
      <path id="Trazado_911685" data-name="Trazado 911685" d="M11.75,62.447l16.3,11.011,4.3,2.906a.559.559,0,0,0,.778-.15l2.8-4.137,3.122-4.625,5.991-8.868,1.037-1.543,5.991-8.868,1.121-1.652,5.993-8.873,1.272-1.887,5.992-8.874,2.168-3.2a.568.568,0,0,0-.15-.778L53.792,12.993l-.026-.015-5.9-3.985a.563.563,0,0,0-.778.15l-2.17,3.209L38.931,21.22l-1.274,1.893-5.991,8.868-1.122,1.652-5.993,8.873-1.035,1.537L11.6,61.675a.559.559,0,0,0,.152.772" transform="translate(-0.151 -29.742)" fill="#fff3ea"/>
      <rect id="Rectángulo_403177" data-name="Rectángulo 403177" width="25.975" height="10.704" transform="translate(60.304 6.021) rotate(-145.957)" fill="#aa6ee7"/>
      <g id="Grupo_1101426" data-name="Grupo 1101426" transform="translate(31.512 -6.631)" opacity="0.8">
        <g id="Grupo_1101425" data-name="Grupo 1101425">
          <g id="Grupo_1101424" data-name="Grupo 1101424" clip-path="url(#clip-path-2)">
            <rect id="Rectángulo_403178" data-name="Rectángulo 403178" width="25.975" height="10.704" transform="matrix(-0.829, -0.56, 0.56, -0.829, 21.523, 23.411)" fill="#aa6ee7"/>
          </g>
        </g>
      </g>
      <g id="Grupo_1101429" data-name="Grupo 1101429" transform="translate(24.402 3.892)" opacity="0.5">
        <g id="Grupo_1101428" data-name="Grupo 1101428">
          <g id="Grupo_1101427" data-name="Grupo 1101427" clip-path="url(#clip-path-3)">
            <rect id="Rectángulo_403180" data-name="Rectángulo 403180" width="25.975" height="10.704" transform="translate(21.523 23.411) rotate(-145.955)" fill="#aa6ee7"/>
          </g>
        </g>
      </g>
      <g id="Grupo_1101432" data-name="Grupo 1101432" transform="translate(17.371 14.299)" opacity="0.3">
        <g id="Grupo_1101431" data-name="Grupo 1101431">
          <g id="Grupo_1101430" data-name="Grupo 1101430" clip-path="url(#clip-path-3)">
            <rect id="Rectángulo_403182" data-name="Rectángulo 403182" width="25.975" height="10.704" transform="translate(21.523 23.411) rotate(-145.955)" fill="#aa6ee7"/>
          </g>
        </g>
      </g>
      <path id="Trazado_911686" data-name="Trazado 911686" d="M58.54.407,38.007,63.836a.59.59,0,0,0,.378.741l24.872,8.051A.59.59,0,0,0,64,72.249L84.53,8.82a.589.589,0,0,0-.378-.74L59.28.029a.589.589,0,0,0-.74.378" transform="translate(-30.813 -25.821)" fill="#fff3ea"/>
      <g id="Grupo_1101435" data-name="Grupo 1101435" transform="translate(18.8 -8.552)" opacity="0.8">
        <g id="Grupo_1101434" data-name="Grupo 1101434">
          <g id="Grupo_1101433" data-name="Grupo 1101433" clip-path="url(#clip-path-5)">
            <rect id="Rectángulo_403184" data-name="Rectángulo 403184" width="27.318" height="11.258" transform="matrix(-0.951, -0.308, 0.308, -0.951, 25.99, 19.124)" fill="#ffa7da"/>
          </g>
        </g>
      </g>
      <g id="Grupo_1101438" data-name="Grupo 1101438" transform="translate(14.687 4.155)" opacity="0.5">
        <g id="Grupo_1101437" data-name="Grupo 1101437">
          <g id="Grupo_1101436" data-name="Grupo 1101436" clip-path="url(#clip-path-6)">
            <rect id="Rectángulo_403186" data-name="Rectángulo 403186" width="27.318" height="11.258" transform="translate(25.99 19.124) rotate(-162.063)" fill="#ffa7da"/>
          </g>
        </g>
      </g>
      <g id="Grupo_1101441" data-name="Grupo 1101441" transform="translate(10.619 16.723)" opacity="0.3">
        <g id="Grupo_1101440" data-name="Grupo 1101440">
          <g id="Grupo_1101439" data-name="Grupo 1101439" clip-path="url(#clip-path-5)">
            <rect id="Rectángulo_403188" data-name="Rectángulo 403188" width="27.318" height="11.258" transform="translate(25.99 19.124) rotate(-162.063)" fill="#ffa7da"/>
          </g>
        </g>
      </g>
      <path id="Trazado_911687" data-name="Trazado 911687" d="M76.332,118.274a1.8,1.8,0,1,0,2.268-1.159,1.8,1.8,0,0,0-2.268,1.159" transform="translate(-47.511 -77.375)" fill="#492a51"/>
    </g>
    <g id="Grupo_1101423" data-name="Grupo 1101423" transform="translate(-0.163)">
      <path id="Trazado_911684" data-name="Trazado 911684" d="M0,0H253l45.191,40.271H-29.482Z" transform="translate(1085.672 541.729)" fill="#9a9ef7"/>
      <g id="Grupo_1101421" data-name="Grupo 1101421" transform="translate(1077.433 384.563)">
        <g id="Grupo_1101420" data-name="Grupo 1101420" transform="translate(0 0)" clip-path="url(#clip-path-8)">
          <g id="Grupo_1101405" data-name="Grupo 1101405">
            <g id="Grupo_1101404" data-name="Grupo 1101404" clip-path="url(#clip-path-8)">
              <path id="Trazado_911577" data-name="Trazado 911577" d="M176.435,5.183a1.588,1.588,0,0,0,0,.227,3.02,3.02,0,0,0,.2.909c.106.254.212.5.328.745s.248.486.359.729c.259.55.529,1.094.8,1.633,0,.005.005.005.005.01.264.513.529,1.02.809,1.522a70.638,70.638,0,0,0,10.3,13.763.017.017,0,0,1,.005.01l.967,1.03c.549.6,1.115,1.195,1.686,1.792a8.477,8.477,0,0,0,.7.682.016.016,0,0,1,.01.005,3.2,3.2,0,0,0,.571.386,3.091,3.091,0,0,0,.38.174c3.536,1.454,7.294-2.289,8.8-5.233a16.283,16.283,0,0,0,1.142-11.3,15.577,15.577,0,0,0-2.643-5.412c-.106-.148-.222-.291-.338-.433a16.026,16.026,0,0,0-2.219-2.262,2.6,2.6,0,0,0-.233-.19,17.27,17.27,0,0,0-4.212-2.542,1.626,1.626,0,0,0-.169-.074A18.036,18.036,0,0,0,191.71.674c-.058-.021-.122-.037-.185-.053A17.476,17.476,0,0,0,188.3.056a1.478,1.478,0,0,0-.148-.01A15.418,15.418,0,0,0,186.589,0a1.346,1.346,0,0,0-.148.005c-.1,0-.2,0-.291.005a15.923,15.923,0,0,0-2.4.275.671.671,0,0,0-.138.026,15.43,15.43,0,0,0-3.589,1.141c-.238.106-.481.222-.719.349a1.308,1.308,0,0,0-.127.058c-1.3.677-2.547,1.6-2.733,3.155,0,.053-.01.111-.01.164" transform="translate(-6.238 0)" fill="#492a51"/>
              <path id="Trazado_911578" data-name="Trazado 911578" d="M187.167,9.644c.539,1.34,1.137,2.635,1.779,3.89,3.8,5.074,7.523,10.243,11.2,15.406a.019.019,0,0,1,.005.011c1.284,1.378,2.6,2.74,3.944,4.1,1.855-.189,2.5.195,3.982-.283a6.174,6.174,0,0,0,1.534-.756,20.216,20.216,0,0,0-2.617-9.42,28.562,28.562,0,0,0-8.176-8.97A33.226,33.226,0,0,0,188.249,8.36a8.068,8.068,0,0,0-1.082,1.284" transform="translate(-17.143 -4.218)" fill="#351e3b"/>
              <path id="Trazado_911579" data-name="Trazado 911579" d="M179.821,34.106l.085.106a12.066,12.066,0,0,0,2.061-2.156c.08-.1.154-.206.233-.312A18.713,18.713,0,0,0,184.3,13.4c-.106-.148-.222-.29-.338-.433a18.575,18.575,0,0,1-1.866,18.695c-.048.069-.1.137-.154.2a11.716,11.716,0,0,1-2.119,2.241" transform="translate(10.313 -6.544)" fill="#351e3b"/>
              <path id="Trazado_911580" data-name="Trazado 911580" d="M184.227,28.839l.09.1a12.9,12.9,0,0,0,1.988-2.622,17.035,17.035,0,0,0,1.533-3.589A20.9,20.9,0,0,0,186.822,8.21a2.534,2.534,0,0,0-.232-.19,20.811,20.811,0,0,1,1.121,14.667,17.019,17.019,0,0,1-1.464,3.462,13.032,13.032,0,0,1-2.019,2.69" transform="translate(5.23 -4.047)" fill="#351e3b"/>
              <path id="Trazado_911581" data-name="Trazado 911581" d="M194.542,22.475l.106.079a16.434,16.434,0,0,0,2.58-5.581,26.07,26.07,0,0,0,.729-8.256,18.828,18.828,0,0,0-1.089-5.761c-.016-.048-.037-.1-.058-.143a1.625,1.625,0,0,0-.169-.074c.037.09.074.174.106.264a18.718,18.718,0,0,1,1.078,5.719,26.015,26.015,0,0,1-.7,8.113,16.449,16.449,0,0,1-2.585,5.64" transform="translate(-9.201 -1.382)" fill="#351e3b"/>
              <path id="Trazado_911582" data-name="Trazado 911582" d="M196.419,19.548l.111.074a17.6,17.6,0,0,0,2.833-9.8,17.545,17.545,0,0,0-2.4-8.51,1.828,1.828,0,0,0-.185-.053,17.44,17.44,0,0,1,2.458,8.563,17.4,17.4,0,0,1-2.812,9.73" transform="translate(-11.485 -0.633)" fill="#351e3b"/>
              <path id="Trazado_911583" data-name="Trazado 911583" d="M205.6,14.771l.121.058a17.61,17.61,0,0,0,1.459-4.366A18.78,18.78,0,0,0,206.265.1a1.353,1.353,0,0,0-.148-.01,18.584,18.584,0,0,1,.946,10.275,17.6,17.6,0,0,1-1.459,4.4" transform="translate(-24.201 -0.047)" fill="#351e3b"/>
              <path id="Trazado_911584" data-name="Trazado 911584" d="M209.378,9.7a13.116,13.116,0,0,1-.978,3.314l.122.053A13.521,13.521,0,0,0,209.5,9.79,14.5,14.5,0,0,0,207.67.007a1.346,1.346,0,0,0-.148.005A14.392,14.392,0,0,1,209.378,9.7" transform="translate(-27.319 -0.004)" fill="#351e3b"/>
              <path id="Trazado_911585" data-name="Trazado 911585" d="M215.123,8.257a15.2,15.2,0,0,1-.444,4.117l.127.032a15.028,15.028,0,0,0,.449-4.064,16.424,16.424,0,0,0-2.178-7.76.751.751,0,0,0-.137.027,16.41,16.41,0,0,1,2.183,7.648" transform="translate(-35.565 -0.294)" fill="#351e3b"/>
              <path id="Trazado_911586" data-name="Trazado 911586" d="M217.515,3.7c.338.37.693.729,1.041,1.089a13.629,13.629,0,0,1,2.685,3.367,6.7,6.7,0,0,1,.3.724,9.829,9.829,0,0,1,.153,4.445l.127.016a9.866,9.866,0,0,0-.153-4.5,5.638,5.638,0,0,0-.232-.581,13.15,13.15,0,0,0-2.78-3.562c-.338-.344-.682-.693-1.01-1.052a1.31,1.31,0,0,0-.127.058" transform="translate(-44.574 -1.84)" fill="#351e3b"/>
              <path id="Trazado_911587" data-name="Trazado 911587" d="M276.876,27.458a12.1,12.1,0,0,0,2.511,2.648,8.66,8.66,0,0,0,3.3,1.681h.005a4.4,4.4,0,0,0,3.229-.412,3.35,3.35,0,0,0,.841-.65c0-.01,0-.01,0-.01a7.816,7.816,0,0,0,.587-.735c.47-.64.935-1.274,1.39-1.919.265-.37.529-.735.8-1.1v-.01a67.76,67.76,0,0,0,8.145-14.408c.206-.513.4-1.031.587-1.554,0,0,.005,0,.005-.01.2-.55.386-1.1.566-1.66.079-.243.169-.491.254-.74s.153-.5.222-.751a2.861,2.861,0,0,0,.079-.893,1.538,1.538,0,0,0-.027-.216,1.47,1.47,0,0,0-.032-.159,2.137,2.137,0,0,0-.143-.418A3.418,3.418,0,0,0,297.674,4.5a7.66,7.66,0,0,0-1.332-.619,1.154,1.154,0,0,0-.127-.042c-.243-.09-.491-.174-.729-.243a14.738,14.738,0,0,0-3.568-.65.635.635,0,0,0-.137-.01,15.508,15.508,0,0,0-2.325.032c-.09,0-.185.021-.275.032a1.17,1.17,0,0,0-.143.01c-.5.058-.994.132-1.491.232a1.094,1.094,0,0,0-.137.032,16.584,16.584,0,0,0-3.013.936.938.938,0,0,0-.169.074,17.277,17.277,0,0,0-1.8.893,1.014,1.014,0,0,0-.148.09,16.553,16.553,0,0,0-3.716,2.944,1.843,1.843,0,0,0-.2.212,15.312,15.312,0,0,0-1.844,2.431c-.1.153-.185.3-.27.454a15.092,15.092,0,0,0-1.861,5.5,15.675,15.675,0,0,0,2.479,10.655" transform="translate(-150.093 -1.465)" fill="#492a51"/>
              <path id="Trazado_911588" data-name="Trazado 911588" d="M274.715,31.728a8.663,8.663,0,0,0,3.3,1.681h.005a21.57,21.57,0,0,1,2.532-.3q1.784-2.339,3.478-4.688a.017.017,0,0,1,.005-.01c3.06-5.729,6.168-11.475,9.377-17.136.412-1.147.787-2.32,1.115-3.52L293,6.12a31.368,31.368,0,0,0-2.875,1.459c-.084.053-.174.1-.259.154a34.008,34.008,0,0,0-3.832,2.621c-.043.032-.09.069-.132.106-.814.645-1.6,1.326-2.357,2.035l-.106.106a.678.678,0,0,0-.063.058c-.2.185-.391.375-.581.565-.037.037-.074.074-.106.111a31.979,31.979,0,0,0-3.557,4.223c-.032.042-.063.085-.09.127-.212.3-.418.613-.619.925-.032.048-.058.1-.09.143a25.17,25.17,0,0,0-2.1,4.1,21.558,21.558,0,0,0-.857,2.611l-.048.175a21.272,21.272,0,0,0-.549,3.113c-.005.058-.011.122-.016.185a19.642,19.642,0,0,0-.053,2.791" transform="translate(-145.422 -3.088)" fill="#351e3b"/>
              <path id="Trazado_911589" data-name="Trazado 911589" d="M314.72,38.628l-.068.111a11.61,11.61,0,0,1-2.233-1.807c-.088-.086-.172-.178-.261-.269A18.024,18.024,0,0,1,307.9,19.4c.083-.155.176-.305.27-.456a17.885,17.885,0,0,0,4.077,17.628c.054.06.113.118.171.173a11.312,11.312,0,0,0,2.3,1.88" transform="translate(-181.739 -9.56)" fill="#351e3b"/>
              <path id="Trazado_911590" data-name="Trazado 911590" d="M312.505,33.207l-.074.1a12.461,12.461,0,0,1-2.22-2.26,16.4,16.4,0,0,1-1.9-3.24,20.133,20.133,0,0,1-.812-13.988,2.587,2.587,0,0,1,.2-.21,20.042,20.042,0,0,0,.73,14.147,16.372,16.372,0,0,0,1.824,3.127,12.529,12.529,0,0,0,2.259,2.322" transform="translate(-179.217 -6.868)" fill="#351e3b"/>
              <path id="Trazado_911591" data-name="Trazado 911591" d="M304.613,26.075l-.091.089a15.824,15.824,0,0,1-3.149-5.015,25.086,25.086,0,0,1-1.71-7.8A18.132,18.132,0,0,1,300,7.717c.009-.048.024-.1.038-.144a1.531,1.531,0,0,1,.153-.091c-.024.09-.05.175-.069.265a18.042,18.042,0,0,0-.328,5.6,25.047,25.047,0,0,0,1.663,7.664,15.845,15.845,0,0,0,3.161,5.07" transform="translate(-167.847 -3.775)" fill="#351e3b"/>
              <path id="Trazado_911592" data-name="Trazado 911592" d="M303.452,22.961l-.1.084a16.955,16.955,0,0,1-3.909-9.017A16.905,16.905,0,0,1,300.7,5.6c.053-.027.112-.05.17-.073a16.5,16.5,0,0,0,.014,13.326,16.605,16.605,0,0,0,2.57,4.1" transform="translate(-166.564 -2.791)" fill="#351e3b"/>
              <path id="Trazado_911593" data-name="Trazado 911593" d="M296.533,17.542l-.109.07a16.958,16.958,0,0,1-1.929-3.991A18.083,18.083,0,0,1,294.1,3.613a1.374,1.374,0,0,1,.14-.028,17.893,17.893,0,0,0,.358,9.931,16.919,16.919,0,0,0,1.934,4.026" transform="translate(-156.788 -1.809)" fill="#351e3b"/>
              <path id="Trazado_911594" data-name="Trazado 911594" d="M294.082,12.572a12.634,12.634,0,0,0,1.341,3.045l-.109.065a13.012,13.012,0,0,1-1.336-3.01,13.961,13.961,0,0,1,.546-9.569,1.358,1.358,0,0,1,.142-.013,13.859,13.859,0,0,0-.583,9.482" transform="translate(-155.58 -1.559)" fill="#351e3b"/>
              <path id="Trazado_911595" data-name="Trazado 911595" d="M289.581,10.545a14.643,14.643,0,0,0,.929,3.878l-.117.046a14.5,14.5,0,0,1-.928-3.827,15.816,15.816,0,0,1,1.128-7.678.641.641,0,0,1,.135.008,15.8,15.8,0,0,0-1.146,7.573" transform="translate(-148.903 -1.495)" fill="#351e3b"/>
              <path id="Trazado_911596" data-name="Trazado 911596" d="M283.893,4.826c-.277.395-.572.782-.861,1.168a13.117,13.117,0,0,0-2.151,3.546,6.432,6.432,0,0,0-.194.728,9.475,9.475,0,0,0,.4,4.264l-.119.031a9.508,9.508,0,0,1-.407-4.32,5.385,5.385,0,0,1,.151-.584,12.664,12.664,0,0,1,2.218-3.744c.281-.37.566-.745.835-1.129a1.315,1.315,0,0,1,.128.04" transform="translate(-137.643 -2.415)" fill="#351e3b"/>
              <path id="Trazado_911597" data-name="Trazado 911597" d="M240.179,80.48a.623.623,0,0,0,0,.143,22.929,22.929,0,0,0,1.749,9.038l.063.143a19.8,19.8,0,0,0,5.143,7.2q1.364.151,2.727.286a1.2,1.2,0,0,0,.132.01,120.736,120.736,0,0,0,26.93-.01,10.6,10.6,0,0,0,4.593-1.343,9.73,9.73,0,0,0,3.224-4.731c7.235-17.976,6.284-38.087,2.8-57.077-.788-4.3-1.707-8.589-2.918-12.8a1.138,1.138,0,0,0-.037-.127c-.291-1.015-.6-2.019-.93-3.018a.614.614,0,0,0-.042-.127c-.6-1.829-1.258-3.636-2.009-5.417a.64.64,0,0,0-.053-.127q-.19-.468-.4-.936a18.882,18.882,0,0,0-4.25-5.835,1.375,1.375,0,0,0-.127-.122c-.1-.095-.2-.185-.3-.274-4.228.507-9.191,1.85-12.564,4.366-4.223,3.156-6.755,8.087-7.8,13.15a34.089,34.089,0,0,0-.645,5.523v.011c-.01.3-.021.587-.021.882V29.3a65.788,65.788,0,0,0,.549,9c.529,4.429,1.242,9.075-.438,13.229-1.454,3.6-4.514,6.332-7.093,9.292a36.978,36.978,0,0,0-5.417,8.145c-.032.058-.058.122-.09.185a28.037,28.037,0,0,0-2.7,9.7c-.042.539-.068,1.078-.074,1.622" transform="translate(-123.988 -2.706)" fill="#492a51"/>
              <path id="Trazado_911598" data-name="Trazado 911598" d="M250.153,103.8a23.821,23.821,0,0,0,8.956-14.454,47.287,47.287,0,0,0,.557-8.311c.01-1.329.021-2.7.088-4.047a97.254,97.254,0,0,1,2.522-15.721c1.256-5.782,2.555-11.762,5.658-16.945a20.328,20.328,0,0,1,7.571-7.59l-.062-.116a20.458,20.458,0,0,0-7.622,7.638c-3.114,5.2-4.416,11.192-5.673,16.986a97.359,97.359,0,0,0-2.525,15.743c-.066,1.348-.077,2.723-.088,4.052a47.175,47.175,0,0,1-.555,8.288,23.686,23.686,0,0,1-8.906,14.373Z" transform="translate(-114.206 -18.478)" fill="#351e3b"/>
              <path id="Trazado_911599" data-name="Trazado 911599" d="M251.965,109.933a1.074,1.074,0,0,0,.132.01c.576-3.388,2.87-6.369,4.466-8.092.909-.983,1.892-1.934,2.849-2.849a30.534,30.534,0,0,0,5.92-6.982C268.1,86.994,267.795,81,267.5,75.208c-.021-.486-.048-.972-.069-1.459-.3-6.464-.333-16.073,2.838-24.873,3.023-8.351,8.636-14.884,15.487-18.034.227-.106.465-.206.7-.307l-.053-.121c-.232.1-.46.2-.687.3-6.887,3.161-12.531,9.72-15.565,18.119C266.965,57.65,267,67.28,267.3,73.755c.021.486.048.972.069,1.464.291,5.772.592,11.744-2.146,16.739a30.536,30.536,0,0,1-5.9,6.951c-.951.919-1.939,1.871-2.849,2.854-1.612,1.733-3.927,4.747-4.5,8.171" transform="translate(-126.091 -15.347)" fill="#351e3b"/>
              <path id="Trazado_911600" data-name="Trazado 911600" d="M253.032,95.879l.063.143c.132-.2.275-.386.423-.571a16.57,16.57,0,0,1,6.718-4.794c.83-.349,1.7-.66,2.547-.967,2.41-.862,4.905-1.755,6.739-3.557a12.415,12.415,0,0,0,3.277-8.008,39.117,39.117,0,0,0-.391-7.341c-.058-.481-.111-.957-.164-1.432C271,58.04,272,48.024,275.21,39.578c3.5-9.223,9.8-16.639,17.495-20.7q1.094-.586,2.22-1.068l-.048-.121c-.756.322-1.5.682-2.225,1.062-7.727,4.086-14.054,11.528-17.569,20.787-3.213,8.462-4.212,18.5-2.971,29.831.053.476.106.952.164,1.432a38.919,38.919,0,0,1,.391,7.321,12.275,12.275,0,0,1-3.235,7.918c-1.818,1.781-4.3,2.669-6.691,3.53-.846.3-1.723.619-2.558.968a16.688,16.688,0,0,0-6.765,4.831c-.132.169-.265.338-.386.513" transform="translate(-135.092 -8.924)" fill="#351e3b"/>
              <path id="Trazado_911601" data-name="Trazado 911601" d="M262.52,84.21a.627.627,0,0,0,0,.143,38.468,38.468,0,0,1,5-1.485c.375-.1.751-.185,1.12-.28,2.886-.74,5.857-1.707,8-3.769,3.5-3.362,3.991-8.689,4.191-13.864l.74-18.916c.265-6.776.566-14.461,3.557-21.095,2.711-6.014,8.779-12.056,16.237-12.056h.1v-.132h-.1c-7.516,0-13.631,6.084-16.358,12.136-3,6.654-3.3,14.35-3.568,21.142L280.7,64.95c-.2,5.143-.687,10.444-4.154,13.774-2.119,2.04-5.069,3-7.939,3.731l-1.12.285a39.044,39.044,0,0,0-4.968,1.469" transform="translate(-146.329 -6.437)" fill="#351e3b"/>
              <path id="Trazado_911602" data-name="Trazado 911602" d="M266.25,70.967q.23-.1.46-.19a19.133,19.133,0,0,1,3.383-.819,15.892,15.892,0,0,0,3.933-1.046A10.368,10.368,0,0,0,279.1,63.2a24.379,24.379,0,0,0,1.438-7.638c.19-3.272.159-6.6.127-9.82-.032-2.949-.063-6,.079-8.991.359-7.521,1.887-13.409,4.662-18,3.53-5.83,9.339-9.53,15.159-9.662l-.005-.132c-5.862.132-11.713,3.859-15.264,9.725-2.791,4.609-4.319,10.513-4.683,18.055-.143,3-.111,6.052-.079,9,.032,3.219.063,6.548-.127,9.815a24.186,24.186,0,0,1-1.427,7.59,10.225,10.225,0,0,1-5.011,5.645,16.042,16.042,0,0,1-3.9,1.041,18.657,18.657,0,0,0-3.409.825c-.106.042-.216.084-.322.127-.032.058-.058.121-.09.185" transform="translate(-147.284 -4.52)" fill="#351e3b"/>
              <path id="Trazado_911603" data-name="Trazado 911603" d="M265.664,29.505a50.925,50.925,0,0,1,1.078-5.011,27.145,27.145,0,0,1,7.611-12.669,22.176,22.176,0,0,1,12.77-5.856c.222-.027.439-.043.661-.058l-.01-.132c-.259.016-.518.037-.777.068a22.338,22.338,0,0,0-12.733,5.878,27.27,27.27,0,0,0-7.648,12.733c-.38,1.358-.676,2.754-.93,4.155v.01c-.011.3-.021.587-.021.883" transform="translate(-134.209 -2.916)" fill="#351e3b"/>
              <path id="Trazado_911604" data-name="Trazado 911604" d="M133.713,95.971c.428,5.946,1.062,11.972,3.266,17.511a3.2,3.2,0,0,0,.645,1.121,3.333,3.333,0,0,0,1.564.724q7.96,2.109,15.925,4.192c2.088.544,4.218,1.12,6.374,1.591a1.031,1.031,0,0,0,.127.026,33.363,33.363,0,0,0,9.223.909.683.683,0,0,0,.148-.01,17.4,17.4,0,0,0,1.887-.217,16.759,16.759,0,0,0,6.369-2.5c.043-.026.079-.048.116-.074a18.984,18.984,0,0,0,5.074-4.926l.005-.005c.068-.09.132-.185.2-.28a18.364,18.364,0,0,0,2.875-6.876A19.783,19.783,0,0,0,186.393,96.3c-.1-.264-.206-.523-.323-.782,0-.005,0-.01-.01-.016a21.2,21.2,0,0,0-6.042-7.981c-1.818-1.464-3.858-2.632-5.8-3.938a51.007,51.007,0,0,1-5.391-4.186,26.148,26.148,0,0,1-7.062-10.983c-.01-.027-.016-.053-.026-.08-.111-.317-.222-.634-.323-.951a9.639,9.639,0,0,0-1.728-3.446,1.908,1.908,0,0,0-.169-.19c-1.174-1.258-2.569-1.543-4.239-2.178-.068-.026-.132-.048-.2-.068a.805.805,0,0,0-.148-.053,13.565,13.565,0,0,0-3.784-.713,1.257,1.257,0,0,0-.143-.011,17.212,17.212,0,0,0-3.858.275,1.154,1.154,0,0,0-.127.026c-.069.011-.143.021-.212.037-.518.1-1.03.227-1.538.376a1.139,1.139,0,0,1-.127.037,18,18,0,0,0-5.529,2.749.84.84,0,0,0-.106.085c-.317.232-.624.481-.92.74a14.142,14.142,0,0,0-3.678,4.926,23.527,23.527,0,0,0-1.575,8.388,144.916,144.916,0,0,0,.375,17.606" transform="translate(31.368 -30.634)" fill="#492a51"/>
              <path id="Trazado_911605" data-name="Trazado 911605" d="M140.32,210.632H248.625l15.1-59.958s1.7-.46-8.314-8.938c-8.329-7.04-19.677-12.833-24.825-18.372a11.459,11.459,0,0,1-2.288-3.346,5.232,5.232,0,0,1-.164-1.691c-.576-8.742,2.933-19.556,3.034-19.868l-33.526,12.167s.053.687.09,1.755a36.373,36.373,0,0,1-.217,6.765c-.063.391-.238.819-.322,1.184a9.1,9.1,0,0,1-.476,1.538,7.01,7.01,0,0,1-1.982,2.542c-2.923,2.574-8.594,5.317-17.162,11.549-11.876,8.637-16.859,17.16-18.962,20.9Z" transform="translate(-48.157 -49.681)" fill="#ff8b9b"/>
              <path id="Trazado_911606" data-name="Trazado 911606" d="M230.749,133.182a17.816,17.816,0,0,0,6.661.2,25.485,25.485,0,0,0,8.809-2.733,13.533,13.533,0,0,0,6.371-6.721c-2.92,2.353-7.741,3.065-11.488,2.884a38.075,38.075,0,0,1-9.932-1.642,33.215,33.215,0,0,1-.422,8.014" transform="translate(-81.718 -62.532)" fill="#351e3b"/>
              <path id="Trazado_911607" data-name="Trazado 911607" d="M200.727,43.532a49.9,49.9,0,0,0,.788,7.8A24.188,24.188,0,0,0,207.642,63.6a27.2,27.2,0,0,0,6.541,5.1c10.593,6,27.77,3.927,34.654-6.83,3.588-5.605,4.887-13.179,4.938-19.752.062-6.408-1.5-12.973-5.751-17.926-6.009-6.972-15.695-10.331-24.756-9.7a29.492,29.492,0,0,0-4.65.7,27,27,0,0,0-5.144,1.765c-4.411,2.033-7.328,5.63-9.632,9.949-2.429,4.537-3.261,10.8-3.115,16.634" transform="translate(-68.024 -7.272)" fill="#ff8b9b"/>
              <g id="Grupo_1101394" data-name="Grupo 1101394" transform="translate(158.483 38.371)" opacity="0.23" style="mix-blend-mode: multiply;isolation: isolate">
                <g id="Grupo_1101393" data-name="Grupo 1101393" transform="translate(0)">
                  <g id="Grupo_1101392" data-name="Grupo 1101392" clip-path="url(#clip-path-10)">
                    <path id="Trazado_911608" data-name="Trazado 911608" d="M211.248,87.832A11.029,11.029,0,1,0,222.91,77.473a11.029,11.029,0,0,0-11.661,10.359" transform="translate(-211.229 -77.453)" fill="#d9607b"/>
                  </g>
                </g>
              </g>
              <g id="Grupo_1101397" data-name="Grupo 1101397" transform="translate(132.704 36.234)" opacity="0.23" style="mix-blend-mode: multiply;isolation: isolate">
                <g id="Grupo_1101396" data-name="Grupo 1101396" transform="translate(0)">
                  <g id="Grupo_1101395" data-name="Grupo 1101395" clip-path="url(#clip-path-11)">
                    <path id="Trazado_911609" data-name="Trazado 911609" d="M284.252,73.165a49.9,49.9,0,0,0,.788,7.8,24.188,24.188,0,0,0,6.126,12.264,11.026,11.026,0,0,0-5.633-20.071,8.844,8.844,0,0,0-1.281.006" transform="translate(-284.252 -73.139)" fill="#d9607b"/>
                  </g>
                </g>
              </g>
              <path id="Trazado_911610" data-name="Trazado 911610" d="M275.54,84.729a3.207,3.207,0,0,1-1.832-2.65c-.092-1.342.961-2.751,1.966-3.651l-.212-.952" transform="translate(-126.083 -39.094)" fill="none" stroke="#351e3b" stroke-linecap="round" stroke-linejoin="round" stroke-width="1.167"/>
              <path id="Trazado_911611" data-name="Trazado 911611" d="M265.7,91.472a1.051,1.051,0,0,1,.885-.62.773.773,0,0,1,.781.672" transform="translate(-113.812 -45.843)" fill="none" stroke="#351e3b" stroke-linecap="round" stroke-linejoin="round" stroke-width="1.167"/>
              <path id="Trazado_911612" data-name="Trazado 911612" d="M277.39,70.242s1.154,4.786,7.035,4.493a1.082,1.082,0,0,0,.178-.015c1.442-.154,3.027-1.328,4.791-3.349,0,0-.04-.1-.124-.272-.059-.119-.134-.268-.233-.446-.738-1.352-2.6-4.161-5.494-4.409l-.109,0h-.045a5.165,5.165,0,0,0-1.64.178,7.732,7.732,0,0,0-4.112,3.4,4.606,4.606,0,0,0-.248.426" transform="translate(-141.628 -33.42)" fill="#f7e9e9"/>
              <path id="Trazado_911613" data-name="Trazado 911613" d="M278.494,71.461a3.834,3.834,0,0,0,2.779,2.086,4.7,4.7,0,0,0,2.611-.3,5.19,5.19,0,0,0,2.636-2.591c-.738-1.352-2.6-4.161-5.494-4.409l-.109,0h-.045a5.165,5.165,0,0,0-1.64.178,5.141,5.141,0,0,0-.738,5.043" transform="translate(-139.111 -33.42)" fill="#492a51"/>
              <path id="Trazado_911614" data-name="Trazado 911614" d="M277.905,70.807a7.091,7.091,0,0,1,1.954-3.2,5.344,5.344,0,0,1,3.4-1.484,5.574,5.574,0,0,1,3.56,1.249,7.329,7.329,0,0,1,2.311,3.2.318.318,0,1,0,.592-.231l-.005-.013-.006-.013a12.134,12.134,0,0,0-.951-1.916,7.663,7.663,0,0,0-1.439-1.641,6.093,6.093,0,0,0-8.233-.028,8.3,8.3,0,0,0-2.492,3.725.675.675,0,0,0,1.28.432l.008-.025Z" transform="translate(-141.574 -32.873)" fill="#351e3b"/>
              <path id="Trazado_911615" data-name="Trazado 911615" d="M230.077,71.175c2,2.188,3.8,3.462,5.433,3.624a1.158,1.158,0,0,0,.206.019,10.263,10.263,0,0,0,2.337-.137,6.993,6.993,0,0,0,5.5-4.308,7.936,7.936,0,0,0-4.009-4.283c-.112-.05-.217-.093-.323-.13a5.976,5.976,0,0,0-2.151-.348c-.056,0-.118,0-.18.006h-.056l-.118.006c-3.711.3-5.955,3.826-6.521,4.933a2.212,2.212,0,0,0-.118.618" transform="translate(-72.349 -33.106)" fill="#f7e9e9"/>
              <path id="Trazado_911616" data-name="Trazado 911616" d="M231.8,71.8a4.085,4.085,0,0,0,2.962,2.222,5.009,5.009,0,0,0,2.782-.322,5.53,5.53,0,0,0,2.809-2.761,6.264,6.264,0,0,0-5.854-4.7l-.116-.005h-.048a5.494,5.494,0,0,0-1.747.19A5.478,5.478,0,0,0,231.8,71.8" transform="translate(-69.793 -33.42)" fill="#492a51"/>
              <path id="Trazado_911617" data-name="Trazado 911617" d="M228.667,70.334l.511-1.021a8.4,8.4,0,0,1,.608-.938,7.713,7.713,0,0,1,1.573-1.549,6.585,6.585,0,0,1,4.048-1.334,6.305,6.305,0,0,1,3.88,1.6,7.6,7.6,0,0,1,2.266,3.519l.018.06a.7.7,0,1,0,1.347-.4c0-.012-.008-.027-.012-.039a9,9,0,0,0-2.867-4.052,7.061,7.061,0,0,0-9.139.051A8.41,8.41,0,0,0,229.259,68a9.064,9.064,0,0,0-.606,1.033l-.478,1.075a.271.271,0,0,0,.491.229" transform="translate(-70.788 -32.559)" fill="#351e3b"/>
              <path id="Trazado_911618" data-name="Trazado 911618" d="M264.869,97.765a4.61,4.61,0,0,1-5.486,1.482" transform="translate(-108.183 -49.331)" fill="none" stroke="#351e3b" stroke-linecap="round" stroke-linejoin="round" stroke-width="0.973"/>
              <g id="Grupo_1101400" data-name="Grupo 1101400" transform="translate(153.192 51.601)" opacity="0.23" style="mix-blend-mode: multiply;isolation: isolate">
                <g id="Grupo_1101399" data-name="Grupo 1101399" transform="translate(0)">
                  <g id="Grupo_1101398" data-name="Grupo 1101398" clip-path="url(#clip-path-12)">
                    <path id="Trazado_911619" data-name="Trazado 911619" d="M260.381,104.753a5.364,5.364,0,0,0,2.745-.594c.066.323.31.667.244.99a1.521,1.521,0,0,1-1.537,1.175,1.819,1.819,0,0,1-1.452-1.57" transform="translate(-260.381 -104.159)" fill="#d9607b"/>
                  </g>
                </g>
              </g>
              <path id="Trazado_911620" data-name="Trazado 911620" d="M242.456,55.383l.02.036c.387.722.111,1.334-.8,1.565a3.825,3.825,0,0,1-1.154.069c-1.164-.068-3.734-.258-3.95-1.519a1.346,1.346,0,0,1,.812-1.31,3.922,3.922,0,0,1,3.393-.249,3.291,3.291,0,0,1,1.675,1.409" transform="translate(-74.654 -27.097)" fill="#492a51"/>
              <path id="Trazado_911621" data-name="Trazado 911621" d="M287.153,56.014l-.019.036c-.381.71-.109,1.311.782,1.538a3.742,3.742,0,0,0,1.134.068c1.144-.067,3.67-.253,3.884-1.494a1.326,1.326,0,0,0-.8-1.288,3.858,3.858,0,0,0-3.336-.245,3.237,3.237,0,0,0-1.647,1.385" transform="translate(-149.925 -27.43)" fill="#492a51"/>
              <path id="Trazado_911622" data-name="Trazado 911622" d="M192.2,123.885a4.91,4.91,0,0,0,.482,1.078,9.567,9.567,0,0,0,2.351,2.4c.116.1.238.19.355.285a18.725,18.725,0,0,1,5.349,6.443,10.256,10.256,0,0,1,.613,7.579l.111.079a10.339,10.339,0,0,0-.607-7.712,18.718,18.718,0,0,0-5.387-6.49l-.348-.286a9.594,9.594,0,0,1-2.325-2.368,5.218,5.218,0,0,1-.55-1.332c-.016.106-.032.217-.043.323" transform="translate(-11.974 -62.349)" fill="#351e3b"/>
              <path id="Trazado_911623" data-name="Trazado 911623" d="M183.332,9.377a16.442,16.442,0,0,0,.465,1.94c.016.053.026.106.042.159.206.7.491,1.554.877,2.552.021.064.048.122.074.185a59.484,59.484,0,0,0,8.124,14.054,37.662,37.662,0,0,0,10.327,9.577c.074.048.154.1.227.138a25.963,25.963,0,0,0,7.1,3.023l.148.032c.613.143.957.185.957.185.217-.143.428-.275.64-.4a1.3,1.3,0,0,1,.116-.068,9.132,9.132,0,0,1,2.849-1.073c.043-.01.09-.016.132-.026a7.359,7.359,0,0,1,3.842.385c.048.016.1.032.148.053a12.69,12.69,0,0,1,5.159,4.25c.106.137.206.27.3.4a14.571,14.571,0,0,1,.9,1.427c0-3.562-1.876-7.194-2.252-10.7-.64-6.031-1.29-10.65-4.318-15.835C213.5,9.9,203.443,4.81,193.268,4.055c-.973-.074-1.945-.106-2.917-.1-.1,0-.523.01-1.115.042-.682.026-1.591.079-2.484.148-.106,0-.206.016-.312.026-.37.032-.729.069-1.068.106s-.655.084-.925.132c-.079.016-.153.027-.222.043-.46.1-.751.206-.756.338l-.048,1.66,0,.132-.053,1.733-.005.138Z" transform="translate(-31.39 -1.995)" fill="#492a51"/>
              <path id="Trazado_911624" data-name="Trazado 911624" d="M136.1,4.268l.01.053.005.037.005.043c.169-.032.343-.058.513-.085.28-.053.56-.09.84-.127s.571-.079.856-.111c.106-.011.206-.021.312-.026.824-.085,1.654-.132,2.484-.148h.021A31.691,31.691,0,0,1,171.8,25.231a67.715,67.715,0,0,1,2.241,9.3q.064.333.127.666a57.926,57.926,0,0,0,2.278,9.054l0,0v.005a21.613,21.613,0,0,0,3.24,5.967c2.648,3.372,6.427,5.661,10.085,7.87,3.821,2.31,7.77,4.7,10.4,8.319a14.843,14.843,0,0,1,.867,1.332c-.1-.264-.206-.523-.322-.782-.005-.005-.005-.01-.01-.016-.138-.206-.275-.412-.423-.613-2.648-3.637-6.607-6.036-10.439-8.351-3.647-2.2-7.415-4.487-10.053-7.838a21.043,21.043,0,0,1-3.05-5.5c0-.005,0-.005,0-.011a53.263,53.263,0,0,1-2.4-9.249c-.058-.3-.111-.587-.169-.883a66.592,66.592,0,0,0-2.246-9.318A31.706,31.706,0,0,0,145.16,3.962h-.016a.046.046,0,0,1-.026-.005,31.431,31.431,0,0,0-8.51.227c-.169.027-.338.053-.507.085" transform="translate(16.718 -1.902)" fill="#351e3b"/>
              <path id="Trazado_911625" data-name="Trazado 911625" d="M138.492,4.686l.01.053c.074-.005.148-.005.217-.005h.01c.1,0,.2-.005.3,0A33.07,33.07,0,0,1,167.2,20.648a48.484,48.484,0,0,1,4.778,12.669c.4,1.618.745,3.208,1.068,4.736l.106.5c.127.6.254,1.2.386,1.813.8,3.705,1.8,7.415,4,10.476,2.547,3.541,6.416,5.8,10.164,7.976,3.092,1.8,6.284,3.663,8.758,6.253,4.858,5.085,6.76,13.229,5.021,21.1.069-.09.132-.185.2-.28a26.513,26.513,0,0,0,.143-10.259,20.862,20.862,0,0,0-5.264-10.661c-2.484-2.6-5.687-4.466-8.79-6.268-3.731-2.178-7.59-4.424-10.122-7.944-2.167-3.018-3.166-6.681-3.959-10.344-.143-.634-.275-1.263-.407-1.892l-.106-.5c-.317-1.5-.655-3.066-1.046-4.656a48.436,48.436,0,0,0-4.815-12.786A32.035,32.035,0,0,0,154.074,8.227a32.447,32.447,0,0,0-14.207-3.62,1.437,1.437,0,0,0-.212-.005h-.005q-.325-.007-.65,0c-.169.027-.338.053-.507.085" transform="translate(14.327 -2.32)" fill="#351e3b"/>
              <path id="Trazado_911626" data-name="Trazado 911626" d="M150.3,9.122c9.477,1.089,17.643,4.905,22.854,10.777,3.383,3.816,5.84,8.663,7.495,14.91a68.149,68.149,0,0,1,1.512,7.416c.09.6.179,1.21.259,1.834.074.576.143,1.147.217,1.723a46.909,46.909,0,0,0,1.517,8.288c.8,2.595,2.442,6.131,5.687,8.224a21.4,21.4,0,0,0,5.233,2.178,31.505,31.505,0,0,1,3.657,1.321,15.69,15.69,0,0,1,8.293,9.4,32.037,32.037,0,0,1,1,9.387,33.106,33.106,0,0,0,.862,8.821c.043-.026.079-.048.116-.074a33.208,33.208,0,0,1-.846-8.747,32.18,32.18,0,0,0-1-9.429,15.824,15.824,0,0,0-8.367-9.477,31.693,31.693,0,0,0-3.673-1.327,21.219,21.219,0,0,1-5.2-2.162c-3.214-2.072-4.836-5.576-5.64-8.15a47.567,47.567,0,0,1-1.511-8.266c-.069-.576-.138-1.147-.212-1.723-.079-.624-.164-1.242-.259-1.844a68.935,68.935,0,0,0-1.5-7.379c-1.66-6.3-4.128-11.169-7.537-15.011a31.154,31.154,0,0,0-12.468-8.335A43.605,43.605,0,0,0,150.307,8.99Z" transform="translate(1.724 -4.536)" fill="#351e3b"/>
              <path id="Trazado_911627" data-name="Trazado 911627" d="M160.975,12.894a35.407,35.407,0,0,1,19.191,11.914,44.243,44.243,0,0,1,7.231,12.2,52.965,52.965,0,0,1,2.532,8.256q.508,2.3.84,4.7c.079.576.154,1.157.222,1.739.444,3.562.909,7.241,2.95,10.185,2.024,2.917,5.269,4.6,8.4,6.226a29.911,29.911,0,0,1,6.855,4.392c3.388,3.187,5.3,8.319,5.1,13.726a28.41,28.41,0,0,1-2.024,9.26l.111.079a28.7,28.7,0,0,0,2.045-9.334c.2-5.444-1.723-10.613-5.142-13.827a29.751,29.751,0,0,0-6.887-4.413c-3.118-1.622-6.348-3.293-8.356-6.189-2.019-2.913-2.479-6.581-2.923-10.122-.074-.582-.143-1.163-.222-1.739q-.333-2.426-.857-4.757a53.4,53.4,0,0,0-2.521-8.214,44.326,44.326,0,0,0-7.257-12.262,35.559,35.559,0,0,0-19.286-11.966Z" transform="translate(-9.007 -6.437)" fill="#351e3b"/>
              <path id="Trazado_911628" data-name="Trazado 911628" d="M173.579,107.712a15.086,15.086,0,0,0,5.83,7.907,22.472,22.472,0,0,0,3.652,1.713A15.335,15.335,0,0,1,188,120.049c3.155,2.955,3.145,7.875,2.082,11.5A41.357,41.357,0,0,1,187.359,138a.785.785,0,0,1,.111.079,41.691,41.691,0,0,0,2.743-6.5c1.073-3.663,1.083-8.636-2.12-11.633a15.387,15.387,0,0,0-4.979-2.743,22.72,22.72,0,0,1-3.63-1.7,15.114,15.114,0,0,1-5.846-8.012c-.021.068-.037.143-.058.216" transform="translate(8.336 -54.241)" fill="#351e3b"/>
              <path id="Trazado_911629" data-name="Trazado 911629" d="M212.053,18.816c.016.053.026.106.043.159a48.738,48.738,0,0,1,15.555,9.8,39.889,39.889,0,0,1,8.509,11.739,34.636,34.636,0,0,1,2.474,7.077c.069.3.132.6.191.909.306,1.506.534,3.034.735,4.54l.222.65c-.227-1.7-.465-3.447-.809-5.159-.068-.328-.137-.65-.211-.972a34.859,34.859,0,0,0-2.474-7.083,39.934,39.934,0,0,0-8.547-11.8,48.821,48.821,0,0,0-15.687-9.868" transform="translate(-59.646 -9.494)" fill="#351e3b"/>
              <path id="Trazado_911630" data-name="Trazado 911630" d="M228.2,24.289c.021.063.048.121.074.185a32.169,32.169,0,0,1,12.553,11.184,52.393,52.393,0,0,1,3.483,7.162c.751,1.765,1.511,3.562,2.415,5.286.021.042.048.09.069.132.074.037.143.079.216.116-.021-.037-.037-.074-.058-.111-.951-1.776-1.744-3.647-2.521-5.476a52.583,52.583,0,0,0-3.488-7.178,32.354,32.354,0,0,0-12.743-11.3" transform="translate(-74.868 -12.256)" fill="#351e3b"/>
              <path id="Trazado_911631" data-name="Trazado 911631" d="M182.99,75.368s7.988-6.146,13.043-1.866c3.278,2.775,4.243,8.267,1.631,11.788a8.4,8.4,0,0,1-6.327,3.184c-2.167.148-5.121-.181-5.783-2.322-1.235-3.991-2.564-10.784-2.564-10.784" transform="translate(-4.63 -36.324)" fill="#ff8b9b"/>
              <path id="Trazado_911632" data-name="Trazado 911632" d="M197.6,74.188c-5.078-.077-7.356,4.653-7.619,9.094a2.806,2.806,0,0,1,2.229,1.4,2.565,2.565,0,0,1-.307,2.493,1.028,1.028,0,0,1-1.038.486" transform="translate(-6.539 -37.434)" fill="none" stroke="#351e3b" stroke-linecap="round" stroke-linejoin="round" stroke-width="0.924"/>
              <path id="Trazado_911633" data-name="Trazado 911633" d="M215.022,61.939a11.733,11.733,0,1,0,11.729-11.448A11.591,11.591,0,0,0,215.022,61.939Z" transform="translate(-59.817 -25.477)" fill="none" stroke="#ffa565" stroke-miterlimit="10" stroke-width="0.99"/>
              <ellipse id="Elipse_11541" data-name="Elipse 11541" cx="10.144" cy="11.313" rx="10.144" ry="11.313" transform="translate(128.328 24.743)" fill="none" stroke="#ffa565" stroke-miterlimit="10" stroke-width="0.916"/>
              <path id="Trazado_911634" data-name="Trazado 911634" d="M268.937,73.973c-.053,0,.028.088.053.042s-.019-.1-.061-.132a5.5,5.5,0,0,0-6.8-.069" transform="translate(-113.672 -36.67)" fill="none" stroke="#ffa565" stroke-miterlimit="10" stroke-width="0.99"/>
              <path id="Trazado_911635" data-name="Trazado 911635" d="M140.32,236h108.3l1.665-6.617,2.041-8.108c0-.005,0-.005,0-.005l9.624-38.219,1.766-7.009s1.665-.449-8.034-8.7c-.09-.079-.185-.159-.28-.238q-1.173-.991-2.421-1.955c-2.981-2.3-6.21-4.477-9.323-6.559s-6.126-4.065-8.668-5.994q-.737-.563-1.411-1.11c-.148-.116-.291-.233-.433-.354a28.653,28.653,0,0,1-2.569-2.4c-3.52,3.4-8.853,4.625-13.842,5.006-7.516.571-15.481-.413-22.009-3.959a19.706,19.706,0,0,1-1.723,1.337c-.635.449-1.338.915-2.119,1.416-.154.1-.312.2-.471.3-3.145,1.993-7.41,4.54-12.849,8.494-2.252,1.638-4.461,3.383-6.575,5.254A60.073,60.073,0,0,0,161.6,176.87a41.624,41.624,0,0,0-3.1,5.185c-3.922,7.706-5.972,16.665-8.6,24.7-.027.079-.053.164-.08.243q-3.044,9.276-6.083,18.557-1.237,3.782-2.479,7.569-.476,1.435-.941,2.87" transform="translate(-48.157 -75.048)" fill="#fff3ea"/>
              <path id="Trazado_911636" data-name="Trazado 911636" d="M156.756,167.6a13.5,13.5,0,0,0,26.48,3.673c-.09-.079-.185-.159-.28-.238-6.421-5.428-14.63-10.111-20.412-14.509a13.459,13.459,0,0,0-5.787,11.073" transform="translate(24.293 -78.983)" fill="#ffa565"/>
              <path id="Trazado_911637" data-name="Trazado 911637" d="M219.653,220.34a13.495,13.495,0,1,0,13.495-13.495,13.495,13.495,0,0,0-13.495,13.495" transform="translate(-70.273 -104.372)" fill="#ffa565"/>
              <path id="Trazado_911638" data-name="Trazado 911638" d="M277.037,169.007a13.493,13.493,0,1,0,22.014-15.465c-.635.449-1.338.915-2.119,1.416-.154.1-.312.2-.471.3-3.145,1.993-7.41,4.54-12.849,8.494-2.252,1.638-4.461,3.383-6.575,5.254" transform="translate(-154.202 -77.476)" fill="#ffa565"/>
              <path id="Trazado_911639" data-name="Trazado 911639" d="M339.684,240.944a12.591,12.591,0,0,0,1.739.116A13.492,13.492,0,0,0,348.368,216c-3.922,7.706-5.973,16.665-8.6,24.7-.026.079-.053.164-.079.243" transform="translate(-238.017 -108.99)" fill="#ffa565"/>
              <path id="Trazado_911640" data-name="Trazado 911640" d="M359.251,314.251H374.3a13.486,13.486,0,0,0-11.628-10.439q-1.237,3.782-2.479,7.569-.476,1.435-.941,2.87" transform="translate(-267.088 -153.3)" fill="#ffa565"/>
              <path id="Trazado_911641" data-name="Trazado 911641" d="M274.5,290.55c.8,4.117,1.855,8.5,3.129,12.891H298.07a13.494,13.494,0,1,0-23.193-13.705c-.137.264-.264.539-.38.814" transform="translate(-151.186 -142.49)" fill="#ffa565"/>
              <path id="Trazado_911642" data-name="Trazado 911642" d="M163.523,295.883a13.442,13.442,0,0,0,2.315,7.558h18.906l3.705-14.725c.005-.005.005-.005,0-.005a13.5,13.5,0,0,0-24.926,7.173" transform="translate(15.724 -142.491)" fill="#ffa565"/>
              <path id="Trazado_911643" data-name="Trazado 911643" d="M144.357,236.2c.661,1.908,2.706,2.992,4.694,3.361a12.032,12.032,0,0,0,5.587-.327l2.04-8.108c.005-.005.005-.005,0-.005L166.3,192.9a63.906,63.906,0,0,0-4.2-10.613A40.5,40.5,0,0,0,157.332,175c-2.981-2.3-6.217-4.661-9.33-6.744a29.732,29.732,0,0,0,4.637,14.249,43.3,43.3,0,0,0-1.776,7.621c-2.653,14.218-5.312,28.462-6.67,42.859a7.635,7.635,0,0,0,.164,3.214" transform="translate(47.495 -84.9)" fill="#351e3b"/>
              <g id="Grupo_1101403" data-name="Grupo 1101403" transform="translate(111.894 115.877)" opacity="0.32" style="mix-blend-mode: multiply;isolation: isolate">
                <g id="Grupo_1101402" data-name="Grupo 1101402">
                  <g id="Grupo_1101401" data-name="Grupo 1101401" clip-path="url(#clip-path-13)">
                    <path id="Trazado_911644" data-name="Trazado 911644" d="M319.883,278.973H334.7c-2.368-8.166-4.609-18.52-4.82-26.417a65.91,65.91,0,0,1,1.929-18.055l-.084-.6-.491,1.877Z" transform="translate(-319.883 -233.9)" fill="#ffcabd"/>
                  </g>
                </g>
              </g>
              <path id="Trazado_911645" data-name="Trazado 911645" d="M319.667,244.755a85.9,85.9,0,0,0,1.684,13.52c.763,3.948,1.769,8.14,2.972,12.351h.55c-1.293-4.5-2.358-8.987-3.146-13.168A83.327,83.327,0,0,1,320.2,244.74a65.641,65.641,0,0,1,1.917-17.983,55.016,55.016,0,0,1,2.715-7.966.265.265,0,0,0-.485-.213,55.549,55.549,0,0,0-2.735,8.05c-.109.446-.223.887-.322,1.338a66.245,66.245,0,0,0-1.62,16.789" transform="translate(-198.039 -110.213)" fill="#ffa565"/>
              <path id="Trazado_911646" data-name="Trazado 911646" d="M150.166,162.664s5.894,50.651-2.564,62.166c-7.22,9.829-22.873,9.289-31.487-1.259-7.42-9.085,3.958-41.384,3.958-41.384l5.218-23.031s-4.543-5.4-5.083-12.01,1.282-21.727,3.779-21.389c2.455.331,4.453,7.49,4.453,7.49s3.1-7.557,5.938-6.478,1.754,5.667,1.754,5.667,4.048-2.429,4.588,1.755c0,0,4.048-2.429,5.128,1.079,0,0,4.858-2.429,5.8,3.374s.675,9.716-1.484,24.02" transform="translate(76.741 -63.452)" fill="#ff8b9b"/>
              <path id="Trazado_911647" data-name="Trazado 911647" d="M145.3,163.654a25.471,25.471,0,0,1,9.273,9.571" transform="translate(58.628 -82.578)" fill="none" stroke="#492a51" stroke-linecap="round" stroke-linejoin="round" stroke-width="1.023"/>
              <path id="Trazado_911648" data-name="Trazado 911648" d="M149.1,124.165l.005.021.043.263,1.181,6.711a.465.465,0,0,0,.818.264c1.172-1.388,3.6-4.317,4.384-5.581a.226.226,0,0,1,.023-.038,1.457,1.457,0,0,0,.1-.2,1.174,1.174,0,0,0,.069-.16,43.165,43.165,0,0,0,1.406-6.092c.625-3.127,1.2-6.262,1.761-9.4q.832-4.64,1.605-9.294c.277-1.681.664-3.344.821-5.044.008-.09.016-.175.019-.265.012-.106.019-.217.027-.323.1-1.6.132-4.147-1.091-5.307a1.389,1.389,0,0,0-.613-.342,1.564,1.564,0,0,0-1.044.116c-1.563.719-2.3,2.732-2.82,4.45-.027.085-.05.165-.076.25-.036.122-.072.239-.108.356-.4,1.314-2.25,9.767-3.877,17.307-.035.175-.074.34-.109.515v.005c-.555,2.564-1.079,5-1.5,6.982-.017.1-.039.191-.061.281-.576,2.718-.961,4.518-.961,4.518" transform="translate(49.91 -45.08)" fill="#351e3b"/>
              <path id="Trazado_911649" data-name="Trazado 911649" d="M149.246,98.9a8.374,8.374,0,0,0,4.856,1.472,7.075,7.075,0,0,0,.744-.052c.008-.09.016-.175.019-.265a8.107,8.107,0,0,1-5.542-1.406c-.027.085-.05.165-.076.25" transform="translate(56.385 -49.775)" fill="#492a51"/>
              <path id="Trazado_911650" data-name="Trazado 911650" d="M160.712,159.677l.044.264a29.136,29.136,0,0,1,6.382,1.394.22.22,0,0,1,.024-.037,1.545,1.545,0,0,0,.1-.2,29.41,29.41,0,0,0-6.551-1.423" transform="translate(38.306 -80.571)" fill="#492a51"/>
              <path id="Trazado_911651" data-name="Trazado 911651" d="M164.706,142.283a1.106,1.106,0,0,0,.55.259,1.073,1.073,0,0,0,.187.012,1.611,1.611,0,0,0,1.126-.562,4.146,4.146,0,0,0,.739-1.289,14.511,14.511,0,0,0,.987-4.128,3.682,3.682,0,0,0-.075-1.373,1.353,1.353,0,0,0-.913-.981,1.088,1.088,0,0,0-.926.277c-.035.175-.075.34-.109.515a1.3,1.3,0,0,1,.154-.2.914.914,0,0,1,.839-.328,1.1,1.1,0,0,1,.728.8,3.333,3.333,0,0,1,.063,1.267,14.29,14.29,0,0,1-.965,4.043,3.907,3.907,0,0,1-.688,1.214,1.325,1.325,0,0,1-1.118.477.886.886,0,0,1-.517-.28c-.017.1-.039.191-.061.281" transform="translate(35.268 -67.717)" fill="#492a51"/>
              <path id="Trazado_911652" data-name="Trazado 911652" d="M152.143,127.538s2.9.4,1.754,5.668-3.644,11-6.545,10.526-2.092-6.613-1.417-9.244,3.542-7.624,6.207-6.95" transform="translate(59.043 -64.323)" fill="#ff8b9b"/>
              <path id="Trazado_911653" data-name="Trazado 911653" d="M128.129,151.863a9.729,9.729,0,0,1-3.435,4.846,3.1,3.1,0,0,1-2.716.359,2.531,2.531,0,0,1-1.431-2.811,14.8,14.8,0,0,1,2.3-5.92,30.115,30.115,0,0,1,2.282-3.438" transform="translate(97.345 -73.115)" fill="none" stroke="#492a51" stroke-linecap="round" stroke-linejoin="round" stroke-width="1.067"/>
              <path id="Trazado_911654" data-name="Trazado 911654" d="M140.722,154.586a2.688,2.688,0,0,1-3.2.606,3.362,3.362,0,0,1-1.638-2.6,7.288,7.288,0,0,1,.454-3.142,18.166,18.166,0,0,1,3.718-6.408" transform="translate(77.166 -72.175)" fill="none" stroke="#492a51" stroke-linecap="round" stroke-linejoin="round" stroke-width="1.067"/>
              <path id="Trazado_911655" data-name="Trazado 911655" d="M149.437,151.943a2.628,2.628,0,0,1-2.107.353,2.852,2.852,0,0,1-1.722-1.369,5.812,5.812,0,0,1-.328-3.741A16.173,16.173,0,0,1,149,139.109" transform="translate(63.852 -70.193)" fill="none" stroke="#492a51" stroke-linecap="round" stroke-linejoin="round" stroke-width="1.023"/>
              <path id="Trazado_911656" data-name="Trazado 911656" d="M157.265,157.582a3.789,3.789,0,0,1-3.487,1.059" transform="translate(51.74 -79.514)" fill="none" stroke="#492a51" stroke-linecap="round" stroke-linejoin="round" stroke-width="1.023"/>
            </g>
          </g>
          <g id="Grupo_1101419" data-name="Grupo 1101419" transform="translate(37.398 102.95)">
            <g id="Grupo_1101422" data-name="Grupo 1101422">
              <g id="Grupo_1101408" data-name="Grupo 1101408" transform="translate(190.046 71.595)" opacity="0.44" style="mix-blend-mode: multiply;isolation: isolate">
                <g id="Grupo_1101407" data-name="Grupo 1101407" transform="translate(0)">
                  <g id="Grupo_1101406" data-name="Grupo 1101406" clip-path="url(#clip-path-14)">
                    <path id="Trazado_911657" data-name="Trazado 911657" d="M35.911,355.654c0,1.839,8.944,3.33,19.976,3.33s19.976-1.491,19.976-3.33-8.944-3.33-19.976-3.33-19.976,1.491-19.976,3.33" transform="translate(-35.911 -352.324)" fill="#aa6ee7"/>
                  </g>
                </g>
              </g>
              <path id="Trazado_911658" data-name="Trazado 911658" d="M83.382,306.89c.794,7.539,2.884,12.043,6.4,13.81a14.228,14.228,0,0,0,4.778,1.33c1.19.145,2.4.2,3.582.252l.184.011.073-1.676-.185-.005c-1.313-.062-2.654-.123-3.951-.313a12.133,12.133,0,0,1-3.728-1.1c-2.922-1.47-4.767-5.656-5.482-12.452-.2-1.906-.5-4.728,1.2-5.583,1.526-.765,4,.492,4.711.894.005,0,.005.005.011.005a18.564,18.564,0,0,1,4.32,3.644l1.23-1.134a19.865,19.865,0,0,0-4.74-3.979c-.279-.157-.614-.33-.983-.5-1.5-.682-3.594-1.286-5.3-.431-2.744,1.369-2.359,5.03-2.124,7.221" transform="translate(108.164 -253.948)" fill="#7581ff"/>
              <path id="Trazado_911659" data-name="Trazado 911659" d="M87.17,342.049c-1.313-.061-2.655-.123-3.951-.313.1.576.2,1.157.3,1.732,1.19.146,2.4.2,3.582.252l.185.011.072-1.677Z" transform="translate(119.208 -275.387)" fill="#492a51"/>
              <path id="Trazado_911660" data-name="Trazado 911660" d="M87.194,302.934a18.533,18.533,0,0,1,4.32,3.644l1.23-1.134A19.852,19.852,0,0,0,88,301.464c-.279-.157-.615-.329-.984-.5a6.241,6.241,0,0,0,.173,1.967" transform="translate(111.947 -254.815)" fill="#492a51"/>
              <path id="Trazado_911661" data-name="Trazado 911661" d="M21.7,289.156l2.174,10.088,5.337,24.724H52.7l6.572-34.812Z" transform="translate(177.761 -248.855)" fill="#7581ff"/>
              <path id="Trazado_911662" data-name="Trazado 911662" d="M23.565,289.156c1.923.983,6.751,2.805,16.135,2.805,11.149,0,17.543-2.213,19.057-2.805Z" transform="translate(177.359 -248.855)" fill="#492a51"/>
              <g id="Grupo_1101411" data-name="Grupo 1101411" transform="translate(201.639 50.388)" opacity="0.37" style="mix-blend-mode: multiply;isolation: isolate">
                <g id="Grupo_1101410" data-name="Grupo 1101410" transform="translate(0)">
                  <g id="Grupo_1101409" data-name="Grupo 1101409" clip-path="url(#clip-path-15)">
                    <path id="Trazado_911663" data-name="Trazado 911663" d="M37.192,309.518l5.337,24.724H64.918c-3.013-2.258-5.941-4.628-8.842-7.025a157.788,157.788,0,0,1-18.884-17.7" transform="translate(-37.192 -309.518)" fill="#7581ff"/>
                  </g>
                </g>
              </g>
              <path id="Trazado_911664" data-name="Trazado 911664" d="M52.089,241.005a7.618,7.618,0,0,0-4.048,5.635,9.3,9.3,0,0,0,.217,3.629,26.922,26.922,0,0,0,1.131,3.26,15.137,15.137,0,0,1,1.606,6.043,10.461,10.461,0,0,1-1.942,5.9l0,0a.281.281,0,0,0,.413.376,9.389,9.389,0,0,0,3.1-6.191,10.08,10.08,0,0,0-.311-3.583,28.744,28.744,0,0,0-1.14-3.247c-.851-2.043-1.64-4.017-1.506-6a7.825,7.825,0,0,1,2.785-5.349l0,0a.281.281,0,0,0-.3-.468" transform="translate(171.425 -224.545)" fill="#fff3ea"/>
              <path id="Trazado_911665" data-name="Trazado 911665" d="M61.73,273.23a5.857,5.857,0,0,0,3.009-3.8,5.981,5.981,0,0,0,.108-2.555,9.985,9.985,0,0,0-.771-2.344,26.172,26.172,0,0,1-1.8-4.066,9.715,9.715,0,0,1-.12-4.314v0a.281.281,0,0,0-.53-.174,7.939,7.939,0,0,0-.616,4.764,10.147,10.147,0,0,0,.732,2.332c.324.725.674,1.408.979,2.08a6.52,6.52,0,0,1,.769,4.009,6.059,6.059,0,0,1-2.06,3.6l0,0a.281.281,0,0,0,.3.468" transform="translate(152.69 -232.031)" fill="#fff3ea"/>
              <path id="Trazado_911666" data-name="Trazado 911666" d="M420.37,346.6l18.359-10.963h-87.7L331.319,346.6Z" transform="translate(-355.078 -272.31)" fill="#351e3b"/>
              <path id="Trazado_911667" data-name="Trazado 911667" d="M368.379,237.286l13.639,59.524h89.05L456.79,236.964c-.218.213-71.7.3-85.954.317-1.58,0-2.457,0-2.457,0" transform="translate(-405.776 -222.52)" fill="#492a51"/>
              <g id="Grupo_1101414" data-name="Grupo 1101414" transform="translate(-37.398 14.761)" opacity="0.43">
                <g id="Grupo_1101413" data-name="Grupo 1101413">
                  <g id="Grupo_1101412" data-name="Grupo 1101412" clip-path="url(#clip-path-16)">
                    <path id="Trazado_911668" data-name="Trazado 911668" d="M369.669,237.609l13.639,59.524h88.411Q422.272,266.8,372.126,237.6c-1.58,0-2.457,0-2.457,0" transform="translate(-369.669 -237.604)" fill="#351e3b"/>
                  </g>
                </g>
              </g>
              <path id="Trazado_911669" data-name="Trazado 911669" d="M459.784,289.35a9.9,9.9,0,1,0,9.9-9.9,9.9,9.9,0,0,0-9.9,9.9" transform="translate(-459.568 -243.96)" fill="#fff3ea"/>
              <rect id="Rectángulo_403169" data-name="Rectángulo 403169" width="5.061" height="1.349" transform="translate(42.612 72.142)" fill="#fff3ea"/>
              <rect id="Rectángulo_403170" data-name="Rectángulo 403170" width="5.061" height="1.349" transform="translate(35.729 72.142)" fill="#351e3b"/>
              <path id="Trazado_911670" data-name="Trazado 911670" d="M262.055,347.672c.126.314-.583.208-.492-.117s.513-.4.85-.408c5.637-.169,12.094.155,15.658,4.526a9.655,9.655,0,0,1,1.619,9.058,6.882,6.882,0,0,1-4.8,4.67c-2.29.467-4.966-1.036-5.275-3.353a2.416,2.416,0,0,1,.223-1.483c.91-1.652,3.83-.585,4.1,1.282s-1.193,3.56-2.808,4.534c-3.885,2.341-8.815,2.075-13.214.969-6.023-1.515-11.641-4.439-17.721-5.707a33.774,33.774,0,0,0-14.619.2c-4.531,1.073-8.78,3.07-13.174,4.609a67.676,67.676,0,0,1-16.194,3.518c-5.48.5-11.168.3-16.239-1.84-3.787-1.6-7.056-4.2-10.656-6.18s-7.852-3.365-11.8-2.227c-3.054.88-5.6,3.18-8.73,3.751a8.48,8.48,0,0,1-8.129-3.185c-1.837-2.453-2.446-6.631-1.071-9.369" transform="translate(-101.172 -278.1)" fill="none" stroke="#351e3b" stroke-linecap="round" stroke-linejoin="round" stroke-width="1"/>
              <path id="Trazado_911671" data-name="Trazado 911671" d="M244.553,349.061l-19.9-14.785H170.624l-19.135,15.178,93.084.158" transform="translate(-71.833 -271.622)" fill="#351e3b"/>
              <path id="Trazado_911672" data-name="Trazado 911672" d="M258.952,349.445,248.52,336.507H203.166L187.093,349.4h71.823" transform="translate(-103.849 -272.748)" fill="#492a51"/>
              <path id="Trazado_911673" data-name="Trazado 911673" d="M160.465,335.7l2.393,2.537.466.5,2.536,2.69.471.5,2.65,2.814.471.5,3.661,3.884H182.6l-4.637-3.884-.594-.5-3.359-2.814-.59-.5-3.215-2.69-.59-.5-2.953-2.472s-6.138-.124-6.2-.064" transform="translate(-14.306 -272.334)" fill="#492a51"/>
              <path id="Trazado_911674" data-name="Trazado 911674" d="M169.825,353.948l.471.5h8.511l-.594-.5Z" transform="translate(-15.15 -281.549)" fill="#351e3b"/>
              <path id="Trazado_911675" data-name="Trazado 911675" d="M177.8,347.268l.471.5h7.679l-.59-.5Z" transform="translate(-26.251 -278.178)" fill="#351e3b"/>
              <path id="Trazado_911676" data-name="Trazado 911676" d="M185.485,340.838l.466.5h6.881l-.59-.5Z" transform="translate(-36.933 -274.933)" fill="#351e3b"/>
              <rect id="Rectángulo_403171" data-name="Rectángulo 403171" width="93.085" height="1.518" transform="translate(79.656 77.811)" fill="#351e3b"/>
              <g id="Grupo_1101417" data-name="Grupo 1101417" transform="translate(137.451 88.12)" opacity="0.44" style="mix-blend-mode: multiply;isolation: isolate">
                <g id="Grupo_1101416" data-name="Grupo 1101416" transform="translate(0)">
                  <g id="Grupo_1101415" data-name="Grupo 1101415" clip-path="url(#clip-path-17)">
                    <path id="Trazado_911677" data-name="Trazado 911677" d="M89.617,387.873c0,1.211,14.762,2.193,32.971,2.193s32.971-.982,32.971-2.193-14.762-2.193-32.971-2.193-32.971.982-32.971,2.193" transform="translate(-89.617 -385.68)" fill="#aa6ee7"/>
                  </g>
                </g>
              </g>
              <path id="Trazado_911678" data-name="Trazado 911678" d="M88.081,378.647l9.581,3.943.094.04h54.391v-7.59H97.757Z" transform="translate(52.006 -292.192)" fill="#ffb18a"/>
              <rect id="Rectángulo_403173" data-name="Rectángulo 403173" width="53.061" height="0.248" transform="translate(150.647 84.37)" fill="#492a51"/>
              <rect id="Rectángulo_403174" data-name="Rectángulo 403174" width="53.061" height="0.248" transform="translate(150.647 88.354)" fill="#492a51"/>
              <path id="Trazado_911679" data-name="Trazado 911679" d="M88.081,378.865a5.477,5.477,0,0,0,1.635,3.765H90.93v-7.59h-1a5.1,5.1,0,0,0-1.853,3.825" transform="translate(113.224 -292.191)" fill="#fff3ea"/>
              <path id="Trazado_911680" data-name="Trazado 911680" d="M88.081,379.823a4.535,4.535,0,0,0,1.194,2.972V376.95a4.214,4.214,0,0,0-1.194,2.873" transform="translate(114.879 -293.155)" fill="#492a51"/>
              <path id="Trazado_911681" data-name="Trazado 911681" d="M192.511,378.647l4.805,1.977,4.776,1.967,2.655-1.888-1.59-2.373,1.684-1.684-2.655-1.605-5.3,1.977Z" transform="translate(-52.424 -292.192)" fill="#fff3ea"/>
              <path id="Trazado_911682" data-name="Trazado 911682" d="M207.368,380.66l4.805,1.977a5.842,5.842,0,0,0,.144-1.878,3.616,3.616,0,0,0-.575-1.729Z" transform="translate(-67.28 -294.205)" fill="#492a51"/>
              <path id="Trazado_911683" data-name="Trazado 911683" d="M100.97,382.047h6.894a.885.885,0,0,0,0-1.771H100.97a.885.885,0,0,0,0,1.771" transform="translate(89.457 -294.833)" fill="#fff3ea"/>
            </g>
          </g>
        </g>
      </g>
    </g>
    <g id="Grupo_1101444" data-name="Grupo 1101444" transform="translate(1327.523 440.029)">
      <g id="Grupo_1101443" data-name="Grupo 1101443" clip-path="url(#clip-path-18)">
        <path id="Trazado_911688" data-name="Trazado 911688" d="M3.036,56.941a17.46,17.46,0,0,1,9.4-18.242c5.491-2.621,11.887-2.115,17.908-3,7.174-1.053,14.239-4.364,18.639-10.128S54.6,11.413,50.931,5.161" fill="none" stroke="#492a51" stroke-miterlimit="10" stroke-width="0.668"/>
        <rect id="Rectángulo_403191" data-name="Rectángulo 403191" width="5.459" height="5.459" transform="matrix(0.901, -0.434, 0.434, 0.901, 46.457, 2.371)" fill="#492a51"/>
        <rect id="Rectángulo_403192" data-name="Rectángulo 403192" width="5.459" height="5.459" transform="translate(31.357 32.392) rotate(-16.44)" fill="#492a51"/>
        <rect id="Rectángulo_403193" data-name="Rectángulo 403193" width="5.459" height="5.459" transform="matrix(0.987, -0.16, 0.16, 0.987, 0, 55.863)" fill="#492a51"/>
        <path id="Trazado_911689" data-name="Trazado 911689" d="M14.56,31.906s10.122,6.141,20.585,2.275S47.428,21.556,47.428,21.556" fill="none" stroke="#492a51" stroke-miterlimit="10" stroke-width="0.668"/>
        <path id="Trazado_911690" data-name="Trazado 911690" d="M16.835,31.736a2.218,2.218,0,1,1-2.218-2.218,2.218,2.218,0,0,1,2.218,2.218" fill="#492a51"/>
        <path id="Trazado_911691" data-name="Trazado 911691" d="M49.021,21.386A2.218,2.218,0,1,1,46.8,19.168a2.218,2.218,0,0,1,2.218,2.218" fill="#492a51"/>
      </g>
    </g>
    <g id="Grupo_1101445" data-name="Grupo 1101445" transform="translate(1040.102 483.282)">
      <rect id="Rectángulo_403195" data-name="Rectángulo 403195" width="26.994" height="2.999" transform="matrix(0.597, -0.802, 0.802, 0.597, -0.003, 29.287)" fill="#7e4c03"/>
      <path id="Trazado_911692" data-name="Trazado 911692" d="M19.578,1.974l-2.522-.1L18.33,4.05l-.1,2.522L20.405,5.3l2.522.1-1.273-2.18L21.757.7Z" transform="translate(-5.498 -0.226)" fill="#7e4c03"/>
      <path id="Trazado_911693" data-name="Trazado 911693" d="M33.811,0,32.179.954,30.289.876l.954,1.633L31.165,4.4,32.8,3.443l1.889.078-.954-1.633Z" transform="translate(-9.763)" fill="#7e4c03"/>
      <path id="Trazado_911694" data-name="Trazado 911694" d="M31.477,11.332l.719,1.23L30.772,12.5l-1.23.718L29.6,11.8l-.719-1.23,1.423.058,1.23-.718Z" transform="translate(-9.309 -3.194)" fill="#7e4c03"/>
    </g>
    <g id="Grupo_1101447" data-name="Grupo 1101447" transform="translate(1040.099 390.264)">
      <g id="Grupo_1101446" data-name="Grupo 1101446" clip-path="url(#clip-path-19)">
        <path id="Trazado_911695" data-name="Trazado 911695" d="M40.284,40.028h-.992a.124.124,0,0,1,0-.248h.868v-.868a.124.124,0,1,1,.248,0V39.9a.123.123,0,0,1-.124.124" fill="#492a51"/>
        <path id="Trazado_911696" data-name="Trazado 911696" d="M37.386,40.028H35.481a.124.124,0,1,1,0-.248h1.905a.124.124,0,0,1,0,.248m-3.809,0h-1.9a.124.124,0,0,1,0-.248h1.9a.124.124,0,1,1,0,.248m-3.809,0h-1.9a.124.124,0,0,1,0-.248h1.9a.124.124,0,1,1,0,.248m-3.81,0h-1.9a.124.124,0,0,1,0-.248h1.9a.124.124,0,1,1,0,.248m-3.809,0h-1.9a.124.124,0,0,1,0-.248h1.9a.124.124,0,1,1,0,.248m-3.809,0H16.435a.124.124,0,0,1,0-.248H18.34a.124.124,0,1,1,0,.248m-3.809,0h-1.9a.124.124,0,1,1,0-.248h1.9a.124.124,0,0,1,0,.248m-3.81,0h-1.9a.124.124,0,1,1,0-.248h1.9a.124.124,0,1,1,0,.248m-3.809,0H5.007a.124.124,0,0,1,0-.248H6.912a.124.124,0,0,1,0,.248" fill="#492a51"/>
        <path id="Trazado_911697" data-name="Trazado 911697" d="M3.1,40.028H2.112a.123.123,0,0,1-.124-.124v-.992a.124.124,0,1,1,.248,0v.868H3.1a.124.124,0,0,1,0,.248" fill="#492a51"/>
        <path id="Trazado_911698" data-name="Trazado 911698" d="M2.111,37.131a.124.124,0,0,1-.124-.124V35.1a.124.124,0,1,1,.248,0v1.9a.123.123,0,0,1-.124.124m0-3.809a.125.125,0,0,1-.124-.124V31.293a.124.124,0,0,1,.248,0V33.2a.124.124,0,0,1-.124.124m0-3.809a.125.125,0,0,1-.124-.124V27.484a.124.124,0,0,1,.248,0v1.905a.124.124,0,0,1-.124.124m0-3.81a.124.124,0,0,1-.124-.124v-1.9a.124.124,0,0,1,.248,0v1.9a.123.123,0,0,1-.124.124m0-3.809a.124.124,0,0,1-.124-.124v-1.9a.124.124,0,0,1,.248,0v1.9a.123.123,0,0,1-.124.124m0-3.809a.125.125,0,0,1-.124-.124V16.056a.124.124,0,0,1,.248,0v1.905a.124.124,0,0,1-.124.124m0-3.809a.125.125,0,0,1-.124-.124V12.247a.124.124,0,0,1,.248,0v1.905a.124.124,0,0,1-.124.124m0-3.81a.124.124,0,0,1-.124-.124v-1.9a.124.124,0,0,1,.248,0v1.9a.123.123,0,0,1-.124.124m0-3.809a.125.125,0,0,1-.124-.124V4.628a.124.124,0,0,1,.248,0V6.533a.124.124,0,0,1-.124.124" fill="#492a51"/>
        <path id="Trazado_911699" data-name="Trazado 911699" d="M2.111,2.848a.125.125,0,0,1-.124-.124V1.732a.124.124,0,0,1,.124-.124H3.1a.124.124,0,1,1,0,.248H2.235v.868a.124.124,0,0,1-.124.124" fill="#492a51"/>
        <path id="Trazado_911700" data-name="Trazado 911700" d="M37.387,1.855H35.482a.124.124,0,0,1,0-.248h1.905a.124.124,0,1,1,0,.248m-3.809,0h-1.9a.124.124,0,1,1,0-.248h1.9a.124.124,0,1,1,0,.248m-3.81,0h-1.9a.124.124,0,1,1,0-.248h1.9a.124.124,0,1,1,0,.248m-3.809,0h-1.9a.124.124,0,0,1,0-.248h1.9a.124.124,0,1,1,0,.248m-3.809,0h-1.9a.124.124,0,1,1,0-.248h1.9a.124.124,0,1,1,0,.248m-3.809,0h-1.9a.124.124,0,1,1,0-.248h1.9a.124.124,0,1,1,0,.248m-3.81,0h-1.9a.124.124,0,0,1,0-.248h1.9a.124.124,0,1,1,0,.248m-3.809,0h-1.9a.124.124,0,0,1,0-.248h1.9a.124.124,0,0,1,0,.248m-3.809,0H5.008a.124.124,0,1,1,0-.248H6.913a.124.124,0,1,1,0,.248" fill="#492a51"/>
        <path id="Trazado_911701" data-name="Trazado 911701" d="M40.284,2.848a.124.124,0,0,1-.124-.124V1.856h-.868a.124.124,0,1,1,0-.248h.992a.123.123,0,0,1,.124.124v.992a.124.124,0,0,1-.124.124" fill="#492a51"/>
        <path id="Trazado_911702" data-name="Trazado 911702" d="M40.284,37.131a.124.124,0,0,1-.124-.124V35.1a.124.124,0,1,1,.248,0v1.9a.124.124,0,0,1-.124.124m0-3.809a.124.124,0,0,1-.124-.124V31.293a.124.124,0,0,1,.248,0V33.2a.124.124,0,0,1-.124.124m0-3.81a.123.123,0,0,1-.124-.124v-1.9a.124.124,0,0,1,.248,0v1.9a.123.123,0,0,1-.124.124m0-3.809a.123.123,0,0,1-.124-.124v-1.9a.124.124,0,1,1,.248,0v1.9a.123.123,0,0,1-.124.124m0-3.809a.124.124,0,0,1-.124-.124V19.865a.124.124,0,1,1,.248,0V21.77a.124.124,0,0,1-.124.124m0-3.809a.124.124,0,0,1-.124-.124V16.056a.124.124,0,0,1,.248,0v1.905a.124.124,0,0,1-.124.124m0-3.81a.123.123,0,0,1-.124-.124v-1.9a.124.124,0,1,1,.248,0v1.9a.123.123,0,0,1-.124.124m0-3.809a.123.123,0,0,1-.124-.124v-1.9a.124.124,0,1,1,.248,0v1.9a.123.123,0,0,1-.124.124m0-3.809a.123.123,0,0,1-.124-.124V4.628a.124.124,0,0,1,.248,0V6.533a.123.123,0,0,1-.124.124" fill="#492a51"/>
        <rect id="Rectángulo_403196" data-name="Rectángulo 403196" width="4.054" height="4.054" transform="translate(0 0)" fill="#492a51"/>
        <rect id="Rectángulo_403197" data-name="Rectángulo 403197" width="4.054" height="4.054" transform="translate(37.877 0)" fill="#492a51"/>
        <rect id="Rectángulo_403198" data-name="Rectángulo 403198" width="4.054" height="4.054" transform="translate(37.877 37.497)" fill="#492a51"/>
        <rect id="Rectángulo_403199" data-name="Rectángulo 403199" width="4.054" height="4.054" transform="translate(0.126 37.497)" fill="#492a51"/>
        <path id="Trazado_911703" data-name="Trazado 911703" d="M32.2,18.519H31.54C29.657,12.834,28.576,10.5,25.4,10.5h-.418V33.446h2.964v.732H15.219v-.732h2.964V10.5H17.73c-3.174,0-4.36,2.615-6.139,8.021h-.662l.349-8.754H31.854Z" fill="#492a51"/>
      </g>
    </g>
    <g id="Grupo_1101449" data-name="Grupo 1101449" transform="translate(1119.509 431.815)">
      <g id="Grupo_1101448" data-name="Grupo 1101448" transform="translate(0 0)" clip-path="url(#clip-path-20)">
        <path id="Trazado_911704" data-name="Trazado 911704" d="M27.674,43.479c-1.77,1.365-4.249,3.445-6.452,5.334L8,41.173C9.711,36.036,9.636,33.4,9.636,33.4,21.674,25.983,31.665,18.41,31.665,18.41c-1.816,7.5-3.991,25.069-3.991,25.069" transform="translate(-1.799 -4.137)" fill="#fff3ea"/>
        <path id="Trazado_911705" data-name="Trazado 911705" d="M7.437,46.773s-3.06,6.789,3.169,10.62,10.659-2.115,10.659-2.115Z" transform="translate(-1.502 -10.511)" fill="#492a51"/>
        <line id="Línea_607" data-name="Línea 607" x1="11.352" y2="16.793" transform="translate(18.463 14.529)" fill="none" stroke="#492a51" stroke-linecap="round" stroke-linejoin="round" stroke-width="0.414"/>
        <path id="Trazado_911706" data-name="Trazado 911706" d="M23.68,42.464a1.585,1.585,0,1,1-.611-2.157A1.585,1.585,0,0,1,23.68,42.464Z" transform="translate(-4.654 -9.012)" fill="none" stroke="#492a51" stroke-linecap="round" stroke-linejoin="round" stroke-width="0.414"/>
        <path id="Trazado_911707" data-name="Trazado 911707" d="M3.037,15.043S16.18,1.6,33.264,11.141s9.425,29.305,9.425,29.305" transform="translate(-0.682 -1.735)" fill="none" stroke="#492a51" stroke-miterlimit="10" stroke-width="0.668"/>
        <rect id="Rectángulo_403201" data-name="Rectángulo 403201" width="3.061" height="3.061" transform="matrix(0.488, -0.873, 0.873, 0.488, 0, 14.498)" fill="#492a51"/>
        <rect id="Rectángulo_403202" data-name="Rectángulo 403202" width="3.17" height="3.17" transform="matrix(0.488, -0.873, 0.873, 0.488, 40.155, 37.991)" fill="#492a51"/>
        <rect id="Rectángulo_403203" data-name="Rectángulo 403203" width="4.372" height="4.372" transform="translate(30.482 10.364) rotate(-60.817)" fill="#492a51"/>
        <path id="Trazado_911708" data-name="Trazado 911708" d="M25.814,1.544l13.815,8.781,13.28,6.04" transform="translate(-5.801 -0.347)" fill="none" stroke="#492a51" stroke-miterlimit="10" stroke-width="0.668"/>
        <path id="Trazado_911709" data-name="Trazado 911709" d="M61.417,20.825a1.107,1.107,0,1,1-.426-1.506,1.107,1.107,0,0,1,.426,1.506" transform="translate(-13.336 -4.309)" fill="#492a51"/>
        <path id="Trazado_911710" data-name="Trazado 911710" d="M26.5,1.647A1.107,1.107,0,1,1,26.078.141,1.107,1.107,0,0,1,26.5,1.647" transform="translate(-5.49 0)" fill="#492a51"/>
      </g>
    </g>
    <path id="Rectángulo_403128" data-name="Rectángulo 403128" d="M0,0H381a19,19,0,0,1,19,19V190a19,19,0,0,1-19,19H0a0,0,0,0,1,0,0V0A0,0,0,0,1,0,0Z" transform="translate(1020.026 373)" fill="none"/>
  </g>
</svg>
