<svg xmlns="http://www.w3.org/2000/svg" xmlns:xlink="http://www.w3.org/1999/xlink" width="68" height="68" viewBox="0 0 68 68">
  <defs>
    <clipPath id="clip-path">
      <rect id="Rectángulo_403074" data-name="Rectángulo 403074" width="38.519" height="38.519" fill="none"/>
    </clipPath>
  </defs>
  <g id="Grupo_1101263" data-name="Grupo 1101263" transform="translate(-451.053 -2280)">
    <circle id="Elipse_11536" data-name="Elipse 11536" cx="34" cy="34" r="34" transform="translate(451.053 2280)" fill="#3c3c3c"/>
    <g id="Grupo_1101289" data-name="Grupo 1101289" transform="translate(466.053 2295)">
      <g id="Grupo_1101289-2" data-name="Grupo 1101289" clip-path="url(#clip-path)">
        <path id="Trazado_911385" data-name="Trazado 911385" d="M30.7,3.777a1.535,1.535,0,0,0-.12-.1,1.5,1.5,0,0,0-.127-.082,19.221,19.221,0,0,0-22.388,0,1.494,1.494,0,0,0-.126.082,1.465,1.465,0,0,0-.12.1,19.259,19.259,0,1,0,22.881,0M35.629,19.26a16.354,16.354,0,0,1-.418,3.663l-5.757-1.87a10.31,10.31,0,0,0-3-9.23l3.556-4.895A16.332,16.332,0,0,1,35.629,19.26m-23.831,0a7.431,7.431,0,0,1,1.993-5.069l3.131,4.31-5.07,1.647a7.463,7.463,0,0,1-.055-.888m4.329-6.77a7.439,7.439,0,0,1,6.266,0L19.259,16.8Zm1.688,8.759v5.332A7.486,7.486,0,0,1,12.746,22.9Zm2.89,0L25.772,22.9A7.485,7.485,0,0,1,20.7,26.581ZM21.6,18.5l3.131-4.31a7.432,7.432,0,0,1,1.993,5.069,7.547,7.547,0,0,1-.055.888ZM27.671,5.224l-3.558,4.9a10.326,10.326,0,0,0-9.709,0l-3.558-4.9a16.334,16.334,0,0,1,16.824,0M8.513,6.928l3.556,4.895a10.31,10.31,0,0,0-3,9.23l-5.757,1.87a16.316,16.316,0,0,1,5.2-16M4.2,25.673,9.959,23.8a10.378,10.378,0,0,0,7.856,5.708v6.053A16.4,16.4,0,0,1,4.2,25.673m16.5,9.889V29.509A10.377,10.377,0,0,0,28.56,23.8l5.759,1.871A16.4,16.4,0,0,1,20.7,35.562" transform="translate(0 -0.001)" fill="#b6b5b6"/>
      </g>
    </g>
  </g>
</svg>
