<svg xmlns="http://www.w3.org/2000/svg" width="85" height="85" viewBox="0 0 85 85">
  <g id="Grupo_1100878" data-name="Grupo 1100878" transform="translate(-285 -724)">
    <rect id="Rectángulo_402860" data-name="Rectángulo 402860" width="85" height="85" rx="10" transform="translate(285 724)" fill="#9a9ef7"/>
    <g id="Icon" transform="translate(296 735)">
      <path id="Trazado_911230" data-name="Trazado 911230" d="M40.274,46.028l2.7-10.785a1,1,0,0,0-.122-.772l-10-16a1.039,1.039,0,0,0-1.7,0l-10,16a1,1,0,0,0-.122.772l2.7,10.785A2.992,2.992,0,0,0,24,52v7a1,1,0,0,0,1,1H39a1,1,0,0,0,1-1V52a2.992,2.992,0,0,0,.274-5.972ZM32,34a1,1,0,1,1-1,1,1,1,0,0,1,1-1ZM31,22.487v9.7a3,3,0,1,0,2,0v-9.7L40.927,35.17,38.219,46H25.781L23.073,35.17ZM38,58H26V52H38Zm2-8H24a1,1,0,0,1,0-2H40a1,1,0,0,1,0,2Z" fill="#fff"/>
      <path id="Trazado_911231" data-name="Trazado 911231" d="M59,29H57.962A24.034,24.034,0,0,0,43.591,8h5.593a3,3,0,1,0,0-2H35V5a1,1,0,0,0-1-1H30a1,1,0,0,0-1,1V6H14.816a3,3,0,1,0,0,2h5.606a24.037,24.037,0,0,0-14.4,21H5a1,1,0,0,0-1,1v4a1,1,0,0,0,1,1H9a1,1,0,0,0,1-1V30a1,1,0,0,0-1-1H8.025A22.026,22.026,0,0,1,29,8.025V9a1,1,0,0,0,1,1h4a1,1,0,0,0,1-1V8.025A22.026,22.026,0,0,1,55.975,29H55a1,1,0,0,0-1,1v4a1,1,0,0,0,1,1h4a1,1,0,0,0,1-1V30A1,1,0,0,0,59,29ZM52,6a1,1,0,1,1-1,1A1,1,0,0,1,52,6ZM8,33H6V31H8ZM12,8a1,1,0,1,1,1-1,1,1,0,0,1-1,1ZM33,8H31V6h2ZM58,33H56V31h2Z" fill="#fff"/>
    </g>
  </g>
</svg>
