<svg xmlns="http://www.w3.org/2000/svg" width="90" height="90" viewBox="0 0 90 90">
  <g id="Grupo_1102225" data-name="Grupo 1102225" transform="translate(-1175.051 -3167)">
    <g id="Grupo_1101118" data-name="Grupo 1101118" transform="translate(450.27 1244)">
      <g id="Elipse_11514" data-name="Elipse 11514" transform="translate(735.781 1934)" fill="#9a9ef7" stroke="#d6d8fc" stroke-width="11">
        <circle cx="34" cy="34" r="34" stroke="none"/>
        <circle cx="34" cy="34" r="39.5" fill="none"/>
      </g>
    </g>
    <g id="Grupo_1101190" data-name="Grupo 1101190" transform="translate(1206.247 3193.254)">
      <g id="Grupo_1101175" data-name="Grupo 1101175" transform="translate(9.856 13.823)">
        <path id="Elipse_11535" data-name="Elipse 11535" d="M11.7,1.231A14.433,14.433,0,0,0,4.084,3.2C2.244,4.367,1.231,5.852,1.231,7.388s1.013,3.021,2.852,4.183A14.433,14.433,0,0,0,11.7,13.544a14.433,14.433,0,0,0,7.614-1.974c1.839-1.162,2.852-2.647,2.852-4.183S21.151,4.367,19.311,3.2A14.433,14.433,0,0,0,11.7,1.231M11.7,0c6.46,0,11.7,3.308,11.7,7.388s-5.237,7.388-11.7,7.388S0,11.468,0,7.388,5.237,0,11.7,0Z" transform="matrix(0.951, -0.309, 0.309, 0.951, 0, 7.229)" fill="#050505"/>
        <path id="Trazado_911313" data-name="Trazado 911313" d="M-5910.657-8398.963a.591.591,0,0,1-.1-.008.616.616,0,0,1-.507-.709,8.108,8.108,0,0,0-.3-3.829,8.268,8.268,0,0,1-1.207-.139,6.254,6.254,0,0,1-2.892-1.233c-.814-.739-.752-1.285-.557-1.613.32-.537,1.133-.638,2.172-.277.136.044.264.088.386.133a2.962,2.962,0,0,1,1.031-.959,2.352,2.352,0,0,1,2.348-.3,2.964,2.964,0,0,1,1.5,2.5,1.517,1.517,0,0,1-.876,1.575,2.631,2.631,0,0,1-.628.22,9.923,9.923,0,0,1,.24,4.133A.615.615,0,0,1-5910.657-8398.963Zm-1.7-7.114c.126.066.25.134.376.21a3.406,3.406,0,0,1,1.15,1.106,1.8,1.8,0,0,0,.606-.165c.221-.112.228-.217.213-.344a1.808,1.808,0,0,0-.793-1.513,1.183,1.183,0,0,0-1.143.206c-.183.123-.313.22-.407.294a.569.569,0,0,1,.007.091A.582.582,0,0,1-5912.355-8406.077Zm-2.351.394a5.279,5.279,0,0,0,1.935.78,9.1,9.1,0,0,0-1.667-.7l-.012,0Q-5914.588-8405.654-5914.707-8405.684Z" transform="translate(5917.428 8422.632)" fill="#050505"/>
      </g>
      <path id="Trazado_911314" data-name="Trazado 911314" d="M-5851.335-10819.187v18.953l5.337-5.513h7.123Z" transform="translate(5851.335 10819.188)" fill="#323232"/>
    </g>
  </g>
</svg>
