<svg xmlns="http://www.w3.org/2000/svg" xmlns:xlink="http://www.w3.org/1999/xlink" width="344" height="305" viewBox="0 0 344 305">
  <defs>
    <clipPath id="clip-path">
      <path id="Trazado_911308" data-name="Trazado 911308" d="M16.221,0C25.241.1,32.6,3.359,32.665,7.281s-7.2,7.023-16.221,6.925S.062,10.85,0,6.928,7.2-.1,16.221,0Z" transform="matrix(-0.999, 0.035, -0.035, -0.999, 33.141, 14.2)" fill="#070707"/>
    </clipPath>
    <clipPath id="clip-path-2">
      <path id="Trazado_911311" data-name="Trazado 911311" d="M16.5,0C25.68.1,33.17,3.417,33.233,7.407s-7.326,7.145-16.5,7.046S.063,11.039,0,7.048,7.327-.1,16.5,0Z" transform="matrix(-0.999, 0.035, -0.035, -0.999, 33.718, 14.447)" fill="#070707"/>
    </clipPath>
  </defs>
  <g id="Grupo_1101187" data-name="Grupo 1101187" transform="translate(-216.051 -3148)">
    <rect id="Rectángulo_402994" data-name="Rectángulo 402994" width="197" height="177" rx="19" transform="translate(216.051 3148)" fill="#ffeacc"/>
    <g id="Grupo_1101184" data-name="Grupo 1101184" transform="translate(226.357 3158.336)">
      <g id="Grupo_1101174" data-name="Grupo 1101174" transform="translate(0 0)">
        <path id="Trazado_911305" data-name="Trazado 911305" d="M-5615.876-8301.1s35.752-125.773-64.313-142.138-87.14,142.138-87.14,142.138Z" transform="translate(5767.875 8458.146)" fill="#ebdd30"/>
        <path id="Trazado_911306" data-name="Trazado 911306" d="M-5701.45-8441.619h-9.142s.669-8.476-2.184-9.554,8.118,3.219,8.118,3.219l5.785-9.809v9.809l10.786-3.219s-8.531,8.987-6.729,9.554S-5701.45-8441.619-5701.45-8441.619Z" transform="translate(5779.345 8457.763)" fill="#ebdd2f"/>
        <g id="Grupo_1101160" data-name="Grupo 1101160" transform="translate(56.715 26.337)">
          <circle id="Elipse_11531" data-name="Elipse 11531" cx="18.759" cy="18.759" r="18.759" fill="#fff"/>
          <circle id="Elipse_11532" data-name="Elipse 11532" cx="5.446" cy="5.446" r="5.446" transform="translate(21.785 8.472)"/>
        </g>
        <g id="Grupo_1101161" data-name="Grupo 1101161" transform="translate(19.197 48.122)">
          <circle id="Elipse_11531-2" data-name="Elipse 11531" cx="18.759" cy="18.759" r="18.759" transform="translate(0 0)" fill="#fff"/>
          <circle id="Elipse_11532-2" data-name="Elipse 11532" cx="5.446" cy="5.446" r="5.446" transform="translate(21.785 8.472)"/>
        </g>
        <g id="Grupo_1101162" data-name="Grupo 1101162" transform="translate(60.345 68.696)">
          <circle id="Elipse_11531-3" data-name="Elipse 11531" cx="18.759" cy="18.759" r="18.759" fill="#fff"/>
          <circle id="Elipse_11532-3" data-name="Elipse 11532" cx="5.446" cy="5.446" r="5.446" transform="translate(21.785 8.472)"/>
        </g>
        <g id="Grupo_1101163" data-name="Grupo 1101163" transform="translate(101.494 85.639)">
          <circle id="Elipse_11531-4" data-name="Elipse 11531" cx="18.759" cy="18.759" r="18.759" fill="#fff"/>
          <circle id="Elipse_11532-4" data-name="Elipse 11532" cx="5.446" cy="5.446" r="5.446" transform="translate(21.785 8.472)"/>
        </g>
        <g id="Grupo_1101164" data-name="Grupo 1101164" transform="translate(97.863 43.281)">
          <circle id="Elipse_11531-5" data-name="Elipse 11531" cx="18.759" cy="18.759" r="18.759" fill="#fff"/>
          <circle id="Elipse_11532-5" data-name="Elipse 11532" cx="5.446" cy="5.446" r="5.446" transform="translate(21.785 8.472)"/>
        </g>
        <g id="Grupo_1101165" data-name="Grupo 1101165" transform="translate(22.828 90.48)">
          <circle id="Elipse_11531-6" data-name="Elipse 11531" cx="18.759" cy="18.759" r="18.759" fill="#fff"/>
          <circle id="Elipse_11532-6" data-name="Elipse 11532" cx="5.446" cy="5.446" r="5.446" transform="translate(21.785 8.472)"/>
        </g>
        <g id="Grupo_1101166" data-name="Grupo 1101166" transform="translate(66.165 127.251)">
          <path id="Trazado_911307" data-name="Trazado 911307" d="M16.221,0C25.241.1,32.6,3.359,32.665,7.281s-7.2,7.023-16.221,6.925S.062,10.85,0,6.927,7.2-.1,16.221,0Z" transform="matrix(-0.999, 0.035, -0.035, -0.999, 33.141, 14.2)" fill="#070707"/>
        </g>
        <g id="Enmascarar_grupo_1098697" data-name="Enmascarar grupo 1098697" transform="translate(66.165 127.251)" clip-path="url(#clip-path)">
          <ellipse id="Elipse_11533" data-name="Elipse 11533" cx="13.918" cy="6.139" rx="13.918" ry="6.139" transform="matrix(-0.999, 0.035, -0.035, -0.999, 30.694, 17.688)" fill="#f0903e"/>
          <rect id="Rectángulo_402983" data-name="Rectángulo 402983" width="4.841" height="8.472" transform="translate(19.596 -1.674)" fill="#fff"/>
          <rect id="Rectángulo_402982" data-name="Rectángulo 402982" width="7.262" height="8.472" transform="translate(9.914 -1.674)" fill="#fff"/>
        </g>
      </g>
      <path id="Trazado_911312" data-name="Trazado 911312" d="M-5686.629-8437.564s-30.519.754-34.1,10.122-26.273,15.8-27.88,19.067-12.695,20.324-5.077,31.578-16.8,39.843,0,45.3,38.438,10.184,40.3,5.631,22.615-23.358,37.134-14.977,44.088,21.67,49.811,9.346-.946-34.924,0-49.9-1.3-24.658-7.044-29.845-.6-8.636-20.414-16.205-23.659-9.481-27.274-10.122A11.833,11.833,0,0,0-5686.629-8437.564Z" transform="translate(5769.574 8459.528)" fill="none" stroke="#707070" stroke-width="1"/>
      <g id="Grupo_1101176" data-name="Grupo 1101176" transform="translate(140.186 78.378)">
        <g id="Grupo_1101175" data-name="Grupo 1101175" transform="translate(9.688 13.587)">
          <path id="Elipse_11535" data-name="Elipse 11535" d="M11.5,1.21A14.186,14.186,0,0,0,4.014,3.15c-1.808,1.142-2.8,2.6-2.8,4.111s1,2.97,2.8,4.111a14.186,14.186,0,0,0,7.484,1.94,14.186,14.186,0,0,0,7.484-1.94c1.808-1.142,2.8-2.6,2.8-4.111s-1-2.97-2.8-4.111A14.186,14.186,0,0,0,11.5,1.21M11.5,0c6.35,0,11.5,3.251,11.5,7.262s-5.148,7.262-11.5,7.262S0,11.272,0,7.262,5.148,0,11.5,0Z" transform="matrix(0.951, -0.309, 0.309, 0.951, 0, 7.106)" fill="#050505" stroke="#fff" stroke-width="0.6"/>
          <path id="Trazado_911313" data-name="Trazado 911313" d="M-5910.754-8399.12a.58.58,0,0,1-.1-.008.6.6,0,0,1-.5-.7,7.983,7.983,0,0,0-.3-3.764,8.065,8.065,0,0,1-1.187-.136,6.162,6.162,0,0,1-2.842-1.213c-.8-.728-.74-1.264-.547-1.586.314-.527,1.113-.627,2.134-.272.133.044.259.087.379.13a2.918,2.918,0,0,1,1.014-.941,2.308,2.308,0,0,1,2.308-.3,2.912,2.912,0,0,1,1.474,2.451,1.491,1.491,0,0,1-.861,1.549,2.637,2.637,0,0,1-.618.217,9.78,9.78,0,0,1,.236,4.062A.605.605,0,0,1-5910.754-8399.12Zm-1.669-6.993c.123.065.245.133.369.206a3.357,3.357,0,0,1,1.132,1.089,1.8,1.8,0,0,0,.6-.162c.217-.111.224-.214.209-.337a1.775,1.775,0,0,0-.78-1.488,1.163,1.163,0,0,0-1.124.2c-.18.121-.308.216-.4.289a.593.593,0,0,1,.007.088A.593.593,0,0,1-5912.423-8406.113Zm-2.312.387a5.156,5.156,0,0,0,1.9.767,9.149,9.149,0,0,0-1.638-.687l-.012,0C-5914.573-8405.682-5914.657-8405.707-5914.735-8405.727Z" transform="translate(5917.41 8422.383)" fill="#050505" stroke="#fff" stroke-linecap="round" stroke-width="0.6"/>
        </g>
        <path id="Trazado_911314" data-name="Trazado 911314" d="M-5851.335-10819.189v18.63l5.245-5.419h7Z" transform="translate(5851.335 10819.189)" stroke="#fff" stroke-width="0.6"/>
      </g>
    </g>
    <rect id="Rectángulo_402995" data-name="Rectángulo 402995" width="197" height="172" rx="19" transform="translate(363.051 3281)" fill="#ffeacc"/>
    <g id="Grupo_1101186" data-name="Grupo 1101186" transform="translate(376.242 3284.604)">
      <g id="Grupo_1101185" data-name="Grupo 1101185" transform="translate(0 0)">
        <path id="Trazado_911309" data-name="Trazado 911309" d="M-5613.23-8298.607s36.374-127.963-65.433-144.609-88.656,144.609-88.656,144.609Z" transform="translate(5767.874 8458.383)" fill="#ebdd30"/>
        <path id="Trazado_911310" data-name="Trazado 911310" d="M-5701.245-8441.337h-9.3s.681-8.624-2.221-9.721,8.259,3.275,8.259,3.275l5.887-9.979v9.979l10.974-3.275s-8.681,9.144-6.848,9.721S-5701.245-8441.337-5701.245-8441.337Z" transform="translate(5780.494 8457.762)" fill="#ebdd2f"/>
        <g id="Grupo_1101173" data-name="Grupo 1101173" transform="translate(67.316 129.464)">
          <path id="Trazado_911307-2" data-name="Trazado 911307" d="M16.5,0C25.68.1,33.17,3.417,33.233,7.407s-7.326,7.145-16.5,7.046S.063,11.039,0,7.048,7.327-.1,16.5,0Z" transform="matrix(-0.999, 0.035, -0.035, -0.999, 33.718, 14.447)" fill="#070707"/>
        </g>
        <g id="Enmascarar_grupo_1098698" data-name="Enmascarar grupo 1098698" transform="translate(67.316 129.464)" clip-path="url(#clip-path-2)">
          <ellipse id="Elipse_11534" data-name="Elipse 11534" cx="14.16" cy="6.246" rx="14.16" ry="6.246" transform="matrix(-0.999, 0.035, -0.035, -0.999, 31.228, 17.995)" fill="#f0903e"/>
          <rect id="Rectángulo_402984" data-name="Rectángulo 402984" width="4.925" height="8.619" transform="translate(19.937 -1.703)" fill="#fff"/>
          <rect id="Rectángulo_402985" data-name="Rectángulo 402985" width="7.388" height="8.619" transform="translate(10.086 -1.703)" fill="#fff"/>
        </g>
        <g id="Grupo_1101177" data-name="Grupo 1101177" transform="translate(19.531 89.592)">
          <g id="Grupo_1101172" data-name="Grupo 1101172" transform="translate(3.694 2.463)">
            <g id="Elipse_11531-7" data-name="Elipse 11531" transform="translate(0 0)" fill="#fff" stroke="#048fe5" stroke-width="2">
              <circle cx="19.085" cy="19.085" r="19.085" stroke="none"/>
              <circle cx="19.085" cy="19.085" r="18.085" fill="none"/>
            </g>
            <g id="Elipse_11532-7" data-name="Elipse 11532" transform="translate(22.163 8.619)" stroke="#048fe5" stroke-width="1">
              <circle cx="5.541" cy="5.541" r="5.541" stroke="none"/>
              <circle cx="5.541" cy="5.541" r="5.041" fill="none"/>
            </g>
          </g>
          <rect id="Rectángulo_402986" data-name="Rectángulo 402986" width="7.388" height="7.388" transform="translate(19.701)" fill="#048fe5"/>
          <rect id="Rectángulo_402987" data-name="Rectángulo 402987" width="7.388" height="7.388" transform="translate(19.701 35.708)" fill="#048fe5"/>
          <rect id="Rectángulo_402988" data-name="Rectángulo 402988" width="7.388" height="7.388" transform="translate(0 18.47)" fill="#048fe5"/>
          <rect id="Rectángulo_402989" data-name="Rectángulo 402989" width="7.388" height="7.388" transform="translate(38.17 18.47)" fill="#048fe5"/>
          <rect id="Rectángulo_402990" data-name="Rectángulo 402990" width="3.694" height="3.694" transform="translate(29.551 9.85)" fill="#048fe5"/>
          <rect id="Rectángulo_402991" data-name="Rectángulo 402991" width="3.694" height="3.694" transform="translate(29.551 19.701)" fill="#048fe5"/>
          <rect id="Rectángulo_402992" data-name="Rectángulo 402992" width="3.694" height="3.694" transform="translate(24.626 14.776)" fill="#048fe5"/>
          <rect id="Rectángulo_402993" data-name="Rectángulo 402993" width="3.694" height="3.694" transform="translate(34.477 14.776)" fill="#048fe5"/>
        </g>
        <g id="Grupo_1101178" data-name="Grupo 1101178" transform="translate(14.606 46.496)">
          <g id="Grupo_1101172-2" data-name="Grupo 1101172" transform="translate(3.694 2.463)">
            <g id="Elipse_11531-8" data-name="Elipse 11531" transform="translate(0 0)" fill="#fff" stroke="#048fe5" stroke-width="2">
              <circle cx="19.085" cy="19.085" r="19.085" stroke="none"/>
              <circle cx="19.085" cy="19.085" r="18.085" fill="none"/>
            </g>
            <g id="Elipse_11532-8" data-name="Elipse 11532" transform="translate(22.163 8.619)" stroke="#048fe5" stroke-width="1">
              <circle cx="5.541" cy="5.541" r="5.541" stroke="none"/>
              <circle cx="5.541" cy="5.541" r="5.041" fill="none"/>
            </g>
          </g>
          <rect id="Rectángulo_402986-2" data-name="Rectángulo 402986" width="7.388" height="7.388" transform="translate(19.701)" fill="#048fe5"/>
          <rect id="Rectángulo_402987-2" data-name="Rectángulo 402987" width="7.388" height="7.388" transform="translate(19.701 35.708)" fill="#048fe5"/>
          <rect id="Rectángulo_402988-2" data-name="Rectángulo 402988" width="7.388" height="7.388" transform="translate(0 18.47)" fill="#048fe5"/>
          <rect id="Rectángulo_402989-2" data-name="Rectángulo 402989" width="7.388" height="7.388" transform="translate(38.17 18.47)" fill="#048fe5"/>
          <rect id="Rectángulo_402990-2" data-name="Rectángulo 402990" width="3.694" height="3.694" transform="translate(29.551 9.85)" fill="#048fe5"/>
          <rect id="Rectángulo_402991-2" data-name="Rectángulo 402991" width="3.694" height="3.694" transform="translate(29.551 19.701)" fill="#048fe5"/>
          <rect id="Rectángulo_402992-2" data-name="Rectángulo 402992" width="3.694" height="3.694" transform="translate(24.626 14.776)" fill="#048fe5"/>
          <rect id="Rectángulo_402993-2" data-name="Rectángulo 402993" width="3.694" height="3.694" transform="translate(34.477 14.776)" fill="#048fe5"/>
        </g>
        <g id="Grupo_1101179" data-name="Grupo 1101179" transform="translate(54.007 24.333)">
          <g id="Grupo_1101172-3" data-name="Grupo 1101172" transform="translate(3.694 2.463)">
            <g id="Elipse_11531-9" data-name="Elipse 11531" transform="translate(0 0)" fill="#fff" stroke="#048fe5" stroke-width="2">
              <circle cx="19.085" cy="19.085" r="19.085" stroke="none"/>
              <circle cx="19.085" cy="19.085" r="18.085" fill="none"/>
            </g>
            <g id="Elipse_11532-9" data-name="Elipse 11532" transform="translate(22.163 8.619)" stroke="#048fe5" stroke-width="1">
              <circle cx="5.541" cy="5.541" r="5.541" stroke="none"/>
              <circle cx="5.541" cy="5.541" r="5.041" fill="none"/>
            </g>
          </g>
          <rect id="Rectángulo_402986-3" data-name="Rectángulo 402986" width="7.388" height="7.388" transform="translate(19.701)" fill="#048fe5"/>
          <rect id="Rectángulo_402987-3" data-name="Rectángulo 402987" width="7.388" height="7.388" transform="translate(19.701 35.708)" fill="#048fe5"/>
          <rect id="Rectángulo_402988-3" data-name="Rectángulo 402988" width="7.388" height="7.388" transform="translate(0 18.47)" fill="#048fe5"/>
          <rect id="Rectángulo_402989-3" data-name="Rectángulo 402989" width="7.388" height="7.388" transform="translate(38.17 18.47)" fill="#048fe5"/>
          <rect id="Rectángulo_402990-3" data-name="Rectángulo 402990" width="3.694" height="3.694" transform="translate(29.551 9.85)" fill="#048fe5"/>
          <rect id="Rectángulo_402991-3" data-name="Rectángulo 402991" width="3.694" height="3.694" transform="translate(29.551 19.701)" fill="#048fe5"/>
          <rect id="Rectángulo_402992-3" data-name="Rectángulo 402992" width="3.694" height="3.694" transform="translate(24.626 14.776)" fill="#048fe5"/>
          <rect id="Rectángulo_402993-3" data-name="Rectángulo 402993" width="3.694" height="3.694" transform="translate(34.477 14.776)" fill="#048fe5"/>
        </g>
        <g id="Grupo_1101180" data-name="Grupo 1101180" transform="translate(57.701 67.428)">
          <g id="Grupo_1101172-4" data-name="Grupo 1101172" transform="translate(3.694 2.463)">
            <g id="Elipse_11531-10" data-name="Elipse 11531" transform="translate(0 0)" fill="#fff" stroke="#048fe5" stroke-width="2">
              <circle cx="19.085" cy="19.085" r="19.085" stroke="none"/>
              <circle cx="19.085" cy="19.085" r="18.085" fill="none"/>
            </g>
            <g id="Elipse_11532-10" data-name="Elipse 11532" transform="translate(22.163 8.619)" stroke="#048fe5" stroke-width="1">
              <circle cx="5.541" cy="5.541" r="5.541" stroke="none"/>
              <circle cx="5.541" cy="5.541" r="5.041" fill="none"/>
            </g>
          </g>
          <rect id="Rectángulo_402986-4" data-name="Rectángulo 402986" width="7.388" height="7.388" transform="translate(19.701 0)" fill="#048fe5"/>
          <rect id="Rectángulo_402987-4" data-name="Rectángulo 402987" width="7.388" height="7.388" transform="translate(19.701 35.708)" fill="#048fe5"/>
          <rect id="Rectángulo_402988-4" data-name="Rectángulo 402988" width="7.388" height="7.388" transform="translate(0 18.47)" fill="#048fe5"/>
          <rect id="Rectángulo_402989-4" data-name="Rectángulo 402989" width="7.388" height="7.388" transform="translate(38.17 18.47)" fill="#048fe5"/>
          <rect id="Rectángulo_402990-4" data-name="Rectángulo 402990" width="3.694" height="3.694" transform="translate(29.551 9.85)" fill="#048fe5"/>
          <rect id="Rectángulo_402991-4" data-name="Rectángulo 402991" width="3.694" height="3.694" transform="translate(29.551 19.701)" fill="#048fe5"/>
          <rect id="Rectángulo_402992-4" data-name="Rectángulo 402992" width="3.694" height="3.694" transform="translate(24.626 14.776)" fill="#048fe5"/>
          <rect id="Rectángulo_402993-4" data-name="Rectángulo 402993" width="3.694" height="3.694" transform="translate(34.477 14.776)" fill="#048fe5"/>
        </g>
        <g id="Grupo_1101181" data-name="Grupo 1101181" transform="translate(95.872 41.571)">
          <g id="Grupo_1101172-5" data-name="Grupo 1101172" transform="translate(3.694 2.463)">
            <g id="Elipse_11531-11" data-name="Elipse 11531" transform="translate(0 0)" fill="#fff" stroke="#048fe5" stroke-width="2">
              <circle cx="19.085" cy="19.085" r="19.085" stroke="none"/>
              <circle cx="19.085" cy="19.085" r="18.085" fill="none"/>
            </g>
            <g id="Elipse_11532-11" data-name="Elipse 11532" transform="translate(22.163 8.619)" stroke="#048fe5" stroke-width="1">
              <circle cx="5.541" cy="5.541" r="5.541" stroke="none"/>
              <circle cx="5.541" cy="5.541" r="5.041" fill="none"/>
            </g>
          </g>
          <rect id="Rectángulo_402986-5" data-name="Rectángulo 402986" width="7.388" height="7.388" transform="translate(19.701)" fill="#048fe5"/>
          <rect id="Rectángulo_402987-5" data-name="Rectángulo 402987" width="7.388" height="7.388" transform="translate(19.701 35.708)" fill="#048fe5"/>
          <rect id="Rectángulo_402988-5" data-name="Rectángulo 402988" width="7.388" height="7.388" transform="translate(0 18.47)" fill="#048fe5"/>
          <rect id="Rectángulo_402989-5" data-name="Rectángulo 402989" width="7.388" height="7.388" transform="translate(38.17 18.47)" fill="#048fe5"/>
          <rect id="Rectángulo_402990-5" data-name="Rectángulo 402990" width="3.694" height="3.694" transform="translate(29.551 9.85)" fill="#048fe5"/>
          <rect id="Rectángulo_402991-5" data-name="Rectángulo 402991" width="3.694" height="3.694" transform="translate(29.551 19.701)" fill="#048fe5"/>
          <rect id="Rectángulo_402992-5" data-name="Rectángulo 402992" width="3.694" height="3.694" transform="translate(24.626 14.776)" fill="#048fe5"/>
          <rect id="Rectángulo_402993-5" data-name="Rectángulo 402993" width="3.694" height="3.694" transform="translate(34.477 14.776)" fill="#048fe5"/>
        </g>
        <g id="Grupo_1101182" data-name="Grupo 1101182" transform="translate(99.566 84.667)">
          <g id="Grupo_1101172-6" data-name="Grupo 1101172" transform="translate(3.694 2.463)">
            <g id="Elipse_11531-12" data-name="Elipse 11531" transform="translate(0 0)" fill="#fff" stroke="#048fe5" stroke-width="2">
              <circle cx="19.085" cy="19.085" r="19.085" stroke="none"/>
              <circle cx="19.085" cy="19.085" r="18.085" fill="none"/>
            </g>
            <g id="Elipse_11532-12" data-name="Elipse 11532" transform="translate(22.163 8.619)" stroke="#048fe5" stroke-width="1">
              <circle cx="5.541" cy="5.541" r="5.541" stroke="none"/>
              <circle cx="5.541" cy="5.541" r="5.041" fill="none"/>
            </g>
          </g>
          <rect id="Rectángulo_402986-6" data-name="Rectángulo 402986" width="7.388" height="7.388" transform="translate(19.701)" fill="#048fe5"/>
          <rect id="Rectángulo_402987-6" data-name="Rectángulo 402987" width="7.388" height="7.388" transform="translate(19.701 35.708)" fill="#048fe5"/>
          <rect id="Rectángulo_402988-6" data-name="Rectángulo 402988" width="7.388" height="7.388" transform="translate(0 18.47)" fill="#048fe5"/>
          <rect id="Rectángulo_402989-6" data-name="Rectángulo 402989" width="7.388" height="7.388" transform="translate(38.17 18.47)" fill="#048fe5"/>
          <rect id="Rectángulo_402990-6" data-name="Rectángulo 402990" width="3.694" height="3.694" transform="translate(29.551 9.85)" fill="#048fe5"/>
          <rect id="Rectángulo_402991-6" data-name="Rectángulo 402991" width="3.694" height="3.694" transform="translate(29.551 19.701)" fill="#048fe5"/>
          <rect id="Rectángulo_402992-6" data-name="Rectángulo 402992" width="3.694" height="3.694" transform="translate(24.626 14.776)" fill="#048fe5"/>
          <rect id="Rectángulo_402993-6" data-name="Rectángulo 402993" width="3.694" height="3.694" transform="translate(34.477 14.776)" fill="#048fe5"/>
        </g>
        <g id="Grupo_1101183" data-name="Grupo 1101183" transform="translate(134.005 77.279)">
          <g id="Grupo_1101175-2" data-name="Grupo 1101175" transform="translate(9.856 13.823)">
            <path id="Elipse_11535-2" data-name="Elipse 11535" d="M11.7,1.231A14.433,14.433,0,0,0,4.084,3.2C2.244,4.367,1.231,5.852,1.231,7.388s1.013,3.021,2.852,4.183A14.433,14.433,0,0,0,11.7,13.544a14.433,14.433,0,0,0,7.614-1.974c1.839-1.162,2.852-2.647,2.852-4.183S21.151,4.367,19.311,3.2A14.433,14.433,0,0,0,11.7,1.231M11.7,0c6.46,0,11.7,3.308,11.7,7.388s-5.237,7.388-11.7,7.388S0,11.468,0,7.388,5.237,0,11.7,0Z" transform="matrix(0.951, -0.309, 0.309, 0.951, 0, 7.229)" fill="#050505" stroke="#fff" stroke-width="0.6"/>
            <path id="Trazado_911313-2" data-name="Trazado 911313" d="M-5910.657-8398.963a.591.591,0,0,1-.1-.008.616.616,0,0,1-.507-.709,8.108,8.108,0,0,0-.3-3.829,8.268,8.268,0,0,1-1.207-.139,6.254,6.254,0,0,1-2.892-1.233c-.814-.739-.752-1.285-.557-1.613.32-.537,1.133-.638,2.172-.277.136.044.264.088.386.133a2.962,2.962,0,0,1,1.031-.959,2.352,2.352,0,0,1,2.348-.3,2.964,2.964,0,0,1,1.5,2.5,1.517,1.517,0,0,1-.876,1.575,2.631,2.631,0,0,1-.628.22,9.923,9.923,0,0,1,.24,4.133A.615.615,0,0,1-5910.657-8398.963Zm-1.7-7.114c.126.066.25.134.376.21a3.406,3.406,0,0,1,1.15,1.106,1.8,1.8,0,0,0,.606-.165c.221-.112.228-.217.213-.344a1.808,1.808,0,0,0-.793-1.513,1.183,1.183,0,0,0-1.143.206c-.183.123-.313.22-.407.294a.569.569,0,0,1,.007.091A.582.582,0,0,1-5912.355-8406.077Zm-2.351.394a5.279,5.279,0,0,0,1.935.78,9.1,9.1,0,0,0-1.667-.7l-.012,0Q-5914.588-8405.654-5914.707-8405.684Z" transform="translate(5917.428 8422.632)" fill="#050505" stroke="#fff" stroke-linecap="round" stroke-width="0.6"/>
          </g>
          <path id="Trazado_911314-2" data-name="Trazado 911314" d="M-5851.335-10819.187v18.953l5.337-5.513h7.123Z" transform="translate(5851.335 10819.188)" stroke="#fff" stroke-width="0.6"/>
        </g>
      </g>
    </g>
  </g>
</svg>
