<svg xmlns="http://www.w3.org/2000/svg" width="218.362" height="218.462" viewBox="0 0 218.362 218.462">
  <g id="Grupo_1101153" data-name="Grupo 1101153" transform="translate(-218.051 -2174)">
    <g id="Grupo_1101150" data-name="Grupo 1101150" transform="translate(6684.372 11685.628)">
      <g id="Trazado_911304" data-name="Trazado 911304" transform="translate(-6358.111 -9510.154)" fill="#03000d">
        <path d="M 107.1554412841797 107.3095932006836 L 0.9999966025352478 107.3095932006836 L 0.9999966025352478 1.085738778114319 C 4.241712093353271 1.381044387817383 14.52790546417236 2.51695728302002 26.95811080932617 5.899510860443115 C 35.76121139526367 8.295039176940918 43.90176773071289 11.33221054077148 51.15365219116211 14.92663955688477 C 60.19094085693359 19.40599632263184 67.86315155029297 24.76716804504395 73.95721435546875 30.8612117767334 C 80.05599975585938 36.96001052856445 85.60355377197266 44.82169723510742 90.44578552246094 54.22789764404297 C 94.33197021484375 61.77695465087891 97.77361297607422 70.32933807373047 100.6750793457031 79.64748382568359 C 104.776969909668 92.82077026367188 106.6315994262695 103.8492584228516 107.1554412841797 107.3095932006836 Z" stroke="none"/>
        <path d="M 105.9865264892578 106.3095932006836 C 105.2846527099609 101.9676208496094 103.4198226928711 91.81769561767578 99.70925903320312 79.90933227539062 C 96.8248291015625 70.65229034423828 93.40576934814453 62.15948867797852 89.54702758789062 54.66684341430664 C 84.75459289550781 45.36121368408203 79.27152252197266 37.58975219726562 73.25010681152344 31.56833457946777 C 67.23815155029297 25.55638122558594 59.66205978393555 20.26255035400391 50.73225784301758 15.8338737487793 C 43.54436492919922 12.26908874511719 35.47144317626953 9.255196571350098 26.73773574829102 6.875919818878174 C 15.52540588378906 3.821403980255127 6.063961505889893 2.606462717056274 1.999996542930603 2.187736749649048 L 1.999996542930603 106.3095932006836 L 105.9865264892578 106.3095932006836 M 108.3095932006836 108.3095932006836 L -3.399658226044266e-06 108.3095932006836 L -3.399658226044266e-06 -3.399658226044266e-06 C -3.399658226044266e-06 -3.399658226044266e-06 47.58691787719727 3.076719760894775 74.66432189941406 30.15411949157715 C 101.7417068481445 57.23150253295898 108.3095932006836 108.3095932006836 108.3095932006836 108.3095932006836 Z" stroke="none" fill="#048fe5"/>
      </g>
      <g id="Grupo_1101148" data-name="Grupo 1101148" transform="translate(-6252.749 -9465.945)">
        <line id="Línea_594" data-name="Línea 594" y1="59.681" transform="translate(1.842 1.842)" fill="none" stroke="#048fe5" stroke-width="1"/>
        <g id="Elipse_11528" data-name="Elipse 11528" transform="translate(0 0)" fill="#048fe5" stroke="#048fe5" stroke-width="1">
          <circle cx="1.842" cy="1.842" r="1.842" stroke="none"/>
          <circle cx="1.842" cy="1.842" r="1.342" fill="none"/>
        </g>
      </g>
      <g id="Grupo_1101149" data-name="Grupo 1101149" transform="translate(-6294.377 -9511.259) rotate(90)">
        <line id="Línea_594-2" data-name="Línea 594" y1="59.681" transform="translate(1.842 1.842)" fill="none" stroke="#048fe5" stroke-width="1"/>
        <g id="Elipse_11528-2" data-name="Elipse 11528" transform="translate(0 0)" fill="#048fe5" stroke="#048fe5" stroke-width="1">
          <circle cx="1.842" cy="1.842" r="1.842" stroke="none"/>
          <circle cx="1.842" cy="1.842" r="1.342" fill="none"/>
        </g>
      </g>
      <g id="Trazado_911304-2" data-name="Trazado 911304" transform="translate(-6464.848 -9403.417)" fill="#03000d">
        <path d="M 107.3095932006836 107.2238998413086 C 104.0678100585938 106.928596496582 93.78168487548828 105.7926940917969 81.35147857666016 102.4101409912109 C 72.54838562011719 100.0145950317383 64.40782165527344 96.97743988037109 57.15594100952148 93.38301086425781 C 48.11865234375 88.90364074707031 40.44643783569336 83.54246520996094 34.35238265991211 77.44842529296875 C 28.25359725952148 71.34962463378906 22.70603942871094 63.48792266845703 17.86381149291992 54.08172225952148 C 13.97762489318848 46.53266525268555 10.53598213195801 37.98028182983398 7.63451099395752 28.66212272644043 C 3.532619714736938 15.48883247375488 1.677997350692749 4.460335731506348 1.154153823852539 0.9999947547912598 L 107.3095932006836 0.9999947547912598 L 107.3095932006836 107.2238998413086 Z" stroke="none"/>
        <path d="M 2.322547912597656 1.999992370605469 C 3.021697998046875 6.32952880859375 4.877799987792969 16.43714141845703 8.57830810546875 28.32949829101562 C 11.46250152587891 37.59850311279297 14.88250732421875 46.10251617431641 18.7432861328125 53.60531616210938 C 23.54039764404297 62.92770004272461 29.02995300292969 70.71176147460938 35.05948638916016 76.74130249023438 C 41.07144165039062 82.75325012207031 48.64753341674805 88.04710388183594 57.57733535766602 92.47576141357422 C 64.76522827148438 96.04055786132812 72.83815002441406 99.05445098876953 81.57185363769531 101.4337158203125 C 92.78418731689453 104.4882278442383 102.2456283569336 105.7031707763672 106.3095932006836 106.1218948364258 L 106.3095932006836 1.999992370605469 L 2.322547912597656 1.999992370605469 M 0 -7.62939453125e-06 L 108.3095932006836 -7.62939453125e-06 L 108.3095932006836 108.3096389770508 C 108.3095932006836 108.3096389770508 60.72267532348633 105.2329330444336 33.64527130126953 78.155517578125 C 6.567886352539062 51.07810211181641 0 -7.62939453125e-06 0 -7.62939453125e-06 Z" stroke="none" fill="#048fe5"/>
      </g>
      <g id="Grupo_1101148-2" data-name="Grupo 1101148" transform="translate(-6465.584 -9400.839)">
        <line id="Línea_594-3" data-name="Línea 594" y2="59.681" transform="translate(1.842 0)" fill="none" stroke="#048fe5" stroke-width="1"/>
        <g id="Elipse_11528-3" data-name="Elipse 11528" transform="translate(0 57.839)" fill="#048fe5" stroke="#048fe5" stroke-width="1">
          <circle cx="1.842" cy="1.842" r="1.842" stroke="none"/>
          <circle cx="1.842" cy="1.842" r="1.342" fill="none"/>
        </g>
      </g>
      <g id="Grupo_1101149-2" data-name="Grupo 1101149" transform="translate(-6420.271 -9294.003) rotate(-90)">
        <line id="Línea_594-4" data-name="Línea 594" y1="59.681" transform="translate(1.842 1.842)" fill="none" stroke="#048fe5" stroke-width="1"/>
        <g id="Elipse_11528-4" data-name="Elipse 11528" transform="translate(0 0)" fill="#048fe5" stroke="#048fe5" stroke-width="1">
          <circle cx="1.842" cy="1.842" r="1.842" stroke="none"/>
          <circle cx="1.842" cy="1.842" r="1.342" fill="none"/>
        </g>
      </g>
      <g id="Trazado_911304-3" data-name="Trazado 911304" transform="translate(-6464.848 -9510.154)" fill="#03000d">
        <path d="M 107.3095932006836 107.3096542358398 L 1.154153823852539 107.3096542358398 C 1.677997350692749 103.8493118286133 3.532619714736938 92.82081604003906 7.63451099395752 79.64752197265625 C 10.53598213195801 70.32936859130859 13.97762489318848 61.77698135375977 17.86381149291992 54.22792434692383 C 22.70603942871094 44.82172393798828 28.25359725952148 36.96002197265625 34.35238265991211 30.8612232208252 C 40.45159530639648 24.76202392578125 48.13149642944336 19.39705276489258 57.17875289916992 14.91533756256104 C 64.43663787841797 11.32002353668213 72.58375549316406 8.282794952392578 81.39376831054688 5.888009071350098 C 93.81520080566406 2.511560201644897 104.0734481811523 1.379829287528992 107.3095932006836 1.085539817810059 L 107.3095932006836 107.3096542358398 Z" stroke="none"/>
        <path d="M 106.3095932006836 106.3096542358398 L 106.3095932006836 2.187756538391113 C 102.2454223632812 2.60649561882019 92.78418731689453 3.821415424346924 81.57186126708984 6.875930786132812 C 72.83815002441406 9.255192756652832 64.76522827148438 12.26908493041992 57.57733535766602 15.83388519287109 C 48.64753341674805 20.26254653930664 41.07144165039062 25.55639266967773 35.05949020385742 31.56834602355957 C 29.03807258605957 37.58976364135742 23.55499649047852 45.36122512817383 18.76256561279297 54.6668701171875 C 14.90382766723633 62.15951538085938 11.48476600646973 70.65231323242188 8.600335121154785 79.90936279296875 C 4.8897705078125 91.8177490234375 3.024913549423218 101.9678192138672 2.323055505752563 106.3096542358398 L 106.3095932006836 106.3096542358398 M 108.3095932006836 108.3096542358398 L -3.399658226044266e-06 108.3096542358398 C -3.399658226044266e-06 108.3096542358398 6.567888736724854 57.23152923583984 33.6452751159668 30.15413093566895 C 60.72267532348633 3.076715707778931 108.3095932006836 7.918607479950879e-06 108.3095932006836 7.918607479950879e-06 L 108.3095932006836 108.3096542358398 Z" stroke="none" fill="#048fe5"/>
      </g>
      <g id="Grupo_1101148-3" data-name="Grupo 1101148" transform="translate(-6465.584 -9465.945)">
        <line id="Línea_594-5" data-name="Línea 594" y1="59.681" transform="translate(1.842 1.842)" fill="none" stroke="#048fe5" stroke-width="1"/>
        <g id="Elipse_11528-5" data-name="Elipse 11528" transform="translate(0 0)" fill="#048fe5" stroke="#048fe5" stroke-width="1">
          <circle cx="1.842" cy="1.842" r="1.842" stroke="none"/>
          <circle cx="1.842" cy="1.842" r="1.342" fill="none"/>
        </g>
      </g>
      <g id="Grupo_1101149-3" data-name="Grupo 1101149" transform="translate(-6358.749 -9511.259) rotate(90)">
        <line id="Línea_594-6" data-name="Línea 594" y2="59.681" transform="translate(1.842 0)" fill="none" stroke="#048fe5" stroke-width="1"/>
        <g id="Elipse_11528-6" data-name="Elipse 11528" transform="translate(0 57.839)" fill="#048fe5" stroke="#048fe5" stroke-width="1">
          <circle cx="1.842" cy="1.842" r="1.842" stroke="none"/>
          <circle cx="1.842" cy="1.842" r="1.342" fill="none"/>
        </g>
      </g>
      <g id="Rectángulo_402974" data-name="Rectángulo 402974" transform="translate(-6466.321 -9404.891)" fill="#fff" stroke="#048fe5" stroke-width="1">
        <rect width="4.421" height="4.421" stroke="none"/>
        <rect x="0.5" y="0.5" width="3.421" height="3.421" fill="none"/>
      </g>
      <g id="Trazado_911304-4" data-name="Trazado 911304" transform="translate(-6357.742 -9402.949)" fill="#03000d">
        <path d="M 0.9999966025352478 107.2240524291992 L 0.9999966025352478 0.9999966025352478 L 107.1554412841797 0.9999966025352478 C 106.6315994262695 4.460333824157715 104.776969909668 15.48882007598877 100.6750793457031 28.66211128234863 C 97.77361297607422 37.98025512695312 94.33197021484375 46.53263854980469 90.44578552246094 54.08169555664062 C 85.60355377197266 63.48789596557617 80.05599975585938 71.34957885742188 73.95721435546875 77.44837951660156 C 67.85799407958984 83.54758453369141 60.17809677124023 88.91255187988281 51.13084030151367 93.39425659179688 C 43.87295532226562 96.98957061767578 35.72583770751953 100.0267944335938 26.91582489013672 102.4215850830078 C 14.49439334869385 105.7980346679688 4.236145973205566 106.9297637939453 0.9999966025352478 107.2240524291992 Z" stroke="none"/>
        <path d="M 2 2 L 2 106.1218490600586 C 6.064170837402344 105.7031097412109 15.52540588378906 104.4881896972656 26.73773193359375 101.4336700439453 C 35.47144317626953 99.05439758300781 43.54436492919922 96.04050445556641 50.73225784301758 92.47572326660156 C 59.66205978393555 88.04704284667969 67.23815155029297 82.75321197509766 73.25010681152344 76.74125671386719 C 79.27152252197266 70.71984100341797 84.75459289550781 62.94837951660156 89.54702758789062 53.64274978637695 C 93.40576171875 46.15010452270508 96.8248291015625 37.65730285644531 99.70925903320312 28.40026092529297 C 103.4198226928711 16.49189758300781 105.2846755981445 6.341835021972656 105.9865341186523 2 L 2 2 M 0 0 L 108.3095932006836 0 C 108.3095932006836 0 101.7417068481445 51.07809066772461 74.66432189941406 78.15547180175781 C 47.58691787719727 105.2328720092773 0 108.3095932006836 0 108.3095932006836 L 0 0 Z" stroke="none" fill="#048fe5"/>
      </g>
      <g id="Rectángulo_402974-2" data-name="Rectángulo 402974" transform="translate(-6252.38 -9404.423)" fill="#fff" stroke="#048fe5" stroke-width="1">
        <rect width="4.421" height="4.421" stroke="none"/>
        <rect x="0.5" y="0.5" width="3.421" height="3.421" fill="none"/>
      </g>
      <g id="Rectángulo_402976" data-name="Rectángulo 402976" transform="translate(-6359.953 -9297.587)" fill="#fff" stroke="#048fe5" stroke-width="1">
        <rect width="4.421" height="4.421" stroke="none"/>
        <rect x="0.5" y="0.5" width="3.421" height="3.421" fill="none"/>
      </g>
      <g id="Grupo_1101148-4" data-name="Grupo 1101148" transform="translate(-6252.38 -9400.371)">
        <line id="Línea_594-7" data-name="Línea 594" y2="59.681" transform="translate(1.842 0)" fill="none" stroke="#048fe5" stroke-width="1"/>
        <g id="Elipse_11528-7" data-name="Elipse 11528" transform="translate(0 57.839)" fill="#048fe5" stroke="#048fe5" stroke-width="1">
          <circle cx="1.842" cy="1.842" r="1.842" stroke="none"/>
          <circle cx="1.842" cy="1.842" r="1.342" fill="none"/>
        </g>
      </g>
      <g id="Grupo_1101149-4" data-name="Grupo 1101149" transform="translate(-6355.532 -9293.535) rotate(-90)">
        <line id="Línea_594-8" data-name="Línea 594" y2="59.681" transform="translate(1.842)" fill="none" stroke="#048fe5" stroke-width="1"/>
        <g id="Elipse_11528-8" data-name="Elipse 11528" transform="translate(0 57.839)" fill="#048fe5" stroke="#048fe5" stroke-width="1">
          <circle cx="1.842" cy="1.842" r="1.842" stroke="none"/>
          <circle cx="1.842" cy="1.842" r="1.342" fill="none"/>
        </g>
      </g>
      <g id="Rectángulo_402976-2" data-name="Rectángulo 402976" transform="translate(-6359.321 -9511.628)" fill="#fff" stroke="#048fe5" stroke-width="1">
        <rect width="4.421" height="4.421" stroke="none"/>
        <rect x="0.5" y="0.5" width="3.421" height="3.421" fill="none"/>
      </g>
    </g>
    <g id="Grupo_1101152" data-name="Grupo 1101152" transform="translate(158.92 1520.5)">
      <path id="Trazado_911257" data-name="Trazado 911257" d="M-5851.335-10819.187v24.113l6.79-7.014h9.063Z" transform="translate(6053.886 11610.43)" fill="#fff"/>
      <g id="Grupo_1101091" data-name="Grupo 1101091" transform="translate(218.403 809.089)">
        <path id="Línea_592" data-name="Línea 592" d="M2.133,12.532H-1V0H2.133Z" transform="translate(5.7)" fill="#fff"/>
        <path id="Línea_593" data-name="Línea 593" d="M12.532,2.133H0V-1H12.532Z" transform="translate(0 5.7)" fill="#fff"/>
      </g>
    </g>
  </g>
</svg>
