<svg xmlns="http://www.w3.org/2000/svg" xmlns:xlink="http://www.w3.org/1999/xlink" width="399.949" height="550" viewBox="0 0 399.949 550">
  <defs>
    <clipPath id="clip-path">
      <rect id="Rectángulo_403830" data-name="Rectángulo 403830" width="399.949" height="550" rx="10" transform="translate(1020.051 2914)" fill="#6b6dac"/>
    </clipPath>
    <clipPath id="clip-path-2">
      <rect id="Rectángulo_403804" data-name="Rectángulo 403804" width="67.77" height="67.762" transform="translate(0 0)" fill="none"/>
    </clipPath>
    <clipPath id="clip-path-3">
      <rect id="Rectángulo_403829" data-name="Rectángulo 403829" width="513.104" height="404.732" fill="none"/>
    </clipPath>
    <clipPath id="clip-path-4">
      <rect id="Rectángulo_403798" data-name="Rectángulo 403798" width="198.744" height="519.382" fill="none"/>
    </clipPath>
    <clipPath id="clip-path-6">
      <rect id="Rectángulo_403794" data-name="Rectángulo 403794" width="64.88" height="10.398" fill="none"/>
    </clipPath>
    <clipPath id="clip-path-7">
      <rect id="Rectángulo_403795" data-name="Rectángulo 403795" width="34.267" height="39.096" fill="none"/>
    </clipPath>
    <clipPath id="clip-path-8">
      <rect id="Rectángulo_403796" data-name="Rectángulo 403796" width="10.095" height="38.949" fill="none"/>
    </clipPath>
    <clipPath id="clip-path-9">
      <rect id="Rectángulo_403841" data-name="Rectángulo 403841" width="78.444" height="84.44" fill="none"/>
    </clipPath>
  </defs>
  <g id="Enmascarar_grupo_1098712" data-name="Enmascarar grupo 1098712" transform="translate(-1020.051 -2914)" clip-path="url(#clip-path)">
    <g id="Grupo_1102159" data-name="Grupo 1102159">
      <rect id="Rectángulo_403422" data-name="Rectángulo 403422" width="332.949" height="423" rx="10" transform="translate(1020.051 2914)" fill="#0f1286"/>
      <rect id="Rectángulo_403831" data-name="Rectángulo 403831" width="397.949" height="191" rx="10" transform="translate(1169.84 3374)" fill="#2e32c3"/>
      <path id="Trazado_913077" data-name="Trazado 913077" d="M314.757,173.667l50.8,132.137H263.969ZM229.321,0,0,524.635H179.86L215,433.21H414.531l35.148,91.425H632.527L403.2,0Z" transform="translate(1020.051 2963)" fill="#306ff3"/>
      <g id="Grupo_1102155" data-name="Grupo 1102155" transform="translate(1060.051 2945.281)">
        <g id="Grupo_1102154" data-name="Grupo 1102154" clip-path="url(#clip-path-2)">
          <path id="Trazado_913076" data-name="Trazado 913076" d="M43.932,33.881c-8.2,1.018-9.03,1.843-10.047,10.047-1.018-8.2-1.844-9.029-10.048-10.047,8.2-1.018,9.03-1.843,10.048-10.047,1.017,8.2,1.843,9.029,10.047,10.047" fill="#f1a23a"/>
          <rect id="Rectángulo_403799" data-name="Rectángulo 403799" width="58.824" height="58.824" transform="translate(4.473 4.465)" fill="none" stroke="#f0f3f9" stroke-miterlimit="10" stroke-width="1"/>
          <rect id="Rectángulo_403800" data-name="Rectángulo 403800" width="8.946" height="8.946" transform="translate(58.824 0)" fill="#f0f3f9"/>
          <rect id="Rectángulo_403801" data-name="Rectángulo 403801" width="8.946" height="8.946" transform="translate(0 0)" fill="#f0f3f9"/>
          <rect id="Rectángulo_403802" data-name="Rectángulo 403802" width="8.946" height="8.946" transform="translate(58.824 58.816)" fill="#f0f3f9"/>
          <rect id="Rectángulo_403803" data-name="Rectángulo 403803" width="8.946" height="8.946" transform="translate(0 58.816)" fill="#f0f3f9"/>
        </g>
      </g>
      <g id="Grupo_1102158" data-name="Grupo 1102158" transform="translate(947.252 3126.635)">
        <rect id="Rectángulo_403805" data-name="Rectángulo 403805" width="513.104" height="19.061" transform="translate(0 156.973)" fill="#a4c4ea"/>
        <rect id="Rectángulo_403806" data-name="Rectángulo 403806" width="487.73" height="14.956" transform="translate(12.687 176.034)" fill="#c8daf3"/>
        <path id="Trazado_913078" data-name="Trazado 913078" d="M28.106,118.215,9.82,331.957h9.143L50.694,118.215Z" transform="translate(6.046 72.775)" fill="#c8daf3"/>
        <rect id="Rectángulo_403807" data-name="Rectángulo 403807" width="22.588" height="1.302" transform="translate(34.151 190.339)" fill="#c8daf3"/>
        <path id="Trazado_913079" data-name="Trazado 913079" d="M282.472,118.215,314.2,331.957h9.141L305.06,118.215Z" transform="translate(173.894 72.775)" fill="#c8daf3"/>
        <rect id="Rectángulo_403808" data-name="Rectángulo 403808" width="22.59" height="1.302" transform="translate(456.366 190.339)" fill="#c8daf3"/>
        <g id="Grupo_1102157" data-name="Grupo 1102157">
          <g id="Grupo_1102156" data-name="Grupo 1102156" clip-path="url(#clip-path-3)">
            <path id="Trazado_913080" data-name="Trazado 913080" d="M164.6,3.846a1.808,1.808,0,0,0-1.845,1.764V96.159H340.73V5.61a1.807,1.807,0,0,0-1.843-1.764Z" transform="translate(100.197 2.368)" fill="#a4c4ea"/>
            <path id="Trazado_913081" data-name="Trazado 913081" d="M206.6,109.484h36.757l-5.178-36.77h-26.4Z" transform="translate(127.185 44.764)" fill="#fff"/>
            <rect id="Rectángulo_403809" data-name="Rectángulo 403809" width="68.494" height="3.74" transform="translate(317.916 154.248)" fill="#fff"/>
            <path id="Trazado_913082" data-name="Trazado 913082" d="M162.76,11.939V7.934A7.933,7.933,0,0,1,170.691,0H332.8a7.933,7.933,0,0,1,7.933,7.934v4.005Z" transform="translate(100.197)" fill="#fff"/>
            <rect id="Rectángulo_403810" data-name="Rectángulo 403810" width="36.757" height="0.961" transform="translate(333.784 153.768)" fill="#d9e6f8"/>
            <path id="Trazado_913083" data-name="Trazado 913083" d="M162.76,60.454v20.3a8.826,8.826,0,0,0,8.823,8.828H331.9a8.828,8.828,0,0,0,8.828-8.828v-20.3Z" transform="translate(100.197 37.216)" fill="#fff"/>
            <path id="Trazado_913084" data-name="Trazado 913084" d="M219.479,75.577A4.579,4.579,0,1,1,224.058,71a4.582,4.582,0,0,1-4.579,4.579m0-8.2A3.618,3.618,0,1,0,223.1,71a3.623,3.623,0,0,0-3.617-3.619" transform="translate(132.297 40.888)" fill="#d9e6f8"/>
            <rect id="Rectángulo_403811" data-name="Rectángulo 403811" width="29.168" height="0.961" transform="translate(337.579 126.318)" fill="#d9e6f8"/>
            <rect id="Rectángulo_403812" data-name="Rectángulo 403812" width="8.553" height="0.961" transform="translate(347.666 5.488)" fill="#d9e6f8"/>
            <path id="Trazado_913085" data-name="Trazado 913085" d="M164.6,7.39a8.193,8.193,0,0,0-1.845.105v5.424H340.73V7.5a8.183,8.183,0,0,0-1.843-.105Z" transform="translate(100.197 4.549)" fill="#1c1318"/>
            <path id="Trazado_913086" data-name="Trazado 913086" d="M269.417,9.455A1.053,1.053,0,1,0,270.47,8.4a1.054,1.054,0,0,0-1.053,1.053" transform="translate(165.857 5.172)" fill="#fff"/>
            <path id="Trazado_913087" data-name="Trazado 913087" d="M267.234,9.455A1.053,1.053,0,1,0,268.287,8.4a1.054,1.054,0,0,0-1.053,1.053" transform="translate(164.513 5.172)" fill="#fff"/>
            <path id="Trazado_913088" data-name="Trazado 913088" d="M265.05,9.455A1.053,1.053,0,1,0,266.1,8.4a1.054,1.054,0,0,0-1.053,1.053" transform="translate(163.169 5.172)" fill="#fff"/>
            <path id="Trazado_913089" data-name="Trazado 913089" d="M227.3,67.955H168.145V20.117H227.3ZM169.1,66.994h57.233V21.077H169.1Z" transform="translate(103.512 12.384)" fill="#d9e6f8"/>
            <rect id="Rectángulo_403813" data-name="Rectángulo 403813" width="13.978" height="0.961" transform="translate(418.82 32.501)" fill="#d9e6f8"/>
            <rect id="Rectángulo_403814" data-name="Rectángulo 403814" width="63.644" height="0.961" transform="translate(344.063 32.501)" fill="#d9e6f8"/>
            <rect id="Rectángulo_403815" data-name="Rectángulo 403815" width="55.172" height="0.961" transform="translate(377.627 39.198)" fill="#d9e6f8"/>
            <rect id="Rectángulo_403816" data-name="Rectángulo 403816" width="27.517" height="0.961" transform="translate(344.063 39.198)" fill="#d9e6f8"/>
            <rect id="Rectángulo_403817" data-name="Rectángulo 403817" width="21.497" height="0.961" transform="translate(411.301 45.895)" fill="#d9e6f8"/>
            <rect id="Rectángulo_403818" data-name="Rectángulo 403818" width="56.778" height="0.961" transform="translate(344.063 45.895)" fill="#d9e6f8"/>
            <rect id="Rectángulo_403819" data-name="Rectángulo 403819" width="49.286" height="0.961" transform="translate(383.513 52.593)" fill="#d9e6f8"/>
            <rect id="Rectángulo_403820" data-name="Rectángulo 403820" width="31.823" height="0.961" transform="translate(344.063 52.593)" fill="#d9e6f8"/>
            <rect id="Rectángulo_403821" data-name="Rectángulo 403821" width="65.442" height="0.961" transform="translate(344.063 59.288)" fill="#d9e6f8"/>
            <rect id="Rectángulo_403822" data-name="Rectángulo 403822" width="22.641" height="0.961" transform="translate(410.158 65.987)" fill="#d9e6f8"/>
            <rect id="Rectángulo_403823" data-name="Rectángulo 403823" width="32.202" height="0.961" transform="translate(369.619 65.987)" fill="#d9e6f8"/>
            <rect id="Rectángulo_403824" data-name="Rectángulo 403824" width="18.526" height="0.961" transform="translate(344.063 65.987)" fill="#d9e6f8"/>
            <rect id="Rectángulo_403825" data-name="Rectángulo 403825" width="34.085" height="0.961" transform="translate(398.714 72.682)" fill="#d9e6f8"/>
            <rect id="Rectángulo_403826" data-name="Rectángulo 403826" width="48.767" height="0.961" transform="translate(344.063 72.682)" fill="#d9e6f8"/>
            <rect id="Rectángulo_403827" data-name="Rectángulo 403827" width="42.121" height="0.961" transform="translate(375.884 79.378)" fill="#d9e6f8"/>
            <rect id="Rectángulo_403828" data-name="Rectángulo 403828" width="24.384" height="0.961" transform="translate(344.063 79.378)" fill="#d9e6f8"/>
            <path id="Trazado_913090" data-name="Trazado 913090" d="M250.448,101.445a10.62,10.62,0,0,1,10.534-9.6h13.242a10.62,10.62,0,0,1,10.535,9.6Z" transform="translate(154.179 56.543)" fill="#fff"/>
            <path id="Trazado_913091" data-name="Trazado 913091" d="M265.826,100.925l-.958-.053a8.575,8.575,0,0,1,6.419-8.135l.194.942a7.5,7.5,0,0,0-5.655,7.246" transform="translate(163.057 57.09)" fill="#d9e6f8"/>
            <path id="Trazado_913092" data-name="Trazado 913092" d="M258.8,100.925a7.5,7.5,0,0,0-5.655-7.246l.194-.942a8.575,8.575,0,0,1,6.419,8.135Z" transform="translate(155.841 57.09)" fill="#d9e6f8"/>
            <path id="Trazado_913093" data-name="Trazado 913093" d="M109.723,109.286H90.82L87.636,76.233h25.271Z" transform="translate(53.95 46.93)" fill="#fff"/>
            <path id="Trazado_913094" data-name="Trazado 913094" d="M111.359,95.71l1.268-14.1H87.763l1.267,14.1Z" transform="translate(54.028 50.242)" fill="#a4c4ea"/>
            <path id="Trazado_913095" data-name="Trazado 913095" d="M114.4,78.2H86.965l.761-3.288h25.919Z" transform="translate(53.537 46.116)" fill="#a4c4ea"/>
            <path id="Trazado_913096" data-name="Trazado 913096" d="M109.422,77.024H89.2l.561-4.168h19.1Z" transform="translate(54.912 44.851)" fill="#a4c4ea"/>
            <path id="Trazado_913097" data-name="Trazado 913097" d="M97.466,93.263a5.277,5.277,0,1,1,5.275-5.277,5.281,5.281,0,0,1-5.275,5.277m0-9.692a4.416,4.416,0,1,0,4.414,4.415,4.42,4.42,0,0,0-4.414-4.415" transform="translate(56.755 50.917)" fill="#fff"/>
          </g>
        </g>
      </g>
      <g id="Grupo_1102153" data-name="Grupo 1102153" transform="translate(1077.126 3025.618)">
        <g id="Grupo_1102152" data-name="Grupo 1102152" clip-path="url(#clip-path-4)">
          <g id="Grupo_1102151" data-name="Grupo 1102151">
            <g id="Grupo_1102150" data-name="Grupo 1102150" clip-path="url(#clip-path-4)">
              <path id="Trazado_913042" data-name="Trazado 913042" d="M0,363.591c0,9.587,43.565,17.359,97.3,17.359s97.3-7.772,97.3-17.359-43.564-17.359-97.3-17.359S0,354,0,363.591" transform="translate(4.133 138.431)" fill="#d9e6f8"/>
              <path id="Trazado_913043" data-name="Trazado 913043" d="M84.092,9.2c13.321,3.893,23.712,17.876,28.852,40.812,2.587,11.54,3.064,23.348,9.225,30.6s7.125,17.716,6.634,23.619.8,14.76,4.689,19.592L43.1,123.745s5.042-12.607,4.079-23.342-4.043-17.982-1.762-28.982,5.363-15.945,1-25.222c-6.319-13.421,3.61-46.956,37.68-37" transform="translate(4.919 2.951)" fill="#1c1318"/>
              <path id="Trazado_913044" data-name="Trazado 913044" d="M68.968,7.335A11.441,11.441,0,1,0,83.756.767,11.44,11.44,0,0,0,68.968,7.335" transform="translate(12.183 0)" fill="#1c1318"/>
              <path id="Trazado_913045" data-name="Trazado 913045" d="M92.976,16.432c0,2.247,1.888,15.035,12.253,20.055L106,43.66l6.98,23.161-16.34,12L86.54,66.973l.008-10.455c-6.739.6-12.352-3.3-12.779-10.56S73.7,32.4,71.625,28.511c0,0,10.541-.165,21.351-12.079" transform="translate(-14.498 6.57)" fill="#f0956d"/>
              <path id="Trazado_913046" data-name="Trazado 913046" d="M89.281,36.3a3.714,3.714,0,1,1-3.715-3.715A3.715,3.715,0,0,1,89.281,36.3" transform="translate(-5.115 13.027)" fill="#e25e59"/>
              <path id="Trazado_913047" data-name="Trazado 913047" d="M81.151,46.737a16.438,16.438,0,0,0,11.994-6.275" transform="translate(-7.998 16.178)" fill="none" stroke="#1c1318" stroke-miterlimit="10" stroke-width="0.464"/>
              <path id="Trazado_913048" data-name="Trazado 913048" d="M83.743,35.012c-1.811,4.1-5.846,6.3-9.011,4.9s-4.262-5.857-2.45-9.96,5.846-6.3,9.011-4.9,4.261,5.857,2.45,9.96" transform="translate(14.167 9.848)" fill="#f0956d"/>
              <path id="Trazado_913049" data-name="Trazado 913049" d="M74.149,34.305s1.172-6.219,6.551-7.447" transform="translate(14.248 10.738)" fill="none" stroke="#1c1318" stroke-miterlimit="10" stroke-width="0.464"/>
              <line id="Línea_651" data-name="Línea 651" x1="0.816" y1="3.852" transform="translate(92.183 38.862)" fill="none" stroke="#1c1318" stroke-miterlimit="10" stroke-width="0.464"/>
              <path id="Trazado_913050" data-name="Trazado 913050" d="M77.377,35.677a2.506,2.506,0,1,1-2.5-2.507A2.507,2.507,0,0,1,77.377,35.677Z" transform="translate(20.067 13.262)" fill="none" stroke="#fff" stroke-miterlimit="10" stroke-width="0.464"/>
              <path id="Trazado_913051" data-name="Trazado 913051" d="M97.454,32.243l.836-1.208a1.873,1.873,0,0,0-1.646-.588,1.9,1.9,0,1,0,2.175,1.579,1.532,1.532,0,0,0-.077-.207Z" transform="translate(-33.139 12.165)" fill="#121f32"/>
              <path id="Trazado_913052" data-name="Trazado 913052" d="M89.072,30.912l.836-1.208a1.864,1.864,0,0,0-1.646-.587A1.9,1.9,0,1,0,90.437,30.7a1.605,1.605,0,0,0-.077-.207Z" transform="translate(-13.024 11.633)" fill="#121f32"/>
              <path id="Trazado_913053" data-name="Trazado 913053" d="M90.039,31.456s.042,2.031,0,3.715,1.942,2.594,4.1,1.17" transform="translate(-21.428 12.577)" fill="none" stroke="#1c1318" stroke-miterlimit="10" stroke-width="0.464"/>
              <path id="Trazado_913054" data-name="Trazado 913054" d="M85.653,38.225a8.944,8.944,0,0,0,9.593-3.276" transform="translate(-16.401 13.973)" fill="none" stroke="#1c1318" stroke-miterlimit="10" stroke-width="0.464"/>
              <line id="Línea_652" data-name="Línea 652" x2="2.191" y2="1.341" transform="translate(77.433 48.101)" fill="none" stroke="#1c1318" stroke-miterlimit="10" stroke-width="0.464"/>
              <path id="Trazado_913055" data-name="Trazado 913055" d="M85.089,26.692s4.71-1.551,7.993-.382" transform="translate(-13.447 10.345)" fill="none" stroke="#7b2a27" stroke-linecap="round" stroke-linejoin="round" stroke-width="0.971"/>
              <path id="Trazado_913056" data-name="Trazado 913056" d="M94.041,28.383a8.434,8.434,0,0,1,6.308-.686" transform="translate(-33.245 10.934)" fill="none" stroke="#7b2a27" stroke-linecap="round" stroke-linejoin="round" stroke-width="0.971"/>
              <path id="Trazado_913057" data-name="Trazado 913057" d="M144.665,314.195l-.024,28.793A17.613,17.613,0,0,0,145.679,349a78.873,78.873,0,0,1,4.636,28.1l-66.357-.056s3.88-8.788,21.456-14.18a23.98,23.98,0,0,0,8.477-4.73l6.474-5.511a13.206,13.206,0,0,0,4.439-12.393l-4.678-26.058Z" transform="translate(-69.13 125.614)" fill="#f0956d"/>
              <path id="Trazado_913058" data-name="Trazado 913058" d="M147.194,342.439,131.1,350.1l-11.863-7.777-5.35,4.554a24.029,24.029,0,0,1-8.476,4.73c-17.576,5.392-21.456,14.18-21.456,14.18l66.357.055a77.182,77.182,0,0,0-3.122-23.406" transform="translate(-69.13 136.87)" fill="#1c1318"/>
              <path id="Trazado_913059" data-name="Trazado 913059" d="M12.01,314.222l5.757,32.305a15.1,15.1,0,0,1,.071,4.88l-3.808,25.718,50.805.043s-.686-7.6-3.1-9.68-9.326-7.265-9.326-7.265L42.039,349.451a14.252,14.252,0,0,1-3.954-8.959l-1.709-26.249Z" transform="translate(117.096 125.633)" fill="#f0956d"/>
              <path id="Trazado_913060" data-name="Trazado 913060" d="M40.412,339.679a24.846,24.846,0,0,0-17.585,8.829l-7.5-3.938-3.315,22.376,50.805.042s-.685-7.6-3.1-9.68-9.326-7.265-9.326-7.265Z" transform="translate(119.115 135.811)" fill="#1c1318"/>
              <path id="Trazado_913061" data-name="Trazado 913061" d="M61.084,75.89l21.794-23.31,26.438-.151,14.756,23.514-12.548,77.944-49.209-.041Z" transform="translate(-10.835 20.962)" fill="#306ff3"/>
              <path id="Trazado_913062" data-name="Trazado 913062" d="M70.348,74.589l15.135-12.6,17.953,17.642" transform="translate(-3.166 24.784)" fill="none" stroke="#fff" stroke-miterlimit="10" stroke-width="0.464"/>
              <line id="Línea_653" data-name="Línea 653" x1="9.699" y2="74.644" transform="translate(72.612 92.733)" fill="none" stroke="#fff" stroke-miterlimit="10" stroke-width="0.464"/>
              <path id="Trazado_913063" data-name="Trazado 913063" d="M122.457,164.469l40.763,229-46.657-.041L68.651,188.1,82.862,396l-47.175-.039-13.1-241.336L44.08,125.163l67.7,1.786Z" transform="translate(3.9 50.043)" fill="#ea513b"/>
              <path id="Trazado_913064" data-name="Trazado 913064" d="M149.754,164.469l-10.682-37.519-67.7-1.786L49.888,154.621l.326,6.005c14.686.305,63.065,2.517,102.092,18.179Z" transform="translate(-23.396 50.043)" fill="#d83b2b"/>
              <path id="Trazado_913065" data-name="Trazado 913065" d="M95.128,186.756l-4.979-19.744,3.516-38.492" transform="translate(-22.576 51.385)" fill="none" stroke="#1c1318" stroke-miterlimit="10" stroke-width="0.464"/>
              <line id="Línea_654" data-name="Línea 654" x2="44.415" y2="0.038" transform="translate(52.476 222.312)" fill="none" stroke="#1c1318" stroke-miterlimit="10" stroke-width="0.464"/>
              <line id="Línea_655" data-name="Línea 655" x2="2.542" y2="34.563" transform="translate(65.389 179.899)" fill="none" stroke="#1c1318" stroke-miterlimit="10" stroke-width="0.464"/>
              <line id="Línea_656" data-name="Línea 656" x2="12.23" y2="251.271" transform="translate(41.872 194.741)" fill="none" stroke="#1c1318" stroke-miterlimit="10" stroke-width="0.464"/>
              <line id="Línea_657" data-name="Línea 657" x2="45.193" y2="248.707" transform="translate(100.672 194.791)" fill="none" stroke="#1c1318" stroke-miterlimit="10" stroke-width="0.464"/>
              <g id="Grupo_1102143" data-name="Grupo 1102143" transform="translate(46.72 171.762)" opacity="0.2">
                <g id="Grupo_1102142" data-name="Grupo 1102142">
                  <g id="Grupo_1102141" data-name="Grupo 1102141" clip-path="url(#clip-path-6)">
                    <rect id="Rectángulo_403793" data-name="Rectángulo 403793" width="64.871" height="10.345" transform="translate(0.005 0.026)" fill="#4f454d"/>
                  </g>
                </g>
              </g>
              <path id="Trazado_913066" data-name="Trazado 913066" d="M62.656,52.429,46.765,149.858a26.835,26.835,0,0,0,.959,12.6l6.289,19.393a5.378,5.378,0,0,0,7.8,3l31.072-17.909L79.426,146.449l17.832-62.87A18.012,18.012,0,0,0,86.578,61.925Z" transform="translate(35.826 20.962)" fill="#fff"/>
              <line id="Línea_658" data-name="Línea 658" x1="16.428" y2="13.787" transform="translate(91.996 168.358)" fill="none" stroke="#1c1318" stroke-miterlimit="10" stroke-width="0.464"/>
              <path id="Trazado_913067" data-name="Trazado 913067" d="M81.976,55l1.5,2.3a23.094,23.094,0,0,1,.836,23.825l-2.889,5.195,3.225,9.545a16.416,16.416,0,0,1-.914,12.677L66.208,143.066" transform="translate(18.848 21.989)" fill="none" stroke="#1c1318" stroke-miterlimit="10" stroke-width="0.464"/>
              <g id="Grupo_1102146" data-name="Grupo 1102146" transform="translate(94.446 167.413)" opacity="0.2">
                <g id="Grupo_1102145" data-name="Grupo 1102145" transform="translate(0)">
                  <g id="Grupo_1102144" data-name="Grupo 1102144" transform="translate(0)" clip-path="url(#clip-path-7)">
                    <path id="Trazado_913068" data-name="Trazado 913068" d="M70.834,119.6,50.028,158.665a5.306,5.306,0,0,0,3.194-.672L84.3,140.085Z" transform="translate(-50.028 -119.596)" fill="#4f454d"/>
                  </g>
                </g>
              </g>
              <g id="Grupo_1102149" data-name="Grupo 1102149" transform="translate(115.724 119.114)" opacity="0.2">
                <g id="Grupo_1102148" data-name="Grupo 1102148" transform="translate(0)">
                  <g id="Grupo_1102147" data-name="Grupo 1102147" clip-path="url(#clip-path-8)">
                    <path id="Trazado_913069" data-name="Trazado 913069" d="M52.1,85.092l2.18,38.949,7.915-27.907Z" transform="translate(-52.096 -85.092)" fill="#4f454d"/>
                  </g>
                </g>
              </g>
              <path id="Trazado_913070" data-name="Trazado 913070" d="M55.249,148.7l21.219,4.731-13-14.277Z" transform="translate(44.937 55.639)" fill="#f0956d"/>
              <path id="Trazado_913071" data-name="Trazado 913071" d="M162.556,52.537l-12.7,124.926a6.917,6.917,0,0,1-6.887,6.218l-31.331-.027s12.468-30.1,22.59-46.659l-.251-9.053-14.725,15.509a16.659,16.659,0,0,1-26.072-20.514l31.808-49.2A31.767,31.767,0,0,1,140,61.437Z" transform="translate(-90.514 21.005)" fill="#fff"/>
              <path id="Trazado_913072" data-name="Trazado 913072" d="M104.654,53.925c-3.634,5.441-13.361,13.6-5.858,30.582-7.787,13.732-9.358,32.255-3.675,54.944" transform="translate(-34.298 21.56)" fill="none" stroke="#1c1318" stroke-miterlimit="10" stroke-width="0.464"/>
              <line id="Línea_659" data-name="Línea 659" y1="25.487" x2="2.856" transform="translate(27.562 130.015)" fill="none" stroke="#1c1318" stroke-miterlimit="10" stroke-width="0.464"/>
              <path id="Trazado_913073" data-name="Trazado 913073" d="M157.843,129.09l-49.334-.042L84.3,59.424l49.334.042Z" transform="translate(-77.11 23.759)" fill="#f1a23a"/>
              <path id="Trazado_913074" data-name="Trazado 913074" d="M23.528,94.344l22.6,39.937-26.99,37.65L37.1,191.645l37.608-34.9a24.958,24.958,0,0,0,5.177-29.791L54.754,78.533A37.77,37.77,0,0,0,35.166,60.825l-9.152-3.634Z" transform="translate(89.26 22.866)" fill="#fff"/>
              <line id="Línea_660" data-name="Línea 660" y1="8.116" x2="6.141" transform="translate(135.392 149.032)" fill="none" stroke="#1c1318" stroke-miterlimit="10" stroke-width="0.464"/>
              <path id="Trazado_913075" data-name="Trazado 913075" d="M120.425,89.647a28.03,28.03,0,0,1,6.485-6.669,43.573,43.573,0,0,1,5.164-3.026,2.446,2.446,0,0,1,2.877.508l2.475,2.606a2.457,2.457,0,0,1,.33,2.944l-5.736,9.673s8.493-4.528,9.075-4.139c.347.231-2.895,3.861-5.588,6.774a7.282,7.282,0,0,1-8.763,1.536c-3.55-1.9-7.381-5.17-6.319-10.206" transform="translate(-110.698 31.862)" fill="#f0956d"/>
              <line id="Línea_661" data-name="Línea 661" y1="7.728" x2="9.937" transform="translate(14.782 112.812)" fill="none" stroke="#1c1318" stroke-miterlimit="10" stroke-width="0.464"/>
              <line id="Línea_662" data-name="Línea 662" y1="9.992" x2="8.224" transform="translate(18.343 114.959)" fill="none" stroke="#1c1318" stroke-miterlimit="10" stroke-width="0.464"/>
            </g>
          </g>
        </g>
      </g>
    </g>
    <g id="Grupo_1102160" data-name="Grupo 1102160" transform="translate(1264.051 2963.279)">
      <g id="Grupo_1102160-2" data-name="Grupo 1102160" transform="translate(0 0)" clip-path="url(#clip-path-9)">
        <path id="Trazado_913098" data-name="Trazado 913098" d="M54.8,30.276a20.155,20.155,0,0,0-20.321-17.3,20.156,20.156,0,0,0-20.322,17.3c-1.028,7.439.907,11.734,4.6,17.782,4.037,6.617,5.565,15.725,5.565,15.725H44.64s1.528-9.108,5.565-15.725c3.689-6.048,5.624-10.342,4.6-17.782" transform="translate(4.743 4.434)" fill="#f1a23a"/>
        <path id="Trazado_913099" data-name="Trazado 913099" d="M31.961,50.693a87.355,87.355,0,0,1-10.706-.534l2.03,13.986c.062.421,3.946.759,8.676.759s8.614-.338,8.676-.759l2.03-13.986a87.355,87.355,0,0,1-10.706.534" transform="translate(7.261 17.134)" fill="#1c1318"/>
        <path id="Trazado_913100" data-name="Trazado 913100" d="M36.176,61c0,2.18-2.477,3.947-5.533,3.947S25.111,63.183,25.111,61s2.478-3.947,5.533-3.947S36.176,58.823,36.176,61" transform="translate(8.578 19.49)" fill="#1c1318"/>
        <path id="Trazado_913101" data-name="Trazado 913101" d="M36.378,42.02l.949-6.5h-.009c.043-.252.083-.51.122-.775.7-4.826.385-9.582-.865-9.582-.774,0-1.607,1.937-2.187,4.637-.207-2.7-.771-4.637-1.546-4.637S31.368,27.1,30.975,29.8c-.393-2.7-1.092-4.637-1.868-4.637S27.768,27.1,27.562,29.8c-.58-2.7-1.413-4.637-2.188-4.637-1.249,0-1.567,4.756-.864,9.582.039.266.079.523.122.775l.939,6.5" transform="translate(8.247 8.595)" fill="none" stroke="#fff" stroke-linecap="round" stroke-linejoin="round" stroke-width="1"/>
        <rect id="Rectángulo_403832" data-name="Rectángulo 403832" width="1.152" height="11.486" transform="translate(25.094 2.592) rotate(-19.999)" fill="#1c1318"/>
        <rect id="Rectángulo_403833" data-name="Rectángulo 403833" width="1.152" height="11.485" transform="translate(13.245 9.665) rotate(-40.001)" fill="#1c1318"/>
        <rect id="Rectángulo_403834" data-name="Rectángulo 403834" width="1.152" height="11.485" transform="translate(4.531 20.362) rotate(-59.997)" fill="#1c1318"/>
        <rect id="Rectángulo_403835" data-name="Rectángulo 403835" width="1.153" height="11.485" transform="matrix(0.174, -0.985, 0.985, 0.174, 0, 33.396)" fill="#1c1318"/>
        <rect id="Rectángulo_403836" data-name="Rectángulo 403836" width="1.152" height="11.485" transform="translate(38.646 0)" fill="#1c1318"/>
        <rect id="Rectángulo_403837" data-name="Rectángulo 403837" width="11.486" height="1.153" transform="translate(48.338 12.99) rotate(-69.983)" fill="#1c1318"/>
        <rect id="Rectángulo_403838" data-name="Rectángulo 403838" width="11.485" height="1.152" transform="matrix(0.643, -0.766, 0.766, 0.643, 56.934, 17.723)" fill="#1c1318"/>
        <rect id="Rectángulo_403839" data-name="Rectángulo 403839" width="11.485" height="1.152" transform="translate(63.392 25.109) rotate(-30.026)" fill="#1c1318"/>
        <rect id="Rectángulo_403840" data-name="Rectángulo 403840" width="11.485" height="1.153" transform="translate(66.933 34.253) rotate(-9.989)" fill="#1c1318"/>
      </g>
    </g>
  </g>
</svg>
