<svg xmlns="http://www.w3.org/2000/svg" xmlns:xlink="http://www.w3.org/1999/xlink" width="50" height="50" viewBox="0 0 50 50">
  <defs>
    <clipPath id="clip-path">
      <rect id="Rect치ngulo_403443" data-name="Rect치ngulo 403443" width="21.942" height="16.881" transform="translate(0 0)" fill="none"/>
    </clipPath>
  </defs>
  <g id="Grupo_1102228" data-name="Grupo 1102228" transform="translate(-180 -4435)">
    <rect id="Rect치ngulo_403442" data-name="Rect치ngulo 403442" width="50" height="50" transform="translate(180 4435)" fill="#ffc7b8"/>
    <g id="Grupo_1101709" data-name="Grupo 1101709" transform="translate(0 3821)">
      <g id="Grupo_1101199" data-name="Grupo 1101199" transform="translate(0 -157)">
        <path id="Trazado_911258" data-name="Trazado 911258" d="M15.5,0A15.5,15.5,0,1,1,0,15.5,15.5,15.5,0,0,1,15.5,0Z" transform="translate(190.051 781)" fill="#3c3c3c"/>
      </g>
      <g id="Grupo_1101711" data-name="Grupo 1101711" transform="translate(194.58 631)">
        <g id="Grupo_1101710" data-name="Grupo 1101710" transform="translate(0 0)" clip-path="url(#clip-path)">
          <path id="Trazado_911849" data-name="Trazado 911849" d="M21.917,7.495a3.886,3.886,0,0,0-3.488-3.284C15.907,4.162,15,8.246,11.174,7.654a2.805,2.805,0,0,1-.909-.306l2.422-2.458a2.049,2.049,0,0,0,1.062.295A2.054,2.054,0,1,0,11.993,4.2l-2.5,2.538a2.9,2.9,0,0,1-.569-.954L7.529,1.9A2.9,2.9,0,0,0,6.156.3C3.643-1,.7,2.262,2.98,4.431c.4-1.446,1.134-2.34,1.565-2.256A1.312,1.312,0,0,1,5.494,3.19a2.026,2.026,0,0,1-.2,1.505c-.248.45-.549.978-.829,1.475a5.566,5.566,0,0,0-.547,4.195,4.943,4.943,0,0,0,.622,1.4L3.2,13.122a2.059,2.059,0,1,0,.658.727l1.3-1.32a5.825,5.825,0,0,0,5.122,1.463A6.107,6.107,0,0,0,13.4,12.408l.118-.111a15.446,15.446,0,0,0,2.855-3.685c.789-1.393,1.9-2.082,2.575-1.9.887.24,2.021,1.4,1.076,4.53a4.021,4.021,0,0,0,1.89-3.748m-8.93-5.122a1.075,1.075,0,1,1,0,1.521,1.072,1.072,0,0,1,0-1.521M2.814,15.588a1.075,1.075,0,1,1,0-1.521,1.077,1.077,0,0,1,0,1.521m4.452-3.022a2.857,2.857,0,0,1-1.637-.513,2.914,2.914,0,0,1-.7-.688,2.872,2.872,0,1,1,2.335,1.2" transform="translate(0 0)" fill="#b6b5b6"/>
          <path id="Trazado_911850" data-name="Trazado 911850" d="M28.489,37.506a1.828,1.828,0,0,0-.9-.236,1.851,1.851,0,0,0-1.848,1.848,1.831,1.831,0,0,0,.25.926,1.852,1.852,0,0,0,.7.687,1.828,1.828,0,0,0,.9.236,1.848,1.848,0,0,0,.9-3.461" transform="translate(-20.32 -29.425)" fill="#b6b5b6"/>
        </g>
      </g>
    </g>
  </g>
</svg>
