<svg xmlns="http://www.w3.org/2000/svg" width="461" height="230.453" viewBox="0 0 461 230.453">
  <g id="Grupo_1102041" data-name="Grupo 1102041" transform="translate(-206.051 -1339)">
    <g id="Rectángulo_403408" data-name="Rectángulo 403408" transform="translate(206.051 1339)" fill="#fef6ed" stroke="#9a9ef7" stroke-width="1">
      <rect width="461" height="230.453" rx="9" stroke="none"/>
      <rect x="0.5" y="0.5" width="460" height="229.453" rx="8.5" fill="none"/>
    </g>
    <g id="Grupo_1102040" data-name="Grupo 1102040" transform="translate(-0.327 -0.5)">
      <g id="Grupo_1102034" data-name="Grupo 1102034" transform="translate(248.203 1404.059)">
        <g id="Grupo_1102038" data-name="Grupo 1102038" transform="translate(0 0)">
          <path id="Trazado_912916" data-name="Trazado 912916" d="M130.416,84.231,56.5,84.56,18.3,109.342,23.67,84.706l2.722-.012C12.242,84.758.726,74.55.669,61.9L.5,23.986C.446,11.334,11.869,1.025,26.017.962L130.045.5c14.149-.063,25.661,10.142,25.719,22.793l.167,37.915c.056,12.652-11.368,22.958-25.515,23.021" transform="translate(0.675 0.677)" fill="#ffd69b"/>
          <path id="Trazado_912918" data-name="Trazado 912918" d="M49.782,14.122s6.029-8.593,15.759-7,14.382,12.076,13,18.8C77.253,32.233,76.806,41.564,54.582,58.4a7.707,7.707,0,0,1-9.279.007c-7.375-5.535-21.056-16.969-23.108-26.972-2.83-13.8,1.537-19.719,8.6-23.381s16.5,1.8,18.991,6.064" transform="translate(28.791 9.253)" fill="#ff9a09"/>
        </g>
      </g>
      <line id="Línea_643" data-name="Línea 643" y2="144" transform="translate(436.551 1382.5)" fill="none" stroke="#ff9a09" stroke-width="1"/>
      <g id="Grupo_1102037" data-name="Grupo 1102037">
        <g id="Grupo_1102035" data-name="Grupo 1102035" transform="translate(467.118 1404.059)">
          <g id="Grupo_1102036" data-name="Grupo 1102036" transform="translate(0 0)">
            <path id="Trazado_912916-2" data-name="Trazado 912916" d="M26.015,84.231l73.917.329,38.195,24.782-5.366-24.636-2.722-.012c14.149.063,25.665-10.144,25.722-22.8l.169-37.913c.054-12.652-11.368-22.96-25.517-23.024L26.386.5C12.238.438.726,10.643.667,23.295L.5,61.21C.444,73.862,11.869,84.168,26.015,84.231" transform="translate(0.675 0.677)" fill="#ffd69b" stroke="#048fe5" stroke-width="1"/>
            <path id="Trazado_912918-2" data-name="Trazado 912918" d="M50.322,14.122s-6.029-8.593-15.759-7-14.382,12.076-13,18.8C22.852,32.233,23.3,41.564,45.523,58.4a7.707,7.707,0,0,0,9.279.007c7.375-5.535,21.056-16.969,23.108-26.972,2.83-13.8-1.537-19.719-8.6-23.381s-16.5,1.8-18.991,6.064" transform="translate(28.886 9.253)" fill="#ff9a09" stroke="#048fe5" stroke-width="1"/>
          </g>
        </g>
        <rect id="Rectángulo_403640" data-name="Rectángulo 403640" width="3" height="3" transform="translate(545.051 1426)" fill="#048fe5"/>
        <rect id="Rectángulo_403641" data-name="Rectángulo 403641" width="3" height="3" transform="translate(545.051 1472)" fill="#048fe5"/>
        <rect id="Rectángulo_403642" data-name="Rectángulo 403642" width="3" height="3" transform="translate(516.051 1437)" fill="#048fe5"/>
        <rect id="Rectángulo_403643" data-name="Rectángulo 403643" width="3" height="3" transform="translate(573.051 1439)" fill="#048fe5"/>
        <rect id="Rectángulo_403644" data-name="Rectángulo 403644" width="3" height="3" transform="translate(566.051 1421)" fill="#048fe5"/>
        <rect id="Rectángulo_403645" data-name="Rectángulo 403645" width="3" height="3" transform="translate(524.051 1421)" fill="#048fe5"/>
        <rect id="Rectángulo_403646" data-name="Rectángulo 403646" width="3" height="3" transform="translate(491.051 1404)" fill="#048fe5"/>
        <rect id="Rectángulo_403647" data-name="Rectángulo 403647" width="3" height="3" transform="translate(467.051 1423)" fill="#048fe5"/>
        <rect id="Rectángulo_403648" data-name="Rectángulo 403648" width="3" height="3" transform="translate(491.051 1487)" fill="#048fe5"/>
        <rect id="Rectángulo_403655" data-name="Rectángulo 403655" width="3" height="3" transform="translate(467.051 1466)" fill="#048fe5"/>
        <rect id="Rectángulo_403649" data-name="Rectángulo 403649" width="3" height="3" transform="translate(566.051 1488)" fill="#048fe5"/>
        <rect id="Rectángulo_403650" data-name="Rectángulo 403650" width="3" height="3" transform="translate(605.051 1513)" fill="#048fe5"/>
        <rect id="Rectángulo_403651" data-name="Rectángulo 403651" width="3" height="3" transform="translate(598.051 1488)" fill="#048fe5"/>
        <rect id="Rectángulo_403652" data-name="Rectángulo 403652" width="3" height="3" transform="translate(622.051 1466)" fill="#048fe5"/>
        <rect id="Rectángulo_403653" data-name="Rectángulo 403653" width="3" height="3" transform="translate(622.051 1429)" fill="#048fe5"/>
        <rect id="Rectángulo_403654" data-name="Rectángulo 403654" width="3" height="3" transform="translate(600.051 1405)" fill="#048fe5"/>
      </g>
      <g id="Grupo_1102039" data-name="Grupo 1102039" transform="translate(-210.351 412.196)">
        <path id="Elipse_11567" data-name="Elipse 11567" d="M2.475.45A2.025,2.025,0,1,0,4.5,2.475,2.028,2.028,0,0,0,2.475.45m0-.45A2.475,2.475,0,1,1,0,2.475,2.475,2.475,0,0,1,2.475,0Z" transform="translate(753.701 1030.226)" fill="#08ecff"/>
        <path id="Línea_643-2" data-name="Línea 643" d="M-.275,3.305A.225.225,0,0,1-.5,3.08V-.275A.225.225,0,0,1-.275-.5.225.225,0,0,1-.05-.275V3.08A.225.225,0,0,1-.275,3.305Z" transform="translate(756.452 1026)" fill="#08ecff"/>
        <path id="Línea_644" data-name="Línea 644" d="M-.275,3.305A.225.225,0,0,1-.5,3.08V-.275A.225.225,0,0,1-.275-.5.225.225,0,0,1-.05-.275V3.08A.225.225,0,0,1-.275,3.305Z" transform="translate(756.452 1036.801)" fill="#08ecff"/>
        <path id="Línea_645" data-name="Línea 645" d="M.225,3.805A.225.225,0,0,1,0,3.58V.225a.225.225,0,0,1,.45,0V3.58A.225.225,0,0,1,.225,3.805Z" transform="translate(763.48 1032.476) rotate(90)" fill="#08ecff"/>
        <path id="Línea_646" data-name="Línea 646" d="M.225,3.805A.225.225,0,0,1,0,3.58V.225a.225.225,0,0,1,.45,0V3.58A.225.225,0,0,1,.225,3.805Z" transform="translate(753.129 1032.476) rotate(90)" fill="#08ecff"/>
        <path id="Elipse_11568" data-name="Elipse 11568" d="M.675.45A.225.225,0,1,0,.9.675.225.225,0,0,0,.675.45m0-.45A.675.675,0,1,1,0,.675.675.675,0,0,1,.675,0Z" transform="translate(755.501 1032.026)" fill="#08ecff"/>
      </g>
    </g>
  </g>
</svg>
