<svg xmlns="http://www.w3.org/2000/svg" width="74" height="74" viewBox="0 0 74 74">
  <g id="Grupo_1102043" data-name="Grupo 1102043" transform="translate(-707.051 -1355)">
    <circle id="Elipse_11544" data-name="Elipse 11544" cx="37" cy="37" r="37" transform="translate(707.051 1355)" fill="#9a9ef7"/>
    <g id="reflejar" transform="translate(720.051 1367.5)">
      <path id="Trazado_912919" data-name="Trazado 912919" d="M5.523,4.277A2.233,2.233,0,0,0,2,6.1V43.51a2.233,2.233,0,0,0,3.523,1.822L20.409,34.788a2.233,2.233,0,0,0,.942-1.822V16.643a2.233,2.233,0,0,0-.942-1.822Z" transform="translate(0 -0.348)" fill="#57a0d7"/>
      <path id="Trazado_912920" data-name="Trazado 912920" d="M51.828,4.277A2.233,2.233,0,0,1,55.351,6.1V43.51a2.233,2.233,0,0,1-3.523,1.822L36.942,34.788A2.233,2.233,0,0,1,36,32.966V16.643a2.233,2.233,0,0,1,.942-1.822Z" transform="translate(-8.695 -0.348)" fill="#feed58"/>
      <g id="Grupo_1102042" data-name="Grupo 1102042" transform="translate(2 2.5)">
        <path id="Trazado_912921" data-name="Trazado 912921" d="M31.744,2.5a.744.744,0,0,1,.744.744v2.14a.744.744,0,1,1-1.489,0V3.244A.744.744,0,0,1,31.744,2.5Zm0,6.419a.744.744,0,0,1,.744.744v4.28a.744.744,0,1,1-1.489,0V9.664A.744.744,0,0,1,31.744,8.919Zm0,8.559a.744.744,0,0,1,.744.744V22.5A.744.744,0,1,1,31,22.5v-4.28A.744.744,0,0,1,31.744,17.478Zm0,8.559a.744.744,0,0,1,.744.744v4.28a.744.744,0,1,1-1.489,0v-4.28A.744.744,0,0,1,31.744,26.038Zm0,8.559a.744.744,0,0,1,.744.744v4.28a.744.744,0,1,1-1.489,0v-4.28A.744.744,0,0,1,31.744,34.6Zm0,8.559a.744.744,0,0,1,.744.744v2.14a.744.744,0,1,1-1.489,0V43.9A.744.744,0,0,1,31.744,43.156Z" transform="translate(-9.416 -2.5)" fill="#9e9d9e" fill-rule="evenodd"/>
        <path id="Trazado_912922" data-name="Trazado 912922" d="M2,6.1A2.233,2.233,0,0,1,5.523,4.277L20.409,14.821a2.233,2.233,0,0,1,.942,1.822V32.966a2.233,2.233,0,0,1-.942,1.822L5.523,45.332A2.233,2.233,0,0,1,2,43.51Zm2.663-.607A.744.744,0,0,0,3.489,6.1V43.51a.744.744,0,0,0,1.174.607L19.548,33.573a.744.744,0,0,0,.314-.607V16.643a.744.744,0,0,0-.314-.607Z" transform="translate(-2 -2.848)" fill-rule="evenodd"/>
        <path id="Trazado_912923" data-name="Trazado 912923" d="M55.351,6.1a2.233,2.233,0,0,0-3.523-1.822L36.942,14.821A2.233,2.233,0,0,0,36,16.643V32.966a2.233,2.233,0,0,0,.942,1.822L51.828,45.332a2.233,2.233,0,0,0,3.523-1.822Zm-2.663-.607a.744.744,0,0,1,1.174.607V43.51a.744.744,0,0,1-1.174.607L37.8,33.573a.744.744,0,0,1-.314-.607V16.643a.744.744,0,0,1,.314-.607Z" transform="translate(-10.695 -2.848)" fill-rule="evenodd"/>
        <path id="Trazado_912924" data-name="Trazado 912924" d="M31.744,2.5a.744.744,0,0,1,.744.744v2.14a.744.744,0,1,1-1.489,0V3.244A.744.744,0,0,1,31.744,2.5Zm0,6.419a.744.744,0,0,1,.744.744v4.28a.744.744,0,1,1-1.489,0V9.664A.744.744,0,0,1,31.744,8.919Zm0,8.559a.744.744,0,0,1,.744.744V22.5A.744.744,0,1,1,31,22.5v-4.28A.744.744,0,0,1,31.744,17.478Zm0,8.559a.744.744,0,0,1,.744.744v4.28a.744.744,0,1,1-1.489,0v-4.28A.744.744,0,0,1,31.744,26.038Zm0,8.559a.744.744,0,0,1,.744.744v4.28a.744.744,0,1,1-1.489,0v-4.28A.744.744,0,0,1,31.744,34.6Zm0,8.559a.744.744,0,0,1,.744.744v2.14a.744.744,0,1,1-1.489,0V43.9A.744.744,0,0,1,31.744,43.156Z" transform="translate(-9.416 -2.5)" fill-rule="evenodd"/>
      </g>
    </g>
  </g>
</svg>
