<svg xmlns="http://www.w3.org/2000/svg" xmlns:xlink="http://www.w3.org/1999/xlink" width="399.949" height="460" viewBox="0 0 399.949 460">
  <defs>
    <clipPath id="clip-path">
      <rect id="Rectángulo_403658" data-name="Rectángulo 403658" width="133.284" height="134.905" fill="none"/>
    </clipPath>
    <clipPath id="clip-path-2">
      <rect id="Rectángulo_403658-2" data-name="Rectángulo 403658" width="229.134" height="231.921" fill="none"/>
    </clipPath>
  </defs>
  <g id="Grupo_1102049" data-name="Grupo 1102049" transform="translate(-181.051 -1920)">
    <rect id="Rectángulo_403412" data-name="Rectángulo 403412" width="399.949" height="460" rx="10" transform="translate(181.051 1920)" fill="#fff4d6"/>
    <g id="Grupo_1102046" data-name="Grupo 1102046" transform="translate(230.875 1964.682)">
      <path id="Trazado_912925" data-name="Trazado 912925" d="M14.737,130.5,66.983,76.147,6.033,10.328Z" transform="translate(-1.453 -2.487)" fill="#ffe284"/>
      <path id="Trazado_912926" data-name="Trazado 912926" d="M127.679,66.759,14.7,11.624,72.722,74.277Z" transform="translate(-3.541 -2.799)" fill="#ffe284"/>
      <path id="Trazado_912927" data-name="Trazado 912927" d="M86.03,126.894l-.664-23.222-6.835,7.11Z" transform="translate(-18.913 -24.967)" fill="#ffe284"/>
      <g id="Grupo_1102045" data-name="Grupo 1102045">
        <g id="Grupo_1102044" data-name="Grupo 1102044" clip-path="url(#clip-path)">
          <path id="Trazado_912928" data-name="Trazado 912928" d="M2.642,0a2.061,2.061,0,0,1,.247,0,2.056,2.056,0,0,0-.247,0" transform="translate(-0.636 0)" fill="#ffc816"/>
          <path id="Trazado_912929" data-name="Trazado 912929" d="M3.11.027a2.026,2.026,0,0,1,.231.044A2.207,2.207,0,0,0,3.11.027" transform="translate(-0.749 -0.007)" fill="#ffc816"/>
          <path id="Trazado_912930" data-name="Trazado 912930" d="M2.159.048A2.078,2.078,0,0,1,2.433,0a2.118,2.118,0,0,0-.274.043" transform="translate(-0.52 -0.001)" fill="#ffc816"/>
          <path id="Trazado_912931" data-name="Trazado 912931" d="M3.555.126a2.2,2.2,0,0,1,.232.089A2.139,2.139,0,0,0,3.555.126" transform="translate(-0.856 -0.03)" fill="#ffc816"/>
          <path id="Trazado_912932" data-name="Trazado 912932" d="M.152,1.78C.173,1.718.2,1.657.224,1.6c-.027.06-.05.122-.072.184" transform="translate(-0.037 -0.384)" fill="#ffc816"/>
          <path id="Trazado_912933" data-name="Trazado 912933" d="M.04,2.217c.011-.067.023-.133.04-.2-.017.065-.029.131-.04.2" transform="translate(-0.01 -0.486)" fill="#ffc816"/>
          <path id="Trazado_912934" data-name="Trazado 912934" d="M.892.663a2.105,2.105,0,0,1,.19-.15,2.03,2.03,0,0,0-.19.15" transform="translate(-0.215 -0.124)" fill="#ffc816"/>
          <path id="Trazado_912935" data-name="Trazado 912935" d="M.334,1.37A2.015,2.015,0,0,1,.442,1.2C.4,1.252.367,1.31.334,1.37" transform="translate(-0.08 -0.288)" fill="#ffc816"/>
          <path id="Trazado_912936" data-name="Trazado 912936" d="M.584.992A1.975,1.975,0,0,1,.729.83,2.091,2.091,0,0,0,.584.992" transform="translate(-0.141 -0.2)" fill="#ffc816"/>
          <path id="Trazado_912937" data-name="Trazado 912937" d="M1.548.186a2.114,2.114,0,0,0-.3.162,2.089,2.089,0,0,1,.63-.272,2.023,2.023,0,0,0-.329.11" transform="translate(-0.3 -0.018)" fill="#ffc816"/>
          <path id="Trazado_912938" data-name="Trazado 912938" d="M0,2.672a2.06,2.06,0,0,1,.007-.216A2.047,2.047,0,0,0,0,2.672" transform="translate(0 -0.591)" fill="#ffc816"/>
          <path id="Trazado_912939" data-name="Trazado 912939" d="M56.253,84.214a2.08,2.08,0,0,1,2.763,1.007l.6,1.292,6.835-7.11-.119-4.177-.8-.867L13.284,128.715,4.579,8.54.549,4.188A2.075,2.075,0,0,1,0,2.9c0,.007,0,.014,0,.02l9.471,130.75a2.081,2.081,0,0,0,3.576,1.291L56.526,89.73l-1.282-2.754a2.078,2.078,0,0,1,1.009-2.763" transform="translate(0 -0.699)" fill="#ffc816"/>
          <rect id="Rectángulo_403656" data-name="Rectángulo 403656" width="0.002" height="85.392" transform="translate(40.169 -2.545)" fill="#ffc816"/>
          <path id="Trazado_912940" data-name="Trazado 912940" d="M2.52,0c.031,0,.061,0,.093,0-.031,0-.061,0-.093,0" transform="translate(-0.607 0)" fill="#ffc816"/>
          <path id="Trazado_912941" data-name="Trazado 912941" d="M.521,1.085c-.017.024-.029.049-.045.074C.5,1.119.528,1.08.558,1.043c-.011.015-.026.027-.037.042" transform="translate(-0.115 -0.251)" fill="#ffc816"/>
          <path id="Trazado_912942" data-name="Trazado 912942" d="M.775.8C.8.771.832.739.863.71.832.738.8.771.775.8" transform="translate(-0.187 -0.171)" fill="#ffc816"/>
          <path id="Trazado_912943" data-name="Trazado 912943" d="M2.076.072C2.1.067,2.118.066,2.139.061c-.021,0-.043.006-.063.011" transform="translate(-0.5 -0.015)" fill="#ffc816"/>
          <path id="Trazado_912944" data-name="Trazado 912944" d="M2.967.008c.036,0,.073.009.109.014C3.039.017,3,.011,2.967.008" transform="translate(-0.715 -0.002)" fill="#ffc816"/>
          <path id="Trazado_912945" data-name="Trazado 912945" d="M1.142.494c.027-.02.052-.042.08-.06-.028.018-.052.041-.08.06" transform="translate(-0.275 -0.105)" fill="#ffc816"/>
          <path id="Trazado_912946" data-name="Trazado 912946" d="M.011,2.414c0-.046.014-.09.022-.134-.008.045-.017.089-.022.134" transform="translate(-0.003 -0.549)" fill="#ffc816"/>
          <path id="Trazado_912947" data-name="Trazado 912947" d="M.248,1.555c.02-.044.043-.087.065-.129-.023.043-.046.085-.065.129" transform="translate(-0.06 -0.343)" fill="#ffc816"/>
          <path id="Trazado_912948" data-name="Trazado 912948" d="M0,2.865c0-.042,0-.083,0-.124,0,.041,0,.083,0,.124" transform="translate(0 -0.66)" fill="#ffc816"/>
          <path id="Trazado_912949" data-name="Trazado 912949" d="M3.414.085c.036.009.072.02.108.031C3.485.1,3.45.094,3.414.085" transform="translate(-0.822 -0.02)" fill="#ffc816"/>
          <path id="Trazado_912950" data-name="Trazado 912950" d="M133.045,63.283,3.918.264C3.9.255,3.879.252,3.861.242A2.067,2.067,0,0,1,4.532.72l7.56,8.163L125.069,64.018,70.111,71.536l.736.794a2.207,2.207,0,0,1,.147.194c.011.014.022.028.032.043a1.977,1.977,0,0,1,.145.247c.021.041.043.08.061.124a1.935,1.935,0,0,1,.077.223c.015.053.033.106.044.16a2.1,2.1,0,0,1,.032.248c0,.04.014.077.015.117l.053,1.868,60.964-8.339a2.08,2.08,0,0,0,.629-3.93" transform="translate(-0.93 -0.058)" fill="#ffc816"/>
          <path id="Trazado_912951" data-name="Trazado 912951" d="M.094,1.975c.013-.046.029-.091.045-.136-.016.045-.033.09-.045.136" transform="translate(-0.023 -0.443)" fill="#ffc816"/>
          <rect id="Rectángulo_403657" data-name="Rectángulo 403657" width="89.707" height="0.001" transform="translate(-9.798 40.75)" fill="#ffc816"/>
          <path id="Trazado_912952" data-name="Trazado 912952" d="M4.579,7.841h0L65.531,73.659h0l.8.867-.023-.782a2.082,2.082,0,0,1,2.019-2.139,2.222,2.222,0,0,1,1.734.86,2.1,2.1,0,0,0-.147-.194l-.736-.795h0L11.158,8.823l0,0L3.6.661A2.053,2.053,0,0,0,2.93.184,1.911,1.911,0,0,0,2.7.1C2.663.084,2.627.074,2.592.064A2.029,2.029,0,0,0,2.361.02c-.036,0-.072-.011-.109-.014a1.915,1.915,0,0,0-.247,0c-.031,0-.061,0-.093,0a1.959,1.959,0,0,0-.274.043c-.02,0-.042.006-.063.011A2.1,2.1,0,0,0,.947.329C.919.348.894.37.867.389a2.087,2.087,0,0,0-.191.15C.645.567.617.6.588.63A1.967,1.967,0,0,0,.443.792C.414.829.387.868.361.907Q.3.992.254,1.082c-.024.043-.046.085-.066.129C.16,1.272.137,1.334.115,1.4c-.015.045-.032.09-.045.136-.017.065-.029.132-.04.2-.008.044-.017.089-.022.134A2.06,2.06,0,0,0,0,2.081c0,.042,0,.082,0,.124A2.075,2.075,0,0,0,.549,3.488Z" transform="translate(0 0)" fill="#ffc816"/>
          <path id="Trazado_912953" data-name="Trazado 912953" d="M92.332,95.509a1.9,1.9,0,0,1,.144.247,2.07,2.07,0,0,0-.144-.247" transform="translate(-22.236 -23.001)" fill="#ffc816"/>
          <path id="Trazado_912954" data-name="Trazado 912954" d="M92.6,96a1.942,1.942,0,0,1,.077.224A2,2,0,0,0,92.6,96" transform="translate(-22.302 -23.119)" fill="#ffc816"/>
          <path id="Trazado_912955" data-name="Trazado 912955" d="M92.762,96.5a2.036,2.036,0,0,1,.032.248,2.1,2.1,0,0,0-.032-.248" transform="translate(-22.34 -23.241)" fill="#ffc816"/>
          <path id="Trazado_912956" data-name="Trazado 912956" d="M84.385,102.653l.664,23.222-7.5-16.111-3.091,3.217,11.072,23.786a2.079,2.079,0,0,0,1.884,1.2,2.149,2.149,0,0,0,.48-.055,2.08,2.08,0,0,0,1.6-2.084L88.454,99.443l-1.133.156Z" transform="translate(-17.932 -23.949)" fill="#ffc816"/>
          <path id="Trazado_912957" data-name="Trazado 912957" d="M89.433,99.408a2.081,2.081,0,0,1-1.527-.667l-.53-.572.119,4.177,2.936-3.054-.717.1a2.214,2.214,0,0,1-.282.018" transform="translate(-21.043 -23.642)" fill="#ffc816"/>
          <path id="Trazado_912958" data-name="Trazado 912958" d="M76.48,110.954a2.08,2.08,0,0,0-3.772,1.755l1.282,2.754,3.091-3.217Z" transform="translate(-17.463 -26.431)" fill="#ffc816"/>
          <path id="Trazado_912959" data-name="Trazado 912959" d="M92.7,96.292c.016.053.033.106.044.16-.011-.055-.028-.107-.044-.16" transform="translate(-22.326 -23.19)" fill="#ffc816"/>
          <path id="Trazado_912960" data-name="Trazado 912960" d="M92.466,96.829a2.07,2.07,0,0,1-.564,1.619l-.5.521,1.133-.154-.053-1.868c0-.04-.012-.077-.015-.118" transform="translate(-22.012 -23.319)" fill="#ffc816"/>
          <path id="Trazado_912961" data-name="Trazado 912961" d="M92.29,95.454c.011.014.022.027.032.043-.01-.015-.021-.028-.032-.043" transform="translate(-22.226 -22.988)" fill="#ffc816"/>
          <path id="Trazado_912962" data-name="Trazado 912962" d="M92.522,95.834c.02.041.043.081.061.124-.018-.043-.039-.083-.061-.124" transform="translate(-22.282 -23.08)" fill="#ffc816"/>
          <path id="Trazado_912963" data-name="Trazado 912963" d="M89.365,94.321a2.082,2.082,0,0,0-2.019,2.139l.023.782.53.572a2.08,2.08,0,0,0,1.527.667,2.214,2.214,0,0,0,.282-.018l.716-.1.5-.522a2.073,2.073,0,0,0,.564-1.618,2.173,2.173,0,0,0-.033-.248c-.011-.055-.028-.107-.044-.16a1.852,1.852,0,0,0-.077-.224c-.017-.043-.039-.083-.061-.124a1.9,1.9,0,0,0-.144-.247c-.01-.014-.022-.027-.032-.042a2.222,2.222,0,0,0-1.734-.86" transform="translate(-21.035 -22.715)" fill="#ffc816"/>
        </g>
      </g>
    </g>
    <g id="Grupo_1102047" data-name="Grupo 1102047" transform="translate(328.025 2108)">
      <path id="Trazado_912925-2" data-name="Trazado 912925" d="M21,216.928l89.819-93.447L6.033,10.328Z" transform="translate(1.841 3.151)" fill="#ffe284"/>
      <path id="Trazado_912926-2" data-name="Trazado 912926" d="M208.926,106.41,14.7,11.624l99.743,107.709Z" transform="translate(4.486 3.547)" fill="#ffe284"/>
      <path id="Trazado_912927-2" data-name="Trazado 912927" d="M91.423,143.594l-1.142-39.922L78.531,115.9Z" transform="translate(23.962 31.633)" fill="#ffe284"/>
      <g id="Grupo_1102045-2" data-name="Grupo 1102045">
        <g id="Grupo_1102044-2" data-name="Grupo 1102044" clip-path="url(#clip-path-2)">
          <path id="Trazado_912928-2" data-name="Trazado 912928" d="M2.642,0a3.543,3.543,0,0,1,.424.007A3.535,3.535,0,0,0,2.642,0" transform="translate(0.806 0)" fill="#ffc816"/>
          <path id="Trazado_912929-2" data-name="Trazado 912929" d="M3.11.027a3.483,3.483,0,0,1,.4.076,3.793,3.793,0,0,0-.4-.076" transform="translate(0.949 0.008)" fill="#ffc816"/>
          <path id="Trazado_912930-2" data-name="Trazado 912930" d="M2.159.078A3.572,3.572,0,0,1,2.63,0a3.641,3.641,0,0,0-.471.073" transform="translate(0.659 0.002)" fill="#ffc816"/>
          <path id="Trazado_912931-2" data-name="Trazado 912931" d="M3.555.126a3.784,3.784,0,0,1,.4.153,3.677,3.677,0,0,0-.4-.153" transform="translate(1.085 0.038)" fill="#ffc816"/>
          <path id="Trazado_912932-2" data-name="Trazado 912932" d="M.152,1.913C.189,1.806.229,1.7.276,1.6c-.047.1-.086.21-.124.317" transform="translate(0.046 0.487)" fill="#ffc816"/>
          <path id="Trazado_912933-2" data-name="Trazado 912933" d="M.04,2.36c.02-.115.039-.228.069-.341-.03.111-.05.226-.069.341" transform="translate(0.012 0.616)" fill="#ffc816"/>
          <path id="Trazado_912934-2" data-name="Trazado 912934" d="M.892.77A3.619,3.619,0,0,1,1.218.513,3.49,3.49,0,0,0,.892.77" transform="translate(0.272 0.157)" fill="#ffc816"/>
          <path id="Trazado_912935-2" data-name="Trazado 912935" d="M.334,1.5a3.465,3.465,0,0,1,.185-.3c-.067.1-.129.2-.185.3" transform="translate(0.102 0.365)" fill="#ffc816"/>
          <path id="Trazado_912936-2" data-name="Trazado 912936" d="M.584,1.109A3.4,3.4,0,0,1,.833.83a3.6,3.6,0,0,0-.249.279" transform="translate(0.178 0.253)" fill="#ffc816"/>
          <path id="Trazado_912937-2" data-name="Trazado 912937" d="M1.764.265a3.634,3.634,0,0,0-.517.278A3.591,3.591,0,0,1,2.33.076a3.477,3.477,0,0,0-.566.189" transform="translate(0.38 0.023)" fill="#ffc816"/>
          <path id="Trazado_912938-2" data-name="Trazado 912938" d="M0,2.828a3.541,3.541,0,0,1,.012-.372A3.519,3.519,0,0,0,0,2.828" transform="translate(0.001 0.749)" fill="#ffc816"/>
          <path id="Trazado_912939-2" data-name="Trazado 912939" d="M96.707,142.688a3.576,3.576,0,0,1,4.751,1.732l1.034,2.221,11.75-12.224-.2-7.181-1.381-1.49L22.837,219.192,7.872,12.593.943,5.111A3.567,3.567,0,0,1,0,2.9c0,.012,0,.023,0,.035L16.284,227.717a3.578,3.578,0,0,0,6.147,2.22l74.746-77.766-2.2-4.734a3.573,3.573,0,0,1,1.735-4.749" transform="translate(0 0.886)" fill="#ffc816"/>
          <rect id="Rectángulo_403656-2" data-name="Rectángulo 403656" width="0.004" height="146.801" transform="translate(69.057 -4.375)" fill="#ffc816"/>
          <path id="Trazado_912940-2" data-name="Trazado 912940" d="M2.52.006c.054,0,.106,0,.159,0-.054,0-.106,0-.159,0" transform="translate(0.769 0.001)" fill="#ffc816"/>
          <path id="Trazado_912941-2" data-name="Trazado 912941" d="M.553,1.115c-.03.04-.05.085-.077.127.046-.068.09-.134.141-.2-.02.026-.044.046-.064.072" transform="translate(0.145 0.318)" fill="#ffc816"/>
          <path id="Trazado_912942-2" data-name="Trazado 912942" d="M.775.867C.825.814.873.76.926.71c-.054.048-.1.1-.151.157" transform="translate(0.236 0.217)" fill="#ffc816"/>
          <path id="Trazado_912943-2" data-name="Trazado 912943" d="M2.076.081c.037-.009.072-.012.108-.02-.037.008-.073.01-.108.02" transform="translate(0.633 0.019)" fill="#ffc816"/>
          <path id="Trazado_912944-2" data-name="Trazado 912944" d="M2.967.008c.063.005.125.016.187.025C3.091.024,3.03.013,2.967.008" transform="translate(0.905 0.002)" fill="#ffc816"/>
          <path id="Trazado_912945-2" data-name="Trazado 912945" d="M1.142.537c.047-.034.089-.072.137-.1-.048.031-.09.07-.137.1" transform="translate(0.348 0.132)" fill="#ffc816"/>
          <path id="Trazado_912946-2" data-name="Trazado 912946" d="M.011,2.511c.008-.078.025-.154.038-.231-.013.077-.03.153-.038.231" transform="translate(0.003 0.696)" fill="#ffc816"/>
          <path id="Trazado_912947-2" data-name="Trazado 912947" d="M.248,1.648c.034-.076.073-.15.112-.222-.039.073-.078.146-.112.222" transform="translate(0.076 0.435)" fill="#ffc816"/>
          <path id="Trazado_912948-2" data-name="Trazado 912948" d="M0,2.954c0-.072,0-.142,0-.213,0,.07-.005.142,0,.213" transform="translate(0 0.836)" fill="#ffc816"/>
          <path id="Trazado_912949-2" data-name="Trazado 912949" d="M3.414.085c.063.016.124.034.185.054C3.537.119,3.477.1,3.414.085" transform="translate(1.042 0.026)" fill="#ffc816"/>
          <path id="Trazado_912950-2" data-name="Trazado 912950" d="M225.948,108.618,3.959.28c-.033-.016-.067-.021-.1-.038a3.553,3.553,0,0,1,1.154.821l13,14.034,194.223,94.786-94.481,12.923,1.265,1.365a3.794,3.794,0,0,1,.253.333c.018.025.038.048.055.073a3.4,3.4,0,0,1,.249.424c.035.07.073.138.1.213a3.327,3.327,0,0,1,.132.384c.026.091.056.181.076.275a3.6,3.6,0,0,1,.055.427c.005.069.023.132.026.2l.091,3.211,104.805-14.337a3.576,3.576,0,0,0,1.082-6.757" transform="translate(1.178 0.074)" fill="#ffc816"/>
          <path id="Trazado_912951-2" data-name="Trazado 912951" d="M.094,2.073c.022-.08.05-.157.077-.234-.027.077-.056.154-.077.234" transform="translate(0.029 0.561)" fill="#ffc816"/>
          <rect id="Rectángulo_403657-2" data-name="Rectángulo 403657" width="154.219" height="0.001" transform="translate(-16.845 70.055)" fill="#ffc816"/>
          <path id="Trazado_912952-2" data-name="Trazado 912952" d="M7.873,13.479h0L112.657,126.631h0l1.381,1.49L114,126.779a3.579,3.579,0,0,1,3.472-3.678,3.819,3.819,0,0,1,2.981,1.479,3.611,3.611,0,0,0-.253-.333l-1.265-1.366h0L19.183,15.168l.007,0-13-14.034A3.529,3.529,0,0,0,5.038.317a3.285,3.285,0,0,0-.4-.153C4.578.145,4.517.127,4.456.111a3.488,3.488,0,0,0-.4-.077C4,.026,3.935.016,3.872.011A3.292,3.292,0,0,0,3.448,0c-.054,0-.106,0-.159,0A3.368,3.368,0,0,0,2.818.08C2.783.088,2.746.09,2.709.1A3.606,3.606,0,0,0,1.628.567C1.579.6,1.536.636,1.49.67a3.587,3.587,0,0,0-.328.257c-.054.048-.1.1-.153.157a3.381,3.381,0,0,0-.248.279c-.051.063-.1.131-.142.2q-.1.147-.184.3c-.04.073-.078.146-.114.222-.047.1-.087.21-.124.317-.026.077-.055.154-.077.234-.03.112-.05.227-.069.342-.013.076-.03.153-.038.23A3.541,3.541,0,0,0,0,3.577C0,3.649,0,3.718,0,3.79A3.567,3.567,0,0,0,.944,6Z" transform="translate(0 0)" fill="#ffc816"/>
          <path id="Trazado_912953-2" data-name="Trazado 912953" d="M92.332,95.509a3.273,3.273,0,0,1,.248.424,3.556,3.556,0,0,0-.248-.424" transform="translate(28.173 29.142)" fill="#ffc816"/>
          <path id="Trazado_912954-2" data-name="Trazado 912954" d="M92.6,96a3.34,3.34,0,0,1,.132.385A3.436,3.436,0,0,0,92.6,96" transform="translate(28.256 29.291)" fill="#ffc816"/>
          <path id="Trazado_912955-2" data-name="Trazado 912955" d="M92.762,96.5a3.5,3.5,0,0,1,.055.427,3.6,3.6,0,0,0-.055-.427" transform="translate(28.304 29.445)" fill="#ffc816"/>
          <path id="Trazado_912956-2" data-name="Trazado 912956" d="M91.523,104.961l1.142,39.922-12.892-27.7-5.314,5.53,19.035,40.892a3.575,3.575,0,0,0,3.239,2.067,3.693,3.693,0,0,0,.825-.094A3.575,3.575,0,0,0,100.31,162L98.519,99.443l-1.949.268Z" transform="translate(22.719 30.343)" fill="#ffc816"/>
          <path id="Trazado_912957-2" data-name="Trazado 912957" d="M90.912,100.3a3.578,3.578,0,0,1-2.625-1.146l-.911-.984.2,7.181,5.048-5.251-1.232.168a3.807,3.807,0,0,1-.486.031" transform="translate(26.661 29.954)" fill="#ffc816"/>
          <path id="Trazado_912958-2" data-name="Trazado 912958" d="M79.332,111.819a3.576,3.576,0,0,0-6.485,3.017l2.2,4.734,5.314-5.53Z" transform="translate(22.125 33.488)" fill="#ffc816"/>
          <path id="Trazado_912959-2" data-name="Trazado 912959" d="M92.7,96.292c.027.091.056.183.076.275-.02-.1-.048-.184-.076-.275" transform="translate(28.286 29.381)" fill="#ffc816"/>
          <path id="Trazado_912960-2" data-name="Trazado 912960" d="M93.232,96.829a3.558,3.558,0,0,1-.97,2.783l-.861.9,1.949-.265-.091-3.211c0-.069-.021-.133-.026-.2" transform="translate(27.889 29.545)" fill="#ffc816"/>
          <path id="Trazado_912961-2" data-name="Trazado 912961" d="M92.29,95.454c.018.025.038.047.055.073-.017-.026-.037-.048-.055-.073" transform="translate(28.16 29.125)" fill="#ffc816"/>
          <path id="Trazado_912962-2" data-name="Trazado 912962" d="M92.522,95.834c.035.07.074.14.1.213-.031-.073-.068-.142-.1-.213" transform="translate(28.231 29.241)" fill="#ffc816"/>
          <path id="Trazado_912963-2" data-name="Trazado 912963" d="M90.818,94.321A3.579,3.579,0,0,0,87.346,98l.039,1.344.911.984a3.576,3.576,0,0,0,2.625,1.146,3.807,3.807,0,0,0,.486-.031l1.231-.168.863-.9a3.563,3.563,0,0,0,.97-2.781,3.74,3.74,0,0,0-.056-.427c-.018-.094-.048-.184-.076-.275a3.185,3.185,0,0,0-.132-.385c-.03-.073-.068-.142-.1-.213a3.273,3.273,0,0,0-.248-.424c-.017-.025-.038-.047-.055-.072a3.819,3.819,0,0,0-2.981-1.479" transform="translate(26.651 28.78)" fill="#ffc816"/>
        </g>
      </g>
    </g>
    <g id="Grupo_1102048" data-name="Grupo 1102048" transform="translate(-428.376 1290.696)">
      <path id="Elipse_11567" data-name="Elipse 11567" d="M2.475.45A2.025,2.025,0,1,0,4.5,2.475,2.028,2.028,0,0,0,2.475.45m0-.45A2.475,2.475,0,1,1,0,2.475,2.475,2.475,0,0,1,2.475,0Z" transform="translate(753.701 1030.226)" fill="#08ecff"/>
      <path id="Elipse_11567_-_Contorno" data-name="Elipse 11567 - Contorno" d="M2.475-.2A2.675,2.675,0,1,1-.2,2.475,2.678,2.678,0,0,1,2.475-.2Zm0,4.951A2.275,2.275,0,1,0,.2,2.475,2.278,2.278,0,0,0,2.475,4.751Zm0-4.5A2.225,2.225,0,1,1,.25,2.475,2.228,2.228,0,0,1,2.475.25Zm0,4.051A1.825,1.825,0,1,0,.65,2.475,1.827,1.827,0,0,0,2.475,4.3Z" transform="translate(753.701 1030.226)" fill="#08ecff"/>
      <path id="Línea_643" data-name="Línea 643" d="M-.275,3.305A.225.225,0,0,1-.5,3.08V-.275A.225.225,0,0,1-.275-.5.225.225,0,0,1-.05-.275V3.08A.225.225,0,0,1-.275,3.305Z" transform="translate(756.452 1026)" fill="#08ecff"/>
      <path id="Línea_643_-_Contorno" data-name="Línea 643 - Contorno" d="M-.275,3.505A.426.426,0,0,1-.7,3.08V-.275A.426.426,0,0,1-.275-.7.426.426,0,0,1,.15-.275V3.08A.426.426,0,0,1-.275,3.505Zm0-3.805A.025.025,0,0,0-.3-.275V3.08a.025.025,0,0,0,.025.025A.025.025,0,0,0-.25,3.08V-.275A.025.025,0,0,0-.275-.3Z" transform="translate(756.452 1026)" fill="#08ecff"/>
      <path id="Línea_644" data-name="Línea 644" d="M-.275,3.305A.225.225,0,0,1-.5,3.08V-.275A.225.225,0,0,1-.275-.5.225.225,0,0,1-.05-.275V3.08A.225.225,0,0,1-.275,3.305Z" transform="translate(756.452 1036.801)" fill="#08ecff"/>
      <path id="Línea_644_-_Contorno" data-name="Línea 644 - Contorno" d="M-.275,3.505A.426.426,0,0,1-.7,3.08V-.275A.426.426,0,0,1-.275-.7.426.426,0,0,1,.15-.275V3.08A.426.426,0,0,1-.275,3.505Zm0-3.805A.025.025,0,0,0-.3-.275V3.08a.025.025,0,0,0,.025.025A.025.025,0,0,0-.25,3.08V-.275A.025.025,0,0,0-.275-.3Z" transform="translate(756.452 1036.801)" fill="#08ecff"/>
      <path id="Línea_645" data-name="Línea 645" d="M.225,3.805A.225.225,0,0,1,0,3.58V.225a.225.225,0,0,1,.45,0V3.58A.225.225,0,0,1,.225,3.805Z" transform="translate(763.48 1032.476) rotate(90)" fill="#08ecff"/>
      <path id="Línea_645_-_Contorno" data-name="Línea 645 - Contorno" d="M.225,4.005A.426.426,0,0,1-.2,3.58V.225a.425.425,0,1,1,.85,0V3.58A.426.426,0,0,1,.225,4.005ZM.225.2A.025.025,0,0,0,.2.225V3.58a.025.025,0,0,0,.05,0V.225A.025.025,0,0,0,.225.2Z" transform="translate(763.48 1032.476) rotate(90)" fill="#08ecff"/>
      <path id="Línea_646" data-name="Línea 646" d="M.225,3.805A.225.225,0,0,1,0,3.58V.225a.225.225,0,0,1,.45,0V3.58A.225.225,0,0,1,.225,3.805Z" transform="translate(753.129 1032.476) rotate(90)" fill="#08ecff"/>
      <path id="Línea_646_-_Contorno" data-name="Línea 646 - Contorno" d="M.225,4.005A.426.426,0,0,1-.2,3.58V.225a.425.425,0,1,1,.85,0V3.58A.426.426,0,0,1,.225,4.005ZM.225.2A.025.025,0,0,0,.2.225V3.58a.025.025,0,0,0,.05,0V.225A.025.025,0,0,0,.225.2Z" transform="translate(753.129 1032.476) rotate(90)" fill="#08ecff"/>
      <path id="Elipse_11568" data-name="Elipse 11568" d="M.675.45A.225.225,0,1,0,.9.675.225.225,0,0,0,.675.45m0-.45A.675.675,0,1,1,0,.675.675.675,0,0,1,.675,0Z" transform="translate(755.501 1032.026)" fill="#08ecff"/>
      <path id="Elipse_11568_-_Contorno" data-name="Elipse 11568 - Contorno" d="M.675-.2A.875.875,0,1,1-.2.675.876.876,0,0,1,.675-.2Zm0,1.35A.475.475,0,1,0,.2.675.476.476,0,0,0,.675,1.15Zm0-.9A.425.425,0,1,1,.25.675.426.426,0,0,1,.675.25Z" transform="translate(755.501 1032.026)" fill="#08ecff"/>
    </g>
    <path id="Trazado_912964" data-name="Trazado 912964" d="M226.076,108.191,5.113.353C5.08.337,5.047.33,5.015.315a3.859,3.859,0,0,0-.4-.152C4.558.144,4.5.126,4.435.11A3.338,3.338,0,0,0,4.04.034C3.978.026,3.916.015,3.854.01A3.516,3.516,0,0,0,3.432,0c-.053,0-.106,0-.159,0A3.53,3.53,0,0,0,2.8.079C2.769.087,2.733.089,2.7.1A3.424,3.424,0,0,0,1.62.564c-.048.032-.09.07-.137.1a3.56,3.56,0,0,0-.325.256c-.054.049-.1.1-.152.156a3.592,3.592,0,0,0-.248.278c-.02.025-.044.045-.063.071s-.049.085-.077.126c-.066.1-.128.2-.184.3-.04.073-.078.146-.112.222-.047.1-.087.209-.124.315-.027.077-.055.154-.076.233-.03.112-.05.226-.069.339-.013.077-.03.152-.038.23A3.546,3.546,0,0,0,0,3.561C0,3.632,0,3.7,0,3.773c0,.012,0,.023,0,.036L16.209,227.548a3.561,3.561,0,0,0,6.118,2.21l74.4-77.407,18.947,40.7a3.561,3.561,0,0,0,3.226,2.058,3.672,3.672,0,0,0,.82-.094,3.562,3.562,0,0,0,2.739-3.567l-1.782-62.266L225,114.916a3.56,3.56,0,0,0,1.077-6.726" transform="translate(328.026 2109.071)" fill="none" stroke="#048fe5" stroke-width="2"/>
    <rect id="Rectángulo_403659" data-name="Rectángulo 403659" width="228.075" height="230.85" transform="translate(328.025 2109.071)" fill="none"/>
    <rect id="Rectángulo_403660" data-name="Rectángulo 403660" width="5" height="5" transform="translate(341.051 2329)" fill="#048fe5"/>
    <rect id="Rectángulo_403661" data-name="Rectángulo 403661" width="5" height="5" transform="translate(351.051 2333)" fill="#048fe5"/>
    <rect id="Rectángulo_403662" data-name="Rectángulo 403662" width="5" height="5" transform="translate(422.051 2259)" fill="#048fe5"/>
    <rect id="Rectángulo_403663" data-name="Rectángulo 403663" width="5" height="5" transform="translate(445.051 2301)" fill="#048fe5"/>
    <rect id="Rectángulo_403664" data-name="Rectángulo 403664" width="5" height="5" transform="translate(446.051 2236)" fill="#048fe5"/>
    <rect id="Rectángulo_403665" data-name="Rectángulo 403665" width="5" height="5" transform="translate(553.051 2218)" fill="#048fe5"/>
    <rect id="Rectángulo_403666" data-name="Rectángulo 403666" width="5" height="5" transform="translate(327.051 2107)" fill="#048fe5"/>
  </g>
</svg>
