<svg xmlns="http://www.w3.org/2000/svg" xmlns:xlink="http://www.w3.org/1999/xlink" width="50" height="50" viewBox="0 0 50 50">
  <defs>
    <clipPath id="clip-path">
      <rect id="Rect치ngulo_403233" data-name="Rect치ngulo 403233" width="24.025" height="21.175" fill="none"/>
    </clipPath>
  </defs>
  <g id="Grupo_1102226" data-name="Grupo 1102226" transform="translate(-180.051 -614)">
    <g id="Grupo_1102224" data-name="Grupo 1102224">
      <g id="Grupo_1102220" data-name="Grupo 1102220" transform="translate(0.026)">
        <rect id="Rect치ngulo_402998" data-name="Rect치ngulo 402998" width="50" height="50" transform="translate(180.024 614)" fill="#ffc7b8"/>
      </g>
    </g>
    <g id="Grupo_1101477" data-name="Grupo 1101477" transform="translate(-3 -621)">
      <g id="Grupo_1101472" data-name="Grupo 1101472" transform="translate(190.051 1242)">
        <g id="Grupo_1101199" data-name="Grupo 1101199">
          <path id="Trazado_911258" data-name="Trazado 911258" d="M18,0A18,18,0,1,1,0,18,18,18,0,0,1,18,0Z" transform="translate(0 0)" fill="#3c3c3c"/>
        </g>
      </g>
      <g id="Grupo_1101478" data-name="Grupo 1101478" transform="translate(196.051 1249)">
        <path id="Trazado_911776" data-name="Trazado 911776" d="M49.9,0,48.657,1.242,47.532,2.367,48.745,3.58,49.87,2.455l2.251,2.251-5.707,5.707-1.2-1.2-1.242,1.242,3.612,3.612,1.242-1.242-1.2-1.2L53.335,5.92l2.251,2.251L54.461,9.3l1.214,1.214L56.8,9.385l1.242-1.242L56.828,6.929,54.577,4.678,53.363,3.464,51.112,1.213Z" transform="translate(-34.016 0)" fill="#b6b5b6"/>
        <g id="Grupo_1101479" data-name="Grupo 1101479" transform="translate(0 0)">
          <g id="Grupo_1101478-2" data-name="Grupo 1101478" transform="translate(0 0)" clip-path="url(#clip-path)">
            <path id="Trazado_911777" data-name="Trazado 911777" d="M19.859,45.619a.55.55,0,0,0-.637.448c-.008.048-.019.112-.031.191-.3,1.929-.655,2.409-.839,2.524a1.856,1.856,0,0,1-.927.275,2.268,2.268,0,0,1-1.661-.672L5.744,38.481a3.4,3.4,0,0,0-1.522-.873,3.538,3.538,0,0,0-2.481.189A2.964,2.964,0,0,0,.171,39.435a2.925,2.925,0,0,0,0,1.95.551.551,0,1,0,1.041-.36,1.818,1.818,0,0,1,0-1.209,1.907,1.907,0,0,1,1.02-1.03,2.423,2.423,0,0,1,1.718-.114,2.3,2.3,0,0,1,1.028.591l10.02,9.905a3.383,3.383,0,0,0,2.361.991l.114,0a2.946,2.946,0,0,0,1.47-.441c.812-.506,1.135-1.947,1.345-3.29.011-.071.02-.129.027-.171a.551.551,0,0,0-.448-.637" transform="translate(0 -28.985)" fill="#b6b5b6"/>
          </g>
        </g>
      </g>
    </g>
  </g>
</svg>
