<svg xmlns="http://www.w3.org/2000/svg" xmlns:xlink="http://www.w3.org/1999/xlink" width="330" height="196" viewBox="0 0 330 196">
  <defs>
    <clipPath id="clip-path">
      <rect id="Rectángulo_403223" data-name="Rectángulo 403223" width="112.451" height="116.766" fill="#5d5d5d"/>
    </clipPath>
  </defs>
  <g id="Grupo_1102223" data-name="Grupo 1102223" transform="translate(-1055.051 -765)">
    <rect id="Rectángulo_403215" data-name="Rectángulo 403215" width="330" height="196" rx="6" transform="translate(1055.051 765)" fill="#ffe3db"/>
    <g id="Grupo_1101469" data-name="Grupo 1101469">
      <g id="Elipse_11543" data-name="Elipse 11543" transform="translate(1151.051 791)" fill="none" stroke="#707070" stroke-width="0.5" opacity="0.461">
        <circle cx="73.5" cy="73.5" r="73.5" stroke="none"/>
        <circle cx="73.5" cy="73.5" r="73.25" fill="none"/>
      </g>
      <g id="Grupo_1101468" data-name="Grupo 1101468" transform="translate(1038.072 76.536)">
        <g id="Rectángulo_403216" data-name="Rectángulo 403216" transform="translate(261.051 795)" fill="none" stroke="#262626" stroke-width="1" stroke-dasharray="1">
          <rect width="20" height="20" rx="10" stroke="none"/>
          <rect x="0.5" y="0.5" width="19" height="19" rx="9.5" fill="none"/>
        </g>
        <path id="Trazado_911713" data-name="Trazado 911713" d="M0,0V9.025L2.545,6.481h3.97Z" transform="translate(260.051 793.464)" stroke="#fff" stroke-width="0.4"/>
        <g id="Grupo_1101457" data-name="Grupo 1101457" transform="translate(-3.664 79.263)">
          <path id="Unión_2" data-name="Unión 2" d="M8.9,14.645a10.15,10.15,0,0,1-4.064-1.639A10.15,10.15,0,0,1,.776,14.645a.514.514,0,0,1-.091.005.685.685,0,0,1-.09-1.363A8.475,8.475,0,0,0,3.78,12.064v-.65a.758.758,0,0,1,0-1.514V2.416A4.131,4.131,0,0,0,.819,1.369l-.134,0A.684.684,0,0,1,.672,0c.049,0,.1,0,.146,0A5.426,5.426,0,0,1,4.84,1.546,5.426,5.426,0,0,1,8.861,0c.048,0,.1,0,.146,0a.684.684,0,0,1-.013,1.367c-.046,0-.088,0-.131,0A4.177,4.177,0,0,0,5.9,2.42V9.9h.95a.758.758,0,1,1,0,1.516H5.9v.649a8.624,8.624,0,0,0,3.185,1.222.685.685,0,0,1-.09,1.363A.519.519,0,0,1,8.9,14.645Z" transform="translate(271.05 718.714)" fill="#020202" stroke="#fff" stroke-linecap="round" stroke-width="0.3"/>
        </g>
      </g>
      <g id="Grupo_1101470" data-name="Grupo 1101470" transform="translate(1154.051 812.561)">
        <path id="Trazado_911715" data-name="Trazado 911715" d="M15.82.014V11.79h6.552V10.516H17.341V.014Z" transform="translate(3.914 0.003)" fill="#5d5d5d"/>
        <g id="Grupo_1101471" data-name="Grupo 1101471" transform="translate(0 0)">
          <g id="Grupo_1101470-2" data-name="Grupo 1101470" clip-path="url(#clip-path)">
            <path id="Trazado_911716" data-name="Trazado 911716" d="M29.965,6.872a4.133,4.133,0,0,1-4.211,4.491A4.02,4.02,0,0,1,21.7,7.012a4.13,4.13,0,0,1,4.194-4.491,4.005,4.005,0,0,1,4.071,4.351m-6.71.087c0,1.852,1.065,3.249,2.568,3.249,1.468,0,2.568-1.38,2.568-3.284,0-1.432-.716-3.249-2.533-3.249s-2.6,1.676-2.6,3.284" transform="translate(5.368 0.623)" fill="#5d5d5d"/>
            <path id="Trazado_911717" data-name="Trazado 911717" d="M29.89,5.352c0-1-.017-1.852-.07-2.638h1.345l.052,1.66h.071a2.536,2.536,0,0,1,2.341-1.852,1.662,1.662,0,0,1,.437.052V4.025a2.239,2.239,0,0,0-.524-.052A2.156,2.156,0,0,0,31.48,5.946a4.341,4.341,0,0,0-.07.717v4.508H29.89Z" transform="translate(7.377 0.623)" fill="#5d5d5d"/>
            <path id="Trazado_911718" data-name="Trazado 911718" d="M35.292,7.222a2.71,2.71,0,0,0,2.9,2.935,5.559,5.559,0,0,0,2.341-.437l.262,1.1a6.848,6.848,0,0,1-2.813.524,3.927,3.927,0,0,1-4.159-4.262c0-2.551,1.5-4.56,3.967-4.56,2.762,0,3.5,2.429,3.5,3.983a5.821,5.821,0,0,1-.052.717Zm4.508-1.1a2.189,2.189,0,0,0-2.132-2.5,2.548,2.548,0,0,0-2.359,2.5Z" transform="translate(8.367 0.623)" fill="#5d5d5d"/>
            <path id="Trazado_911719" data-name="Trazado 911719" d="M41.342,5c0-.873-.017-1.589-.07-2.289h1.345l.071,1.363h.052A2.912,2.912,0,0,1,45.4,2.521a2.5,2.5,0,0,1,2.394,1.7h.035a3.487,3.487,0,0,1,.943-1.1,2.888,2.888,0,0,1,1.87-.594c1.119,0,2.778.735,2.778,3.67v4.98h-1.5V6.383c0-1.625-.594-2.6-1.835-2.6a1.991,1.991,0,0,0-1.817,1.4,2.531,2.531,0,0,0-.122.768V11.17h-1.5V6.1c0-1.346-.594-2.324-1.764-2.324a2.1,2.1,0,0,0-1.9,1.537,2.128,2.128,0,0,0-.122.751v5.1h-1.5Z" transform="translate(10.21 0.623)" fill="#5d5d5d"/>
            <path id="Trazado_911720" data-name="Trazado 911720" d="M57.723.96a.952.952,0,0,1-1.9,0,.936.936,0,0,1,.96-.96.913.913,0,0,1,.944.96M56.01,3.337h1.538v8.457H56.01Z" transform="translate(13.808 -0.001)" fill="#5d5d5d"/>
            <path id="Trazado_911721" data-name="Trazado 911721" d="M59.261,5.475c0-1.084-.035-1.957-.07-2.762h1.381l.07,1.451h.035a3.325,3.325,0,0,1,3-1.642c2.044,0,3.582,1.729,3.582,4.3,0,3.04-1.852,4.544-3.844,4.544a2.967,2.967,0,0,1-2.6-1.328h-.035v4.6H59.261Zm1.521,2.254a3.46,3.46,0,0,0,.07.629,2.373,2.373,0,0,0,2.306,1.8c1.625,0,2.568-1.328,2.568-3.267,0-1.7-.891-3.146-2.516-3.146a2.452,2.452,0,0,0-2.324,1.9,2.492,2.492,0,0,0-.1.629Z" transform="translate(14.642 0.623)" fill="#5d5d5d"/>
            <path id="Trazado_911722" data-name="Trazado 911722" d="M67.121,9.6a4.028,4.028,0,0,0,2.027.611c1.118,0,1.642-.559,1.642-1.257,0-.733-.437-1.136-1.572-1.555C67.7,6.854,66.981,6.015,66.981,5c0-1.362,1.1-2.481,2.918-2.481a4.22,4.22,0,0,1,2.079.524l-.384,1.119a3.29,3.29,0,0,0-1.73-.49c-.908,0-1.416.525-1.416,1.154,0,.7.508,1.013,1.608,1.433,1.468.559,2.219,1.292,2.219,2.551,0,1.486-1.153,2.533-3.162,2.533a4.808,4.808,0,0,1-2.376-.578Z" transform="translate(16.509 0.623)" fill="#5d5d5d"/>
            <path id="Trazado_911723" data-name="Trazado 911723" d="M79.845,8.826c0,.874.017,1.643.07,2.306H78.551l-.087-1.38h-.035a3.181,3.181,0,0,1-2.8,1.572c-1.327,0-2.918-.733-2.918-3.7V2.675h1.538V7.358c0,1.608.489,2.691,1.886,2.691a2.223,2.223,0,0,0,2.027-1.4,2.249,2.249,0,0,0,.14-.787V2.675h1.538Z" transform="translate(17.988 0.661)" fill="#5d5d5d"/>
            <path id="Trazado_911724" data-name="Trazado 911724" d="M80.485,5c0-.873-.017-1.589-.07-2.289H81.76l.071,1.363h.052a2.912,2.912,0,0,1,2.656-1.555,2.5,2.5,0,0,1,2.394,1.7h.035a3.487,3.487,0,0,1,.943-1.1,2.888,2.888,0,0,1,1.87-.594c1.119,0,2.778.735,2.778,3.67v4.98h-1.5V6.383c0-1.625-.594-2.6-1.835-2.6a1.991,1.991,0,0,0-1.817,1.4,2.531,2.531,0,0,0-.122.768V11.17h-1.5V6.1c0-1.346-.6-2.324-1.765-2.324a2.1,2.1,0,0,0-1.9,1.537,2.127,2.127,0,0,0-.122.751v5.1h-1.5Z" transform="translate(19.893 0.623)" fill="#5d5d5d"/>
            <path id="Trazado_911725" data-name="Trazado 911725" d="M12.182,16.31V26.531c0,.752.017,1.608.07,2.184H10.871l-.07-1.468h-.035a3.126,3.126,0,0,1-2.883,1.66c-2.044,0-3.617-1.729-3.617-4.3C4.249,21.8,6,20.066,8.058,20.066a2.829,2.829,0,0,1,2.551,1.294h.035V16.31ZM10.644,23.7a2.73,2.73,0,0,0-.07-.647,2.262,2.262,0,0,0-2.219-1.781c-1.59,0-2.533,1.4-2.533,3.267,0,1.713.838,3.128,2.5,3.128a2.313,2.313,0,0,0,2.254-1.835,2.673,2.673,0,0,0,.07-.665Z" transform="translate(1.055 4.034)" fill="#5d5d5d"/>
            <path id="Trazado_911726" data-name="Trazado 911726" d="M20.427,23.672a4.133,4.133,0,0,1-4.211,4.491,4.02,4.02,0,0,1-4.054-4.351,4.13,4.13,0,0,1,4.194-4.491,4.005,4.005,0,0,1,4.071,4.351m-6.71.087c0,1.852,1.065,3.249,2.568,3.249,1.468,0,2.568-1.38,2.568-3.284,0-1.432-.716-3.249-2.533-3.249s-2.6,1.676-2.6,3.284" transform="translate(3.009 4.779)" fill="#5d5d5d"/>
            <rect id="Rectángulo_403221" data-name="Rectángulo 403221" width="1.538" height="12.405" transform="translate(25.37 20.345)" fill="#5d5d5d"/>
            <path id="Trazado_911727" data-name="Trazado 911727" d="M31.417,23.672a4.133,4.133,0,0,1-4.211,4.491,4.02,4.02,0,0,1-4.054-4.351,4.13,4.13,0,0,1,4.194-4.491,4.005,4.005,0,0,1,4.071,4.351m-6.71.087c0,1.852,1.065,3.249,2.568,3.249,1.468,0,2.568-1.38,2.568-3.284,0-1.432-.716-3.249-2.533-3.249s-2.6,1.676-2.6,3.284" transform="translate(5.727 4.779)" fill="#5d5d5d"/>
            <path id="Trazado_911728" data-name="Trazado 911728" d="M31.343,22.152c0-1-.017-1.852-.07-2.638h1.345l.052,1.66h.071a2.536,2.536,0,0,1,2.341-1.852,1.662,1.662,0,0,1,.437.052v1.451A2.239,2.239,0,0,0,35,20.773a2.156,2.156,0,0,0-2.062,1.973,4.341,4.341,0,0,0-.07.717v4.508H31.343Z" transform="translate(7.736 4.779)" fill="#5d5d5d"/>
            <path id="Trazado_911729" data-name="Trazado 911729" d="M38.783,26.4a4.024,4.024,0,0,0,2.027.611c1.118,0,1.64-.559,1.64-1.257,0-.733-.435-1.136-1.57-1.555-1.522-.541-2.238-1.381-2.238-2.394,0-1.362,1.1-2.481,2.918-2.481a4.22,4.22,0,0,1,2.079.524l-.384,1.119a3.286,3.286,0,0,0-1.73-.49c-.908,0-1.415.525-1.415,1.154,0,.7.506,1.013,1.607,1.433,1.468.559,2.22,1.292,2.22,2.551,0,1.486-1.154,2.533-3.163,2.533a4.812,4.812,0,0,1-2.376-.578Z" transform="translate(9.499 4.779)" fill="#5d5d5d"/>
            <path id="Trazado_911730" data-name="Trazado 911730" d="M46.17,17.76a.952.952,0,0,1-1.9,0,.936.936,0,0,1,.96-.96.913.913,0,0,1,.944.96m-1.714,2.376h1.538v8.457H44.456Z" transform="translate(10.95 4.155)" fill="#5d5d5d"/>
            <path id="Trazado_911731" data-name="Trazado 911731" d="M49.737,17.529v2.429h2.2v1.17h-2.2v4.562c0,1.048.3,1.642,1.153,1.642a3.422,3.422,0,0,0,.892-.1l.07,1.154a3.789,3.789,0,0,1-1.362.21,2.132,2.132,0,0,1-1.662-.647,3.133,3.133,0,0,1-.594-2.2V21.128h-1.31v-1.17h1.31V17.931Z" transform="translate(11.608 4.336)" fill="#5d5d5d"/>
            <path id="Trazado_911732" data-name="Trazado 911732" d="M60.11,27.97,59.988,26.9h-.052a3.148,3.148,0,0,1-2.586,1.259,2.409,2.409,0,0,1-2.586-2.429c0-2.044,1.817-3.162,5.084-3.145v-.176a1.743,1.743,0,0,0-1.922-1.956,4.216,4.216,0,0,0-2.2.629l-.349-1.014a5.25,5.25,0,0,1,2.778-.751c2.586,0,3.214,1.765,3.214,3.46v3.162a11.916,11.916,0,0,0,.14,2.027Zm-.227-4.316c-1.678-.035-3.582.262-3.582,1.9a1.362,1.362,0,0,0,1.451,1.468A2.107,2.107,0,0,0,59.8,25.612a1.6,1.6,0,0,0,.087-.489Z" transform="translate(13.547 4.779)" fill="#5d5d5d"/>
            <path id="Trazado_911733" data-name="Trazado 911733" d="M62.058,21.8c0-.873-.017-1.589-.07-2.289h1.345l.071,1.363h.052a2.912,2.912,0,0,1,2.656-1.555,2.5,2.5,0,0,1,2.394,1.7h.035a3.487,3.487,0,0,1,.943-1.1,2.888,2.888,0,0,1,1.87-.594c1.119,0,2.778.735,2.778,3.67v4.98h-1.5V23.184c0-1.625-.594-2.6-1.835-2.6a1.991,1.991,0,0,0-1.817,1.4,2.531,2.531,0,0,0-.122.768v5.225h-1.5V22.9c0-1.346-.594-2.324-1.764-2.324a2.1,2.1,0,0,0-1.9,1.537,2.128,2.128,0,0,0-.122.751v5.1h-1.5Z" transform="translate(15.334 4.779)" fill="#5d5d5d"/>
            <path id="Trazado_911734" data-name="Trazado 911734" d="M74.7,24.022a2.71,2.71,0,0,0,2.9,2.935,5.559,5.559,0,0,0,2.341-.437l.262,1.1a6.848,6.848,0,0,1-2.813.524,3.927,3.927,0,0,1-4.159-4.262c0-2.551,1.5-4.56,3.967-4.56,2.762,0,3.5,2.429,3.5,3.983a5.821,5.821,0,0,1-.052.717Zm4.508-1.1a2.189,2.189,0,0,0-2.132-2.5,2.548,2.548,0,0,0-2.359,2.5Z" transform="translate(18.115 4.779)" fill="#5d5d5d"/>
            <path id="Trazado_911735" data-name="Trazado 911735" d="M82.776,17.529v2.429h2.2v1.17h-2.2v4.562c0,1.048.3,1.642,1.153,1.642a3.422,3.422,0,0,0,.892-.1l.07,1.154a3.789,3.789,0,0,1-1.362.21,2.132,2.132,0,0,1-1.662-.647,3.133,3.133,0,0,1-.594-2.2V21.128h-1.31v-1.17h1.31V17.931Z" transform="translate(19.781 4.336)" fill="#5d5d5d"/>
            <path id="Trazado_911736" data-name="Trazado 911736" d="M84.527,28.842a25.065,25.065,0,0,0,1.048-4.176l1.713-.175a21.238,21.238,0,0,1-1.66,4.246Z" transform="translate(20.91 6.058)" fill="#5d5d5d"/>
            <path id="Trazado_911737" data-name="Trazado 911737" d="M6.64,44.453a5.667,5.667,0,0,1-2.429.489A4.018,4.018,0,0,1,0,40.626a4.3,4.3,0,0,1,4.543-4.491,5.116,5.116,0,0,1,2.132.438L6.325,37.76a3.566,3.566,0,0,0-1.783-.4,2.926,2.926,0,0,0-2.987,3.2,2.9,2.9,0,0,0,2.935,3.163,4.365,4.365,0,0,0,1.887-.42Z" transform="translate(0 8.938)" fill="#5d5d5d"/>
            <path id="Trazado_911738" data-name="Trazado 911738" d="M14.453,40.472a4.133,4.133,0,0,1-4.211,4.491,4.02,4.02,0,0,1-4.054-4.351,4.13,4.13,0,0,1,4.194-4.491,4.005,4.005,0,0,1,4.071,4.351m-6.71.087c0,1.852,1.065,3.249,2.568,3.249,1.468,0,2.568-1.38,2.568-3.284,0-1.432-.716-3.249-2.533-3.249s-2.6,1.676-2.6,3.284" transform="translate(1.531 8.935)" fill="#5d5d5d"/>
            <path id="Trazado_911739" data-name="Trazado 911739" d="M14.378,38.6c0-.873-.017-1.589-.07-2.289h1.363l.086,1.4h.036a3.11,3.11,0,0,1,2.8-1.59c1.17,0,2.987.7,2.987,3.6V44.77H20.04V39.9c0-1.363-.508-2.5-1.957-2.5a2.184,2.184,0,0,0-2.062,1.572,2.218,2.218,0,0,0-.1.717V44.77H14.378Z" transform="translate(3.539 8.935)" fill="#5d5d5d"/>
            <path id="Trazado_911740" data-name="Trazado 911740" d="M22.042,43.2a4.028,4.028,0,0,0,2.027.611c1.118,0,1.642-.559,1.642-1.257,0-.733-.437-1.136-1.572-1.555C22.618,40.455,21.9,39.616,21.9,38.6c0-1.362,1.1-2.481,2.918-2.481a4.22,4.22,0,0,1,2.079.524l-.384,1.119a3.29,3.29,0,0,0-1.73-.49c-.908,0-1.416.525-1.416,1.154,0,.7.508,1.013,1.608,1.433,1.468.559,2.219,1.292,2.219,2.551,0,1.486-1.153,2.533-3.162,2.533a4.808,4.808,0,0,1-2.376-.578Z" transform="translate(5.358 8.935)" fill="#5d5d5d"/>
            <path id="Trazado_911741" data-name="Trazado 911741" d="M28.656,40.822a2.709,2.709,0,0,0,2.9,2.935,5.555,5.555,0,0,0,2.341-.437l.262,1.1a6.843,6.843,0,0,1-2.813.524,3.926,3.926,0,0,1-4.158-4.262c0-2.551,1.5-4.56,3.967-4.56,2.76,0,3.494,2.429,3.494,3.983a5.821,5.821,0,0,1-.052.717Zm4.508-1.1a2.19,2.19,0,0,0-2.133-2.5,2.548,2.548,0,0,0-2.359,2.5Z" transform="translate(6.726 8.935)" fill="#5d5d5d"/>
            <path id="Trazado_911742" data-name="Trazado 911742" d="M40.841,44.453a5.663,5.663,0,0,1-2.429.489A4.018,4.018,0,0,1,34.2,40.626a4.3,4.3,0,0,1,4.543-4.491,5.116,5.116,0,0,1,2.132.438l-.349,1.187a3.566,3.566,0,0,0-1.783-.4,2.926,2.926,0,0,0-2.987,3.2,2.9,2.9,0,0,0,2.935,3.163,4.365,4.365,0,0,0,1.887-.42Z" transform="translate(8.461 8.938)" fill="#5d5d5d"/>
            <path id="Trazado_911743" data-name="Trazado 911743" d="M43.188,34.329v2.429h2.2v1.17h-2.2v4.562c0,1.048.3,1.642,1.153,1.642a3.422,3.422,0,0,0,.892-.1l.07,1.154a3.79,3.79,0,0,1-1.362.21,2.132,2.132,0,0,1-1.662-.647,3.133,3.133,0,0,1-.594-2.2V37.928h-1.31v-1.17h1.31V34.731Z" transform="translate(9.988 8.492)" fill="#5d5d5d"/>
            <path id="Trazado_911744" data-name="Trazado 911744" d="M46.673,40.822a2.71,2.71,0,0,0,2.9,2.935,5.559,5.559,0,0,0,2.341-.437l.262,1.1a6.848,6.848,0,0,1-2.813.524,3.927,3.927,0,0,1-4.159-4.262c0-2.551,1.5-4.56,3.967-4.56,2.762,0,3.5,2.429,3.5,3.983a5.821,5.821,0,0,1-.052.717Zm4.508-1.1a2.189,2.189,0,0,0-2.132-2.5,2.548,2.548,0,0,0-2.359,2.5Z" transform="translate(11.183 8.935)" fill="#5d5d5d"/>
            <path id="Trazado_911745" data-name="Trazado 911745" d="M54.752,34.329v2.429h2.2v1.17h-2.2v4.562c0,1.048.3,1.642,1.153,1.642a3.422,3.422,0,0,0,.892-.1l.07,1.154a3.79,3.79,0,0,1-1.362.21,2.132,2.132,0,0,1-1.662-.647,3.133,3.133,0,0,1-.594-2.2V37.928h-1.31v-1.17h1.31V34.731Z" transform="translate(12.848 8.492)" fill="#5d5d5d"/>
            <path id="Trazado_911746" data-name="Trazado 911746" d="M64.43,42.426c0,.874.017,1.643.07,2.306H63.136l-.087-1.38h-.035a3.181,3.181,0,0,1-2.8,1.572c-1.327,0-2.918-.733-2.918-3.7V36.275h1.538v4.684c0,1.607.489,2.689,1.886,2.689a2.223,2.223,0,0,0,2.027-1.4,2.249,2.249,0,0,0,.14-.787V36.275H64.43Z" transform="translate(14.175 8.973)" fill="#5d5d5d"/>
            <path id="Trazado_911747" data-name="Trazado 911747" d="M66.034,40.822a2.71,2.71,0,0,0,2.9,2.935,5.559,5.559,0,0,0,2.341-.437l.262,1.1a6.848,6.848,0,0,1-2.813.524,3.927,3.927,0,0,1-4.159-4.262c0-2.551,1.5-4.56,3.967-4.56,2.762,0,3.5,2.429,3.5,3.983a5.821,5.821,0,0,1-.052.717Zm4.508-1.1a2.189,2.189,0,0,0-2.132-2.5,2.548,2.548,0,0,0-2.359,2.5Z" transform="translate(15.972 8.935)" fill="#5d5d5d"/>
            <path id="Trazado_911748" data-name="Trazado 911748" d="M72.084,38.952c0-1-.017-1.852-.07-2.638h1.345l.052,1.66h.071a2.536,2.536,0,0,1,2.341-1.852,1.662,1.662,0,0,1,.437.052v1.451a2.24,2.24,0,0,0-.524-.052,2.156,2.156,0,0,0-2.062,1.973,4.342,4.342,0,0,0-.07.717v4.508H72.084Z" transform="translate(17.815 8.935)" fill="#5d5d5d"/>
            <path id="Trazado_911749" data-name="Trazado 911749" d="M8.768,61.57,8.646,60.5H8.594a3.146,3.146,0,0,1-2.586,1.259,2.409,2.409,0,0,1-2.586-2.429c0-2.044,1.817-3.162,5.084-3.145v-.176a1.742,1.742,0,0,0-1.921-1.956,4.212,4.212,0,0,0-2.2.629l-.351-1.014a5.253,5.253,0,0,1,2.778-.751c2.587,0,3.216,1.765,3.216,3.46v3.162a11.916,11.916,0,0,0,.14,2.027Zm-.227-4.316c-1.678-.035-3.581.262-3.581,1.9a1.361,1.361,0,0,0,1.451,1.468,2.1,2.1,0,0,0,2.043-1.416,1.6,1.6,0,0,0,.087-.489Z" transform="translate(0.847 13.091)" fill="#5d5d5d"/>
            <path id="Trazado_911750" data-name="Trazado 911750" d="M18.128,49.91V60.131c0,.752.017,1.608.07,2.184H16.817l-.07-1.468h-.035a3.126,3.126,0,0,1-2.883,1.66c-2.044,0-3.617-1.729-3.617-4.3-.017-2.813,1.73-4.543,3.792-4.543a2.829,2.829,0,0,1,2.551,1.294h.035V49.91ZM16.59,57.3a2.73,2.73,0,0,0-.07-.647A2.262,2.262,0,0,0,14.3,54.872c-1.59,0-2.533,1.4-2.533,3.267,0,1.713.838,3.128,2.5,3.128a2.313,2.313,0,0,0,2.254-1.835,2.673,2.673,0,0,0,.07-.665Z" transform="translate(2.526 12.346)" fill="#5d5d5d"/>
            <path id="Trazado_911751" data-name="Trazado 911751" d="M20.35,51.36a.952.952,0,0,1-1.9,0,.936.936,0,0,1,.96-.96.912.912,0,0,1,.944.96m-1.713,2.376h1.538v8.457H18.637Z" transform="translate(4.563 12.467)" fill="#5d5d5d"/>
            <path id="Trazado_911752" data-name="Trazado 911752" d="M21.888,55.875c0-1.084-.035-1.957-.07-2.762H23.2l.07,1.451H23.3a3.325,3.325,0,0,1,3-1.642c2.044,0,3.582,1.729,3.582,4.3,0,3.04-1.852,4.544-3.844,4.544a2.967,2.967,0,0,1-2.6-1.328h-.035v4.6H21.888Zm1.521,2.254a3.461,3.461,0,0,0,.07.629,2.373,2.373,0,0,0,2.306,1.8c1.625,0,2.568-1.328,2.568-3.267,0-1.7-.891-3.146-2.516-3.146a2.452,2.452,0,0,0-2.324,1.9,2.492,2.492,0,0,0-.1.629Z" transform="translate(5.397 13.091)" fill="#5d5d5d"/>
            <path id="Trazado_911753" data-name="Trazado 911753" d="M31.59,51.36a.952.952,0,0,1-1.9,0,.935.935,0,0,1,.96-.96.911.911,0,0,1,.943.96m-1.713,2.376h1.538v8.457H29.878Z" transform="translate(7.344 12.467)" fill="#5d5d5d"/>
            <path id="Trazado_911754" data-name="Trazado 911754" d="M33.024,60a4.028,4.028,0,0,0,2.027.611c1.118,0,1.642-.559,1.642-1.257,0-.733-.437-1.136-1.572-1.555-1.521-.541-2.237-1.381-2.237-2.394,0-1.362,1.1-2.481,2.918-2.481a4.22,4.22,0,0,1,2.079.524L37.5,54.564a3.29,3.29,0,0,0-1.73-.49c-.908,0-1.416.525-1.416,1.154,0,.7.508,1.013,1.608,1.433,1.468.559,2.219,1.292,2.219,2.551,0,1.486-1.153,2.533-3.162,2.533a4.808,4.808,0,0,1-2.376-.578Z" transform="translate(8.074 13.091)" fill="#5d5d5d"/>
            <path id="Trazado_911755" data-name="Trazado 911755" d="M44.81,61.253a5.667,5.667,0,0,1-2.429.489,4.018,4.018,0,0,1-4.211-4.316,4.3,4.3,0,0,1,4.543-4.491,5.116,5.116,0,0,1,2.132.438L44.5,54.56a3.566,3.566,0,0,0-1.783-.4,3.188,3.188,0,0,0-.052,6.36,4.365,4.365,0,0,0,1.887-.42Z" transform="translate(9.442 13.094)" fill="#5d5d5d"/>
            <path id="Trazado_911756" data-name="Trazado 911756" d="M46.683,51.36a.952.952,0,0,1-1.9,0,.936.936,0,0,1,.96-.96.912.912,0,0,1,.944.96M44.97,53.737h1.538v8.457H44.97Z" transform="translate(11.077 12.467)" fill="#5d5d5d"/>
            <path id="Trazado_911757" data-name="Trazado 911757" d="M48.222,55.4c0-.873-.017-1.589-.07-2.289h1.363l.086,1.4h.036a3.11,3.11,0,0,1,2.8-1.59c1.17,0,2.987.7,2.987,3.6V61.57H53.884V56.7c0-1.363-.508-2.5-1.957-2.5a2.184,2.184,0,0,0-2.062,1.572,2.218,2.218,0,0,0-.1.717V61.57H48.222Z" transform="translate(11.912 13.091)" fill="#5d5d5d"/>
            <path id="Trazado_911758" data-name="Trazado 911758" d="M63.385,53.113c-.035.611-.07,1.294-.07,2.325v4.91c0,1.938-.384,3.127-1.206,3.861a4.483,4.483,0,0,1-3.075,1.014,5.46,5.46,0,0,1-2.813-.7l.384-1.17a4.771,4.771,0,0,0,2.481.664c1.573,0,2.726-.821,2.726-2.953V60.12h-.035a3.018,3.018,0,0,1-2.691,1.416c-2.1,0-3.6-1.783-3.6-4.124,0-2.865,1.87-4.491,3.809-4.491a2.813,2.813,0,0,1,2.638,1.468h.035l.07-1.276Zm-1.59,3.338a2.249,2.249,0,0,0-2.237-2.324c-1.467,0-2.516,1.24-2.516,3.2,0,1.66.838,3.041,2.5,3.041a2.248,2.248,0,0,0,2.132-1.573,2.676,2.676,0,0,0,.122-.822Z" transform="translate(13.726 13.091)" fill="#5d5d5d"/>
            <path id="Trazado_911759" data-name="Trazado 911759" d="M67.749,57.622a2.71,2.71,0,0,0,2.9,2.935,5.559,5.559,0,0,0,2.341-.437l.262,1.1a6.848,6.848,0,0,1-2.813.524,3.927,3.927,0,0,1-4.159-4.262c0-2.551,1.5-4.56,3.967-4.56,2.762,0,3.5,2.429,3.5,3.983a5.821,5.821,0,0,1-.052.717Zm4.508-1.1a2.189,2.189,0,0,0-2.132-2.5,2.548,2.548,0,0,0-2.359,2.5Z" transform="translate(16.396 13.091)" fill="#5d5d5d"/>
            <rect id="Rectángulo_403222" data-name="Rectángulo 403222" width="1.538" height="12.405" transform="translate(92.038 62.255)" fill="#5d5d5d"/>
            <path id="Trazado_911760" data-name="Trazado 911760" d="M78.84,51.36a.952.952,0,0,1-1.9,0,.936.936,0,0,1,.96-.96.912.912,0,0,1,.944.96m-1.713,2.376h1.538v8.457H77.127Z" transform="translate(19.032 12.467)" fill="#5d5d5d"/>
            <path id="Trazado_911761" data-name="Trazado 911761" d="M82.408,51.128v2.429h2.2v1.17h-2.2v4.562c0,1.048.3,1.642,1.153,1.642a3.422,3.422,0,0,0,.892-.1l.07,1.154a3.79,3.79,0,0,1-1.362.21,2.132,2.132,0,0,1-1.662-.647,3.133,3.133,0,0,1-.594-2.2V54.727H79.6v-1.17H80.9V51.53Z" transform="translate(19.69 12.647)" fill="#5d5d5d"/>
            <path id="Trazado_911762" data-name="Trazado 911762" d="M84.158,62.441a25.066,25.066,0,0,0,1.048-4.176l1.713-.175a21.239,21.239,0,0,1-1.66,4.246Z" transform="translate(20.819 14.37)" fill="#5d5d5d"/>
            <path id="Trazado_911763" data-name="Trazado 911763" d="M13.894,76.8a4.028,4.028,0,0,0,2.027.611c1.118,0,1.642-.559,1.642-1.257,0-.733-.437-1.136-1.572-1.555-1.521-.541-2.237-1.381-2.237-2.394,0-1.362,1.1-2.481,2.918-2.481a4.22,4.22,0,0,1,2.079.524l-.384,1.119a3.29,3.29,0,0,0-1.73-.49c-.908,0-1.416.525-1.416,1.154,0,.7.508,1.013,1.608,1.433,1.468.559,2.219,1.292,2.219,2.551,0,1.486-1.153,2.533-3.162,2.533a4.808,4.808,0,0,1-2.376-.578Z" transform="translate(3.342 17.247)" fill="#5d5d5d"/>
            <path id="Trazado_911764" data-name="Trazado 911764" d="M20.508,74.422a2.71,2.71,0,0,0,2.9,2.935,5.559,5.559,0,0,0,2.341-.437l.262,1.1a6.848,6.848,0,0,1-2.813.524,3.927,3.927,0,0,1-4.159-4.262c0-2.551,1.5-4.56,3.967-4.56,2.762,0,3.5,2.429,3.5,3.983a5.821,5.821,0,0,1-.052.717Zm4.508-1.1a2.189,2.189,0,0,0-2.132-2.5,2.548,2.548,0,0,0-2.359,2.5Z" transform="translate(4.71 17.247)" fill="#5d5d5d"/>
            <path id="Trazado_911765" data-name="Trazado 911765" d="M33.969,66.71V76.931c0,.752.017,1.608.07,2.184H32.658l-.07-1.468h-.035a3.126,3.126,0,0,1-2.883,1.66c-2.044,0-3.617-1.73-3.617-4.3-.017-2.813,1.73-4.543,3.793-4.543a2.828,2.828,0,0,1,2.55,1.294h.036V66.71ZM32.432,74.1a2.732,2.732,0,0,0-.071-.647,2.262,2.262,0,0,0-2.219-1.781c-1.59,0-2.533,1.4-2.533,3.267,0,1.713.838,3.128,2.5,3.128a2.313,2.313,0,0,0,2.254-1.835,2.671,2.671,0,0,0,.071-.665Z" transform="translate(6.445 16.502)" fill="#5d5d5d"/>
            <path id="Trazado_911766" data-name="Trazado 911766" d="M44.833,66.71V76.931c0,.752.017,1.608.07,2.184H43.522l-.07-1.468h-.035a3.126,3.126,0,0,1-2.883,1.66c-2.044,0-3.617-1.73-3.617-4.3-.017-2.813,1.73-4.543,3.792-4.543a2.829,2.829,0,0,1,2.551,1.294h.035V66.71ZM43.295,74.1a2.73,2.73,0,0,0-.07-.647,2.262,2.262,0,0,0-2.219-1.781c-1.59,0-2.533,1.4-2.533,3.267,0,1.713.838,3.128,2.5,3.128a2.313,2.313,0,0,0,2.254-1.835,2.673,2.673,0,0,0,.07-.665Z" transform="translate(9.132 16.502)" fill="#5d5d5d"/>
            <path id="Trazado_911767" data-name="Trazado 911767" d="M47.055,68.16a.952.952,0,0,1-1.9,0,.936.936,0,0,1,.96-.96.913.913,0,0,1,.944.96m-1.713,2.376H46.88v8.457H45.342Z" transform="translate(11.169 16.623)" fill="#5d5d5d"/>
            <path id="Trazado_911768" data-name="Trazado 911768" d="M53.393,78.37,53.271,77.3h-.052a3.146,3.146,0,0,1-2.586,1.259,2.409,2.409,0,0,1-2.586-2.429c0-2.044,1.817-3.162,5.084-3.145v-.176a1.742,1.742,0,0,0-1.921-1.956,4.212,4.212,0,0,0-2.2.629l-.351-1.014a5.254,5.254,0,0,1,2.778-.751c2.587,0,3.216,1.765,3.216,3.46v3.162a11.916,11.916,0,0,0,.14,2.027Zm-.227-4.316c-1.678-.035-3.581.262-3.581,1.9a1.361,1.361,0,0,0,1.451,1.468,2.1,2.1,0,0,0,2.043-1.416,1.6,1.6,0,0,0,.087-.489Z" transform="translate(11.886 17.247)" fill="#5d5d5d"/>
            <path id="Trazado_911769" data-name="Trazado 911769" d="M55.342,72.2c0-.873-.017-1.589-.07-2.289h1.345l.071,1.363h.052A2.912,2.912,0,0,1,59.4,69.722a2.5,2.5,0,0,1,2.394,1.7h.035a3.487,3.487,0,0,1,.943-1.1,2.888,2.888,0,0,1,1.87-.594c1.119,0,2.778.735,2.778,3.67v4.98h-1.5V73.584c0-1.625-.594-2.6-1.835-2.6a1.991,1.991,0,0,0-1.817,1.4,2.531,2.531,0,0,0-.122.768v5.225h-1.5V73.3c0-1.346-.6-2.324-1.765-2.324a2.1,2.1,0,0,0-1.9,1.537,2.128,2.128,0,0,0-.122.751v5.1h-1.5Z" transform="translate(13.673 17.247)" fill="#5d5d5d"/>
            <path id="Trazado_911770" data-name="Trazado 911770" d="M38.9,89c0-.873-.017-1.589-.07-2.289H40.2l.086,1.4h.036a3.11,3.11,0,0,1,2.8-1.59c1.17,0,2.987.7,2.987,3.6V95.17H44.566V90.3c0-1.363-.508-2.5-1.957-2.5a2.184,2.184,0,0,0-2.062,1.572,2.218,2.218,0,0,0-.1.717V95.17H38.9Z" transform="translate(9.607 21.403)" fill="#5d5d5d"/>
            <path id="Trazado_911771" data-name="Trazado 911771" d="M54.434,90.872a4.133,4.133,0,0,1-4.211,4.491,4.02,4.02,0,0,1-4.054-4.351,4.13,4.13,0,0,1,4.194-4.491,4.005,4.005,0,0,1,4.071,4.351m-6.71.087c0,1.852,1.065,3.249,2.568,3.249,1.468,0,2.568-1.38,2.568-3.284,0-1.432-.716-3.249-2.533-3.249s-2.6,1.676-2.6,3.284" transform="translate(11.421 21.403)" fill="#5d5d5d"/>
            <path id="Trazado_911772" data-name="Trazado 911772" d="M54.36,89c0-.873-.017-1.589-.07-2.289h1.363l.086,1.4h.036a3.11,3.11,0,0,1,2.8-1.59c1.17,0,2.987.7,2.987,3.6V95.17H60.022V90.3c0-1.363-.508-2.5-1.957-2.5A2.184,2.184,0,0,0,56,89.369a2.218,2.218,0,0,0-.1.717V95.17H54.36Z" transform="translate(13.43 21.403)" fill="#5d5d5d"/>
            <path id="Trazado_911773" data-name="Trazado 911773" d="M69.2,92.826c0,.874.017,1.643.07,2.306H67.909l-.087-1.38h-.035a3.181,3.181,0,0,1-2.8,1.572c-1.327,0-2.918-.733-2.918-3.7V86.675h1.538v4.683c0,1.608.489,2.691,1.886,2.691a2.223,2.223,0,0,0,2.027-1.4,2.249,2.249,0,0,0,.14-.787V86.675H69.2Z" transform="translate(15.356 21.441)" fill="#5d5d5d"/>
          </g>
        </g>
      </g>
    </g>
  </g>
</svg>
