<svg xmlns="http://www.w3.org/2000/svg" xmlns:xlink="http://www.w3.org/1999/xlink" width="50" height="50" viewBox="0 0 50 50">
  <defs>
    <clipPath id="clip-path">
      <rect id="Rect치ngulo_403008" data-name="Rect치ngulo 403008" width="22.645" height="20.174" fill="none"/>
    </clipPath>
  </defs>
  <g id="Grupo_1102223" data-name="Grupo 1102223" transform="translate(-180.051 -2980)">
    <rect id="Rect치ngulo_402944" data-name="Rect치ngulo 402944" width="50" height="50" transform="translate(180.051 2980)" fill="#ffc7b8"/>
    <g id="Grupo_1101108" data-name="Grupo 1101108" transform="translate(0 2209)">
      <path id="Trazado_911258" data-name="Trazado 911258" d="M15.5,0A15.5,15.5,0,1,1,0,15.5,15.5,15.5,0,0,1,15.5,0Z" transform="translate(190.051 781)" fill="#323232"/>
      <g id="Grupo_1101218" data-name="Grupo 1101218" transform="translate(194.229 786.413)">
        <g id="Grupo_1101217" data-name="Grupo 1101217" transform="translate(0 0)" clip-path="url(#clip-path)">
          <path id="Trazado_911328" data-name="Trazado 911328" d="M18.389,11.038a6.93,6.93,0,0,0,.758-7.189c-.813-1.643-3.076-4.319-9.1-3.778C3.4.667,1.192,4.236.553,5.743a6.515,6.515,0,0,0,.789,6.6c.091,1.751,1.5,2.871,3.65,2.871a6.6,6.6,0,0,0,.874-.055,2.643,2.643,0,0,1,.189,1.771,2.716,2.716,0,0,1-1.477,1.746L5,19.609a3.771,3.771,0,0,0,2.05-2.429,3.635,3.635,0,0,0-.174-2.264A2.568,2.568,0,0,0,8.647,12.35,3.144,3.144,0,0,0,5.2,9.1a3.764,3.764,0,0,0-3.571,1.792,5.545,5.545,0,0,1-.131-4.749c.567-1.337,2.544-4.506,8.647-5.054,4.014-.36,6.887.781,8.09,3.214a5.971,5.971,0,0,1-.571,6.011L10.095,2.787V20.173l4.9-4.9h7.647ZM7.625,12.35c0,1.1-.722,1.713-2.143,1.823l-.164-4.047A2.121,2.121,0,0,1,7.625,12.35M4.3,10.208l.16,3.958c-1.882-.2-2.1-1.442-2.1-2,0-1.167.918-1.751,1.94-1.954" transform="translate(0 0)" fill="#b6b5b6"/>
        </g>
      </g>
    </g>
  </g>
</svg>
