<svg xmlns="http://www.w3.org/2000/svg" width="74" height="74" viewBox="0 0 74 74">
  <g id="Grupo_1102139" data-name="Grupo 1102139" transform="translate(-699.051 -3619)">
    <circle id="Elipse_11553" data-name="Elipse 11553" cx="37" cy="37" r="37" transform="translate(699.051 3619)" fill="#9a9ef7"/>
    <g id="captura-de-movimiento" transform="translate(681.58 3631)">
      <g id="Grupo_1102126" data-name="Grupo 1102126" transform="translate(37.728 18.24)">
        <path id="Trazado_913028" data-name="Trazado 913028" d="M88.139,195.96a1.059,1.059,0,0,1-.813-1.737l3.638-4.363a1.059,1.059,0,0,1,1.627,1.356l-3.638,4.363A1.057,1.057,0,0,1,88.139,195.96Z" transform="translate(-87.08 -189.48)"/>
      </g>
      <g id="Grupo_1102127" data-name="Grupo 1102127" transform="translate(64.432 18.203)">
        <path id="Trazado_913029" data-name="Trazado 913029" d="M369.219,195.577a1.057,1.057,0,0,1-.81-.377l-3.674-4.363a1.059,1.059,0,0,1,1.62-1.364l3.674,4.363a1.059,1.059,0,0,1-.809,1.741Z" transform="translate(-364.485 -189.097)"/>
      </g>
      <g id="Grupo_1102128" data-name="Grupo 1102128" transform="translate(45.077 34.842)">
        <path id="Trazado_913030" data-name="Trazado 913030" d="M164.48,369.964a1.06,1.06,0,0,1-1.028-1.316l1.475-5.9a1.059,1.059,0,1,1,2.054.514l-1.475,5.9A1.059,1.059,0,0,1,164.48,369.964Z" transform="translate(-163.42 -361.947)"/>
      </g>
      <g id="Grupo_1102129" data-name="Grupo 1102129" transform="translate(60.047 34.682)">
        <path id="Trazado_913031" data-name="Trazado 913031" d="M321.466,368.37a1.059,1.059,0,0,1-1.027-.8l-1.475-5.964a1.059,1.059,0,0,1,2.056-.508l1.475,5.964a1.06,1.06,0,0,1-1.029,1.313Z" transform="translate(-318.936 -360.293)"/>
      </g>
      <path id="Trazado_913032" data-name="Trazado 913032" d="M193.61,103.854l-5.634-1.844V99.73a1.059,1.059,0,0,0-2.118,0V102l-5.54,1.747a1.059,1.059,0,0,0,.637,2.02l4.9-1.546v10.52l-4.969,2.84a1.059,1.059,0,0,0,1.051,1.839l4.978-2.844,4.978,2.844a1.059,1.059,0,0,0,1.051-1.839l-4.969-2.84v-10.5l4.975,1.628a1.059,1.059,0,1,0,.659-2.013Z" transform="translate(-132.948 -89.179)"/>
      <g id="Grupo_1102130" data-name="Grupo 1102130" transform="translate(48.194 0)">
        <path id="Trazado_913033" data-name="Trazado 913033" d="M201.58,11.513a5.776,5.776,0,1,1,5.776-5.776A5.782,5.782,0,0,1,201.58,11.513Zm0-9.434a3.658,3.658,0,1,0,3.658,3.658A3.662,3.662,0,0,0,201.58,2.08Z" transform="translate(-195.804 0)" fill="#3cc"/>
      </g>
      <g id="Grupo_1102131" data-name="Grupo 1102131" transform="translate(40.332 12.568)">
        <path id="Trazado_913034" data-name="Trazado 913034" d="M118.341,138.94a4.2,4.2,0,1,1,4.2-4.2A4.208,4.208,0,0,1,118.341,138.94Zm0-6.289a2.086,2.086,0,1,0,2.086,2.086A2.088,2.088,0,0,0,118.341,132.651Z" transform="translate(-114.137 -130.56)" fill="#3cc"/>
      </g>
      <g id="Grupo_1102132" data-name="Grupo 1102132" transform="translate(59.2 12.568)">
        <path id="Trazado_913035" data-name="Trazado 913035" d="M314.341,138.94a4.2,4.2,0,1,1,4.2-4.2A4.208,4.208,0,0,1,314.341,138.94Zm0-6.289a2.086,2.086,0,1,0,2.086,2.086A2.088,2.088,0,0,0,314.341,132.651Z" transform="translate(-310.137 -130.56)" fill="#3cc"/>
      </g>
      <g id="Grupo_1102133" data-name="Grupo 1102133" transform="translate(32.471 22.002)">
        <path id="Trazado_913036" data-name="Trazado 913036" d="M36.675,236.94a4.2,4.2,0,1,1,4.2-4.2A4.208,4.208,0,0,1,36.675,236.94Zm0-6.289a2.086,2.086,0,1,0,2.086,2.086A2.088,2.088,0,0,0,36.675,230.65Z" transform="translate(-32.471 -228.56)" fill="#3cc"/>
      </g>
      <g id="Grupo_1102134" data-name="Grupo 1102134" transform="translate(67.062 22.002)">
        <path id="Trazado_913037" data-name="Trazado 913037" d="M396.008,236.939a4.2,4.2,0,1,1,4.2-4.2A4.208,4.208,0,0,1,396.008,236.939Zm0-6.289a2.086,2.086,0,1,0,2.086,2.086A2.088,2.088,0,0,0,396.008,230.65Z" transform="translate(-391.805 -228.56)" fill="#3cc"/>
      </g>
      <g id="Grupo_1102135" data-name="Grupo 1102135" transform="translate(41.119 40.869)">
        <path id="Trazado_913038" data-name="Trazado 913038" d="M126.508,432.94a4.2,4.2,0,1,1,4.2-4.2A4.208,4.208,0,0,1,126.508,432.94Zm0-6.289a2.086,2.086,0,1,0,2.086,2.086,2.088,2.088,0,0,0-2.086-2.086Z" transform="translate(-122.305 -424.56)" fill="#3cc"/>
      </g>
      <g id="Grupo_1102136" data-name="Grupo 1102136" transform="translate(59.2 40.869)">
        <path id="Trazado_913039" data-name="Trazado 913039" d="M314.341,432.94a4.2,4.2,0,1,1,4.2-4.2A4.208,4.208,0,0,1,314.341,432.94Zm0-6.289a2.086,2.086,0,1,0,2.086,2.086A2.088,2.088,0,0,0,314.341,426.651Z" transform="translate(-310.137 -424.56)" fill="#3cc"/>
      </g>
      <g id="Grupo_1102137" data-name="Grupo 1102137" transform="translate(44.263 28.291)">
        <path id="Trazado_913040" data-name="Trazado 913040" d="M159.175,302.273a4.2,4.2,0,1,1,4.2-4.2A4.208,4.208,0,0,1,159.175,302.273Zm0-6.289a2.086,2.086,0,1,0,2.086,2.086A2.088,2.088,0,0,0,159.175,295.984Z" transform="translate(-154.971 -293.893)" fill="#3cc"/>
      </g>
      <g id="Grupo_1102138" data-name="Grupo 1102138" transform="translate(56.055 28.291)">
        <path id="Trazado_913041" data-name="Trazado 913041" d="M281.674,302.273a4.2,4.2,0,1,1,4.2-4.2A4.208,4.208,0,0,1,281.674,302.273Zm0-6.289a2.086,2.086,0,1,0,2.086,2.086A2.088,2.088,0,0,0,281.674,295.984Z" transform="translate(-277.471 -293.893)" fill="#3cc"/>
      </g>
    </g>
  </g>
</svg>
