<svg xmlns="http://www.w3.org/2000/svg" xmlns:xlink="http://www.w3.org/1999/xlink" width="67.5" height="67.5" viewBox="0 0 67.5 67.5">
  <defs>
    <clipPath id="clip-path">
      <rect id="Rectángulo_403368" data-name="Rectángulo 403368" width="37.024" height="37.024" fill="none"/>
    </clipPath>
  </defs>
  <g id="Grupo_1101601" data-name="Grupo 1101601" transform="translate(-190.051 -624)">
    <g id="Grupo_1101199" data-name="Grupo 1101199" transform="translate(190.051 624)">
      <path id="Trazado_911258" data-name="Trazado 911258" d="M33.75,0A33.75,33.75,0,1,1,0,33.75,33.75,33.75,0,0,1,33.75,0Z" transform="translate(0 0)" fill="#3c3c3c"/>
    </g>
    <g id="Grupo_1101600" data-name="Grupo 1101600" transform="translate(205.719 639.668)">
      <g id="Grupo_1101600-2" data-name="Grupo 1101600" transform="translate(0 0)" clip-path="url(#clip-path)">
        <path id="Trazado_911813" data-name="Trazado 911813" d="M24.812,1.272,1.271,24.812a4.341,4.341,0,0,0,0,6.139l4.8,4.8a4.341,4.341,0,0,0,6.14,0l2.74-2.74L8.968,27.029a.846.846,0,0,1,1.2-1.2l5.984,5.984,7.236-7.236-4.05-4.05a.846.846,0,1,1,1.2-1.2l4.05,4.05,6.874-6.873L25.47,10.527a.846.846,0,1,1,1.2-1.2l5.984,5.984,3.1-3.1a4.341,4.341,0,0,0,0-6.139l-4.8-4.8a4.341,4.341,0,0,0-6.139,0" transform="translate(0 0)" fill="#b6b5b6"/>
      </g>
    </g>
  </g>
</svg>
