<svg xmlns="http://www.w3.org/2000/svg" xmlns:xlink="http://www.w3.org/1999/xlink" width="340" height="184" viewBox="0 0 340 184">
  <defs>
    <clipPath id="clip-path">
      <rect id="Rectángulo_403496" data-name="Rectángulo 403496" width="152.649" height="148.348" fill="none"/>
    </clipPath>
  </defs>
  <g id="Grupo_1102228" data-name="Grupo 1102228" transform="translate(-1050.051 -2548)">
    <rect id="Rectángulo_403501" data-name="Rectángulo 403501" width="340" height="184" rx="7" transform="translate(1050.051 2548)" fill="#c9e2d8"/>
    <g id="Grupo_1101825" data-name="Grupo 1101825" transform="translate(3 -7)">
      <g id="Rectángulo_403495" data-name="Rectángulo 403495" transform="translate(1135.051 2566)" fill="none" stroke="#4c4e7b" stroke-width="1">
        <rect width="164" height="164" stroke="none"/>
        <rect x="0.5" y="0.5" width="163" height="163" fill="none"/>
      </g>
      <g id="Grupo_1101824" data-name="Grupo 1101824" transform="translate(1141.051 2566)">
        <g id="Grupo_1101815" data-name="Grupo 1101815">
          <g id="Grupo_1101814" data-name="Grupo 1101814" clip-path="url(#clip-path)">
            <path id="Trazado_911982" data-name="Trazado 911982" d="M732.251,94.673q0-.279.009-.456t.028-.307a.651.651,0,0,1,.2-.41,2.208,2.208,0,0,1,.8-.54,6.247,6.247,0,0,1,1.108-.354,9.916,9.916,0,0,1,1.126-.186q.54-.056.856-.056a6.762,6.762,0,0,1,1.21.093,4.686,4.686,0,0,1,.856.233,2.712,2.712,0,0,1,.586.307q.233.168.419.316a4.636,4.636,0,0,1,1.666-.745,8.351,8.351,0,0,1,1.852-.2,3.657,3.657,0,0,1,2.392.726,3.083,3.083,0,0,1,.922,2.439V101.8a.764.764,0,0,1-.1.391.443.443,0,0,1-.363.112H743.16q-.317,0-.4-.13a.648.648,0,0,1-.084-.354V95.66q0-.186-.019-.4a1.3,1.3,0,0,0-.093-.391.662.662,0,0,0-.233-.289.786.786,0,0,0-.456-.112.688.688,0,0,0-.493.168.9.9,0,0,0-.214.261,1.3,1.3,0,0,0-.074.316q-.019.168-.019.54v6.05a.806.806,0,0,1-.093.372q-.075.112-.391.112H738a.706.706,0,0,1-.419-.093.48.48,0,0,1-.121-.391V95.641q0-.409-.019-.577a.75.75,0,0,0-.112-.316.688.688,0,0,0-.27-.242.772.772,0,0,0-.363-.093.8.8,0,0,0-.344.084.935.935,0,0,0-.307.233.725.725,0,0,0-.168.391q-.019.2-.019.577v6.069a.415.415,0,0,1-.521.521h-2.625a.542.542,0,0,1-.363-.093.471.471,0,0,1-.1-.354Zm11.467-53.241a6.2,6.2,0,0,1-.326,2.439,4.6,4.6,0,0,1-1.024,1.647,3.851,3.851,0,0,1-1.471.931,5.091,5.091,0,0,1-1.685.289,4.805,4.805,0,0,1-1.61-.279,3.827,3.827,0,0,1-1.406-.875,4.383,4.383,0,0,1-1-1.554,6.213,6.213,0,0,1-.382-2.3,7.162,7.162,0,0,1,.223-1.992,5.083,5.083,0,0,1,.54-1.247,3.87,3.87,0,0,1,1.666-1.517,4.938,4.938,0,0,1,2.038-.437,4.347,4.347,0,0,1,1.871.382,4,4,0,0,1,1.368,1.042,4.682,4.682,0,0,1,.856,1.545,6.72,6.72,0,0,1,.335,1.908Zm-5.473,37.9a1.663,1.663,0,0,0,.391.782,2.224,2.224,0,0,0,.6.465,2.485,2.485,0,0,0,.652.233,2.936,2.936,0,0,0,.568.065,2.022,2.022,0,0,0,.838-.14,2.416,2.416,0,0,0,.5-.307,5.04,5.04,0,0,1,.475-.41.644.644,0,0,1,.382-.112.608.608,0,0,1,.475.223.931.931,0,0,1,.2.633,3.727,3.727,0,0,1-.661,1.815,3.54,3.54,0,0,1-1.08.977,3.433,3.433,0,0,1-1.815.428q-.3,0-.68-.037a4.461,4.461,0,0,1-.8-.158,4.722,4.722,0,0,1-.838-.335,3.3,3.3,0,0,1-.773-.549,3.238,3.238,0,0,1-.372-.419,4.4,4.4,0,0,1-.484-.81,6.273,6.273,0,0,1-.419-1.229,7.193,7.193,0,0,1-.177-1.694,6,6,0,0,1,.4-2.318,4.453,4.453,0,0,1,1.033-1.554,3.911,3.911,0,0,1,1.415-.866,4.665,4.665,0,0,1,1.527-.27,3.31,3.31,0,0,1,1.834.465,3.9,3.9,0,0,1,1.136,1.089,4.133,4.133,0,0,1,.586,1.275,4.4,4.4,0,0,1,.168,1.024,1.376,1.376,0,0,1-.093.558.844.844,0,0,1-.233.316.75.75,0,0,1-.3.149c-.106.025-.2.044-.289.056Zm1.62-54.191h2.848a1.1,1.1,0,0,1,.344.047q.14.047.14.363V27.4q0,.317-.14.382a.807.807,0,0,1-.344.065h-6.255a.633.633,0,0,1-.372-.084q-.112-.084-.13-.4V15.147q.018-.335.177-.391a.919.919,0,0,1,.307-.056h2.923a.8.8,0,0,1,.354.065q.13.065.149.363Zm-.112,39.484q0,.3-.1.372a.691.691,0,0,1-.382.074h-2.681q-.317,0-.391-.112a.7.7,0,0,1-.074-.372V57.014q0-.261.019-.456a.72.72,0,0,1,.13-.354,1.164,1.164,0,0,1,.363-.307,3.738,3.738,0,0,1,.7-.3,6.13,6.13,0,0,1,.866-.214q.475-.084.931-.14t.866-.074q.409-.018.689-.019.223,0,.67.028a2.951,2.951,0,0,1,.912.214,2.043,2.043,0,0,1,.81.6,1.744,1.744,0,0,1,.344,1.154,1.715,1.715,0,0,1-.317,1.033,1.1,1.1,0,0,1-.949.437.9.9,0,0,1-.819-.344,3.026,3.026,0,0,1-.354-.773,1.681,1.681,0,0,0-.2-.456.493.493,0,0,0-.428-.158q-.447,0-.521.223a1.65,1.65,0,0,0-.074.521Zm.168,12.7q-.019-.186-.047-.447a1.861,1.861,0,0,0-.121-.493,1.033,1.033,0,0,0-.27-.391.687.687,0,0,0-.475-.158.828.828,0,0,0-.521.158,1.04,1.04,0,0,0-.316.41,1.955,1.955,0,0,0-.149.568,5.518,5.518,0,0,0-.037.652Zm.056-35.966q0-.316-.009-.642t-.047-.754q-.019-.186-.047-.419a1.973,1.973,0,0,0-.1-.437,1.089,1.089,0,0,0-.2-.344.389.389,0,0,0-.307-.14.374.374,0,0,0-.3.13.961.961,0,0,0-.177.326,2.682,2.682,0,0,0-.1.428q-.037.233-.056.419a5.084,5.084,0,0,0-.047.568q-.01.307-.019.6t-.009.512v.316q0,.372.009.791a5.053,5.053,0,0,0,.074.782,2.035,2.035,0,0,0,.2.605.406.406,0,0,0,.372.242.49.49,0,0,0,.419-.223,1.583,1.583,0,0,0,.233-.624,6.487,6.487,0,0,0,.093-.949Q739.976,41.991,739.976,41.358Z" transform="translate(-595.937 -11.963)"/>
            <text id="_" data-name=" " transform="translate(138.826 93.079) rotate(90)" font-size="16" font-family="SegoeUI, Segoe UI"><tspan x="0" y="0"> </tspan></text>
            <path id="Trazado_911983" data-name="Trazado 911983" d="M612.251,94.022q0-.279.009-.456t.028-.307a.651.651,0,0,1,.2-.41,2.208,2.208,0,0,1,.8-.54,6.242,6.242,0,0,1,1.108-.354,9.908,9.908,0,0,1,1.126-.186q.54-.056.856-.056a6.762,6.762,0,0,1,1.21.093,4.685,4.685,0,0,1,.856.233,2.711,2.711,0,0,1,.586.307q.233.168.419.316a4.636,4.636,0,0,1,1.666-.745,8.351,8.351,0,0,1,1.852-.2,3.657,3.657,0,0,1,2.392.726,3.083,3.083,0,0,1,.921,2.439v6.274a.764.764,0,0,1-.1.391.443.443,0,0,1-.363.112H623.16q-.317,0-.4-.13a.648.648,0,0,1-.084-.354V95.009q0-.186-.019-.4a1.3,1.3,0,0,0-.093-.391.662.662,0,0,0-.233-.289.786.786,0,0,0-.456-.112.689.689,0,0,0-.493.168.9.9,0,0,0-.214.261,1.307,1.307,0,0,0-.074.316q-.019.168-.019.54v6.05a.806.806,0,0,1-.093.372q-.075.112-.391.112H618a.706.706,0,0,1-.419-.093.48.48,0,0,1-.121-.391V94.99q0-.409-.019-.577a.748.748,0,0,0-.112-.316.688.688,0,0,0-.27-.242.772.772,0,0,0-.363-.093.8.8,0,0,0-.344.084.936.936,0,0,0-.307.233.725.725,0,0,0-.168.391q-.019.2-.019.577v6.069a.415.415,0,0,1-.521.521h-2.625a.542.542,0,0,1-.363-.093.471.471,0,0,1-.1-.354Zm11.244-13.217a6.35,6.35,0,0,1-.028.642,1.369,1.369,0,0,1-.158.512,1.488,1.488,0,0,1-.577.586,4.474,4.474,0,0,1-.949.428,6.5,6.5,0,0,1-1.182.261,9.851,9.851,0,0,1-1.275.084,7.939,7.939,0,0,1-2.215-.251,3.065,3.065,0,0,1-1.284-.689,2.155,2.155,0,0,1-.6-1.005,4.711,4.711,0,0,1-.149-1.2V73.806q0-.279.149-.344a.829.829,0,0,1,.335-.065h2.625a.879.879,0,0,1,.354.065q.149.065.149.363v6.143a2.738,2.738,0,0,0,.074.679q.074.289.521.289.409,0,.484-.289a2.747,2.747,0,0,0,.074-.679V73.88a1.436,1.436,0,0,1,.065-.354q.046-.13.363-.13h2.718a.771.771,0,0,1,.363.074q.14.075.14.372Zm-8.34-42.928a5.68,5.68,0,0,1,.028-.652.707.707,0,0,1,.177-.391,1.487,1.487,0,0,1,.354-.261,3.888,3.888,0,0,1,.754-.326,7.7,7.7,0,0,1,1.136-.27,9.054,9.054,0,0,1,1.5-.112q.316,0,.726.028a6.064,6.064,0,0,1,.847.121,4.389,4.389,0,0,1,.875.289,3.1,3.1,0,0,1,.81.531,4.581,4.581,0,0,1,.949,1.415,5.493,5.493,0,0,1,.447,2.346,9.1,9.1,0,0,1-.233,2.076,5.929,5.929,0,0,1-.707,1.768,3.7,3.7,0,0,1-1.21,1.229,3.236,3.236,0,0,1-1.741.456,2.79,2.79,0,0,1-.717-.074q-.27-.075-.437-.13v3.742a.88.88,0,0,1-.065.354q-.065.149-.382.13h-2.588a.732.732,0,0,1-.391-.084q-.13-.084-.13-.382Zm5.864,20.757a6.654,6.654,0,0,1,.586.316,3.047,3.047,0,0,1,1.21,1.378,2.815,2.815,0,0,1,.233,1.191,3.7,3.7,0,0,1-.167,1.061,2.747,2.747,0,0,1-.586,1.033,3.14,3.14,0,0,1-1.126.782,4.563,4.563,0,0,1-1.806.307,5.631,5.631,0,0,1-1.843-.261,3.825,3.825,0,0,1-1.2-.642,2.315,2.315,0,0,1-.652-.819,2,2,0,0,1-.2-.81,1.7,1.7,0,0,1,.084-.521,1.325,1.325,0,0,1,.261-.465,1.284,1.284,0,0,1,.438-.326,1.448,1.448,0,0,1,.614-.121,1.292,1.292,0,0,1,.828.233,2.439,2.439,0,0,1,.4.382,2.766,2.766,0,0,1,.186.279q.074.13.2.335.13.186.316.41a.57.57,0,0,0,.856.056.618.618,0,0,0,.186-.484.772.772,0,0,0-.316-.661,7.978,7.978,0,0,0-1.005-.586l-.8-.372q-.261-.13-.624-.335a2.888,2.888,0,0,1-.679-.54,3.07,3.07,0,0,1-.54-.81,2.672,2.672,0,0,1-.223-1.145,3.588,3.588,0,0,1,.14-.912,2.505,2.505,0,0,1,.54-.987,3.066,3.066,0,0,1,1.136-.782A4.934,4.934,0,0,1,619.4,54.5a5.233,5.233,0,0,1,1.573.2,3.157,3.157,0,0,1,1.033.521,1.951,1.951,0,0,1,.568.707,1.845,1.845,0,0,1,.177.763,1.456,1.456,0,0,1-.316.912,1.1,1.1,0,0,1-.931.41,1.345,1.345,0,0,1-.521-.093,1.516,1.516,0,0,1-.391-.233,1.656,1.656,0,0,1-.3-.326q-.13-.186-.242-.372a3.5,3.5,0,0,0-.344-.512.565.565,0,0,0-.456-.214.462.462,0,0,0-.4.2.8.8,0,0,0-.14.475.814.814,0,0,0,.363.726,5.436,5.436,0,0,0,.828.447Zm.112-31.907q0,.317-.149.391a.7.7,0,0,1-.316.074h-2.848q-.3,0-.344-.149a1.263,1.263,0,0,1-.047-.372V18.033a.783.783,0,0,1,.074-.354q.074-.149.391-.13h2.792a.363.363,0,0,1,.447.447Zm-.149-11.337a1.45,1.45,0,0,1-.149.689,1.247,1.247,0,0,1-.391.447,1.647,1.647,0,0,1-.531.242,2.264,2.264,0,0,1-.568.074,2.642,2.642,0,0,1-.661-.084,1.746,1.746,0,0,1-.577-.261,1.411,1.411,0,0,1-.41-.447,1.247,1.247,0,0,1-.158-.642,1.729,1.729,0,0,1,.084-.512,1.354,1.354,0,0,1,.279-.493,1.4,1.4,0,0,1,.54-.363,2.378,2.378,0,0,1,.884-.14,2.006,2.006,0,0,1,.763.13,1.367,1.367,0,0,1,.8.819A1.6,1.6,0,0,1,620.982,15.389ZM618.71,43.778a.5.5,0,0,0,.121.047.888.888,0,0,0,.158.009.7.7,0,0,0,.484-.149,1.009,1.009,0,0,0,.261-.372,3.465,3.465,0,0,0,.261-1.089q.056-.624.056-1.052a10.856,10.856,0,0,0-.093-1.545,4.8,4.8,0,0,0-.242-1.015,1.524,1.524,0,0,0-.326-.549.5.5,0,0,0-.326-.168.28.28,0,0,0-.307.251,2.7,2.7,0,0,0-.047.493Z" transform="translate(-498.276 -11.312)"/>
          </g>
        </g>
        <text id="_2" data-name=" " transform="translate(116.487 93.079) rotate(90)" font-size="16" font-family="SegoeUI, Segoe UI"><tspan x="0" y="0"> </tspan></text>
        <g id="Grupo_1101817" data-name="Grupo 1101817">
          <g id="Grupo_1101816" data-name="Grupo 1101816" clip-path="url(#clip-path)">
            <path id="Trazado_911984" data-name="Trazado 911984" d="M514.948,36.631a6.2,6.2,0,0,1-.326,2.439,4.6,4.6,0,0,1-1.024,1.647,3.851,3.851,0,0,1-1.471.931,5.091,5.091,0,0,1-1.685.289,4.805,4.805,0,0,1-1.61-.279,3.827,3.827,0,0,1-1.406-.875,4.384,4.384,0,0,1-1-1.554,6.213,6.213,0,0,1-.382-2.3,7.163,7.163,0,0,1,.223-1.992,5.084,5.084,0,0,1,.54-1.247,3.87,3.87,0,0,1,1.666-1.517,4.938,4.938,0,0,1,2.038-.437,4.347,4.347,0,0,1,1.871.382,4,4,0,0,1,1.368,1.042,4.683,4.683,0,0,1,.856,1.545,6.722,6.722,0,0,1,.335,1.908Zm0,37.232a6.2,6.2,0,0,1-.326,2.439,4.6,4.6,0,0,1-1.024,1.647,3.851,3.851,0,0,1-1.471.931,5.091,5.091,0,0,1-1.685.289,4.805,4.805,0,0,1-1.61-.279,3.827,3.827,0,0,1-1.406-.875,4.385,4.385,0,0,1-1-1.554,6.213,6.213,0,0,1-.382-2.3,7.162,7.162,0,0,1,.223-1.992,5.084,5.084,0,0,1,.54-1.247,3.87,3.87,0,0,1,1.666-1.517,4.938,4.938,0,0,1,2.038-.437,4.344,4.344,0,0,1,1.871.382,4,4,0,0,1,1.368,1.042,4.683,4.683,0,0,1,.856,1.545,6.722,6.722,0,0,1,.335,1.908Zm-.316-52.813a4.854,4.854,0,0,1-.1.875,1.122,1.122,0,0,1-.568.67,2.949,2.949,0,0,1-.456.214,6.322,6.322,0,0,1-.745.233q-.438.112-.968.2a7.223,7.223,0,0,1-1.126.084,5.419,5.419,0,0,1-2.15-.382,3.679,3.679,0,0,1-1.424-1.042,4.129,4.129,0,0,1-.782-1.545,7.2,7.2,0,0,1-.242-1.908,7.911,7.911,0,0,1,.27-2.113,5.57,5.57,0,0,1,.773-1.7,3.756,3.756,0,0,1,1.21-1.136,3.066,3.066,0,0,1,1.564-.41,2.626,2.626,0,0,1,.642.065,3.128,3.128,0,0,1,.531.2V9.284q0-.335.168-.41A.911.911,0,0,1,511.6,8.8h2.513a.822.822,0,0,1,.382.074q.14.075.14.354Zm-3.649,76.008q0,.3-.1.372a.691.691,0,0,1-.382.074h-2.681q-.317,0-.391-.112a.7.7,0,0,1-.074-.372V89.444q0-.261.019-.456a.721.721,0,0,1,.13-.354,1.165,1.165,0,0,1,.363-.307,3.727,3.727,0,0,1,.7-.3,6.1,6.1,0,0,1,.866-.214q.475-.084.931-.14t.866-.074q.409-.018.689-.019.223,0,.67.028a2.95,2.95,0,0,1,.912.214,2.042,2.042,0,0,1,.81.6,1.744,1.744,0,0,1,.344,1.154,1.715,1.715,0,0,1-.316,1.033,1.1,1.1,0,0,1-.949.437.9.9,0,0,1-.819-.344,3.024,3.024,0,0,1-.354-.773,1.677,1.677,0,0,0-.2-.456.493.493,0,0,0-.428-.158q-.447,0-.521.223a1.649,1.649,0,0,0-.074.521Zm-2.29-50.6q0-.316.149-.372a1.007,1.007,0,0,1,.354-.056H511.8a.682.682,0,0,1,.382.084q.121.084.121.363v13.31q0,.317-.121.4a.682.682,0,0,1-.382.084h-2.588a.676.676,0,0,1-.391-.084q-.112-.084-.13-.4Zm2.364-31.5a.8.8,0,0,0-.279-.056.653.653,0,0,0-.586.372,3.1,3.1,0,0,0-.326.875,6.262,6.262,0,0,0-.14,1.024q-.028.521-.028.819,0,.354.037.884a6.761,6.761,0,0,0,.149,1.024,3.455,3.455,0,0,0,.3.847.541.541,0,0,0,.465.354.315.315,0,0,0,.354-.251,3.155,3.155,0,0,0,.056-.661Zm.149,21.594q0-.316-.009-.642t-.047-.754q-.019-.186-.047-.419a1.966,1.966,0,0,0-.1-.437,1.089,1.089,0,0,0-.2-.344.389.389,0,0,0-.307-.14.373.373,0,0,0-.3.13.961.961,0,0,0-.177.326,2.692,2.692,0,0,0-.1.428q-.037.233-.056.419a5.1,5.1,0,0,0-.047.568q-.009.307-.019.6t-.009.512v.316q0,.373.009.791a5.045,5.045,0,0,0,.074.782,2.034,2.034,0,0,0,.2.605.406.406,0,0,0,.372.242.49.49,0,0,0,.419-.223,1.582,1.582,0,0,0,.233-.624,6.49,6.49,0,0,0,.093-.949Q511.206,37.189,511.207,36.556Zm0,37.232q0-.316-.009-.642t-.047-.754q-.019-.186-.047-.419a1.966,1.966,0,0,0-.1-.437,1.089,1.089,0,0,0-.2-.344.389.389,0,0,0-.307-.14.373.373,0,0,0-.3.13.961.961,0,0,0-.177.326,2.692,2.692,0,0,0-.1.428q-.037.233-.056.419a5.1,5.1,0,0,0-.047.568q-.009.307-.019.6t-.009.512v.316q0,.373.009.791a5.045,5.045,0,0,0,.074.782,2.034,2.034,0,0,0,.2.605.406.406,0,0,0,.372.242.49.49,0,0,0,.419-.223,1.582,1.582,0,0,0,.233-.624,6.49,6.49,0,0,0,.093-.949Q511.206,74.421,511.207,73.788Z" transform="translate(-411.845 -7.162)"/>
          </g>
        </g>
        <text id="_3" data-name=" " transform="translate(94.149 93.079) rotate(90)" font-size="16" font-family="SegoeUI, Segoe UI"><tspan x="0" y="0"> </tspan></text>
        <g id="Grupo_1101819" data-name="Grupo 1101819">
          <g id="Grupo_1101818" data-name="Grupo 1101818" clip-path="url(#clip-path)">
            <path id="Trazado_911985" data-name="Trazado 911985" d="M395.1,36.133a6.657,6.657,0,0,1,.586.316,3.047,3.047,0,0,1,1.21,1.378,2.816,2.816,0,0,1,.233,1.191,3.7,3.7,0,0,1-.168,1.061,2.746,2.746,0,0,1-.586,1.033,3.141,3.141,0,0,1-1.126.782,4.563,4.563,0,0,1-1.806.307,5.632,5.632,0,0,1-1.843-.261,3.826,3.826,0,0,1-1.2-.642,2.314,2.314,0,0,1-.652-.819,2,2,0,0,1-.2-.81,1.7,1.7,0,0,1,.084-.521,1.324,1.324,0,0,1,.261-.465,1.284,1.284,0,0,1,.437-.326,1.447,1.447,0,0,1,.614-.121,1.292,1.292,0,0,1,.828.233,2.44,2.44,0,0,1,.4.382,2.766,2.766,0,0,1,.186.279q.074.13.2.335.13.186.316.41a.57.57,0,0,0,.856.056.618.618,0,0,0,.186-.484.772.772,0,0,0-.316-.661A7.973,7.973,0,0,0,392.6,38.2l-.8-.372q-.261-.13-.624-.335a2.886,2.886,0,0,1-.68-.54,3.07,3.07,0,0,1-.54-.81A2.672,2.672,0,0,1,389.737,35a3.591,3.591,0,0,1,.14-.912,2.5,2.5,0,0,1,.54-.987,3.066,3.066,0,0,1,1.136-.782A4.934,4.934,0,0,1,393.479,32a5.234,5.234,0,0,1,1.573.2,3.157,3.157,0,0,1,1.033.521,1.952,1.952,0,0,1,.568.707,1.845,1.845,0,0,1,.177.763,1.456,1.456,0,0,1-.316.912,1.1,1.1,0,0,1-.931.41,1.345,1.345,0,0,1-.521-.093,1.515,1.515,0,0,1-.391-.233,1.656,1.656,0,0,1-.3-.326q-.13-.186-.242-.372a3.509,3.509,0,0,0-.344-.512.565.565,0,0,0-.456-.214.462.462,0,0,0-.4.2.8.8,0,0,0-.14.475.814.814,0,0,0,.363.726,5.432,5.432,0,0,0,.828.447Zm-.316,34.793v4.9q0,.3.028.586a2.005,2.005,0,0,0,.121.531.827.827,0,0,0,.307.391,1.11,1.11,0,0,0,.586.168q.13,0,.289.009a.815.815,0,0,1,.3.074.567.567,0,0,1,.233.2.721.721,0,0,1,.093.4.671.671,0,0,1-.214.465,2.084,2.084,0,0,1-.558.4,3.354,3.354,0,0,1-.81.279,4.374,4.374,0,0,1-2-.028,2.386,2.386,0,0,1-1.033-.558,2.015,2.015,0,0,1-.717-1.1,5.955,5.955,0,0,1-.14-1.322v-5.4h-.912c-.136-.025-.217-.074-.242-.149a.654.654,0,0,1-.037-.2v-.819a.214.214,0,0,1,.242-.242h.949v-.894a1.144,1.144,0,0,1,.047-.382A.525.525,0,0,1,391.6,68l2.439-1.08q.093-.037.158-.056a.587.587,0,0,1,.158-.019q.316,0,.372.251a2,2,0,0,1,.056.419v1.992h1.1a.933.933,0,0,1,.326.047c.081.031.121.128.121.289v.521q0,.13-.009.223c-.006.062-.009.1-.009.112a.224.224,0,0,1-.158.2,1.2,1.2,0,0,1-.27.028Zm.428-10.853q0,.317-.149.391a.7.7,0,0,1-.316.074H391.9q-.3,0-.344-.149a1.264,1.264,0,0,1-.047-.372V51.379a.782.782,0,0,1,.074-.354q.074-.149.391-.13h2.792a.363.363,0,0,1,.447.447Zm-.149-11.337a1.45,1.45,0,0,1-.149.689,1.247,1.247,0,0,1-.391.447,1.647,1.647,0,0,1-.531.242,2.264,2.264,0,0,1-.568.074,2.642,2.642,0,0,1-.661-.084,1.747,1.747,0,0,1-.577-.261,1.41,1.41,0,0,1-.41-.447,1.246,1.246,0,0,1-.158-.642,1.729,1.729,0,0,1,.084-.512,1.353,1.353,0,0,1,.279-.493,1.4,1.4,0,0,1,.54-.363,2.379,2.379,0,0,1,.884-.14,2.006,2.006,0,0,1,.763.13,1.366,1.366,0,0,1,.8.819A1.6,1.6,0,0,1,395.061,48.736Z" transform="translate(-317.033 -26.043)"/>
          </g>
        </g>
        <text id="_4" data-name=" " transform="translate(71.81 55.847) rotate(90)" font-size="16" font-family="SegoeUI, Segoe UI"><tspan x="0" y="0"> </tspan></text>
        <g id="Grupo_1101821" data-name="Grupo 1101821">
          <g id="Grupo_1101820" data-name="Grupo 1101820" clip-path="url(#clip-path)">
            <path id="Trazado_911986" data-name="Trazado 911986" d="M252.251,52.906q0-.279.009-.456t.028-.307a.65.65,0,0,1,.2-.41,2.208,2.208,0,0,1,.8-.54,6.246,6.246,0,0,1,1.108-.354,9.915,9.915,0,0,1,1.126-.186q.54-.056.856-.056a6.762,6.762,0,0,1,1.21.093,4.686,4.686,0,0,1,.856.233,2.712,2.712,0,0,1,.586.307q.233.168.419.316a4.636,4.636,0,0,1,1.666-.745,8.351,8.351,0,0,1,1.852-.2,3.657,3.657,0,0,1,2.392.726,3.083,3.083,0,0,1,.922,2.439v6.274a.764.764,0,0,1-.1.391.443.443,0,0,1-.363.112H263.16q-.317,0-.4-.13a.649.649,0,0,1-.084-.354V53.892c0-.124-.006-.257-.019-.4a1.3,1.3,0,0,0-.093-.391.662.662,0,0,0-.233-.289.786.786,0,0,0-.456-.112.688.688,0,0,0-.493.168.9.9,0,0,0-.214.261,1.3,1.3,0,0,0-.074.316q-.019.168-.019.54v6.05a.806.806,0,0,1-.093.372q-.075.112-.391.112H258a.706.706,0,0,1-.419-.093.48.48,0,0,1-.121-.391V53.874q0-.409-.019-.577a.749.749,0,0,0-.112-.316.688.688,0,0,0-.27-.242.772.772,0,0,0-.363-.093.8.8,0,0,0-.344.084.935.935,0,0,0-.307.233.725.725,0,0,0-.168.391q-.019.205-.019.577V60a.415.415,0,0,1-.521.521h-2.625a.542.542,0,0,1-.363-.093.471.471,0,0,1-.1-.354ZM263.1,39.93q0,.317-.028.624a1.061,1.061,0,0,1-.233.568q-.056.056-.251.233a2.37,2.37,0,0,1-.614.363,5.954,5.954,0,0,1-1.07.335,7.427,7.427,0,0,1-1.62.149,12.377,12.377,0,0,1-1.378-.084,4.564,4.564,0,0,1-1.4-.382,2.92,2.92,0,0,1-1.089-.847,2.341,2.341,0,0,1-.437-1.5,2.56,2.56,0,0,1,.521-1.666,3.719,3.719,0,0,1,1.257-1.005,6.366,6.366,0,0,1,1.564-.531q.828-.168,1.443-.261V34.923q0-.149-.009-.335a1.223,1.223,0,0,0-.065-.344.627.627,0,0,0-.186-.27.526.526,0,0,0-.354-.112.579.579,0,0,0-.521.223,2.357,2.357,0,0,0-.242.465q-.094.242-.186.456a1.327,1.327,0,0,1-.251.382,1.07,1.07,0,0,1-.4.261,1.787,1.787,0,0,1-.633.093,1.688,1.688,0,0,1-.7-.13,1.409,1.409,0,0,1-.475-.335,1.389,1.389,0,0,1-.279-.456,1.407,1.407,0,0,1-.093-.493,1.622,1.622,0,0,1,.419-1.07,3.116,3.116,0,0,1,1.126-.81,5.022,5.022,0,0,1,1.461-.372q.754-.074,1.536-.074a6.26,6.26,0,0,1,1.61.2,2.008,2.008,0,0,1,1.182.866,2.052,2.052,0,0,1,.335.847,6.123,6.123,0,0,1,.056.81ZM258.245,74.8a1.663,1.663,0,0,0,.391.782,2.225,2.225,0,0,0,.605.465,2.485,2.485,0,0,0,.652.233,2.935,2.935,0,0,0,.568.065,2.022,2.022,0,0,0,.838-.14,2.414,2.414,0,0,0,.5-.307,5.041,5.041,0,0,1,.475-.41.644.644,0,0,1,.382-.112.608.608,0,0,1,.475.223.931.931,0,0,1,.2.633,3.727,3.727,0,0,1-.661,1.815,3.538,3.538,0,0,1-1.08.977,3.433,3.433,0,0,1-1.815.428q-.3,0-.679-.037a4.461,4.461,0,0,1-.8-.158,4.723,4.723,0,0,1-.838-.335,3.3,3.3,0,0,1-.773-.549,3.232,3.232,0,0,1-.372-.419,4.4,4.4,0,0,1-.484-.81,6.272,6.272,0,0,1-.419-1.229,7.193,7.193,0,0,1-.177-1.694,6.005,6.005,0,0,1,.4-2.318,4.453,4.453,0,0,1,1.033-1.554,3.911,3.911,0,0,1,1.415-.866,4.665,4.665,0,0,1,1.526-.27,3.31,3.31,0,0,1,1.834.465,3.9,3.9,0,0,1,1.136,1.089,4.132,4.132,0,0,1,.586,1.275,4.4,4.4,0,0,1,.168,1.024,1.375,1.375,0,0,1-.093.558.843.843,0,0,1-.233.316.75.75,0,0,1-.3.149c-.106.025-.2.044-.289.056ZM260.7,89.541v4.9q0,.3.028.586a2,2,0,0,0,.121.531.827.827,0,0,0,.307.391,1.11,1.11,0,0,0,.586.168q.13,0,.289.009a.814.814,0,0,1,.3.074.567.567,0,0,1,.233.2.721.721,0,0,1,.093.4.671.671,0,0,1-.214.465,2.083,2.083,0,0,1-.558.4,3.353,3.353,0,0,1-.81.279,4.374,4.374,0,0,1-2-.028,2.386,2.386,0,0,1-1.033-.558,2.015,2.015,0,0,1-.717-1.1,5.955,5.955,0,0,1-.14-1.322v-5.4h-.912c-.136-.025-.217-.074-.242-.149a.654.654,0,0,1-.037-.2v-.819a.214.214,0,0,1,.242-.242h.949v-.894a1.143,1.143,0,0,1,.047-.382.525.525,0,0,1,.289-.233l2.439-1.08q.093-.037.158-.056a.587.587,0,0,1,.158-.019q.316,0,.372.251a2,2,0,0,1,.056.419v1.992h1.1a.934.934,0,0,1,.326.047q.121.047.121.289v.521q0,.13-.009.223c-.006.062-.009.1-.009.112a.224.224,0,0,1-.158.2,1.2,1.2,0,0,1-.27.028Zm-2.727,26.081a3.837,3.837,0,0,1-.279-.465,1.393,1.393,0,0,1-.112-.614,1.75,1.75,0,0,1,.177-.81,1.846,1.846,0,0,1,.438-.568,1.669,1.669,0,0,1,.577-.326,1.942,1.942,0,0,1,.6-.1,1.7,1.7,0,0,1,.679.149,1.742,1.742,0,0,1,.605.437,2.3,2.3,0,0,1,.428.726,2.828,2.828,0,0,1,.168,1.015,4.411,4.411,0,0,1-.354,1.731,6.276,6.276,0,0,1-.856,1.471,4.812,4.812,0,0,1-1.07,1.015,1.854,1.854,0,0,1-.977.382.664.664,0,0,1-.475-.186.6.6,0,0,1-.2-.447.779.779,0,0,1,.019-.186.949.949,0,0,1,.074-.186,2.893,2.893,0,0,1,.158-.27q.1-.158.289-.419.13-.2.335-.577a1.534,1.534,0,0,0,.2-.745,1.038,1.038,0,0,0-.112-.5Q258.18,115.939,257.975,115.622Zm1.945-42.835q-.019-.186-.047-.447a1.858,1.858,0,0,0-.121-.493,1.033,1.033,0,0,0-.27-.391.687.687,0,0,0-.475-.158.828.828,0,0,0-.521.158,1.039,1.039,0,0,0-.316.41,1.952,1.952,0,0,0-.149.568,5.512,5.512,0,0,0-.037.652ZM259.772,37.4a4.331,4.331,0,0,0-.633.214,1.059,1.059,0,0,0-.41.363,1.236,1.236,0,0,0-.177.335,2.862,2.862,0,0,0-.1.363A2.24,2.24,0,0,0,258.4,39c-.006.1-.009.174-.009.223a1.664,1.664,0,0,0,.186.819.6.6,0,0,0,.558.335.557.557,0,0,0,.372-.112.62.62,0,0,0,.186-.279,1.357,1.357,0,0,0,.065-.363q.009-.2.009-.363Z" transform="translate(-205.293 -26.043)"/>
          </g>
        </g>
        <text id="_5" data-name=" " transform="translate(49.471 93.079) rotate(90)" font-size="16" font-family="SegoeUI, Segoe UI"><tspan x="0" y="0"> </tspan></text>
        <g id="Grupo_1101823" data-name="Grupo 1101823">
          <g id="Grupo_1101822" data-name="Grupo 1101822" clip-path="url(#clip-path)">
            <path id="Trazado_911987" data-name="Trazado 911987" d="M154.948,55.43a6.2,6.2,0,0,1-.326,2.439,4.6,4.6,0,0,1-1.024,1.647,3.851,3.851,0,0,1-1.471.931,5.091,5.091,0,0,1-1.685.289,4.805,4.805,0,0,1-1.61-.279,3.827,3.827,0,0,1-1.405-.875,4.383,4.383,0,0,1-1-1.554,6.212,6.212,0,0,1-.382-2.3,7.162,7.162,0,0,1,.223-1.992,5.084,5.084,0,0,1,.54-1.247,3.87,3.87,0,0,1,1.666-1.517,4.938,4.938,0,0,1,2.038-.437,4.347,4.347,0,0,1,1.871.382,4,4,0,0,1,1.368,1.042,4.684,4.684,0,0,1,.856,1.545,6.723,6.723,0,0,1,.335,1.908Zm-.121,23.177q0,.317-.121.391a.8.8,0,0,1-.4.074h-2.643a.407.407,0,0,1-.354-.093.621.621,0,0,1-.093-.391V72.278c0-.161,0-.316-.009-.465a1.154,1.154,0,0,0-.084-.4.651.651,0,0,0-.214-.279.634.634,0,0,0-.382-.1.664.664,0,0,0-.428.121.735.735,0,0,0-.223.316,1.393,1.393,0,0,0-.084.447q-.009.251-.009.512v6.236q0,.317-.168.363a1.466,1.466,0,0,1-.391.047h-2.606q-.317,0-.382-.13a.9.9,0,0,1-.065-.391V71.2a2.371,2.371,0,0,1,.112-.782,1.168,1.168,0,0,1,.614-.577,3.951,3.951,0,0,1,.921-.354,10.18,10.18,0,0,1,1.015-.2q.5-.074.968-.1t.8-.028q.242,0,.484.009t.484.028a10.337,10.337,0,0,1,1.07.13,3.7,3.7,0,0,1,.959.3,2.434,2.434,0,0,1,.7.493,2.018,2.018,0,0,1,.372.54,1.553,1.553,0,0,1,.14.512q.018.242.019.391Zm-5.352,33.341a1.663,1.663,0,0,0,.391.782,2.225,2.225,0,0,0,.605.465,2.486,2.486,0,0,0,.652.233,2.935,2.935,0,0,0,.568.065,2.022,2.022,0,0,0,.838-.14,2.415,2.415,0,0,0,.5-.307,5.042,5.042,0,0,1,.475-.41.644.644,0,0,1,.382-.112.608.608,0,0,1,.475.223.931.931,0,0,1,.2.633,3.727,3.727,0,0,1-.661,1.815,3.538,3.538,0,0,1-1.08.977A3.433,3.433,0,0,1,151,116.6q-.3,0-.679-.037a4.461,4.461,0,0,1-.8-.158,4.723,4.723,0,0,1-.838-.335,3.3,3.3,0,0,1-.773-.549,3.233,3.233,0,0,1-.372-.419,4.395,4.395,0,0,1-.484-.81,6.273,6.273,0,0,1-.419-1.229,7.194,7.194,0,0,1-.177-1.694,6,6,0,0,1,.4-2.318,4.453,4.453,0,0,1,1.033-1.554,3.911,3.911,0,0,1,1.415-.866,4.665,4.665,0,0,1,1.526-.27,3.31,3.31,0,0,1,1.834.465,3.9,3.9,0,0,1,1.136,1.089,4.133,4.133,0,0,1,.586,1.275,4.4,4.4,0,0,1,.168,1.024,1.375,1.375,0,0,1-.093.558.844.844,0,0,1-.233.316.75.75,0,0,1-.3.149c-.106.025-.2.044-.289.056ZM152.249,91.9a6.659,6.659,0,0,1,.586.316,3.047,3.047,0,0,1,1.21,1.378,2.816,2.816,0,0,1,.233,1.191,3.694,3.694,0,0,1-.168,1.061,2.746,2.746,0,0,1-.586,1.033,3.141,3.141,0,0,1-1.126.782,4.563,4.563,0,0,1-1.806.307,5.631,5.631,0,0,1-1.843-.261,3.825,3.825,0,0,1-1.2-.642,2.314,2.314,0,0,1-.652-.819,2,2,0,0,1-.2-.81,1.7,1.7,0,0,1,.084-.521,1.325,1.325,0,0,1,.261-.465,1.284,1.284,0,0,1,.437-.326A1.447,1.447,0,0,1,148.1,94a1.292,1.292,0,0,1,.828.233,2.439,2.439,0,0,1,.4.382,2.764,2.764,0,0,1,.186.279q.074.13.2.335.13.186.316.41a.57.57,0,0,0,.856.056.618.618,0,0,0,.186-.484.772.772,0,0,0-.316-.661,7.976,7.976,0,0,0-1.005-.586l-.8-.372q-.261-.13-.624-.335a2.887,2.887,0,0,1-.679-.54,3.07,3.07,0,0,1-.54-.81,2.672,2.672,0,0,1-.223-1.145,3.591,3.591,0,0,1,.14-.912,2.5,2.5,0,0,1,.54-.987,3.066,3.066,0,0,1,1.136-.782,4.934,4.934,0,0,1,1.927-.316,5.233,5.233,0,0,1,1.573.2,3.158,3.158,0,0,1,1.033.521,1.952,1.952,0,0,1,.568.707,1.846,1.846,0,0,1,.177.763,1.456,1.456,0,0,1-.316.912,1.1,1.1,0,0,1-.931.41,1.345,1.345,0,0,1-.521-.093,1.515,1.515,0,0,1-.391-.233,1.657,1.657,0,0,1-.3-.326q-.13-.186-.242-.372a3.506,3.506,0,0,0-.344-.512.565.565,0,0,0-.456-.214.462.462,0,0,0-.4.2.8.8,0,0,0-.14.475.814.814,0,0,0,.363.726,5.431,5.431,0,0,0,.828.447Zm-.689-56.741a4.95,4.95,0,0,0-.335-.735.561.561,0,0,0-.521-.289.747.747,0,0,0-.67.531,2.957,2.957,0,0,0-.242,1.238,4.366,4.366,0,0,0,.112.921,4.246,4.246,0,0,0,.335.968,2.528,2.528,0,0,0,.558.763,1.144,1.144,0,0,0,.8.307,1.034,1.034,0,0,0,.791-.27,4,4,0,0,0,.4-.493,4.482,4.482,0,0,1,.316-.382.535.535,0,0,1,.41-.158.6.6,0,0,1,.577.316,1.53,1.53,0,0,1,.168.726,3.992,3.992,0,0,1-.186,1.154,3.455,3.455,0,0,1-.605,1.145,3.26,3.26,0,0,1-1.089.875,3.6,3.6,0,0,1-1.657.344,3.281,3.281,0,0,1-1.908-.521,3.885,3.885,0,0,1-1.191-1.294,5.367,5.367,0,0,1-.605-1.647,8.487,8.487,0,0,1-.168-1.582q0-.261.047-.763a6.928,6.928,0,0,1,.2-1.108,6.28,6.28,0,0,1,.465-1.219,3.829,3.829,0,0,1,.828-1.1,4.111,4.111,0,0,1,1.154-.707,4.376,4.376,0,0,1,1.675-.279,3.483,3.483,0,0,1,1.433.261,2.93,2.93,0,0,1,.931.633,2.193,2.193,0,0,1,.5.819,2.567,2.567,0,0,1,.149.8,1.744,1.744,0,0,1-.4,1.163,1.289,1.289,0,0,1-1.033.475,1.658,1.658,0,0,1-.67-.168A1.182,1.182,0,0,1,151.56,35.158Zm0,93.079a4.95,4.95,0,0,0-.335-.735.561.561,0,0,0-.521-.289.747.747,0,0,0-.67.531,2.957,2.957,0,0,0-.242,1.238,4.365,4.365,0,0,0,.112.921,4.249,4.249,0,0,0,.335.968,2.53,2.53,0,0,0,.558.763,1.144,1.144,0,0,0,.8.307,1.034,1.034,0,0,0,.791-.27,4.005,4.005,0,0,0,.4-.493,4.486,4.486,0,0,1,.316-.382.535.535,0,0,1,.41-.158.6.6,0,0,1,.577.316,1.529,1.529,0,0,1,.168.726,3.992,3.992,0,0,1-.186,1.154,3.455,3.455,0,0,1-.605,1.145,3.26,3.26,0,0,1-1.089.875,3.6,3.6,0,0,1-1.657.344,3.281,3.281,0,0,1-1.908-.521,3.885,3.885,0,0,1-1.191-1.294,5.367,5.367,0,0,1-.605-1.647,8.487,8.487,0,0,1-.168-1.582q0-.261.047-.763a6.928,6.928,0,0,1,.2-1.108,6.28,6.28,0,0,1,.465-1.219,3.826,3.826,0,0,1,.828-1.1,4.111,4.111,0,0,1,1.154-.707,4.376,4.376,0,0,1,1.675-.279,3.483,3.483,0,0,1,1.433.261,2.93,2.93,0,0,1,.931.633,2.193,2.193,0,0,1,.5.819,2.567,2.567,0,0,1,.149.8,1.744,1.744,0,0,1-.4,1.163,1.289,1.289,0,0,1-1.033.475,1.658,1.658,0,0,1-.67-.168A1.182,1.182,0,0,1,151.56,128.237Zm.372,17.071v4.9q0,.3.028.586a2.005,2.005,0,0,0,.121.531.827.827,0,0,0,.307.391,1.111,1.111,0,0,0,.586.168q.13,0,.289.009a.815.815,0,0,1,.3.074.567.567,0,0,1,.233.2.721.721,0,0,1,.093.4.671.671,0,0,1-.214.465,2.083,2.083,0,0,1-.558.4,3.354,3.354,0,0,1-.81.279,4.374,4.374,0,0,1-2-.028,2.386,2.386,0,0,1-1.033-.558,2.015,2.015,0,0,1-.717-1.1,5.955,5.955,0,0,1-.14-1.322v-5.4H147.5c-.136-.025-.217-.074-.242-.149a.653.653,0,0,1-.037-.2v-.819a.214.214,0,0,1,.242-.242h.949V143a1.143,1.143,0,0,1,.047-.382.525.525,0,0,1,.289-.233l2.439-1.08q.093-.037.158-.056a.587.587,0,0,1,.158-.019q.316,0,.372.251a2,2,0,0,1,.056.419v1.992h1.1a.934.934,0,0,1,.326.047q.121.047.121.289v.521q0,.13-.009.223c-.006.062-.009.1-.009.112a.224.224,0,0,1-.158.2,1.2,1.2,0,0,1-.27.028Zm-.782-35.37q-.019-.186-.047-.447a1.858,1.858,0,0,0-.121-.493,1.033,1.033,0,0,0-.27-.391.687.687,0,0,0-.475-.158.828.828,0,0,0-.521.158,1.039,1.039,0,0,0-.316.41,1.952,1.952,0,0,0-.149.568,5.512,5.512,0,0,0-.037.652Zm.056-54.581q0-.316-.009-.642t-.047-.754q-.019-.186-.047-.419a1.968,1.968,0,0,0-.1-.437,1.09,1.09,0,0,0-.2-.344.389.389,0,0,0-.307-.14.373.373,0,0,0-.3.13.961.961,0,0,0-.177.326,2.689,2.689,0,0,0-.1.428q-.037.233-.056.419a5.088,5.088,0,0,0-.047.568q-.009.307-.019.6t-.009.512v.316q0,.373.009.791a5.043,5.043,0,0,0,.074.782,2.034,2.034,0,0,0,.2.605.406.406,0,0,0,.372.242.49.49,0,0,0,.419-.223,1.582,1.582,0,0,0,.233-.624,6.484,6.484,0,0,0,.093-.949Q151.206,55.989,151.207,55.356Z" transform="translate(-118.862 -25.962)"/>
            <path id="Trazado_911988" data-name="Trazado 911988" d="M35.864,76.839a6.348,6.348,0,0,1-.028.642,1.368,1.368,0,0,1-.158.512,1.487,1.487,0,0,1-.577.586,4.473,4.473,0,0,1-.949.428,6.5,6.5,0,0,1-1.182.261,9.853,9.853,0,0,1-1.275.084,7.938,7.938,0,0,1-2.215-.251,3.065,3.065,0,0,1-1.284-.689,2.153,2.153,0,0,1-.6-1.005,4.709,4.709,0,0,1-.149-1.2V69.839q0-.279.149-.344a.828.828,0,0,1,.335-.065h2.625a.88.88,0,0,1,.354.065q.149.065.149.363V76a2.737,2.737,0,0,0,.074.679q.074.289.521.289.409,0,.484-.289A2.746,2.746,0,0,0,32.216,76V69.913a1.436,1.436,0,0,1,.065-.354q.046-.13.363-.13h2.718a.771.771,0,0,1,.363.074q.14.075.14.372Zm-5.25-39.354a1.663,1.663,0,0,0,.391.782,2.225,2.225,0,0,0,.605.465,2.486,2.486,0,0,0,.652.233,2.935,2.935,0,0,0,.568.065,2.022,2.022,0,0,0,.838-.14,2.415,2.415,0,0,0,.5-.307,5.043,5.043,0,0,1,.475-.41.644.644,0,0,1,.382-.112.608.608,0,0,1,.475.223.931.931,0,0,1,.2.633,3.727,3.727,0,0,1-.661,1.815,3.538,3.538,0,0,1-1.08.977,3.433,3.433,0,0,1-1.815.428q-.3,0-.679-.037a4.461,4.461,0,0,1-.8-.158,4.724,4.724,0,0,1-.838-.335,3.3,3.3,0,0,1-.773-.549,3.233,3.233,0,0,1-.372-.419,4.394,4.394,0,0,1-.484-.81,6.274,6.274,0,0,1-.419-1.229,7.193,7.193,0,0,1-.177-1.694A6.005,6.005,0,0,1,28,34.59a4.453,4.453,0,0,1,1.033-1.554,3.911,3.911,0,0,1,1.415-.866,4.665,4.665,0,0,1,1.526-.27,3.31,3.31,0,0,1,1.834.465,3.9,3.9,0,0,1,1.136,1.089,4.133,4.133,0,0,1,.586,1.275,4.4,4.4,0,0,1,.168,1.024,1.375,1.375,0,0,1-.093.558.844.844,0,0,1-.233.316.75.75,0,0,1-.3.149c-.106.025-.2.044-.289.056Zm0,55.847a1.663,1.663,0,0,0,.391.782,2.225,2.225,0,0,0,.605.465,2.486,2.486,0,0,0,.652.233,2.935,2.935,0,0,0,.568.065,2.022,2.022,0,0,0,.838-.14,2.416,2.416,0,0,0,.5-.307,5.044,5.044,0,0,1,.475-.41.644.644,0,0,1,.382-.112.608.608,0,0,1,.475.223.931.931,0,0,1,.2.633,3.727,3.727,0,0,1-.661,1.815,3.538,3.538,0,0,1-1.08.977,3.433,3.433,0,0,1-1.815.428q-.3,0-.679-.037a4.461,4.461,0,0,1-.8-.158,4.724,4.724,0,0,1-.838-.335,3.3,3.3,0,0,1-.773-.549,3.232,3.232,0,0,1-.372-.419,4.395,4.395,0,0,1-.484-.81,6.274,6.274,0,0,1-.419-1.229,7.193,7.193,0,0,1-.177-1.694,6,6,0,0,1,.4-2.318,4.453,4.453,0,0,1,1.033-1.554,3.911,3.911,0,0,1,1.415-.866,4.665,4.665,0,0,1,1.526-.27,3.31,3.31,0,0,1,1.834.465A3.9,3.9,0,0,1,34.943,89.3a4.133,4.133,0,0,1,.586,1.275A4.4,4.4,0,0,1,35.7,91.6a1.375,1.375,0,0,1-.093.558.844.844,0,0,1-.233.316.75.75,0,0,1-.3.149c-.106.025-.2.044-.289.056Zm2.457-41.1v4.9q0,.3.028.586a2,2,0,0,0,.121.531.827.827,0,0,0,.307.391,1.11,1.11,0,0,0,.586.168q.13,0,.289.009a.814.814,0,0,1,.3.074.567.567,0,0,1,.233.2.721.721,0,0,1,.093.4.671.671,0,0,1-.214.465,2.083,2.083,0,0,1-.558.4,3.354,3.354,0,0,1-.81.279,4.374,4.374,0,0,1-2-.028,2.386,2.386,0,0,1-1.033-.558,2.015,2.015,0,0,1-.717-1.1,5.955,5.955,0,0,1-.14-1.322v-5.4h-.912c-.136-.025-.217-.074-.242-.149a.653.653,0,0,1-.037-.2v-.819a.214.214,0,0,1,.242-.242h.949V49.92a1.144,1.144,0,0,1,.047-.382.525.525,0,0,1,.289-.233l2.439-1.08q.093-.037.158-.056a.586.586,0,0,1,.158-.019q.316,0,.372.251a2,2,0,0,1,.056.419v1.992h1.1a.933.933,0,0,1,.326.047c.081.031.121.128.121.289v.521q0,.13-.009.223c-.006.062-.009.1-.009.112q-.037.168-.158.2a1.2,1.2,0,0,1-.27.028Zm-.95,63.629q0,.3-.1.372a.691.691,0,0,1-.382.074H28.958q-.317,0-.391-.112a.7.7,0,0,1-.074-.372v-7.577q0-.261.019-.456a.721.721,0,0,1,.13-.354,1.165,1.165,0,0,1,.363-.307,3.725,3.725,0,0,1,.7-.3,6.105,6.105,0,0,1,.866-.214q.475-.084.931-.14t.866-.074q.409-.018.689-.019.223,0,.67.028a2.951,2.951,0,0,1,.912.214,2.042,2.042,0,0,1,.81.6,1.744,1.744,0,0,1,.344,1.154,1.715,1.715,0,0,1-.316,1.033,1.1,1.1,0,0,1-.949.437.9.9,0,0,1-.819-.344,3.027,3.027,0,0,1-.354-.773,1.677,1.677,0,0,0-.2-.456.493.493,0,0,0-.428-.158q-.447,0-.521.223a1.649,1.649,0,0,0-.074.521Zm.168-80.383q-.019-.186-.047-.447a1.857,1.857,0,0,0-.121-.493,1.033,1.033,0,0,0-.27-.391.687.687,0,0,0-.475-.158.828.828,0,0,0-.521.158,1.04,1.04,0,0,0-.316.41,1.952,1.952,0,0,0-.149.568,5.509,5.509,0,0,0-.037.652Zm0,55.847q-.019-.186-.047-.447a1.857,1.857,0,0,0-.121-.493,1.033,1.033,0,0,0-.27-.391.687.687,0,0,0-.475-.158.828.828,0,0,0-.521.158,1.04,1.04,0,0,0-.316.41,1.952,1.952,0,0,0-.149.568,5.508,5.508,0,0,0-.037.652Z" transform="translate(-22.34 -25.962)"/>
            <text id="_6" data-name=" " transform="translate(4.793 93.079) rotate(90)" font-size="16" font-family="SegoeUI, Segoe UI"><tspan x="0" y="0"> </tspan></text>
          </g>
        </g>
      </g>
    </g>
    <g id="Grupo_1101827" data-name="Grupo 1101827" transform="translate(1042 1876.487)">
      <g id="Rectángulo_403216" data-name="Rectángulo 403216" transform="translate(261.448 795.611)" fill="none" stroke="#262626" stroke-width="1" stroke-dasharray="1">
        <rect width="27.951" height="27.951" rx="13.975" stroke="none"/>
        <rect x="0.5" y="0.5" width="26.951" height="26.951" rx="13.475" fill="none"/>
      </g>
      <path id="Trazado_911713" data-name="Trazado 911713" d="M0,0V12.613L3.556,9.057H9.1Z" transform="translate(260.051 793.464)" stroke="#fff" stroke-width="0.4"/>
      <g id="Grupo_1101457" data-name="Grupo 1101457" transform="translate(266.828 816.769) rotate(-90)">
        <path id="Unión_2" data-name="Unión 2" d="M12.44,20.465a14.178,14.178,0,0,1-5.679-2.289,14.178,14.178,0,0,1-5.679,2.289.553.553,0,0,1-.128.01A.957.957,0,0,1,.83,18.569,11.844,11.844,0,0,0,5.281,16.86v-.905H5.274a1,1,0,0,1-1-1v-.119a1,1,0,0,1,1-1h.007V3.375A5.777,5.777,0,0,0,1.143,1.913c-.062,0-.124,0-.188,0A.956.956,0,0,1,.938,0c.068,0,.137,0,.2,0A7.584,7.584,0,0,1,6.762,2.161,7.58,7.58,0,0,1,12.381,0c.067,0,.135,0,.2,0a.956.956,0,0,1-.017,1.913c-.064,0-.123,0-.184,0A5.838,5.838,0,0,0,8.242,3.381V13.836H9.629a1,1,0,0,1,1,1v.119a1,1,0,0,1-1,1H8.242v.905a12.029,12.029,0,0,0,4.451,1.709.957.957,0,0,1-.125,1.906A.568.568,0,0,1,12.44,20.465Z" transform="translate(0 0)" fill="#020202" stroke="#fff" stroke-linecap="round" stroke-width="0.3"/>
      </g>
    </g>
  </g>
</svg>
