<svg xmlns="http://www.w3.org/2000/svg" xmlns:xlink="http://www.w3.org/1999/xlink" width="302.315" height="297.59" viewBox="0 0 302.315 297.59">
  <defs>
    <clipPath id="clip-path">
      <rect id="Rectángulo_403624" data-name="Rectángulo 403624" width="302.315" height="297.59" fill="none"/>
    </clipPath>
    <clipPath id="clip-path-3">
      <path id="Trazado_912725" data-name="Trazado 912725" d="M118.116,73.043c-8.9,4.605-11.883-4.5-11.883-4.5a10.886,10.886,0,0,1,5.584-1.923c5.178,0,6.3,6.423,6.3,6.423" transform="translate(-106.233 -66.62)" fill="none"/>
    </clipPath>
    <clipPath id="clip-path-5">
      <rect id="Rectángulo_403613" data-name="Rectángulo 403613" width="1.578" height="1.787" fill="none"/>
    </clipPath>
    <clipPath id="clip-path-6">
      <rect id="Rectángulo_403614" data-name="Rectángulo 403614" width="1.671" height="1.996" fill="none"/>
    </clipPath>
    <clipPath id="clip-path-7">
      <rect id="Rectángulo_403615" data-name="Rectángulo 403615" width="1.832" height="2.271" fill="none"/>
    </clipPath>
    <clipPath id="clip-path-8">
      <rect id="Rectángulo_403619" data-name="Rectángulo 403619" width="1.993" height="2.102" fill="none"/>
    </clipPath>
    <clipPath id="clip-path-9">
      <path id="Trazado_912780" data-name="Trazado 912780" d="M160.486,98.45c2.055,2.042.156,4.895-1.508,6.462-.694.654-2.008,1.271-2.67.587l-.657-1.555-1.441-7.082a5.756,5.756,0,0,1,1.854-.284,6.136,6.136,0,0,1,4.421,1.872" transform="translate(-154.211 -96.578)" fill="none"/>
    </clipPath>
    <clipPath id="clip-path-10">
      <rect id="Rectángulo_403621" data-name="Rectángulo 403621" width="2.877" height="2.682" fill="none"/>
    </clipPath>
    <clipPath id="clip-path-11">
      <path id="Trazado_912782" data-name="Trazado 912782" d="M178.618,88.347a1.971,1.971,0,0,1,.124,2.783c-2.053,2.252-6.415,6.428-11.856,8.165-7.627,2.436-11.108,6.731-11.108,6.731l-2.377.695-3.616-5.429s19.359-4.921,27.206-12.9a1.174,1.174,0,0,1,1.628-.046" transform="translate(-149.785 -88.041)" fill="none"/>
    </clipPath>
    <clipPath id="clip-path-12">
      <rect id="Rectángulo_403622" data-name="Rectángulo 403622" width="2.95" height="2.951" fill="none"/>
    </clipPath>
  </defs>
  <g id="Grupo_1101990" data-name="Grupo 1101990" transform="translate(0)">
    <g id="Grupo_1101989" data-name="Grupo 1101989" transform="translate(0)" clip-path="url(#clip-path)">
      <g id="Grupo_1101960" data-name="Grupo 1101960">
        <g id="Grupo_1101959" data-name="Grupo 1101959" clip-path="url(#clip-path)">
          <path id="Trazado_912690" data-name="Trazado 912690" d="M34.829,81.673H59.056a.515.515,0,0,0,.515-.515V60.152a.514.514,0,0,0-.515-.515H34.829a.514.514,0,0,0-.515.515V81.159a.515.515,0,0,0,.515.515m23.713-1.029h-23.2V60.666h23.2Z" transform="translate(207.431 1.739)"/>
          <path id="Trazado_912691" data-name="Trazado 912691" d="M48.354,77.827c.024,0,.048,0,.073,0,.982-.065,1.566-1.223,1.645-3.262.095-2.463-.579-6.226-2.332-6.481a1.745,1.745,0,0,0-.94.154c.14-1.851.586-3.351,1.395-3.814a.8.8,0,0,1,.766-.049c1.808.769,3.551,6.263,4.07,8.317a.514.514,0,1,0,1-.252c-.2-.8-2.063-7.907-4.665-9.011a1.838,1.838,0,0,0-1.679.1c-1.343.77-1.88,3-1.953,5.432a10.7,10.7,0,0,0-2.536,3.868,2.442,2.442,0,0,0-2.036-.428c-.212.047-.279-.011-.309-.037a1.939,1.939,0,0,1-.277-1.267.517.517,0,0,0-.478-.55.525.525,0,0,0-.55.476,2.854,2.854,0,0,0,.632,2.12,1.317,1.317,0,0,0,1.207.26,1.52,1.52,0,0,1,1.451.472q.025.023.046.046c-.336,1.745.407,2.453.928,2.728a.658.658,0,0,0,.8-.1c.521-.532.008-1.835-.336-2.448-.087-.155-.179-.3-.275-.437.025-.086.049-.167.071-.235a9.643,9.643,0,0,1,1.665-2.979,21.283,21.283,0,0,0,.756,4.957c.492,1.627,1.1,2.42,1.859,2.42m-.828-8.732a.461.461,0,0,1,.067.006c.721.1,1.554,2.753,1.451,5.424-.06,1.54-.436,2.258-.684,2.273-.216-.038-.847-.952-1.279-3.418a22.383,22.383,0,0,1-.329-3.935,1.441,1.441,0,0,1,.775-.35" transform="translate(207.581 1.845)" fill="#fea41a"/>
          <rect id="Rectángulo_403611" data-name="Rectángulo 403611" width="41.045" height="19.31" transform="translate(213.328 50.329)" fill="#fd521b"/>
          <path id="Trazado_912692" data-name="Trazado 912692" d="M64.785,53.446h3.334a.513.513,0,0,0,.515-.515V41.523a.513.513,0,0,0-.515-.515H64.785a.514.514,0,0,0-.515.515V52.932a.514.514,0,0,0,.515.515m2.82-1.029H65.3V42.036H67.6Z" transform="translate(167.538 1.196)"/>
          <path id="Trazado_912693" data-name="Trazado 912693" d="M172.245,291.9a.5.5,0,0,0,.087-.007.516.516,0,0,0,.421-.594l-14.694-86.676c-.914-5.382-5.119-9.29-10-9.29H116.23a.515.515,0,1,0,0,1.029H148.06c4.377,0,8.156,3.546,8.985,8.434l14.694,86.676a.516.516,0,0,0,.506.428" transform="translate(10.466 5.694)"/>
          <path id="Trazado_912694" data-name="Trazado 912694" d="M202.887,196.053H129.708a3.979,3.979,0,1,1,0-7.957h73.179a3.979,3.979,0,1,1,0,7.957" transform="translate(-33.945 5.484)" fill="#fea41a"/>
          <path id="Trazado_912695" data-name="Trazado 912695" d="M68.336,250.607l8.233,29.048,10.471-3.319-5.654-32.174Z" transform="translate(144.948 7.118)" fill="#f4aea8"/>
          <path id="Trazado_912696" data-name="Trazado 912696" d="M132.914,246.813l-9.487,27.68,10.173,3.139,13.266-28.745Z" transform="translate(28.424 7.195)" fill="#f4aea8"/>
          <path id="Trazado_912697" data-name="Trazado 912697" d="M116.416,263.71,110.5,289.387h40.831l1.225-4.978a3.512,3.512,0,0,0-2.8-4.3l-13.218-2.333-4.137-3.494,7.141-5.528Z" transform="translate(35.936 7.688)"/>
          <path id="Trazado_912698" data-name="Trazado 912698" d="M42.95,261.535l4.743,13.04-4.2,13.583H85.629l1.264-5.136A3.624,3.624,0,0,0,84,278.586l-13.64-2.407L64.2,272.126l.431-13.262Z" transform="translate(171.115 7.547)"/>
          <path id="Trazado_912699" data-name="Trazado 912699" d="M146.457,284.982a.426.426,0,0,0,.4-.289l6.095-17.8a.427.427,0,0,0-.808-.278l-6.094,17.8a.426.426,0,0,0,.264.542.412.412,0,0,0,.139.024" transform="translate(-0.949 7.764)" fill="#fff"/>
          <path id="Trazado_912700" data-name="Trazado 912700" d="M77.671,283.405a.449.449,0,0,0,.1-.01.441.441,0,0,0,.333-.527l-4.941-22a.441.441,0,0,0-.861.193l4.942,22a.442.442,0,0,0,.43.345" transform="translate(149.807 7.595)" fill="#fff"/>
          <path id="Trazado_912701" data-name="Trazado 912701" d="M138.209,77.721s.146,4.394-2.472,6.1a.786.786,0,0,0,.447,1.459,5.7,5.7,0,0,0,4.5-2.467c3.251-4.439-2.478-5.09-2.478-5.09" transform="translate(21.327 2.266)"/>
          <path id="Trazado_912702" data-name="Trazado 912702" d="M141.927,75.557c-.708,1.227-2.7,4.118-5.57,3.768a.531.531,0,0,0-.37.963,5.826,5.826,0,0,0,6.121.4c3.87-1.951,1.707-4.341.615-5.267a.526.526,0,0,0-.8.141" transform="translate(18.288 2.195)"/>
          <path id="Trazado_912703" data-name="Trazado 912703" d="M135.01,153.956l-9.9,4.271-1.733,4.767,12.481.143Z" transform="translate(39.487 4.488)"/>
          <path id="Trazado_912704" data-name="Trazado 912704" d="M143.126,164.8V116.34a19.6,19.6,0,0,1,19.6-19.6H187.83a19.6,19.6,0,0,1,19.6,19.574l.056,48.484Z" transform="translate(-52.464 2.82)" fill="#fea41a"/>
          <path id="Trazado_912705" data-name="Trazado 912705" d="M136.216,164.784V116.32c0-10.822,8.625-18.822,19.448-18.822l25.955-.075a18.424,18.424,0,0,1,18.9,18.877l.056,48.484Z" transform="translate(-38.443 2.84)" fill="#fff"/>
          <path id="Trazado_912706" data-name="Trazado 912706" d="M144.9,88.324l-10.055,13.522-11.961.115L134.5,80.638Z" transform="translate(30.942 2.351)" fill="#ed8974"/>
          <path id="Trazado_912707" data-name="Trazado 912707" d="M124.184,76.716l11.088,8.858-5.617,8.168c-3.835-2.391-7.091-8.112-8.531-10.952Z" transform="translate(42.389 2.236)"/>
          <path id="Trazado_912708" data-name="Trazado 912708" d="M196.1,94.452l-23.8.327a11.6,11.6,0,0,0-10.249,6.486l-25.265,51.492c-3.22,7.478.658,11.846.658,11.846l43.162.127,18.415-3.191-4.528-14.426-36.222,7.582,16.953-33.8Z" transform="translate(-36.151 2.754)"/>
          <path id="Trazado_912709" data-name="Trazado 912709" d="M133.261,95.691l15.417.073a11.546,11.546,0,0,1,10.016,5.9l26.013,46.379c3.713,6.621-.959,16.4-8.55,16.458l-16.483.133-10.428-14.824,15.114-2.732-14.145-23.27L137.54,169.793l-54.248,8.944-.678-21.87,28.746-56.123,11.9-4.317Z" transform="translate(31.287 2.79)"/>
          <path id="Trazado_912710" data-name="Trazado 912710" d="M148.468,95.906s-3.508,5.716-9.528,6.287c-8.229.781-13.933-7.827-13.933-7.827l8.11-.811,8.211,1.691Z" transform="translate(25.197 2.727)" fill="#ed8974"/>
          <path id="Trazado_912711" data-name="Trazado 912711" d="M139.649,68.869c-1.767-10.575-11.191-17.811-21.048-16.163s-16.416,11.554-14.648,22.129,12.319,15.907,22.3,15.853c10.087-.055,15.16-11.245,13.392-21.819" transform="translate(55.633 1.53)" fill="#ed8974"/>
          <path id="Trazado_912712" data-name="Trazado 912712" d="M99.822,73.21l5.962-.3-5.394,5.658Z" transform="translate(93.799 2.125)" fill="#ed8974"/>
          <path id="Trazado_912713" data-name="Trazado 912713" d="M118.115,73.043s-1.862-10.675-11.882-4.5c0,0,2.986,9.1,11.882,4.5" transform="translate(74.871 1.942)" fill="#fff"/>
          <path id="Trazado_912714" data-name="Trazado 912714" d="M104.483,73.509a18.145,18.145,0,0,1,15.536-21.029,26.617,26.617,0,0,1,22.161,7.266c1.733,1.66-9.135-.781-9.135-.781s-4.631,4.638-8.994,1.709c0,0,2.013,11.811-7.534,12.257l-6.149,9.681c-1.724-2.163-5.378-6.079-5.885-9.1" transform="translate(52.69 1.522)"/>
          <path id="Trazado_912715" data-name="Trazado 912715" d="M128.248,73.153a5.232,5.232,0,1,1,6.71,3.6,5.39,5.39,0,0,1-6.71-3.6" transform="translate(32.184 1.924)" fill="#ed8974"/>
          <path id="Trazado_912716" data-name="Trazado 912716" d="M135.3,71.716a.346.346,0,0,0,.143-.661l-5.625-2.55a.346.346,0,0,0-.285.63l5.625,2.55a.347.347,0,0,0,.142.031" transform="translate(33.573 1.996)"/>
          <path id="Trazado_912717" data-name="Trazado 912717" d="M130.986,74.049a.348.348,0,0,0,.315-.2l1.2-2.624a.346.346,0,1,0-.629-.288l-1.2,2.624a.348.348,0,0,0,.171.459.36.36,0,0,0,.144.031" transform="translate(35.336 2.062)"/>
          <path id="Trazado_912718" data-name="Trazado 912718" d="M71.68,161.089h5.426a.29.29,0,0,0,.29-.291v-1.212a.29.29,0,0,0-.29-.29H71.68a.291.291,0,0,0-.291.29V160.8a.291.291,0,0,0,.291.291" transform="translate(151.449 4.644)"/>
          <path id="Trazado_912719" data-name="Trazado 912719" d="M78.806,161.089h5.426a.29.29,0,0,0,.29-.291v-1.212a.29.29,0,0,0-.29-.29H78.806a.291.291,0,0,0-.291.29V160.8a.291.291,0,0,0,.291.291" transform="translate(136.989 4.644)"/>
          <path id="Trazado_912720" data-name="Trazado 912720" d="M85.932,161.089h5.426a.29.29,0,0,0,.29-.291v-1.212a.29.29,0,0,0-.29-.29H85.932a.291.291,0,0,0-.291.29V160.8a.291.291,0,0,0,.291.291" transform="translate(122.53 4.644)"/>
          <path id="Trazado_912721" data-name="Trazado 912721" d="M93.059,161.089h5.426a.29.29,0,0,0,.29-.291v-1.212a.29.29,0,0,0-.29-.29H93.059a.291.291,0,0,0-.291.29V160.8a.291.291,0,0,0,.291.291" transform="translate(108.068 4.644)"/>
          <path id="Trazado_912722" data-name="Trazado 912722" d="M100.185,161.089h5.426a.29.29,0,0,0,.29-.291v-1.212a.29.29,0,0,0-.29-.29h-5.426a.291.291,0,0,0-.291.29V160.8a.291.291,0,0,0,.291.291" transform="translate(93.608 4.644)"/>
          <path id="Trazado_912723" data-name="Trazado 912723" d="M70.058,162.951h37.1a.694.694,0,0,0,.694-.695v-1.245a.694.694,0,0,0-.694-.7h-37.1a.7.7,0,0,0-.694.7v1.245a.694.694,0,0,0,.694.695" transform="translate(123.077 4.674)" fill="#5774cd"/>
        </g>
      </g>
      <g id="Grupo_1101962" data-name="Grupo 1101962" transform="translate(181.103 68.562)">
        <g id="Grupo_1101961" data-name="Grupo 1101961" transform="translate(0)" clip-path="url(#clip-path-3)">
          <path id="Trazado_912724" data-name="Trazado 912724" d="M113.7,71.406a4.168,4.168,0,1,1-4.167-4.167,4.168,4.168,0,0,1,4.167,4.167" transform="translate(-100.916 -66.602)"/>
        </g>
      </g>
      <g id="Grupo_1101976" data-name="Grupo 1101976">
        <g id="Grupo_1101975" data-name="Grupo 1101975" clip-path="url(#clip-path)">
          <path id="Trazado_912726" data-name="Trazado 912726" d="M115.585,65.16a.346.346,0,0,0,.136-.664,10.674,10.674,0,0,0-7.1-.006.346.346,0,1,0,.241.648c.036-.013,3.576-1.292,6.592-.006a.353.353,0,0,0,.136.028" transform="translate(74.832 1.862)"/>
          <path id="Trazado_912727" data-name="Trazado 912727" d="M94.027,145.794l.031,0,10.024-1.375a.224.224,0,0,0-.061-.444L94,145.348a.224.224,0,0,0,.03.446" transform="translate(101.503 4.197)"/>
          <path id="Trazado_912728" data-name="Trazado 912728" d="M115.381,155.6h3.825a7.489,7.489,0,0,1,7.488,7.488h-18.8a7.489,7.489,0,0,1,7.488-7.488" transform="translate(64.583 4.536)" fill="#5774cd"/>
          <path id="Trazado_912729" data-name="Trazado 912729" d="M112.118,163.321a.224.224,0,0,0,.224-.224v-7.562a.224.224,0,0,0-.449,0V163.1a.224.224,0,0,0,.224.224" transform="translate(74.817 4.528)"/>
          <path id="Trazado_912730" data-name="Trazado 912730" d="M97.989,144.058a.218.218,0,0,0,.114-.032l4.354-2.6a.224.224,0,0,0-.229-.385l-4.353,2.6a.224.224,0,0,0,.114.417" transform="translate(99.133 4.111)"/>
          <path id="Trazado_912731" data-name="Trazado 912731" d="M176.607,154.564h.026l9.02-1.009a.224.224,0,0,0-.05-.446l-9.019,1.009a.224.224,0,0,0,.025.447" transform="translate(-65.062 4.464)" fill="#fff"/>
          <path id="Trazado_912732" data-name="Trazado 912732" d="M176.608,160.676a.224.224,0,0,0,.134-.044l6.1-4.549a.224.224,0,0,0-.268-.359l-6.1,4.549a.224.224,0,0,0,.134.4" transform="translate(-62.141 4.538)"/>
          <path id="Trazado_912733" data-name="Trazado 912733" d="M125.03,152.776s-2.461,1.277,10.21.879c6.056-.19,7.8,3.25,8.322,4.483a.79.79,0,0,1-.471.987,1.879,1.879,0,0,1-1.877-.1,12.449,12.449,0,0,0-3.013-1.526c-2.76-1-7.642,2.793-12.115,3.771-1.366.3-8.652-.886-10.585-1.846-3.962-1.968-2.686-4.817-2.686-4.817Z" transform="translate(42.802 4.454)" fill="#ed8974"/>
          <path id="Trazado_912734" data-name="Trazado 912734" d="M110.5,154.949s8.305-2.767,16.264-1.9c5.6.613,7.541,2.909,8.2,4.216a1.055,1.055,0,0,1-.614,1.383,1.392,1.392,0,0,1-1.421-.094,11.957,11.957,0,0,0-3.2-1.667c-2.76-1-8.214-.415-8.214-.415l-9.053,1.588Z" transform="translate(53.541 4.457)" fill="#ed8974"/>
          <path id="Trazado_912735" data-name="Trazado 912735" d="M107.639,156.688s8.329-4.845,17.413-5.059c7.1-.168,9.855,3.018,10.719,4.417a.859.859,0,0,1-.262,1.126,1.989,1.989,0,0,1-2.147.223,15.1,15.1,0,0,0-3.827-1.43c-3.37-.806-9.225.832-9.225.832l-9.527,3.485Z" transform="translate(55.654 4.42)" fill="#ed8974"/>
          <path id="Trazado_912736" data-name="Trazado 912736" d="M108.467,155.335s8.329-4.845,17.413-5.059c7.126-.168,9.874,3.04,10.727,4.432a.841.841,0,0,1-.256,1.1,2.017,2.017,0,0,1-2.177.225,15.169,15.169,0,0,0-3.812-1.42c-3.37-.806-9.225.832-9.225.832l-9.527,3.485Z" transform="translate(53.968 4.381)" fill="#ed8974"/>
          <path id="Trazado_912737" data-name="Trazado 912737" d="M124.971,158.278a.171.171,0,0,0,.064-.012.164.164,0,0,0,.086-.214c-.414-.981-1.672-3.965-8.06-4.456a21.145,21.145,0,0,0-4.419.353.163.163,0,0,0,.059.321,21.444,21.444,0,0,1,4.336-.349c6.189.476,7.389,3.322,7.785,4.258a.163.163,0,0,0,.15.1" transform="translate(61.393 4.477)"/>
          <path id="Trazado_912738" data-name="Trazado 912738" d="M123.78,157.2a.172.172,0,0,0,.064-.012.164.164,0,0,0,.086-.214c-.5-1.187-1.433-3.393-7.4-4.576a19.457,19.457,0,0,0-5.905.369.164.164,0,0,0-.127.193.161.161,0,0,0,.193.127,19.546,19.546,0,0,1,5.776-.369c5.8,1.149,6.652,3.173,7.163,4.382a.163.163,0,0,0,.15.1" transform="translate(64.657 4.439)"/>
          <path id="Trazado_912739" data-name="Trazado 912739" d="M123.113,155.331a.172.172,0,0,0,.064-.012.164.164,0,0,0,.086-.214c-.454-1.075-2.239-3.665-8.991-4.479a22.007,22.007,0,0,0-5.839.585.163.163,0,0,0,.074.318,22.3,22.3,0,0,1,5.726-.578c6.767.816,8.393,3.484,8.729,4.281a.163.163,0,0,0,.15.1" transform="translate(67.574 4.39)"/>
          <g id="Grupo_1101965" data-name="Grupo 1101965" transform="translate(184.867 161.22)" opacity="0.3" style="mix-blend-mode: overlay;isolation: isolate">
            <g id="Grupo_1101964" data-name="Grupo 1101964" transform="translate(0)">
              <g id="Grupo_1101963" data-name="Grupo 1101963" clip-path="url(#clip-path-5)">
                <path id="Trazado_912740" data-name="Trazado 912740" d="M112.744,156.694c-.259.147-.185.647.165,1.118s.844.734,1.1.588.185-.647-.165-1.119-.844-.734-1.1-.587" transform="translate(-112.588 -156.653)"/>
              </g>
            </g>
          </g>
          <g id="Grupo_1101968" data-name="Grupo 1101968" transform="translate(186.928 160.507)" opacity="0.3" style="mix-blend-mode: overlay;isolation: isolate">
            <g id="Grupo_1101967" data-name="Grupo 1101967" transform="translate(0)">
              <g id="Grupo_1101966" data-name="Grupo 1101966" clip-path="url(#clip-path-6)">
                <path id="Trazado_912741" data-name="Trazado 912741" d="M110.758,156c-.337.16-.352.716-.036,1.243s.845.825,1.181.666.352-.716.036-1.243-.845-.825-1.181-.666" transform="translate(-110.494 -155.96)"/>
              </g>
            </g>
          </g>
          <g id="Grupo_1101971" data-name="Grupo 1101971" transform="translate(189.666 159.001)" opacity="0.3" style="mix-blend-mode: overlay;isolation: isolate">
            <g id="Grupo_1101970" data-name="Grupo 1101970" transform="translate(0)">
              <g id="Grupo_1101969" data-name="Grupo 1101969" transform="translate(0)" clip-path="url(#clip-path-7)">
                <path id="Trazado_912742" data-name="Trazado 912742" d="M107.939,154.538c-.353.168-.345.793.017,1.4s.943.958,1.3.79.345-.792-.019-1.4-.942-.959-1.295-.791" transform="translate(-107.68 -154.497)"/>
              </g>
            </g>
          </g>
          <path id="Trazado_912743" data-name="Trazado 912743" d="M142.223,153.116l36.624-4.576,1.94,14.484H137.626Z" transform="translate(-20.11 4.33)"/>
          <path id="Trazado_912744" data-name="Trazado 912744" d="M176.2,164.083a.142.142,0,0,0,.03,0,.224.224,0,0,0,.192-.251l-1.94-14.484a.23.23,0,0,0-.249-.192l-36.21,4.523,16.765-33.426a.224.224,0,1,0-.4-.2l-16.952,33.8a.224.224,0,0,0,.018.229.22.22,0,0,0,.21.094l36.4-4.548,1.911,14.263a.223.223,0,0,0,.221.195" transform="translate(-15.518 3.496)" fill="#fff"/>
          <path id="Trazado_912745" data-name="Trazado 912745" d="M111.166,82.228a5.509,5.509,0,0,1-4.94-2.662c1.663-.4,3.957-1.1,6.5-.057s-.39,2.721-1.564,2.719" transform="translate(79.253 2.302)"/>
          <path id="Trazado_912746" data-name="Trazado 912746" d="M113.482,80.82a3.419,3.419,0,0,1-2.491,1.386,5.615,5.615,0,0,1-4.685-2.264,12.579,12.579,0,0,1,7.175.878" transform="translate(79.427 2.324)" fill="#fd521b"/>
          <path id="Trazado_912747" data-name="Trazado 912747" d="M45.187,160.959l6.045-.185-7.31-37.306-2.611,2.119Z" transform="translate(208.568 3.599)"/>
          <path id="Trazado_912748" data-name="Trazado 912748" d="M53.014,141.2H56.1a1.492,1.492,0,0,0,1.491-1.491V113.7A1.492,1.492,0,0,0,56.1,112.21H53.014a1.492,1.492,0,0,0-1.491,1.491v26.006a1.492,1.492,0,0,0,1.491,1.491" transform="translate(191.698 3.271)"/>
          <path id="Trazado_912749" data-name="Trazado 912749" d="M55.916,148.956h4.7a1.444,1.444,0,0,0,1.444-1.444V76.5a1.444,1.444,0,0,0-1.444-1.444h-4.7A1.444,1.444,0,0,0,54.472,76.5v71.015a1.444,1.444,0,0,0,1.444,1.444" transform="translate(184.197 2.188)" fill="#5774cd"/>
          <path id="Trazado_912750" data-name="Trazado 912750" d="M49.284,125.647h3.669a1.2,1.2,0,0,0,1.2-1.2v-1.837a1.2,1.2,0,0,0-1.2-1.2H49.284a1.2,1.2,0,0,0-1.2,1.2v1.837a1.2,1.2,0,0,0,1.2,1.2" transform="translate(198.678 3.539)"/>
          <path id="Trazado_912751" data-name="Trazado 912751" d="M36.143,158.978h26.5a1.163,1.163,0,0,1,1.163,1.163V161.6a1.163,1.163,0,0,1-1.163,1.163h-26.5A1.163,1.163,0,0,1,34.98,161.6v-1.458a1.163,1.163,0,0,1,1.163-1.163" transform="translate(202.506 4.635)" fill="#5774cd"/>
          <path id="Trazado_912752" data-name="Trazado 912752" d="M117.973,193.217l50.832.716,15.165-26.187L129.4,165.918l-23,4.069-1.254,8.022a13.174,13.174,0,0,0,12.83,15.208" transform="translate(10.303 4.837)" fill="#ffb6c8"/>
          <path id="Trazado_912753" data-name="Trazado 912753" d="M165.781,162.876s34.881,4.865,42.24,33.912l-41.229-.929L165.781,182.3Z" transform="translate(-76.319 4.748)" fill="#fea41a"/>
          <path id="Trazado_912754" data-name="Trazado 912754" d="M208.034,197.315a.564.564,0,0,0,.093-.008.515.515,0,0,0,.415-.6c-5.019-27.8-42.288-34.177-42.664-34.237a.514.514,0,1,0-.165,1.015c.368.061,36.927,6.32,41.816,33.405a.515.515,0,0,0,.505.423" transform="translate(-76.333 4.736)"/>
          <path id="Trazado_912755" data-name="Trazado 912755" d="M113.2,166.623l34.844.565A12.845,12.845,0,0,1,159.8,184.705l-27.927,72.7L107,253.509l23.27-59.6-40.109-.565Z" transform="translate(48.835 4.858)" fill="#ffb6c8"/>
          <path id="Trazado_912756" data-name="Trazado 912756" d="M68.278,167.694l17.3.257a9.717,9.717,0,0,1,9.264,8.063l11.21,74.059L83.53,254.533,71.273,188.74Z" transform="translate(125.995 4.889)" fill="#ffb6c8"/>
          <path id="Trazado_912757" data-name="Trazado 912757" d="M94.871,204.058a.517.517,0,0,0,.483-.333l7.052-18.84a13.358,13.358,0,0,0-12.228-18.212h-.007a.515.515,0,0,0-.008,1.029,12.33,12.33,0,0,1,11.284,16.815l-7.056,18.845a.515.515,0,0,0,.482.7" transform="translate(106.707 4.859)"/>
          <path id="Trazado_912758" data-name="Trazado 912758" d="M27.055,150.4h0a1.808,1.808,0,0,1-2.257-1.233l-6.844-23.123a1.844,1.844,0,0,1,1.214-2.292,1.808,1.808,0,0,1,2.257,1.233l6.843,23.123a1.845,1.845,0,0,1-1.213,2.292" transform="translate(255.572 3.606)"/>
          <path id="Trazado_912759" data-name="Trazado 912759" d="M24.394,128.457l3.47-1.059-.5-1.7-3.47,1.059Z" transform="translate(249.863 3.665)" fill="#ffb6c8"/>
          <path id="Trazado_912760" data-name="Trazado 912760" d="M17.958,148.646l-2.246-.274a.688.688,0,0,1-.595-.768l3.1-26.256a.684.684,0,0,1,.758-.6l2.245.274a.689.689,0,0,1,.6.768l-3.1,26.257a.684.684,0,0,1-.758.6" transform="translate(264.94 3.52)" fill="#fd521b"/>
          <path id="Trazado_912761" data-name="Trazado 912761" d="M15.341,124.976l3.6.438.207-1.759-3.6-.438Z" transform="translate(267.38 3.592)"/>
          <path id="Trazado_912762" data-name="Trazado 912762" d="M15.025,134.3H27.64a1.6,1.6,0,0,1,1.6,1.6v25.319a1.6,1.6,0,0,1-1.6,1.6H15.025a1.6,1.6,0,0,1-1.6-1.6V135.9a1.6,1.6,0,0,1,1.6-1.6" transform="translate(259.259 3.915)" fill="#ffb6c8"/>
          <path id="Trazado_912763" data-name="Trazado 912763" d="M139.4,291.9a.516.516,0,0,0,.506-.428L154.6,204.791c.828-4.887,4.607-8.434,8.984-8.434h51.193a.515.515,0,0,0,0-1.029H163.589c-4.88,0-9.085,3.908-10,9.29L138.9,291.294a.515.515,0,0,0,.421.594.5.5,0,0,0,.087.007" transform="translate(-55.918 5.694)"/>
          <path id="Trazado_912764" data-name="Trazado 912764" d="M141.88,291.9a.516.516,0,0,0,.506-.428l14.694-86.676c.828-4.887,4.607-8.434,8.984-8.434H197.9a.515.515,0,1,0,0-1.029H166.065c-4.88,0-9.085,3.908-10,9.29l-14.694,86.676a.516.516,0,0,0,.421.594.5.5,0,0,0,.087.007" transform="translate(-41.58 5.694)"/>
          <rect id="Rectángulo_403616" data-name="Rectángulo 403616" width="7.391" height="122.548" transform="translate(272.939 174.527)" fill="#fff"/>
          <path id="Trazado_912765" data-name="Trazado 912765" d="M21.376,292.661h7.392a.515.515,0,0,0,.515-.515V169.6a.514.514,0,0,0-.515-.515H21.376a.514.514,0,0,0-.515.515V292.146a.515.515,0,0,0,.515.515m6.878-1.029H21.89V170.112h6.363Z" transform="translate(251.564 4.929)"/>
          <rect id="Rectángulo_403617" data-name="Rectángulo 403617" width="7.391" height="122.548" transform="translate(88.089 174.527)" fill="#fff"/>
          <path id="Trazado_912766" data-name="Trazado 912766" d="M200.992,292.661h7.39a.514.514,0,0,0,.515-.515V169.6a.513.513,0,0,0-.515-.515h-7.39a.513.513,0,0,0-.515.515V292.146a.514.514,0,0,0,.515.515m6.876-1.029h-6.362V170.112h6.362Z" transform="translate(-112.902 4.929)"/>
          <path id="Trazado_912767" data-name="Trazado 912767" d="M21.108,174.28l7.155,5.55V169.583H21.108Z" transform="translate(252.328 4.944)"/>
          <path id="Trazado_912768" data-name="Trazado 912768" d="M200.833,174.28l7.687,5.55V169.583h-7.687Z" transform="translate(-112.892 4.944)"/>
          <rect id="Rectángulo_403618" data-name="Rectángulo 403618" width="235.182" height="7.19" transform="translate(66.619 167.337)" fill="#fff"/>
          <path id="Trazado_912769" data-name="Trazado 912769" d="M.515,170.316H235.7a.515.515,0,0,0,.515-.515v-7.19a.515.515,0,0,0-.515-.515H.515a.514.514,0,0,0-.515.515v7.19a.514.514,0,0,0,.515.515m234.667-1.029H1.029v-6.159H235.182Z" transform="translate(66.105 4.726)"/>
          <path id="Trazado_912770" data-name="Trazado 912770" d="M149.784,101.291s19.359-4.921,27.207-12.9a1.173,1.173,0,0,1,1.627-.046,1.97,1.97,0,0,1,.125,2.782c-2.054,2.253-6.416,6.429-11.856,8.166-7.628,2.435-11.109,6.731-11.109,6.731l-2.376.695Z" transform="translate(-31.093 2.567)" fill="#ffa88a"/>
          <path id="Trazado_912771" data-name="Trazado 912771" d="M154.212,96.862a6.165,6.165,0,0,1,6.275,1.587c2.054,2.043.156,4.895-1.509,6.463-.693.652-2.007,1.271-2.669.587l-.657-1.555Z" transform="translate(-17.774 2.816)" fill="#ffa88a"/>
          <path id="Trazado_912772" data-name="Trazado 912772" d="M157.031,98.749a5.369,5.369,0,0,1,5.752,1.135c2.363,2.395-1.753,6.529-3.138,7.289l-1.69-1.791Z" transform="translate(-22.794 2.867)" fill="#ffa88a"/>
          <path id="Trazado_912773" data-name="Trazado 912773" d="M159.239,102.465a1.387,1.387,0,0,1,1.157-1.527,4.725,4.725,0,0,1,4.272,1.332c1.782,1.822-.461,4.828-2.137,6.366a1.387,1.387,0,0,1-1.952-.076l-.424-.454-.006-.007a1.1,1.1,0,0,1-.2-1.172l1.452-3.5Z" transform="translate(-26.879 2.94)" fill="#ffa88a"/>
          <path id="Trazado_912774" data-name="Trazado 912774" d="M174.3,105.419s-.841,2.2-4.736,2.513a16.587,16.587,0,0,1-4.739-.1l-4.512-6.772L172.9,98.078l6.053-2.187-1.663,8.873Z" transform="translate(-41.622 2.796)" fill="#ffa88a"/>
          <path id="Trazado_912775" data-name="Trazado 912775" d="M161.6,107.236a.244.244,0,0,0,.129-.036c.909-.554,3.308-2.889,3.581-5.115a2.749,2.749,0,0,0-.788-2.375c-2.608-2.641-7.408-.492-7.611-.4a.246.246,0,0,0-.122.327.249.249,0,0,0,.327.122c.047-.023,4.69-2.1,7.055.3a2.279,2.279,0,0,1,.648,1.967c-.249,2.029-2.525,4.251-3.348,4.753a.247.247,0,0,0,.129.459" transform="translate(-24.354 2.869)"/>
          <path id="Trazado_912776" data-name="Trazado 912776" d="M161.436,109.248a1.638,1.638,0,0,0,1.11-.431c1.357-1.246,2.825-3.176,2.87-4.853a2.484,2.484,0,0,0-.725-1.868c-1.431-1.46-4.056-1.288-5.495-1.061a.248.248,0,1,0,.079.489c1.341-.216,3.788-.382,5.062.918a2.006,2.006,0,0,1,.583,1.509c-.04,1.524-1.485,3.379-2.71,4.5a1.143,1.143,0,0,1-1.605-.063c-.03-.028-.824-.7-.576-1.379l1.469-2.652a.247.247,0,1,0-.432-.239l-1.485,2.686a1.914,1.914,0,0,0,.687,1.943,1.585,1.585,0,0,0,1.167.5" transform="translate(-26.728 2.941)"/>
          <path id="Trazado_912777" data-name="Trazado 912777" d="M165.14,98.7a.244.244,0,0,0,.155-.056.247.247,0,0,0,.037-.347c-2.843-3.505-10.031-.7-10.335-.585a.247.247,0,0,0,.182.46c.071-.028,7.151-2.789,9.768.435a.248.248,0,0,0,.192.092" transform="translate(-22.426 2.814)"/>
          <g id="Grupo_1101974" data-name="Grupo 1101974" transform="translate(134.778 109.871)" opacity="0.3" style="mix-blend-mode: overlay;isolation: isolate">
            <g id="Grupo_1101973" data-name="Grupo 1101973" transform="translate(0)">
              <g id="Grupo_1101972" data-name="Grupo 1101972" clip-path="url(#clip-path-8)">
                <path id="Trazado_912778" data-name="Trazado 912778" d="M162.281,108.207c-.5.537-1.091.795-1.329.575s-.028-.833.468-1.37,1.091-.794,1.329-.575.028.833-.468,1.37" transform="translate(-160.854 -106.759)"/>
              </g>
            </g>
          </g>
        </g>
      </g>
      <g id="Grupo_1101981" data-name="Grupo 1101981" transform="translate(136.438 99.394)">
        <g id="Grupo_1101980" data-name="Grupo 1101980" transform="translate(0)" clip-path="url(#clip-path-9)">
          <g id="Grupo_1101979" data-name="Grupo 1101979" transform="translate(2.674 7.446)" opacity="0.3" style="mix-blend-mode: overlay;isolation: isolate">
            <g id="Grupo_1101978" data-name="Grupo 1101978" transform="translate(0)">
              <g id="Grupo_1101977" data-name="Grupo 1101977" transform="translate(0)" clip-path="url(#clip-path-10)">
                <path id="Trazado_912779" data-name="Trazado 912779" d="M157.809,105.972c-.725.567-1.575.692-1.9.278s0-1.209.725-1.777,1.311-1.007,1.9-.278c.329.41,0,1.21-.725,1.777" transform="translate(-155.784 -103.813)"/>
              </g>
            </g>
          </g>
        </g>
      </g>
      <g id="Grupo_1101986" data-name="Grupo 1101986" transform="translate(118.691 90.608)">
        <g id="Grupo_1101985" data-name="Grupo 1101985" transform="translate(0)" clip-path="url(#clip-path-11)">
          <g id="Grupo_1101984" data-name="Grupo 1101984" transform="translate(25.633 -0.267)" opacity="0.3" style="mix-blend-mode: overlay;isolation: isolate">
            <g id="Grupo_1101983" data-name="Grupo 1101983" transform="translate(0)">
              <g id="Grupo_1101982" data-name="Grupo 1101982" clip-path="url(#clip-path-12)">
                <path id="Trazado_912781" data-name="Trazado 912781" d="M152.983,90.008c-.648.678-1.467.987-1.984.454-.666-.686-.283-1.325.365-2s1.538-.881,1.984-.454.283,1.325-.365,2" transform="translate(-150.651 -87.782)"/>
              </g>
            </g>
          </g>
        </g>
      </g>
      <g id="Grupo_1101988" data-name="Grupo 1101988">
        <g id="Grupo_1101987" data-name="Grupo 1101987" clip-path="url(#clip-path)">
          <path id="Trazado_912783" data-name="Trazado 912783" d="M238.91,36.63,231.487,46.7l-9.922-2.651,7.877-11.966Z" transform="translate(-164.619 0.935)" fill="#ffa88a"/>
          <path id="Trazado_912784" data-name="Trazado 912784" d="M228.554,40.868l3.122-4.238-9.467-4.544-.644.979Z" transform="translate(-157.386 0.935)"/>
          <path id="Trazado_912785" data-name="Trazado 912785" d="M251.445,159.736l6.618,118.9,11.27.669,2.307-112.649Z" transform="translate(-228.101 4.657)" fill="#ffa88a"/>
          <path id="Trazado_912786" data-name="Trazado 912786" d="M274.942,168.541l-23.5-8.049.181,4.56,22.709,12.816Z" transform="translate(-231.402 4.679)"/>
          <path id="Trazado_912787" data-name="Trazado 912787" d="M235.454,87.9l5.038,89.073-22.51-1.071,8.9-92.932Z" transform="translate(-162.513 2.419)" fill="#fd521b"/>
          <path id="Trazado_912788" data-name="Trazado 912788" d="M231.842,153.886l17.072,127.165-12.51-1.575L214.77,173.748Z" transform="translate(-167.629 4.486)" fill="#ffa88a"/>
          <path id="Trazado_912789" data-name="Trazado 912789" d="M247.313,156.153,230.3,160.619l-2.084,13.171,1.117,5.46,11.757,4.51,1.858-17.72L248.6,164.3Z" transform="translate(-181.157 4.552)"/>
          <path id="Trazado_912790" data-name="Trazado 912790" d="M246.695,132.867l-19.863,23.108,4.037,14.1,21.56-7.221Z" transform="translate(-183.558 3.873)" fill="#fea41a"/>
          <path id="Trazado_912791" data-name="Trazado 912791" d="M201.94,23.4C199.835,12.661,206.308,2.348,216.4.37S236.375,5.5,238.482,16.237,236.563,40.03,225.436,39.3c-10.261-.675-21.388-5.155-23.5-15.9" transform="translate(-144.123 0.001)" fill="#ffa88a"/>
          <path id="Trazado_912792" data-name="Trazado 912792" d="M215.05,21.948s-4.73-8.6-10.826-3.575c0,0,4.1,7.226,10.826,3.575" transform="translate(-122.912 0.49)" fill="#fff"/>
          <path id="Trazado_912793" data-name="Trazado 912793" d="M211.131,14.471a.814.814,0,0,0,.42-1.512,7.564,7.564,0,0,0-6.543-.174.815.815,0,0,0,.634,1.5,5.919,5.919,0,0,1,5.079.073.827.827,0,0,0,.411.111" transform="translate(-120.103 0.354)"/>
          <path id="Trazado_912794" data-name="Trazado 912794" d="M199.075,23.021l4.809-.779L198.928,28.4Z" transform="translate(-106.297 0.648)" fill="#ffa88a"/>
          <path id="Trazado_912795" data-name="Trazado 912795" d="M224.631,42.422l3.568-5.471,12.548,4.638.238,7.375Z" transform="translate(-169.849 1.077)" fill="#fd521b"/>
          <path id="Trazado_912796" data-name="Trazado 912796" d="M295.316,42.44,244.166,83.591a10.924,10.924,0,0,0-.153,16.9l19.139,14.631,3.832-19.071-5.448-4.487,27.5-20.389Z" transform="translate(-240.089 1.237)" fill="#fd521b"/>
          <path id="Trazado_912797" data-name="Trazado 912797" d="M282.73,111.292l1.278-16.346L249.955,93.8,227.724,45.3,212.957,41.94S195.9,56.949,186.727,86.825s-16.075,78.94-16.075,78.94l45.818,18.467,10.455-95.558L239.54,108.1a9.009,9.009,0,0,0,7.786,4.1Z" transform="translate(-157.319 1.223)" fill="#fd521b"/>
          <path id="Trazado_912798" data-name="Trazado 912798" d="M239.707,92.472a.508.508,0,0,0,.308-.1.514.514,0,0,0,.1-.719L223.331,69.16a.514.514,0,0,0-.824.614L239.3,92.265a.509.509,0,0,0,.412.207" transform="translate(-166.794 2.01)"/>
          <path id="Trazado_912799" data-name="Trazado 912799" d="M257.22,9.012c-4.9-7.606-13.956-10.028-21.026-8.642C226.1,2.35,217.936,12.166,220.36,22.84c1.017,4.477-7.16,12.778-16.648,16.014-1.749.6.4,2.022,4.073,3.655.676.3,8.559-2.078,9.323-1.768.827.337-3.656,4.026-2.76,4.364a118.984,118.984,0,0,0,14.671,4.636c4.559.67,2.53-23.632,2.53-23.632l.945-8.372c8.4.027,6.772-10.042,6.772-10.042l1.193,5.611,6.48-2.6V7.11l2.817,3.17Z" transform="translate(-163.919 0)" fill="#5774cd"/>
          <path id="Trazado_912800" data-name="Trazado 912800" d="M224.715,85.854a.513.513,0,0,0,.475-.319c.09-.215,8.99-21.695,15.355-31.1a129.977,129.977,0,0,1,9.768-11.877c1.306-.161,9.648-.909,15.229,4.424a.514.514,0,1,0,.711-.743c-6.411-6.127-15.874-4.74-16.272-4.676a.509.509,0,0,0-.3.158,134.157,134.157,0,0,0-9.99,12.137c-6.423,9.493-15.364,31.069-15.454,31.286a.514.514,0,0,0,.28.671.5.5,0,0,0,.2.039" transform="translate(-194.834 1.206)"/>
          <path id="Trazado_912801" data-name="Trazado 912801" d="M233.049,19.061a5.453,5.453,0,1,0-10.617,2.319,5.453,5.453,0,1,0,10.617-2.319" transform="translate(-159.646 0.418)" fill="#ffa88a"/>
          <path id="Trazado_912802" data-name="Trazado 912802" d="M229.692,22.675a.814.814,0,0,0,.575-1.389l-4.874-4.865a.814.814,0,1,0-1.151,1.152l4.874,4.864a.809.809,0,0,0,.575.239" transform="translate(-158.725 0.472)"/>
          <path id="Trazado_912803" data-name="Trazado 912803" d="M226.4,23.913a.813.813,0,0,0,.622-.289l2.534-3a.814.814,0,0,0-1.244-1.05l-2.533,3a.814.814,0,0,0,.622,1.339" transform="translate(-159.587 0.562)"/>
          <path id="Trazado_912804" data-name="Trazado 912804" d="M226.134,139.8a.513.513,0,0,0,.51-.457l5.681-51.925a.515.515,0,0,0-1.024-.113l-5.68,51.925a.515.515,0,0,0,.455.568.539.539,0,0,0,.058,0" transform="translate(-162.208 2.532)"/>
          <path id="Trazado_912805" data-name="Trazado 912805" d="M277.957,90.81a.515.515,0,0,0,.316-.921l-5.028-3.912a.514.514,0,1,0-.631.812l5.027,3.913a.513.513,0,0,0,.316.108" transform="translate(-256.511 2.503)"/>
          <path id="Trazado_912806" data-name="Trazado 912806" d="M275.443,87.555a.527.527,0,0,0,.239-.059.515.515,0,0,0,.217-.695l-2.513-4.823a.515.515,0,1,0-.913.476l2.514,4.823a.514.514,0,0,0,.456.277" transform="translate(-253.997 2.382)"/>
          <path id="Trazado_912807" data-name="Trazado 912807" d="M267.634,113.453a.515.515,0,0,0,.507-.436c.736-4.8,4.951-18.183,4.993-18.318a.514.514,0,1,0-.981-.309c-.175.553-4.283,13.592-5.029,18.47a.514.514,0,0,0,.43.587.525.525,0,0,0,.079.006" transform="translate(-245.749 2.741)"/>
          <path id="Trazado_912808" data-name="Trazado 912808" d="M206.672,98.262a.512.512,0,0,0,.5-.388l1.286-5.082a.514.514,0,1,0-1-.254l-1.286,5.083a.512.512,0,0,0,.372.625.5.5,0,0,0,.127.016" transform="translate(-118.324 2.686)"/>
          <path id="Trazado_912809" data-name="Trazado 912809" d="M204.178,100.376l.047,0a.515.515,0,0,0,.466-.559l-.535-6a.515.515,0,0,0-1.026.093l.536,6a.514.514,0,0,0,.512.468" transform="translate(-111.427 2.721)"/>
          <path id="Trazado_912810" data-name="Trazado 912810" d="M211.692,21.945s-2.371-4.3-5.917-5.039a4.52,4.52,0,0,0-1.551,3.5,4.7,4.7,0,0,0,.32,1.628,6.956,6.956,0,0,0,7.147-.087" transform="translate(-119.554 0.493)"/>
          <path id="Trazado_912811" data-name="Trazado 912811" d="M245.754,270.494l3.065,4.212,6.5-3.2,6.977,2.924,4.2,1.014a4.545,4.545,0,0,1,3.479,4.371l.086,8.22-28.632-.113Z" transform="translate(-216.211 7.886)" fill="#fff"/>
          <path id="Trazado_912812" data-name="Trazado 912812" d="M270.073,288.491a.443.443,0,0,0,.443-.447l-.086-8.22a4.982,4.982,0,0,0-3.818-4.8l-4.2-1.013-6.909-2.9a.438.438,0,0,0-.366.011l-6.163,3.032-2.847-3.911a.442.442,0,0,0-.786.154l-4.327,17.43a.442.442,0,0,0,.428.549l28.632.112Zm-14.73-16.484,6.79,2.846,4.27,1.035a4.1,4.1,0,0,1,3.141,3.946l.082,7.771-27.621-.108,3.962-15.963,2.506,3.445a.445.445,0,0,0,.554.137Z" transform="translate(-216.224 7.873)"/>
          <path id="Trazado_912813" data-name="Trazado 912813" d="M248.508,285.5h.019a.444.444,0,0,0,.424-.46c-.15-3.678.617-6.422,2.281-8.154a5.94,5.94,0,0,1,3.911-1.845.443.443,0,1,0,0-.885,6.787,6.787,0,0,0-4.549,2.117c-1.837,1.913-2.687,4.875-2.528,8.8a.443.443,0,0,0,.443.424" transform="translate(-208.547 7.992)" fill="#fff"/>
          <path id="Trazado_912814" data-name="Trazado 912814" d="M259.215,274.539a5.455,5.455,0,0,1-3.4-4.363,3.541,3.541,0,0,0-4.712-2.59,4.317,4.317,0,0,0-2.239,5.2,5.551,5.551,0,0,0,4.657,3.6,7.776,7.776,0,0,0,5.693-1.839" transform="translate(-212.818 7.794)" fill="#fd521b"/>
          <path id="Trazado_912815" data-name="Trazado 912815" d="M201.651,269.671l-4.746,6.01-6.99-1.257,1.022,13.9,38.545-8.534-2.039-6a5.853,5.853,0,0,0-6.925-3.573l-4.686,1.048Z" transform="translate(-122.618 7.862)" fill="#fff"/>
          <path id="Trazado_912816" data-name="Trazado 912816" d="M190.949,288.775a.434.434,0,0,0,.1-.011l38.546-8.534a.444.444,0,0,0,.323-.574l-2.04-6a6.275,6.275,0,0,0-7.441-3.862l-4.613,1.031-14.108-1.585a.446.446,0,0,0-.4.167l-4.582,5.8L190.005,274a.443.443,0,0,0-.52.468l1.022,13.9a.443.443,0,0,0,.177.322.45.45,0,0,0,.264.087m37.967-9.3-37.564,8.317-.943-12.817,6.428,1.155a.443.443,0,0,0,.426-.162l4.594-5.816,13.938,1.564a.494.494,0,0,0,.146-.008l4.685-1.047a5.39,5.39,0,0,1,6.41,3.284Z" transform="translate(-122.63 7.849)"/>
          <path id="Trazado_912817" data-name="Trazado 912817" d="M202.978,280.32h.013a.443.443,0,0,0,.43-.456l-.25-8.007a.465.465,0,0,0-.457-.429.443.443,0,0,0-.428.457l.25,8.007a.441.441,0,0,0,.442.428" transform="translate(-109.289 7.913)" fill="#fff"/>
          <path id="Trazado_912818" data-name="Trazado 912818" d="M220.409,271.385c-5.518-.984-10.575-1.093-13.528-5.143a2.192,2.192,0,0,0-2.833-.437,1.9,1.9,0,0,0-.541,2.653c3.667,4.867,11.372,6.28,16.9,2.927" transform="translate(-127.195 7.739)" fill="#fd521b"/>
          <path id="Trazado_912819" data-name="Trazado 912819" d="M190.753,284.839a.482.482,0,0,0,.094-.009l34.083-7.318a.443.443,0,0,0-.185-.866l-34.083,7.318a.442.442,0,0,0,.092.875" transform="translate(-118.824 8.065)"/>
          <path id="Trazado_912820" data-name="Trazado 912820" d="M241.441,285.205h27.948a.443.443,0,1,0,0-.885H241.441a.443.443,0,0,0,0,.885" transform="translate(-215.539 8.289)"/>
          <path id="Trazado_912821" data-name="Trazado 912821" d="M215.2,275.046a.443.443,0,0,0,.431-.344l1.491-6.547a.442.442,0,0,0-.708-.443l-6.36,5.12-.5-5.382a.443.443,0,0,0-.744-.282l-5.237,4.92a.442.442,0,1,0,.606.644l4.578-4.3.494,5.3a.442.442,0,0,0,.717.3l6.011-4.839-1.209,5.306a.443.443,0,0,0,.332.529.417.417,0,0,0,.1.011" transform="translate(-124.185 7.785)"/>
          <path id="Trazado_912822" data-name="Trazado 912822" d="M250.806,277.215a.455.455,0,0,0,.185-.04l7.626-3.506a.441.441,0,0,0,.236-.537.435.435,0,0,0-.505-.3l-9.314,1.821,5.131-3.389a.442.442,0,0,0-.394-.784l-8.658,3.15a.442.442,0,1,0,.3.832l5.131-1.868-3.865,2.553a.443.443,0,0,0-.166.536.437.437,0,0,0,.494.267l7.873-1.54-4.262,1.96a.442.442,0,0,0,.185.844" transform="translate(-208.517 7.885)"/>
          <path id="Trazado_912823" data-name="Trazado 912823" d="M210.052,31.25c1.754-.052,3.883.781,4.317,2.294s-1.946.935-3.536-.034-1.379-2.243-.781-2.26" transform="translate(-127.823 0.911)"/>
          <path id="Trazado_912824" data-name="Trazado 912824" d="M212.928,32.078a2.657,2.657,0,0,1,1.153,1.441c.434,1.513-1.945.937-3.536-.034a2.979,2.979,0,0,1-.938-.85,8.489,8.489,0,0,1,3.321-.557" transform="translate(-127.536 0.935)" fill="#fd521b"/>
        </g>
      </g>
    </g>
  </g>
</svg>
