<svg xmlns="http://www.w3.org/2000/svg" xmlns:xlink="http://www.w3.org/1999/xlink" width="190" height="323.516" viewBox="0 0 190 323.516">
  <defs>
    <linearGradient id="linear-gradient" x1="-0.141" y1="1.317" x2="-0.093" y2="1.294" gradientUnits="objectBoundingBox">
      <stop offset="0" stop-color="#fff" stop-opacity="0.2"/>
      <stop offset="1" stop-color="#fff" stop-opacity="0"/>
    </linearGradient>
  </defs>
  <g id="Grupo_1101948" data-name="Grupo 1101948" transform="translate(-1230.176 -4056)">
    <rect id="Rectángulo_403389" data-name="Rectángulo 403389" width="190" height="213.016" rx="10" transform="translate(1230.176 4166.5)" fill="#fff4e4"/>
    <g id="pantone" transform="translate(1247.176 4056)">
      <path id="Trazado_912589" data-name="Trazado 912589" d="M219.675,350.806,207.546,322H175l4.548,57.613h28Z" transform="translate(-121.936 -224.361)" fill="#235c81"/>
      <path id="Trazado_912590" data-name="Trazado 912590" d="M331.557,350.806,319.428,322H282.333v57.613h37.095Z" transform="translate(-196.722 -224.361)" fill="#174461"/>
      <rect id="Rectángulo_403598" data-name="Rectángulo 403598" width="32.545" height="57.613" transform="translate(122.706 97.639)" fill="#092a40"/>
      <path id="Trazado_912591" data-name="Trazado 912591" d="M85.548,313.61,60.641,294.728,36.209,308.834l28.806,49.894,24.432-14.106Z" transform="translate(-25.23 -205.359)" fill="#fff5d9"/>
      <path id="Trazado_912592" data-name="Trazado 912592" d="M169.875,259.943l-24.907-18.882-28.186,16.273,28.806,49.894,28.186-16.273Z" transform="translate(-81.371 -167.965)" fill="#ad396b"/>
      <path id="Trazado_912593" data-name="Trazado 912593" d="M266.768,198.777l-24.907-18.883-32.125,18.547,28.806,49.894,32.125-18.547Z" transform="translate(-146.139 -125.346)" fill="#5b3256"/>
      <rect id="Rectángulo_403599" data-name="Rectángulo 403599" width="57.612" height="32.545" transform="matrix(-0.5, -0.866, 0.866, -0.5, 124.53, 104.441)" fill="#3a2f4d"/>
      <path id="Trazado_912594" data-name="Trazado 912594" d="M51.326,304.117l-31.011-3.9L6.208,324.65,56.1,353.456l14.106-24.432Z" transform="translate(-4.326 -209.184)" fill="#fff5d9"/>
      <path id="Trazado_912595" data-name="Trazado 912595" d="M100.013,211.163,69,207.264,52.728,235.45l49.894,28.806L118.9,236.07Z" transform="translate(-36.74 -144.416)" fill="#ff755c"/>
      <path id="Trazado_912596" data-name="Trazado 912596" d="M155.953,105.22l-31.011-3.9-18.547,32.125,49.894,28.806,18.547-32.125Z" transform="translate(-74.133 -70.598)" fill="#ff4181"/>
      <rect id="Rectángulo_403600" data-name="Rectángulo 403600" width="57.612" height="32.545" transform="matrix(-0.866, -0.5, 0.5, -0.866, 100.703, 59.529)" fill="#d63d76"/>
      <path id="Trazado_912597" data-name="Trazado 912597" d="M65,297l9.1,65.193H102.9V309.129Z" transform="translate(-45.29 -206.942)" fill="#ffe290"/>
      <path id="Trazado_912598" data-name="Trazado 912598" d="M0,309.129v53.064H28.806V297Z" transform="translate(0 -206.942)" fill="#fff5d9"/>
      <path id="Trazado_912599" data-name="Trazado 912599" d="M102.9,201.8,65,189.667l9.1,44.675H102.9Z" transform="translate(-45.29 -132.155)" fill="#ffb14e"/>
      <path id="Trazado_912600" data-name="Trazado 912600" d="M0,201.8v32.546H28.806V189.667Z" transform="translate(0 -132.155)" fill="#ffce47"/>
      <path id="Trazado_912601" data-name="Trazado 912601" d="M102.9,79.462,65,67.333l9.1,49.224H102.9Z" transform="translate(-45.29 -46.916)" fill="#ff9356"/>
      <path id="Trazado_912602" data-name="Trazado 912602" d="M0,79.462v37.095H28.806V67.333Z" transform="translate(0 -46.916)" fill="#ffb14e"/>
      <path id="Trazado_912603" data-name="Trazado 912603" d="M74.1,0,65,16.273l9.1,16.273H102.9V0Z" transform="translate(-45.29)" fill="#ff755c"/>
      <rect id="Rectángulo_403601" data-name="Rectángulo 403601" width="28.806" height="32.545" fill="#ff9356"/>
    </g>
    <g id="bote-de-pintura" transform="translate(1259.845 4236.043)">
      <path id="Trazado_912604" data-name="Trazado 912604" d="M118.108,63.52c.4-8.395-9.41-24.112-24.4-39.1C79.064,9.776,63.6,0,55.111,0h-.185a7.718,7.718,0,0,0-5.536,2.122c-.075.075-.116.172-.187.25l-.02-.017-7.678,9.516C26.8,12.523,5.936,22.916,5.936,38.377a15.414,15.414,0,0,0,4.972,11.415L1.894,60.964A6.744,6.744,0,0,0,.01,65.573C-.319,72.7,7.591,85.413,20.145,97.967,32.41,110.228,44.916,118.1,52.1,118.1h.161a6.651,6.651,0,0,0,4.671-1.684l58.845-47.483-.035-.043c.079-.072.189-.092.265-.167A7.585,7.585,0,0,0,118.108,63.52ZM14.618,45.194a9.844,9.844,0,0,1-2.777-6.818c0-9.758,12.926-17.5,24.324-19.887Z" fill="#303c42"/>
      <path id="Trazado_912605" data-name="Trazado 912605" d="M63.59,47.061,34.779,82.754c6.6,3.476,15.661,4.417,19.07,4.417,6.318,0,10.531-.156,15.024-1.294a5.826,5.826,0,0,1,5.642-4.61,5.9,5.9,0,1,1,0,11.808A5.842,5.842,0,0,1,70.568,91.5c-5.483,1.411-10.447,1.579-16.719,1.579-4.91,0-15.107-1.314-22.778-5.728L21.72,98.933a1.272,1.272,0,0,0-.369.945c-.2,4.425,6.181,15.723,18.406,27.95,11.994,11.987,23.215,18.407,27.759,18.407H67.6a1.552,1.552,0,0,0,.813-.155l52.17-42.119C110.966,101.093,98,91.336,87.127,80.466,76.285,69.627,66.486,56.667,63.59,47.061Z" transform="translate(-15.437 -34.034)" fill="#78909c"/>
      <path id="Trazado_912606" data-name="Trazado 912606" d="M113.148,236.407,66.605,272.863a1.6,1.6,0,0,1-.813.151h-.081c-4.544,0-15.765-6.229-27.759-17.859C29.919,247.36,24.465,240,21.688,234.617a1.266,1.266,0,0,0-.339.9c-.2,4.425,6.181,15.723,18.406,27.95,11.994,11.987,23.215,18.407,27.759,18.407h.081a1.553,1.553,0,0,0,.813-.155L120.579,239.6A40.921,40.921,0,0,1,113.148,236.407Z" transform="translate(-15.436 -169.674)" opacity="0.1"/>
      <path id="Trazado_912607" data-name="Trazado 912607" d="M228.24,44.008c-14.935-14.93-28.56-22.688-34.39-22.688a2.255,2.255,0,0,0-1.544.378l-.044.055c-2.253,2.4,3.528,17.141,22.312,35.92,18.754,18.752,33.5,24.554,35.913,22.313l.07-.056a2.307,2.307,0,0,0,.368-1.267C251.184,73.115,243.324,59.09,228.24,44.008Z" transform="translate(-138.709 -15.415)" fill="#78909c"/>
      <path id="Trazado_912608" data-name="Trazado 912608" d="M195.25,30.614l.044-.055a2.254,2.254,0,0,1,1.544-.378c5.83,0,19.455,7.758,34.39,22.688,9.558,9.557,16.191,18.67,19.72,25.49.011-5.716-7.8-19.5-22.65-34.353-14.935-14.93-28.56-22.688-34.39-22.688a2.255,2.255,0,0,0-1.544.378l-.044.055c-1.025,1.092-.276,4.832,2.494,10.253A2.208,2.208,0,0,1,195.25,30.614Z" transform="translate(-138.768 -15.415)" opacity="0.1"/>
      <path id="Trazado_912609" data-name="Trazado 912609" d="M379.865,321.5a3.059,3.059,0,0,0-4.855,0c-2.059,2.981-12.334,18.211-12.334,25.294a14.762,14.762,0,0,0,29.523,0C392.2,339.712,381.924,324.481,379.865,321.5Z" transform="translate(-262.286 -231.642)" fill="#303c42"/>
      <path id="Trazado_912610" data-name="Trazado 912610" d="M392.858,377.089A8.867,8.867,0,0,1,384,368.231c0-3.224,4.608-11.64,8.858-18.283,4.25,6.641,8.858,15.054,8.858,18.283A8.867,8.867,0,0,1,392.858,377.089Z" transform="translate(-277.707 -253.081)" fill="#7cb342"/>
      <path id="Trazado_912611" data-name="Trazado 912611" d="M394.413,358.465c1.934,3.715,3.323,7.03,3.323,8.79a8.829,8.829,0,0,1-13.625,7.442,8.845,8.845,0,0,0,17.684-.306C401.8,371.533,398.188,364.62,394.413,358.465Z" transform="translate(-277.788 -259.241)" opacity="0.1"/>
      <path id="Trazado_912612" data-name="Trazado 912612" d="M115.738,68.895c.079-.072.189-.092.265-.167a7.585,7.585,0,0,0,2.1-5.207c.4-8.395-9.41-24.112-24.4-39.1C79.064,9.776,63.6,0,55.111,0h-.185a7.718,7.718,0,0,0-5.536,2.122c-.075.075-.116.172-.187.25l-.02-.017-7.678,9.516C26.8,12.523,5.936,22.916,5.936,38.377a15.414,15.414,0,0,0,4.972,11.415L1.894,60.964A6.744,6.744,0,0,0,.01,65.573C-.319,72.7,7.591,85.413,20.145,97.967,32.41,110.228,44.916,118.1,52.1,118.1h.161a6.651,6.651,0,0,0,4.671-1.684l58.845-47.483Zm-101.12-23.7a9.844,9.844,0,0,1-2.777-6.818c0-9.758,12.926-17.5,24.324-19.887ZM117.579,89.858a3.059,3.059,0,0,0-4.855,0c-2.059,2.981-12.334,18.211-12.334,25.294a14.762,14.762,0,0,0,29.523,0C129.913,108.07,119.637,92.839,117.579,89.858Z" fill="url(#linear-gradient)"/>
    </g>
  </g>
</svg>
