<svg xmlns="http://www.w3.org/2000/svg" xmlns:xlink="http://www.w3.org/1999/xlink" width="190" height="224" viewBox="0 0 190 224">
  <defs>
    <clipPath id="clip-path">
      <rect id="Rect치ngulo_403458" data-name="Rect치ngulo 403458" width="50.151" height="54.279" fill="#ff7650"/>
    </clipPath>
  </defs>
  <g id="Grupo_1101745" data-name="Grupo 1101745" transform="translate(-180.051 -2695)">
    <rect id="Rect치ngulo_403033" data-name="Rect치ngulo 403033" width="190" height="224" rx="12" transform="translate(180.051 2695)" fill="#4c4e7b"/>
    <g id="Grupo_1101744" data-name="Grupo 1101744" transform="translate(-9.182 4.006)">
      <g id="Layer_1" transform="translate(190.223 2711.744)">
        <path id="Trazado_911870" data-name="Trazado 911870" d="M197.35,65.779,166.364,96.766,145.134,118l-13.47,13.47A6.77,6.77,0,0,1,129.306,133L117.7,137.481l-5.457,2.111a2.038,2.038,0,0,1-2.64-2.633l2.111-5.464,4.483-11.6a6.77,6.77,0,0,1,1.532-2.358L133.266,102l33.1-33.1,10.131-10.131,6.926-6.926a2.045,2.045,0,0,1,2.88,0L197.35,62.9a2.033,2.033,0,0,1,0,2.88Z" transform="translate(-28.651 -14.406)" fill="#aeaeae"/>
        <path id="Trazado_911871" data-name="Trazado 911871" d="M148.579,11.81V45.1L138.448,55.229l-33.1,33.1L89.812,103.865a6.77,6.77,0,0,0-1.532,2.358l-4.483,11.6-2.111,5.464a2.038,2.038,0,0,0,2.64,2.633l5.457-2.111,11.607-4.476a6.77,6.77,0,0,0,2.358-1.532l13.47-13.47,21.229-21.236,10.131-10.131v98.755a7.058,7.058,0,0,1-7.06,7.06H21.57a7.063,7.063,0,0,1-7.06-7.06V11.81a7.063,7.063,0,0,1,7.06-7.06H141.519A7.058,7.058,0,0,1,148.579,11.81Z" transform="translate(-0.735 -0.735)" fill="#72c2e9"/>
        <path id="Trazado_911872" data-name="Trazado 911872" d="M142.667,31.53V62.064l-33.1,33.1L94.031,110.7a6.77,6.77,0,0,0-1.532,2.358l-4.483,11.6L85.9,130.123a2.038,2.038,0,0,0,2.64,2.633L94,130.645l11.607-4.476a6.77,6.77,0,0,0,2.358-1.532l13.47-13.47L142.667,89.93v77.321a3.53,3.53,0,0,1-3.53,3.53H32.39a3.53,3.53,0,0,1-3.53-3.53V31.53A3.53,3.53,0,0,1,32.39,28H139.137a3.53,3.53,0,0,1,3.53,3.53Z" transform="translate(-4.954 -7.571)" fill="#efefef"/>
        <path id="Trazado_911873" data-name="Trazado 911873" d="M174.443,66.35v6.989l-33.1,33.1a31.156,31.156,0,0,0-4.405-2.584Z" transform="translate(-36.73 -18.846)" fill="#aeaeae"/>
        <path id="Trazado_911874" data-name="Trazado 911874" d="M159.99,136.956l21.229-21.236v6.989l-19.952,19.952A30.672,30.672,0,0,0,159.99,136.956Z" transform="translate(-43.506 -33.36)" fill="#aeaeae"/>
        <path id="Trazado_911875" data-name="Trazado 911875" d="M104.506,178a31.474,31.474,0,0,1-27.089-47.485H97.446a7.063,7.063,0,0,0,7.06-7.06V115.07a31.351,31.351,0,0,1,18.052,5.69L107.02,136.3a6.77,6.77,0,0,0-1.532,2.358L101,150.257l-2.111,5.464a2.038,2.038,0,0,0,2.64,2.633l5.457-2.111,11.607-4.476a6.769,6.769,0,0,0,2.358-1.532l13.47-13.47a30.67,30.67,0,0,1,1.278,5.7v.007A31.469,31.469,0,0,1,104.506,178Z" transform="translate(-17.943 -33.169)" fill="#efbf27"/>
        <path id="Trazado_911876" data-name="Trazado 911876" d="M144.35,143.763v.007L133.1,155.024a11.571,11.571,0,0,1-4.081,2.647c-13.816,5.33-10.145,3.911-17.05,6.587a6.984,6.984,0,0,1-9.037-9.016l6.594-17.071a11.607,11.607,0,0,1,2.648-4.074L126.8,119.47a31.157,31.157,0,0,1,4.405,2.584l-15.539,15.539a6.77,6.77,0,0,0-1.532,2.358l-4.483,11.6-2.111,5.464a2.038,2.038,0,0,0,2.64,2.633l5.457-2.111,11.607-4.476a6.77,6.77,0,0,0,2.358-1.532l13.47-13.47a30.67,30.67,0,0,1,1.278,5.7Z" transform="translate(-26.589 -34.463)" fill="#e8a61e"/>
        <path id="Trazado_911877" data-name="Trazado 911877" d="M200.191,52v6.989L190.06,69.12V62.131Z" transform="translate(-52.347 -14.627)" fill="#4ba5c8"/>
        <path id="Trazado_911878" data-name="Trazado 911878" d="M190.06,111.5l10.131-10.131v6.989L190.06,118.49Z" transform="translate(-52.347 -29.141)" fill="#4ba5c8"/>
        <path id="Trazado_911879" data-name="Trazado 911879" d="M117.7,170.9l-5.461,2.111a2.038,2.038,0,0,1-2.636-2.636l2.111-5.461Z" transform="translate(-28.652 -47.824)" fill="#efefef"/>
        <path id="Trazado_911880" data-name="Trazado 911880" d="M229.283,60.811,218.473,50l3.2-3.2a7.644,7.644,0,0,1,10.81,10.81Z" transform="translate(-60.7 -12.44)" fill="#72c2e9"/>
        <path id="Trazado_911881" data-name="Trazado 911881" d="M98.806,80.05V102.7a31.446,31.446,0,0,0-27.089,15.447H60.71a7.063,7.063,0,0,1-7.06-7.06V80.05a7.063,7.063,0,0,1,7.06-7.06H91.746A7.063,7.063,0,0,1,98.806,80.05Z" transform="translate(-12.242 -20.798)" fill="#fc5d3d"/>
        <path id="Trazado_911882" data-name="Trazado 911882" d="M106.329,115.07v8.387a7.063,7.063,0,0,1-7.06,7.06H79.24A31.446,31.446,0,0,1,106.329,115.07Z" transform="translate(-19.766 -33.169)" fill="#72c2e9"/>
        <path id="Trazado_911883" data-name="Trazado 911883" d="M145.581,78.317c-2.633-.867-4.689-1.428-6.065-7.357a1.879,1.879,0,0,0-3.658,0c-1.346,5.8-3.224,6.419-6.065,7.358a1.879,1.879,0,0,0,0,3.566c4.72,1.56,5.255,3.866,6.065,7.357a1.878,1.878,0,0,0,3.658,0c1.345-5.8,3.325-6.452,6.065-7.357A1.88,1.88,0,0,0,145.581,78.317Z" transform="translate(-34.251 -19.775)"/>
        <path id="Trazado_911884" data-name="Trazado 911884" d="M143.115,83.181a9.308,9.308,0,0,0-2.775,3.135,9.733,9.733,0,0,0-2.944-3.106,9.27,9.27,0,0,0,2.909-3.276A9.6,9.6,0,0,0,143.115,83.181Z" transform="translate(-36.864 -22.839)" fill="#f0c020"/>
        <path id="Trazado_911885" data-name="Trazado 911885" d="M136.419,167.613h-99.2a1.765,1.765,0,0,1-1.765-1.765V46.351a1.765,1.765,0,1,1,3.53,0V164.082h97.433a1.765,1.765,0,0,1,0,3.531ZM37.221,41.056a1.765,1.765,0,0,1-1.765-1.765V37.173a1.765,1.765,0,1,1,3.53,0v2.118A1.765,1.765,0,0,1,37.221,41.056Z" transform="translate(-6.893 -9.749)" fill="#fff"/>
        <path id="Trazado_911886" data-name="Trazado 911886" d="M104.5,238.244a1.765,1.765,0,1,0,0,3.53h5.97a1.765,1.765,0,0,0,0-3.53Z" transform="translate(-26.673 -69.383)"/>
        <path id="Trazado_911887" data-name="Trazado 911887" d="M118.284,17.4a1.765,1.765,0,1,0,0-3.53h-1.412a1.765,1.765,0,0,0,0,3.53Z" transform="translate(-30.311 -3.418)"/>
        <path id="Trazado_911888" data-name="Trazado 911888" d="M149.857,127.926l-10.33,10.33a1.765,1.765,0,0,0,2.5,2.5l10.33-10.33a1.765,1.765,0,0,0-2.5-2.5Z" transform="translate(-37.338 -36.797)"/>
        <path id="Trazado_911889" data-name="Trazado 911889" d="M140.784,2.25H20.835a8.837,8.837,0,0,0-8.825,8.825V170.984a8.837,8.837,0,0,0,8.825,8.825h81.536a1.765,1.765,0,0,0,.014-3.53H20.835a5.315,5.315,0,0,1-5.295-5.295V11.075A5.315,5.315,0,0,1,20.835,5.78H140.784a5.316,5.316,0,0,1,5.295,5.295V43.629l-6.6,6.6V23.959a5.306,5.306,0,0,0-5.295-5.295H27.436a5.306,5.306,0,0,0-5.295,5.295V128.92a1.765,1.765,0,1,0,3.53,0V23.959a1.766,1.766,0,0,1,1.765-1.765H134.183a1.766,1.766,0,0,1,1.765,1.765v29.8L104.39,85.318a31.5,31.5,0,0,0-3.417-1.9,32.677,32.677,0,0,0-12.644-3.235V59.252A8.837,8.837,0,0,0,79.5,50.427h-2.28a1.765,1.765,0,1,0,0,3.53H79.5A5.315,5.315,0,0,1,84.8,59.252V80.185a33.314,33.314,0,0,0-26.313,15.4H48.468a5.315,5.315,0,0,1-5.295-5.295V59.252a5.315,5.315,0,0,1,5.295-5.295H63.1a1.765,1.765,0,0,0,0-3.53H48.468a8.837,8.837,0,0,0-8.825,8.825V90.288a8.837,8.837,0,0,0,8.825,8.825h8.089a33.228,33.228,0,1,0,61.922,4.985l17.469-17.471v73.053a1.766,1.766,0,0,1-1.765,1.765H27.436a1.766,1.766,0,0,1-1.765-1.765V143.047a1.765,1.765,0,1,0-3.53,0v16.633a5.306,5.306,0,0,0,5.295,5.295H134.183a5.306,5.306,0,0,0,5.295-5.295V83.1l6.6-6.6v94.489a5.316,5.316,0,0,1-5.295,5.295H116.5a1.765,1.765,0,1,0,0,3.53h24.286a8.837,8.837,0,0,0,8.825-8.825V72.964l20.339-20.341a3.764,3.764,0,0,0,.869-3.991l2.213-2.213a9.409,9.409,0,1,0-13.307-13.307l-2.211,2.211a3.771,3.771,0,0,0-3.986.857L149.609,40.1V11.075a8.837,8.837,0,0,0-8.825-8.825ZM79.5,95.583H62.8a29.792,29.792,0,0,1,22-11.859v6.564A5.315,5.315,0,0,1,79.5,95.583ZM115.58,107A29.7,29.7,0,1,1,60.5,99.113H79.5a8.844,8.844,0,0,0,8.825-8.825V83.715A29.4,29.4,0,0,1,99.441,86.6c.812.388,1.61.819,2.386,1.285l-14,14a8.6,8.6,0,0,0-1.927,2.972c-2.192,5.672,1.175-3.049-6.594,17.064a3.8,3.8,0,0,0,4.928,4.914l5.47-2.112.018-.007,11.568-4.468a9.045,9.045,0,0,0,2.972-1.927ZM82.956,123.541a.269.269,0,0,1-.36-.346l1.135-2.94,2.155,2.155Zm87.58-87.933a5.886,5.886,0,0,1,0,8.315l-1.953,1.953c-6.134-6.134-4.338-4.336-8.312-8.317l1.951-1.951A5.888,5.888,0,0,1,170.536,35.608Zm-14.524,3.079a.28.28,0,0,1,.4.007L167.45,49.743a.268.268,0,0,1,0,.388l-52.216,52.216-13.47,13.47a5.105,5.105,0,0,1-1.744,1.137l-10.532,4.066-4.367-4.367.268-.695,3.8-9.834a5,5,0,0,1,1.137-1.744l15.539-15.539c.011-.011.018-.025.028-.036l50.118-50.119Z"/>
        <path id="Trazado_911890" data-name="Trazado 911890" d="M151.03,250.515a1.765,1.765,0,1,0-1.758,1.765A1.764,1.764,0,0,0,151.03,250.515Z" transform="translate(-39.834 -72.471)"/>
        <circle id="Elipse_11554" data-name="Elipse 11554" cx="1.765" cy="1.765" r="1.765" transform="translate(22.141 134.215)"/>
        <circle id="Elipse_11555" data-name="Elipse 11555" cx="1.765" cy="1.765" r="1.765" transform="translate(68.391 50.427)"/>
      </g>
      <g id="Grupo_1101743" data-name="Grupo 1101743" transform="translate(-375.651 1.273)">
        <g id="Grupo_1101742" data-name="Grupo 1101742" transform="translate(667.051 2836)">
          <g id="Grupo_1101741" data-name="Grupo 1101741" transform="translate(0 0)" clip-path="url(#clip-path)">
            <path id="Trazado_911866" data-name="Trazado 911866" d="M1.245,31.21a4.251,4.251,0,0,1,6.012,0L36.12,60.073a4.251,4.251,0,0,1-6.012,6.012L1.245,37.222A4.251,4.251,0,0,1,1.245,31.21Z" transform="translate(12.785 -13.051)" fill="#ff7650"/>
            <path id="Trazado_911867" data-name="Trazado 911867" d="M21.146,27.63l-3.639-7.05L9.786,18.753l7.05-3.639,1.827-7.72,3.639,7.05,7.721,1.827-7.051,3.639Z" transform="translate(14.604 -3.22)" fill="#ff7650"/>
            <path id="Trazado_911868" data-name="Trazado 911868" d="M67.848,16.851l-3.031-5.871L58.388,9.46l5.871-3.031L65.78,0l3.031,5.871L75.24,7.392l-5.871,3.031Z" transform="translate(-58.046 0)" fill="#ff7650"/>
            <path id="Trazado_911869" data-name="Trazado 911869" d="M71.9,43.112l1.075-4.544,2.142,4.149,4.544,1.075L75.51,45.934l-1.075,4.544-2.142-4.149-4.544-1.075Z" transform="translate(-67.75 -16.798)" fill="#ff7650"/>
          </g>
        </g>
      </g>
    </g>
  </g>
</svg>
