<svg xmlns="http://www.w3.org/2000/svg" xmlns:xlink="http://www.w3.org/1999/xlink" width="295" height="233" viewBox="0 0 295 233">
  <defs>
    <clipPath id="clip-path">
      <rect id="Rectángulo_403494" data-name="Rectángulo 403494" width="44" height="176" fill="#4c4e7b"/>
    </clipPath>
  </defs>
  <g id="Grupo_1101813" data-name="Grupo 1101813" transform="translate(-180.051 -2263)">
    <rect id="Rectángulo_402922" data-name="Rectángulo 402922" width="295" height="233" rx="10" transform="translate(180.051 2263)" fill="#9decfa"/>
    <g id="Grupo_1101812" data-name="Grupo 1101812" transform="translate(-3 2.5)">
      <g id="Grupo_1101810" data-name="Grupo 1101810" transform="translate(306.051 2292)">
        <g id="Grupo_1101809" data-name="Grupo 1101809" clip-path="url(#clip-path)">
          <path id="Trazado_911981" data-name="Trazado 911981" d="M101,92.775a14.659,14.659,0,0,1-.77,5.762,10.872,10.872,0,0,1-2.419,3.893,9.1,9.1,0,0,1-3.475,2.2,12.032,12.032,0,0,1-3.981.682,11.353,11.353,0,0,1-3.8-.66,9.038,9.038,0,0,1-3.321-2.067,10.357,10.357,0,0,1-2.353-3.673,14.675,14.675,0,0,1-.9-5.432,16.921,16.921,0,0,1,.528-4.707,12.011,12.011,0,0,1,1.276-2.947,9.146,9.146,0,0,1,3.937-3.585,11.671,11.671,0,0,1,4.816-1.034,10.269,10.269,0,0,1,4.421.9,9.457,9.457,0,0,1,3.233,2.463,11.071,11.071,0,0,1,2.023,3.651A15.893,15.893,0,0,1,101,92.731ZM92,45.929q0-.439-.022-.946a2.566,2.566,0,0,0-.22-.946,1.791,1.791,0,0,0-.594-.726,1.938,1.938,0,0,0-1.144-.286,1.562,1.562,0,0,0-.638.11,4.567,4.567,0,0,0-.462.242V59.565a1.748,1.748,0,0,1-.22.858q-.176.242-.836.242H81.316a.936.936,0,0,1-.814-.286,1.713,1.713,0,0,1-.2-.946V27.939a.851.851,0,0,1,.264-.748,1.443,1.443,0,0,1,.792-.176h6.422a2.142,2.142,0,0,1,.858.132q.285.132.286.836V39.111a19.238,19.238,0,0,1,2.2-1.21,8.289,8.289,0,0,1,3.607-.682,10.515,10.515,0,0,1,1.958.242,4.685,4.685,0,0,1,2.353,1.386A4.865,4.865,0,0,1,100.45,41.4a19.64,19.64,0,0,1,.264,2.331V59.565q0,.749-.286.924a1.776,1.776,0,0,1-.9.176h-6.29a2.114,2.114,0,0,1-.946-.154Q92,60.358,92,59.653Zm7.544,141.99q0,.749-.066,1.473a2.507,2.507,0,0,1-.55,1.342q-.132.132-.594.55a5.59,5.59,0,0,1-1.452.858,14.086,14.086,0,0,1-2.529.792,17.55,17.55,0,0,1-3.827.352,29.249,29.249,0,0,1-3.255-.2,10.791,10.791,0,0,1-3.3-.9,6.9,6.9,0,0,1-2.573-2,5.53,5.53,0,0,1-1.034-3.541,6.05,6.05,0,0,1,1.232-3.937,8.791,8.791,0,0,1,2.969-2.375,15.041,15.041,0,0,1,3.695-1.254q1.957-.4,3.409-.616v-2.375q0-.352-.022-.792a2.883,2.883,0,0,0-.154-.814,1.481,1.481,0,0,0-.44-.638,1.242,1.242,0,0,0-.836-.264,1.369,1.369,0,0,0-1.232.528,5.584,5.584,0,0,0-.572,1.1q-.221.572-.44,1.078a3.122,3.122,0,0,1-.594.9,2.526,2.526,0,0,1-.946.616,4.227,4.227,0,0,1-1.5.22,3.987,3.987,0,0,1-1.65-.308,3.334,3.334,0,0,1-1.122-.792,3.281,3.281,0,0,1-.66-1.078,3.329,3.329,0,0,1-.22-1.166,3.834,3.834,0,0,1,.99-2.529,7.369,7.369,0,0,1,2.661-1.913,11.873,11.873,0,0,1,3.453-.88q1.781-.175,3.629-.176a14.789,14.789,0,0,1,3.8.462,4.746,4.746,0,0,1,2.793,2.045,4.849,4.849,0,0,1,.792,2,14.483,14.483,0,0,1,.132,1.913ZM86.22,116q0-.747.352-.88a2.379,2.379,0,0,1,.836-.132h6.158a1.613,1.613,0,0,1,.9.2q.285.2.286.858V147.5q0,.749-.286.946a1.613,1.613,0,0,1-.9.2H87.452a1.6,1.6,0,0,1-.924-.2q-.264-.2-.308-.946Zm5.454,65.936a10.26,10.26,0,0,0-1.5.506,2.5,2.5,0,0,0-.968.858,2.924,2.924,0,0,0-.418.792,6.832,6.832,0,0,0-.242.858,5.311,5.311,0,0,0-.11.77c-.015.235-.022.411-.022.528a3.931,3.931,0,0,0,.44,1.935,1.42,1.42,0,0,0,1.32.792,1.315,1.315,0,0,0,.88-.264,1.463,1.463,0,0,0,.44-.66,3.2,3.2,0,0,0,.154-.858q.022-.462.022-.858ZM92.158,92.6q0-.747-.022-1.517t-.11-1.782q-.044-.439-.11-.99a4.659,4.659,0,0,0-.242-1.034,2.582,2.582,0,0,0-.462-.814.92.92,0,0,0-.726-.33.882.882,0,0,0-.7.308,2.267,2.267,0,0,0-.418.77,6.326,6.326,0,0,0-.242,1.012q-.089.55-.132.99a11.946,11.946,0,0,0-.11,1.342q-.023.726-.044,1.407t-.022,1.21v.748q0,.881.022,1.87a11.87,11.87,0,0,0,.176,1.847,4.8,4.8,0,0,0,.462,1.43.959.959,0,0,0,.88.572,1.158,1.158,0,0,0,.99-.528,3.742,3.742,0,0,0,.55-1.473,15.343,15.343,0,0,0,.22-2.243Q92.158,94.1,92.158,92.6Z" transform="translate(-68.515 -23.144)" fill="#4c4e7b"/>
        </g>
      </g>
      <g id="Grupo_1101811" data-name="Grupo 1101811" transform="translate(68 1631.036)">
        <g id="Rectángulo_403216" data-name="Rectángulo 403216" transform="translate(261.448 795.611)" fill="none" stroke="#262626" stroke-width="1" stroke-dasharray="1">
          <rect width="27.951" height="27.951" rx="3" stroke="none"/>
          <rect x="0.5" y="0.5" width="26.951" height="26.951" rx="2.5" fill="none"/>
        </g>
        <path id="Trazado_911713" data-name="Trazado 911713" d="M0,0V12.613L3.556,9.057H9.1Z" transform="translate(260.051 793.464)" fill="#4c4e7b" stroke="#fff" stroke-width="0.4"/>
        <g id="Grupo_1101457" data-name="Grupo 1101457" transform="translate(266.828 816.769) rotate(-90)">
          <path id="Unión_2" data-name="Unión 2" d="M12.44,20.465a14.178,14.178,0,0,1-5.679-2.289,14.178,14.178,0,0,1-5.679,2.289.553.553,0,0,1-.128.01A.957.957,0,0,1,.83,18.569,11.844,11.844,0,0,0,5.281,16.86v-.905H5.274a1,1,0,0,1-1-1v-.119a1,1,0,0,1,1-1h.007V3.375A5.777,5.777,0,0,0,1.143,1.913c-.062,0-.124,0-.188,0A.956.956,0,0,1,.938,0c.068,0,.137,0,.2,0A7.584,7.584,0,0,1,6.762,2.161,7.58,7.58,0,0,1,12.381,0c.067,0,.135,0,.2,0a.956.956,0,0,1-.017,1.913c-.064,0-.123,0-.184,0A5.838,5.838,0,0,0,8.242,3.381V13.836H9.629a1,1,0,0,1,1,1v.119a1,1,0,0,1-1,1H8.242v.905a12.029,12.029,0,0,0,4.451,1.709.957.957,0,0,1-.125,1.906A.568.568,0,0,1,12.44,20.465Z" transform="translate(0 0)" fill="#4c4e7b" stroke="#fff" stroke-linecap="round" stroke-width="0.3"/>
        </g>
      </g>
    </g>
  </g>
</svg>
