<svg xmlns="http://www.w3.org/2000/svg" xmlns:xlink="http://www.w3.org/1999/xlink" width="50" height="50" viewBox="0 0 50 50">
  <defs>
    <clipPath id="clip-path">
      <rect id="Rect치ngulo_403431" data-name="Rect치ngulo 403431" width="18.674" height="18.646" transform="translate(0 0)" fill="none"/>
    </clipPath>
  </defs>
  <g id="Grupo_1102226" data-name="Grupo 1102226" transform="translate(-181.051 -2423)">
    <g id="Grupo_1102225" data-name="Grupo 1102225" transform="translate(0.176)">
      <rect id="Rect치ngulo_403418" data-name="Rect치ngulo 403418" width="50" height="50" transform="translate(180.875 2423)" fill="#ffc7b8"/>
    </g>
    <g id="Grupo_1101697" data-name="Grupo 1101697" transform="translate(-2.051 1806)">
      <g id="Grupo_1101199" data-name="Grupo 1101199" transform="translate(190.102 624)">
        <path id="Trazado_911258" data-name="Trazado 911258" d="M18,0A18,18,0,1,1,0,18,18,18,0,0,1,18,0Z" transform="translate(0 0)" fill="#3c3c3c"/>
      </g>
      <g id="Grupo_1101698" data-name="Grupo 1101698" transform="translate(199.101 633)">
        <g id="Grupo_1101698-2" data-name="Grupo 1101698" transform="translate(0 0)" clip-path="url(#clip-path)">
          <path id="Trazado_911843" data-name="Trazado 911843" d="M31.143,5.186,26.3.346a.913.913,0,0,0-1.6.315c-.185.444-.327.906-.513,1.35a1.788,1.788,0,0,1-.349.56c-1.073,1.09-2.148,2.177-3.249,3.238a1.44,1.44,0,0,1-.773.35c-.956.121-1.919.187-2.878.28a1.034,1.034,0,0,0-.964.88c-.032.161-.044.326-.064.489a.825.825,0,0,0,.314.78c2.148,2.144,4.3,4.282,6.426,6.45a1.409,1.409,0,0,0,1.439.469,1.093,1.093,0,0,0,.958-1.012c.091-.948.152-1.9.278-2.843a1.6,1.6,0,0,1,.392-.824c.7-.748,1.472-1.426,2.152-2.189A5.541,5.541,0,0,1,30.713,6.8a.749.749,0,0,0,.13-.053.9.9,0,0,0,.3-1.558" transform="translate(-12.801 0.001)" fill="#b6b5b6"/>
          <path id="Trazado_911844" data-name="Trazado 911844" d="M0,66.524a20.139,20.139,0,0,0,7.076-5.317L5.339,59.462A20.569,20.569,0,0,0,0,66.524" transform="translate(0 -47.878)" fill="#b6b5b6"/>
        </g>
      </g>
    </g>
  </g>
</svg>
