<svg xmlns="http://www.w3.org/2000/svg" xmlns:xlink="http://www.w3.org/1999/xlink" width="295" height="180.745" viewBox="0 0 295 180.745">
  <defs>
    <clipPath id="clip-path">
      <rect id="Rectángulo_403027" data-name="Rectángulo 403027" width="17.99" height="17.99" fill="#323232"/>
    </clipPath>
  </defs>
  <g id="Grupo_1101770" data-name="Grupo 1101770" transform="translate(-180.026 -1914)">
    <rect id="Rectángulo_403377" data-name="Rectángulo 403377" width="295" height="180.745" rx="10" transform="translate(180.026 1914)" fill="#eaebfd"/>
    <g id="Grupo_1101768" data-name="Grupo 1101768">
      <g id="Grupo_1101765" data-name="Grupo 1101765" transform="translate(205 1938.923)">
        <g id="Grupo_1101769" data-name="Grupo 1101769">
          <path id="Trazado_911893" data-name="Trazado 911893" d="M30.045,120.553c-12.253-3.824-21.061-14.97-23.61-27.218A20.537,20.537,0,0,1,6.277,84.9a9.132,9.132,0,0,1,4.658-6.335,14.224,14.224,0,0,1,8.08-1.352,30.259,30.259,0,0,1,8.578,2.2c5.959,2.457,11.831,6.862,15.024,12.4A2.984,2.984,0,0,0,47.77,88.8,147.32,147.32,0,0,1,37.64,61.911C35.22,52.922,32.9,43.186,33.873,33.82c.833-8.036,5.531-14.677,11.782-19.469A48.092,48.092,0,0,1,55.823,8.459,48.814,48.814,0,0,1,60.87,6.65c1.8-.537,3.891-1.087,5.315-.182a5.712,5.712,0,0,1,1.458,1.619,14.314,14.314,0,0,1,1.213,2.479,56.693,56.693,0,0,1,2.213,7.769,119.388,119.388,0,0,1,2.08,16.3,2.983,2.983,0,1,0,5.966,0A25.888,25.888,0,0,1,86.8,19.289a23.227,23.227,0,0,1,16.2-6.332,24.405,24.405,0,0,1,16.507,6.39c4.886,4.611,7.623,10.936,8.918,17.44,1.757,8.824.649,18.07-.583,26.9a2.988,2.988,0,0,0,5.452,2.3,21.139,21.139,0,0,1,18.763-9.441,16.686,16.686,0,0,1,9.516,3.919,11.885,11.885,0,0,1,2.945,3.88c.089.173.478,1,.33.654.158.37.295.752.424,1.133a21.407,21.407,0,0,1,.708,2.659q.061.3.114.609s.143.951.076.442c.061.469.1.941.138,1.412.074,1.012.1,2.028.077,3.043-.021,1.087-.089,2.172-.2,3.254-.115,1.162-.17,1.54-.378,2.79-.285,1.71.763,3.989,2.876,3.776a76.224,76.224,0,0,0,16.127-3.94c2.63-.866,5.256-1.749,7.922-2.5a21.391,21.391,0,0,1,6.834-1.127c4.339.226,5.692,4.272,6.435,8.118a59.02,59.02,0,0,1,.488,16.3c-.563,6.377-1.739,12.685-2.544,19.034a2.938,2.938,0,0,0,1.834,2.726,3.086,3.086,0,0,0,3.259-.617,84.2,84.2,0,0,1,9.62-7.071,37.047,37.047,0,0,1,11.624-4.506c3.981-.827,8.325-.98,12.158.574a11.992,11.992,0,0,1,6.88,6.888,9.136,9.136,0,0,1,.459,1.989c.023.31,0,.615.005.924.005.234-.162.441.023-.162-.048.157-.087.326-.124.486-.022.095-.066.184-.1.276.38-1.183.084-.151.059-.2.018.032-.169.265-.2.317.048-.1.476-.468.125-.165-.16.137-.322.3-.469.457-.262.274.487-.3.148-.118-.143.076-.274.18-.415.261-.236.136-.48.251-.727.364.538-.246.124-.064-.187.036a13.579,13.579,0,0,1-1.771.431c-.257.046-.88.123-.277.054-.327.037-.655.072-.983.1-.671.054-1.344.083-2.018.1-2.447.046-4.883-.148-7.325-.264-4.047-.192-8.135.022-12.186.06-20.511.191-41.017.233-61.528-.105-20.61-.341-41.216-.9-61.822-1.377-20.524-.48-41.051-.887-61.58-.938q-3.834-.01-7.668,0c-3.839.007-3.846,5.974,0,5.966,21.6-.042,43.2.344,64.8.836,21.431.489,42.861,1.079,64.3,1.447,21.582.37,43.158.33,64.741.127,3.9-.037,7.832-.225,11.733-.006a70.6,70.6,0,0,0,7.809.177c2.737-.151,5.793-.536,8.122-2.111,2.94-1.988,3.815-5.078,3.294-8.473-1.457-9.5-11.253-14.646-20.114-14.506-9.313.146-17.959,4.113-25.256,9.661-1.819,1.383-3.6,2.816-5.373,4.256L209.922,120c1.532-12.093,4.084-24.013,1.971-36.216-.845-4.881-2.92-10.052-7.753-12.168-5.406-2.367-11.6-.2-16.891,1.49-6.059,1.938-12.18,4.4-18.555,5.04l2.877,3.776c1.424-8.53,1.345-18.239-4.987-24.91-6.775-7.137-17.7-7.946-26.378-4.226A27.036,27.036,0,0,0,128.15,62.976l5.452,2.3c1.284-9.206,2.342-18.451.988-27.714-1.132-7.744-4.227-15.393-9.6-21.169a30.37,30.37,0,0,0-19.94-9.316,29.435,29.435,0,0,0-20.7,6.452,31.6,31.6,0,0,0-11.2,21.109h5.966a141.982,141.982,0,0,0-1.968-16.314,65.239,65.239,0,0,0-2.02-7.852,22.18,22.18,0,0,0-2.814-6.116,9.911,9.911,0,0,0-5.627-4.1C63.97-.387,61.2.287,58.608,1.1A54.979,54.979,0,0,0,46.526,6.566c-7.705,4.7-14.452,11.55-17.252,20.3-3.207,10.017-1.045,21.144,1.24,31.12a154.537,154.537,0,0,0,12.1,33.824L47.77,88.8C44.221,82.642,38.26,77.859,31.9,74.84s-14.338-5.089-21.233-2.633C-5.966,78.133-.057,100.025,7.652,110.881a40.486,40.486,0,0,0,20.807,15.425c3.674,1.146,5.245-4.611,1.586-5.753" transform="translate(0 0)" fill="#ffd69b"/>
          <path id="Trazado_911895" data-name="Trazado 911895" d="M27.985,123.72a40.486,40.486,0,0,1-14.979-10.748C4.8,103.539-1.652,88.087,6.665,79.224c14.851-15.828,38.984,10.9,38.984,10.9S29.817,57.633,30.216,38.466,51.931,2.293,65.4,3.171c10.785.972,10.212,30.942,10.212,30.942s2.74-13.863,13.55-20.5A23.77,23.77,0,0,1,105.78,9.964C115.047,11.7,123.555,17.233,127.4,25.2c7.554,15.654,3.53,38.281,3.53,38.281s14.064-16.617,28.444-8.864,9.7,21.646,8.98,27.279c0,0,7.051-1.62,14.347-3.921,6.74-2.126,14.47-5.51,19.81-3.729,10.679,3.563,6.992,28.766,5.064,39.968-.056.069-.724,5.493-.724,5.493l4.009-2.932s26.566-20.352,37.288-6.089,3.626,16.712-24.828,16.253S27.985,123.72,27.985,123.72Z" fill="none" stroke="#048fe5" stroke-linecap="round" stroke-linejoin="round" stroke-width="1"/>
          <g id="Rectángulo_403473" data-name="Rectángulo 403473" transform="translate(1.026 88.077)" fill="#fff" stroke="#048fe5" stroke-width="1">
            <rect width="3" height="3" stroke="none"/>
            <rect x="0.5" y="0.5" width="2" height="2" fill="none"/>
          </g>
          <g id="Rectángulo_403474" data-name="Rectángulo 403474" transform="translate(44.026 88.077)" fill="#fff" stroke="#048fe5" stroke-width="1">
            <rect width="3" height="3" stroke="none"/>
            <rect x="0.5" y="0.5" width="2" height="2" fill="none"/>
          </g>
          <g id="Rectángulo_403475" data-name="Rectángulo 403475" transform="translate(29.026 36.077)" fill="#fff" stroke="#048fe5" stroke-width="1">
            <rect width="3" height="3" stroke="none"/>
            <rect x="0.5" y="0.5" width="2" height="2" fill="none"/>
          </g>
          <g id="Rectángulo_403476" data-name="Rectángulo 403476" transform="translate(64.026 1.077)" fill="#fff" stroke="#048fe5" stroke-width="1">
            <rect width="3" height="3" stroke="none"/>
            <rect x="0.5" y="0.5" width="2" height="2" fill="none"/>
          </g>
          <g id="Rectángulo_403477" data-name="Rectángulo 403477" transform="translate(74.026 32.077)" fill="#fff" stroke="#048fe5" stroke-width="1">
            <rect width="3" height="3" stroke="none"/>
            <rect x="0.5" y="0.5" width="2" height="2" fill="none"/>
          </g>
          <g id="Rectángulo_403478" data-name="Rectángulo 403478" transform="translate(106.026 9.077)" fill="#fff" stroke="#048fe5" stroke-width="1">
            <rect width="3" height="3" stroke="none"/>
            <rect x="0.5" y="0.5" width="2" height="2" fill="none"/>
          </g>
          <g id="Rectángulo_403479" data-name="Rectángulo 403479" transform="translate(130.026 38.077)" fill="#fff" stroke="#048fe5" stroke-width="1">
            <rect width="3" height="3" stroke="none"/>
            <rect x="0.5" y="0.5" width="2" height="2" fill="none"/>
          </g>
          <g id="Rectángulo_403480" data-name="Rectángulo 403480" transform="translate(129.026 61.077)" fill="#fff" stroke="#048fe5" stroke-width="1">
            <rect width="3" height="3" stroke="none"/>
            <rect x="0.5" y="0.5" width="2" height="2" fill="none"/>
          </g>
          <g id="Rectángulo_403481" data-name="Rectángulo 403481" transform="translate(158.026 53.077)" fill="#fff" stroke="#048fe5" stroke-width="1">
            <rect width="3" height="3" stroke="none"/>
            <rect x="0.5" y="0.5" width="2" height="2" fill="none"/>
          </g>
          <g id="Rectángulo_403482" data-name="Rectángulo 403482" transform="translate(168.026 80.077)" fill="#fff" stroke="#048fe5" stroke-width="1">
            <rect width="3" height="3" stroke="none"/>
            <rect x="0.5" y="0.5" width="2" height="2" fill="none"/>
          </g>
          <g id="Rectángulo_403483" data-name="Rectángulo 403483" transform="translate(199.026 72.077)" fill="#fff" stroke="#048fe5" stroke-width="1">
            <rect width="3" height="3" stroke="none"/>
            <rect x="0.5" y="0.5" width="2" height="2" fill="none"/>
          </g>
          <g id="Rectángulo_403484" data-name="Rectángulo 403484" transform="translate(205.026 118.077)" fill="#fff" stroke="#048fe5" stroke-width="1">
            <rect width="3" height="3" stroke="none"/>
            <rect x="0.5" y="0.5" width="2" height="2" fill="none"/>
          </g>
          <g id="Rectángulo_403485" data-name="Rectángulo 403485" transform="translate(240.026 105.077)" fill="#fff" stroke="#048fe5" stroke-width="1">
            <rect width="3" height="3" stroke="none"/>
            <rect x="0.5" y="0.5" width="2" height="2" fill="none"/>
          </g>
          <g id="Rectángulo_403486" data-name="Rectángulo 403486" transform="translate(251.026 121.077)" fill="#fff" stroke="#048fe5" stroke-width="1">
            <rect width="3" height="3" stroke="none"/>
            <rect x="0.5" y="0.5" width="2" height="2" fill="none"/>
          </g>
          <g id="Rectángulo_403487" data-name="Rectángulo 403487" transform="translate(206.026 125.077)" fill="#fff" stroke="#048fe5" stroke-width="1">
            <rect width="3" height="3" stroke="none"/>
            <rect x="0.5" y="0.5" width="2" height="2" fill="none"/>
          </g>
          <g id="Rectángulo_403488" data-name="Rectángulo 403488" transform="translate(28.026 122.077)" fill="#fff" stroke="#048fe5" stroke-width="1">
            <rect width="3" height="3" stroke="none"/>
            <rect x="0.5" y="0.5" width="2" height="2" fill="none"/>
          </g>
        </g>
      </g>
      <g id="Grupo_1101767" data-name="Grupo 1101767">
        <g id="Grupo_1101766" data-name="Grupo 1101766" transform="translate(233.224 2045.005)">
          <path id="Trazado_911336" data-name="Trazado 911336" d="M2.324,26.31l3.53,3.53L1.176,30.99Zm-.778-.446L0,32.165l6.3-1.546L14.52,22.4,9.766,17.645Z" transform="translate(0 -14.175)" fill="#323232"/>
          <g id="Grupo_1101240" data-name="Grupo 1101240" transform="translate(0 0)">
            <g id="Grupo_1101239" data-name="Grupo 1101239" transform="translate(0 0)" clip-path="url(#clip-path)">
              <path id="Trazado_911337" data-name="Trazado 911337" d="M60.529,3.681l-3.4-3.4a.957.957,0,0,0-1.353,0L53.3,2.754l2.377,2.377,2.377,2.377,2.474-2.474a.957.957,0,0,0,0-1.353" transform="translate(-42.819 0)" fill="#323232"/>
            </g>
          </g>
        </g>
        <path id="Trazado_911894" data-name="Trazado 911894" d="M2.172-5.2.383-5.789.8-7.117,2.68-6.5,2.7-8.445H4.07l.055,2.008,1.8-.609.414,1.336-1.82.617L5.594-3.516l-1.125.828L3.3-4.312,2.172-2.758l-1.133-.8Z" transform="translate(244.878 2065.683)" fill="#323232"/>
      </g>
    </g>
  </g>
</svg>
