<svg xmlns="http://www.w3.org/2000/svg" xmlns:xlink="http://www.w3.org/1999/xlink" width="399.949" height="247" viewBox="0 0 399.949 247">
  <defs>
    <clipPath id="clip-path">
      <path id="Trazado_911962" data-name="Trazado 911962" d="M10,0H389.949a10,10,0,0,1,10,10V237a10,10,0,0,1-10,10H10A10,10,0,0,1,0,237V10A10,10,0,0,1,10,0Z" transform="translate(180.051 1833)" fill="#9a9ef7"/>
    </clipPath>
    <clipPath id="clip-path-2">
      <rect id="Rect치ngulo_403493" data-name="Rect치ngulo 403493" width="348.43" height="342.917" fill="none"/>
    </clipPath>
  </defs>
  <g id="Grupo_1101803" data-name="Grupo 1101803" transform="translate(-180.051 -1833)">
    <path id="Trazado_911961" data-name="Trazado 911961" d="M10,0H389.949a10,10,0,0,1,10,10V237a10,10,0,0,1-10,10H10A10,10,0,0,1,0,237V10A10,10,0,0,1,10,0Z" transform="translate(180.051 1833)" fill="#e7a5ff"/>
    <g id="Grupo_1101798" data-name="Grupo 1101798" transform="translate(18.082 1203.992)">
      <g id="Grupo_1101457" data-name="Grupo 1101457" transform="translate(257.303 792.771)">
        <path id="Uni칩n_2" data-name="Uni칩n 2" d="M12.44,20.465a14.178,14.178,0,0,1-5.679-2.289,14.178,14.178,0,0,1-5.679,2.289.553.553,0,0,1-.128.01A.957.957,0,0,1,.83,18.569,11.844,11.844,0,0,0,5.281,16.86v-.905H5.274a1,1,0,0,1-1-1v-.119a1,1,0,0,1,1-1h.007V3.375A5.777,5.777,0,0,0,1.143,1.913c-.062,0-.124,0-.188,0A.956.956,0,0,1,.938,0c.068,0,.137,0,.2,0A7.584,7.584,0,0,1,6.762,2.161,7.58,7.58,0,0,1,12.381,0c.067,0,.135,0,.2,0a.956.956,0,0,1-.017,1.913c-.064,0-.123,0-.184,0A5.838,5.838,0,0,0,8.242,3.381V13.836H9.629a1,1,0,0,1,1,1v.119a1,1,0,0,1-1,1H8.242v.905a12.029,12.029,0,0,0,4.451,1.709.957.957,0,0,1-.125,1.906A.568.568,0,0,1,12.44,20.465Z" transform="translate(0 0)" fill="#020202" stroke="#fff" stroke-linecap="round" stroke-width="0.3"/>
      </g>
      <path id="Trazado_911960" data-name="Trazado 911960" d="M250.11,813.245s2.66-8.016,13.941-9.773,13.045-10,13.045-10" fill="none" stroke="#323232" stroke-width="1" stroke-dasharray="1"/>
    </g>
    <g id="Enmascarar_grupo_1098707" data-name="Enmascarar grupo 1098707" clip-path="url(#clip-path)">
      <g id="Grupo_1101802" data-name="Grupo 1101802" transform="translate(146.02 430)">
        <g id="Grupo_1101801" data-name="Grupo 1101801" transform="translate(64.051 1374)">
          <path id="Trazado_913184" data-name="Trazado 913184" d="M14.493-41.139a5.369,5.369,0,0,1-3.91-1.594,5.245,5.245,0,0,1-1.619-3.885A5.245,5.245,0,0,1,10.583-50.5a5.369,5.369,0,0,1,3.91-1.594A5.394,5.394,0,0,1,18.378-50.5a5.206,5.206,0,0,1,1.644,3.885,5.206,5.206,0,0,1-1.644,3.885A5.394,5.394,0,0,1,14.493-41.139Zm4.383,61.359H10.31l.946-51.3H17.93Z" transform="matrix(0.613, -0.79, 0.79, 0.613, 80.214, 191.022)" fill="#4c4e7b"/>
          <path id="Trazado_913183" data-name="Trazado 913183" d="M50.6,0H42.434V-29.385q0-15.937-11.854-15.937A12.923,12.923,0,0,0,20.52-40.715a17.168,17.168,0,0,0-4.084,11.829V0H8.268V-75.5h8.168v32.971h.2Q22.512-52.2,33.369-52.2,50.6-52.2,50.6-31.427Z" transform="translate(92.949 169.264) rotate(-31.367)" fill="#4c4e7b"/>
          <path id="Trazado_913182" data-name="Trazado 913182" d="M29.584,1.2Q18.278,1.2,11.53-5.952T4.781-24.9q0-12.85,7.022-20.071T30.779-52.2q11.405,0,17.805,7.022t6.4,19.474q0,12.2-6.9,19.548T29.584,1.2Zm.6-46.518q-7.869,0-12.451,5.354T13.148-25.2q0,9.064,4.632,14.294t12.4,5.229q7.919,0,12.177-5.13T46.617-25.4q0-9.562-4.258-14.742T30.182-45.322Z" transform="translate(134.34 142.491) rotate(-4.97)" fill="#4c4e7b"/>
          <path id="Trazado_913179" data-name="Trazado 913179" d="M16.274,0H8.187V-74.764h8.088Z" transform="matrix(0.966, 0.26, -0.26, 0.966, 182.501, 138.554)" fill="#4c4e7b"/>
          <path id="Trazado_913180" data-name="Trazado 913180" d="M44.774,0H36.606V-7.969h-.2Q31.078,1.2,20.719,1.2,13.1,1.2,8.791-2.839A13.977,13.977,0,0,1,4.482-13.547q0-14.294,16.834-16.635l15.29-2.142q0-13-10.509-13A25.107,25.107,0,0,0,9.463-39.047v-8.367A31.606,31.606,0,0,1,26.795-52.2q17.979,0,17.979,19.025ZM36.606-25.8,24.3-24.105q-5.678.8-8.566,2.814T12.85-14.145a7.784,7.784,0,0,0,2.665,6.1,10.3,10.3,0,0,0,7.1,2.366A13.11,13.11,0,0,0,32.647-9.936a15.214,15.214,0,0,0,3.959-10.783Z" transform="matrix(0.835, 0.55, -0.55, 0.835, 205.358, 143.052)" fill="#4c4e7b"/>
          <path id="Trazado_913181" data-name="Trazado 913181" d="M18.677-71.42l-.946,51.3H11.007l-.9-51.3ZM14.493.9A5.369,5.369,0,0,1,10.583-.7,5.245,5.245,0,0,1,8.965-4.582a5.327,5.327,0,0,1,1.619-3.91,5.327,5.327,0,0,1,3.91-1.619,5.352,5.352,0,0,1,3.885,1.619,5.287,5.287,0,0,1,1.644,3.91A5.206,5.206,0,0,1,18.378-.7,5.394,5.394,0,0,1,14.493.9Z" transform="matrix(0.607, 0.795, -0.795, 0.607, 241.631, 167.826)" fill="#4c4e7b"/>
          <g id="Grupo_1101800" data-name="Grupo 1101800" transform="translate(0 0)">
            <g id="Grupo_1101799" data-name="Grupo 1101799" clip-path="url(#clip-path-2)">
              <ellipse id="Elipse_11560" data-name="Elipse 11560" cx="100.889" cy="100.863" rx="100.889" ry="100.863" transform="translate(68.807 141.023)" fill="none" stroke="#4c4e7b" stroke-miterlimit="10" stroke-width="1"/>
            </g>
          </g>
        </g>
      </g>
    </g>
  </g>
</svg>
