<svg xmlns="http://www.w3.org/2000/svg" xmlns:xlink="http://www.w3.org/1999/xlink" width="295" height="274" viewBox="0 0 295 274">
  <defs>
    <clipPath id="clip-path">
      <rect id="Rectángulo_403504" data-name="Rectángulo 403504" width="295" height="274" rx="9" transform="translate(313.051 2938.5)" fill="#fff" stroke="#9a9ef7" stroke-width="1"/>
    </clipPath>
    <clipPath id="clip-path-2">
      <rect id="Rectángulo_403502" data-name="Rectángulo 403502" width="489.549" height="99.071" fill="none"/>
    </clipPath>
  </defs>
  <g id="Grupo_1101836" data-name="Grupo 1101836" transform="translate(-313.051 -2938.5)">
    <g id="Grupo_1101834" data-name="Grupo 1101834">
      <g id="Rectángulo_403250" data-name="Rectángulo 403250" transform="translate(313.051 2938.5)" fill="#fff6e5" stroke="#9a9ef7" stroke-width="1">
        <rect width="295" height="274" rx="9" stroke="none"/>
        <rect x="0.5" y="0.5" width="294" height="273" rx="8.5" fill="none"/>
      </g>
      <path id="Trazado_912003" data-name="Trazado 912003" d="M1490.8-8643.2s18.668,11.965,41.439,66.2,30.943,66.836,60.857,84.09,64.988,4.2,102.541,24.045a471.427,471.427,0,0,1,67.084,43.6" transform="translate(-1164.949 11608)" fill="none" stroke="#048fe5" stroke-width="0.3"/>
      <g id="Enmascarar_grupo_1098708" data-name="Enmascarar grupo 1098708" clip-path="url(#clip-path)">
        <g id="Grupo_1101833" data-name="Grupo 1101833" transform="translate(285.018 2872.336) rotate(43)">
          <path id="Trazado_911992" data-name="Trazado 911992" d="M320.985,122.187a3.308,3.308,0,0,1-1.091-.373,2.76,2.76,0,0,1-.889-.757,3.233,3.233,0,0,1-.536-1.086,3.326,3.326,0,0,1,.394-2.586,3.3,3.3,0,0,1,.853-.89,3.231,3.231,0,0,1,1.1-.5,3.08,3.08,0,0,1,1.22-.054,2.892,2.892,0,0,1,1.279.5,3.414,3.414,0,0,1,.868.9,3.1,3.1,0,0,1,.454,1.1,3.235,3.235,0,0,1,.036,1.121,2.912,2.912,0,0,1-.43,1.146,3.469,3.469,0,0,1-.822.9,3.037,3.037,0,0,1-1.117.531A3.284,3.284,0,0,1,320.985,122.187Zm6.361-.53a1.345,1.345,0,0,1-.6-.331.851.851,0,0,1-.053-.6l.242-1.589q.067-.436.272-.532a1.451,1.451,0,0,1,.558-.106l12.463.015q.607,0,.7.234a1.6,1.6,0,0,1,.056.678l-.835,5.484a.859.859,0,0,1-.16.422.439.439,0,0,1-.264.167.94.94,0,0,1-.3,0,1.156,1.156,0,0,1-.275-.074Z" transform="translate(-218.021 -79.373)"/>
          <path id="Trazado_911993" data-name="Trazado 911993" d="M422.272,127.152l-1.37,3.626,7.813,2.952a.919.919,0,0,1,.567.415.973.973,0,0,1-.071.678l-1.707,4.519a1.4,1.4,0,0,1-.382.61q-.216.17-.746-.031l-19.224-7.262a.754.754,0,0,1-.508-1.064l1.729-4.578a1.356,1.356,0,0,1,.359-.551q.227-.2.755,0l7.344,2.774,1.37-3.626-7.344-2.774a1.274,1.274,0,0,1-.543-.34q-.162-.2.028-.7l1.771-4.688a1.229,1.229,0,0,1,.372-.584q.205-.141.706.048l19.253,7.273q.5.19.576.437a1.061,1.061,0,0,1-.081.66l-1.771,4.688q-.2.531-.437.576a1.267,1.267,0,0,1-.649-.111Z" transform="translate(-278.438 -79.763)"/>
          <path id="Trazado_911994" data-name="Trazado 911994" d="M532.146,173.485a10.5,10.5,0,0,1,3.505,2.25,7.786,7.786,0,0,1,1.792,2.752,6.523,6.523,0,0,1,.371,2.923,8.61,8.61,0,0,1-.767,2.79,8.126,8.126,0,0,1-1.584,2.269,6.474,6.474,0,0,1-2.35,1.527,7.413,7.413,0,0,1-3.1.411,10.517,10.517,0,0,1-3.8-1.065,12.122,12.122,0,0,1-2.894-1.773,8.6,8.6,0,0,1-1.525-1.723,6.552,6.552,0,0,1-1.13-3.644,8.364,8.364,0,0,1,.792-3.44,7.357,7.357,0,0,1,1.928-2.594,6.778,6.778,0,0,1,2.581-1.35,7.941,7.941,0,0,1,2.984-.2,11.4,11.4,0,0,1,3.167.856Zm-2.8,5.684q-.485-.227-.991-.447t-1.189-.47q-.3-.1-.676-.229a3.318,3.318,0,0,0-.744-.157,1.847,1.847,0,0,0-.668.052.659.659,0,0,0-.435.371.63.63,0,0,0-.014.55,1.623,1.623,0,0,0,.373.505,4.53,4.53,0,0,0,.583.464q.33.225.6.386a8.565,8.565,0,0,0,.837.479l.9.456q.436.222.778.382l.485.227q.571.268,1.22.553a8.486,8.486,0,0,0,1.252.447,3.443,3.443,0,0,0,1.068.135.687.687,0,0,0,.638-.4.83.83,0,0,0-.042-.8,2.682,2.682,0,0,0-.789-.8,11.01,11.01,0,0,0-1.389-.824Q530.317,179.624,529.346,179.169Z" transform="translate(-356.567 -118.174)"/>
          <path id="Trazado_911995" data-name="Trazado 911995" d="M590.717,216.718q-.5-.191-.5-.46a1.7,1.7,0,0,1,.125-.593l1.574-4.122a1.156,1.156,0,0,1,.363-.553.718.718,0,0,1,.647.028l21.053,8.036q.5.191.56.433a1.157,1.157,0,0,1-.1.654l-1.562,4.093a1.143,1.143,0,0,1-.369.568.92.92,0,0,1-.712-.035Z" transform="translate(-404.198 -144.448)"/>
          <g id="Grupo_1101830" data-name="Grupo 1101830">
            <g id="Grupo_1101829" data-name="Grupo 1101829" clip-path="url(#clip-path-2)">
              <path id="Trazado_911996" data-name="Trazado 911996" d="M729.82,241.394q.532.071,1.04.187a1.8,1.8,0,0,1,.9.518q.081.106.334.474a4.011,4.011,0,0,1,.471,1.112,10.083,10.083,0,0,1,.323,1.871,12.6,12.6,0,0,1-.114,2.751,20.869,20.869,0,0,1-.45,2.293,7.731,7.731,0,0,1-.953,2.258,4.948,4.948,0,0,1-1.666,1.637,3.963,3.963,0,0,1-2.613.4,4.336,4.336,0,0,1-2.679-1.248,6.306,6.306,0,0,1-1.405-2.334,10.785,10.785,0,0,1-.54-2.743q-.1-1.427-.114-2.479l-1.687-.225q-.25-.034-.565-.06a2.068,2.068,0,0,0-.593.032,1.058,1.058,0,0,0-.495.252.887.887,0,0,0-.267.568.98.98,0,0,0,.258.925,4.009,4.009,0,0,0,.726.511q.386.211.724.414a2.233,2.233,0,0,1,.584.507,1.808,1.808,0,0,1,.348.73,3.027,3.027,0,0,1,.014,1.083,2.858,2.858,0,0,1-.375,1.142,2.392,2.392,0,0,1-.669.721,2.349,2.349,0,0,1-.828.366,2.385,2.385,0,0,1-.848.046,2.747,2.747,0,0,1-1.7-.943,5.284,5.284,0,0,1-1.106-2.072,8.509,8.509,0,0,1-.3-2.536q.044-1.282.219-2.594a10.6,10.6,0,0,1,.689-2.658,3.4,3.4,0,0,1,1.718-1.79,3.471,3.471,0,0,1,1.5-.372,10.314,10.314,0,0,1,1.371.088Zm-5,5.024a7.362,7.362,0,0,0,.217,1.11,1.792,1.792,0,0,0,.517.769,2.091,2.091,0,0,0,.523.372,4.871,4.871,0,0,0,.586.253,3.8,3.8,0,0,0,.536.151q.248.05.373.066a2.817,2.817,0,0,0,1.416-.129,1.018,1.018,0,0,0,.687-.862.943.943,0,0,0-.1-.65,1.048,1.048,0,0,0-.427-.375,2.28,2.28,0,0,0-.594-.191q-.326-.06-.607-.1Z" transform="translate(-490.045 -164.453)"/>
              <text id="_" data-name=" " transform="matrix(0.999, -0.048, 0.048, 0.999, 248.767, 89.85)" font-size="27" font-family="SegoeUI, Segoe UI"><tspan x="0" y="0"> </tspan></text>
              <path id="Trazado_911997" data-name="Trazado 911997" d="M856.092,228.579q-.443.165-.729.254t-.5.137a1.1,1.1,0,0,1-.771-.084,3.735,3.735,0,0,1-1.329-.952,10.59,10.59,0,0,1-1.215-1.549,16.9,16.9,0,0,1-.96-1.678q-.406-.824-.594-1.326a11.459,11.459,0,0,1-.566-1.975,7.937,7.937,0,0,1-.136-1.5,4.613,4.613,0,0,1,.142-1.112q.129-.468.255-.852a7.851,7.851,0,0,1-2.164-2.2,14.166,14.166,0,0,1-1.418-2.819,6.192,6.192,0,0,1-.258-4.225,5.22,5.22,0,0,1,3.327-2.9l9.956-3.7a1.3,1.3,0,0,1,.681-.068q.226.067.391.51l1.57,4.225q.187.5.029.712a1.1,1.1,0,0,1-.512.342l-9.779,3.634q-.295.11-.624.265a2.2,2.2,0,0,0-.566.379,1.124,1.124,0,0,0-.321.539,1.332,1.332,0,0,0,.092.79,1.164,1.164,0,0,0,.557.684,1.52,1.52,0,0,0,.54.186,2.2,2.2,0,0,0,.546-.069q.276-.069.868-.289l9.6-3.568a1.361,1.361,0,0,1,.646-.072q.221.052.408.554l1.526,4.107a1.193,1.193,0,0,1,.1.72q-.076.247-.549.423l-9.779,3.634q-.649.241-.9.37a1.27,1.27,0,0,0-.437.364,1.167,1.167,0,0,0-.225.571,1.306,1.306,0,0,0,.066.631,1.354,1.354,0,0,0,.336.5,1.586,1.586,0,0,0,.55.35,1.229,1.229,0,0,0,.719.035q.337-.091.927-.311l9.631-3.579a.7.7,0,0,1,1.135.52l1.548,4.166a.917.917,0,0,1,.066.631.8.8,0,0,1-.5.371Z" transform="translate(-579.08 -138.341)"/>
            </g>
          </g>
          <path id="Trazado_911998" data-name="Trazado 911998" d="M947.559,162.29a10.719,10.719,0,0,1,.909-.6,2.313,2.313,0,0,1,.86-.29,2.516,2.516,0,0,1,1.377.211,7.577,7.577,0,0,1,1.528.88,11,11,0,0,1,1.529,1.365,16.767,16.767,0,0,1,1.378,1.668,13.457,13.457,0,0,1,1.849,3.291,5.19,5.19,0,0,1,.326,2.446,3.642,3.642,0,0,1-.79,1.814,7.967,7.967,0,0,1-1.5,1.394l-8.742,6.306q-.383.277-.621.137a1.41,1.41,0,0,1-.421-.4l-2.6-3.6a1.49,1.49,0,0,1-.261-.55q-.058-.27.351-.564l8.435-6.084a4.635,4.635,0,0,0,.859-.775q.323-.388-.12-1-.406-.562-.875-.378a4.644,4.644,0,0,0-1.007.57l-8.358,6.029a2.42,2.42,0,0,1-.55.261q-.224.065-.538-.369l-2.692-3.732a1.307,1.307,0,0,1-.257-.572q-.036-.265.373-.56Z" transform="translate(-642.111 -110.516)"/>
          <path id="Trazado_911999" data-name="Trazado 911999" d="M1033.113,99.822q.445-.3.663-.2a1.354,1.354,0,0,1,.484.491l2.5,3.71a.688.688,0,0,1,.2.584,1.05,1.05,0,0,1-.46.5l-8.857,5.976q-.34.229-.644.454a1.964,1.964,0,0,0-.483.5,1.105,1.105,0,0,0-.189.565,1.077,1.077,0,0,0,.218.633,1.123,1.123,0,0,0,.575.486,1.239,1.239,0,0,0,.655.014,2.359,2.359,0,0,0,.707-.305q.362-.225.727-.472l8.753-5.9q.445-.3.668-.109a2.493,2.493,0,0,1,.436.5l2.468,3.658q.3.444.178.659a1.528,1.528,0,0,1-.487.461l-10.32,6.963a4.014,4.014,0,0,1-1.2.583,1.98,1.98,0,0,1-1.392-.315,6.694,6.694,0,0,1-1.369-.958,17.246,17.246,0,0,1-1.248-1.23q-.58-.635-1.06-1.262t-.8-1.1q-.229-.339-.445-.688t-.419-.706a17.553,17.553,0,0,1-.831-1.626,6.283,6.283,0,0,1-.49-1.628,4.123,4.123,0,0,1,.032-1.447,3.424,3.424,0,0,1,.4-1.034,2.635,2.635,0,0,1,.587-.681q.322-.255.531-.4Z" transform="translate(-699.627 -68.207)"/>
          <path id="Trazado_912000" data-name="Trazado 912000" d="M1102.531,59.536a8.2,8.2,0,0,1,1.431-.419,1.9,1.9,0,0,1,1.42.442,4.97,4.97,0,0,1,.635.57,10.66,10.66,0,0,1,.855,1.007q.463.608.945,1.38a12.226,12.226,0,0,1,.875,1.7,9.177,9.177,0,0,1,.826,3.6,6.233,6.233,0,0,1-.683,2.909,6.994,6.994,0,0,1-1.891,2.24,12.2,12.2,0,0,1-2.814,1.639,13.394,13.394,0,0,1-3.471.976,9.432,9.432,0,0,1-3.166-.078,6.359,6.359,0,0,1-2.57-1.135,5.19,5.19,0,0,1-1.672-2.167,4.449,4.449,0,0,1-.323-1.044,5.281,5.281,0,0,1-.046-.956l-6.326,2.683q-.523.221-.749.009a1.539,1.539,0,0,1-.362-.531l-1.661-3.917a1.383,1.383,0,0,1-.136-.644c.016-.178.169-.328.459-.451Zm-7.125,9.6a1.371,1.371,0,0,0,.1.472,1.106,1.106,0,0,0,.968.668,5.244,5.244,0,0,0,1.579-.071,10.613,10.613,0,0,0,1.688-.459q.831-.3,1.3-.5.552-.234,1.354-.643a11.424,11.424,0,0,0,1.5-.909,5.836,5.836,0,0,0,1.123-1.024.917.917,0,0,0,.244-.959.535.535,0,0,0-.626-.385,5.336,5.336,0,0,0-1.067.35Z" transform="translate(-742.11 -40.471)"/>
          <g id="Grupo_1101832" data-name="Grupo 1101832">
            <g id="Grupo_1101831" data-name="Grupo 1101831" clip-path="url(#clip-path-2)">
              <path id="Trazado_912001" data-name="Trazado 912001" d="M1211.945,37.311a10.505,10.505,0,0,1,4.162-.177,7.788,7.788,0,0,1,3.049,1.22,6.522,6.522,0,0,1,1.986,2.177,8.617,8.617,0,0,1,.979,2.723,8.135,8.135,0,0,1,.01,2.767,6.481,6.481,0,0,1-1.044,2.6,7.424,7.424,0,0,1-2.3,2.119,10.514,10.514,0,0,1-3.72,1.315,12.116,12.116,0,0,1-3.386.216,8.6,8.6,0,0,1-2.239-.532,6.552,6.552,0,0,1-3.022-2.329,8.363,8.363,0,0,1-1.331-3.269,7.347,7.347,0,0,1,.084-3.231,6.775,6.775,0,0,1,1.334-2.589,7.934,7.934,0,0,1,2.323-1.884,11.38,11.38,0,0,1,3.082-1.122Zm.981,6.26q-.528.093-1.068.205t-1.243.3q-.3.086-.685.2a3.342,3.342,0,0,0-.7.3,1.846,1.846,0,0,0-.516.427.658.658,0,0,0-.142.553.631.631,0,0,0,.305.458,1.621,1.621,0,0,0,.6.2,4.537,4.537,0,0,0,.744.044q.4-.007.715-.031a8.635,8.635,0,0,0,.96-.09l1-.145q.484-.069.856-.136l.528-.093q.621-.11,1.316-.249a8.539,8.539,0,0,0,1.281-.355,3.438,3.438,0,0,0,.951-.5.687.687,0,0,0,.294-.692.83.83,0,0,0-.5-.632,2.677,2.677,0,0,0-1.108-.2,11.034,11.034,0,0,0-1.61.125Q1213.982,43.384,1212.927,43.571Z" transform="translate(-825.187 -25.338)"/>
              <path id="Trazado_912002" data-name="Trazado 912002" d="M1298.649,40.837a1.1,1.1,0,0,1,.659.177.862.862,0,0,1,.179.557l.106,1.6q.029.441-.167.58a1.589,1.589,0,0,1-.537.225l-12.174,2.667q-.591.134-.731-.062a1.273,1.273,0,0,1-.168-.636l-.366-5.535a.853.853,0,0,1,.064-.462.554.554,0,0,1,.223-.22.587.587,0,0,1,.3-.067,2.762,2.762,0,0,0,.284,0Zm6.1-1.919a2.993,2.993,0,0,1,1.131.147,3.19,3.19,0,0,1,1.032.564,3.24,3.24,0,0,1,.946,3.554,3.29,3.29,0,0,1-.641,1.053,3.228,3.228,0,0,1-.963.727,3.082,3.082,0,0,1-1.18.315,2.983,2.983,0,0,1-1.372-.209,3.15,3.15,0,0,1-1.04-.69,3.5,3.5,0,0,1-.681-.981,2.959,2.959,0,0,1-.121-2.314,3.415,3.415,0,0,1,.609-1.067,3.013,3.013,0,0,1,.992-.761A3.422,3.422,0,0,1,1304.745,38.918Z" transform="translate(-880.31 -26.648)"/>
            </g>
          </g>
        </g>
      </g>
    </g>
    <g id="Grupo_1101835" data-name="Grupo 1101835" transform="translate(66.082 2161.992)">
      <g id="Grupo_1101457" data-name="Grupo 1101457" transform="translate(257.303 792.771)">
        <path id="Unión_2" data-name="Unión 2" d="M12.44,20.465a14.178,14.178,0,0,1-5.679-2.289,14.178,14.178,0,0,1-5.679,2.289.553.553,0,0,1-.128.01A.957.957,0,0,1,.83,18.569,11.844,11.844,0,0,0,5.281,16.86v-.905H5.274a1,1,0,0,1-1-1v-.119a1,1,0,0,1,1-1h.007V3.375A5.777,5.777,0,0,0,1.143,1.913c-.062,0-.124,0-.188,0A.956.956,0,0,1,.938,0c.068,0,.137,0,.2,0A7.584,7.584,0,0,1,6.762,2.161,7.58,7.58,0,0,1,12.381,0c.067,0,.135,0,.2,0a.956.956,0,0,1-.017,1.913c-.064,0-.123,0-.184,0A5.838,5.838,0,0,0,8.242,3.381V13.836H9.629a1,1,0,0,1,1,1v.119a1,1,0,0,1-1,1H8.242v.905a12.029,12.029,0,0,0,4.451,1.709.957.957,0,0,1-.125,1.906A.568.568,0,0,1,12.44,20.465Z" transform="translate(0 0)" fill="#020202" stroke="#fff" stroke-linecap="round" stroke-width="0.3"/>
      </g>
      <path id="Trazado_911960" data-name="Trazado 911960" d="M250.11,813.245s2.66-8.016,13.941-9.773,13.045-10,13.045-10" fill="none" stroke="#323232" stroke-width="1" stroke-dasharray="1"/>
    </g>
  </g>
</svg>
