<svg xmlns="http://www.w3.org/2000/svg" xmlns:xlink="http://www.w3.org/1999/xlink" width="67.5" height="67.5" viewBox="0 0 67.5 67.5">
  <defs>
    <clipPath id="clip-path">
      <rect id="Rect치ngulo_403384" data-name="Rect치ngulo 403384" width="49.385" height="38.181" fill="none"/>
    </clipPath>
    <clipPath id="clip-path-3">
      <rect id="Rect치ngulo_403382" data-name="Rect치ngulo 403382" width="49.263" height="29.143" fill="none"/>
    </clipPath>
  </defs>
  <g id="Grupo_1101635" data-name="Grupo 1101635" transform="translate(-190.051 -624)">
    <g id="Grupo_1101199" data-name="Grupo 1101199" transform="translate(190.051 624)">
      <path id="Trazado_911258" data-name="Trazado 911258" d="M33.75,0A33.75,33.75,0,1,1,0,33.75,33.75,33.75,0,0,1,33.75,0Z" transform="translate(0 0)" fill="#3c3c3c"/>
    </g>
    <g id="Grupo_1101621" data-name="Grupo 1101621" transform="translate(198.815 644.174)">
      <g id="Grupo_1101626" data-name="Grupo 1101626" clip-path="url(#clip-path)">
        <path id="Trazado_911820" data-name="Trazado 911820" d="M56.827,51.755l8.764-7.8,12.262.089L56.827,24.886Z" transform="translate(-28.468 -13.573)" fill="#b6b5b6"/>
        <path id="Trazado_911821" data-name="Trazado 911821" d="M43.9,25.385H33.073V11.014H51.414V21.125l-1.7,0V12.562H34.772V23.837H43.9Z" transform="translate(-16.568 -6.007)" fill="#b6b5b6"/>
        <g id="Grupo_1101625" data-name="Grupo 1101625" transform="translate(0 0)">
          <g id="Grupo_1101624" data-name="Grupo 1101624" clip-path="url(#clip-path)">
            <g id="Grupo_1101623" data-name="Grupo 1101623" transform="translate(0 0)" opacity="0.5">
              <g id="Grupo_1101622" data-name="Grupo 1101622">
                <g id="Grupo_1101621-2" data-name="Grupo 1101621" clip-path="url(#clip-path-3)">
                  <path id="Trazado_911822" data-name="Trazado 911822" d="M25.2,29.143H0V5.007H16.5V0H49.263V19.377H40.411V17.829h7.153V1.548H18.2V6.555H1.7V27.6H25.2Z" transform="translate(0 0)" fill="#b6b5b6"/>
                </g>
              </g>
            </g>
          </g>
        </g>
      </g>
    </g>
  </g>
</svg>
