<svg xmlns="http://www.w3.org/2000/svg" width="380" height="85" viewBox="0 0 380 85">
  <g id="Grupo_1100877" data-name="Grupo 1100877" transform="translate(-180 -724)">
    <g id="Grupo_1100871" data-name="Grupo 1100871" transform="translate(-7)">
      <rect id="Rectángulo_402860" data-name="Rectángulo 402860" width="85" height="85" rx="10" transform="translate(285 724)" fill="#9a9ef7"/>
      <g id="Icon" transform="translate(296 735)">
        <path id="Trazado_911230" data-name="Trazado 911230" d="M40.274,46.028l2.7-10.785a1,1,0,0,0-.122-.772l-10-16a1.039,1.039,0,0,0-1.7,0l-10,16a1,1,0,0,0-.122.772l2.7,10.785A2.992,2.992,0,0,0,24,52v7a1,1,0,0,0,1,1H39a1,1,0,0,0,1-1V52a2.992,2.992,0,0,0,.274-5.972ZM32,34a1,1,0,1,1-1,1,1,1,0,0,1,1-1ZM31,22.487v9.7a3,3,0,1,0,2,0v-9.7L40.927,35.17,38.219,46H25.781L23.073,35.17ZM38,58H26V52H38Zm2-8H24a1,1,0,0,1,0-2H40a1,1,0,0,1,0,2Z" fill="#fff"/>
        <path id="Trazado_911231" data-name="Trazado 911231" d="M59,29H57.962A24.034,24.034,0,0,0,43.591,8h5.593a3,3,0,1,0,0-2H35V5a1,1,0,0,0-1-1H30a1,1,0,0,0-1,1V6H14.816a3,3,0,1,0,0,2h5.606a24.037,24.037,0,0,0-14.4,21H5a1,1,0,0,0-1,1v4a1,1,0,0,0,1,1H9a1,1,0,0,0,1-1V30a1,1,0,0,0-1-1H8.025A22.026,22.026,0,0,1,29,8.025V9a1,1,0,0,0,1,1h4a1,1,0,0,0,1-1V8.025A22.026,22.026,0,0,1,55.975,29H55a1,1,0,0,0-1,1v4a1,1,0,0,0,1,1h4a1,1,0,0,0,1-1V30A1,1,0,0,0,59,29ZM52,6a1,1,0,1,1-1,1A1,1,0,0,1,52,6ZM8,33H6V31H8ZM12,8a1,1,0,1,1,1-1,1,1,0,0,1-1,1ZM33,8H31V6h2ZM58,33H56V31h2Z" fill="#fff"/>
      </g>
    </g>
    <g id="Grupo_1100872" data-name="Grupo 1100872" transform="translate(-13)">
      <rect id="Rectángulo_402862" data-name="Rectángulo 402862" width="85" height="85" rx="10" transform="translate(390 724)" fill="#9a9ef7"/>
      <g id="Icon-2" data-name="Icon" transform="translate(401 735)">
        <path id="Trazado_911232" data-name="Trazado 911232" d="M32,4A28,28,0,1,0,60,32,28,28,0,0,0,32,4ZM51.067,49.653l-9.912-9.912A11.938,11.938,0,0,0,43.949,33H57.975a25.9,25.9,0,0,1-6.908,16.652ZM39.741,22.845A11.938,11.938,0,0,0,33,20.051V6.025a25.9,25.9,0,0,1,16.653,6.908ZM31,20.051a11.938,11.938,0,0,0-6.741,2.795l-9.912-9.912A25.9,25.9,0,0,1,31,6.025ZM32,22A10,10,0,1,1,22,32,10,10,0,0,1,32,22ZM24.259,41.155A11.938,11.938,0,0,0,31,43.949V57.975a25.9,25.9,0,0,1-16.652-6.908ZM33,43.949a11.938,11.938,0,0,0,6.741-2.794l9.912,9.912A25.9,25.9,0,0,1,33,57.975ZM57.975,31H43.949a11.938,11.938,0,0,0-2.794-6.741l9.912-9.912A25.9,25.9,0,0,1,57.975,31ZM12.934,14.347l9.912,9.912A11.938,11.938,0,0,0,20.051,31H6.025a25.9,25.9,0,0,1,6.908-16.653ZM6.025,33H20.051a11.938,11.938,0,0,0,2.795,6.741l-9.912,9.912A25.9,25.9,0,0,1,6.025,33Z" fill="#fff"/>
      </g>
    </g>
    <g id="Grupo_1100875" data-name="Grupo 1100875">
      <rect id="Rectángulo_402859" data-name="Rectángulo 402859" width="85" height="85" rx="10" transform="translate(180 724)" fill="#9a9ef7"/>
      <path id="Trazado_911230-2" data-name="Trazado 911230" d="M61.707,47.359,44.727,30.379l16.205-16.2a3.651,3.651,0,0,0,0-5.156l-5.95-5.95a3.651,3.651,0,0,0-5.156,0L33.621,19.273,16.641,2.293a1,1,0,0,0-1.414,0L2.293,15.227a1,1,0,0,0,0,1.414l16.98,16.98-7.8,7.8a.992.992,0,0,0-.192.27L2.1,60.563a1,1,0,0,0,1.317,1.346l17.94-8.249a.987.987,0,0,0,.289-.2l8.732-8.731,16.98,16.98a1,1,0,0,0,1.414,0L61.707,48.774a1,1,0,0,0,0-1.414ZM22.013,50.265l.2-2.165a1,1,0,0,0-1.087-1.086l-3.009.274L44.574,20.826l3.439,3.439-26,26Zm-8.191,4.659L9.279,50.381l3.051-6.27,2.542-.232-.416,4.564a1,1,0,0,0,1.087,1.087l4.565-.416-.275,3.045-6.012,2.764ZM39.735,15.987l3.425,3.425L16.7,45.874l.274-3.009a1,1,0,0,0-.289-.8.99.99,0,0,0-.8-.289l-2.135.195Zm9.692,6.863-8.277-8.277,3.837-3.837,8.277,8.277ZM51.24,4.481a1.65,1.65,0,0,1,2.328,0l5.95,5.95a1.65,1.65,0,0,1,0,2.328l-4.84,4.84L46.4,9.322l4.84-4.84ZM15.934,4.414l5.579,5.579L18.2,13.3a1,1,0,1,0,1.414,1.414l3.309-3.309,6.356,6.356-3.308,3.308a1,1,0,1,0,1.414,1.414L30.7,19.177l1.51,1.51-7.088,7.088L8.845,11.5l7.088-7.088ZM4.414,15.934l3.017-3.017L23.7,29.19l-3.017,3.017Zm3.94,36.35,3.531,3.531-6.763,3.11,3.232-6.641Zm39.713,7.3L31.793,43.313,34.81,40.3,51.084,56.569l-3.017,3.017ZM52.5,55.155,36.224,38.881l7.089-7.089,1.51,1.51-3.309,3.309a1,1,0,1,0,1.414,1.414l3.308-3.308,6.356,6.356-3.309,3.309A1,1,0,1,0,50.7,45.8l3.309-3.309,5.579,5.579L52.5,55.155Z" transform="translate(191 735)" fill="#fff"/>
    </g>
    <g id="Grupo_1100876" data-name="Grupo 1100876" transform="translate(-230)">
      <rect id="Rectángulo_402863" data-name="Rectángulo 402863" width="85" height="85" rx="10" transform="translate(705 724)" fill="#9a9ef7"/>
      <g id="Icon-3" data-name="Icon" transform="translate(716 735)">
        <path id="Trazado_911239" data-name="Trazado 911239" d="M55,31a1,1,0,0,0-.437-.826L47.709,25.5l6.855-4.674a1,1,0,0,0,0-1.652l-22-15a1,1,0,0,0-1.127,0l-22,15a1,1,0,0,0,0,1.652L16.291,25.5,9.436,30.174a1,1,0,0,0,0,1.652L17.758,37.5,9.436,43.174a1,1,0,0,0,0,1.652l22,15a1,1,0,0,0,1.127,0l22-15a1,1,0,0,0,0-1.652L46.242,37.5l8.322-5.674A1,1,0,0,0,55,31ZM32,6.21,52.225,20,32,33.789,11.775,20ZM52.225,44,32,57.789,11.775,44l7.758-5.29,11.9,8.116a1,1,0,0,0,1.127,0l11.9-8.116ZM32,44.789,20.076,36.66h0L11.775,31l6.292-4.29,13.37,9.116a1,1,0,0,0,1.127,0l13.37-9.116L52.225,31Z" fill="#fff"/>
      </g>
    </g>
  </g>
</svg>
