<svg xmlns="http://www.w3.org/2000/svg" width="400.34" height="224" viewBox="0 0 400.34 224">
  <g id="Grupo_1102222" data-name="Grupo 1102222" transform="translate(-1020 -2695)">
    <path id="Trazado_911339" data-name="Trazado 911339" d="M10,0H390.34a10,10,0,0,1,10,10V214a10,10,0,0,1-10,10H10A10,10,0,0,1,0,214V10A10,10,0,0,1,10,0Z" transform="translate(1020 2695)" fill="#9b422a"/>
    <g id="Grupo_1101158" data-name="Grupo 1101158" transform="translate(1070.797 2769.783)">
      <g id="Grupo_1101157" data-name="Grupo 1101157" transform="translate(0 0)">
        <g id="Grupo_1101155" data-name="Grupo 1101155">
          <g id="Rectángulo_402967" data-name="Rectángulo 402967" transform="translate(1.255 0.49)" fill="#03000d" stroke="#048fe5" stroke-width="2">
            <rect width="64" height="64" stroke="none"/>
            <rect x="1" y="1" width="62" height="62" fill="none"/>
          </g>
          <g id="Rectángulo_402974" data-name="Rectángulo 402974" transform="translate(62.255 0.49)" fill="#03000d" stroke="#048fe5" stroke-width="1">
            <rect width="3" height="2" stroke="none"/>
            <rect x="0.5" y="0.5" width="2" height="1" fill="none"/>
          </g>
          <g id="Rectángulo_402977" data-name="Rectángulo 402977" transform="translate(62.255 62.49)" fill="#03000d" stroke="#048fe5" stroke-width="1">
            <rect width="3" height="3" stroke="none"/>
            <rect x="0.5" y="0.5" width="2" height="2" fill="none"/>
          </g>
          <g id="Rectángulo_402975" data-name="Rectángulo 402975" transform="translate(0.255 0.49)" fill="#03000d" stroke="#048fe5" stroke-width="1">
            <rect width="2" height="2" stroke="none"/>
            <rect x="0.5" y="0.5" width="1" height="1" fill="none"/>
          </g>
          <g id="Rectángulo_402976" data-name="Rectángulo 402976" transform="translate(0.255 62.49)" fill="#03000d" stroke="#048fe5" stroke-width="1">
            <rect width="2" height="3" stroke="none"/>
            <rect x="0.5" y="0.5" width="1" height="2" fill="none"/>
          </g>
          <ellipse id="Elipse_11526" data-name="Elipse 11526" cx="1" cy="1.5" rx="1" ry="1.5" transform="translate(32.255 30.49)" fill="#03000d"/>
        </g>
        <g id="Grupo_1101156" data-name="Grupo 1101156" transform="translate(171.197)">
          <g id="Rectángulo_402967-2" data-name="Rectángulo 402967" transform="translate(1.057 0.49)" fill="#03000d" stroke="#048fe5" stroke-width="2">
            <rect width="64" height="64" stroke="none"/>
            <rect x="1" y="1" width="62" height="62" fill="none"/>
          </g>
          <g id="Rectángulo_402974-2" data-name="Rectángulo 402974" transform="translate(63.057 0.49)" fill="#03000d" stroke="#048fe5" stroke-width="1">
            <rect width="2" height="2" stroke="none"/>
            <rect x="0.5" y="0.5" width="1" height="1" fill="none"/>
          </g>
          <g id="Rectángulo_402977-2" data-name="Rectángulo 402977" transform="translate(63.057 62.49)" fill="#03000d" stroke="#048fe5" stroke-width="1">
            <rect width="2" height="3" stroke="none"/>
            <rect x="0.5" y="0.5" width="1" height="2" fill="none"/>
          </g>
          <g id="Rectángulo_402975-2" data-name="Rectángulo 402975" transform="translate(0.057 0.49)" fill="#03000d" stroke="#048fe5" stroke-width="1">
            <rect width="2" height="2" stroke="none"/>
            <rect x="0.5" y="0.5" width="1" height="1" fill="none"/>
          </g>
          <g id="Rectángulo_402976-2" data-name="Rectángulo 402976" transform="translate(0.057 62.49)" fill="#03000d" stroke="#048fe5" stroke-width="1">
            <rect width="2" height="3" stroke="none"/>
            <rect x="0.5" y="0.5" width="1" height="2" fill="none"/>
          </g>
          <ellipse id="Elipse_11526-2" data-name="Elipse 11526" cx="1" cy="1.5" rx="1" ry="1.5" transform="translate(32.057 30.49)" fill="#03000d"/>
        </g>
        <circle id="Elipse_11529" data-name="Elipse 11529" cx="32.5" cy="32.5" r="32.5" transform="translate(86.255 0.49)" fill="#fff0ec"/>
        <circle id="Elipse_11530" data-name="Elipse 11530" cx="32.5" cy="32.5" r="32.5" transform="translate(257.255 0.49)" fill="#fff0ec"/>
      </g>
    </g>
  </g>
</svg>
