<svg xmlns="http://www.w3.org/2000/svg" width="50" height="50" viewBox="0 0 50 50">
  <g id="Grupo_1102227" data-name="Grupo 1102227" transform="translate(-180.051 -614)">
    <g id="Grupo_1102226" data-name="Grupo 1102226">
      <g id="Grupo_1102224" data-name="Grupo 1102224">
        <g id="Grupo_1102220" data-name="Grupo 1102220" transform="translate(0.026)">
          <rect id="Rectángulo_402998" data-name="Rectángulo 402998" width="50" height="50" transform="translate(180.024 614)" fill="#ffc7b8"/>
        </g>
      </g>
    </g>
    <g id="Grupo_1101482" data-name="Grupo 1101482" transform="translate(-3 -621)">
      <g id="Grupo_1101472" data-name="Grupo 1101472" transform="translate(190.051 1242)">
        <g id="Grupo_1101199" data-name="Grupo 1101199">
          <path id="Trazado_911258" data-name="Trazado 911258" d="M18,0A18,18,0,1,1,0,18,18,18,0,0,1,18,0Z" transform="translate(0 0)" fill="#3c3c3c"/>
        </g>
      </g>
      <g id="Grupo_1101483" data-name="Grupo 1101483" transform="translate(198.608 1252.536)">
        <path id="Trazado_911778" data-name="Trazado 911778" d="M31.547,0V4.4h1.967V2.309h3.649V12.918H35.219v2.309h5.855V12.918H39.131V2.309H42.78V4.4h1.967V0Z" transform="translate(-25.479 0)" fill="#b6b5b6"/>
        <path id="Trazado_911779" data-name="Trazado 911779" d="M2.139,0V11.994H0L2.467,14.46l2.467-2.466H2.795V0Z" transform="translate(0 0)" fill="#b6b5b6"/>
      </g>
    </g>
  </g>
</svg>
