<svg xmlns="http://www.w3.org/2000/svg" width="74" height="74" viewBox="0 0 74 74">
  <g id="Grupo_1101541" data-name="Grupo 1101541" transform="translate(-606.051 -2153)">
    <g id="Elipse_11514" data-name="Elipse 11514" transform="translate(617.051 2164)" fill="#ffd69b" stroke="#ffeacc" stroke-width="11">
      <circle cx="26" cy="26" r="26" stroke="none"/>
      <circle cx="26" cy="26" r="31.5" fill="none"/>
    </g>
    <g id="Grupo_1101589" data-name="Grupo 1101589" transform="translate(626.82 2177)">
      <rect id="Rectángulo_403337" data-name="Rectángulo 403337" width="1.663" height="23.281" transform="translate(29.447 1.359)" fill="#e4e4e3"/>
      <rect id="Rectángulo_403338" data-name="Rectángulo 403338" width="1.663" height="23.281" transform="translate(28.043 1.359)" fill="#d1d1d0"/>
      <rect id="Rectángulo_403339" data-name="Rectángulo 403339" width="1.663" height="23.281" transform="translate(26.639 1.359)" fill="#c3c2c1"/>
      <rect id="Rectángulo_403340" data-name="Rectángulo 403340" width="1.663" height="23.281" transform="translate(25.235 1.359)" fill="#b5b3b3"/>
      <rect id="Rectángulo_403341" data-name="Rectángulo 403341" width="1.663" height="23.281" transform="translate(23.831 1.359)" fill="#a7a5a5"/>
      <rect id="Rectángulo_403342" data-name="Rectángulo 403342" width="1.663" height="23.281" transform="translate(22.426 1.359)" fill="#9a9898"/>
      <rect id="Rectángulo_403343" data-name="Rectángulo 403343" width="1.663" height="23.281" transform="translate(21.022 1.359)" fill="#8e8c8c"/>
      <rect id="Rectángulo_403344" data-name="Rectángulo 403344" width="1.663" height="23.281" transform="translate(19.618 1.359)" fill="#82807f"/>
      <rect id="Rectángulo_403345" data-name="Rectángulo 403345" width="1.663" height="23.281" transform="translate(18.214 1.359)" fill="#767474"/>
      <rect id="Rectángulo_403346" data-name="Rectángulo 403346" width="1.663" height="23.281" transform="translate(16.81 1.359)" fill="#6c6969"/>
      <rect id="Rectángulo_403347" data-name="Rectángulo 403347" width="1.663" height="23.281" transform="translate(15.406 1.359)" fill="#615f5f"/>
      <rect id="Rectángulo_403348" data-name="Rectángulo 403348" width="1.663" height="23.281" transform="translate(14.002 1.359)" fill="#585555"/>
      <rect id="Rectángulo_403349" data-name="Rectángulo 403349" width="1.663" height="23.281" transform="translate(12.598 1.359)" fill="#4e4c4c"/>
      <rect id="Rectángulo_403350" data-name="Rectángulo 403350" width="1.663" height="23.281" transform="translate(11.194 1.359)" fill="#454443"/>
      <rect id="Rectángulo_403351" data-name="Rectángulo 403351" width="1.663" height="23.281" transform="translate(9.789 1.359)" fill="#3d3b3b"/>
      <rect id="Rectángulo_403352" data-name="Rectángulo 403352" width="1.663" height="23.281" transform="translate(8.386 1.359)" fill="#343333"/>
      <rect id="Rectángulo_403353" data-name="Rectángulo 403353" width="1.663" height="23.281" transform="translate(6.981 1.359)" fill="#2c2b2b"/>
      <rect id="Rectángulo_403354" data-name="Rectángulo 403354" width="1.663" height="23.281" transform="translate(5.577 1.359)" fill="#232222"/>
      <rect id="Rectángulo_403355" data-name="Rectángulo 403355" width="1.663" height="23.281" transform="translate(4.173 1.359)" fill="#191919"/>
      <rect id="Rectángulo_403356" data-name="Rectángulo 403356" width="1.663" height="23.281" transform="translate(2.769 1.359)" fill="#0e0e0e"/>
      <rect id="Rectángulo_403357" data-name="Rectángulo 403357" width="1.663" height="23.281" transform="translate(1.365 1.359)"/>
      <path id="Trazado_911812" data-name="Trazado 911812" d="M1.365,1.366H31.1V24.635H1.365ZM0,26H32.462V0H0Z" fill="#b6b5b6"/>
    </g>
  </g>
</svg>
