<svg xmlns="http://www.w3.org/2000/svg" width="190" height="247" viewBox="0 0 190 247">
  <g id="Grupo_1101808" data-name="Grupo 1101808" transform="translate(-1230.051 -1833)">
    <path id="Trazado_911989" data-name="Trazado 911989" d="M10,0H180a10,10,0,0,1,10,10V237a10,10,0,0,1-10,10H10A10,10,0,0,1,0,237V10A10,10,0,0,1,10,0Z" transform="translate(1230.051 1833)" fill="#eafdfd"/>
    <g id="texto_1_" data-name="texto (1)" transform="translate(1247.773 1879)">
      <g id="Grupo_1101806" data-name="Grupo 1101806" transform="translate(2.535 2.256)">
        <g id="Grupo_1101804" data-name="Grupo 1101804">
          <path id="Trazado_911963" data-name="Trazado 911963" d="M24.668,30.678h-10.6a6.289,6.289,0,0,1-6.289-6.289v-10.6A6.288,6.288,0,0,1,14.068,7.5h10.6a6.289,6.289,0,0,1,6.289,6.289v10.6A6.289,6.289,0,0,1,24.668,30.678Z" transform="translate(-7.779 -7.5)" fill="#ff6e80"/>
          <path id="Trazado_911964" data-name="Trazado 911964" d="M25.632,450.641h-10.6a6.289,6.289,0,0,1-6.289-6.289v-10.6a6.289,6.289,0,0,1,6.289-6.289h10.6a6.289,6.289,0,0,1,6.289,6.289v10.6A6.289,6.289,0,0,1,25.632,450.641Z" transform="translate(-8.453 -301.11)" fill="#ff6e80"/>
          <path id="Trazado_911965" data-name="Trazado 911965" d="M443.829,449.677h-10.6a6.289,6.289,0,0,1-6.289-6.289v-10.6a6.289,6.289,0,0,1,6.289-6.289h10.6a6.289,6.289,0,0,1,6.289,6.289v10.6A6.289,6.289,0,0,1,443.829,449.677Z" transform="translate(-300.829 -300.436)" fill="#ff6e80"/>
          <path id="Trazado_911966" data-name="Trazado 911966" d="M444.073,30.678h-10.6a6.289,6.289,0,0,1-6.289-6.289v-10.6A6.289,6.289,0,0,1,433.473,7.5h10.6a6.289,6.289,0,0,1,6.289,6.289v10.6A6.288,6.288,0,0,1,444.073,30.678Z" transform="translate(-300.999 -7.5)" fill="#ff6e80"/>
        </g>
        <g id="Grupo_1101805" data-name="Grupo 1101805" transform="translate(37.073 26.249)">
          <path id="Trazado_911967" data-name="Trazado 911967" d="M192.422,94.746H144.795A13.8,13.8,0,0,0,131,108.541v2.5a13.8,13.8,0,0,0,13.795,13.8h8.746c-.045.451-.068.907-.068,1.37v51.78a13.8,13.8,0,0,0,13.8,13.8h2.5a13.8,13.8,0,0,0,13.8-13.8V126.2c0-.462-.024-.919-.068-1.37h8.93a13.8,13.8,0,0,0,13.795-13.8v-2.5A13.8,13.8,0,0,0,192.422,94.746Z" transform="translate(-131 -94.746)" fill="#73da8c"/>
          <path id="Trazado_911968" data-name="Trazado 911968" d="M165.028,158.639V119.553a35.418,35.418,0,0,1,10.095-24.807H144.795A13.8,13.8,0,0,0,131,108.541v2.5a13.8,13.8,0,0,0,13.795,13.8h8.746c-.045.451-.068.907-.068,1.37v51.78a13.8,13.8,0,0,0,13.8,13.8h2.5a13.752,13.752,0,0,0,10.015-4.314,35.487,35.487,0,0,1-14.752-28.824Z" transform="translate(-131 -94.746)" fill="#00c755"/>
        </g>
      </g>
      <g id="Grupo_1101807" data-name="Grupo 1101807" transform="translate(0.278)">
        <path id="Trazado_911969" data-name="Trazado 911969" d="M187.178,87.246H139.552A16.052,16.052,0,0,0,123.5,103.3v2.5a16.051,16.051,0,0,0,16.051,16.051h6.422v50.893a16.052,16.052,0,0,0,16.052,16.052h2.5a16.051,16.051,0,0,0,16.052-16.052V160.07a2.257,2.257,0,0,0-4.513,0v12.669a11.539,11.539,0,0,1-11.539,11.539h-2.5a11.539,11.539,0,0,1-11.539-11.539v-51.78c0-.364.018-.737.054-1.109a2.309,2.309,0,0,0-.074-.9,2.265,2.265,0,0,0-2.168-1.619h-8.746a11.538,11.538,0,0,1-11.539-11.539v-2.5a11.539,11.539,0,0,1,11.539-11.539h47.626A11.538,11.538,0,0,1,198.717,103.3v2.5a11.539,11.539,0,0,1-11.539,11.539H178.31a2.357,2.357,0,0,0-1.124.264A2.261,2.261,0,0,0,176,119.81c.038.386.057.773.057,1.149v29.434a2.256,2.256,0,1,0,4.513,0V121.846h6.6a16.051,16.051,0,0,0,16.051-16.051v-2.5a16.051,16.051,0,0,0-16.051-16.052Z" transform="translate(-86.427 -60.997)"/>
        <path id="Trazado_911970" data-name="Trazado 911970" d="M8.824,27.691h3.044V36.7a2.256,2.256,0,1,0,4.513,0V27.691h3.043a8.555,8.555,0,0,0,8.545-8.545V13.367h9.821a2.256,2.256,0,1,0,0-4.513H27.969V8.546A8.555,8.555,0,0,0,19.424,0H8.824A8.555,8.555,0,0,0,.278,8.545v10.6a8.555,8.555,0,0,0,8.545,8.545ZM4.791,8.545A4.037,4.037,0,0,1,8.823,4.513h10.6a4.037,4.037,0,0,1,4.032,4.032v10.6a4.037,4.037,0,0,1-4.032,4.032H8.824a4.037,4.037,0,0,1-4.032-4.032V8.545Z" transform="translate(-0.278 0)"/>
        <path id="Trazado_911971" data-name="Trazado 911971" d="M410.69,389.335h-2.971V378.826a2.257,2.257,0,1,0-4.513,0v10.509H400.09a8.555,8.555,0,0,0-8.545,8.545v4.278H381.8a2.257,2.257,0,1,0,0,4.513h9.748v1.809a8.555,8.555,0,0,0,8.545,8.545h10.6a8.555,8.555,0,0,0,8.545-8.545v-10.6A8.555,8.555,0,0,0,410.69,389.335Zm4.033,19.146a4.037,4.037,0,0,1-4.032,4.032h-10.6a4.037,4.037,0,0,1-4.032-4.032v-10.6a4.037,4.037,0,0,1,4.032-4.032h10.6a4.037,4.037,0,0,1,4.032,4.032Z" transform="translate(-265.433 -263.273)"/>
        <path id="Trazado_911972" data-name="Trazado 911972" d="M410.764,0h-10.6a8.555,8.555,0,0,0-8.545,8.545v.309H381.8a2.256,2.256,0,0,0,0,4.513h9.821v5.778a8.555,8.555,0,0,0,8.545,8.545h3.043V36.7a2.257,2.257,0,0,0,4.513,0V27.691h3.044a8.555,8.555,0,0,0,8.545-8.545V8.545A8.555,8.555,0,0,0,410.764,0ZM414.8,19.146a4.037,4.037,0,0,1-4.032,4.032h-10.6a4.037,4.037,0,0,1-4.032-4.032V8.545a4.037,4.037,0,0,1,4.032-4.032h10.6A4.037,4.037,0,0,1,414.8,8.545Z" transform="translate(-265.433)"/>
        <path id="Trazado_911973" data-name="Trazado 911973" d="M188.307,128.74A2.256,2.256,0,0,0,186.051,131v3.61a2.256,2.256,0,1,0,4.513,0V131A2.257,2.257,0,0,0,188.307,128.74Z" transform="translate(-130.158 -90.007)"/>
        <path id="Trazado_911974" data-name="Trazado 911974" d="M313.206,128.74A2.256,2.256,0,0,0,310.949,131v3.61a2.256,2.256,0,1,0,4.513,0V131A2.257,2.257,0,0,0,313.206,128.74Z" transform="translate(-217.479 -90.007)"/>
        <path id="Trazado_911975" data-name="Trazado 911975" d="M245.682,140.939a2.257,2.257,0,0,0-3.184.219,4.308,4.308,0,0,1-6.5,0,2.257,2.257,0,1,0-3.4,2.965,8.822,8.822,0,0,0,13.31,0A2.257,2.257,0,0,0,245.682,140.939Z" transform="translate(-162.307 -98.147)"/>
        <path id="Trazado_911976" data-name="Trazado 911976" d="M460.46,235.75a2.256,2.256,0,0,0,2.256-2.257V207.961a2.257,2.257,0,0,0-4.513,0v25.533A2.256,2.256,0,0,0,460.46,235.75Z" transform="translate(-320.429 -143.815)"/>
        <path id="Trazado_911977" data-name="Trazado 911977" d="M41.053,205.7a2.256,2.256,0,0,0-2.256,2.257v25.533a2.256,2.256,0,1,0,4.513,0V207.961A2.257,2.257,0,0,0,41.053,205.7Z" transform="translate(-27.208 -143.815)"/>
        <path id="Trazado_911978" data-name="Trazado 911978" d="M236.47,461.62H210.937a2.257,2.257,0,0,0,0,4.513H236.47a2.257,2.257,0,1,0,0-4.513Z" transform="translate(-145.979 -322.734)"/>
        <path id="Trazado_911979" data-name="Trazado 911979" d="M38.465,402.159H28.934v-3.988a8.555,8.555,0,0,0-8.545-8.545H17.056v-10.8a2.256,2.256,0,1,0-4.513,0v10.8H9.788a8.555,8.555,0,0,0-8.545,8.545v10.6a8.555,8.555,0,0,0,8.545,8.546h10.6a8.555,8.555,0,0,0,8.545-8.545v-2.1h9.531a2.257,2.257,0,0,0,0-4.513Zm-14.044,6.612a4.037,4.037,0,0,1-4.032,4.032H9.788a4.037,4.037,0,0,1-4.032-4.032v-10.6a4.037,4.037,0,0,1,4.032-4.032h10.6a4.037,4.037,0,0,1,4.032,4.032v10.6Z" transform="translate(-0.953 -263.273)"/>
        <path id="Trazado_911980" data-name="Trazado 911980" d="M210.936,33.942h25.533a2.256,2.256,0,1,0,0-4.513H210.936a2.256,2.256,0,1,0,0,4.513Z" transform="translate(-145.979 -20.575)"/>
      </g>
    </g>
  </g>
</svg>
