<svg xmlns="http://www.w3.org/2000/svg" xmlns:xlink="http://www.w3.org/1999/xlink" width="68" height="68" viewBox="0 0 68 68">
  <defs>
    <clipPath id="clip-path">
      <rect id="Rectángulo_403041" data-name="Rectángulo 403041" width="44.862" height="34.495" fill="none"/>
    </clipPath>
  </defs>
  <g id="Grupo_1101259" data-name="Grupo 1101259" transform="translate(1000 9328)">
    <circle id="Elipse_11537" data-name="Elipse 11537" cx="34" cy="34" r="34" transform="translate(-1000 -9328)" fill="#3c3c3c"/>
    <g id="Grupo_1101258" data-name="Grupo 1101258" transform="translate(-988 -9311)">
      <g id="Grupo_1101257" data-name="Grupo 1101257" transform="translate(0 0)" clip-path="url(#clip-path)">
        <path id="Trazado_911348" data-name="Trazado 911348" d="M66.975,17.7a12.369,12.369,0,0,1,4.105,2.472,9.9,9.9,0,0,1,2.151,3.784L83.12,13.167V2.912Z" transform="translate(-38.258 -1.663)" fill="#b6b5b6"/>
        <path id="Trazado_911349" data-name="Trazado 911349" d="M48.225,42.267a6.671,6.671,0,0,0-5.427-.03,7.269,7.269,0,0,0-4.493,6.57,4.354,4.354,0,0,1-.858,2.564A35.216,35.216,0,0,1,34.4,54.89a.366.366,0,0,0,.2.618c2.314.385,5.231,1.2,7.414,1.051,1-.068,5.79.192,8.533-2.552a7.212,7.212,0,0,0-2.326-11.739" transform="translate(-19.591 -23.806)" fill="#b6b5b6"/>
        <path id="Trazado_911350" data-name="Trazado 911350" d="M16.853,20.6a.924.924,0,0,0,1.538-1.024c-.808-1.274-1.634-2.529-2.489-3.763Q17.633,12.67,19.125,9.4A39.562,39.562,0,0,0,22.072.229.2.2,0,0,0,21.687.15a31.263,31.263,0,0,1-1.523,4.485,61.83,61.83,0,0,1-5.3,9.707q-.811-1.123-1.661-2.223A97.755,97.755,0,0,0,2.792,1.057,1.67,1.67,0,1,0,.637,3.6C1.38,4.2,2.144,4.841,2.886,5.478a97.8,97.8,0,0,1,7.481,7.1c1.108,1.194,2.17,2.438,3.2,3.711q-.23.336-.461.671A139.932,139.932,0,0,1,1.2,31.669a1.67,1.67,0,1,0,2.508,2.2A142.044,142.044,0,0,0,14.766,17.809q1.066,1.38,2.087,2.787" transform="translate(0 0)" fill="#b6b5b6"/>
      </g>
    </g>
  </g>
</svg>
