<svg xmlns="http://www.w3.org/2000/svg" xmlns:xlink="http://www.w3.org/1999/xlink" width="424.42" height="198" viewBox="0 0 424.42 198">
  <defs>
    <clipPath id="clip-path">
      <rect id="Rectángulo_403669" data-name="Rectángulo 403669" width="176.529" height="37.257" transform="translate(0 0)" fill="none" stroke="#048fe5" stroke-width="1"/>
    </clipPath>
  </defs>
  <g id="Grupo_1102059" data-name="Grupo 1102059" transform="translate(-784.051 -2045)">
    <g id="Grupo_1101651" data-name="Grupo 1101651" transform="translate(1377.078 12260.937)">
      <rect id="Rectángulo_403315" data-name="Rectángulo 403315" width="400" height="198" rx="9" transform="translate(-568.607 -10215.937)" fill="#fff"/>
      <g id="Grupo_1101233" data-name="Grupo 1101233" transform="translate(-1399.444 172.063)">
        <g id="Grupo_1101226" data-name="Grupo 1101226" transform="translate(806.417 -10324)">
          <circle id="Elipse_11536" data-name="Elipse 11536" cx="35.5" cy="35.5" r="35.5" transform="translate(0 0)" fill="#3c3c3c"/>
        </g>
        <g id="Grupo_1101652" data-name="Grupo 1101652" transform="translate(820.417 -10309)">
          <path id="Trazado_911836" data-name="Trazado 911836" d="M31.626,0V4.149H15.044V5.71H31.626V9.859L36.552,4.93Z" transform="translate(-8.15)" fill="#b6b5b6"/>
          <path id="Trazado_911837" data-name="Trazado 911837" d="M1.561,33H15.233V43.511L7.181,56.672H1.561ZM0,31.435v26.8H6.226v0H27.54L43.9,31.5H22.581L16.794,40.96V31.435Z" transform="translate(0 -17.031)" fill="#b6b5b6"/>
        </g>
      </g>
    </g>
    <g id="Grupo_1102052" data-name="Grupo 1102052" transform="translate(867.952 2087)">
      <path id="Trazado_912965" data-name="Trazado 912965" d="M98.969,60.9,78.007,6.3,21.532,13.726Z" transform="translate(8.988 2.631)" fill="#fad7ff" stroke="#048fe5" stroke-width="1"/>
      <rect id="Rectángulo_403667" data-name="Rectángulo 403667" width="58.661" height="90.676" transform="matrix(0.52, -0.854, 0.854, 0.52, 0, 66.452)" fill="#e39aeb" stroke="#048fe5" stroke-width="1"/>
      <g id="Grupo_1102051" data-name="Grupo 1102051" transform="translate(0 0)">
        <g id="Grupo_1102056" data-name="Grupo 1102056">
          <path id="Trazado_912966" data-name="Trazado 912966" d="M107.9,54.04,48.072,82.319a5.094,5.094,0,0,1-6.784-2.428L20.328,35.552a5.094,5.094,0,0,1,2.429-6.782L82.582.489a5.1,5.1,0,0,1,6.784,2.429l20.96,44.337A5.1,5.1,0,0,1,107.9,54.04" transform="translate(8.281 0)" fill="#ffc816" stroke="#048fe5" stroke-width="1"/>
          <path id="Trazado_912967" data-name="Trazado 912967" d="M48.752,59.684a3.086,3.086,0,0,1-.439-.033,2.837,2.837,0,0,1-2.366-3.239l3.408-21.877A2.835,2.835,0,0,1,53.6,32.531l16.577,9.782,4.047-25.976a2.835,2.835,0,1,1,5.6.872l-4.69,30.106a2.837,2.837,0,0,1-4.242,2.006L54.314,39.537,51.55,57.286a2.837,2.837,0,0,1-2.8,2.4" transform="translate(19.165 5.818)" fill="#fff" stroke="#048fe5" stroke-width="1"/>
          <path id="Trazado_912968" data-name="Trazado 912968" d="M48.184,27.262a10.539,10.539,0,1,1-14.033-5.025,10.54,10.54,0,0,1,14.033,5.025" transform="translate(11.736 8.86)" fill="#fff" stroke="#048fe5" stroke-width="1"/>
          <path id="Trazado_912969" data-name="Trazado 912969" d="M30.521,11.54,53.979,60.176,0,61.636Z" transform="translate(0 4.817)" fill="#f8c4ff" stroke="#048fe5" stroke-width="1"/>
          <path id="Trazado_912970" data-name="Trazado 912970" d="M92.107,44.852,38.128,46.31,61.585,94.948Z" transform="translate(15.916 18.723)" fill="#f8c4ff" stroke="#048fe5" stroke-width="1"/>
          <path id="Trazado_912971" data-name="Trazado 912971" d="M77.437,96.346,56.681,41.407,0,49.169Z" transform="translate(0 17.285)" fill="#fad7ff" stroke="#048fe5" stroke-width="1"/>
        </g>
      </g>
    </g>
    <line id="Línea_644" data-name="Línea 644" y2="121" transform="translate(1002.551 2083.5)" fill="none" stroke="#ff9a09" stroke-width="1"/>
    <g id="Grupo_1102055" data-name="Grupo 1102055" transform="translate(1018.054 2112.743)">
      <path id="Trazado_912972" data-name="Trazado 912972" d="M87.91,0l33.561,25.72L157.865,5.572Z" fill="#fad7ff" stroke="#048fe5" stroke-width="1"/>
      <path id="Trazado_912973" data-name="Trazado 912973" d="M87.91,0,0,11.515l33.56,25.72L121.471,25.72Z" fill="#e39aeb" stroke="#048fe5" stroke-width="1"/>
      <g id="Grupo_1102054" data-name="Grupo 1102054">
        <g id="Grupo_1102053" data-name="Grupo 1102053" clip-path="url(#clip-path)">
          <path id="Trazado_912974" data-name="Trazado 912974" d="M140.8,23.879l-96.3.532c-4.1.023-6.241-.745-4.793-1.715L64.946,5.783c1.449-.97,5.942-1.775,10.037-1.8l96.3-.532c4.1-.023,6.241.745,4.793,1.716L150.839,22.081c-1.449.97-5.942,1.775-10.037,1.8" fill="#ffc816" stroke="#048fe5" stroke-width="1"/>
          <path id="Trazado_912975" data-name="Trazado 912975" d="M75.457,20.731c-.159-.02-.308-.044-.446-.072-1.434-.293-1.017-.9.928-1.352l27.52-6.419a19.488,19.488,0,0,1,4.056-.447,6.019,6.019,0,0,1,2.774.409l7.529,5.407,32.676-7.622a17.413,17.413,0,0,1,6.12-.292c1.432.294,1.017.9-.928,1.352l-37.87,8.833a19.562,19.562,0,0,1-4.056.448,6.015,6.015,0,0,1-2.774-.41l-7.53-5.406L81.131,20.367a18.523,18.523,0,0,1-5.674.364" fill="#fff" stroke="#048fe5" stroke-width="1"/>
          <path id="Trazado_912976" data-name="Trazado 912976" d="M98.637,10.349c-3,2.007-12.291,3.672-20.762,3.719s-12.909-1.542-9.913-3.549S80.252,6.846,88.723,6.8s12.909,1.543,9.914,3.55" fill="#fff" stroke="#048fe5" stroke-width="1"/>
          <path id="Trazado_912977" data-name="Trazado 912977" d="M87.91,0,60.736,18.618,0,11.515Z" fill="#f8c4ff" stroke="#048fe5" stroke-width="1"/>
          <path id="Trazado_912978" data-name="Trazado 912978" d="M121.5,25.742l-60.736-7.1L33.588,37.257Z" fill="#f8c4ff" stroke="#048fe5" stroke-width="1"/>
          <path id="Trazado_912979" data-name="Trazado 912979" d="M33.561,37.235,70.549,17.009,0,11.515Z" fill="#fad7ff" stroke="#048fe5" stroke-width="1"/>
        </g>
      </g>
    </g>
    <g id="Grupo_1102057" data-name="Grupo 1102057" transform="translate(152.624 1109.693)">
      <path id="Elipse_11567" data-name="Elipse 11567" d="M2.475.45A2.025,2.025,0,1,0,4.5,2.475,2.028,2.028,0,0,0,2.475.45m0-.45A2.475,2.475,0,1,1,0,2.475,2.475,2.475,0,0,1,2.475,0Z" transform="translate(753.701 1030.226)" fill="#08ecff"/>
      <path id="Elipse_11567_-_Contorno" data-name="Elipse 11567 - Contorno" d="M2.475-.2A2.675,2.675,0,1,1-.2,2.475,2.678,2.678,0,0,1,2.475-.2Zm0,4.951A2.275,2.275,0,1,0,.2,2.475,2.278,2.278,0,0,0,2.475,4.751Zm0-4.5A2.225,2.225,0,1,1,.25,2.475,2.228,2.228,0,0,1,2.475.25Zm0,4.051A1.825,1.825,0,1,0,.65,2.475,1.827,1.827,0,0,0,2.475,4.3Z" transform="translate(753.701 1030.226)" fill="#08ecff"/>
      <path id="Línea_643" data-name="Línea 643" d="M-.275,3.305A.225.225,0,0,1-.5,3.08V-.275A.225.225,0,0,1-.275-.5.225.225,0,0,1-.05-.275V3.08A.225.225,0,0,1-.275,3.305Z" transform="translate(756.452 1026)" fill="#08ecff"/>
      <path id="Línea_643_-_Contorno" data-name="Línea 643 - Contorno" d="M-.275,3.505A.426.426,0,0,1-.7,3.08V-.275A.426.426,0,0,1-.275-.7.426.426,0,0,1,.15-.275V3.08A.426.426,0,0,1-.275,3.505Zm0-3.805A.025.025,0,0,0-.3-.275V3.08a.025.025,0,0,0,.025.025A.025.025,0,0,0-.25,3.08V-.275A.025.025,0,0,0-.275-.3Z" transform="translate(756.452 1026)" fill="#08ecff"/>
      <path id="Línea_644-2" data-name="Línea 644" d="M-.275,3.305A.225.225,0,0,1-.5,3.08V-.275A.225.225,0,0,1-.275-.5.225.225,0,0,1-.05-.275V3.08A.225.225,0,0,1-.275,3.305Z" transform="translate(756.452 1036.801)" fill="#08ecff"/>
      <path id="Línea_644_-_Contorno" data-name="Línea 644 - Contorno" d="M-.275,3.505A.426.426,0,0,1-.7,3.08V-.275A.426.426,0,0,1-.275-.7.426.426,0,0,1,.15-.275V3.08A.426.426,0,0,1-.275,3.505Zm0-3.805A.025.025,0,0,0-.3-.275V3.08a.025.025,0,0,0,.025.025A.025.025,0,0,0-.25,3.08V-.275A.025.025,0,0,0-.275-.3Z" transform="translate(756.452 1036.801)" fill="#08ecff"/>
      <path id="Línea_645" data-name="Línea 645" d="M.225,3.805A.225.225,0,0,1,0,3.58V.225a.225.225,0,0,1,.45,0V3.58A.225.225,0,0,1,.225,3.805Z" transform="translate(763.48 1032.476) rotate(90)" fill="#08ecff"/>
      <path id="Línea_645_-_Contorno" data-name="Línea 645 - Contorno" d="M.225,4.005A.426.426,0,0,1-.2,3.58V.225a.425.425,0,1,1,.85,0V3.58A.426.426,0,0,1,.225,4.005ZM.225.2A.025.025,0,0,0,.2.225V3.58a.025.025,0,0,0,.05,0V.225A.025.025,0,0,0,.225.2Z" transform="translate(763.48 1032.476) rotate(90)" fill="#08ecff"/>
      <path id="Línea_646" data-name="Línea 646" d="M.225,3.805A.225.225,0,0,1,0,3.58V.225a.225.225,0,0,1,.45,0V3.58A.225.225,0,0,1,.225,3.805Z" transform="translate(753.129 1032.476) rotate(90)" fill="#08ecff"/>
      <path id="Línea_646_-_Contorno" data-name="Línea 646 - Contorno" d="M.225,4.005A.426.426,0,0,1-.2,3.58V.225a.425.425,0,1,1,.85,0V3.58A.426.426,0,0,1,.225,4.005ZM.225.2A.025.025,0,0,0,.2.225V3.58a.025.025,0,0,0,.05,0V.225A.025.025,0,0,0,.225.2Z" transform="translate(753.129 1032.476) rotate(90)" fill="#08ecff"/>
      <path id="Elipse_11568" data-name="Elipse 11568" d="M.675.45A.225.225,0,1,0,.9.675.225.225,0,0,0,.675.45m0-.45A.675.675,0,1,1,0,.675.675.675,0,0,1,.675,0Z" transform="translate(755.501 1032.026)" fill="#08ecff"/>
      <path id="Elipse_11568_-_Contorno" data-name="Elipse 11568 - Contorno" d="M.675-.2A.875.875,0,1,1-.2.675.876.876,0,0,1,.675-.2Zm0,1.35A.475.475,0,1,0,.2.675.476.476,0,0,0,.675,1.15Zm0-.9A.425.425,0,1,1,.25.675.426.426,0,0,1,.675.25Z" transform="translate(755.501 1032.026)" fill="#08ecff"/>
    </g>
    <g id="Grupo_1102058" data-name="Grupo 1102058" transform="translate(317.624 1118.701)">
      <path id="Elipse_11567-2" data-name="Elipse 11567" d="M2.475.45A2.025,2.025,0,1,0,4.5,2.475,2.028,2.028,0,0,0,2.475.45m0-.45A2.475,2.475,0,1,1,0,2.475,2.475,2.475,0,0,1,2.475,0Z" transform="translate(753.701 1030.226)" fill="#08ecff"/>
      <path id="Elipse_11567_-_Contorno-2" data-name="Elipse 11567 - Contorno" d="M2.475-.2A2.675,2.675,0,1,1-.2,2.475,2.678,2.678,0,0,1,2.475-.2Zm0,4.951A2.275,2.275,0,1,0,.2,2.475,2.278,2.278,0,0,0,2.475,4.751Zm0-4.5A2.225,2.225,0,1,1,.25,2.475,2.228,2.228,0,0,1,2.475.25Zm0,4.051A1.825,1.825,0,1,0,.65,2.475,1.827,1.827,0,0,0,2.475,4.3Z" transform="translate(753.701 1030.226)" fill="#08ecff"/>
      <path id="Línea_643-2" data-name="Línea 643" d="M-.275,3.305A.225.225,0,0,1-.5,3.08V-.275A.225.225,0,0,1-.275-.5.225.225,0,0,1-.05-.275V3.08A.225.225,0,0,1-.275,3.305Z" transform="translate(756.452 1026)" fill="#08ecff"/>
      <path id="Línea_643_-_Contorno-2" data-name="Línea 643 - Contorno" d="M-.275,3.505A.426.426,0,0,1-.7,3.08V-.275A.426.426,0,0,1-.275-.7.426.426,0,0,1,.15-.275V3.08A.426.426,0,0,1-.275,3.505Zm0-3.805A.025.025,0,0,0-.3-.275V3.08a.025.025,0,0,0,.025.025A.025.025,0,0,0-.25,3.08V-.275A.025.025,0,0,0-.275-.3Z" transform="translate(756.452 1026)" fill="#08ecff"/>
      <path id="Línea_644-3" data-name="Línea 644" d="M-.275,3.305A.225.225,0,0,1-.5,3.08V-.275A.225.225,0,0,1-.275-.5.225.225,0,0,1-.05-.275V3.08A.225.225,0,0,1-.275,3.305Z" transform="translate(756.452 1036.801)" fill="#08ecff"/>
      <path id="Línea_644_-_Contorno-2" data-name="Línea 644 - Contorno" d="M-.275,3.505A.426.426,0,0,1-.7,3.08V-.275A.426.426,0,0,1-.275-.7.426.426,0,0,1,.15-.275V3.08A.426.426,0,0,1-.275,3.505Zm0-3.805A.025.025,0,0,0-.3-.275V3.08a.025.025,0,0,0,.025.025A.025.025,0,0,0-.25,3.08V-.275A.025.025,0,0,0-.275-.3Z" transform="translate(756.452 1036.801)" fill="#08ecff"/>
      <path id="Línea_645-2" data-name="Línea 645" d="M.225,3.805A.225.225,0,0,1,0,3.58V.225a.225.225,0,0,1,.45,0V3.58A.225.225,0,0,1,.225,3.805Z" transform="translate(763.48 1032.476) rotate(90)" fill="#08ecff"/>
      <path id="Línea_645_-_Contorno-2" data-name="Línea 645 - Contorno" d="M.225,4.005A.426.426,0,0,1-.2,3.58V.225a.425.425,0,1,1,.85,0V3.58A.426.426,0,0,1,.225,4.005ZM.225.2A.025.025,0,0,0,.2.225V3.58a.025.025,0,0,0,.05,0V.225A.025.025,0,0,0,.225.2Z" transform="translate(763.48 1032.476) rotate(90)" fill="#08ecff"/>
      <path id="Línea_646-2" data-name="Línea 646" d="M.225,3.805A.225.225,0,0,1,0,3.58V.225a.225.225,0,0,1,.45,0V3.58A.225.225,0,0,1,.225,3.805Z" transform="translate(753.129 1032.476) rotate(90)" fill="#08ecff"/>
      <path id="Línea_646_-_Contorno-2" data-name="Línea 646 - Contorno" d="M.225,4.005A.426.426,0,0,1-.2,3.58V.225a.425.425,0,1,1,.85,0V3.58A.426.426,0,0,1,.225,4.005ZM.225.2A.025.025,0,0,0,.2.225V3.58a.025.025,0,0,0,.05,0V.225A.025.025,0,0,0,.225.2Z" transform="translate(753.129 1032.476) rotate(90)" fill="#08ecff"/>
      <path id="Elipse_11568-2" data-name="Elipse 11568" d="M.675.45A.225.225,0,1,0,.9.675.225.225,0,0,0,.675.45m0-.45A.675.675,0,1,1,0,.675.675.675,0,0,1,.675,0Z" transform="translate(755.501 1032.026)" fill="#08ecff"/>
      <path id="Elipse_11568_-_Contorno-2" data-name="Elipse 11568 - Contorno" d="M.675-.2A.875.875,0,1,1-.2.675.876.876,0,0,1,.675-.2Zm0,1.35A.475.475,0,1,0,.2.675.476.476,0,0,0,.675,1.15Zm0-.9A.425.425,0,1,1,.25.675.426.426,0,0,1,.675.25Z" transform="translate(755.501 1032.026)" fill="#08ecff"/>
    </g>
  </g>
</svg>
