<svg xmlns="http://www.w3.org/2000/svg" xmlns:xlink="http://www.w3.org/1999/xlink" width="295" height="292" viewBox="0 0 295 292">
  <defs>
    <clipPath id="clip-path">
      <rect id="Rectángulo_403266" data-name="Rectángulo 403266" width="295" height="292" transform="translate(180.051 384)" fill="#ffeacc"/>
    </clipPath>
    <clipPath id="clip-path-2">
      <rect id="Rectángulo_403562" data-name="Rectángulo 403562" width="349.272" height="348.818" fill="none"/>
    </clipPath>
    <clipPath id="clip-path-3">
      <rect id="Rectángulo_403549" data-name="Rectángulo 403549" width="304.613" height="304.613" fill="none"/>
    </clipPath>
    <clipPath id="clip-path-4">
      <rect id="Rectángulo_403551" data-name="Rectángulo 403551" width="51.151" height="70.752" fill="none"/>
    </clipPath>
    <clipPath id="clip-path-6">
      <path id="Trazado_912455" data-name="Trazado 912455" d="M1995.6,911.706a15.942,15.942,0,1,0,15.942-15.942,15.942,15.942,0,0,0-15.942,15.942" transform="translate(-1995.596 -895.764)" fill="none"/>
    </clipPath>
    <clipPath id="clip-path-8">
      <rect id="Rectángulo_403559" data-name="Rectángulo 403559" width="23.264" height="13.251" fill="none"/>
    </clipPath>
  </defs>
  <g id="Enmascarar_grupo_1098709" data-name="Enmascarar grupo 1098709" transform="translate(-180.051 -384)" clip-path="url(#clip-path)">
    <g id="Grupo_1101907" data-name="Grupo 1101907" transform="translate(154.524 370.766)">
      <g id="Grupo_1101906" data-name="Grupo 1101906" clip-path="url(#clip-path-2)">
        <rect id="Rectángulo_403528" data-name="Rectángulo 403528" width="304.613" height="304.613" transform="translate(22.112 5.738)" fill="#356493"/>
        <rect id="Rectángulo_403529" data-name="Rectángulo 403529" width="75.504" height="199.245" transform="translate(87.036 14.557)" fill="#698eae"/>
        <path id="Trazado_912331" data-name="Trazado 912331" d="M1729.138,143.364h-82.354v60.555l82.354.957Z" transform="translate(-1479.573 -128.807)" fill="#698eae"/>
        <path id="Trazado_912332" data-name="Trazado 912332" d="M1646.784,781.434V915.89h82.354v-133.5Z" transform="translate(-1479.573 -702.089)" fill="#698eae"/>
        <path id="Trazado_912333" data-name="Trazado 912333" d="M837.248,232.305h36.9V425.764" transform="translate(-752.236 -208.717)" fill="none" stroke="#356493" stroke-linecap="round" stroke-linejoin="round" stroke-width="13.324"/>
        <path id="Trazado_912334" data-name="Trazado 912334" d="M1200.619,632.542h73.169v152.4" transform="translate(-1078.711 -568.315)" fill="none" stroke="#356493" stroke-linecap="round" stroke-linejoin="round" stroke-width="13.324"/>
        <path id="Trazado_912335" data-name="Trazado 912335" d="M1959.064,257.32h-68.5v37.993" transform="translate(-1698.601 -231.192)" fill="none" stroke="#356493" stroke-linecap="round" stroke-linejoin="round" stroke-width="13.324"/>
        <rect id="Rectángulo_403530" data-name="Rectángulo 403530" width="7.239" height="13.758" transform="translate(106.029 30.573)" fill="none" stroke="#356493" stroke-linecap="round" stroke-linejoin="round" stroke-width="13.324"/>
        <rect id="Rectángulo_403531" data-name="Rectángulo 403531" width="7.239" height="13.758" transform="translate(200.37 30.573)" fill="none" stroke="#356493" stroke-linecap="round" stroke-linejoin="round" stroke-width="13.324"/>
        <rect id="Rectángulo_403532" data-name="Rectángulo 403532" width="7.239" height="13.758" transform="translate(227.147 39.321)" fill="none" stroke="#356493" stroke-linecap="round" stroke-linejoin="round" stroke-width="13.324"/>
        <rect id="Rectángulo_403533" data-name="Rectángulo 403533" width="7.239" height="13.758" transform="translate(207.999 58.935)" fill="none" stroke="#356493" stroke-linecap="round" stroke-linejoin="round" stroke-width="13.324"/>
        <rect id="Rectángulo_403534" data-name="Rectángulo 403534" width="7.239" height="13.758" transform="translate(206.909 87.439)" fill="none" stroke="#356493" stroke-linecap="round" stroke-linejoin="round" stroke-width="13.324"/>
        <rect id="Rectángulo_403535" data-name="Rectángulo 403535" width="7.239" height="13.758" transform="translate(229.949 87.439)" fill="none" stroke="#356493" stroke-linecap="round" stroke-linejoin="round" stroke-width="13.324"/>
        <rect id="Rectángulo_403536" data-name="Rectángulo 403536" width="7.239" height="13.758" transform="translate(93.73 56.537)" fill="none" stroke="#356493" stroke-linecap="round" stroke-linejoin="round" stroke-width="13.324"/>
        <rect id="Rectángulo_403537" data-name="Rectángulo 403537" width="7.239" height="13.758" transform="translate(110.232 56.395)" fill="none" stroke="#356493" stroke-linecap="round" stroke-linejoin="round" stroke-width="13.324"/>
        <rect id="Rectángulo_403538" data-name="Rectángulo 403538" width="13.855" height="13.758" transform="translate(128.369 68.46)" fill="none" stroke="#356493" stroke-linecap="round" stroke-linejoin="round" stroke-width="13.324"/>
        <rect id="Rectángulo_403539" data-name="Rectángulo 403539" width="13.855" height="13.758" transform="translate(151.604 68.46)" fill="none" stroke="#356493" stroke-linecap="round" stroke-linejoin="round" stroke-width="13.324"/>
        <rect id="Rectángulo_403540" data-name="Rectángulo 403540" width="13.855" height="13.758" transform="translate(173.204 85.711)" fill="none" stroke="#356493" stroke-linecap="round" stroke-linejoin="round" stroke-width="13.324"/>
        <rect id="Rectángulo_403541" data-name="Rectángulo 403541" width="7.239" height="13.758" transform="translate(99.023 107.97)" fill="none" stroke="#356493" stroke-linecap="round" stroke-linejoin="round" stroke-width="13.324"/>
        <rect id="Rectángulo_403542" data-name="Rectángulo 403542" width="7.239" height="13.758" transform="translate(99.413 78.549)" fill="none" stroke="#356493" stroke-linecap="round" stroke-linejoin="round" stroke-width="13.324"/>
        <rect id="Rectángulo_403543" data-name="Rectángulo 403543" width="7.239" height="13.758" transform="translate(92.018 30.573)" fill="none" stroke="#356493" stroke-linecap="round" stroke-linejoin="round" stroke-width="13.324"/>
        <rect id="Rectángulo_403544" data-name="Rectángulo 403544" width="304.613" height="106.886" transform="translate(22.112 203.465)" fill="#fbdbd0"/>
        <rect id="Rectángulo_403545" data-name="Rectángulo 403545" width="304.613" height="7.875" transform="translate(22.112 302.476)" fill="#f3967a"/>
        <g id="Grupo_1101891" data-name="Grupo 1101891" transform="translate(22.112 5.738)">
          <g id="Grupo_1101890" data-name="Grupo 1101890" clip-path="url(#clip-path-3)">
            <path id="Trazado_912336" data-name="Trazado 912336" d="M592.535,2383.152H458.582l-32.851,46.472a12.836,12.836,0,0,0-2.354,7.409H627.741a12.836,12.836,0,0,0-2.354-7.409Z" transform="translate(-402.5 -2146.91)" fill="#a9bdd2"/>
            <path id="Trazado_912337" data-name="Trazado 912337" d="M724.605,2417.507H618.184l-18.273,29.624H740.732Z" transform="translate(-561.109 -2177.777)" fill="#d4dee8"/>
            <path id="Trazado_912338" data-name="Trazado 912338" d="M1827.183,2382.624s24.15,39.767,26.082,43.148a31.664,31.664,0,0,1,3.542,10.626" transform="translate(-1663.767 -2146.435)" fill="none" stroke="#242638" stroke-linecap="round" stroke-linejoin="round" stroke-width="3.171"/>
            <path id="Trazado_912339" data-name="Trazado 912339" d="M1997.448,2508.721c.2-2.339-3.575-4.573-8.433-4.989s-8.958,1.142-9.159,3.481,3.575,4.573,8.433,4.989,8.958-1.142,9.159-3.481" transform="translate(-1800.931 -2255.186)" fill="#d4dee8"/>
            <path id="Trazado_912340" data-name="Trazado 912340" d="M2026.421,2526.592c.093-1.085-2.078-2.157-4.85-2.395s-5.093.45-5.186,1.535,2.078,2.157,4.85,2.395,5.093-.449,5.186-1.535" transform="translate(-1833.755 -2273.591)" fill="#a9bdd2"/>
            <path id="Trazado_912341" data-name="Trazado 912341" d="M2117.352,2612.539h9.338l7.809,9.418h-9.982Z" transform="translate(-1924.473 -2353.005)" fill="none" stroke="#242638" stroke-linecap="round" stroke-linejoin="round" stroke-width="3.171"/>
            <line id="Línea_610" data-name="Línea 610" x2="9.539" transform="translate(196.341 264.042)" fill="none" stroke="#242638" stroke-linecap="round" stroke-linejoin="round" stroke-width="3.171"/>
            <line id="Línea_611" data-name="Línea 611" x2="9.378" transform="translate(194.731 261.989)" fill="none" stroke="#242638" stroke-linecap="round" stroke-linejoin="round" stroke-width="3.171"/>
            <line id="Línea_612" data-name="Línea 612" x2="9.861" transform="translate(198.353 266.819)" fill="none" stroke="#242638" stroke-linecap="round" stroke-linejoin="round" stroke-width="3.171"/>
            <path id="Trazado_912342" data-name="Trazado 912342" d="M869.42,2176.52H743.571l-9.767,16.261v2.576H879.187v-2.576Z" transform="translate(-681.407 -1961.259)" fill="#a9bdd2"/>
            <path id="Trazado_912343" data-name="Trazado 912343" d="M1728.8,2270.978a.161.161,0,0,0-.148-.1h-5.541l-1.51-2.708a.16.16,0,0,0-.141-.083h-5.313a.161.161,0,0,0-.149.221l1.145,2.838h-6.041a.161.161,0,0,0-.156.2l.644,2.576a.161.161,0,0,0,.156.122h6.383a.158.158,0,0,0,.084.027h0l6.037-.027h5.634a.161.161,0,0,0,.148-.225Zm-10.481,2.748-.818-2.312c0-.005.011-.008.015-.013a.154.154,0,0,0,.015-.041l5.382-.154,1.093,2.519Zm-1.932-5.313h4.98l1.381,2.476-5.3.151Zm-5.077,3.059h5.871l.8,2.254h-6.1Zm13.048,2.254-1.095-2.523h5.284l1.094,2.523Z" transform="translate(-1559.332 -2043.532)" fill="#242638"/>
            <path id="Trazado_912344" data-name="Trazado 912344" d="M1889.694,2203.195l-7.854-13.189a.161.161,0,0,0-.138-.079h-4.835a.159.159,0,0,0-.193-.034.148.148,0,0,0-.041.034H1865.44a.161.161,0,0,0-.15.221l5.313,13.309a.161.161,0,0,0,.15.1h0c.121,0,12.154-.138,16.889-.138,1.455,0,1.8.013,1.848.013a.148.148,0,0,0,.051.015.155.155,0,0,0,.134-.046.161.161,0,0,0,.017-.209m-21.113-5.674h5.6l1.367,2.777h-5.856Zm8.1-7.271.935,1.717H1871.8l-.845-1.717Zm1.11,2.039,1.161,2.133h-5.943l-1.05-2.133Zm6.3,2.133h-4.773l-1.161-2.133h4.664Zm-4.6.322h4.789l1.462,2.455h-4.915Zm.97,2.455h-6.088l-1.209-2.455h5.96Zm-7.814-2.777h-5.31l-.852-2.133h5.111Zm.158.322,1.208,2.455h-5.568l-.98-2.455Zm3.093,5.555-1.367-2.777h6.1l1.512,2.777Zm5.1-2.777h4.931l1.654,2.777h-5.073Zm1.623-5.554h-4.647l-.935-1.717h4.559Zm-12.033-1.717.845,1.717h-5.081l-.686-1.717Zm-.781,10.371h12.511l1.358,2.5c-5.117.034-11.881.109-12.826.119Zm17.826,2.479c-.953,0-2.2.006-3.591.014l-1.357-2.493h5a.159.159,0,0,0,.075-.021l1.5,2.51c-.267-.007-.746-.011-1.625-.011" transform="translate(-1697.994 -1973.257)" fill="#242638"/>
            <path id="Trazado_912345" data-name="Trazado 912345" d="M1700.548,2195.02a.162.162,0,0,0,.058-.011c.006,0,.009-.007.014-.009h5.053a.161.161,0,0,0,.161-.161.159.159,0,0,0-.042-.108l-1.288-2.548a.157.157,0,0,0-.033-.065l-1.184-2.343a.161.161,0,0,0-.144-.088h-4.474a.156.156,0,0,0-.132-.009c-.006,0-.009.007-.014.009h-5.466a.156.156,0,0,0-.127-.012.132.132,0,0,0-.021.012h-5.061a.16.16,0,0,0-.157.2l1.127,4.991a.161.161,0,0,0,.157.125h11.506a.16.16,0,0,0,.066.02m.1-.342-.9-2.313,4.492.018,1.16,2.295Zm-5.9,0-.772-2.336,5.425.022.9,2.314Zm3.739-4.669.789,2.032-5.407-.022-.665-2.011Zm5.589,2.052-4.454-.018-.789-2.034h4.206Zm-11.211-2.052.665,2.009-5.036-.02-.449-1.989Zm-4.3,2.312,5.07.02.773,2.337h-5.31Z" transform="translate(-1538.436 -1973.07)" fill="#242638"/>
            <path id="Trazado_912346" data-name="Trazado 912346" d="M852.074,2203.183l-3.482-13.277c0-.2-.128-.2-3.765-.25-2.176-.032-5.375-.063-9.509-.092-6.962-.049-16.67-.094-28.853-.133-20.744-.067-41.758-.094-41.968-.094H764.4l-1.324,2.254h-.087v.148l-4.7,8.01h-.233v.322h.044l-1.828,3.113Zm-31.781-3.113-.036,2.791H764.272l1.3-2.791Zm12.068-8.542-2.311.063h-3.429l.108-1.757,5.535.031Zm2.715.385.143,2.525-3.96.051h-1.467l-.073-2.567.338-.009Zm14.384,2.576h-7.9l-.3-2.576h7.532Zm-66.693-2.576-1.109,2.576H775.95l1.324-2.576Zm9.492,0-.189,2.576H787.3l.179-2.576Zm14.467,2.9-.045,2.361h-6.068v-2.361Zm8.265-2.9.165,0v0h2.308v2.524l-4.038.052h-2.449l.143-2.576Zm8.239,0-.111,2.472-4.032.081v.023h-1.3v-2.576Zm7.872,2.9.1,2.361h-5.876v-2.351l.594-.01Zm5.81,0,.241,2.361h-5.79l.161-.007-.1-2.354Zm-14.615,4.937,0-2.254h5.851l.043,2.254Zm6.17-2.254h5.75l.147,2.254h-5.854Zm-3.464-.322h-5.595v-2.361h5.595Zm-11.4-2.361h5.487v2.361H813.6Zm-.322,0v2.361H807l.045-2.361Zm-12.987,2.361h-5.817l.07-2.308h4.245v-.054h1.5Zm-6.139,0H784.31l.69-2.361h9.224Zm-7.174-2.684h-3.145l-1.813-.023,1.1-2.552h4.038Zm-3.14.322.824.01-.687,2.351h-7.32l1.163-2.361Zm3.333,2.683,0,2.254h-6.437l.55-2.254Zm.325,2.254,0-2.254h6.333l0,2.254Zm6.655,0,0-2.254h5.689l0,2.254Zm6.011,0,0-2.254h5.1l0,2.254Zm5.42,0,0-2.254h5.313l0,2.254Zm5.635,0,0-2.254h4.83l0,2.254Zm5.152,0,0-2.254h5.608l0,2.254Zm11.828.322.053,2.791h-7.67l.036-2.791Zm.322,0h7.518l.105,2.791h-7.57Zm7.84,0h7.1l.481,2.791H836.3l.161-.006Zm-1.669-.322-.147-2.254h15.707l.591,2.254Zm2.789-2.576-.241-2.361h12.308l.62,2.361Zm3.451-5.26.291,2.471-4.344.054.005.051h-1.336l-.146-2.576h5.53Zm-11.46,2.512-3.557.064h-2.474l.111-2.49,1.636-.086H829.4Zm-3.166-2.893-1.124.059h-4.222l.047-1.784,5.4.026Zm-5.667.006h-3.17v.053h-2.308v-1.808l5.524.023Zm-5.8.051-4.016-.053,0,.055h-1.562v-1.83l5.581.02Zm-4.037.324-.14,2.522h-3.923v.053H805.07l.048-2.576H810.8Zm-6.049,2.522h-4.457v.053h-1.5v-2.522h4.776v-.054H804.8Zm-6.282.053h-6.073l.185-2.522h5.458v-.054h.429Zm-.429-2.9v-1.864l5.206.015v1.849Zm-.322,0h-7.189l.209-1.883,6.979.018Zm-7.51-.027h-3.025l0,.027h-3.922l.012-.027h-3.109l.73-1.878,9.521.021Zm-10.4.027h-4.647l-.723-.02,1.018-1.9,5.093.01Zm-5.746,0h-5.917l1.148-1.926,5.8.01Zm1.1.322,1.73.047-1.3,2.529h-5.129l-.621-.048,1.336-2.528Zm-4.355.013-1.354,2.563h-7.7l1.513-2.576h4.31l-.008.013Zm-.359,2.885.454.035-1.179,2.321.012.006h-9.556l1.423-2.422v.061Zm.833,0h4.146l-.03.059,2.058-.041-1.154,2.343h-6.219Zm9.678,2.683-.55,2.254h-7.861l1.251-2.254Zm63.309,5.366-.481-2.791h7.142l.732,2.791Zm4.037-12.795.4,1.525H838.222l-.137-1.685c5.785.047,9.586.1,10.216.16m-10.539-.163.137,1.688h-5.211l-.1-1.724c1.854.012,3.587.024,5.176.036m-28.83-.144v1.831h-5.367v-1.848l5.367.017m-44.344-.1,4.328.006-1.149,1.926h-4.313Zm-4.493,7.65v.186h13.331l-1.251,2.254H758.663Zm5.119,2.761-1.253,2.7.2.095h-7.33l1.639-2.791Z" transform="translate(-701.594 -1972.774)" fill="#242638"/>
            <path id="Trazado_912347" data-name="Trazado 912347" d="M571.787,1118.2c-1.307-.49-2.54.919-3.018,2.231-1.22,3.348-.863,7.519-3.49,9.927-.517.474-1.127.847-1.6,1.367a5.318,5.318,0,0,0-1.195,3.245c-.159,2.359.573,4.677.86,7.023s.012,5-1.724,6.6a27.276,27.276,0,0,0-2.691,2.116c-1.529,1.824-.843,4.552-.135,6.825s1.233,5.09-.475,6.748c-.461.447-1.047.756-1.472,1.237-1.025,1.156-.849,2.911-.6,4.436q1.395,8.385,3.425,16.648a2.248,2.248,0,0,0,.569,1.2,2.272,2.272,0,0,0,1.652.345l4.37-.225a4.288,4.288,0,0,0,2.264-.544,4.219,4.219,0,0,0,1.334-2.127q1.948-5.281,3.391-10.731c.593-2.239,1.1-4.7.143-6.805-.5-1.1-1.377-2.019-1.8-3.156-1.567-4.235,3.692-8.19,3.583-12.7-.07-2.909-2.385-5.416-2.415-8.326-.035-3.354,2.96-6.659,1.6-9.722-.451-1.012-1.323-1.779-1.854-2.752-1.647-3.012.387-6.648.546-10.077.051-1.09-.249-2.4-1.27-2.779" transform="translate(-521.71 -1010.307)" fill="#242638"/>
            <path id="Trazado_912348" data-name="Trazado 912348" d="M623.834,1144.959c-1.659,4.393-3.347,9.059-2.5,13.679a15.492,15.492,0,0,1,.412,2.591c.029,2.627-2.021,4.839-2.459,7.429-.457,2.7.89,5.442.56,8.162-.311,2.564-2.041,4.688-3.3,6.942s-2.024,5.23-.481,7.3c.717.962,1.838,1.574,2.509,2.569,1.29,1.911.53,4.48-.311,6.627-1.431,3.652-3.014,7.609-1.937,11.381" transform="translate(-574.846 -1034.44)" fill="none" stroke="#f2f2f2" stroke-linecap="round" stroke-linejoin="round" stroke-width="2.271"/>
            <path id="Trazado_912349" data-name="Trazado 912349" d="M661.431,1341.333a3.755,3.755,0,0,1,.341-2.158c.586-.943,1.9-1.224,2.49-2.167.539-.866.288-1.979.346-3a4.81,4.81,0,0,1,2.087-3.659" transform="translate(-616.37 -1201.009)" fill="none" stroke="#f2f2f2" stroke-linecap="round" stroke-linejoin="round" stroke-width="2.271"/>
            <path id="Trazado_912350" data-name="Trazado 912350" d="M678.9,1249.916a3.622,3.622,0,0,1-1.478,1.762,3.046,3.046,0,0,0-1.354,1.838" transform="translate(-629.532 -1128.74)" fill="none" stroke="#f2f2f2" stroke-linecap="round" stroke-linejoin="round" stroke-width="2.271"/>
            <path id="Trazado_912351" data-name="Trazado 912351" d="M642.127,1294.793c1.03,2.245.364,5.039,1.585,7.187" transform="translate(-599.039 -1169.06)" fill="none" stroke="#f2f2f2" stroke-linecap="round" stroke-linejoin="round" stroke-width="2.271"/>
            <path id="Trazado_912352" data-name="Trazado 912352" d="M640.2,1459.778a5.141,5.141,0,0,1,3.325-2.19c.385-.07.778-.1,1.159-.189a3.535,3.535,0,0,0,2.461-2.354c.093-.3.244-.682.554-.656" transform="translate(-597.307 -1312.45)" fill="none" stroke="#f2f2f2" stroke-linecap="round" stroke-linejoin="round" stroke-width="2.271"/>
            <path id="Trazado_912353" data-name="Trazado 912353" d="M606.626,1444.77a6.666,6.666,0,0,1,1.375,4.139,16.236,16.236,0,0,0,.538,4.4" transform="translate(-567.142 -1303.809)" fill="none" stroke="#242638" stroke-linecap="round" stroke-linejoin="round" stroke-width="2.271"/>
            <path id="Trazado_912354" data-name="Trazado 912354" d="M722.579,1468.085c-.389-.663-1.385-.337-2.028.177-1.642,1.314-2.893,3.545-4.815,3.936-.378.077-.762.073-1.136.188a3.381,3.381,0,0,0-1.6,1.27,26.77,26.77,0,0,0-2,3.839c-.667,1.283-1.676,2.543-2.95,2.808a13.694,13.694,0,0,0-1.851.222c-1.261.442-1.888,2.045-2.352,3.424s-1.189,2.975-2.47,3.276c-.345.081-.7.053-1.039.162-.823.263-1.338,1.21-1.743,2.064q-2.229,4.7-4.148,9.539a1.555,1.555,0,0,0-.162.789,1.118,1.118,0,0,0,.584.7l1.926,1.27a1.951,1.951,0,0,0,1.141.441,2.469,2.469,0,0,0,1.28-.658q2.6-2.065,5.044-4.376a7.132,7.132,0,0,0,2.349-3.411c.158-.72.1-1.461.3-2.172.76-2.647,4.317-2.99,5.789-5.317.948-1.5.811-3.506,1.777-4.993,1.113-1.714,3.492-2.444,3.944-4.432.149-.657.038-1.322.14-1.984.315-2.051,2.4-3.254,3.62-4.945.388-.538.7-1.3.4-1.814" transform="translate(-645.897 -1324.422)" fill="#fbdbd0"/>
            <path id="Trazado_912355" data-name="Trazado 912355" d="M745.74,1504.485c-1.451,1.074-3,2.281-3.462,4.025-.116.434-.159.887-.31,1.309-.737,2.073-3.636,2.643-4.542,4.648-.276.61-.337,1.3-.632,1.9-.586,1.192-1.932,1.764-3.151,2.293s-2.538,1.245-2.917,2.519a8.68,8.68,0,0,0-.187,1.563,5.472,5.472,0,0,1-2.186,3.786,18.429,18.429,0,0,0-1.514,1.051,6.836,6.836,0,0,0-1.452,2.223l-1.705,3.548" transform="translate(-672.313 -1357.461)" fill="none" stroke="#242638" stroke-linecap="round" stroke-linejoin="round" stroke-width="0.884"/>
            <path id="Trazado_912356" data-name="Trazado 912356" d="M817.707,1609.625a2.91,2.91,0,0,1,.013,1.249c-.211.867-.979,1.54-1.1,2.425" transform="translate(-755.819 -1451.925)" fill="none" stroke="#242638" stroke-linecap="round" stroke-linejoin="round" stroke-width="0.884"/>
            <path id="Trazado_912357" data-name="Trazado 912357" d="M875.34,1528.287c-.548.937-.419,2.1-.6,3.176a5.472,5.472,0,0,1-1.2,2.607" transform="translate(-806.962 -1378.846)" fill="none" stroke="#242638" stroke-linecap="round" stroke-linejoin="round" stroke-width="0.884"/>
            <path id="Trazado_912358" data-name="Trazado 912358" d="M901.639,1552.906c-.782.68-2.022.636-2.773,1.35" transform="translate(-829.709 -1400.965)" fill="none" stroke="#242638" stroke-linecap="round" stroke-linejoin="round" stroke-width="0.884"/>
            <path id="Trazado_912359" data-name="Trazado 912359" d="M800.16,1642.416a6.756,6.756,0,0,1-3.553,1.547,12.287,12.287,0,0,0-3.764,1.075c-.036.02-.077.05-.073.092s.087.038.072,0" transform="translate(-734.386 -1481.386)" fill="none" stroke="#242638" stroke-linecap="round" stroke-linejoin="round" stroke-width="0.884"/>
            <path id="Trazado_912360" data-name="Trazado 912360" d="M764.773,1670.445a15.572,15.572,0,0,0,.482,2.673,4.082,4.082,0,0,1-.187,2.662" transform="translate(-709.232 -1506.569)" fill="none" stroke="#242638" stroke-linecap="round" stroke-linejoin="round" stroke-width="0.884"/>
            <path id="Trazado_912361" data-name="Trazado 912361" d="M745.07,1738.126a1.546,1.546,0,0,1-.531.356,16.335,16.335,0,0,1-4.3.822c-.423.068-.913.22-1.041.629" transform="translate(-686.258 -1567.378)" fill="none" stroke="#242638" stroke-linecap="round" stroke-linejoin="round" stroke-width="0.884"/>
            <path id="Trazado_912362" data-name="Trazado 912362" d="M645.739,1336.409c-.681-.715-1.831-.016-2.484.817-1.669,2.125-2.579,5.283-4.868,6.336-.451.207-.931.316-1.366.569a4.343,4.343,0,0,0-1.625,2.057,34.388,34.388,0,0,0-1.372,5.388c-.458,1.8-1.35,3.672-2.866,4.378a17.58,17.58,0,0,0-2.249.821c-1.447.923-1.761,3.112-1.937,4.972s-.614,4.071-2.128,4.823c-.408.2-.857.271-1.253.507-.952.57-1.319,1.906-1.575,3.094q-1.408,6.533-2.388,13.148a2,2,0,0,0,.029,1.034,1.435,1.435,0,0,0,.935.7l2.781,1.023a2.506,2.506,0,0,0,1.557.216,3.169,3.169,0,0,0,1.408-1.2q2.647-3.346,5.024-6.954a9.162,9.162,0,0,0,1.937-4.955c-.013-.947-.309-1.856-.262-2.805.174-3.534,4.522-5.007,5.68-8.349.746-2.154-.014-4.623.757-6.767.889-2.471,3.651-4.082,3.633-6.7-.006-.865-.34-1.665-.407-2.523-.208-2.658,2.046-4.774,3.076-7.247a2.351,2.351,0,0,0-.036-2.385" transform="translate(-578.777 -1206.184)" fill="#f3967a"/>
            <path id="Trazado_912363" data-name="Trazado 912363" d="M677.708,1389.851c-1.5,1.77-3.077,3.732-3.148,6.051-.018.576.061,1.156,0,1.729-.313,2.809-3.773,4.373-4.317,7.146-.166.845-.039,1.729-.232,2.568-.383,1.663-1.9,2.774-3.268,3.793s-2.809,2.3-2.909,4.006a11.116,11.116,0,0,0,.225,2.009,7.03,7.03,0,0,1-1.623,5.378c-.515.6-1.133,1.111-1.585,1.758a8.789,8.789,0,0,0-1.164,3.207l-1.091,4.938" transform="translate(-613.832 -1254.466)" fill="none" stroke="#d6dde5" stroke-linecap="round" stroke-linejoin="round" stroke-width="2.271"/>
            <path id="Trazado_912364" data-name="Trazado 912364" d="M733.047,1554.71a3.735,3.735,0,0,1,.384,1.559c-.009,1.147-.772,2.214-.658,3.355" transform="translate(-680.47 -1402.586)" fill="none" stroke="#d6dde5" stroke-linecap="round" stroke-linejoin="round" stroke-width="2.271"/>
            <path id="Trazado_912365" data-name="Trazado 912365" d="M786.837,1434.214c-.411,1.333.094,2.755.187,4.147a7.028,7.028,0,0,1-.732,3.612" transform="translate(-728.566 -1294.325)" fill="none" stroke="#d6dde5" stroke-linecap="round" stroke-linejoin="round" stroke-width="2.271"/>
            <path id="Trazado_912366" data-name="Trazado 912366" d="M815.447,1454.742c-.779,1.08-2.342,1.389-3.072,2.5" transform="translate(-752 -1312.768)" fill="none" stroke="#d6dde5" stroke-linecap="round" stroke-linejoin="round" stroke-width="2.271"/>
            <path id="Trazado_912367" data-name="Trazado 912367" d="M718.3,1584.492a8.681,8.681,0,0,1-3.99,2.978,15.786,15.786,0,0,0-4.392,2.45c-.039.036-.081.085-.064.136s.12.022.09-.021" transform="translate(-659.885 -1429.344)" fill="none" stroke="#d6dde5" stroke-linecap="round" stroke-linejoin="round" stroke-width="2.271"/>
            <path id="Trazado_912368" data-name="Trazado 912368" d="M675.248,1649.128a19.991,19.991,0,0,0,1.388,3.2,5.245,5.245,0,0,1,.548,3.384" transform="translate(-628.797 -1487.417)" fill="none" stroke="#d6dde5" stroke-linecap="round" stroke-linejoin="round" stroke-width="2.271"/>
            <path id="Trazado_912369" data-name="Trazado 912369" d="M675.159,1724.328a1.983,1.983,0,0,1-.559.6c-1.485,1.154-3.392,1.573-5.131,2.288-.509.209-1.078.543-1.118,1.092" transform="translate(-622.6 -1554.981)" fill="none" stroke="#d6dde5" stroke-linecap="round" stroke-linejoin="round" stroke-width="2.271"/>
            <path id="Trazado_912370" data-name="Trazado 912370" d="M322.371,1331.8c.681-.715,1.831-.016,2.484.817,1.669,2.125,2.579,5.283,4.868,6.336.451.207.931.316,1.366.569a4.343,4.343,0,0,1,1.625,2.057,34.367,34.367,0,0,1,1.372,5.388c.458,1.8,1.35,3.672,2.866,4.378a17.58,17.58,0,0,1,2.249.821c1.447.923,1.761,3.112,1.937,4.972s.614,4.071,2.128,4.823c.408.2.857.271,1.253.507.952.57,1.319,1.906,1.575,3.094q1.408,6.533,2.388,13.148a2,2,0,0,1-.029,1.034,1.435,1.435,0,0,1-.935.7l-2.781,1.023a2.5,2.5,0,0,1-1.557.216,3.169,3.169,0,0,1-1.408-1.2q-2.647-3.346-5.024-6.954a9.163,9.163,0,0,1-1.937-4.955c.013-.947.309-1.856.262-2.805-.174-3.534-4.522-5.007-5.68-8.349-.746-2.154.014-4.623-.757-6.767-.889-2.471-3.651-4.082-3.633-6.7.006-.865.34-1.665.407-2.523.208-2.658-2.046-4.774-3.076-7.247a2.351,2.351,0,0,1,.036-2.385" transform="translate(-311.443 -1202.04)" fill="#f3967a"/>
            <path id="Trazado_912371" data-name="Trazado 912371" d="M355.784,1385.238c1.5,1.77,3.077,3.732,3.148,6.051.018.577-.061,1.156,0,1.729.313,2.809,3.773,4.372,4.317,7.146.166.845.039,1.729.232,2.568.383,1.663,1.9,2.774,3.268,3.793s2.809,2.3,2.909,4.006a11.13,11.13,0,0,1-.225,2.009,7.03,7.03,0,0,0,1.623,5.378c.515.6,1.133,1.111,1.585,1.759a8.786,8.786,0,0,1,1.164,3.207l1.091,4.938" transform="translate(-341.77 -1250.322)" fill="none" stroke="#d6dde5" stroke-linecap="round" stroke-linejoin="round" stroke-width="2.271"/>
            <path id="Trazado_912372" data-name="Trazado 912372" d="M463.67,1550.1a3.735,3.735,0,0,0-.384,1.559c.009,1.147.772,2.214.658,3.355" transform="translate(-438.357 -1398.441)" fill="none" stroke="#d6dde5" stroke-linecap="round" stroke-linejoin="round" stroke-width="2.271"/>
            <path id="Trazado_912373" data-name="Trazado 912373" d="M409.195,1429.6c.411,1.333-.094,2.755-.187,4.147a7.03,7.03,0,0,0,.732,3.612" transform="translate(-389.576 -1290.18)" fill="none" stroke="#d6dde5" stroke-linecap="round" stroke-linejoin="round" stroke-width="2.271"/>
            <path id="Trazado_912374" data-name="Trazado 912374" d="M360.015,1450.129c.779,1.08,2.342,1.389,3.072,2.5" transform="translate(-345.572 -1308.624)" fill="none" stroke="#d6dde5" stroke-linecap="round" stroke-linejoin="round" stroke-width="2.271"/>
            <path id="Trazado_912375" data-name="Trazado 912375" d="M409.575,1579.879a8.68,8.68,0,0,0,3.99,2.979,15.782,15.782,0,0,1,4.392,2.45c.039.036.081.085.064.136s-.12.022-.09-.021" transform="translate(-390.1 -1425.199)" fill="none" stroke="#d6dde5" stroke-linecap="round" stroke-linejoin="round" stroke-width="2.271"/>
            <path id="Trazado_912376" data-name="Trazado 912376" d="M509.362,1644.515a19.985,19.985,0,0,1-1.388,3.2,5.246,5.246,0,0,0-.548,3.384" transform="translate(-477.923 -1483.272)" fill="none" stroke="#d6dde5" stroke-linecap="round" stroke-linejoin="round" stroke-width="2.271"/>
            <path id="Trazado_912377" data-name="Trazado 912377" d="M467.244,1719.715a1.987,1.987,0,0,0,.559.6c1.485,1.153,3.392,1.573,5.131,2.288.509.209,1.078.543,1.118,1.092" transform="translate(-441.913 -1550.837)" fill="none" stroke="#d6dde5" stroke-linecap="round" stroke-linejoin="round" stroke-width="2.271"/>
            <path id="Trazado_912378" data-name="Trazado 912378" d="M509.561,1408.363c.631-.439,1.4.275,1.766,1.013.939,1.882,1.137,4.433,2.717,5.595.311.229.661.387.952.648a3.38,3.38,0,0,1,.916,1.823,26.747,26.747,0,0,1,.2,4.323c.067,1.444.453,3.011,1.5,3.787a13.7,13.7,0,0,1,1.586.979c.959.931.854,2.649.7,4.095s-.17,3.2.866,4.011c.279.219.611.341.875.583a3.593,3.593,0,0,1,.715,2.605q.049,5.2-.242,10.4a1.555,1.555,0,0,1-.184.784,1.117,1.117,0,0,1-.823.389l-2.281.343a1.949,1.949,0,0,1-1.221-.08,2.466,2.466,0,0,1-.885-1.135q-1.493-2.966-2.74-6.09a7.133,7.133,0,0,1-.7-4.082c.159-.72.527-1.366.64-2.1.422-2.721-2.662-4.527-3.02-7.257-.231-1.76.736-3.522.484-5.278-.29-2.023-2.143-3.685-1.718-5.679.14-.659.521-1.216.706-1.86.575-1.994-.811-3.96-1.208-6.008-.126-.651-.091-1.469.4-1.812" transform="translate(-479.516 -1270.978)" fill="#fbdbd0"/>
            <path id="Trazado_912379" data-name="Trazado 912379" d="M528.858,1453.061c.866,1.585,1.76,3.328,1.451,5.107-.077.442-.228.872-.269,1.318-.2,2.191,2.19,3.925,2.17,6.126-.006.67-.242,1.324-.226,1.994.031,1.328,1.012,2.413,1.9,3.4s1.78,2.2,1.589,3.511a8.662,8.662,0,0,1-.487,1.5,5.472,5.472,0,0,0,.394,4.354c.3.538.689,1.025.933,1.589a6.844,6.844,0,0,1,.384,2.628q.028,1.968.057,3.936" transform="translate(-497.271 -1311.258)" fill="none" stroke="#242638" stroke-linecap="round" stroke-linejoin="round" stroke-width="0.884"/>
            <path id="Trazado_912380" data-name="Trazado 912380" d="M582.692,1596.207a2.908,2.908,0,0,0-.537,1.128c-.173.875.242,1.809-.024,2.661" transform="translate(-545.117 -1439.869)" fill="none" stroke="#242638" stroke-linecap="round" stroke-linejoin="round" stroke-width="0.884"/>
            <path id="Trazado_912381" data-name="Trazado 912381" d="M555.232,1495.544c.1,1.081-.5,2.085-.793,3.132a5.469,5.469,0,0,0-.008,2.868" transform="translate(-520.079 -1349.427)" fill="none" stroke="#242638" stroke-linecap="round" stroke-linejoin="round" stroke-width="0.884"/>
            <path id="Trazado_912382" data-name="Trazado 912382" d="M521.9,1503.2c.424.946,1.567,1.426,1.949,2.39" transform="translate(-491.021 -1356.303)" fill="none" stroke="#242638" stroke-linecap="round" stroke-linejoin="round" stroke-width="0.884"/>
            <path id="Trazado_912383" data-name="Trazado 912383" d="M539.329,1609.892a6.756,6.756,0,0,0,2.574,2.9,12.284,12.284,0,0,1,2.964,2.557c.024.034.048.078.027.113s-.1,0-.065-.03" transform="translate(-506.679 -1452.165)" fill="none" stroke="#242638" stroke-linecap="round" stroke-linejoin="round" stroke-width="0.884"/>
            <path id="Trazado_912384" data-name="Trazado 912384" d="M596.79,1677.655a15.564,15.564,0,0,1-1.56,2.223,4.084,4.084,0,0,0-.949,2.494" transform="translate(-556.049 -1513.047)" fill="none" stroke="#242638" stroke-linecap="round" stroke-linejoin="round" stroke-width="0.884"/>
            <path id="Trazado_912385" data-name="Trazado 912385" d="M561.355,1725.549a1.547,1.547,0,0,0,.332.546,16.335,16.335,0,0,0,3.553,2.55c.355.239.736.583.681,1.008" transform="translate(-526.468 -1556.078)" fill="none" stroke="#242638" stroke-linecap="round" stroke-linejoin="round" stroke-width="0.884"/>
            <path id="Trazado_912386" data-name="Trazado 912386" d="M487.071,1792.238H447.725l2.013,26.839a8.961,8.961,0,0,0,8.936,8.291h17.447a8.962,8.962,0,0,0,8.937-8.291Z" transform="translate(-424.376 -1615.996)" fill="#fa6325"/>
            <path id="Trazado_912387" data-name="Trazado 912387" d="M709.618,2234.176s3.636-.316,3.5-3.015l-6.208-4.244-14.1-4.432a12.491,12.491,0,0,0-3.465.7c-1.441.6-12.178,6.694-13.2,7.184s-4.25,1.919-4.835,4.417-1.449,5.2-1.449,5.2a14.677,14.677,0,0,0-1.472,2.694c-.135.683-6.583,20.228-11.406,23.207s-15.082,6.771-15.082,6.771l12.194,16.706,18.854-11.152s9.484-5.781,13.277-13.815,6.308-13.874,6.308-13.874l1.395.167,1.5.973s-4.1,5.953-.546,8.718c0,0,1.342,1.15,4.664-4.8,0,0,.929,3.031,4.412,1.674,0,0,1.262-9.294.936-9.718s-3.281-6.126-3.281-6.126l3.058.963,5.546,4.762s4.881,1.583,5.564-1.664l-5.561-7.094-1.694-3.466Z" transform="translate(-598.834 -2002.557)" fill="#fac5c2"/>
            <path id="Trazado_912388" data-name="Trazado 912388" d="M1093.21,2334.4s.657-1.3-2.111-4.358" transform="translate(-1002.423 -2099.195)" fill="none" stroke="#d88080" stroke-miterlimit="10" stroke-width="2.104"/>
            <path id="Trazado_912389" data-name="Trazado 912389" d="M1106.027,2299.262s-3.6,4.169-6.194,4.186" transform="translate(-1010.27 -2071.538)" fill="none" stroke="#d88080" stroke-miterlimit="10" stroke-width="2.104"/>
            <line id="Línea_613" data-name="Línea 613" x1="1.377" y1="0.828" transform="translate(101.404 238.021)" fill="none" stroke="#d88080" stroke-miterlimit="10" stroke-width="2.104"/>
            <path id="Trazado_912390" data-name="Trazado 912390" d="M1261.311,2395.915a6.645,6.645,0,0,0-1.189,2.274" transform="translate(-1154.284 -2158.377)" fill="none" stroke="#d88080" stroke-miterlimit="10" stroke-width="2.104"/>
            <path id="Trazado_912391" data-name="Trazado 912391" d="M1374.51,2454.678l1.279,1.1-.951-1.587Z" transform="translate(-1257.057 -2210.736)" fill="#356493"/>
            <path id="Trazado_912392" data-name="Trazado 912392" d="M948,1988.527l3.384-3.052,36.675,38.736a20.549,20.549,0,0,1,3.171,4.678l.765,4.333-.687.62-3.988-1.261a20.524,20.524,0,0,1-4.326-3.636Z" transform="translate(-873.851 -1789.612)" fill="#242638"/>
            <path id="Trazado_912393" data-name="Trazado 912393" d="M925.583,1959.695l.833-.751a.962.962,0,0,1,1.357.07l4.22,4.679-2.26,2.038-4.22-4.679a.961.961,0,0,1,.07-1.357" transform="translate(-853.428 -1765.552)" fill="#242638"/>
            <path id="Trazado_912394" data-name="Trazado 912394" d="M951.72,1992.616l3.847-3.469-3.9-4.323a.855.855,0,0,0-1.207-.062l-2.578,2.324a.854.854,0,0,0-.062,1.207Z" transform="translate(-873.496 -1788.774)" fill="#242638"/>
            <path id="Trazado_912395" data-name="Trazado 912395" d="M1180.175,2444.608a11.378,11.378,0,0,0,2.086,2.855s.073,6.895.907,7.681" transform="translate(-1082.455 -2202.125)" fill="none" stroke="#d88080" stroke-miterlimit="10" stroke-width="2.104"/>
            <path id="Trazado_912396" data-name="Trazado 912396" d="M1018.888,2369.055s3.658,3.182,4.464,6.456" transform="translate(-937.544 -2134.244)" fill="none" stroke="#d88080" stroke-miterlimit="10" stroke-width="2.104"/>
            <path id="Trazado_912397" data-name="Trazado 912397" d="M1013.922,2292.984a23.868,23.868,0,0,0,10.706-9.765c4.238-7.245,8.782-10.819,12.491-9.009s1.054,7.353-.807,10.05-8.957,10.253-9.531,12.31" transform="translate(-933.082 -2048.612)" fill="#fac5c2"/>
            <path id="Trazado_912398" data-name="Trazado 912398" d="M1012.949,2292.219a.1.1,0,0,0,.067,0,24.2,24.2,0,0,0,10.76-9.811c4.337-7.413,8.84-10.683,12.352-8.966a3.007,3.007,0,0,1,1.676,2c.593,2.265-.988,5.667-2.524,7.892-.7,1.008-2.145,2.72-3.68,4.534-2.579,3.047-5.5,6.5-5.867,7.808a.107.107,0,1,0,.206.058c.352-1.263,3.259-4.7,5.824-7.728,1.538-1.817,2.991-3.534,3.692-4.55.565-.819,3.344-5.056,2.555-8.067a3.214,3.214,0,0,0-1.789-2.139c-3.629-1.767-8.23,1.529-12.63,9.05a23.977,23.977,0,0,1-10.653,9.719.107.107,0,0,0,.01.2" transform="translate(-932.138 -2047.744)" fill="#d88080"/>
            <path id="Trazado_912399" data-name="Trazado 912399" d="M1174.732,2285.926a6.073,6.073,0,0,0,5.807,4.225s4.132-4.281,1.153-6.719S1175.662,2284.578,1174.732,2285.926Z" transform="translate(-1077.564 -2056.57)" fill="none" stroke="#d88080" stroke-miterlimit="10" stroke-width="2.104"/>
            <path id="Trazado_912400" data-name="Trazado 912400" d="M1294.055,2275.339s-.975,1.807,1.645,3.147,3.2.162,3.2.162" transform="translate(-1184.611 -2050.044)" fill="none" stroke="#d88080" stroke-linecap="round" stroke-linejoin="round" stroke-width="2.104"/>
            <path id="Trazado_912401" data-name="Trazado 912401" d="M1242.9,2506.444a3.392,3.392,0,0,0-1.775,2.388c-.341,1.753-.352,3.117,1.045,3.544" transform="translate(-1137.046 -2257.683)" fill="none" stroke="#d88080" stroke-linecap="round" stroke-linejoin="round" stroke-width="2.104"/>
            <path id="Trazado_912402" data-name="Trazado 912402" d="M1173.716,2553.547s-1.283-1.1-2.465.754a5.559,5.559,0,0,0-1.006,3.342" transform="translate(-1073.525 -2299.714)" fill="none" stroke="#d88080" stroke-linecap="round" stroke-linejoin="round" stroke-width="2.104"/>
            <path id="Trazado_912403" data-name="Trazado 912403" d="M84.946,2671.812l-12.087-22.574L0,2685.5l6.422,36.348Z" transform="translate(-22.112 -2385.978)" fill="#356493"/>
            <line id="Línea_614" data-name="Línea 614" x2="12.897" y2="23.339" transform="translate(40.486 268.609)" fill="none" stroke="#242638" stroke-miterlimit="10" stroke-width="4.207"/>
            <path id="Trazado_912404" data-name="Trazado 912404" d="M675.926,2685.595a2.278,2.278,0,1,1,2.134,2.414,2.278,2.278,0,0,1-2.134-2.414" transform="translate(-629.402 -2416.722)" fill="#698eae"/>
            <path id="Trazado_912405" data-name="Trazado 912405" d="M682.235,2691.009a1.673,1.673,0,1,1,1.567,1.773A1.673,1.673,0,0,1,682.235,2691.009Z" transform="translate(-635.072 -2422.097)" fill="none" stroke="#242638" stroke-miterlimit="10" stroke-width="0.772"/>
            <path id="Trazado_912406" data-name="Trazado 912406" d="M691.14,2699.01a.178.178,0,1,1,.167.189.178.178,0,0,1-.167-.189" transform="translate(-643.075 -2430.546)" fill="#242638"/>
            <path id="Trazado_912407" data-name="Trazado 912407" d="M703.3,2699.761a.178.178,0,1,1,.167.189.178.178,0,0,1-.167-.189" transform="translate(-654 -2431.221)" fill="#242638"/>
            <path id="Trazado_912408" data-name="Trazado 912408" d="M702.684,2709.735a.178.178,0,1,1,.167.188.178.178,0,0,1-.167-.188" transform="translate(-653.447 -2440.182)" fill="#242638"/>
            <path id="Trazado_912409" data-name="Trazado 912409" d="M690,2708.951a.178.178,0,1,1,.167.189.178.178,0,0,1-.167-.189" transform="translate(-642.049 -2439.478)" fill="#242638"/>
            <line id="Línea_615" data-name="Línea 615" x2="1.188" y2="1.119" transform="translate(48.227 268.445)" fill="none" stroke="#242638" stroke-miterlimit="10" stroke-width="2.104"/>
            <line id="Línea_616" data-name="Línea 616" x1="1.317" y2="0.964" transform="translate(48.163 268.522)" fill="none" stroke="#242638" stroke-miterlimit="10" stroke-width="2.104"/>
            <path id="Trazado_912410" data-name="Trazado 912410" d="M2507.25,2437.705a4.274,4.274,0,0,0-3.911-2.667c-2.832.1-3.729,3.322-3.729,3.322Z" transform="translate(-2267.917 -2193.526)" fill="#242638"/>
            <path id="Trazado_912411" data-name="Trazado 912411" d="M2409.513,2493.5c-7.293,3.05-18.823-.65-24.9-7.722s-16.526-20.708-21.076-26.265,19.827-5.978,22.577-5.862,17.219,1.847,22.594,7.479c7.5,7.856,8.49,13.583,8.875,16.47.661,4.958,1.38,11.948-8.066,15.9" transform="translate(-2145.15 -2210.237)" fill="#a9bdd2"/>
            <path id="Trazado_912412" data-name="Trazado 912412" d="M2417.6,2504.586a22.356,22.356,0,0,0-.923-4.172c.08,13.594-7.881,11.886-13.871,11.123-7.583-.966-20.747-18.6-28.777-24.161a23.777,23.777,0,0,0-10.034-3.7,1.774,1.774,0,0,0-.973,1.808c2.558.545,9.494,3.238,19.309,16.493,12.552,16.951,23.865,16.885,29.356,15.594a11.694,11.694,0,0,0,5.22-3.5c1.461-3.2,1.069-6.67.694-9.487" transform="translate(-2145.171 -2237.223)" fill="#242638"/>
            <path id="Trazado_912413" data-name="Trazado 912413" d="M1465.061,1955.085c0-4.268-13.443-7.728-30.027-7.728s-30.027,3.46-30.027,7.728v3.622c0,4.268,13.443,7.728,30.027,7.728s30.027-3.46,30.027-7.728Z" transform="translate(-1284.458 -1755.365)" fill="#a9bdd2"/>
            <path id="Trazado_912414" data-name="Trazado 912414" d="M1433.449,2027.265c-16.111,0-29.258-3.266-29.993-7.366a2.029,2.029,0,0,0-.034.362v3.623c0,4.268,13.443,7.728,30.026,7.728s30.027-3.46,30.027-7.728v-3.623a2.041,2.041,0,0,0-.034-.362c-.735,4.1-13.881,7.366-29.993,7.366" transform="translate(-1283.034 -1820.541)" fill="#d4dee8"/>
            <rect id="Rectángulo_403546" data-name="Rectángulo 403546" width="12.719" height="26.887" transform="translate(143.895 171.787)" fill="#d4dee8"/>
            <path id="Trazado_912415" data-name="Trazado 912415" d="M1647.63,1999.27c0,.867-2.844,1.57-6.353,1.57s-6.353-.7-6.353-1.57,2.844-1.57,6.353-1.57,6.353.7,6.353,1.57" transform="translate(-1491.029 -1800.596)" fill="#d4dee8"/>
            <path id="Trazado_912416" data-name="Trazado 912416" d="M1013.963,675.142H839.508a3.331,3.331,0,0,0-3.331,3.331V786.76a3.331,3.331,0,0,0,3.331,3.331h174.455a3.331,3.331,0,0,0,3.331-3.331V678.473a3.331,3.331,0,0,0-3.331-3.331" transform="translate(-773.385 -612.327)" fill="#a9bdd2"/>
            <rect id="Rectángulo_403547" data-name="Rectángulo 403547" width="175.383" height="103.49" transform="translate(65.487 65.58)" fill="#242638"/>
            <path id="Trazado_912417" data-name="Trazado 912417" d="M915.2,727.566h-9.231a.966.966,0,1,1,0-1.932H915.2a.966.966,0,0,1,0,1.932" transform="translate(-835.227 -657.692)" fill="#fff"/>
            <path id="Trazado_912418" data-name="Trazado 912418" d="M1071.654,727.566h-9.231a.966.966,0,0,1,0-1.932h9.231a.966.966,0,0,1,0,1.932" transform="translate(-975.791 -657.692)" fill="#fff"/>
            <path id="Trazado_912419" data-name="Trazado 912419" d="M1216.474,727.566h-9.231a.966.966,0,0,1,0-1.932h9.231a.966.966,0,0,1,0,1.932" transform="translate(-1105.906 -657.692)" fill="#fff"/>
            <path id="Trazado_912420" data-name="Trazado 912420" d="M1372.922,727.566h-9.231a.966.966,0,0,1,0-1.932h9.231a.966.966,0,1,1,0,1.932" transform="translate(-1246.469 -657.692)" fill="#fff"/>
            <path id="Trazado_912421" data-name="Trazado 912421" d="M1531.484,727.566h-9.231a.966.966,0,1,1,0-1.932h9.231a.966.966,0,0,1,0,1.932" transform="translate(-1388.931 -657.692)" fill="#fff"/>
            <path id="Trazado_912422" data-name="Trazado 912422" d="M1680.533,727.566H1671.3a.966.966,0,1,1,0-1.932h9.231a.966.966,0,0,1,0,1.932" transform="translate(-1522.846 -657.692)" fill="#fff"/>
            <rect id="Rectángulo_403548" data-name="Rectángulo 403548" width="13.095" height="81.359" transform="translate(70.693 75.24)" fill="none" stroke="#fff" stroke-miterlimit="10" stroke-width="3.171"/>
            <line id="Línea_617" data-name="Línea 617" y2="81.466" transform="translate(77.24 75.187)" fill="none" stroke="#fff" stroke-miterlimit="10" stroke-width="3.171"/>
            <line id="Línea_618" data-name="Línea 618" x2="13.122" transform="translate(70.8 81.707)" fill="none" stroke="#fff" stroke-miterlimit="10" stroke-width="3.171"/>
            <line id="Línea_619" data-name="Línea 619" x2="13.122" transform="translate(70.8 87.745)" fill="none" stroke="#fff" stroke-miterlimit="10" stroke-width="3.171"/>
            <line id="Línea_620" data-name="Línea 620" x2="13.122" transform="translate(70.8 93.702)" fill="none" stroke="#fff" stroke-miterlimit="10" stroke-width="3.171"/>
            <line id="Línea_621" data-name="Línea 621" x2="13.122" transform="translate(70.8 99.739)" fill="none" stroke="#fff" stroke-miterlimit="10" stroke-width="3.171"/>
            <line id="Línea_622" data-name="Línea 622" x2="13.122" transform="translate(70.8 105.696)" fill="none" stroke="#fff" stroke-miterlimit="10" stroke-width="3.171"/>
            <line id="Línea_623" data-name="Línea 623" x2="13.122" transform="translate(70.8 111.734)" fill="none" stroke="#fff" stroke-miterlimit="10" stroke-width="3.171"/>
            <line id="Línea_624" data-name="Línea 624" x2="13.122" transform="translate(70.8 117.691)" fill="none" stroke="#fff" stroke-miterlimit="10" stroke-width="3.171"/>
            <line id="Línea_625" data-name="Línea 625" x2="13.122" transform="translate(70.8 123.728)" fill="none" stroke="#fff" stroke-miterlimit="10" stroke-width="3.171"/>
            <line id="Línea_626" data-name="Línea 626" x2="13.122" transform="translate(70.8 130.168)" fill="none" stroke="#fff" stroke-miterlimit="10" stroke-width="3.171"/>
            <line id="Línea_627" data-name="Línea 627" x2="13.122" transform="translate(70.8 136.206)" fill="none" stroke="#fff" stroke-miterlimit="10" stroke-width="3.171"/>
            <line id="Línea_628" data-name="Línea 628" x2="13.122" transform="translate(70.8 142.163)" fill="none" stroke="#fff" stroke-miterlimit="10" stroke-width="3.171"/>
            <line id="Línea_629" data-name="Línea 629" x2="13.122" transform="translate(70.8 148.2)" fill="none" stroke="#fff" stroke-miterlimit="10" stroke-width="3.171"/>
          </g>
        </g>
        <g id="Grupo_1101893" data-name="Grupo 1101893" transform="translate(126.608 89.331)">
          <g id="Grupo_1101892" data-name="Grupo 1101892" clip-path="url(#clip-path-4)">
            <rect id="Rectángulo_403550" data-name="Rectángulo 403550" width="56.361" height="78.348" transform="translate(-2.368 -2.842)" fill="#fff"/>
            <path id="Trazado_912423" data-name="Trazado 912423" d="M1430.644,966.912l-24.364,2.143q-.121.24-.234.486l25.445-1.362a14.419,14.419,0,0,0-.847-1.267" transform="translate(-1389.887 -958.065)" fill="#a9bdd2"/>
            <path id="Trazado_912424" data-name="Trazado 912424" d="M1437.507,1092.473l-26.334,2.868a14.389,14.389,0,0,0,1.028,1.587l23.344-.393a14.327,14.327,0,0,0,1.962-4.062" transform="translate(-1394.494 -1070.877)" fill="#a9bdd2"/>
            <path id="Trazado_912425" data-name="Trazado 912425" d="M1422,1018.219a14.4,14.4,0,0,0-.5-3.786l-27.969.914a14.454,14.454,0,0,0,.729,8.189l27.743-5.2c0-.04,0-.079,0-.119" transform="translate(-1378.384 -1000.762)" fill="#a9bdd2"/>
            <path id="Trazado_912426" data-name="Trazado 912426" d="M1441.931,915.084a14.381,14.381,0,0,0-22.626,1.074c4.938-.24,16.756-.812,22.626-1.074" transform="translate(-1401.8 -907.015)" fill="#a9bdd2"/>
            <path id="Trazado_912427" data-name="Trazado 912427" d="M1430.377,1147.308a14.377,14.377,0,0,0,20.652.585Z" transform="translate(-1411.748 -1120.144)" fill="#a9bdd2"/>
            <path id="Trazado_912428" data-name="Trazado 912428" d="M1336.1,1249.018l-24.364,2.143q-.121.241-.234.486l25.445-1.362a14.4,14.4,0,0,0-.847-1.267" transform="translate(-1304.943 -1211.527)" fill="#f3967a"/>
            <path id="Trazado_912429" data-name="Trazado 912429" d="M1342.964,1374.58l-26.334,2.868a14.407,14.407,0,0,0,1.028,1.587l23.344-.393a14.323,14.323,0,0,0,1.962-4.062" transform="translate(-1309.551 -1324.339)" fill="#f3967a"/>
            <path id="Trazado_912430" data-name="Trazado 912430" d="M1327.459,1300.326a14.39,14.39,0,0,0-.5-3.785l-27.969.914a14.455,14.455,0,0,0,.729,8.189l27.743-5.2c0-.04,0-.079,0-.119" transform="translate(-1293.44 -1254.224)" fill="#f3967a"/>
            <path id="Trazado_912431" data-name="Trazado 912431" d="M1347.387,1197.189a14.382,14.382,0,0,0-22.626,1.074c4.938-.24,16.756-.812,22.626-1.074" transform="translate(-1316.856 -1160.476)" fill="#f3967a"/>
            <path id="Trazado_912432" data-name="Trazado 912432" d="M1335.833,1429.415a14.378,14.378,0,0,0,20.653.584Z" transform="translate(-1326.804 -1373.607)" fill="#f3967a"/>
            <path id="Trazado_912433" data-name="Trazado 912433" d="M1409.592,1358.9h8.206l-1.084,5.884s6.968,11.3,6.968,13.006c0,1.405-12.336,1.019-16.649.84a1.047,1.047,0,0,1-.93-1.432l4.882-12.414Z" transform="translate(-1389.873 -1310.251)" fill="#d4dee8"/>
            <path id="Trazado_912434" data-name="Trazado 912434" d="M1481.183,1101.191s-6.5,16.567-4.335,41.805" transform="translate(-1453.102 -1078.71)" fill="none" stroke="#242638" stroke-linecap="round" stroke-linejoin="round" stroke-width="6.1"/>
            <path id="Trazado_912435" data-name="Trazado 912435" d="M1399.943,1143.888s10.219,12.387,9.755,37.47" transform="translate(-1384.404 -1117.071)" fill="none" stroke="#242638" stroke-linecap="round" stroke-linejoin="round" stroke-width="6.1"/>
            <path id="Trazado_912436" data-name="Trazado 912436" d="M1476.027,1247.581s-10.684,5.884-10.529,26.941" transform="translate(-1443.301 -1210.236)" fill="none" stroke="#242638" stroke-linecap="round" stroke-linejoin="round" stroke-width="6.1"/>
            <path id="Trazado_912437" data-name="Trazado 912437" d="M1501.573,947.534a1.906,1.906,0,0,0-2.084.112,5.171,5.171,0,0,0-1.426,1.675q-1,1.616-1.856,3.313c-1.18,2.334-2.161,5.082-1.186,7.509.937,2.329,3.422,3.653,5.847,4.3a6.86,6.86,0,0,0,3.424.211c1.7-.43,2.929-1.86,4.018-3.232,1.433-1.807,2.879-3.791,3.045-6.092a9,9,0,0,0-5.368.664,15.379,15.379,0,0,0,1.262-4.146,1.769,1.769,0,0,0-.324-1.627,1.713,1.713,0,0,0-1.3-.264,10.673,10.673,0,0,0-3.94,1.155c.536-1.186.961-2.835-.106-3.578" transform="translate(-1469.471 -940.42)" fill="#fa6325"/>
            <path id="Trazado_912438" data-name="Trazado 912438" d="M1311.093,1049.247c1.978-.048,3.105-2.265,3.571-4.188a6.787,6.787,0,0,0,.159-3.378,2.79,2.79,0,0,0-2.371-2.144c-.56-.023-1.344.036-1.453-.514a7,7,0,0,0,4.136-5.359,9.706,9.706,0,0,0-1.556-6.743,4.853,4.853,0,0,0-3.449-2.514c-1.473-.1-3.012,1.427-2.425,2.782-1.527-.335-3.321-.607-4.484.438a3.783,3.783,0,0,0-.959,1.569,7.943,7.943,0,0,0,.469,6.353,8.1,8.1,0,0,0-2.954,2.394,2.776,2.776,0,0,0,.22,3.512,3.652,3.652,0,0,0,2.46.636,17.463,17.463,0,0,0,5.252-.871,10.375,10.375,0,0,0-.108,4.176c.334,1.861,1.6,3.9,3.491,3.852" transform="translate(-1293.946 -1009.717)" fill="#fa6325"/>
            <path id="Trazado_912439" data-name="Trazado 912439" d="M1485.189,1177.945c-.306.755.266,1.565.343,2.376a2.693,2.693,0,0,1-1.754,2.53,7.891,7.891,0,0,1-3.24.417,1.948,1.948,0,0,1-1.028-.2,1.791,1.791,0,0,1-.641-.98,10.679,10.679,0,0,1-.589-3.94,6.051,6.051,0,0,1-3.008,1.827c-1.888.28-3.67-1.419-3.956-3.306a6.589,6.589,0,0,1,1.894-5.206c1.522-1.694,4.035-2.9,6.067-1.87q-.008-1.387-.017-2.774a1.575,1.575,0,0,1,.149-.834,1.506,1.506,0,0,1,.944-.557,15.136,15.136,0,0,1,4.658-.531,1.963,1.963,0,0,1,.973.224,1.838,1.838,0,0,1,.687,1.3,7.011,7.011,0,0,1-1.771,5.886,6.2,6.2,0,0,1,3.438-.236,3.379,3.379,0,0,1,2.456,2.254,3.227,3.227,0,0,1-1.618,3.47,4.751,4.751,0,0,1-3.985.147" transform="translate(-1448.482 -1135.934)" fill="#fa6325"/>
            <path id="Trazado_912440" data-name="Trazado 912440" d="M1548.185,959.258a31.694,31.694,0,0,0-6.287,2.59,16.735,16.735,0,0,0,.322-3.863.782.782,0,0,0-.918-.9,12.3,12.3,0,0,0-5.065.736,13.465,13.465,0,0,0,.587-4.525c-.03-.7-.039-1.563.565-1.924" transform="translate(-1506.859 -944.104)" fill="none" stroke="#242638" stroke-linecap="round" stroke-linejoin="round" stroke-width="3.05"/>
            <path id="Trazado_912441" data-name="Trazado 912441" d="M1515.031,1038.665a9.09,9.09,0,0,0,.316,6.383,7.375,7.375,0,0,0,5.668-1.87l.211.055" transform="translate(-1487.417 -1022.533)" fill="none" stroke="#242638" stroke-linecap="round" stroke-linejoin="round" stroke-width="3.05"/>
            <path id="Trazado_912442" data-name="Trazado 912442" d="M1366.64,1049.313a12.486,12.486,0,0,0,2.229,5.465,5.817,5.817,0,0,0-1.612-.864,1.976,1.976,0,0,0-1.752.243,1.934,1.934,0,0,0-.632,1.708,4.8,4.8,0,0,0,.637,1.776,19.884,19.884,0,0,0,1.409,2.25,4.559,4.559,0,0,0,1.317,1.331,1.823,1.823,0,0,0,1.8.1,8.785,8.785,0,0,1-3.725,1.921" transform="translate(-1352.886 -1032.099)" fill="none" stroke="#242638" stroke-linecap="round" stroke-linejoin="round" stroke-width="3.05"/>
            <path id="Trazado_912443" data-name="Trazado 912443" d="M1331.05,1127.6a6.367,6.367,0,0,1,3.853-.835" transform="translate(-1322.506 -1101.66)" fill="none" stroke="#242638" stroke-linecap="round" stroke-linejoin="round" stroke-width="3.05"/>
            <path id="Trazado_912444" data-name="Trazado 912444" d="M1535.537,1217.741c-.412-.111-.851-.114-1.249-.265a.983.983,0,0,1-.711-.946.873.873,0,0,1,.615-.659,2.284,2.284,0,0,1,.942-.052,1.831,1.831,0,0,1,1.182.429,2,2,0,0,1-.845-1.3,1.228,1.228,0,0,1,.708-1.3.894.894,0,0,1,1.182.7c.467-.243.4-1.144.927-1.191.393-.035.577.5.5.885s-.27.793-.112,1.154c.2.051.431-.047.622.039a.488.488,0,0,1,.146.679,1.414,1.414,0,0,1-.607.479,2.479,2.479,0,0,1,1.926,1.473.659.659,0,0,1,.054.471c-.128.351-.63.318-.99.219l-1.407-.387c.01.452.12.9.107,1.352a1.341,1.341,0,0,1-.578,1.16.939.939,0,0,1-1.323-.831,2.981,2.981,0,0,1-1.317.831,1.026,1.026,0,0,1-1.24-.678,1.242,1.242,0,0,1,.145-.727,3.715,3.715,0,0,1,1.321-1.531" transform="translate(-1504.464 -1179.302)" fill="#242638"/>
          </g>
        </g>
        <g id="Grupo_1101895" data-name="Grupo 1101895" transform="translate(22.112 5.738)">
          <g id="Grupo_1101894" data-name="Grupo 1101894" clip-path="url(#clip-path-3)">
            <rect id="Rectángulo_403552" data-name="Rectángulo 403552" width="33.917" height="15.456" transform="translate(196.649 129.551)" fill="none" stroke="#fff" stroke-miterlimit="10" stroke-width="3.171"/>
            <line id="Línea_630" data-name="Línea 630" x2="34.025" transform="translate(196.542 133.308)" fill="none" stroke="#fff" stroke-miterlimit="10" stroke-width="3.171"/>
            <path id="Trazado_912445" data-name="Trazado 912445" d="M2190.646,1395.32H2187a.8.8,0,0,1,0-1.61h3.649a.8.8,0,0,1,0,1.61" transform="translate(-1986.323 -1257.933)" fill="#fff"/>
            <path id="Trazado_912446" data-name="Trazado 912446" d="M2190.646,1431.261H2187a.8.8,0,0,1,0-1.61h3.649a.8.8,0,0,1,0,1.61" transform="translate(-1986.323 -1290.225)" fill="#fff"/>
            <path id="Trazado_912447" data-name="Trazado 912447" d="M2295.3,1395.32h-3.649a.8.8,0,0,1,0-1.61h3.649a.8.8,0,0,1,0,1.61" transform="translate(-2080.349 -1257.933)" fill="#fff"/>
            <path id="Trazado_912448" data-name="Trazado 912448" d="M2295.3,1431.261h-3.649a.8.8,0,0,1,0-1.61h3.649a.8.8,0,0,1,0,1.61" transform="translate(-2080.349 -1290.225)" fill="#fff"/>
            <path id="Trazado_912449" data-name="Trazado 912449" d="M2399.156,1395.32h-3.65a.8.8,0,0,1,0-1.61h3.65a.8.8,0,0,1,0,1.61" transform="translate(-2173.661 -1257.933)" fill="#fff"/>
            <path id="Trazado_912450" data-name="Trazado 912450" d="M2399.156,1431.261h-3.65a.8.8,0,0,1,0-1.61h3.65a.8.8,0,0,1,0,1.61" transform="translate(-2173.661 -1290.225)" fill="#fff"/>
          </g>
        </g>
        <g id="Grupo_1101897" data-name="Grupo 1101897" transform="translate(202.628 90.954)">
          <g id="Grupo_1101896" data-name="Grupo 1101896" clip-path="url(#clip-path-6)">
            <rect id="Rectángulo_403554" data-name="Rectángulo 403554" width="34.227" height="34.608" transform="translate(-0.843 -0.086)" fill="#a9bdd2"/>
            <path id="Trazado_912451" data-name="Trazado 912451" d="M1987.427,871.645,2004.209,886l9.879-19.286Z" transform="translate(-1988.257 -869.666)" fill="#f3967a"/>
            <path id="Trazado_912452" data-name="Trazado 912452" d="M2152.706,887.616l5.622,20.594,17.47-19.92-8.653-16.968-6.742-2.809Z" transform="translate(-2136.753 -871.28)" fill="#356493"/>
            <path id="Trazado_912453" data-name="Trazado 912453" d="M2179.528,892.068l-4.424,10.919,1.694,1.694,9.413-8Z" transform="translate(-2156.877 -892.444)" fill="#fa6325"/>
            <path id="Trazado_912454" data-name="Trazado 912454" d="M2090.575,986.3a7.669,7.669,0,1,0-7.669,7.67,7.669,7.669,0,0,0,7.669-7.67" transform="translate(-2067.149 -970.216)" fill="#242638"/>
          </g>
        </g>
        <g id="Grupo_1101905" data-name="Grupo 1101905" transform="translate(22.112 5.738)">
          <g id="Grupo_1101904" data-name="Grupo 1101904" clip-path="url(#clip-path-3)">
            <rect id="Rectángulo_403555" data-name="Rectángulo 403555" width="48.944" height="48.944" transform="translate(172.231 74.65)" fill="none" stroke="#fff" stroke-miterlimit="10" stroke-width="3.171"/>
            <line id="Línea_631" data-name="Línea 631" x2="48.837" transform="translate(172.231 79.909)" fill="none" stroke="#fff" stroke-miterlimit="10" stroke-width="3.171"/>
            <path id="Trazado_912456" data-name="Trazado 912456" d="M1941.474,812.649h-7.889a.563.563,0,1,1,0-1.127h7.889a.563.563,0,1,1,0,1.127" transform="translate(-1758.858 -734.859)" fill="#fff"/>
            <path id="Trazado_912457" data-name="Trazado 912457" d="M2081.8,812.649h-7.889a.563.563,0,0,1,0-1.127h7.889a.563.563,0,1,1,0,1.127" transform="translate(-1884.938 -734.859)" fill="#fff"/>
            <path id="Trazado_912458" data-name="Trazado 912458" d="M2206.273,812.649h-7.889a.563.563,0,0,1,0-1.127h7.889a.563.563,0,1,1,0,1.127" transform="translate(-1996.771 -734.859)" fill="#fff"/>
            <path id="Trazado_912459" data-name="Trazado 912459" d="M1711.235,1317.446l3.7,9.773.988-2.742,3.245,3.6,1.784-1.609-3.277-3.633,2.986-.778Z" transform="translate(-1559.591 -1189.413)" fill="#fff"/>
            <path id="Trazado_912460" data-name="Trazado 912460" d="M1711.235,1317.446l3.7,9.773.988-2.742,3.245,3.6,1.784-1.609-3.277-3.633,2.986-.778Z" transform="translate(-1559.591 -1189.413)" fill="none" stroke="#1a1a1a" stroke-miterlimit="10" stroke-width="1.437"/>
            <path id="Trazado_912461" data-name="Trazado 912461" d="M1777.976,838.559v-1.932h-1.932" transform="translate(-1617.82 -757.415)" fill="none" stroke="#fff" stroke-linecap="round" stroke-linejoin="round" stroke-width="6.342"/>
            <line id="Línea_632" data-name="Línea 632" x1="50.281" transform="translate(104.219 79.212)" fill="none" stroke="#fff" stroke-linecap="round" stroke-linejoin="round" stroke-width="6.342" stroke-dasharray="36.681 36.681"/>
            <path id="Trazado_912462" data-name="Trazado 912462" d="M1208.737,836.627h-1.932v1.932" transform="translate(-1106.381 -757.416)" fill="none" stroke="#fff" stroke-linecap="round" stroke-linejoin="round" stroke-width="6.342"/>
            <line id="Línea_633" data-name="Línea 633" y2="69.103" transform="translate(100.424 85.092)" fill="none" stroke="#fff" stroke-linecap="round" stroke-linejoin="round" stroke-width="6.342" stroke-dasharray="38.889 38.889"/>
            <path id="Trazado_912463" data-name="Trazado 912463" d="M1206.806,1594.555v1.932h1.932" transform="translate(-1106.381 -1438.385)" fill="none" stroke="#fff" stroke-linecap="round" stroke-linejoin="round" stroke-width="6.342"/>
            <line id="Línea_634" data-name="Línea 634" x2="50.28" transform="translate(106.081 158.102)" fill="none" stroke="#fff" stroke-linecap="round" stroke-linejoin="round" stroke-width="6.342" stroke-dasharray="36.681 36.681"/>
            <path id="Trazado_912464" data-name="Trazado 912464" d="M1776.045,1596.488h1.932v-1.932" transform="translate(-1617.821 -1438.386)" fill="none" stroke="#fff" stroke-linecap="round" stroke-linejoin="round" stroke-width="6.342"/>
            <line id="Línea_635" data-name="Línea 635" y1="69.103" transform="translate(160.156 83.118)" fill="none" stroke="#fff" stroke-linecap="round" stroke-linejoin="round" stroke-width="6.342" stroke-dasharray="38.889 38.889"/>
            <path id="Trazado_912465" data-name="Trazado 912465" d="M2346.6,1227.082a1.449,1.449,0,1,0-1.449,1.449A1.449,1.449,0,0,0,2346.6,1227.082Z" transform="translate(-2127.836 -1106.923)" fill="none" stroke="#fff" stroke-linecap="round" stroke-linejoin="round" stroke-width="6.342" stroke-dasharray="38.055 38.055"/>
            <path id="Trazado_912466" data-name="Trazado 912466" d="M2292.685,1227.082a1.449,1.449,0,1,0-1.449,1.449A1.449,1.449,0,0,0,2292.685,1227.082Z" transform="translate(-2079.399 -1106.923)" fill="none" stroke="#fff" stroke-linecap="round" stroke-linejoin="round" stroke-width="6.342" stroke-dasharray="38.055 38.055"/>
            <path id="Trazado_912467" data-name="Trazado 912467" d="M1888.233,1331.342h-26.565v28.336h26.565Z" transform="translate(-1694.75 -1201.898)" fill="none" stroke="#fff" stroke-miterlimit="10" stroke-width="3.171"/>
            <line id="Línea_636" data-name="Línea 636" x2="26.646" transform="translate(166.837 131.456)" fill="none" stroke="#fff" stroke-miterlimit="10" stroke-width="3.171"/>
            <path id="Trazado_912468" data-name="Trazado 912468" d="M1895.454,1381.929a3.019,3.019,0,1,0-3.019,3.019,3.019,3.019,0,0,0,3.019-3.019" transform="translate(-1719.682 -1244.636)" fill="#fff"/>
            <path id="Trazado_912469" data-name="Trazado 912469" d="M1983.5,1403.753a1.852,1.852,0,1,0-1.852,1.852,1.852,1.852,0,0,0,1.852-1.852" transform="translate(-1800.885 -1265.294)" fill="#fff"/>
            <path id="Trazado_912470" data-name="Trazado 912470" d="M2050.784,1419.557a1.006,1.006,0,1,0-1.006,1.006,1.006,1.006,0,0,0,1.006-1.006" transform="translate(-1862.856 -1280.252)" fill="#fff"/>
            <rect id="Rectángulo_403556" data-name="Rectángulo 403556" width="4.83" height="4.83" transform="translate(170.138 144.739)" fill="#fff"/>
            <rect id="Rectángulo_403557" data-name="Rectángulo 403557" width="3.663" height="3.663" transform="translate(178.872 145.906)" fill="#fff"/>
            <rect id="Rectángulo_403558" data-name="Rectángulo 403558" width="1.852" height="1.852" transform="translate(185.936 147.717)" fill="#fff"/>
            <line id="Línea_637" data-name="Línea 637" x2="26.404" transform="translate(166.918 154.399)" fill="none" stroke="#fff" stroke-miterlimit="10" stroke-width="3.171"/>
            <path id="Trazado_912471" data-name="Trazado 912471" d="M2584.557,2386.828s-1.43-4.573-2.333-6.572-4.835-8.369-5.638-10.218-9.513-10.339-9.513-10.339l-6.933-6.316s-5.456-4.431-6.773-.989c0,0-4.147-2.432-4.559-2.563s-4.9-2.582-6.123-1.071-.71,2.1-.71,2.1-2.844-3.343-4.971-1.962-1.222,4.68,2.081,7.432c0,0-3.5-3.474-5.065-2.225s-.829,4.66,2.016,8.247a60.378,60.378,0,0,0,4.263,5.526s1.439,4.039,7.634,9.656c0,0,6.562,9.492,4.4,10.557s-7.267-3.329-8.592-3.527c0,0-6.92-6.054-10.978-2.312,0,0-1.4,1.476,3.631,4.62l4.4,3.995s6.694,4.9,7.194,5.329,1.277,2.073,6.592,3.78l12.466,3,9.206,15.476,19.975-10.262Z" transform="translate(-2297.544 -2115.57)" fill="#fac5c2"/>
            <path id="Trazado_912472" data-name="Trazado 912472" d="M2737.267,2388.887s6.126,3.59,6.915,4.526,5.02,6.131,6.41,8.292a6.81,6.81,0,0,0,2.591,2.659" transform="translate(-2481.443 -2152.063)" fill="none" stroke="#d88080" stroke-linecap="round" stroke-linejoin="round" stroke-width="1.883"/>
            <path id="Trazado_912473" data-name="Trazado 912473" d="M2625.067,2373.79s7.62,5.884,8.3,6.409a40.411,40.411,0,0,1,3.979,3.2c1.414,1.386,5.845,6.23,7.5,7.4" transform="translate(-2380.635 -2138.498)" fill="none" stroke="#d88080" stroke-linecap="round" stroke-linejoin="round" stroke-width="1.883"/>
            <path id="Trazado_912474" data-name="Trazado 912474" d="M2587.082,2419.2s6.671,6.492,7.81,7.628,7.435,8.041,8.4,8.752" transform="translate(-2346.507 -2179.298)" fill="none" stroke="#d88080" stroke-linecap="round" stroke-linejoin="round" stroke-width="1.883"/>
            <path id="Trazado_912475" data-name="Trazado 912475" d="M2629.511,2510.147a11.951,11.951,0,0,1,4.018-2.808" transform="translate(-2384.628 -2258.488)" fill="none" stroke="#d88080" stroke-linecap="round" stroke-linejoin="round" stroke-width="1.883"/>
            <path id="Trazado_912476" data-name="Trazado 912476" d="M2632.879,2502.733a5.132,5.132,0,0,0-3.111,1.673" transform="translate(-2384.859 -2254.349)" fill="none" stroke="#d88080" stroke-linecap="round" stroke-linejoin="round" stroke-width="1.883"/>
            <path id="Trazado_912477" data-name="Trazado 912477" d="M2643.636,2519a7.042,7.042,0,0,0,3.017-1.691" transform="translate(-2397.319 -2267.441)" fill="none" stroke="#d88080" stroke-linecap="round" stroke-linejoin="round" stroke-width="1.883"/>
            <path id="Trazado_912478" data-name="Trazado 912478" d="M2692.327,2465.311a8.572,8.572,0,0,1,3.747-2.179" transform="translate(-2441.066 -2218.768)" fill="none" stroke="#d88080" stroke-linecap="round" stroke-linejoin="round" stroke-width="1.883"/>
            <path id="Trazado_912479" data-name="Trazado 912479" d="M2691.426,2457.516a11.99,11.99,0,0,0-2.717,1.41" transform="translate(-2437.815 -2213.723)" fill="none" stroke="#d88080" stroke-linecap="round" stroke-linejoin="round" stroke-width="1.883"/>
            <path id="Trazado_912480" data-name="Trazado 912480" d="M2710.388,2473.932a7.749,7.749,0,0,1-2.267,1.6" transform="translate(-2455.256 -2228.472)" fill="none" stroke="#d88080" stroke-linecap="round" stroke-linejoin="round" stroke-width="1.883"/>
            <path id="Trazado_912481" data-name="Trazado 912481" d="M2773.716,2435.249a7.746,7.746,0,0,0-3.41,1.71" transform="translate(-2511.127 -2193.717)" fill="none" stroke="#d88080" stroke-linecap="round" stroke-linejoin="round" stroke-width="1.883"/>
            <path id="Trazado_912482" data-name="Trazado 912482" d="M2771.618,2430.437a2.587,2.587,0,0,0-2.343,1" transform="translate(-2510.202 -2189.382)" fill="none" stroke="#d88080" stroke-linecap="round" stroke-linejoin="round" stroke-width="1.883"/>
            <path id="Trazado_912483" data-name="Trazado 912483" d="M2784.554,2444.475a10.784,10.784,0,0,1-2.792,1.3" transform="translate(-2521.42 -2202.006)" fill="none" stroke="#d88080" stroke-linecap="round" stroke-linejoin="round" stroke-width="1.883"/>
            <path id="Trazado_912484" data-name="Trazado 912484" d="M2608.92,2738.649a21.947,21.947,0,0,0,1.559-2.615" transform="translate(-2366.128 -2463.961)" fill="none" stroke="#d88080" stroke-linecap="round" stroke-linejoin="round" stroke-width="1.883"/>
            <path id="Trazado_912485" data-name="Trazado 912485" d="M2618.16,2754.2s.8-1.076,1-1.426" transform="translate(-2374.43 -2479)" fill="none" stroke="#d88080" stroke-linecap="round" stroke-linejoin="round" stroke-width="1.883"/>
            <path id="Trazado_912486" data-name="Trazado 912486" d="M2741.742,2376.286s2.153,1.305,1.872,1.737-1.324,1.759-5.012-1.021C2738.6,2377,2739.364,2375.375,2741.742,2376.286Z" transform="translate(-2482.642 -2140.492)" fill="none" stroke="#d88080" stroke-linecap="round" stroke-linejoin="round" stroke-width="1.883"/>
            <path id="Trazado_912487" data-name="Trazado 912487" d="M2632.815,2349.264s.645.843-.717,1.482-3.031.7-4.032-1.126C2628.066,2349.62,2628.319,2347.363,2632.815,2349.264Z" transform="translate(-2383.33 -2115.779)" fill="none" stroke="#d88080" stroke-linecap="round" stroke-linejoin="round" stroke-width="1.883"/>
            <path id="Trazado_912488" data-name="Trazado 912488" d="M2573.142,2352.935a3.192,3.192,0,0,1-2.91,1.566,2.627,2.627,0,0,1-2.115-1.947S2569.551,2349.589,2573.142,2352.935Z" transform="translate(-2329.468 -2118.33)" fill="none" stroke="#d88080" stroke-linecap="round" stroke-linejoin="round" stroke-width="1.883"/>
            <path id="Trazado_912489" data-name="Trazado 912489" d="M2542.625,2403.615a10.793,10.793,0,0,1,1.251,1.549c-.031.156-1.773,1.565-2.979,1.26a2.863,2.863,0,0,1-1.7-1.735S2539.647,2401.593,2542.625,2403.615Z" transform="translate(-2303.483 -2164.679)" fill="none" stroke="#d88080" stroke-linecap="round" stroke-linejoin="round" stroke-width="1.883"/>
            <path id="Trazado_912490" data-name="Trazado 912490" d="M2537.887,2687.371a2.578,2.578,0,0,0-.666-2.862,4.813,4.813,0,0,0-2.877-1.546" transform="translate(-2299.124 -2416.279)" fill="none" stroke="#d88080" stroke-linecap="round" stroke-linejoin="round" stroke-width="1.883"/>
            <path id="Trazado_912491" data-name="Trazado 912491" d="M2891.775,2826.6l27.466,48.484,28.182-10.875-33.614-52.443Z" transform="translate(-2620.262 -2532)" fill="#356493"/>
            <path id="Trazado_912492" data-name="Trazado 912492" d="M2932.274,2949.673a2.04,2.04,0,1,1,2.335,1.693,2.04,2.04,0,0,1-2.335-1.693" transform="translate(-2656.626 -2653.787)" fill="#698eae"/>
            <path id="Trazado_912493" data-name="Trazado 912493" d="M2937.914,2954.333a1.5,1.5,0,1,1,1.715,1.244A1.5,1.5,0,0,1,2937.914,2954.333Z" transform="translate(-2661.7 -2658.537)" fill="none" stroke="#242638" stroke-miterlimit="10" stroke-width="0.691"/>
            <path id="Trazado_912494" data-name="Trazado 912494" d="M2944.96,2962.453a.159.159,0,1,1,.182.132.159.159,0,0,1-.182-.132" transform="translate(-2668.046 -2667.225)" fill="#242638"/>
            <path id="Trazado_912495" data-name="Trazado 912495" d="M2955.731,2960.738a.159.159,0,1,1,.183.133.16.16,0,0,1-.183-.133" transform="translate(-2677.723 -2665.683)" fill="#242638"/>
            <path id="Trazado_912496" data-name="Trazado 912496" d="M2957.137,2969.573a.159.159,0,1,1,.182.132.159.159,0,0,1-.182-.132" transform="translate(-2678.986 -2673.621)" fill="#242638"/>
            <path id="Trazado_912497" data-name="Trazado 912497" d="M2945.9,2971.362a.159.159,0,1,1,.182.132.159.159,0,0,1-.182-.132" transform="translate(-2668.891 -2675.228)" fill="#242638"/>
            <line id="Línea_638" data-name="Línea 638" x2="1.256" y2="0.746" transform="translate(277.052 295.181)" fill="none" stroke="#242638" stroke-miterlimit="10" stroke-width="1.883"/>
            <line id="Línea_639" data-name="Línea 639" x1="0.963" y2="1.099" transform="translate(277.199 295.004)" fill="none" stroke="#242638" stroke-miterlimit="10" stroke-width="1.883"/>
            <line id="Línea_640" data-name="Línea 640" y1="14.309" x2="22.99" transform="translate(275.556 287.284)" fill="none" stroke="#242638" stroke-miterlimit="10" stroke-width="3.766"/>
            <path id="Trazado_912498" data-name="Trazado 912498" d="M2683.864,1717.767c0-.995-7.957-1.8-17.771-1.8s-17.771.807-17.771,1.8c0,.511,5.487,41.766,5.487,41.766h24.568s5.487-41.254,5.487-41.766" transform="translate(-2401.529 -1547.467)" fill="#fff"/>
            <path id="Trazado_912499" data-name="Trazado 912499" d="M2689.351,1730.044c0,.648-7.589,1.174-16.952,1.174s-16.952-.525-16.952-1.174,7.59-1.174,16.952-1.174,16.952.526,16.952,1.174" transform="translate(-2407.931 -1559.062)" fill="#242638"/>
            <path id="Trazado_912500" data-name="Trazado 912500" d="M2918.969,1796.916l-3.685-3.726c15.962-15.8,14.761-20.691,14.36-21.51-.888-1.8-5.38-2-7.585-1.709l-.691-5.2c1.026-.141,10.147-1.177,12.98,4.594,2.779,5.661-2.106,14.413-15.378,27.547" transform="translate(-2641.384 -1591.177)" fill="#fff"/>
            <path id="Trazado_912501" data-name="Trazado 912501" d="M1991.141,2040.867s-23.5.659-19.642-15.134c5.152-21.091-5.313-34.937-33.327-34.776" transform="translate(-1763.486 -1794.536)" fill="none" stroke="#a9bdd2" stroke-linecap="round" stroke-miterlimit="10" stroke-width="15.856"/>
            <line id="Línea_641" data-name="Línea 641" y1="18.461" transform="translate(118.604 197.28)" fill="none" stroke="#a9bdd2" stroke-linecap="round" stroke-miterlimit="10" stroke-width="15.856"/>
            <path id="Trazado_912502" data-name="Trazado 912502" d="M112.63,2399.7c-6.762,0-31.556-4.025-37.513.483s11.431,25.277-9.177,24.794-25.76-2.737-25.76-2.737" transform="translate(-58.212 -2160.287)" fill="none" stroke="#a9bdd2" stroke-linecap="round" stroke-miterlimit="10" stroke-width="15.856"/>
            <path id="Trazado_912503" data-name="Trazado 912503" d="M2394.148,2095.146s-47.369,6.2-48.869,7.072a72.043,72.043,0,0,0-6.186,5.293,1.759,1.759,0,0,1-2.879-.806l-.17-.583a2.158,2.158,0,0,1,1.265-2.605l6.7-2.7,45.875-9.048,3.953-.886.263,3.054Z" transform="translate(-2120.882 -1884.315)" fill="#242638"/>
            <path id="Trazado_912504" data-name="Trazado 912504" d="M2371.764,2096.738s47.369,6.2,48.869,7.072a72.068,72.068,0,0,1,6.185,5.293,1.76,1.76,0,0,0,2.879-.806l.17-.583a2.159,2.159,0,0,0-1.265-2.605l-6.7-2.7-45.875-9.048-3.953-.886-.263,3.054Z" transform="translate(-2153.052 -1885.745)" fill="#242638"/>
            <g id="Grupo_1101900" data-name="Grupo 1101900" transform="translate(250.19 205.839)" opacity="0.66">
              <g id="Grupo_1101899" data-name="Grupo 1101899">
                <g id="Grupo_1101898" data-name="Grupo 1101898" clip-path="url(#clip-path-8)">
                  <path id="Trazado_912505" data-name="Trazado 912505" d="M2702.578,2083.72h-17.591a3.21,3.21,0,0,0-3.2,3.464l.542,6.83a3.21,3.21,0,0,0,3.2,2.957h13.814a4.8,4.8,0,0,0,4.746-4.1l.926-6.329a2.462,2.462,0,0,0-2.437-2.819" transform="translate(-2681.777 -2083.72)" fill="#d4dee8"/>
                </g>
              </g>
            </g>
            <path id="Trazado_912506" data-name="Trazado 912506" d="M2695.056,2093.165h-13.815a3.714,3.714,0,0,1-3.684-3.4l-.541-6.83a3.7,3.7,0,0,1,3.683-3.987h17.591a2.947,2.947,0,0,1,2.917,3.374l-.926,6.33a5.311,5.311,0,0,1-5.225,4.516m-14.356-13.25a2.726,2.726,0,0,0-2.717,2.941l.542,6.83a2.739,2.739,0,0,0,2.717,2.51h13.815a4.335,4.335,0,0,0,4.266-3.687l.926-6.33a1.978,1.978,0,0,0-1.957-2.264Z" transform="translate(-2427.3 -1873.591)" fill="#242638"/>
            <g id="Grupo_1101903" data-name="Grupo 1101903" transform="translate(218.68 205.839)" opacity="0.66">
              <g id="Grupo_1101902" data-name="Grupo 1101902">
                <g id="Grupo_1101901" data-name="Grupo 1101901" clip-path="url(#clip-path-8)">
                  <path id="Trazado_912507" data-name="Trazado 912507" d="M2373.911,2083.72H2391.5a3.21,3.21,0,0,1,3.2,3.464l-.541,6.83a3.21,3.21,0,0,1-3.2,2.957h-13.814a4.8,4.8,0,0,1-4.746-4.1l-.926-6.329a2.463,2.463,0,0,1,2.437-2.819" transform="translate(-2371.448 -2083.72)" fill="#d4dee8"/>
                </g>
              </g>
            </g>
            <path id="Trazado_912508" data-name="Trazado 912508" d="M2386.676,2093.165h-13.815a5.311,5.311,0,0,1-5.226-4.516l-.926-6.33a2.947,2.947,0,0,1,2.916-3.374h17.591a3.7,3.7,0,0,1,3.683,3.987l-.541,6.83a3.714,3.714,0,0,1-3.683,3.4m-17.05-13.25a1.977,1.977,0,0,0-1.957,2.264l.926,6.33a4.335,4.335,0,0,0,4.266,3.687h13.815a2.74,2.74,0,0,0,2.717-2.51l.541-6.83a2.726,2.726,0,0,0-2.717-2.941Z" transform="translate(-2148.483 -1873.591)" fill="#242638"/>
            <path id="Trazado_912509" data-name="Trazado 912509" d="M2591.625,2089.123s-4.04-5.09-8.726,0l.242-4.848-2.04-2.545a28.54,28.54,0,0,0,12.059.061l-1.535,2.161Z" transform="translate(-2341.134 -1876.093)" fill="#242638"/>
          </g>
        </g>
      </g>
    </g>
  </g>
</svg>
