<svg xmlns="http://www.w3.org/2000/svg" xmlns:xlink="http://www.w3.org/1999/xlink" width="295" height="466.434" viewBox="0 0 295 466.434">
  <defs>
    <clipPath id="clip-path">
      <rect id="Rectángulo_403104" data-name="Rectángulo 403104" width="90.729" height="90.729" fill="none"/>
    </clipPath>
    <clipPath id="clip-path-2">
      <rect id="Rectángulo_403106" data-name="Rectángulo 403106" width="106.938" height="106.938" fill="none"/>
    </clipPath>
    <clipPath id="clip-path-3">
      <rect id="Rectángulo_403097" data-name="Rectángulo 403097" width="289" height="346.603" fill="none"/>
    </clipPath>
  </defs>
  <g id="Grupo_1101330" data-name="Grupo 1101330" transform="translate(-180 -3820.566)">
    <g id="Grupo_1101329" data-name="Grupo 1101329">
      <g id="Grupo_1101328" data-name="Grupo 1101328">
        <rect id="Rectángulo_403108" data-name="Rectángulo 403108" width="295" height="466" rx="147.5" transform="translate(180 3820.566)" fill="#87e3fb"/>
        <path id="Rectángulo_403082" data-name="Rectángulo 403082" d="M136.851,0h0A136.851,136.851,0,0,1,273.7,136.851V326.713a0,0,0,0,1,0,0H0a0,0,0,0,1,0,0V136.851A136.851,136.851,0,0,1,136.851,0Z" transform="translate(180 3952.21)" fill="#51c4e2"/>
        <g id="Grupo_1101324" data-name="Grupo 1101324" transform="translate(201.298 3982.838)">
          <g id="Grupo_1101323" data-name="Grupo 1101323" transform="translate(0 0)" clip-path="url(#clip-path)">
            <path id="Trazado_911450" data-name="Trazado 911450" d="M0,45.364A45.364,45.364,0,1,1,45.364,90.729,45.363,45.363,0,0,1,0,45.364" transform="translate(0 0)" fill="#00c0f2"/>
            <rect id="Rectángulo_403098" data-name="Rectángulo 403098" width="50.277" height="50.277" transform="translate(20.226 18.471)" fill="none" stroke="#342d3a" stroke-linecap="round" stroke-linejoin="round" stroke-width="1"/>
            <rect id="Rectángulo_403099" data-name="Rectángulo 403099" width="7.077" height="7.077" transform="translate(66.964 14.932)" fill="#ffdd4d"/>
            <rect id="Rectángulo_403100" data-name="Rectángulo 403100" width="7.077" height="7.077" transform="translate(16.687 14.932)" fill="#ffdd4d"/>
            <rect id="Rectángulo_403101" data-name="Rectángulo 403101" width="7.077" height="7.077" transform="translate(66.964 65.209)" fill="#ffdd4d"/>
            <rect id="Rectángulo_403102" data-name="Rectángulo 403102" width="7.077" height="7.077" transform="translate(16.687 65.209)" fill="#ffdd4d"/>
            <path id="Trazado_911451" data-name="Trazado 911451" d="M38.242,52.729H30.831l-9.121-10.9V31.586L34.536,13.343,47.364,31.586v9.865Z" transform="translate(10.828 6.655)" fill="#edf1f7"/>
            <line id="Línea_601" data-name="Línea 601" y2="26.741" transform="translate(45.364 22.009)" fill="none" stroke="#342d3a" stroke-linecap="round" stroke-linejoin="round" stroke-width="1"/>
            <path id="Trazado_911452" data-name="Trazado 911452" d="M28.327,33.5A2.909,2.909,0,1,1,31.236,36.4,2.909,2.909,0,0,1,28.327,33.5" transform="translate(14.128 15.255)" fill="#342d3a"/>
            <rect id="Rectángulo_403103" data-name="Rectángulo 403103" width="27.625" height="8.541" transform="translate(31.552 55.114)" fill="#1a50c7"/>
          </g>
        </g>
        <g id="Grupo_1101326" data-name="Grupo 1101326" transform="translate(330.14 3860.729)">
          <g id="Grupo_1101325" data-name="Grupo 1101325" transform="translate(0 0)" clip-path="url(#clip-path-2)">
            <path id="Trazado_911453" data-name="Trazado 911453" d="M0,53.469a53.469,53.469,0,1,1,53.469,53.469A53.469,53.469,0,0,1,0,53.469" transform="translate(0 0)" fill="#50d1f1"/>
            <path id="Trazado_911454" data-name="Trazado 911454" d="M69.131,50.35V81.71H7.326V19.9H43.835V50.35Z" transform="translate(4.426 12.025)" fill="#f67dbe"/>
            <path id="Trazado_911455" data-name="Trazado 911455" d="M76.252,10.1V56.27H55.383V25.825h-25.3V10.1Z" transform="translate(18.174 6.105)" fill="#1a50c7"/>
            <rect id="Rectángulo_403105" data-name="Rectángulo 403105" width="25.296" height="30.445" transform="translate(48.26 31.929)" fill="#ffc200"/>
          </g>
        </g>
        <g id="Grupo_1101327" data-name="Grupo 1101327">
          <g id="Grupo_1101322" data-name="Grupo 1101322" transform="translate(180 3939.964)">
            <rect id="Rectángulo_403095" data-name="Rectángulo 403095" width="22.189" height="27.221" transform="translate(241.32 207.376) rotate(-87.205)" fill="#f88895"/>
            <g id="Grupo_1101321" data-name="Grupo 1101321">
              <g id="Grupo_1101320" data-name="Grupo 1101320" clip-path="url(#clip-path-3)">
                <path id="Trazado_911400" data-name="Trazado 911400" d="M115.1,91.537a8.628,8.628,0,1,0-12.2-.327,8.627,8.627,0,0,0,12.2.327" transform="translate(121.868 92.908)" fill="#f88895"/>
                <path id="Trazado_911401" data-name="Trazado 911401" d="M124.164,115.47A23.874,23.874,0,1,0,104.4,88.095a23.872,23.872,0,0,0,19.761,27.376" transform="translate(126.181 82.458)" fill="#f88895"/>
                <path id="Trazado_911402" data-name="Trazado 911402" d="M127.668,117.426l4.194.117A23.2,23.2,0,0,0,155.7,95.005l.768-27.382L105.9,66.209l-.765,27.38a23.2,23.2,0,0,0,22.538,23.836" transform="translate(127.426 80.258)" fill="#1a50c7"/>
                <path id="Trazado_911403" data-name="Trazado 911403" d="M136.894,88.966a19.6,19.6,0,1,0-20.142,19.045A19.6,19.6,0,0,0,136.894,88.966Z" transform="translate(118.43 83.418)" fill="none" stroke="#1a50c7" stroke-miterlimit="10" stroke-width="1"/>
                <path id="Trazado_911404" data-name="Trazado 911404" d="M130.2,74.843h0a6.148,6.148,0,0,0-7.123-4.984l-15.72,2.779A6.147,6.147,0,0,0,109.5,84.745l15.72-2.779a6.148,6.148,0,0,0,4.984-7.123" transform="translate(123.981 84.567)" fill="#f88895"/>
                <path id="Trazado_911405" data-name="Trazado 911405" d="M104.781,98.509h0a6.148,6.148,0,0,0,7.643-4.143l4.562-15.359a6.148,6.148,0,0,0-11.787-3.5l-4.562,15.359a6.148,6.148,0,0,0,4.143,7.643" transform="translate(121.681 86.195)" fill="#f88895"/>
                <path id="Trazado_911406" data-name="Trazado 911406" d="M116.876,89.264h0a5.179,5.179,0,0,0,4.285,5.938l12.66,2.044a3.208,3.208,0,0,0,3.681-2.657l.628-3.885a3.21,3.21,0,0,0-2.657-3.681l-12.663-2.044a5.177,5.177,0,0,0-5.935,4.285" transform="translate(141.594 102.929)" fill="#f88895"/>
                <path id="Trazado_911407" data-name="Trazado 911407" d="M114.462,84.067h0A5.179,5.179,0,0,0,118.747,90l19.675,3.177a3.208,3.208,0,0,0,3.681-2.657l.628-3.885a3.21,3.21,0,0,0-2.657-3.681L120.4,79.782a5.178,5.178,0,0,0-5.937,4.285" transform="translate(138.668 96.629)" fill="#f88895"/>
                <path id="Trazado_911408" data-name="Trazado 911408" d="M115.218,79.382h0a5.176,5.176,0,0,0,4.285,5.935L139.178,88.5a3.208,3.208,0,0,0,3.681-2.657l.628-3.885a3.21,3.21,0,0,0-2.657-3.681L121.155,75.1a5.178,5.178,0,0,0-5.938,4.285" transform="translate(139.584 90.95)" fill="#f88895"/>
                <path id="Trazado_911409" data-name="Trazado 911409" d="M115.975,74.7h0a5.178,5.178,0,0,0,4.285,5.938l19.675,3.177a3.21,3.21,0,0,0,3.681-2.657l.628-3.885a3.21,3.21,0,0,0-2.657-3.681l-19.675-3.177a5.178,5.178,0,0,0-5.937,4.285" transform="translate(140.502 85.271)" fill="#f88895"/>
                <path id="Trazado_911410" data-name="Trazado 911410" d="M135.771,87.1l-13.351-2.157a4.745,4.745,0,0,0-5.442,3.929l-.137.852a4.745,4.745,0,0,0,3.929,5.442l13.351,2.157" transform="translate(141.559 102.893)" fill="none" stroke="#342d3a" stroke-linecap="round" stroke-linejoin="round" stroke-width="1"/>
                <path id="Trazado_911411" data-name="Trazado 911411" d="M140.372,83.036l-20.365-3.29a4.745,4.745,0,0,0-5.442,3.929l-.137.852a4.745,4.745,0,0,0,3.929,5.442l20.365,3.29" transform="translate(138.633 96.593)" fill="none" stroke="#342d3a" stroke-linecap="round" stroke-linejoin="round" stroke-width="1"/>
                <path id="Trazado_911412" data-name="Trazado 911412" d="M141.128,78.351l-20.365-3.29a4.745,4.745,0,0,0-5.442,3.929l-.137.852a4.745,4.745,0,0,0,3.929,5.442l20.365,3.29" transform="translate(139.55 90.914)" fill="none" stroke="#342d3a" stroke-linecap="round" stroke-linejoin="round" stroke-width="1"/>
                <path id="Trazado_911413" data-name="Trazado 911413" d="M141.885,73.666l-20.365-3.29a4.745,4.745,0,0,0-5.442,3.929l-.137.852A4.745,4.745,0,0,0,119.87,80.6l20.365,3.29" transform="translate(140.467 85.235)" fill="none" stroke="#342d3a" stroke-linecap="round" stroke-linejoin="round" stroke-width="1"/>
                <path id="Trazado_911414" data-name="Trazado 911414" d="M105.826,93.212l3.562-11.99,11.53-2.037a6.148,6.148,0,0,0,4.984-7.125" transform="translate(128.281 87.349)" fill="none" stroke="#342d3a" stroke-linecap="round" stroke-linejoin="round" stroke-width="1"/>
                <path id="Trazado_911415" data-name="Trazado 911415" d="M128.837,222.482l-24.956-55.121L77.539,109.221a24.464,24.464,0,1,1,44.582-20.16l25.8,56.946,25.473,56.3a24.458,24.458,0,0,1-12.189,32.382,23.779,23.779,0,0,1-6.05,1.852,24.448,24.448,0,0,1-26.321-14.063" transform="translate(91.335 90.515)" fill="#fefefe"/>
                <path id="Trazado_911416" data-name="Trazado 911416" d="M170.757,219.013a84.92,84.92,0,0,1,.1-15.961l9.116-89.4c.878-22.686-15.269-41.613-35.521-41.613H65.891c-20.235,0-36.4,18.927-35.5,41.613L44.2,186.394a103.333,103.333,0,0,1,.819,33.559A97.088,97.088,0,0,1,43.1,230.131l-7.05,29.146H174.312l-3.473-39.324Z" transform="translate(36.794 87.328)" fill="#fefefe"/>
                <path id="Trazado_911417" data-name="Trazado 911417" d="M86,46.008c-4.65,6.163-4.7,13.966-.117,17.425s12.074,1.268,16.724-4.9,4.7-13.966.117-17.425S90.646,39.845,86,46.008" transform="translate(99.974 47.848)" fill="#dd6f7f"/>
                <path id="Trazado_911418" data-name="Trazado 911418" d="M133.708,53.727A43.543,43.543,0,0,0,131.1,39.2,41.969,41.969,0,0,0,91.84,11.507c-23.115,0-41.87,19.031-41.87,42.487,0,12.481,6.249,25.564,14.676,33.32.52.48.673,8.729.673,8.729,0,18.538,14.811,33.568,33.079,33.568,19.5,0,35.311-16.043,35.311-35.831V56.328a2.257,2.257,0,0,0-.091-.453c.029-.626.091-1.241.091-1.88Z" transform="translate(60.573 13.949)" fill="#342d3a"/>
                <path id="Trazado_911419" data-name="Trazado 911419" d="M135.847,54.141c0,.642-.066,1.239-.088,1.858a1.572,1.572,0,0,1,.088.442V93.363a35.312,35.312,0,0,1-35.307,35.307A33.082,33.082,0,0,1,67.469,95.575s-.155-8.119-.686-8.583C58.354,79.337,52.116,66.44,52.116,54.141a41.866,41.866,0,0,1,83.731-.265Z" transform="translate(63.174 14.893)" fill="#f88895"/>
                <path id="Trazado_911420" data-name="Trazado 911420" d="M83.065,131.243H80.7a20.268,20.268,0,0,1-20.268-20.266V67.51a20.267,20.267,0,0,1,40.534,0v45.832a17.9,17.9,0,0,1-17.9,17.9" transform="translate(73.255 57.269)" fill="#f88895"/>
                <path id="Trazado_911421" data-name="Trazado 911421" d="M90.52,64.056V86.574L68.9,64.428A33.436,33.436,0,0,0,79,65.994,34.754,34.754,0,0,0,90.52,64.056" transform="translate(83.515 77.648)" fill="#342d3a"/>
                <path id="Trazado_911422" data-name="Trazado 911422" d="M133.829,38.3a19.681,19.681,0,0,1-2.146,2.721c-10.532,11.014-27.528,8.143-40.03,15.275-5.734,3.27-10.194,8.291-13.846,13.713-3.9,5.8-1.841,10.669-.825,17.622.737,5.035-7.685,8.17-10.957,2.19-6.26-11.658-14.8-21.7-14.8-35.55A42.782,42.782,0,0,1,94.01,11.506c15.264,0,27.166,7.743,35.351,19.357a61.376,61.376,0,0,1,4.2,6.88c.088.177.2.376.265.553" transform="translate(62.095 13.947)" fill="#342d3a"/>
                <path id="Trazado_911423" data-name="Trazado 911423" d="M93.663,47.906v2.279A34.948,34.948,0,0,1,90.61,64.542a9.519,9.519,0,0,1,3.053-16.636" transform="translate(105.358 58.071)" fill="#dd6f7f"/>
                <path id="Trazado_911424" data-name="Trazado 911424" d="M99.755,47.149c-.642-.863-1.305-1.726-1.969-2.544-4.6-5.641-9.822-10.884-13.052-17.41a25.271,25.271,0,0,1-2.677-11.459A41.976,41.976,0,0,1,92.5,26.31a40.674,40.674,0,0,1,4.734,9.07,43.357,43.357,0,0,1,2.279,9.269c.111.819.177,1.659.243,2.5" transform="translate(99.463 19.075)" fill="#342d3a"/>
                <path id="Trazado_911425" data-name="Trazado 911425" d="M70.848,46.165c5.011,6.645,5.42,14.788.914,18.189s-12.225.77-17.24-5.876S49.1,43.692,53.61,40.29s12.222-.77,17.237,5.876" transform="translate(61.189 47.037)" fill="#f88895"/>
                <line id="Línea_595" data-name="Línea 595" x2="10.508" y2="9.125" transform="translate(118.186 95.047)" fill="none" stroke="#342d3a" stroke-linecap="round" stroke-linejoin="round" stroke-width="1"/>
                <path id="Trazado_911426" data-name="Trazado 911426" d="M78.377,43.2a3.4,3.4,0,1,0-3.4,3.4,3.4,3.4,0,0,0,3.4-3.4" transform="translate(86.767 48.249)" fill="#342d3a"/>
                <path id="Trazado_911427" data-name="Trazado 911427" d="M92.061,43.2a3.4,3.4,0,1,0-3.4,3.4,3.4,3.4,0,0,0,3.4-3.4" transform="translate(103.355 48.249)" fill="#342d3a"/>
                <path id="Trazado_911428" data-name="Trazado 911428" d="M79.8,43.965l5.1,5.068a6.965,6.965,0,0,1-.48,10.315l-2.96,2.438" transform="translate(96.732 53.294)" fill="none" stroke="#342d3a" stroke-linecap="round" stroke-linejoin="round" stroke-width="1"/>
                <path id="Trazado_911429" data-name="Trazado 911429" d="M68.888,40.21a12.1,12.1,0,0,1,3.639-2.65,15.771,15.771,0,0,1,3.827-1.338,15.284,15.284,0,0,1,3.973-.31,10.5,10.5,0,0,1,4.161.991l.843.4a1.076,1.076,0,0,1-.493,2.046q-2.018-.053-4.015.02c-1.334.042-2.657.148-3.986.219-1.323.128-2.648.226-3.964.383s-2.63.341-3.935.571a.146.146,0,0,1-.17-.119A.144.144,0,0,1,68.8,40.3Z" transform="translate(83.355 43.508)" fill="#342d3a"/>
                <path id="Trazado_911430" data-name="Trazado 911430" d="M97.57,40.294a10.033,10.033,0,0,0-2.885-2.65,10.927,10.927,0,0,0-3.033-1.338A9.625,9.625,0,0,0,88.5,36a6.911,6.911,0,0,0-3.3.989l-.668.4a1.211,1.211,0,0,0-.4,1.436.854.854,0,0,0,.79.611c1.064-.035,2.126-.031,3.181.02s2.108.148,3.161.219c1.046.128,2.1.226,3.141.383s2.086.341,3.121.571c.062.015.124-.038.135-.119a.177.177,0,0,0-.029-.124Z" transform="translate(101.887 43.612)" fill="#342d3a"/>
                <path id="Trazado_911431" data-name="Trazado 911431" d="M76.675,54.908a14.954,14.954,0,0,0,12.5,1.982" transform="translate(92.944 66.559)" fill="none" stroke="#342d3a" stroke-linecap="round" stroke-linejoin="round" stroke-width="1"/>
                <path id="Trazado_911432" data-name="Trazado 911432" d="M68.536,39.928,70.615,43.8a11.917,11.917,0,0,1,7.955-3.865,11.439,11.439,0,0,1,8.147,3.1" transform="translate(83.078 48.4)" fill="none" stroke="#342d3a" stroke-linecap="round" stroke-linejoin="round" stroke-width="1"/>
                <path id="Trazado_911433" data-name="Trazado 911433" d="M101,39.1l-1.737,4.931a11.439,11.439,0,0,0-8.147-3.1A11.917,11.917,0,0,0,83.16,44.8" transform="translate(100.805 47.401)" fill="none" stroke="#342d3a" stroke-linecap="round" stroke-linejoin="round" stroke-width="1"/>
                <path id="Trazado_911434" data-name="Trazado 911434" d="M62.87,57.244A9.532,9.532,0,1,1,72.4,66.777a9.532,9.532,0,0,1-9.532-9.532" transform="translate(76.21 57.836)" fill="#dd6f7f"/>
                <path id="Trazado_911435" data-name="Trazado 911435" d="M32.2,35.395A35.395,35.395,0,1,1,67.6,70.79,35.394,35.394,0,0,1,32.2,35.395" transform="translate(39.036)" fill="#342d3a"/>
                <line id="Línea_596" data-name="Línea 596" x1="24.956" transform="translate(123.44 84.507)" fill="none" stroke="#f8d145" stroke-miterlimit="10" stroke-width="1"/>
                <circle id="Elipse_11538" data-name="Elipse 11538" cx="14.97" cy="14.97" r="14.97" transform="translate(146.593 76.666)" fill="none" stroke="#f8d145" stroke-miterlimit="10" stroke-width="1"/>
                <path id="Trazado_911436" data-name="Trazado 911436" d="M80.968,49.626c0-8.267,6.1-14.97,13.631-14.97s13.629,6.7,13.629,14.97S102.128,64.6,94.6,64.6,80.968,57.893,80.968,49.626Z" transform="translate(98.148 42.01)" fill="none" stroke="#f8d145" stroke-miterlimit="10" stroke-width="1"/>
                <line id="Línea_597" data-name="Línea 597" x2="6.183" transform="translate(174.575 84.246)" fill="none" stroke="#f8d145" stroke-miterlimit="10" stroke-width="1"/>
                <path id="Trazado_911437" data-name="Trazado 911437" d="M4.684,182.4l35.539-48.969L77.7,81.764a24.465,24.465,0,1,1,39.587,28.756l-36.7,50.61L44.268,211.137a24.457,24.457,0,0,1-34.169,5.44,23.812,23.812,0,0,1-4.6-4.34A24.448,24.448,0,0,1,4.684,182.4" transform="translate(0 86.871)" fill="#fefefe"/>
                <path id="Trazado_911438" data-name="Trazado 911438" d="M76.385,123.546a10.918,10.918,0,1,0-.779,15.421,10.918,10.918,0,0,0,.779-15.421" transform="translate(69.539 145.4)" fill="#f88895"/>
                <path id="Trazado_911439" data-name="Trazado 911439" d="M66.816,131.365l17.859.9a5.564,5.564,0,0,0,.56-11.114l-17.857-.9a5.564,5.564,0,1,0-.562,11.114" transform="translate(74.589 145.758)" fill="#f88895"/>
                <rect id="Rectángulo_403096" data-name="Rectángulo 403096" width="4.553" height="104.046" transform="matrix(0.951, -0.309, 0.309, 0.951, 146.628, 234.734)" fill="#34322a"/>
                <path id="Trazado_911440" data-name="Trazado 911440" d="M65,166.7c-8.282-2.717-13.373-12.736-13.147-21.014a22.679,22.679,0,0,1,23.285-22.051c.429.013.847.064,1.27.1v-.064l36.764,1a5.423,5.423,0,0,1,5.274,5.57l-.009.356a5.425,5.425,0,0,1-5.57,5.276l-1.507-.042a5.426,5.426,0,0,1,5.276,5.57l-.011.358a5.425,5.425,0,0,1-5.57,5.274l-3.7-.1a5.426,5.426,0,0,1,5.274,5.572l-.009.356a5.428,5.428,0,0,1-5.573,5.276l-5.07-.139a5.426,5.426,0,0,1,5.276,5.57l-.011.356a5.425,5.425,0,0,1-5.57,5.276c-12.853-.35-15.244.356-28.024-1.04q-3.4-.375-6.778-.989A14.247,14.247,0,0,1,65,166.7" transform="translate(62.843 149.854)" fill="#f88895"/>
                <path id="Trazado_911441" data-name="Trazado 911441" d="M171.256,157.909H63.045a4.891,4.891,0,0,1,0-9.782H171.256a4.891,4.891,0,1,1,0,9.782" transform="translate(70.493 179.558)" fill="#3c393f"/>
                <path id="Trazado_911442" data-name="Trazado 911442" d="M62.372,123.628c.429.011.847.064,1.268.1l0-.064,36.764,1" transform="translate(75.606 149.86)" fill="none" stroke="#342d3a" stroke-linecap="round" stroke-linejoin="round" stroke-width="1"/>
                <path id="Trazado_911443" data-name="Trazado 911443" d="M76.05,88.624l-37.629,75.3L34.9,145.455l3.539-4.889,36.7-50.593c.31-.442.619-.885.907-1.349" transform="translate(42.309 107.429)" fill="#342d3a"/>
                <path id="Trazado_911444" data-name="Trazado 911444" d="M1.175,140.26h0a24.47,24.47,0,0,1,26.02-22.821l100.028-.053-4.486,62.249L22.664,166.065" transform="translate(1.424 142.294)" fill="#fefefe"/>
                <path id="Trazado_911445" data-name="Trazado 911445" d="M119.031,217.4h0a24.473,24.473,0,0,1-20.272-28.051l9.36-99.59,61.55,10.322-22.925,98.354" transform="translate(119.332 108.803)" fill="#fefefe"/>
                <line id="Línea_598" data-name="Línea 598" x1="43.923" y1="5.955" transform="translate(80.238 315.971)" fill="none" stroke="#342d3a" stroke-linecap="round" stroke-linejoin="round" stroke-width="1"/>
                <path id="Trazado_911446" data-name="Trazado 911446" d="M1.175,140.26h0a24.47,24.47,0,0,1,26.02-22.821l41.025-.022" transform="translate(1.424 142.294)" fill="none" stroke="#342d3a" stroke-linecap="round" stroke-linejoin="round" stroke-width="1"/>
                <line id="Línea_599" data-name="Línea 599" y1="52.031" x2="5.305" transform="translate(208.166 233.325)" fill="none" stroke="#342d3a" stroke-linecap="round" stroke-linejoin="round" stroke-width="1"/>
                <line id="Línea_600" data-name="Línea 600" y1="75.964" x2="7.139" transform="translate(220.311 198.561)" fill="none" stroke="#342d3a" stroke-linecap="round" stroke-linejoin="round" stroke-width="1"/>
                <path id="Trazado_911447" data-name="Trazado 911447" d="M119.031,175.775h0a24.473,24.473,0,0,1-20.272-28.051l2.221-23.628" transform="translate(119.332 150.427)" fill="none" stroke="#342d3a" stroke-linecap="round" stroke-linejoin="round" stroke-width="1"/>
                <path id="Trazado_911448" data-name="Trazado 911448" d="M118.979,52.021c0,2.044-4.424,2.044-4.424,4.09s4.424,2.042,4.424,4.084-4.424,2.048-4.424,4.095,4.424,2.051,4.424,4.1-4.424,2.048-4.424,4.1" transform="translate(138.862 63.059)" fill="none" stroke="#342d3a" stroke-linecap="round" stroke-linejoin="round" stroke-width="1"/>
                <path id="Trazado_911449" data-name="Trazado 911449" d="M122.5,52.021c0,2.044-4.424,2.044-4.424,4.09S122.5,58.153,122.5,60.2s-4.424,2.048-4.424,4.095,4.424,2.051,4.424,4.1-4.424,2.048-4.424,4.1" transform="translate(143.126 63.059)" fill="none" stroke="#342d3a" stroke-linecap="round" stroke-linejoin="round" stroke-width="1"/>
              </g>
            </g>
          </g>
          <rect id="Rectángulo_403107" data-name="Rectángulo 403107" width="263" height="10" transform="translate(195.026 4277)" fill="#3c393f"/>
        </g>
      </g>
      <path id="Trazado_906960" data-name="Trazado 906960" d="M197.046,377.721,252.565,322.2v55.519l56.006-56.006v56.006l30.293-30.294" transform="translate(7.989 3589.017)" fill="none" stroke="#1c1d26" stroke-linecap="round" stroke-miterlimit="10" stroke-width="3"/>
      <g id="Grupo_1100737" data-name="Grupo 1100737" transform="translate(195.945 4186.567)">
        <path id="Trazado_901022" data-name="Trazado 901022" d="M180.529,85.876H118.9V24.247A61.63,61.63,0,0,1,180.529,85.876Z" transform="translate(-118.9 -5.877)" fill="#ffab38"/>
        <path id="Trazado_901023" data-name="Trazado 901023" d="M196.8,69.6H135.173V7.975A61.629,61.629,0,0,1,196.8,69.6" transform="translate(-116.802 -7.975)" fill="#85a9e3"/>
        <path id="Trazado_901024" data-name="Trazado 901024" d="M135.173,26.715V67.189h40.474a61.773,61.773,0,0,0-40.474-40.474" transform="translate(-116.802 -5.559)" fill="#6d9335"/>
      </g>
    </g>
  </g>
</svg>
