<svg xmlns="http://www.w3.org/2000/svg" xmlns:xlink="http://www.w3.org/1999/xlink" width="295.328" height="466" viewBox="0 0 295.328 466">
  <defs>
    <clipPath id="clip-path">
      <rect id="Rectángulo_403141" data-name="Rectángulo 403141" width="195.25" height="149.5" fill="none"/>
    </clipPath>
    <clipPath id="clip-path-2">
      <rect id="Rectángulo_403142" data-name="Rectángulo 403142" width="84.328" height="122.566" fill="none"/>
    </clipPath>
    <clipPath id="clip-path-3">
      <rect id="Rectángulo_403140" data-name="Rectángulo 403140" width="151.867" height="151.867" fill="none"/>
    </clipPath>
    <clipPath id="clip-path-5">
      <rect id="Rectángulo_403133" data-name="Rectángulo 403133" width="68.434" height="68.434" fill="none"/>
    </clipPath>
    <clipPath id="clip-path-6">
      <path id="Trazado_911478" data-name="Trazado 911478" d="M268.761,302.978a34.217,34.217,0,1,0,34.217-34.217,34.217,34.217,0,0,0-34.217,34.217" transform="translate(-268.761 -268.761)" fill="none"/>
    </clipPath>
    <radialGradient id="radial-gradient" cx="0.5" cy="0.5" r="0.5" gradientTransform="matrix(1, 0, 0, -1, 0, 3.219)" gradientUnits="objectBoundingBox">
      <stop offset="0" stop-color="#210000"/>
      <stop offset="0.73" stop-color="#973f23"/>
      <stop offset="1" stop-color="#210000"/>
    </radialGradient>
    <clipPath id="clip-path-7">
      <rect id="Rectángulo_403135" data-name="Rectángulo 403135" width="34.217" height="34.217" fill="none"/>
    </clipPath>
    <clipPath id="clip-path-8">
      <path id="Trazado_911479" data-name="Trazado 911479" d="M378.983,396.091a17.108,17.108,0,1,0,17.108-17.108,17.108,17.108,0,0,0-17.108,17.108" transform="translate(-378.983 -378.983)" fill="none"/>
    </clipPath>
    <radialGradient id="radial-gradient-2" cx="0.5" cy="0.5" r="0.5" gradientTransform="matrix(1, 0, 0, -1, 0, 5.438)" gradientUnits="objectBoundingBox">
      <stop offset="0" stop-color="#fff"/>
      <stop offset="0.15" stop-color="#fff"/>
      <stop offset="0.21" stop-color="#e4d1d2"/>
      <stop offset="0.291" stop-color="#c49b9c"/>
      <stop offset="0.361" stop-color="#ac7375"/>
      <stop offset="0.416" stop-color="#9e5a5d"/>
      <stop offset="0.45" stop-color="#995255"/>
      <stop offset="0.574" stop-color="#693133"/>
      <stop offset="0.695" stop-color="#421617"/>
      <stop offset="0.791" stop-color="#290606"/>
      <stop offset="0.85" stop-color="#210000"/>
      <stop offset="0.857" stop-color="#250100"/>
      <stop offset="0.865" stop-color="#310703"/>
      <stop offset="0.872" stop-color="#461008"/>
      <stop offset="0.88" stop-color="#631c0f"/>
      <stop offset="0.888" stop-color="#892d18"/>
      <stop offset="0.896" stop-color="#b64022"/>
      <stop offset="0.9" stop-color="#d24d29"/>
      <stop offset="0.903" stop-color="#c74826"/>
      <stop offset="0.914" stop-color="#9b351c"/>
      <stop offset="0.926" stop-color="#752413"/>
      <stop offset="0.939" stop-color="#56170c"/>
      <stop offset="0.952" stop-color="#3f0d06"/>
      <stop offset="0.966" stop-color="#2e0503"/>
      <stop offset="0.981" stop-color="#240100"/>
      <stop offset="1" stop-color="#210000"/>
    </radialGradient>
    <clipPath id="clip-path-9">
      <rect id="Rectángulo_403137" data-name="Rectángulo 403137" width="28.514" height="28.514" fill="none"/>
    </clipPath>
    <clipPath id="clip-path-10">
      <path id="Trazado_911480" data-name="Trazado 911480" d="M397.353,411.61a14.257,14.257,0,1,0,14.257-14.257,14.257,14.257,0,0,0-14.257,14.257" transform="translate(-397.353 -397.353)" fill="none"/>
    </clipPath>
    <radialGradient id="radial-gradient-3" cx="0.5" cy="0.5" r="0.5" gradientTransform="matrix(1, 0, 0, -1, 0, 6.326)" gradientUnits="objectBoundingBox">
      <stop offset="0" stop-color="#fff"/>
      <stop offset="0.15" stop-color="#fff"/>
      <stop offset="0.282" stop-color="#c2c2c2"/>
      <stop offset="0.425" stop-color="#878787"/>
      <stop offset="0.564" stop-color="#575757"/>
      <stop offset="0.694" stop-color="#313131"/>
      <stop offset="0.813" stop-color="#161616"/>
      <stop offset="0.919" stop-color="#050505"/>
      <stop offset="1"/>
    </radialGradient>
    <clipPath id="clip-path-12">
      <rect id="Rectángulo_403138-2" data-name="Rectángulo 403138" width="151.867" height="151.867" fill="none" stroke="rgba(0,0,0,0)" stroke-width="1"/>
    </clipPath>
    <clipPath id="clip-path-13">
      <rect id="Rectángulo_403149" data-name="Rectángulo 403149" width="53.745" height="61.251" transform="translate(0 0)" fill="none"/>
    </clipPath>
    <clipPath id="clip-path-14">
      <rect id="Rectángulo_403153" data-name="Rectángulo 403153" width="45.313" height="45.262" fill="none"/>
    </clipPath>
  </defs>
  <g id="Grupo_1101367" data-name="Grupo 1101367" transform="translate(-1118.026 -3818)">
    <rect id="Rectángulo_403088" data-name="Rectángulo 403088" width="295" height="466" rx="10" transform="translate(1118.026 3818)" fill="#fecabd"/>
    <path id="Trazado_911477" data-name="Trazado 911477" d="M56.312,0l-17.4,35.259L0,40.913,28.156,68.359l-6.647,38.754,34.8-18.3,34.8,18.3L84.469,68.359l28.156-27.445L73.714,35.259Z" transform="translate(1147.026 4070.454)" fill="#ff3a58"/>
    <g id="Grupo_1101359" data-name="Grupo 1101359" transform="translate(1138.282 3846.5)">
      <g id="Grupo_1101358" data-name="Grupo 1101358" transform="translate(0 0)" clip-path="url(#clip-path)">
        <path id="Trazado_911482" data-name="Trazado 911482" d="M8.519,59.476A83.639,83.639,0,0,0,3,118.416c2.5,8.949,6.747,17.767,14,23.573,11.466,9.173,28.014,8.932,42.06,4.654s26.813-12.008,40.71-16.75c15.56-5.31,32.16-6.751,48.067-10.9s31.965-11.773,40.7-25.7c8.273-13.181,8.563-30.463,2.7-44.88s-17.3-26.092-30.5-34.328c-50.377-31.424-126-7.64-152.217,45.394" transform="translate(0 0.001)" fill="#ffb18a"/>
      </g>
    </g>
    <rect id="Rectángulo_403129" data-name="Rectángulo 403129" width="112" height="112" transform="translate(1270.026 3833)" fill="#d6d8fc"/>
    <rect id="Rectángulo_403130" data-name="Rectángulo 403130" width="91" height="91" rx="13" transform="translate(1158.026 3920)" fill="#ffeacc"/>
    <g id="Grupo_1101361" data-name="Grupo 1101361" transform="translate(1329.026 4147.284)">
      <g id="Grupo_1101360" data-name="Grupo 1101360" transform="translate(0 0)" clip-path="url(#clip-path-2)">
        <path id="Trazado_911483" data-name="Trazado 911483" d="M84.329,1.836v120.73c-9.78-9.685-17.664-21.156-28.195-30.131A81.5,81.5,0,0,0,31.09,77.908C23.738,75.234,15.772,73.5,9.7,68.714.441,61.4-2.069,48.117,1.655,37.192s12.7-19.615,22.861-25.726C43.148.267,64.4-2.243,84.329,1.836" transform="translate(0 0.001)" fill="#aa6ee7"/>
      </g>
    </g>
    <rect id="Rectángulo_403131" data-name="Rectángulo 403131" width="79" height="79" rx="39.5" transform="translate(1286.026 4012)" fill="#fff0ec"/>
    <g id="Grupo_1101357" data-name="Grupo 1101357" transform="translate(2198.526 11758.867)">
      <g id="Grupo_1101355" data-name="Grupo 1101355" transform="translate(-948.5 -7648.867)" style="isolation: isolate">
        <g id="Grupo_1101354" data-name="Grupo 1101354" clip-path="url(#clip-path-3)">
          <g id="Grupo_1101353" data-name="Grupo 1101353">
            <g id="Grupo_1101352" data-name="Grupo 1101352" clip-path="url(#clip-path-3)">
              <g id="Grupo_1101338" data-name="Grupo 1101338" transform="translate(41.717 41.717)" opacity="0.15" style="mix-blend-mode: screen;isolation: isolate">
                <g id="Grupo_1101337" data-name="Grupo 1101337">
                  <g id="Grupo_1101336" data-name="Grupo 1101336" clip-path="url(#clip-path-5)">
                    <g id="Grupo_1101335" data-name="Grupo 1101335">
                      <g id="Grupo_1101334" data-name="Grupo 1101334" clip-path="url(#clip-path-6)">
                        <rect id="Rectángulo_403132" data-name="Rectángulo 403132" width="68.434" height="68.434" transform="translate(0 0)" fill="url(#radial-gradient)"/>
                      </g>
                    </g>
                  </g>
                </g>
              </g>
              <g id="Grupo_1101343" data-name="Grupo 1101343" transform="translate(58.825 58.825)" opacity="0.5" style="mix-blend-mode: screen;isolation: isolate">
                <g id="Grupo_1101342" data-name="Grupo 1101342">
                  <g id="Grupo_1101341" data-name="Grupo 1101341" clip-path="url(#clip-path-7)">
                    <g id="Grupo_1101340" data-name="Grupo 1101340" transform="translate(0 0)">
                      <g id="Grupo_1101339" data-name="Grupo 1101339" clip-path="url(#clip-path-8)">
                        <rect id="Rectángulo_403134" data-name="Rectángulo 403134" width="34.217" height="34.217" transform="translate(0 0)" fill="url(#radial-gradient-2)"/>
                      </g>
                    </g>
                  </g>
                </g>
              </g>
              <g id="Grupo_1101348" data-name="Grupo 1101348" transform="translate(61.676 61.676)" style="mix-blend-mode: screen;isolation: isolate">
                <g id="Grupo_1101347" data-name="Grupo 1101347">
                  <g id="Grupo_1101346" data-name="Grupo 1101346" clip-path="url(#clip-path-9)">
                    <g id="Grupo_1101345" data-name="Grupo 1101345" transform="translate(0 0)">
                      <g id="Grupo_1101344" data-name="Grupo 1101344" clip-path="url(#clip-path-10)">
                        <rect id="Rectángulo_403136" data-name="Rectángulo 403136" width="28.514" height="28.514" transform="translate(0 0)" fill="url(#radial-gradient-3)"/>
                      </g>
                    </g>
                  </g>
                </g>
              </g>
              <g id="Grupo_1101351" data-name="Grupo 1101351" opacity="0.03" style="mix-blend-mode: screen;isolation: isolate">
                <g id="Grupo_1101350" data-name="Grupo 1101350">
                  <g id="Grupo_1101349" data-name="Grupo 1101349" clip-path="url(#clip-path-3)">
                    <path id="Trazado_911481" data-name="Trazado 911481" d="M76.284,76.284l34.523,75.869L76.284,76.284,41.761.414,76.284,76.284.414,110.806,76.284,76.284l75.869-34.523L76.284,76.284,62.657,98.241,76.284,76.284,89.91,54.326,76.284,76.284,54.326,62.657,76.284,76.284,98.241,89.91,76.284,76.284l-2.9,14.089,2.9-14.089,2.9-14.089-2.9,14.089-14.089-2.9,14.089,2.9,14.089,2.9-14.089-2.9L43.464,97.573l32.82-21.289L109.1,54.994,76.284,76.284,54.994,43.464l21.289,32.82L97.573,109.1,76.284,76.284l-.495,63.282.495-63.282L76.778,13l-.495,63.282L13,75.789l63.282.495,63.282.495-63.282-.495L24.357,105.543,76.284,76.284l51.927-29.259L76.284,76.284,47.024,24.357,76.284,76.284l29.259,51.927L76.284,76.284,13.71,123.3,76.284,76.284l62.574-47.012L76.284,76.284,29.272,13.71,76.284,76.284,123.3,138.858,76.284,76.284,60.853,145.6,76.284,76.284,91.714,6.966,76.284,76.284,6.966,60.853,76.284,76.284,145.6,91.714,76.284,76.284l-2.656,42.784,2.656-42.784L78.939,33.5,76.284,76.284,33.5,73.628l42.784,2.656,42.784,2.656L76.284,76.284,74.132,94.851l2.152-18.568,2.152-18.568L76.284,76.284,57.716,74.132l18.568,2.152,18.568,2.152L76.284,76.284,75.9,141.989l.385-65.705.385-65.705-.385,65.705L10.578,75.9l65.705.385,65.705.385-65.705-.385,6.588,43.35-6.588-43.35L69.7,32.933l6.588,43.35-43.35,6.588,43.35-6.588,43.35-6.588-43.35,6.588L65.625,106.3,76.284,76.284,86.942,46.265,76.284,76.284,46.265,65.625,76.284,76.284,106.3,86.942,76.284,76.284l.019.323-.019-.323-.019-.323.019.323-.323.019.323-.019.323-.019-.323.019-13.339,7.16,13.339-7.16,13.339-7.16-13.339,7.16-7.16-13.339,7.16,13.339,7.16,13.339" transform="translate(-0.35 -0.35)" fill="none" stroke="#fff" stroke-miterlimit="10" stroke-width="2"/>
                  </g>
                </g>
              </g>
            </g>
          </g>
        </g>
      </g>
      <g id="Grupo_1101356" data-name="Grupo 1101356" transform="translate(-948.5 -7648.867)" opacity="0.636" style="isolation: isolate">
        <g id="Grupo_1101349-2" data-name="Grupo 1101349" clip-path="url(#clip-path-12)">
          <path id="Trazado_911481-2" data-name="Trazado 911481" d="M76.284,76.284l34.523,75.869L76.284,76.284,41.761.414,76.284,76.284.414,110.806,76.284,76.284l75.869-34.523L76.284,76.284,62.657,98.241,76.284,76.284,89.91,54.326,76.284,76.284,54.326,62.657,76.284,76.284,98.241,89.91,76.284,76.284l-2.9,14.089,2.9-14.089,2.9-14.089-2.9,14.089-14.089-2.9,14.089,2.9,14.089,2.9-14.089-2.9L43.464,97.573l32.82-21.289L109.1,54.994,76.284,76.284,54.994,43.464l21.289,32.82L97.573,109.1,76.284,76.284l-.495,63.282.495-63.282L76.778,13l-.495,63.282L13,75.789l63.282.495,63.282.495-63.282-.495L24.357,105.543,76.284,76.284l51.927-29.259L76.284,76.284,47.024,24.357,76.284,76.284l29.259,51.927L76.284,76.284,13.71,123.3,76.284,76.284l62.574-47.012L76.284,76.284,29.272,13.71,76.284,76.284,123.3,138.858,76.284,76.284,60.853,145.6,76.284,76.284,91.714,6.966,76.284,76.284,6.966,60.853,76.284,76.284,145.6,91.714,76.284,76.284l-2.656,42.784,2.656-42.784L78.939,33.5,76.284,76.284,33.5,73.628l42.784,2.656,42.784,2.656L76.284,76.284,74.132,94.851l2.152-18.568,2.152-18.568L76.284,76.284,57.716,74.132l18.568,2.152,18.568,2.152L76.284,76.284,75.9,141.989l.385-65.705.385-65.705-.385,65.705L10.578,75.9l65.705.385,65.705.385-65.705-.385,6.588,43.35-6.588-43.35L69.7,32.933l6.588,43.35-43.35,6.588,43.35-6.588,43.35-6.588-43.35,6.588L65.625,106.3,76.284,76.284,86.942,46.265,76.284,76.284,46.265,65.625,76.284,76.284,106.3,86.942,76.284,76.284l.019.323-.019-.323-.019-.323.019.323-.323.019.323-.019.323-.019-.323.019-13.339,7.16,13.339-7.16,13.339-7.16-13.339,7.16-7.16-13.339,7.16,13.339,7.16,13.339" transform="translate(-0.35 -0.35)" fill="none" stroke="#fff" stroke-miterlimit="10" stroke-width="1"/>
        </g>
      </g>
    </g>
    <g id="Grupo_1101362" data-name="Grupo 1101362" transform="translate(1297.38 3954.702)">
      <line id="Línea_603" data-name="Línea 603" y1="31.666" x2="67.475" transform="translate(4.127 2.885)" fill="none" stroke="#492a51" stroke-miterlimit="10" stroke-width="0.581"/>
      <rect id="Rectángulo_403143" data-name="Rectángulo 403143" width="4.746" height="4.746" transform="matrix(0.901, -0.434, 0.434, 0.901, 0, 34.023)" fill="#492a51"/>
      <rect id="Rectángulo_403144" data-name="Rectángulo 403144" width="4.745" height="4.746" transform="translate(67.476 2.061) rotate(-25.744)" fill="#492a51"/>
      <rect id="Rectángulo_403145" data-name="Rectángulo 403145" width="7.057" height="7.057" transform="translate(32.808 17.181) rotate(-25.741)" fill="#492a51"/>
    </g>
    <g id="Grupo_1101364" data-name="Grupo 1101364" transform="translate(1154.026 4190.315)">
      <g id="Grupo_1101363" data-name="Grupo 1101363" clip-path="url(#clip-path-13)">
        <path id="Trazado_911484" data-name="Trazado 911484" d="M3.036,56.941a17.46,17.46,0,0,1,9.4-18.242c5.491-2.621,11.887-2.115,17.908-3,7.174-1.053,14.239-4.364,18.639-10.128S54.6,11.413,50.931,5.161" fill="none" stroke="#492a51" stroke-miterlimit="10" stroke-width="0.668"/>
        <rect id="Rectángulo_403146" data-name="Rectángulo 403146" width="5.459" height="5.459" transform="matrix(0.901, -0.434, 0.434, 0.901, 46.457, 2.371)" fill="#492a51"/>
        <rect id="Rectángulo_403147" data-name="Rectángulo 403147" width="5.459" height="5.459" transform="translate(31.357 32.392) rotate(-16.44)" fill="#492a51"/>
        <rect id="Rectángulo_403148" data-name="Rectángulo 403148" width="5.459" height="5.459" transform="matrix(0.987, -0.16, 0.16, 0.987, 0, 55.863)" fill="#492a51"/>
        <path id="Trazado_911485" data-name="Trazado 911485" d="M14.56,31.906s10.122,6.141,20.585,2.275S47.428,21.556,47.428,21.556" fill="none" stroke="#492a51" stroke-miterlimit="10" stroke-width="0.668"/>
        <path id="Trazado_911486" data-name="Trazado 911486" d="M16.835,31.736a2.218,2.218,0,1,1-2.218-2.218,2.218,2.218,0,0,1,2.218,2.218" fill="#492a51"/>
        <path id="Trazado_911487" data-name="Trazado 911487" d="M49.021,21.386A2.218,2.218,0,1,1,46.8,19.168a2.218,2.218,0,0,1,2.218,2.218" fill="#492a51"/>
      </g>
    </g>
    <g id="Grupo_1101366" data-name="Grupo 1101366" transform="matrix(0.848, 0.53, -0.53, 0.848, 1173.678, 3844.854)">
      <g id="Grupo_1101365" data-name="Grupo 1101365" transform="translate(0 0)" clip-path="url(#clip-path-14)">
        <path id="Trazado_911488" data-name="Trazado 911488" d="M26.487,41.967c-1.663,1.283-3.993,3.237-6.063,5.012L8,39.8a24,24,0,0,0,1.533-7.3c11.312-6.974,20.7-14.09,20.7-14.09-1.706,7.051-3.75,23.557-3.75,23.557" transform="translate(-2.173 -4.998)" fill="#fff3ea"/>
        <path id="Trazado_911489" data-name="Trazado 911489" d="M7.392,46.773s-2.875,6.379,2.977,9.979,10.015-1.987,10.015-1.987Z" transform="translate(-1.815 -12.699)" fill="#492a51"/>
        <line id="Línea_604" data-name="Línea 604" x1="10.667" y2="15.779" transform="translate(17.349 13.653)" fill="none" stroke="#492a51" stroke-linecap="round" stroke-linejoin="round" stroke-width="0.414"/>
        <path id="Trazado_911490" data-name="Trazado 911490" d="M23.5,42.322a1.489,1.489,0,1,1-.574-2.027A1.489,1.489,0,0,1,23.5,42.322Z" transform="translate(-5.623 -10.889)" fill="none" stroke="#492a51" stroke-linecap="round" stroke-linejoin="round" stroke-width="0.414"/>
        <path id="Trazado_911491" data-name="Trazado 911491" d="M3.037,14.6s12.35-12.632,28.4-3.667S40.3,38.472,40.3,38.472" transform="translate(-0.825 -2.096)" fill="none" stroke="#492a51" stroke-miterlimit="10" stroke-width="0.668"/>
        <rect id="Rectángulo_403150" data-name="Rectángulo 403150" width="2.876" height="2.876" transform="matrix(0.488, -0.873, 0.873, 0.488, 0, 13.624)" fill="#492a51"/>
        <rect id="Rectángulo_403151" data-name="Rectángulo 403151" width="2.979" height="2.979" transform="matrix(0.488, -0.873, 0.873, 0.488, 37.732, 35.699)" fill="#492a51"/>
        <rect id="Rectángulo_403152" data-name="Rectángulo 403152" width="4.109" height="4.109" transform="translate(28.643 9.738) rotate(-60.817)" fill="#492a51"/>
        <path id="Trazado_911492" data-name="Trazado 911492" d="M25.814,1.544,38.795,9.8l12.478,5.676" transform="translate(-7.008 -0.419)" fill="none" stroke="#492a51" stroke-miterlimit="10" stroke-width="0.668"/>
        <path id="Trazado_911493" data-name="Trazado 911493" d="M61.292,20.725a1.04,1.04,0,1,1-.4-1.415,1.04,1.04,0,0,1,.4,1.415" transform="translate(-16.112 -5.206)" fill="#492a51"/>
        <path id="Trazado_911494" data-name="Trazado 911494" d="M26.379,1.547a1.04,1.04,0,1,1-.4-1.415,1.04,1.04,0,0,1,.4,1.415" transform="translate(-6.633 0)" fill="#492a51"/>
      </g>
    </g>
  </g>
</svg>
