<svg xmlns="http://www.w3.org/2000/svg" xmlns:xlink="http://www.w3.org/1999/xlink" width="295" height="319" viewBox="0 0 295 319">
  <defs>
    <clipPath id="clip-path">
      <rect id="Rectángulo_403610" data-name="Rectángulo 403610" width="295" height="319" rx="12" transform="translate(1125.051 391)" fill="#ffd69b"/>
    </clipPath>
    <clipPath id="clip-path-2">
      <rect id="Rectángulo_403635" data-name="Rectángulo 403635" width="311.822" height="645.999" fill="none"/>
    </clipPath>
    <clipPath id="clip-path-4">
      <rect id="Rectángulo_403626" data-name="Rectángulo 403626" width="3.054" height="5.859" fill="none"/>
    </clipPath>
    <clipPath id="clip-path-5">
      <path id="Trazado_912878" data-name="Trazado 912878" d="M36.117,45.073,46.364,57.994l2.941,2.485c2.052.708,4.087-1.907,4.823-3.95,1.77-4.91,2.684-12.674-3.606-14.706a15.056,15.056,0,0,0-4.647-.759,14.058,14.058,0,0,0-9.758,4.008" transform="translate(-36.117 -41.065)" fill="none"/>
    </clipPath>
    <clipPath id="clip-path-6">
      <rect id="Rectángulo_403628" data-name="Rectángulo 403628" width="5.085" height="7.268" fill="none"/>
    </clipPath>
    <clipPath id="clip-path-7">
      <path id="Trazado_912880" data-name="Trazado 912880" d="M65.664,32.975c-7.726,24.334-42.03,54.339-42.03,54.339L36.6,94.625l4.118-3.871S43.364,78.422,56.366,65.59C65.638,56.438,70.2,43.436,72.053,36.733A4.493,4.493,0,0,0,68.926,31.2a2.662,2.662,0,0,0-3.262,1.772" transform="translate(-23.634 -31.103)" fill="none"/>
    </clipPath>
    <clipPath id="clip-path-8">
      <rect id="Rectángulo_403629" data-name="Rectángulo 403629" width="5.536" height="7.611" fill="none"/>
    </clipPath>
    <clipPath id="clip-path-10">
      <rect id="Rectángulo_403630" data-name="Rectángulo 403630" width="8.372" height="6.084" fill="none"/>
    </clipPath>
    <clipPath id="clip-path-11">
      <rect id="Rectángulo_403631" data-name="Rectángulo 403631" width="9.183" height="8.055" fill="none"/>
    </clipPath>
    <clipPath id="clip-path-12">
      <rect id="Rectángulo_403632" data-name="Rectángulo 403632" width="8.044" height="7.415" fill="none"/>
    </clipPath>
    <clipPath id="clip-path-13">
      <rect id="Rectángulo_403633" data-name="Rectángulo 403633" width="7.514" height="6.926" fill="none"/>
    </clipPath>
    <clipPath id="clip-path-14">
      <rect id="Rectángulo_403636" data-name="Rectángulo 403636" width="218.919" height="163.5" fill="none"/>
    </clipPath>
  </defs>
  <g id="Grupo_1101958" data-name="Grupo 1101958" transform="translate(-1125.051 -391)">
    <rect id="Rectángulo_403393" data-name="Rectángulo 403393" width="295" height="244" rx="12" transform="translate(1125.051 466)" fill="#ffd69b"/>
    <g id="Enmascarar_grupo_1098711" data-name="Enmascarar grupo 1098711" clip-path="url(#clip-path)">
      <g id="Grupo_1102022" data-name="Grupo 1102022" transform="translate(1144.641 391)">
        <g id="Grupo_1102021" data-name="Grupo 1102021" clip-path="url(#clip-path-2)">
          <g id="Grupo_1101996" data-name="Grupo 1101996">
            <g id="Grupo_1101995" data-name="Grupo 1101995" clip-path="url(#clip-path-2)">
              <path id="Trazado_912825" data-name="Trazado 912825" d="M49.819,51.078S9.261,115.71,5.783,123.665c-8.566,19.593-8.943,30.171,8.014,38.859,7.9,4.049,25.923,4.535,38.63-10.018,14.95-17.12,54.968-75.564,54.968-75.564l-13.056-.056Z" transform="translate(0 78.991)" fill="#fd521b"/>
              <path id="Trazado_912826" data-name="Trazado 912826" d="M32.925,107.629a1.274,1.274,0,0,1-.051-2.546l106.5-4.143a1.232,1.232,0,0,1,1.322,1.225,1.274,1.274,0,0,1-1.222,1.322l-106.5,4.143Z" transform="translate(48.947 156.1)"/>
              <path id="Trazado_912827" data-name="Trazado 912827" d="M32.362,100.93,32.2,111.193l107.12-8.024L137.8,93.245Z" transform="translate(49.792 144.202)"/>
              <path id="Trazado_912828" data-name="Trazado 912828" d="M83.987,36.653l-36.947,3.8L43.971,76.813l57.685-2.725Z" transform="translate(68.001 56.683)"/>
              <path id="Trazado_912829" data-name="Trazado 912829" d="M177.586,496.268,155.554,93.127,41.143,101.112,26.518,494.49l69.827,3.822,1.777-174.177,11.485,176.889Z" transform="translate(41.01 144.019)" fill="#fff"/>
              <path id="Trazado_912830" data-name="Trazado 912830" d="M110.186,502.559a.956.956,0,0,1-.629-.237.934.934,0,0,1-.323-.657L99.4,350.163,97.879,498.9a.944.944,0,0,1-.3.688.827.827,0,0,1-.708.255L27.046,496.02a.948.948,0,0,1-.9-.986L40.769,101.657a.956.956,0,0,1,.889-.917l114.406-7.986a.95.95,0,0,1,.7.237.939.939,0,0,1,.321.665l22.032,403.138a.95.95,0,0,1-.886,1.006l-67.976,4.757-.069,0M98.7,323.758a.954.954,0,0,1,.95.891l11.421,175.934,66.089-4.624L155.231,94.725,42.646,102.584,28.09,494.166l67.892,3.718L97.749,324.7a.953.953,0,0,1,.927-.945Z" transform="translate(40.431 143.439)"/>
              <path id="Trazado_912831" data-name="Trazado 912831" d="M140.374,103.619l-5.159-19.478-22.972,1.724L37,93.044,32.922,108.6Z" transform="translate(50.914 130.123)"/>
              <rect id="Rectángulo_403625" data-name="Rectángulo 403625" width="25.307" height="62.521" transform="translate(122.269 84.584)" fill="#ef8e4d"/>
              <path id="Trazado_912832" data-name="Trazado 912832" d="M127.115,44.157l22.676-2.893A67.03,67.03,0,0,1,206.041,60.73L273.553,129.3c21.923,22.269,9.73,44.706-17.077,60.769-20.845,12.493-48.8,25.251-72.149,33.346L171.266,192.4l50.54-41.115-40.932-26.876-.621,56.117L43.858,185.487l-.275-64.663L17.423,90.193l7.795-18.556a39.205,39.205,0,0,1,37.258-24l23.843.677,8.111-5.022,6.71,36.573L109.575,47Z" transform="translate(26.944 62.981)" fill="#fd521b"/>
              <path id="Trazado_912833" data-name="Trazado 912833" d="M53.136,38.2,40,55.892l8.574,22.982L59.514,47.2Z" transform="translate(61.86 59.074)" fill="#fd521b"/>
              <path id="Trazado_912834" data-name="Trazado 912834" d="M69.079,36.653,85.45,48.629,77.039,79.541,53.611,53.3Z" transform="translate(82.909 56.683)" fill="#fd521b"/>
              <path id="Trazado_912835" data-name="Trazado 912835" d="M55.787.086s48.867,2.623,28.961,58.477C68.815,103.277,46.892,4.087,46.892,4.087Z" transform="translate(72.518 0.133)"/>
              <path id="Trazado_912836" data-name="Trazado 912836" d="M47.516,38.366V59.517C57.238,57.332,74.081,44.1,74.081,44.1l.642-.968V26.26H69.151Z" transform="translate(73.483 40.611)"/>
              <path id="Trazado_912837" data-name="Trazado 912837" d="M74.893.575S36.683.328,32.71,32.844c-5.185,42.45,15.707,55.722,32.371,58.213S109.9,69.447,108.157,53.252,90.528,5.933,74.893.575" transform="translate(49.34 0.889)" fill="#ef8e4d"/>
              <path id="Trazado_912838" data-name="Trazado 912838" d="M44.942,30.907S45.3,8.711,66.694,18.1c0,0-3.181,20.955-21.752,12.806" transform="translate(69.502 24.411)" fill="#fff"/>
              <path id="Trazado_912839" data-name="Trazado 912839" d="M50.351,29.062S39.8,7.173,32.477,25.525c0,0,5.908,14.423,17.874,3.537" transform="translate(50.225 28.137)" fill="#fff"/>
              <path id="Trazado_912840" data-name="Trazado 912840" d="M33.135,16.995c4.2-1.5,12.289.448,12.289.448Z" transform="translate(51.243 25.401)"/>
              <path id="Trazado_912841" data-name="Trazado 912841" d="M45.964,18.874h-.031l-12.289-.446a.891.891,0,0,1-.27-1.729c4.4-1.584,12.455.336,12.8.418a.891.891,0,0,1-.209,1.757" transform="translate(50.703 24.859)"/>
              <path id="Trazado_912842" data-name="Trazado 912842" d="M43.45,19.394s3.137-4.237,15.228-5.681Z" transform="translate(67.195 21.207)"/>
              <path id="Trazado_912843" data-name="Trazado 912843" d="M43.991,20.821a.888.888,0,0,1-.716-1.418c.138-.188,3.509-4.563,15.837-6.035a.9.9,0,0,1,.97.675.89.89,0,0,1-.555,1.044L44.3,20.765a.88.88,0,0,1-.311.056" transform="translate(66.653 20.668)"/>
              <path id="Trazado_912844" data-name="Trazado 912844" d="M43.764,30.137a.881.881,0,0,1-.486-.145l-4.314-2.819a.89.89,0,0,1,.02-1.5l3.542-2.182A.889.889,0,1,1,43.459,25L41.114,26.45,44.251,28.5a.89.89,0,0,1-.486,1.635" transform="translate(59.635 36.119)"/>
              <path id="Trazado_912845" data-name="Trazado 912845" d="M45.944,33.49a16.207,16.207,0,0,1-4.871-.731.889.889,0,1,1,.575-1.683c.066.02,7.158,2.366,12.065-2.277a.891.891,0,0,1,1.225,1.294,12.793,12.793,0,0,1-8.994,3.4" transform="translate(62.586 44.16)"/>
              <path id="Trazado_912846" data-name="Trazado 912846" d="M52.464,16.172h0c-7.349,3.356-7.522,14.138-7.522,14.138C53.58,34.1,58.889,31.593,62.1,27.827a9.8,9.8,0,0,0-9.631-11.655" transform="translate(69.502 25.01)"/>
              <path id="Trazado_912847" data-name="Trazado 912847" d="M38.821,18.213c-2.17.321-4.375,2.345-6.343,7.283,0,0,4.93,12.04,14.907,5.816a11.12,11.12,0,0,0,.132-4.94,11,11,0,0,0-2.434-5.093,14.425,14.425,0,0,0-1.923-1.706,7.8,7.8,0,0,0-4.339-1.36" transform="translate(50.227 28.166)"/>
              <path id="Trazado_912848" data-name="Trazado 912848" d="M60.965,19.933s5.447-11.671,13.6-3.517c8.388,8.388-7.3,19.855-12.144,18.447-9.893-2.878-1.457-14.93-1.457-14.93" transform="translate(89.097 20.913)" fill="#ef8e4d"/>
              <path id="Trazado_912849" data-name="Trazado 912849" d="M61.781,26.016a1.975,1.975,0,0,1-.321-.028,1.784,1.784,0,0,1-1.436-2.068c1.367-7.555,6.776-9.18,9.5-9.037a1.782,1.782,0,0,1,1.658,1.9,1.725,1.725,0,0,1-1.879,1.658c-.471.01-4.67,0-5.775,6.114a1.783,1.783,0,0,1-1.749,1.464" transform="translate(92.783 23.003)"/>
              <path id="Trazado_912850" data-name="Trazado 912850" d="M65.136,23.7a1.779,1.779,0,0,1-1.294-.558l-2.995-3.16a1.781,1.781,0,0,1,2.587-2.45l2.995,3.163a1.78,1.78,0,0,1-1.294,3" transform="translate(93.347 26.254)"/>
              <path id="Trazado_912851" data-name="Trazado 912851" d="M88.456,24.07s2.557,11.283,16.117,21.1c0,0,.1-12.768,1.989-28.75C107.514,8.358,89.368,1.7,82.775.52,71.216-1.558,48.927,2.845,38.413,9.1c-9.552,5.679-8,16.812-6.165,18.449,4.23,3.764,23.593-2.628,23.41-7.112L78.13,16.362S83.521,28.5,88.456,24.07" transform="translate(47.74 -0.001)"/>
              <path id="Trazado_912852" data-name="Trazado 912852" d="M75.617,71.59a1.274,1.274,0,0,1-.945-.42L53.44,47.658a1.273,1.273,0,1,1,1.889-1.706L75.161,67.913l9.87-26.229a1.273,1.273,0,0,1,2.384.894L76.809,70.765a1.272,1.272,0,0,1-.955.8,1.243,1.243,0,0,1-.237.023" transform="translate(82.135 63.18)"/>
              <path id="Trazado_912853" data-name="Trazado 912853" d="M48.091,72.354h-.064a1.274,1.274,0,0,1-1.166-.927l-6.6-23.647a1.273,1.273,0,1,1,2.452-.688l5.577,19.964L58,42.049a1.272,1.272,0,1,1,2.373.917l-11.1,28.579a1.277,1.277,0,0,1-1.187.81" transform="translate(62.185 63.765)"/>
              <path id="Trazado_912854" data-name="Trazado 912854" d="M49.2,161.856l-.061,0a1.267,1.267,0,0,1-1.21-1.329L52.689,56.813a1.273,1.273,0,0,1,2.544.115L50.471,160.638a1.27,1.27,0,0,1-1.268,1.217" transform="translate(74.123 85.973)"/>
              <path id="Trazado_912855" data-name="Trazado 912855" d="M53.165,176.252l-.061,0a1.269,1.269,0,0,1-1.21-1.332L56.816,73.542,62.892,47.27a1.274,1.274,0,0,1,2.483.575L59.327,73.894,54.435,175.04a1.271,1.271,0,0,1-1.271,1.212" transform="translate(80.25 71.576)"/>
              <path id="Trazado_912856" data-name="Trazado 912856" d="M98.456,93.849a1.273,1.273,0,0,1-.789-2.274L113.649,78.96a1.274,1.274,0,0,1,1.576,2L99.246,93.577a1.28,1.28,0,0,1-.789.272" transform="translate(150.291 121.688)"/>
              <path id="Trazado_912857" data-name="Trazado 912857" d="M98.456,91.76a1.273,1.273,0,0,1-1.138-1.844l6.634-13.257A1.274,1.274,0,0,1,106.23,77.8L99.594,91.057a1.278,1.278,0,0,1-1.138.7" transform="translate(150.292 117.469)"/>
              <path id="Trazado_912858" data-name="Trazado 912858" d="M80.875,99.249a1.288,1.288,0,0,1-.377-.056,1.272,1.272,0,0,1-.84-1.592L95.24,47.29a1.273,1.273,0,1,1,2.432.751L82.09,98.35a1.27,1.27,0,0,1-1.215.9" transform="translate(123.1 71.74)"/>
              <path id="Trazado_912859" data-name="Trazado 912859" d="M19.886,151.981a1.274,1.274,0,0,1-1.131-1.856L58.544,72.816,24.618,53.7a1.273,1.273,0,0,1,1.25-2.218L60.862,71.2a1.273,1.273,0,0,1,.507,1.691l-40.352,78.4a1.272,1.272,0,0,1-1.131.69" transform="translate(28.785 79.359)"/>
              <path id="Trazado_912860" data-name="Trazado 912860" d="M25.143,91.413a1.273,1.273,0,0,1-1.189-.817L22.1,85.742a1.272,1.272,0,1,1,2.376-.909l1.856,4.851a1.275,1.275,0,0,1-.733,1.645,1.3,1.3,0,0,1-.456.084" transform="translate(34.045 129.927)"/>
              <path id="Trazado_912861" data-name="Trazado 912861" d="M47.534,166.385a1.275,1.275,0,0,1-1.273-1.271l-.153-66.18a1.272,1.272,0,0,1,1.271-1.276h0a1.272,1.272,0,0,1,1.273,1.271l.153,66.18a1.274,1.274,0,0,1-1.271,1.276Z" transform="translate(71.305 151.026)"/>
              <path id="Trazado_912862" data-name="Trazado 912862" d="M51.936,141.315a1.274,1.274,0,0,1-1.273-1.273V98.666a1.273,1.273,0,0,1,2.546,0v41.375a1.274,1.274,0,0,1-1.273,1.273" transform="translate(78.349 150.616)"/>
              <path id="Trazado_912863" data-name="Trazado 912863" d="M53.91,77a1.276,1.276,0,0,1-.616-.158L17.116,56.8a1.273,1.273,0,1,1,1.232-2.228L54.526,74.617A1.273,1.273,0,0,1,53.91,77" transform="translate(25.453 84.151)"/>
              <path id="Trazado_912864" data-name="Trazado 912864" d="M24.6,88.725a1.275,1.275,0,0,1-1.126-1.864L39.161,56.938a1.272,1.272,0,0,1,2.254,1.182L25.724,88.043a1.267,1.267,0,0,1-1.126.682" transform="translate(36.072 87.002)"/>
              <path id="Trazado_912865" data-name="Trazado 912865" d="M95.825,130.454a1.272,1.272,0,0,1-1.169-.769L81.211,98.5a1.273,1.273,0,1,1,2.338-1.008l13.445,31.187a1.274,1.274,0,0,1-.665,1.673,1.261,1.261,0,0,1-.5.1" transform="translate(125.428 149.575)"/>
              <path id="Trazado_912866" data-name="Trazado 912866" d="M82.982,120.711a1.273,1.273,0,0,1-.54-2.427l33.191-15.534a1.275,1.275,0,0,1,1.08,2.31L83.521,120.592a1.27,1.27,0,0,1-.54.12" transform="translate(126.359 158.716)"/>
              <path id="Trazado_912867" data-name="Trazado 912867" d="M46.595,43.5a1.3,1.3,0,0,1-.413-.069,1.273,1.273,0,0,1-.792-1.617c.6-1.747,1.072-3.323,1.441-4.65A3.229,3.229,0,0,0,44.591,33.2a1.386,1.386,0,0,0-1.709.932q-.561,1.761-1.276,3.524a1.274,1.274,0,0,1-2.363-.955c.451-1.113.858-2.226,1.212-3.338a3.929,3.929,0,0,1,4.815-2.615,5.773,5.773,0,0,1,4.013,7.094c-.379,1.37-.868,3-1.485,4.8a1.275,1.275,0,0,1-1.2.861" transform="translate(60.546 47.325)"/>
              <path id="Trazado_912868" data-name="Trazado 912868" d="M23.634,87.314s34.3-30.008,42.03-54.339A2.675,2.675,0,0,1,68.926,31.2a4.494,4.494,0,0,1,3.127,5.531c-1.854,6.7-6.415,19.7-15.686,28.859-13,12.832-15.648,25.164-15.648,25.164L36.6,94.623Z" transform="translate(36.55 48.1)" fill="#ef8e4d"/>
              <path id="Trazado_912869" data-name="Trazado 912869" d="M36.117,45.076a14.07,14.07,0,0,1,14.405-3.252c6.287,2.035,5.373,9.8,3.606,14.706-.736,2.045-2.771,4.66-4.826,3.95l-2.941-2.485Z" transform="translate(55.854 63.506)" fill="#ef8e4d"/>
              <path id="Trazado_912870" data-name="Trazado 912870" d="M35.146,47.669s5.126-6.219,12.875-3.631C55.3,46.469,51.2,59.131,49.164,62.11l-5.286-1.9Z" transform="translate(54.353 67.129)" fill="#ef8e4d"/>
              <path id="Trazado_912871" data-name="Trazado 912871" d="M35.5,52.872a3.169,3.169,0,0,1,.777-4.3,10.778,10.778,0,0,1,10.066-1.7c5.508,1.867,4.046,10.3,2.228,15.159a3.166,3.166,0,0,1-4.051,1.861L43.188,63.4l-.018-.008a2.516,2.516,0,0,1-1.614-2.18L40.9,52.6Z" transform="translate(54.09 71.574)" fill="#ef8e4d"/>
              <path id="Trazado_912872" data-name="Trazado 912872" d="M56.591,65.671s.558,5.34-7.041,10.005c-6.379,3.919-9.74,4.7-9.74,4.7L23.634,71.258,46.155,52.187l10.056-10.7,5.781,19.768Z" transform="translate(36.55 64.159)" fill="#ef8e4d"/>
              <path id="Trazado_912873" data-name="Trazado 912873" d="M51.616,62.243a.636.636,0,0,1-.542-.973c1.151-1.859,3.478-8.7,1.9-13.063a5.119,5.119,0,0,0-3.308-3.287c-7.245-2.414-14.5,6.562-14.576,6.659a.637.637,0,0,1-1-.795c.318-.4,7.917-9.753,15.977-7.072a6.341,6.341,0,0,1,4.1,4.062c1.749,4.836-.731,12.093-2.012,14.169a.64.64,0,0,1-.542.3" transform="translate(52.507 66.854)"/>
              <path id="Trazado_912874" data-name="Trazado 912874" d="M46.225,64.97a3.74,3.74,0,0,1-1.3-.232c-.048-.005-3.084-.718-3.377-3.2l.239-7.094a.682.682,0,0,1,.66-.614.639.639,0,0,1,.614.66l-.244,7c.183,1.485,2.447,2.024,2.47,2.03A2.561,2.561,0,0,0,48.6,62.055c1.324-3.537,2.345-8.778.863-11.9a4.439,4.439,0,0,0-2.7-2.432c-3.9-1.306-8.681,1.53-11.182,3.351a.637.637,0,0,1-.751-1.029c2.7-1.963,7.892-5.034,12.34-3.524a5.736,5.736,0,0,1,3.445,3.086c1.65,3.481.654,8.943-.825,12.9a3.812,3.812,0,0,1-3.568,2.468" transform="translate(53.465 71.32)"/>
              <path id="Trazado_912875" data-name="Trazado 912875" d="M33.924,52.2a.635.635,0,0,1-.476-1.057c.494-.563,12.277-13.71,21.709-9.5A.637.637,0,0,1,54.64,42.8c-8.617-3.845-20.125,9.05-20.239,9.18a.624.624,0,0,1-.476.216" transform="translate(51.48 63.111)"/>
              <g id="Grupo_1101994" data-name="Grupo 1101994" transform="translate(100.708 129.214)" opacity="0.3" style="mix-blend-mode: overlay;isolation: isolate">
                <g id="Grupo_1101993" data-name="Grupo 1101993">
                  <g id="Grupo_1101992" data-name="Grupo 1101992" clip-path="url(#clip-path-4)">
                    <path id="Trazado_912876" data-name="Trazado 912876" d="M42.362,54.035c-.453,1.6-1.4,2.743-2.108,2.541s-.919-1.665-.463-3.27,1.4-2.743,2.108-2.541.917,1.665.463,3.27" transform="translate(-39.548 -50.742)"/>
                  </g>
                </g>
              </g>
            </g>
          </g>
          <g id="Grupo_1102001" data-name="Grupo 1102001" transform="translate(91.971 104.571)">
            <g id="Grupo_1102000" data-name="Grupo 1102000" clip-path="url(#clip-path-5)">
              <g id="Grupo_1101999" data-name="Grupo 1101999" transform="translate(14.676 13.501)" opacity="0.3" style="mix-blend-mode: overlay;isolation: isolate">
                <g id="Grupo_1101998" data-name="Grupo 1101998">
                  <g id="Grupo_1101997" data-name="Grupo 1101997" clip-path="url(#clip-path-6)">
                    <path id="Trazado_912877" data-name="Trazado 912877" d="M46.392,50.987c-.891,1.9-2.49,3.033-3.578,2.526s-1.248-2.46-.364-4.362,1.63-3.4,3.578-2.529c1.092.494,1.25,2.462.364,4.365" transform="translate(-41.88 -46.368)"/>
                  </g>
                </g>
              </g>
            </g>
          </g>
          <g id="Grupo_1102006" data-name="Grupo 1102006" transform="translate(60.184 79.203)">
            <g id="Grupo_1102005" data-name="Grupo 1102005" clip-path="url(#clip-path-7)">
              <g id="Grupo_1102004" data-name="Grupo 1102004" transform="translate(39.944 -0.166)" opacity="0.3" style="mix-blend-mode: overlay;isolation: isolate">
                <g id="Grupo_1102003" data-name="Grupo 1102003">
                  <g id="Grupo_1102002" data-name="Grupo 1102002" clip-path="url(#clip-path-8)">
                    <path id="Trazado_912879" data-name="Trazado 912879" d="M44.609,35.562c-.619,2.05-1.963,3.524-3.568,2.972-2.065-.708-1.943-2.4-1.324-4.451s2.218-3.379,3.568-2.972,1.943,2.4,1.324,4.451" transform="translate(-39.32 -31.039)"/>
                  </g>
                </g>
              </g>
            </g>
          </g>
          <g id="Grupo_1102020" data-name="Grupo 1102020">
            <g id="Grupo_1102019" data-name="Grupo 1102019" clip-path="url(#clip-path-2)">
              <path id="Trazado_912881" data-name="Trazado 912881" d="M57.423,53.28a1.284,1.284,0,0,1-.57-.135L53.606,51.52a1.273,1.273,0,1,1,1.138-2.277l3.249,1.625a1.273,1.273,0,0,1-.57,2.412" transform="translate(81.811 75.946)"/>
              <path id="Trazado_912882" data-name="Trazado 912882" d="M55.857,60.153a1.251,1.251,0,0,1-.3-.038l-3.641-.891a1.273,1.273,0,0,1,.606-2.473l3.641.894a1.273,1.273,0,0,1-.3,2.508" transform="translate(78.783 87.706)"/>
              <path id="Trazado_912883" data-name="Trazado 912883" d="M55.552,67.742a1.251,1.251,0,0,1-.3-.038l-3.641-.891a1.273,1.273,0,0,1,.606-2.473l3.641.894a1.273,1.273,0,0,1-.3,2.508" transform="translate(78.309 99.445)"/>
              <path id="Trazado_912884" data-name="Trazado 912884" d="M55.249,75.33a1.252,1.252,0,0,1-.306-.036L51.3,74.4a1.273,1.273,0,0,1,.606-2.473l3.644.894a1.271,1.271,0,0,1-.3,2.506" transform="translate(77.838 111.182)"/>
              <path id="Trazado_912885" data-name="Trazado 912885" d="M54.941,82.922a1.25,1.25,0,0,1-.3-.038L51,81.992A1.273,1.273,0,0,1,51.6,79.52l3.641.894a1.273,1.273,0,0,1-.3,2.508" transform="translate(77.366 122.918)"/>
              <path id="Trazado_912886" data-name="Trazado 912886" d="M54.636,90.51a1.251,1.251,0,0,1-.3-.038l-3.641-.891a1.273,1.273,0,0,1,.606-2.473L54.939,88a1.273,1.273,0,0,1-.3,2.508" transform="translate(76.893 134.657)"/>
              <path id="Trazado_912887" data-name="Trazado 912887" d="M83.727,105.045l-5.1,6.152.489,14.775s10.074-6.31,10.16-9.924-5.549-11-5.549-11" transform="translate(121.594 162.45)" fill="#ef8e4d"/>
              <path id="Trazado_912888" data-name="Trazado 912888" d="M101.632,107.086a34.18,34.18,0,0,0-1.775-6A10.817,10.817,0,0,0,85.581,95.11l-14.922,6.308a3.274,3.274,0,0,0-1.5,4.749,5.923,5.923,0,0,0,7.01,2.468l10.326-3.506Z" transform="translate(106.179 145.759)" fill="#ef8e4d"/>
              <path id="Trazado_912889" data-name="Trazado 912889" d="M102.391,115.64l1.3-6.3a6.254,6.254,0,0,0-.033-2.722,10.337,10.337,0,0,0-7.662-7.6l-2.934-.69a13.508,13.508,0,0,0-11.841,2.847l-9.852,8.352c-4.757,4.039.071,8.475,5.208,7.749a10.734,10.734,0,0,0,1.53-.328c4.451-1.311,12.32-7.953,12.32-7.953Z" transform="translate(107.358 151.498)" fill="#ef8e4d"/>
              <path id="Trazado_912890" data-name="Trazado 912890" d="M99.984,115.491s.02-8.867-2.182-11.39a9.852,9.852,0,0,0-14.184-.858L72.838,113.367A3.078,3.078,0,0,0,73.08,118a5.557,5.557,0,0,0,3.14,1.217,5.354,5.354,0,0,0,3.677-1.2l7.736-6.252Z" transform="translate(111.196 155.62)" fill="#ef8e4d"/>
              <path id="Trazado_912891" data-name="Trazado 912891" d="M96.482,108.61c-2.475-4.912-8-6.2-11.62-3.183l-9.651,8.042A3.376,3.376,0,0,0,75.058,118a4.922,4.922,0,0,0,2.493,1.7,3.671,3.671,0,0,0,3.119-.563l4.754-3.708c6.679-4.668,4.706-1.136,8.658,6.96,0,0,5.579-7.476,2.4-13.787" transform="translate(114.846 160.543)" fill="#ef8e4d"/>
              <g id="Grupo_1102009" data-name="Grupo 1102009" transform="translate(174.739 246.242)" opacity="0.3" style="mix-blend-mode: overlay;isolation: isolate">
                <g id="Grupo_1102008" data-name="Grupo 1102008">
                  <g id="Grupo_1102007" data-name="Grupo 1102007" clip-path="url(#clip-path-10)">
                    <path id="Trazado_912892" data-name="Trazado 912892" d="M68.73,101.189c.525,1.477,2.776,2.027,5.027,1.227s3.649-2.646,3.125-4.123-2.773-2.027-5.024-1.227-3.652,2.646-3.127,4.123" transform="translate(-68.62 -96.699)"/>
                  </g>
                </g>
              </g>
              <g id="Grupo_1102012" data-name="Grupo 1102012" transform="translate(177.331 259.155)" opacity="0.3" style="mix-blend-mode: overlay;isolation: isolate">
                <g id="Grupo_1102011" data-name="Grupo 1102011">
                  <g id="Grupo_1102010" data-name="Grupo 1102010" clip-path="url(#clip-path-11)">
                    <path id="Trazado_912893" data-name="Trazado 912893" d="M70.071,108.536c1.075,1.63,3.807,1.727,6.1.214s3.287-4.059,2.215-5.691-3.807-1.727-6.1-.214-3.288,4.062-2.213,5.691" transform="translate(-69.638 -101.77)"/>
                  </g>
                </g>
              </g>
              <g id="Grupo_1102015" data-name="Grupo 1102015" transform="translate(183.568 266.522)" opacity="0.3" style="mix-blend-mode: overlay;isolation: isolate">
                <g id="Grupo_1102014" data-name="Grupo 1102014">
                  <g id="Grupo_1102013" data-name="Grupo 1102013" clip-path="url(#clip-path-12)">
                    <path id="Trazado_912894" data-name="Trazado 912894" d="M72.569,111.228c1.054,1.306,3.494,1.087,5.447-.489s2.684-3.916,1.63-5.223-3.491-1.087-5.447.491-2.684,3.914-1.63,5.22" transform="translate(-72.087 -104.663)"/>
                  </g>
                </g>
              </g>
              <g id="Grupo_1102018" data-name="Grupo 1102018" transform="translate(189.448 272.058)" opacity="0.3" style="mix-blend-mode: overlay;isolation: isolate">
                <g id="Grupo_1102017" data-name="Grupo 1102017">
                  <g id="Grupo_1102016" data-name="Grupo 1102016" clip-path="url(#clip-path-13)">
                    <path id="Trazado_912895" data-name="Trazado 912895" d="M74.847,112.969c.985,1.22,3.265,1.016,5.09-.458s2.506-3.657,1.523-4.876-3.265-1.016-5.09.458-2.508,3.657-1.523,4.877" transform="translate(-74.396 -106.837)"/>
                  </g>
                </g>
              </g>
              <path id="Trazado_912896" data-name="Trazado 912896" d="M75.18,118.337a.211.211,0,0,1-.163-.076,3.6,3.6,0,0,1,.183-4.828l9.651-8.042a7.14,7.14,0,0,1,6.053-1.508,8.671,8.671,0,0,1,5.885,4.757.207.207,0,0,1-.092.28.211.211,0,0,1-.28-.092,8.264,8.264,0,0,0-5.6-4.538,6.631,6.631,0,0,0-5.7,1.421l-9.651,8.042A3.169,3.169,0,0,0,75.341,118a.207.207,0,0,1-.16.339" transform="translate(114.724 160.418)"/>
              <path id="Trazado_912897" data-name="Trazado 912897" d="M75.571,119.36a.855.855,0,0,1-.657-.316,4.209,4.209,0,0,1,.27-5.714l9.651-8.042a7.813,7.813,0,0,1,6.59-1.645,9.317,9.317,0,0,1,6.325,5.1,1.116,1.116,0,0,1,.048.644,1.165,1.165,0,0,1-.418.489.835.835,0,0,1-.657.046,1.065,1.065,0,0,1-.484-.428,7.646,7.646,0,0,0-5.159-4.192,6.018,6.018,0,0,0-5.164,1.289l-9.649,8.042a2.546,2.546,0,0,0-.041,3.354.847.847,0,0,1-.12,1.182,1.1,1.1,0,0,1-.537.194m.331-1.115,0,0,0,0m20.711-8.93,0,.005,0-.005" transform="translate(114.333 160.032)"/>
              <path id="Trazado_912898" data-name="Trazado 912898" d="M72.4,113.695a.209.209,0,0,1-.145-.359l10.779-10.125a10.585,10.585,0,0,1,9.8-2.282c2.2.644,5.057,2.391,6.226,7.051a.21.21,0,0,1-.153.252.206.206,0,0,1-.252-.15c-1.118-4.469-3.848-6.14-5.938-6.753a10.149,10.149,0,0,0-9.394,2.185L72.539,113.639a.2.2,0,0,1-.14.056" transform="translate(111.638 155.499)"/>
              <path id="Trazado_912899" data-name="Trazado 912899" d="M72.783,114.717a.833.833,0,0,1-.6-.252.843.843,0,0,1,.031-1.212l10.769-10.12A11.253,11.253,0,0,1,93.394,100.7c2.353.69,5.421,2.554,6.662,7.51a1.1,1.1,0,0,1-.092.639.844.844,0,0,1-1.546-.234c-1.047-4.174-3.565-5.727-5.5-6.292a9.458,9.458,0,0,0-8.78,2.04L73.356,114.487a1.1,1.1,0,0,1-.573.229m.3-.54-.013.01.013-.01" transform="translate(111.254 155.114)"/>
              <path id="Trazado_912900" data-name="Trazado 912900" d="M93.413,101.695a.216.216,0,0,1-.1-.023,41.743,41.743,0,0,0-7.342-3.007,13.009,13.009,0,0,0-11.658,2.8.2.2,0,0,1-.293-.023.207.207,0,0,1,.023-.293A13.415,13.415,0,0,1,86.068,98.26a41.231,41.231,0,0,1,7.441,3.043.208.208,0,0,1-.1.392" transform="translate(114.398 151.359)"/>
              <path id="Trazado_912901" data-name="Trazado 912901" d="M93.8,102.719a1.063,1.063,0,0,1-.377-.092,41.3,41.3,0,0,0-7.207-2.956,12.377,12.377,0,0,0-11.1,2.671.824.824,0,0,1-.616.2.845.845,0,0,1-.772-.914.829.829,0,0,1,.293-.57A14.039,14.039,0,0,1,86.6,98.028a42.264,42.264,0,0,1,7.594,3.1.844.844,0,0,1-.4,1.592m-.2-.466.008.005-.008-.005m-19.3-.881-.005,0,.005,0" transform="translate(114.011 150.972)"/>
              <path id="Trazado_912902" data-name="Trazado 912902" d="M23.634,54.1l1.691-1.52,19.009,8.829-4.525,1.808Z" transform="translate(36.55 81.315)"/>
            </g>
          </g>
        </g>
      </g>
      <g id="Grupo_1102023" data-name="Grupo 1102023" transform="translate(1094.132 550.499)">
        <g id="Grupo_1102023-2" data-name="Grupo 1102023" transform="translate(0 0.001)" clip-path="url(#clip-path-14)">
          <path id="Trazado_912903" data-name="Trazado 912903" d="M214.741,131.375H4.177A4.177,4.177,0,0,1,0,127.2V4.177A4.177,4.177,0,0,1,4.177,0H214.741a4.177,4.177,0,0,1,4.177,4.177V127.2a4.177,4.177,0,0,1-4.177,4.177" transform="translate(0 -0.001)" fill="#5774cd"/>
          <path id="Trazado_912904" data-name="Trazado 912904" d="M75.919,110.812H40.26a2.93,2.93,0,0,1-2.925-3.068L40.7,37.066a2.928,2.928,0,0,1,2.923-2.79h29.1a2.929,2.929,0,0,1,2.925,2.8l3.189,70.678a2.929,2.929,0,0,1-2.925,3.06" transform="translate(51.374 47.167)"/>
          <path id="Trazado_912905" data-name="Trazado 912905" d="M100.994,68.292H36.468A6.878,6.878,0,0,1,29.6,61.423V33.47A6.879,6.879,0,0,1,36.468,26.6h64.527a6.879,6.879,0,0,1,6.872,6.872V61.423a6.878,6.878,0,0,1-6.872,6.869M36.468,28.974a4.5,4.5,0,0,0-4.5,4.5V61.423a4.5,4.5,0,0,0,4.5,4.493h64.527a4.5,4.5,0,0,0,4.5-4.493V33.47a4.5,4.5,0,0,0-4.5-4.5Z" transform="translate(40.728 36.601)"/>
          <path id="Trazado_912906" data-name="Trazado 912906" d="M108.513,73.577H30.143a.982.982,0,0,1-.981-.981V66.327a.982.982,0,0,1,.981-.981h78.37a.982.982,0,0,1,.981.981V72.6a.982.982,0,0,1-.981.981" transform="translate(40.131 89.924)" fill="#5774cd"/>
        </g>
      </g>
    </g>
  </g>
</svg>
