<svg xmlns="http://www.w3.org/2000/svg" width="400.289" height="293" viewBox="0 0 400.289 293">
  <g id="Grupo_1101143" data-name="Grupo 1101143" transform="translate(-1020.051 -933)">
    <rect id="Rectángulo_402922" data-name="Rectángulo 402922" width="400.289" height="293" rx="10" transform="translate(1020.051 933)" fill="#6b6dac"/>
    <g id="Grupo_1101141" data-name="Grupo 1101141" transform="translate(-38.828 -32.313)">
      <g id="Grupo_1101140" data-name="Grupo 1101140" transform="translate(1127.051 1005)">
        <g id="Grupo_1101139" data-name="Grupo 1101139">
          <circle id="Elipse_11525" data-name="Elipse 11525" cx="80" cy="80" r="80" transform="translate(103.828 0.313)" fill="#feead2"/>
          <g id="Rectángulo_402967" data-name="Rectángulo 402967" transform="translate(5.828 55.313)" fill="#03000d" stroke="#048fe5" stroke-width="2">
            <rect width="147" height="147" stroke="none"/>
            <rect x="1" y="1" width="145" height="145" fill="none"/>
          </g>
          <g id="Rectángulo_402972" data-name="Rectángulo 402972" transform="translate(149.828 124.313)" fill="#fff" stroke="#048fe5" stroke-width="1">
            <rect width="9" height="9" stroke="none"/>
            <rect x="0.5" y="0.5" width="8" height="8" fill="none"/>
          </g>
          <g id="Rectángulo_402978" data-name="Rectángulo 402978" transform="translate(74.828 51.313)" fill="#fff" stroke="#048fe5" stroke-width="1">
            <rect width="9" height="8" stroke="none"/>
            <rect x="0.5" y="0.5" width="8" height="7" fill="none"/>
          </g>
          <g id="Rectángulo_402974" data-name="Rectángulo 402974" transform="translate(147.828 52.313)" fill="#fff" stroke="#048fe5" stroke-width="1">
            <rect width="8" height="9" stroke="none"/>
            <rect x="0.5" y="0.5" width="7" height="8" fill="none"/>
          </g>
          <g id="Rectángulo_402977" data-name="Rectángulo 402977" transform="translate(147.828 198.313)" fill="#fff" stroke="#048fe5" stroke-width="1">
            <rect width="8" height="9" stroke="none"/>
            <rect x="0.5" y="0.5" width="7" height="8" fill="none"/>
          </g>
          <g id="Rectángulo_402975" data-name="Rectángulo 402975" transform="translate(2.828 52.313)" fill="#fff" stroke="#048fe5" stroke-width="1">
            <rect width="9" height="9" stroke="none"/>
            <rect x="0.5" y="0.5" width="8" height="8" fill="none"/>
          </g>
          <g id="Rectángulo_402976" data-name="Rectángulo 402976" transform="translate(2.828 198.313)" fill="#fff" stroke="#048fe5" stroke-width="1">
            <rect width="9" height="9" stroke="none"/>
            <rect x="0.5" y="0.5" width="8" height="8" fill="none"/>
          </g>
          <g id="Rectángulo_402973" data-name="Rectángulo 402973" transform="translate(-0.172 124.313)" fill="#fff" stroke="#048fe5" stroke-width="1">
            <rect width="9" height="9" stroke="none"/>
            <rect x="0.5" y="0.5" width="8" height="8" fill="none"/>
          </g>
          <g id="Rectángulo_402979" data-name="Rectángulo 402979" transform="translate(74.828 201.313)" fill="#fff" stroke="#048fe5" stroke-width="1">
            <rect width="9" height="8" stroke="none"/>
            <rect x="0.5" y="0.5" width="8" height="7" fill="none"/>
          </g>
          <g id="Grupo_1101131" data-name="Grupo 1101131" transform="translate(138.916 191.364)">
            <g id="Elipse_11526" data-name="Elipse 11526" transform="translate(-0.087 -0.051)" fill="#fff" stroke="#048fe5" stroke-width="0.6">
              <circle cx="3" cy="3" r="3" stroke="none"/>
              <circle cx="3" cy="3" r="2.7" fill="none"/>
            </g>
            <circle id="Elipse_11527" data-name="Elipse 11527" cx="0.714" cy="0.714" r="0.714" transform="translate(2.142 1.653)" fill="#048fe5"/>
          </g>
          <g id="Grupo_1101138" data-name="Grupo 1101138" transform="translate(11.34 191.364)">
            <g id="Elipse_11526-2" data-name="Elipse 11526" transform="translate(0.488 -0.051)" fill="#fff" stroke="#048fe5" stroke-width="0.6">
              <ellipse cx="2.5" cy="3" rx="2.5" ry="3" stroke="none"/>
              <ellipse cx="2.5" cy="3" rx="2.2" ry="2.7" fill="none"/>
            </g>
            <circle id="Elipse_11527-2" data-name="Elipse 11527" cx="0.714" cy="0.714" r="0.714" transform="translate(2.142 1.653)" fill="#048fe5"/>
          </g>
          <g id="Grupo_1101136" data-name="Grupo 1101136" transform="translate(138.916 62.371)">
            <g id="Elipse_11526-3" data-name="Elipse 11526" transform="translate(-0.087 -0.059)" fill="#fff" stroke="#048fe5" stroke-width="0.6">
              <circle cx="3" cy="3" r="3" stroke="none"/>
              <circle cx="3" cy="3" r="2.7" fill="none"/>
            </g>
            <circle id="Elipse_11527-3" data-name="Elipse 11527" cx="0.714" cy="0.714" r="0.714" transform="translate(2.142 2.142)" fill="#048fe5"/>
          </g>
          <g id="Grupo_1101137" data-name="Grupo 1101137" transform="translate(11.34 62.371)">
            <g id="Elipse_11526-4" data-name="Elipse 11526" transform="translate(0.488 -0.059)" fill="#fff" stroke="#048fe5" stroke-width="0.6">
              <ellipse cx="2.5" cy="3" rx="2.5" ry="3" stroke="none"/>
              <ellipse cx="2.5" cy="3" rx="2.2" ry="2.7" fill="none"/>
            </g>
            <circle id="Elipse_11527-4" data-name="Elipse 11527" cx="0.714" cy="0.714" r="0.714" transform="translate(2.142 2.142)" fill="#048fe5"/>
          </g>
          <g id="Grupo_1101135" data-name="Grupo 1101135" transform="translate(77.963 127.575)">
            <ellipse id="Elipse_11526-5" data-name="Elipse 11526" cx="2" cy="2.5" rx="2" ry="2.5" transform="translate(-0.135 -0.262)" fill="#048fe5"/>
          </g>
          <path id="Trazado_911257" data-name="Trazado 911257" d="M-5851.334-10819.187v49.613l13.97-14.432h18.646Z" transform="translate(5968.228 10992.692)" fill="#050505" stroke="#fff" stroke-width="1.5"/>
          <g id="Rectángulo_402980" data-name="Rectángulo 402980" transform="translate(153.328 212.119)" fill="#050505" stroke="#fff" stroke-width="2">
            <rect width="11" height="11" stroke="none"/>
            <rect x="1" y="1" width="9" height="9" fill="none"/>
          </g>
        </g>
      </g>
    </g>
  </g>
</svg>
