<svg xmlns="http://www.w3.org/2000/svg" xmlns:xlink="http://www.w3.org/1999/xlink" width="68" height="68" viewBox="0 0 68 68">
  <defs>
    <clipPath id="clip-path">
      <rect id="Rectángulo_403075" data-name="Rectángulo 403075" width="40.964" height="35.302" fill="none"/>
    </clipPath>
  </defs>
  <g id="Grupo_1101261" data-name="Grupo 1101261" transform="translate(-451.053 -2280.5)">
    <circle id="Elipse_11536" data-name="Elipse 11536" cx="34" cy="34" r="34" transform="translate(451.053 2280.5)" fill="#3c3c3c"/>
    <g id="Grupo_1101290" data-name="Grupo 1101290" transform="translate(464.053 2296.5)">
      <g id="Grupo_1101290-2" data-name="Grupo 1101290" transform="translate(0 0)" clip-path="url(#clip-path)">
        <path id="Trazado_911387" data-name="Trazado 911387" d="M25.137,35.3A12.92,12.92,0,0,1,12.232,22.4,10.581,10.581,0,0,1,22.8,11.826a8.711,8.711,0,0,1,8.7,8.7A7.214,7.214,0,0,1,24.3,27.733a6.016,6.016,0,0,1-6.01-6.01A5.059,5.059,0,0,1,23.34,16.67a4.292,4.292,0,0,1,4.287,4.287,1.226,1.226,0,1,1-2.451,0,1.838,1.838,0,0,0-1.836-1.836,2.6,2.6,0,0,0-2.6,2.6A3.563,3.563,0,0,0,24.3,25.283a4.76,4.76,0,0,0,4.755-4.755,6.257,6.257,0,0,0-6.25-6.25A8.128,8.128,0,0,0,14.682,22.4,10.467,10.467,0,0,0,25.137,32.852,13.39,13.39,0,0,0,38.513,19.476,17.045,17.045,0,0,0,21.487,2.451,21.534,21.534,0,0,0,2.313,14.109,1.225,1.225,0,1,1,.138,12.98,23.976,23.976,0,0,1,21.487,0,19.5,19.5,0,0,1,40.964,19.476,15.844,15.844,0,0,1,25.137,35.3" transform="translate(0 0)" fill="#b6b5b6"/>
      </g>
    </g>
  </g>
</svg>
