<svg xmlns="http://www.w3.org/2000/svg" width="330" height="196" viewBox="0 0 330 196">
  <g id="Grupo_1102221" data-name="Grupo 1102221" transform="translate(-215.051 -765)">
    <rect id="Rectángulo_403213" data-name="Rectángulo 403213" width="330" height="196" rx="6" transform="translate(215.051 765)" fill="#ffe3db"/>
    <g id="Grupo_1101459" data-name="Grupo 1101459" transform="translate(-136.638 -2817.499)">
      <path id="Trazado_911495" data-name="Trazado 911495" d="M-2309.5-7969.862l3.745,3.6" transform="translate(2740.026 11609.361)" fill="none" stroke="#0014ff" stroke-width="1"/>
      <path id="Trazado_911496" data-name="Trazado 911496" d="M-2305.755-7969.862l-3.745,3.6" transform="translate(2740.026 11609.361)" fill="none" stroke="#0014ff" stroke-width="1"/>
    </g>
    <g id="Grupo_1101458" data-name="Grupo 1101458" transform="translate(35.71 30.334)">
      <g id="Rectángulo_403216" data-name="Rectángulo 403216" transform="translate(261.051 795)" fill="none" stroke="#262626" stroke-width="1" stroke-dasharray="1">
        <rect width="20" height="20" stroke="none"/>
        <rect x="0.5" y="0.5" width="19" height="19" fill="none"/>
      </g>
      <path id="Trazado_911713" data-name="Trazado 911713" d="M0,0V9.025L2.545,6.481h3.97Z" transform="translate(260.051 793.464)" stroke="#fff" stroke-width="0.4"/>
      <g id="Grupo_1101457" data-name="Grupo 1101457" transform="translate(-3.664 79.263)">
        <path id="Unión_2" data-name="Unión 2" d="M8.9,14.645a10.15,10.15,0,0,1-4.064-1.639A10.15,10.15,0,0,1,.776,14.645a.514.514,0,0,1-.091.005.685.685,0,0,1-.09-1.363A8.475,8.475,0,0,0,3.78,12.064v-.65a.758.758,0,0,1,0-1.514V2.416A4.131,4.131,0,0,0,.819,1.369l-.134,0A.684.684,0,0,1,.672,0c.049,0,.1,0,.146,0A5.426,5.426,0,0,1,4.84,1.546,5.426,5.426,0,0,1,8.861,0c.048,0,.1,0,.146,0a.684.684,0,0,1-.013,1.367c-.046,0-.088,0-.131,0A4.177,4.177,0,0,0,5.9,2.42V9.9h.95a.758.758,0,1,1,0,1.516H5.9v.649a8.624,8.624,0,0,0,3.185,1.222.685.685,0,0,1-.09,1.363A.519.519,0,0,1,8.9,14.645Z" transform="translate(271.05 718.714)" fill="#020202" stroke="#fff" stroke-linecap="round" stroke-width="0.3"/>
      </g>
    </g>
    <g id="Grupo_1101460" data-name="Grupo 1101460" transform="translate(10.965 -35)">
      <rect id="Rectángulo_403218" data-name="Rectángulo 403218" width="180" height="32" transform="translate(281.051 899)" fill="#d9d9d9"/>
      <path id="Trazado_911714" data-name="Trazado 911714" d="M-81.914-3.281h9.551V0H-86.191V-21.328h4.277ZM-70.5-8.071a8.506,8.506,0,0,1,1.978-5.808,6.893,6.893,0,0,1,5.479-2.263,6.966,6.966,0,0,1,5.508,2.256,8.46,8.46,0,0,1,1.992,5.815v.308a8.473,8.473,0,0,1-1.985,5.823A6.937,6.937,0,0,1-63.018.308a6.955,6.955,0,0,1-5.5-2.249A8.473,8.473,0,0,1-70.5-7.764Zm4.263.308a6.9,6.9,0,0,0,.762,3.479,2.63,2.63,0,0,0,2.461,1.311,2.6,2.6,0,0,0,2.424-1.318,6.849,6.849,0,0,0,.769-3.472v-.308a6.78,6.78,0,0,0-.776-3.442,2.627,2.627,0,0,0-2.446-1.333,2.6,2.6,0,0,0-2.424,1.34,6.841,6.841,0,0,0-.769,3.435Zm21.665-4.409-1.567-.044a2.849,2.849,0,0,0-1.567.4,2.507,2.507,0,0,0-.937,1.113V0H-52.91V-15.85h3.97l.19,2.344a5,5,0,0,1,1.443-1.941,3.216,3.216,0,0,1,2.043-.7,3.2,3.2,0,0,1,.593.051q.271.051.549.125ZM-35.757.308a7.132,7.132,0,0,1-5.537-2.175,7.973,7.973,0,0,1-1.992-5.6v-.586a8.678,8.678,0,0,1,1.934-5.83,6.573,6.573,0,0,1,5.317-2.256,6.154,6.154,0,0,1,4.9,1.956,7.729,7.729,0,0,1,1.707,5.266v2.212h-9.448l-.044.088a4.282,4.282,0,0,0,.989,2.637A3.311,3.311,0,0,0-35.3-2.974a8.8,8.8,0,0,0,2.439-.293,9.951,9.951,0,0,0,2.073-.894l1.157,2.637a7.939,7.939,0,0,1-2.578,1.3A11.433,11.433,0,0,1-35.757.308Zm-.278-13.154a2.376,2.376,0,0,0-1.985.886,4.445,4.445,0,0,0-.842,2.351l.029.073h5.215v-.322a3.7,3.7,0,0,0-.571-2.19A2.113,2.113,0,0,0-36.035-12.847Zm13.066-3,.176,2.095a5.325,5.325,0,0,1,1.912-1.765,5.5,5.5,0,0,1,2.659-.623,4.842,4.842,0,0,1,2.607.674,4.157,4.157,0,0,1,1.641,2.036,5.493,5.493,0,0,1,1.9-1.992,5.167,5.167,0,0,1,2.754-.718,4.516,4.516,0,0,1,3.7,1.663A7.937,7.937,0,0,1-4.263-9.4V0H-8.54V-9.419a4.442,4.442,0,0,0-.586-2.651,2.08,2.08,0,0,0-1.743-.747,2.986,2.986,0,0,0-1.575.4,2.935,2.935,0,0,0-1.062,1.121q0,.278.015.476t.015.4V0h-4.263V-9.419a4.455,4.455,0,0,0-.586-2.629,2.071,2.071,0,0,0-1.758-.769,3.318,3.318,0,0,0-1.516.33,2.908,2.908,0,0,0-1.077.93V0h-4.263V-15.85ZM10.986,0H6.709V-15.85h4.277Zm0-19.644H6.709v-3.208h4.277ZM28.8-7.485a9.1,9.1,0,0,1-1.626,5.654A5.379,5.379,0,0,1,22.632.308,5.076,5.076,0,0,1,20.42-.154a4.543,4.543,0,0,1-1.655-1.355v7.6H14.5V-15.85h3.853l.249,1.875a5.079,5.079,0,0,1,1.692-1.6,4.576,4.576,0,0,1,2.307-.564,5.275,5.275,0,0,1,4.57,2.3A10.265,10.265,0,0,1,28.8-7.793Zm-4.277-.308a7.668,7.668,0,0,0-.747-3.633,2.437,2.437,0,0,0-2.285-1.392,3.23,3.23,0,0,0-1.648.4,2.822,2.822,0,0,0-1.077,1.128v6.943a2.622,2.622,0,0,0,1.077,1.025,3.627,3.627,0,0,0,1.677.352A2.461,2.461,0,0,0,23.8-4.189a6.418,6.418,0,0,0,.725-3.3ZM40-4.395A1.476,1.476,0,0,0,39.324-5.6,6.919,6.919,0,0,0,36.8-6.489a10.079,10.079,0,0,1-4.226-1.685,3.679,3.679,0,0,1-1.443-3.062,4.367,4.367,0,0,1,1.729-3.472,6.969,6.969,0,0,1,4.6-1.436,7.521,7.521,0,0,1,4.812,1.436A4.194,4.194,0,0,1,44-11.133l-.029.088H39.844a2.074,2.074,0,0,0-.615-1.553,2.435,2.435,0,0,0-1.772-.6,2.422,2.422,0,0,0-1.626.513,1.6,1.6,0,0,0-.6,1.26,1.423,1.423,0,0,0,.623,1.194,6.929,6.929,0,0,0,2.527.828,10.283,10.283,0,0,1,4.343,1.721A3.775,3.775,0,0,1,44.15-4.556a4.184,4.184,0,0,1-1.831,3.5A7.9,7.9,0,0,1,37.485.308a7.347,7.347,0,0,1-5-1.6,4.484,4.484,0,0,1-1.75-3.655l.029-.088h3.911a2.223,2.223,0,0,0,.835,1.846,3.447,3.447,0,0,0,2.065.571A2.937,2.937,0,0,0,39.382-3.1,1.545,1.545,0,0,0,40-4.395ZM56.616-2.344a5.381,5.381,0,0,1-1.86,1.963,4.932,4.932,0,0,1-2.622.688,4.819,4.819,0,0,1-3.918-1.7Q46.8-3.091,46.8-6.665V-15.85h4.263v9.214a5.117,5.117,0,0,0,.564,2.849,2.026,2.026,0,0,0,1.75.769,4.262,4.262,0,0,0,1.758-.33,2.963,2.963,0,0,0,1.2-.974V-15.85h4.277V0H57.07ZM67.808-15.85l.176,2.095A5.325,5.325,0,0,1,69.9-15.52a5.5,5.5,0,0,1,2.659-.623,4.842,4.842,0,0,1,2.607.674A4.157,4.157,0,0,1,76.8-13.433a5.493,5.493,0,0,1,1.9-1.992,5.167,5.167,0,0,1,2.754-.718,4.516,4.516,0,0,1,3.7,1.663A7.937,7.937,0,0,1,86.514-9.4V0H82.236V-9.419a4.442,4.442,0,0,0-.586-2.651,2.08,2.08,0,0,0-1.743-.747,2.986,2.986,0,0,0-1.575.4,2.935,2.935,0,0,0-1.062,1.121q0,.278.015.476t.015.4V0H73.037V-9.419a4.455,4.455,0,0,0-.586-2.629,2.071,2.071,0,0,0-1.758-.769,3.318,3.318,0,0,0-1.516.33,2.908,2.908,0,0,0-1.077.93V0H63.838V-15.85Z" transform="translate(371.242 923.852)" fill="#5d5d5d"/>
    </g>
    <g id="Grupo_1101461" data-name="Grupo 1101461" transform="translate(18 169.961)">
      <path id="Unión_2-2" data-name="Unión 2" d="M8.9,14.645a10.15,10.15,0,0,1-4.064-1.639A10.15,10.15,0,0,1,.776,14.645a.514.514,0,0,1-.091.005.685.685,0,0,1-.09-1.363A8.475,8.475,0,0,0,3.78,12.064v-.65a.758.758,0,0,1,0-1.514V2.416A4.131,4.131,0,0,0,.819,1.369l-.134,0A.684.684,0,0,1,.672,0c.049,0,.1,0,.146,0A5.426,5.426,0,0,1,4.84,1.546,5.426,5.426,0,0,1,8.861,0c.048,0,.1,0,.146,0a.684.684,0,0,1-.013,1.367c-.046,0-.088,0-.131,0A4.177,4.177,0,0,0,5.9,2.42V9.9h.95a.758.758,0,1,1,0,1.516H5.9v.649a8.624,8.624,0,0,0,3.185,1.222.685.685,0,0,1-.09,1.363A.519.519,0,0,1,8.9,14.645Z" transform="translate(271.05 718.714)" fill="#020202" stroke="#fff" stroke-linecap="round" stroke-width="0.3"/>
    </g>
  </g>
</svg>
