<svg xmlns="http://www.w3.org/2000/svg" width="73" height="73" viewBox="0 0 73 73">
  <g id="Grupo_1101315" data-name="Grupo 1101315" transform="translate(610 7451)">
    <rect id="Rectángulo_403083" data-name="Rectángulo 403083" width="73" height="73" rx="7" transform="translate(-610 -7451)" fill="#323232"/>
    <g id="Grupo_1101314" data-name="Grupo 1101314" transform="translate(-604 -7444)">
      <path id="Trazado_911396" data-name="Trazado 911396" d="M32.621,5.8l8.053,17.42,19.055,2.275L45.65,38.533l3.724,18.826L32.621,48,15.867,57.359l3.723-18.826L5.513,25.492l19.055-2.275Z" transform="translate(-2.081 -2.188)" fill="#676868"/>
      <path id="Trazado_911397" data-name="Trazado 911397" d="M19.159,35.809l-12.3-11.39L23.506,22.43,30.54,7.217,37.573,22.43l16.643,1.988-12.3,11.39,3.252,16.443L30.54,44.077,15.907,52.252ZM30.54,0,21.467,19.624,0,22.189,15.86,36.881l-4.2,21.209L30.54,47.547,49.414,58.09l-4.2-21.209L61.08,22.189,39.613,19.624Z" fill="#b6b5b6"/>
    </g>
  </g>
</svg>
