<svg xmlns="http://www.w3.org/2000/svg" width="330" height="196" viewBox="0 0 330 196">
  <g id="Grupo_1102222" data-name="Grupo 1102222" transform="translate(-635.051 -765)">
    <rect id="Rectángulo_403214" data-name="Rectángulo 403214" width="330" height="196" rx="6" transform="translate(635.051 765)" fill="#ffe3db"/>
    <g id="Grupo_1101464" data-name="Grupo 1101464" transform="translate(-7)">
      <g id="Grupo_1101462" data-name="Grupo 1101462" transform="translate(643 122.536)">
        <g id="Rectángulo_403216" data-name="Rectángulo 403216" transform="translate(261.051 795)" fill="none" stroke="#262626" stroke-width="1" stroke-dasharray="1">
          <rect width="20" height="20" stroke="none"/>
          <rect x="0.5" y="0.5" width="19" height="19" fill="none"/>
        </g>
        <path id="Trazado_911713" data-name="Trazado 911713" d="M0,0V9.025L2.545,6.481h3.97Z" transform="translate(260.051 793.464)" stroke="#fff" stroke-width="0.4"/>
        <g id="Grupo_1101457" data-name="Grupo 1101457" transform="translate(-3.664 79.263)">
          <path id="Unión_2" data-name="Unión 2" d="M8.9,14.645a10.15,10.15,0,0,1-4.064-1.639A10.15,10.15,0,0,1,.776,14.645a.514.514,0,0,1-.091.005.685.685,0,0,1-.09-1.363A8.475,8.475,0,0,0,3.78,12.064v-.65a.758.758,0,0,1,0-1.514V2.416A4.131,4.131,0,0,0,.819,1.369l-.134,0A.684.684,0,0,1,.672,0c.049,0,.1,0,.146,0A5.426,5.426,0,0,1,4.84,1.546,5.426,5.426,0,0,1,8.861,0c.048,0,.1,0,.146,0a.684.684,0,0,1-.013,1.367c-.046,0-.088,0-.131,0A4.177,4.177,0,0,0,5.9,2.42V9.9h.95a.758.758,0,1,1,0,1.516H5.9v.649a8.624,8.624,0,0,0,3.185,1.222.685.685,0,0,1-.09,1.363A.519.519,0,0,1,8.9,14.645Z" transform="translate(271.05 718.714)" fill="#020202" stroke="#fff" stroke-linecap="round" stroke-width="0.3"/>
        </g>
      </g>
      <g id="Grupo_1101463" data-name="Grupo 1101463">
        <g id="Rectángulo_403219" data-name="Rectángulo 403219" transform="translate(690.051 791)" fill="none" stroke="#0014ff" stroke-width="1">
          <rect width="213" height="127" stroke="none"/>
          <rect x="0.5" y="0.5" width="212" height="126" fill="none"/>
        </g>
        <path id="Trazado_913168" data-name="Trazado 913168" d="M4.829,19.293h7.154V22H1.46V5.648H4.829ZM13.2,15.812a7.206,7.206,0,0,1,.7-3.223,5.1,5.1,0,0,1,2-2.19,5.849,5.849,0,0,1,3.038-.775,5.533,5.533,0,0,1,4.015,1.5,6.04,6.04,0,0,1,1.735,4.088l.022.831a6.351,6.351,0,0,1-1.561,4.487,5.426,5.426,0,0,1-4.189,1.69,5.453,5.453,0,0,1-4.195-1.685A6.463,6.463,0,0,1,13.2,15.958Zm3.246.23a4.542,4.542,0,0,0,.651,2.649A2.34,2.34,0,0,0,20.8,18.7a4.97,4.97,0,0,0,.663-2.9,4.5,4.5,0,0,0-.663-2.632,2.154,2.154,0,0,0-1.864-.934,2.119,2.119,0,0,0-1.842.928A5.054,5.054,0,0,0,16.441,16.042Zm17.093-3.15a8.818,8.818,0,0,0-1.168-.09,2.377,2.377,0,0,0-2.415,1.247V22H26.706V9.849h3.066l.09,1.449a3.007,3.007,0,0,1,2.707-1.673,3.4,3.4,0,0,1,1.011.146Zm6.94,9.333a5.965,5.965,0,0,1-4.352-1.64,5.828,5.828,0,0,1-1.679-4.369V15.9a7.341,7.341,0,0,1,.708-3.274,5.192,5.192,0,0,1,2-2.224,5.627,5.627,0,0,1,2.959-.781A5.043,5.043,0,0,1,44.04,11.2a6.389,6.389,0,0,1,1.432,4.458V16.98H37.734a3.015,3.015,0,0,0,.949,1.909,2.869,2.869,0,0,0,2,.719,3.5,3.5,0,0,0,2.931-1.359l1.595,1.786a4.872,4.872,0,0,1-1.977,1.612A6.485,6.485,0,0,1,40.475,22.225ZM40.1,12.241a2.028,2.028,0,0,0-1.567.654,3.388,3.388,0,0,0-.769,1.873h4.515v-.26a2.416,2.416,0,0,0-.584-1.675A2.092,2.092,0,0,0,40.1,12.241ZM50.357,9.849l.1,1.359a4.27,4.27,0,0,1,3.493-1.583,3.241,3.241,0,0,1,3.223,1.853,4.172,4.172,0,0,1,3.65-1.853,3.624,3.624,0,0,1,2.942,1.151,5.291,5.291,0,0,1,.966,3.465V22H61.476V14.233a2.323,2.323,0,0,0-.4-1.514,1.789,1.789,0,0,0-1.426-.478,2.026,2.026,0,0,0-2.021,1.4L57.635,22H54.389V14.244a2.3,2.3,0,0,0-.416-1.531,1.807,1.807,0,0,0-1.415-.473,2.1,2.1,0,0,0-2,1.148V22H47.314V9.849ZM76.378,22H73.122V9.849h3.257ZM72.931,6.7a1.6,1.6,0,0,1,.489-1.2,2.105,2.105,0,0,1,2.656,0,1.589,1.589,0,0,1,.494,1.2,1.593,1.593,0,0,1-.5,1.213,2.082,2.082,0,0,1-2.639,0A1.593,1.593,0,0,1,72.931,6.7ZM89.99,16.037a7.288,7.288,0,0,1-1.275,4.5,4.087,4.087,0,0,1-3.442,1.69,3.786,3.786,0,0,1-2.976-1.28v5.728H79.051V9.849h3.01l.112,1.19A3.815,3.815,0,0,1,85.25,9.624a4.115,4.115,0,0,1,3.493,1.662,7.485,7.485,0,0,1,1.247,4.582Zm-3.246-.247a4.809,4.809,0,0,0-.6-2.625,1.955,1.955,0,0,0-1.746-.924,2.124,2.124,0,0,0-2.1,1.171V18.4a2.16,2.16,0,0,0,2.123,1.205Q86.744,19.608,86.744,15.789Zm11.837,2.853a1.046,1.046,0,0,0-.59-.938,6.7,6.7,0,0,0-1.892-.612q-4.335-.91-4.335-3.684a3.339,3.339,0,0,1,1.342-2.7,5.414,5.414,0,0,1,3.51-1.084,5.827,5.827,0,0,1,3.7,1.089,3.433,3.433,0,0,1,1.387,2.83H98.458a1.57,1.57,0,0,0-.449-1.151,1.9,1.9,0,0,0-1.4-.455,1.943,1.943,0,0,0-1.269.371,1.17,1.17,0,0,0-.449.943,1,1,0,0,0,.511.87,5.257,5.257,0,0,0,1.724.573,14.08,14.08,0,0,1,2.044.545,3.358,3.358,0,0,1,2.572,3.268,3.17,3.17,0,0,1-1.426,2.69,6.153,6.153,0,0,1-3.684,1.028,6.426,6.426,0,0,1-2.712-.545,4.551,4.551,0,0,1-1.859-1.494,3.471,3.471,0,0,1-.674-2.05h3.077a1.694,1.694,0,0,0,.64,1.325,2.539,2.539,0,0,0,1.595.46,2.35,2.35,0,0,0,1.409-.354A1.1,1.1,0,0,0,98.581,18.642ZM111.1,20.765a4.07,4.07,0,0,1-3.324,1.46A3.839,3.839,0,0,1,104.8,21.1a4.794,4.794,0,0,1-1.05-3.291V9.849h3.246v7.859q0,1.9,1.729,1.9a2.343,2.343,0,0,0,2.269-1.147V9.849h3.257V22h-3.055Zm8.636-10.916.1,1.359a4.27,4.27,0,0,1,3.493-1.583,3.241,3.241,0,0,1,3.223,1.853,4.172,4.172,0,0,1,3.65-1.853,3.624,3.624,0,0,1,2.942,1.151,5.291,5.291,0,0,1,.966,3.465V22h-3.257V14.233a2.323,2.323,0,0,0-.4-1.514,1.789,1.789,0,0,0-1.426-.478,2.026,2.026,0,0,0-2.021,1.4L127.017,22h-3.246V14.244a2.3,2.3,0,0,0-.416-1.531,1.807,1.807,0,0,0-1.415-.473,2.1,2.1,0,0,0-2,1.148V22H116.7V9.849Zm22.09,5.986a7.323,7.323,0,0,1,1.275-4.526,4.136,4.136,0,0,1,3.487-1.685,3.722,3.722,0,0,1,2.931,1.325V4.75h3.257V22h-2.931l-.157-1.292a3.819,3.819,0,0,1-3.122,1.516,4.125,4.125,0,0,1-3.442-1.69A7.559,7.559,0,0,1,141.83,15.834Zm3.246.231a4.823,4.823,0,0,0,.6,2.629,1.937,1.937,0,0,0,1.729.914,2.171,2.171,0,0,0,2.123-1.275V13.516a2.14,2.14,0,0,0-2.1-1.275Q145.075,12.241,145.075,16.065Zm9.714-.253a7.207,7.207,0,0,1,.7-3.223,5.1,5.1,0,0,1,2-2.19,5.849,5.849,0,0,1,3.038-.775,5.533,5.533,0,0,1,4.015,1.5,6.04,6.04,0,0,1,1.735,4.088l.022.831a6.351,6.351,0,0,1-1.561,4.487,6.05,6.05,0,0,1-8.384.006,6.463,6.463,0,0,1-1.567-4.582Zm3.246.23a4.542,4.542,0,0,0,.651,2.649,2.34,2.34,0,0,0,3.706.011,4.97,4.97,0,0,0,.663-2.9,4.5,4.5,0,0,0-.663-2.632,2.154,2.154,0,0,0-1.864-.934,2.119,2.119,0,0,0-1.842.928A5.054,5.054,0,0,0,158.035,16.042ZM171.725,22h-3.257V4.75h3.257Zm2.167-6.188a7.207,7.207,0,0,1,.7-3.223,5.1,5.1,0,0,1,2-2.19,5.849,5.849,0,0,1,3.038-.775,5.533,5.533,0,0,1,4.015,1.5,6.04,6.04,0,0,1,1.735,4.088l.022.831a6.351,6.351,0,0,1-1.561,4.487,6.05,6.05,0,0,1-8.384.006,6.463,6.463,0,0,1-1.567-4.582Zm3.246.23a4.542,4.542,0,0,0,.651,2.649,2.34,2.34,0,0,0,3.706.011,4.97,4.97,0,0,0,.663-2.9,4.5,4.5,0,0,0-.663-2.632,2.154,2.154,0,0,0-1.864-.934,2.119,2.119,0,0,0-1.842.928A5.054,5.054,0,0,0,177.138,16.042Zm17.093-3.15a8.817,8.817,0,0,0-1.168-.09,2.377,2.377,0,0,0-2.415,1.247V22H187.4V9.849h3.066l.09,1.449a3.007,3.007,0,0,1,2.707-1.673,3.4,3.4,0,0,1,1.011.146ZM7.828,46.642a1.046,1.046,0,0,0-.59-.938,6.7,6.7,0,0,0-1.892-.612q-4.335-.91-4.335-3.684a3.339,3.339,0,0,1,1.342-2.7,5.414,5.414,0,0,1,3.51-1.084,5.827,5.827,0,0,1,3.7,1.089,3.433,3.433,0,0,1,1.387,2.83H7.7a1.57,1.57,0,0,0-.449-1.151,1.9,1.9,0,0,0-1.4-.455,1.943,1.943,0,0,0-1.269.371,1.17,1.17,0,0,0-.449.943,1,1,0,0,0,.511.87,5.257,5.257,0,0,0,1.724.573,14.08,14.08,0,0,1,2.044.545,3.358,3.358,0,0,1,2.572,3.268A3.17,3.17,0,0,1,9.557,49.2a6.153,6.153,0,0,1-3.684,1.028,6.426,6.426,0,0,1-2.712-.545A4.551,4.551,0,0,1,1.3,48.186a3.471,3.471,0,0,1-.674-2.05H3.706a1.694,1.694,0,0,0,.64,1.325,2.539,2.539,0,0,0,1.595.46,2.35,2.35,0,0,0,1.409-.354A1.1,1.1,0,0,0,7.828,46.642ZM16.5,50H13.241V37.849H16.5ZM13.05,34.7a1.6,1.6,0,0,1,.489-1.2,1.835,1.835,0,0,1,1.331-.472,1.839,1.839,0,0,1,1.325.472,1.715,1.715,0,0,1-.006,2.415,1.844,1.844,0,0,1-1.32.472,1.844,1.844,0,0,1-1.32-.472A1.593,1.593,0,0,1,13.05,34.7Zm10.006.157v2.987h2.078v2.381H23.056v6.064a1.448,1.448,0,0,0,.258.966,1.3,1.3,0,0,0,.988.292,5.176,5.176,0,0,0,.955-.079v2.459a6.682,6.682,0,0,1-1.965.292q-3.414,0-3.481-3.448V40.229H18.036V37.849h1.774V34.861ZM39.711,50a3.6,3.6,0,0,1-.326-1.089,3.927,3.927,0,0,1-3.066,1.314,4.314,4.314,0,0,1-2.959-1.033,3.323,3.323,0,0,1-1.174-2.605,3.434,3.434,0,0,1,1.432-2.965,7.065,7.065,0,0,1,4.138-1.044H39.25v-.7a2,2,0,0,0-.432-1.348,1.7,1.7,0,0,0-1.365-.505,1.934,1.934,0,0,0-1.286.393A1.335,1.335,0,0,0,35.7,41.5H32.456a3.26,3.26,0,0,1,.651-1.954,4.306,4.306,0,0,1,1.842-1.409,6.712,6.712,0,0,1,2.673-.511,5.3,5.3,0,0,1,3.566,1.129,3.948,3.948,0,0,1,1.32,3.173v5.267a5.809,5.809,0,0,0,.483,2.617V50Zm-2.684-2.257a2.8,2.8,0,0,0,1.325-.32,2.1,2.1,0,0,0,.9-.859V44.475H38.038q-2.437,0-2.594,1.685l-.011.191a1.3,1.3,0,0,0,.427,1A1.658,1.658,0,0,0,37.027,47.743Zm11.017-9.894.1,1.359a4.27,4.27,0,0,1,3.493-1.583,3.241,3.241,0,0,1,3.223,1.853,4.172,4.172,0,0,1,3.65-1.853,3.624,3.624,0,0,1,2.942,1.151,5.291,5.291,0,0,1,.966,3.465V50H59.162V42.233a2.323,2.323,0,0,0-.4-1.514,1.789,1.789,0,0,0-1.426-.478,2.026,2.026,0,0,0-2.021,1.4L55.321,50H52.076V42.244a2.3,2.3,0,0,0-.416-1.531,1.807,1.807,0,0,0-1.415-.473,2.1,2.1,0,0,0-2,1.148V50H45V37.849ZM70.5,50.225a5.965,5.965,0,0,1-4.352-1.64,5.828,5.828,0,0,1-1.679-4.369V43.9a7.341,7.341,0,0,1,.708-3.274,5.192,5.192,0,0,1,2-2.224,5.627,5.627,0,0,1,2.959-.781A5.043,5.043,0,0,1,74.071,39.2,6.389,6.389,0,0,1,75.5,43.655V44.98H67.765a3.015,3.015,0,0,0,.949,1.909,2.869,2.869,0,0,0,2,.719,3.5,3.5,0,0,0,2.931-1.359l1.595,1.786a4.872,4.872,0,0,1-1.977,1.612A6.485,6.485,0,0,1,70.5,50.225Zm-.371-9.984a2.028,2.028,0,0,0-1.567.654,3.388,3.388,0,0,0-.769,1.873h4.515v-.26a2.416,2.416,0,0,0-.584-1.675A2.092,2.092,0,0,0,70.134,40.241Zm11.1-5.379v2.987h2.078v2.381H81.23v6.064a1.448,1.448,0,0,0,.258.966,1.3,1.3,0,0,0,.988.292,5.176,5.176,0,0,0,.955-.079v2.459a6.682,6.682,0,0,1-1.965.292q-3.414,0-3.481-3.448V40.229H76.21V37.849h1.774V34.861ZM85.958,54.1l-1.7-.887.4-.73a5.835,5.835,0,0,0,.775-2.729V47.237h2.74l-.011,2.246A5.835,5.835,0,0,1,87.542,52,6.449,6.449,0,0,1,85.958,54.1ZM6.3,75.608a2.129,2.129,0,0,0,1.46-.494A1.731,1.731,0,0,0,8.344,73.8h3.043a4.163,4.163,0,0,1-.674,2.263A4.446,4.446,0,0,1,8.9,77.657a5.676,5.676,0,0,1-2.544.567,5.275,5.275,0,0,1-4.11-1.656,6.555,6.555,0,0,1-1.5-4.576v-.213A6.48,6.48,0,0,1,2.235,67.3a5.214,5.214,0,0,1,4.1-1.673,5.111,5.111,0,0,1,3.656,1.3,4.593,4.593,0,0,1,1.4,3.453H8.344a2.23,2.23,0,0,0-.584-1.541,1.947,1.947,0,0,0-1.482-.593,1.955,1.955,0,0,0-1.713.827,4.791,4.791,0,0,0-.578,2.683v.337a4.852,4.852,0,0,0,.573,2.7A1.979,1.979,0,0,0,6.3,75.608Zm6.435-3.8a7.206,7.206,0,0,1,.7-3.223,5.1,5.1,0,0,1,2-2.19,5.849,5.849,0,0,1,3.038-.775,5.533,5.533,0,0,1,4.015,1.5,6.04,6.04,0,0,1,1.735,4.088l.022.831a6.351,6.351,0,0,1-1.561,4.487,5.426,5.426,0,0,1-4.189,1.69A5.453,5.453,0,0,1,14.3,76.54a6.463,6.463,0,0,1-1.567-4.582Zm3.246.23a4.542,4.542,0,0,0,.651,2.649,2.149,2.149,0,0,0,1.864.917,2.154,2.154,0,0,0,1.842-.905,4.97,4.97,0,0,0,.663-2.9,4.5,4.5,0,0,0-.663-2.632,2.154,2.154,0,0,0-1.864-.934,2.119,2.119,0,0,0-1.842.928A5.054,5.054,0,0,0,15.981,72.042Zm13.252-6.194.1,1.4a4.242,4.242,0,0,1,3.493-1.628A3.526,3.526,0,0,1,35.7,66.758a5.292,5.292,0,0,1,.966,3.392V78H33.422V70.211a2.114,2.114,0,0,0-.449-1.5,2.008,2.008,0,0,0-1.494-.467,2.232,2.232,0,0,0-2.055,1.171V78H26.178V65.849Zm16.475,8.793a1.046,1.046,0,0,0-.59-.938,6.7,6.7,0,0,0-1.892-.612q-4.335-.91-4.335-3.684a3.339,3.339,0,0,1,1.342-2.7,5.414,5.414,0,0,1,3.51-1.084,5.827,5.827,0,0,1,3.7,1.089,3.433,3.433,0,0,1,1.387,2.83H45.584a1.57,1.57,0,0,0-.449-1.151,1.9,1.9,0,0,0-1.4-.455,1.943,1.943,0,0,0-1.269.371,1.17,1.17,0,0,0-.449.943,1,1,0,0,0,.511.87,5.257,5.257,0,0,0,1.724.573,14.081,14.081,0,0,1,2.044.545,3.358,3.358,0,0,1,2.572,3.268,3.17,3.17,0,0,1-1.426,2.69,6.153,6.153,0,0,1-3.684,1.028,6.426,6.426,0,0,1-2.712-.545,4.551,4.551,0,0,1-1.859-1.494,3.471,3.471,0,0,1-.674-2.05h3.077a1.694,1.694,0,0,0,.64,1.325,2.539,2.539,0,0,0,1.595.46,2.35,2.35,0,0,0,1.409-.354A1.1,1.1,0,0,0,45.708,74.642Zm10.837,3.583a5.965,5.965,0,0,1-4.352-1.64,5.828,5.828,0,0,1-1.679-4.369V71.9a7.341,7.341,0,0,1,.708-3.274,5.192,5.192,0,0,1,2-2.224,5.626,5.626,0,0,1,2.959-.781A5.043,5.043,0,0,1,60.111,67.2a6.389,6.389,0,0,1,1.432,4.458V72.98H53.805a3.015,3.015,0,0,0,.949,1.909,2.869,2.869,0,0,0,2,.719,3.5,3.5,0,0,0,2.931-1.359l1.595,1.786a4.872,4.872,0,0,1-1.977,1.612A6.485,6.485,0,0,1,56.545,78.225Zm-.371-9.984a2.028,2.028,0,0,0-1.567.654,3.388,3.388,0,0,0-.769,1.873h4.515v-.26a2.416,2.416,0,0,0-.584-1.675A2.092,2.092,0,0,0,56.175,68.241Zm12.264,7.367a2.129,2.129,0,0,0,1.46-.494,1.731,1.731,0,0,0,.584-1.314h3.043a4.163,4.163,0,0,1-.674,2.263,4.446,4.446,0,0,1-1.814,1.595,5.676,5.676,0,0,1-2.544.567,5.275,5.275,0,0,1-4.11-1.656,6.555,6.555,0,0,1-1.5-4.576v-.213A6.48,6.48,0,0,1,64.373,67.3a5.214,5.214,0,0,1,4.1-1.673,5.111,5.111,0,0,1,3.656,1.3,4.593,4.593,0,0,1,1.4,3.453H70.482a2.23,2.23,0,0,0-.584-1.541,2.171,2.171,0,0,0-3.2.234,4.791,4.791,0,0,0-.578,2.683v.337a4.852,4.852,0,0,0,.573,2.7A1.979,1.979,0,0,0,68.438,75.608ZM79.265,62.861v2.987h2.078v2.381H79.265v6.064a1.448,1.448,0,0,0,.258.966,1.3,1.3,0,0,0,.988.292,5.176,5.176,0,0,0,.955-.079v2.459a6.681,6.681,0,0,1-1.965.292q-3.414,0-3.481-3.448V68.229H74.245V65.849h1.774V62.861Zm9.479,15.363a5.965,5.965,0,0,1-4.352-1.64,5.828,5.828,0,0,1-1.679-4.369V71.9a7.341,7.341,0,0,1,.708-3.274,5.192,5.192,0,0,1,2-2.224,5.626,5.626,0,0,1,2.959-.781A5.043,5.043,0,0,1,92.309,67.2a6.389,6.389,0,0,1,1.432,4.458V72.98H86a3.015,3.015,0,0,0,.949,1.909,2.869,2.869,0,0,0,2,.719,3.5,3.5,0,0,0,2.931-1.359l1.595,1.786a4.872,4.872,0,0,1-1.977,1.612A6.485,6.485,0,0,1,88.743,78.225Zm-.371-9.984a2.028,2.028,0,0,0-1.567.654,3.388,3.388,0,0,0-.769,1.873h4.515v-.26a2.416,2.416,0,0,0-.584-1.675A2.092,2.092,0,0,0,88.373,68.241Zm11.1-5.379v2.987h2.078v2.381H99.468v6.064a1.448,1.448,0,0,0,.258.966,1.3,1.3,0,0,0,.988.292,5.176,5.176,0,0,0,.955-.079v2.459a6.681,6.681,0,0,1-1.965.292q-3.414,0-3.481-3.448V68.229H94.448V65.849h1.774V62.861Zm11.163,13.9a4.07,4.07,0,0,1-3.324,1.46,3.839,3.839,0,0,1-2.982-1.123,4.794,4.794,0,0,1-1.05-3.291V65.849h3.246v7.859q0,1.9,1.729,1.9a2.343,2.343,0,0,0,2.269-1.147V65.849h3.257V78h-3.055Zm11.186,1.46a5.965,5.965,0,0,1-4.352-1.64,5.828,5.828,0,0,1-1.679-4.369V71.9a7.341,7.341,0,0,1,.708-3.274,5.192,5.192,0,0,1,2-2.224,5.626,5.626,0,0,1,2.959-.781,5.043,5.043,0,0,1,3.925,1.572,6.389,6.389,0,0,1,1.432,4.458V72.98h-7.738a3.015,3.015,0,0,0,.949,1.909,2.869,2.869,0,0,0,2,.719,3.5,3.5,0,0,0,2.931-1.359l1.595,1.786a4.872,4.872,0,0,1-1.977,1.612A6.485,6.485,0,0,1,121.817,78.225Zm-.371-9.984a2.028,2.028,0,0,0-1.567.654,3.388,3.388,0,0,0-.769,1.873h4.515v-.26a2.416,2.416,0,0,0-.584-1.675A2.092,2.092,0,0,0,121.446,68.241Zm14.038.651a8.817,8.817,0,0,0-1.168-.09,2.377,2.377,0,0,0-2.415,1.247V78h-3.246V65.849h3.066l.09,1.449a3.007,3.007,0,0,1,2.707-1.673,3.4,3.4,0,0,1,1.011.146ZM8.288,106a3.6,3.6,0,0,1-.326-1.089A3.927,3.927,0,0,1,4.9,106.225a4.314,4.314,0,0,1-2.959-1.033,3.323,3.323,0,0,1-1.174-2.605A3.434,3.434,0,0,1,2.2,99.621a7.065,7.065,0,0,1,4.138-1.044H7.828v-.7A2,2,0,0,0,7.4,96.533a1.7,1.7,0,0,0-1.365-.505,1.934,1.934,0,0,0-1.286.393A1.335,1.335,0,0,0,4.279,97.5H1.033a3.26,3.26,0,0,1,.651-1.954,4.306,4.306,0,0,1,1.842-1.409A6.712,6.712,0,0,1,6.2,93.624a5.3,5.3,0,0,1,3.566,1.129,3.948,3.948,0,0,1,1.32,3.173v5.267a5.809,5.809,0,0,0,.483,2.617V106ZM5.6,103.743a2.8,2.8,0,0,0,1.325-.32,2.1,2.1,0,0,0,.9-.859v-2.089H6.615q-2.437,0-2.594,1.685l-.011.191a1.3,1.3,0,0,0,.427,1A1.658,1.658,0,0,0,5.6,103.743Zm7.468-3.908a7.323,7.323,0,0,1,1.275-4.526,4.136,4.136,0,0,1,3.487-1.685,3.722,3.722,0,0,1,2.931,1.325v-6.2h3.257V106H21.091l-.157-1.292a3.819,3.819,0,0,1-3.122,1.516,4.125,4.125,0,0,1-3.442-1.69A7.559,7.559,0,0,1,13.072,99.834Zm3.246.231a4.823,4.823,0,0,0,.6,2.629,1.937,1.937,0,0,0,1.729.914,2.171,2.171,0,0,0,2.123-1.275V97.516a2.14,2.14,0,0,0-2.1-1.275Q16.318,96.241,16.318,100.065ZM29.963,106H26.706V93.849h3.257ZM26.515,90.7A1.6,1.6,0,0,1,27,89.5a2.105,2.105,0,0,1,2.656,0,1.715,1.715,0,0,1-.006,2.415,2.082,2.082,0,0,1-2.639,0A1.593,1.593,0,0,1,26.515,90.7Zm17.059,9.333a7.288,7.288,0,0,1-1.275,4.5,4.087,4.087,0,0,1-3.442,1.69,3.786,3.786,0,0,1-2.976-1.28v5.728H32.636V93.849h3.01l.112,1.19a3.815,3.815,0,0,1,3.077-1.415,4.115,4.115,0,0,1,3.493,1.662,7.485,7.485,0,0,1,1.247,4.582Zm-3.246-.247a4.809,4.809,0,0,0-.6-2.625,1.955,1.955,0,0,0-1.746-.924,2.124,2.124,0,0,0-2.1,1.171v4.99A2.16,2.16,0,0,0,38,103.608Q40.329,103.608,40.329,99.789ZM49.01,106H45.753V93.849H49.01ZM45.562,90.7a1.6,1.6,0,0,1,.489-1.2,2.105,2.105,0,0,1,2.656,0,1.715,1.715,0,0,1-.006,2.415,2.082,2.082,0,0,1-2.639,0A1.593,1.593,0,0,1,45.562,90.7Zm12.7,11.938a1.046,1.046,0,0,0-.59-.938,6.7,6.7,0,0,0-1.892-.612q-4.335-.91-4.335-3.684a3.339,3.339,0,0,1,1.342-2.7,5.414,5.414,0,0,1,3.51-1.084A5.827,5.827,0,0,1,60,94.713a3.433,3.433,0,0,1,1.387,2.83H58.14a1.57,1.57,0,0,0-.449-1.151,1.9,1.9,0,0,0-1.4-.455,1.943,1.943,0,0,0-1.269.371,1.17,1.17,0,0,0-.449.943,1,1,0,0,0,.511.87,5.257,5.257,0,0,0,1.724.573,14.081,14.081,0,0,1,2.044.545,3.358,3.358,0,0,1,2.572,3.268,3.17,3.17,0,0,1-1.426,2.69,6.153,6.153,0,0,1-3.684,1.028,6.426,6.426,0,0,1-2.712-.545,4.551,4.551,0,0,1-1.859-1.494,3.471,3.471,0,0,1-.674-2.05h3.077a1.694,1.694,0,0,0,.64,1.325,2.539,2.539,0,0,0,1.595.46,2.35,2.35,0,0,0,1.409-.354A1.1,1.1,0,0,0,58.264,102.642Zm10.3.966a2.129,2.129,0,0,0,1.46-.494,1.731,1.731,0,0,0,.584-1.314h3.043a4.163,4.163,0,0,1-.674,2.263,4.446,4.446,0,0,1-1.814,1.595,5.676,5.676,0,0,1-2.544.567,5.275,5.275,0,0,1-4.11-1.656A6.555,6.555,0,0,1,63,99.992v-.213A6.48,6.48,0,0,1,64.5,95.3a5.214,5.214,0,0,1,4.1-1.673,5.111,5.111,0,0,1,3.656,1.3,4.593,4.593,0,0,1,1.4,3.453H70.606a2.23,2.23,0,0,0-.584-1.541,2.171,2.171,0,0,0-3.2.234,4.791,4.791,0,0,0-.578,2.683v.337a4.852,4.852,0,0,0,.573,2.7A1.979,1.979,0,0,0,68.562,103.608ZM78.928,106H75.671V93.849h3.257ZM75.48,90.7a1.6,1.6,0,0,1,.489-1.2,2.105,2.105,0,0,1,2.656,0,1.715,1.715,0,0,1-.006,2.415,2.082,2.082,0,0,1-2.639,0A1.593,1.593,0,0,1,75.48,90.7Zm9.108,3.145.1,1.4a4.242,4.242,0,0,1,3.493-1.628,3.526,3.526,0,0,1,2.875,1.134,5.292,5.292,0,0,1,.966,3.392V106H88.777V98.211a2.114,2.114,0,0,0-.449-1.5,2.008,2.008,0,0,0-1.494-.467,2.232,2.232,0,0,0-2.055,1.171V106H81.533V93.849Zm9.422,5.986a7.121,7.121,0,0,1,1.331-4.5,4.312,4.312,0,0,1,3.588-1.707,3.782,3.782,0,0,1,3.111,1.37l.135-1.146h2.942V105.6a5.193,5.193,0,0,1-.724,2.774,4.652,4.652,0,0,1-2.038,1.8,7.166,7.166,0,0,1-3.077.618,6.663,6.663,0,0,1-2.605-.533,4.624,4.624,0,0,1-1.92-1.376l1.438-1.977a3.8,3.8,0,0,0,2.942,1.359,2.783,2.783,0,0,0,2.01-.691,2.591,2.591,0,0,0,.719-1.96v-.651a3.754,3.754,0,0,1-2.954,1.269,4.3,4.3,0,0,1-3.543-1.713,7.12,7.12,0,0,1-1.353-4.543Zm3.246.231a4.458,4.458,0,0,0,.663,2.6,2.106,2.106,0,0,0,1.819.942,2.252,2.252,0,0,0,2.123-1.117V97.358a2.247,2.247,0,0,0-2.1-1.117,2.119,2.119,0,0,0-1.836.959A5.026,5.026,0,0,0,97.256,100.065Zm21.675,6.159a5.965,5.965,0,0,1-4.352-1.64,5.828,5.828,0,0,1-1.679-4.369V99.9a7.341,7.341,0,0,1,.708-3.274,5.192,5.192,0,0,1,2-2.224,5.626,5.626,0,0,1,2.959-.781A5.043,5.043,0,0,1,122.5,95.2a6.389,6.389,0,0,1,1.432,4.458v1.325H116.19a3.015,3.015,0,0,0,.949,1.909,2.869,2.869,0,0,0,2,.719,3.5,3.5,0,0,0,2.931-1.359l1.595,1.786a4.872,4.872,0,0,1-1.977,1.612A6.485,6.485,0,0,1,118.931,106.225Zm-.371-9.984a2.028,2.028,0,0,0-1.567.654,3.388,3.388,0,0,0-.769,1.873h4.515v-.26a2.416,2.416,0,0,0-.584-1.675A2.092,2.092,0,0,0,118.56,96.241ZM129.2,106h-3.257V88.75H129.2Zm6.1,0h-3.257V93.849h3.257Zm-3.448-15.3a1.6,1.6,0,0,1,.489-1.2,2.105,2.105,0,0,1,2.656,0,1.715,1.715,0,0,1-.006,2.415,2.082,2.082,0,0,1-2.639,0A1.593,1.593,0,0,1,131.846,90.7Zm10.006.157v2.987h2.078v2.381h-2.078v6.064a1.448,1.448,0,0,0,.258.966,1.3,1.3,0,0,0,.988.292,5.176,5.176,0,0,0,.955-.079v2.459a6.681,6.681,0,0,1-1.965.292q-3.414,0-3.481-3.448V96.229h-1.774V93.849h1.774V90.861Z" transform="translate(697.051 799)" fill="#5d5d5d"/>
      </g>
    </g>
  </g>
</svg>
