<svg id="Grupo_1101064" data-name="Grupo 1101064" xmlns="http://www.w3.org/2000/svg" xmlns:xlink="http://www.w3.org/1999/xlink" width="391.445" height="204.706" viewBox="0 0 391.445 204.706">
  <defs>
    <clipPath id="clip-path">
      <rect id="Rectángulo_401768" data-name="Rectángulo 401768" width="285.816" height="203.145" fill="none"/>
    </clipPath>
    <clipPath id="clip-path-2">
      <path id="Trazado_877559" data-name="Trazado 877559" d="M226.116,433.365l-7.753,13.675H178.83V433.365Z" transform="translate(-178.83 -433.365)" fill="none"/>
    </clipPath>
    <linearGradient id="linear-gradient" x1="2.711" y1="9.727" x2="2.701" y2="9.727" gradientUnits="objectBoundingBox">
      <stop offset="0" stop-color="#237c8f"/>
      <stop offset="1" stop-color="#2abdd1"/>
    </linearGradient>
    <clipPath id="clip-path-4">
      <path id="Trazado_877600" data-name="Trazado 877600" d="M255.377,433.365V447.04H208.091l5.738-13.675Z" transform="translate(-208.091 -433.365)" fill="none"/>
    </clipPath>
    <linearGradient id="linear-gradient-2" x1="2.991" y1="9.727" x2="2.981" y2="9.727" gradientUnits="objectBoundingBox">
      <stop offset="0" stop-color="#d2d1cd"/>
      <stop offset="1" stop-color="#abafb8"/>
    </linearGradient>
    <clipPath id="clip-path-6">
      <path id="Trazado_877644" data-name="Trazado 877644" d="M502.428,324.612a1.011,1.011,0,0,1,.671-1.093l-.674-6.42h-.095c.026.7.012,4.292-2.8,6.01a19.916,19.916,0,0,0,2.937,7.25c.057.091.118.183.179.274h3.118c.042-.091.083-.183.121-.274a16.964,16.964,0,0,0,1.409-7.25,8.753,8.753,0,0,1-4.057-6.01h-.1l.674,6.42a1.315,1.315,0,0,1,.9,1.093,1.013,1.013,0,0,1-1.027,1.144,1.3,1.3,0,0,1-1.265-1.144m.219-7.762.721,6.863-.093.021a.787.787,0,0,0-.6.878,1.024,1.024,0,0,0,.99.9.8.8,0,0,0,.8-.9,1.028,1.028,0,0,0-.783-.878l-.1-.021-.721-6.863h.581l.016.121a.729.729,0,0,0,.017.088,8.436,8.436,0,0,0,3.984,5.875l.066.037.008.073a17,17,0,0,1-1.377,7.315c-.065.15-.128.3-.2.457l-.029.066h-3.4l-.044-.066c-.1-.154-.2-.307-.3-.457a19.763,19.763,0,0,1-2.915-7.315l-.008-.073.058-.037c2.808-1.671,2.781-5.269,2.75-5.875a.731.731,0,0,0,0-.088l-.009-.121Z" transform="translate(-499.269 -316.85)" fill="none"/>
    </clipPath>
    <linearGradient id="linear-gradient-3" x1="20.49" y1="13.236" x2="20.451" y2="13.236" xlink:href="#linear-gradient-2"/>
  </defs>
  <g id="Grupo_1099957" data-name="Grupo 1099957" transform="translate(48.579)">
    <g id="Grupo_1099956" data-name="Grupo 1099956" transform="translate(0 0)" clip-path="url(#clip-path)">
      <path id="Trazado_877550" data-name="Trazado 877550" d="M91.676,490.694h6.077s16.724-2.643,12.85-34.92a11.086,11.086,0,0,0-7.182-9.1,153.883,153.883,0,0,0-51.782-8.7s-.242.023-.638.1a152.282,152.282,0,0,1,46.343,8.6,11.077,11.077,0,0,1,7.182,9.1c3.874,32.277-12.85,34.92-12.85,34.92" transform="translate(151.561 -297.654)" fill="#f3dacb"/>
      <path id="Trazado_877551" data-name="Trazado 877551" d="M149.425,454.3c5.111,15.333,10.346,28.293,10.346,28.293s2.49,8.105,12.587,8.105h6.077c-10.1,0-12.594-8.105-12.594-8.105S160.606,469.628,155.5,454.3c-4.4-13.2,4.239-15.773,6.714-16.226q-2.668-.1-5.44-.1s-12.461,1-7.351,16.322" transform="translate(40.344 -297.654)" fill="#ede3dd"/>
      <path id="Trazado_877552" data-name="Trazado 877552" d="M118.387,490.519c.712-.111,17.4-3.131,13.485-35.755a11.782,11.782,0,0,0-7.675-9.724,154.769,154.769,0,0,0-52.044-8.749l-.06,0a10.846,10.846,0,0,0-7.636,4.432c-2.062,3.116-2.188,7.454-.376,12.892,5.059,15.177,10.309,28.206,10.338,28.275.027.087,2.779,8.637,13.313,8.637h30.595Zm5.29-44.053a10.269,10.269,0,0,1,6.688,8.479c3.63,30.224-11.208,33.865-12.169,34.067H87.733c-9.387,0-11.767-7.258-11.885-7.627-.052-.13-5.285-13.119-10.328-28.248-1.654-4.966-1.589-8.856.195-11.563a9.429,9.429,0,0,1,6.476-3.766,153.172,153.172,0,0,1,51.488,8.658" transform="translate(124.938 -296.732)" fill="#fff"/>
      <path id="Trazado_877553" data-name="Trazado 877553" d="M474.945,433.365h47.286l-7.752,13.675H474.945Z" transform="translate(-451.255 -295.13)" fill="#82b59b"/>
      <path id="Trazado_877554" data-name="Trazado 877554" d="M480.028,570.926,441.006,444.109l6.488-1.831,38.537,128.648Z" transform="translate(-399.703 -300.011)" fill="#f3dacb"/>
      <path id="Trazado_877555" data-name="Trazado 877555" d="M479.208,570.763h6.7l-.128-.43L447.146,441.371l-7.133,2.012.1.327Zm5.8-.668H479.7l-38.85-126.254,5.843-1.649Z" transform="translate(-399.129 -299.514)" fill="#3b1e1c"/>
      <path id="Trazado_877556" data-name="Trazado 877556" d="M570.769,570.926l38.537-128.648,6.488,1.831L576.772,570.926Z" transform="translate(-588.163 -300.011)" fill="#f3dacb"/>
      <path id="Trazado_877557" data-name="Trazado 877557" d="M569.841,570.763h6.7l.073-.235,39.122-127.144-7.133-2.012Zm6.2-.668h-5.307l38.314-127.9,5.842,1.649Z" transform="translate(-587.684 -299.514)" fill="#3b1e1c"/>
      <path id="Trazado_877558" data-name="Trazado 877558" d="M551.487,447.04H504.2l5.736-13.675h41.55Z" transform="translate(-493.745 -295.129)" fill="#95504f"/>
    </g>
  </g>
  <g id="Grupo_1099959" data-name="Grupo 1099959" transform="translate(263.267 138.235)">
    <g id="Grupo_1099958" data-name="Grupo 1099958" transform="translate(0 0)" clip-path="url(#clip-path-2)">
      <rect id="Rectángulo_401769" data-name="Rectángulo 401769" width="47.286" height="13.675" transform="translate(0 0)" fill="url(#linear-gradient)"/>
    </g>
  </g>
  <g id="Grupo_1099961" data-name="Grupo 1099961" transform="translate(105.629)">
    <g id="Grupo_1099960" data-name="Grupo 1099960" transform="translate(0 0)" clip-path="url(#clip-path)">
      <path id="Trazado_877560" data-name="Trazado 877560" d="M187.051,570.926l-36.93-126.817,6.486-1.831L192.78,570.926Z" transform="translate(25.13 -300.011)" fill="#f3dacb"/>
      <path id="Trazado_877561" data-name="Trazado 877561" d="M186.238,570.761h6.421L156.276,441.367l-7.132,2.013.094.324Zm5.538-.668h-5.037L149.974,443.84l5.84-1.649Z" transform="translate(25.692 -299.512)" fill="#3b1e1c"/>
      <path id="Trazado_877562" data-name="Trazado 877562" d="M274.656,570.926l36.173-128.648,6.487,1.831-36.93,126.817Z" transform="translate(-155.739 -300.011)" fill="#e6e6e6"/>
      <path id="Trazado_877563" data-name="Trazado 877563" d="M273.74,570.761h6.421l.071-.241,37.023-127.14-7.132-2.013-.091.322Zm5.921-.668h-5.038l35.963-127.9,5.84,1.649Z" transform="translate(-155.265 -299.512)" fill="#3b1e1c"/>
      <rect id="Rectángulo_401770" data-name="Rectángulo 401770" width="44.445" height="83.764" transform="translate(139.487 187.114)" fill="#f3dacb"/>
      <path id="Trazado_877564" data-name="Trazado 877564" d="M224.8,625.142h44.838V540.986H224.8Zm44.445-.392H225.192V541.378h44.054Z" transform="translate(-85.509 -354.068)" fill="#3b1e1c"/>
      <path id="Trazado_877565" data-name="Trazado 877565" d="M224.63,625.125h44.991V540.816H224.63Zm44.446-.545h-43.9V541.361h43.9Z" transform="translate(-85.416 -353.975)" fill="#3b1e1c"/>
      <rect id="Rectángulo_401771" data-name="Rectángulo 401771" width="18.964" height="83.764" transform="translate(183.597 187.114)" fill="#3b1e1c"/>
      <path id="Trazado_877566" data-name="Trazado 877566" d="M233.483,559.671a1.27,1.27,0,1,0-1.27-1.27,1.272,1.272,0,0,0,1.27,1.27m0-1.8a.529.529,0,1,1-.529.529.529.529,0,0,1,.529-.529" transform="translate(-53.978 -362.91)" fill="#3b1e1c"/>
      <path id="Trazado_877567" data-name="Trazado 877567" d="M243.317,559.671a1.27,1.27,0,1,0-1.27-1.27,1.272,1.272,0,0,0,1.27,1.27m0-1.8a.529.529,0,1,1-.529.529.529.529,0,0,1,.529-.529" transform="translate(-68.26 -362.91)" fill="#3b1e1c"/>
      <path id="Trazado_877568" data-name="Trazado 877568" d="M253.152,559.671a1.27,1.27,0,1,0-1.27-1.27,1.272,1.272,0,0,0,1.27,1.27m0-1.8a.529.529,0,1,1-.529.529.529.529,0,0,1,.529-.529" transform="translate(-82.544 -362.91)" fill="#3b1e1c"/>
      <path id="Trazado_877569" data-name="Trazado 877569" d="M262.988,559.671a1.27,1.27,0,1,0-1.27-1.27,1.272,1.272,0,0,0,1.27,1.27m0-1.8a.529.529,0,1,1-.528.529.529.529,0,0,1,.528-.529" transform="translate(-96.829 -362.91)" fill="#3b1e1c"/>
      <path id="Trazado_877570" data-name="Trazado 877570" d="M272.823,559.671a1.27,1.27,0,1,0-1.27-1.27,1.271,1.271,0,0,0,1.27,1.27m0-1.8a.529.529,0,1,1-.528.529.529.529,0,0,1,.528-.529" transform="translate(-111.113 -362.91)" fill="#3b1e1c"/>
      <path id="Trazado_877571" data-name="Trazado 877571" d="M282.657,559.671a1.27,1.27,0,1,0-1.27-1.27,1.272,1.272,0,0,0,1.27,1.27m0-1.8a.529.529,0,1,1-.528.529.529.529,0,0,1,.528-.529" transform="translate(-125.395 -362.91)" fill="#3b1e1c"/>
      <path id="Trazado_877572" data-name="Trazado 877572" d="M292.491,559.671a1.27,1.27,0,1,0-1.271-1.27,1.272,1.272,0,0,0,1.271,1.27m0-1.8a.529.529,0,1,1-.529.529.528.528,0,0,1,.529-.529" transform="translate(-139.677 -362.91)" fill="#3b1e1c"/>
      <path id="Trazado_877573" data-name="Trazado 877573" d="M302.325,559.671a1.27,1.27,0,1,0-1.27-1.27,1.272,1.272,0,0,0,1.27,1.27m0-1.8a.529.529,0,1,1-.529.529.529.529,0,0,1,.529-.529" transform="translate(-153.961 -362.91)" fill="#3b1e1c"/>
      <path id="Trazado_877574" data-name="Trazado 877574" d="M312.16,559.671a1.27,1.27,0,1,0-1.27-1.27,1.272,1.272,0,0,0,1.27,1.27m0-1.8a.529.529,0,1,1-.529.529.529.529,0,0,1,.529-.529" transform="translate(-168.245 -362.91)" fill="#3b1e1c"/>
      <path id="Trazado_877575" data-name="Trazado 877575" d="M238.4,566.786a1.27,1.27,0,1,0-1.27-1.27,1.272,1.272,0,0,0,1.27,1.27m0-1.8a.529.529,0,1,1-.527.529.53.53,0,0,1,.527-.529" transform="translate(-61.12 -366.807)" fill="#3b1e1c"/>
      <path id="Trazado_877576" data-name="Trazado 877576" d="M248.234,566.786a1.27,1.27,0,1,0-1.27-1.27,1.272,1.272,0,0,0,1.27,1.27m0-1.8a.529.529,0,1,1-.528.529.529.529,0,0,1,.528-.529" transform="translate(-75.402 -366.807)" fill="#3b1e1c"/>
      <path id="Trazado_877577" data-name="Trazado 877577" d="M258.069,566.786a1.27,1.27,0,1,0-1.27-1.27,1.272,1.272,0,0,0,1.27,1.27m0-1.8a.529.529,0,1,1-.529.529.529.529,0,0,1,.529-.529" transform="translate(-89.686 -366.807)" fill="#3b1e1c"/>
      <path id="Trazado_877578" data-name="Trazado 877578" d="M267.9,566.786a1.27,1.27,0,1,0-1.27-1.27,1.272,1.272,0,0,0,1.27,1.27m0-1.8a.529.529,0,1,1-.529.529.528.528,0,0,1,.529-.529" transform="translate(-103.969 -366.807)" fill="#3b1e1c"/>
      <path id="Trazado_877579" data-name="Trazado 877579" d="M277.739,566.786a1.27,1.27,0,1,0-1.27-1.27,1.272,1.272,0,0,0,1.27,1.27m0-1.8a.529.529,0,1,1-.529.529.529.529,0,0,1,.529-.529" transform="translate(-118.253 -366.807)" fill="#3b1e1c"/>
      <path id="Trazado_877580" data-name="Trazado 877580" d="M287.574,566.786a1.27,1.27,0,1,0-1.27-1.27,1.272,1.272,0,0,0,1.27,1.27m0-1.8a.529.529,0,1,1-.529.529.529.529,0,0,1,.529-.529" transform="translate(-132.537 -366.807)" fill="#3b1e1c"/>
      <path id="Trazado_877581" data-name="Trazado 877581" d="M297.409,566.786a1.27,1.27,0,1,0-1.27-1.27,1.272,1.272,0,0,0,1.27,1.27m0-1.8a.529.529,0,1,1-.529.529.529.529,0,0,1,.529-.529" transform="translate(-146.821 -366.807)" fill="#3b1e1c"/>
      <path id="Trazado_877582" data-name="Trazado 877582" d="M307.244,566.786a1.27,1.27,0,1,0-1.27-1.27,1.272,1.272,0,0,0,1.27,1.27m0-1.8a.529.529,0,1,1-.528.529.529.529,0,0,1,.528-.529" transform="translate(-161.105 -366.807)" fill="#3b1e1c"/>
      <path id="Trazado_877583" data-name="Trazado 877583" d="M233.483,574.109a1.27,1.27,0,1,0-1.27-1.27,1.271,1.271,0,0,0,1.27,1.27m0-1.8a.529.529,0,1,1-.529.528.528.528,0,0,1,.529-.528" transform="translate(-53.978 -370.817)" fill="#3b1e1c"/>
      <path id="Trazado_877584" data-name="Trazado 877584" d="M243.317,574.109a1.27,1.27,0,1,0-1.27-1.27,1.271,1.271,0,0,0,1.27,1.27m0-1.8a.529.529,0,1,1-.529.528.528.528,0,0,1,.529-.528" transform="translate(-68.26 -370.817)" fill="#3b1e1c"/>
      <path id="Trazado_877585" data-name="Trazado 877585" d="M253.152,574.109a1.27,1.27,0,1,0-1.27-1.27,1.271,1.271,0,0,0,1.27,1.27m0-1.8a.529.529,0,1,1-.529.528.528.528,0,0,1,.529-.528" transform="translate(-82.544 -370.817)" fill="#3b1e1c"/>
      <path id="Trazado_877586" data-name="Trazado 877586" d="M262.988,574.109a1.27,1.27,0,1,0-1.27-1.27,1.271,1.271,0,0,0,1.27,1.27m0-1.8a.529.529,0,1,1-.528.528.528.528,0,0,1,.528-.528" transform="translate(-96.829 -370.817)" fill="#3b1e1c"/>
      <path id="Trazado_877587" data-name="Trazado 877587" d="M272.823,574.109a1.27,1.27,0,1,0-1.27-1.27,1.27,1.27,0,0,0,1.27,1.27m0-1.8a.529.529,0,1,1-.528.528.528.528,0,0,1,.528-.528" transform="translate(-111.113 -370.817)" fill="#3b1e1c"/>
      <path id="Trazado_877588" data-name="Trazado 877588" d="M282.657,574.109a1.27,1.27,0,1,0-1.27-1.27,1.271,1.271,0,0,0,1.27,1.27m0-1.8a.529.529,0,1,1-.528.528.528.528,0,0,1,.528-.528" transform="translate(-125.395 -370.817)" fill="#3b1e1c"/>
      <path id="Trazado_877589" data-name="Trazado 877589" d="M292.491,574.109a1.27,1.27,0,1,0-1.271-1.27,1.271,1.271,0,0,0,1.271,1.27m0-1.8a.529.529,0,1,1-.529.528.528.528,0,0,1,.529-.528" transform="translate(-139.677 -370.817)" fill="#3b1e1c"/>
      <path id="Trazado_877590" data-name="Trazado 877590" d="M302.325,574.109a1.27,1.27,0,1,0-1.27-1.27,1.271,1.271,0,0,0,1.27,1.27m0-1.8a.529.529,0,1,1-.529.528.528.528,0,0,1,.529-.528" transform="translate(-153.961 -370.817)" fill="#3b1e1c"/>
      <path id="Trazado_877591" data-name="Trazado 877591" d="M312.16,574.109a1.27,1.27,0,1,0-1.27-1.27,1.271,1.271,0,0,0,1.27,1.27m0-1.8a.529.529,0,1,1-.529.528.528.528,0,0,1,.529-.528" transform="translate(-168.245 -370.817)" fill="#3b1e1c"/>
      <path id="Trazado_877592" data-name="Trazado 877592" d="M238.4,581.224a1.27,1.27,0,1,0-1.27-1.27,1.272,1.272,0,0,0,1.27,1.27m0-1.8a.529.529,0,1,1-.527.529.53.53,0,0,1,.527-.529" transform="translate(-61.12 -374.714)" fill="#3b1e1c"/>
      <path id="Trazado_877593" data-name="Trazado 877593" d="M248.234,581.224a1.27,1.27,0,1,0-1.27-1.27,1.272,1.272,0,0,0,1.27,1.27m0-1.8a.529.529,0,1,1-.528.529.529.529,0,0,1,.528-.529" transform="translate(-75.402 -374.714)" fill="#3b1e1c"/>
      <path id="Trazado_877594" data-name="Trazado 877594" d="M258.069,581.224a1.27,1.27,0,1,0-1.27-1.27,1.272,1.272,0,0,0,1.27,1.27m0-1.8a.529.529,0,1,1-.529.529.528.528,0,0,1,.529-.529" transform="translate(-89.686 -374.714)" fill="#3b1e1c"/>
      <path id="Trazado_877595" data-name="Trazado 877595" d="M267.9,581.224a1.27,1.27,0,1,0-1.27-1.27,1.272,1.272,0,0,0,1.27,1.27m0-1.8a.529.529,0,1,1-.529.529.528.528,0,0,1,.529-.529" transform="translate(-103.969 -374.714)" fill="#3b1e1c"/>
      <path id="Trazado_877596" data-name="Trazado 877596" d="M277.739,581.224a1.27,1.27,0,1,0-1.27-1.27,1.272,1.272,0,0,0,1.27,1.27m0-1.8a.529.529,0,1,1-.529.529.528.528,0,0,1,.529-.529" transform="translate(-118.253 -374.714)" fill="#3b1e1c"/>
      <path id="Trazado_877597" data-name="Trazado 877597" d="M287.574,581.224a1.27,1.27,0,1,0-1.27-1.27,1.272,1.272,0,0,0,1.27,1.27m0-1.8a.529.529,0,1,1-.529.529.529.529,0,0,1,.529-.529" transform="translate(-132.537 -374.714)" fill="#3b1e1c"/>
      <path id="Trazado_877598" data-name="Trazado 877598" d="M297.409,581.224a1.27,1.27,0,1,0-1.27-1.27,1.272,1.272,0,0,0,1.27,1.27m0-1.8a.529.529,0,1,1-.529.529.529.529,0,0,1,.529-.529" transform="translate(-146.821 -374.714)" fill="#3b1e1c"/>
      <path id="Trazado_877599" data-name="Trazado 877599" d="M307.244,581.224a1.27,1.27,0,1,0-1.27-1.27,1.272,1.272,0,0,0,1.27,1.27m0-1.8a.529.529,0,1,1-.528.529.529.529,0,0,1,.528-.529" transform="translate(-161.105 -374.714)" fill="#3b1e1c"/>
    </g>
  </g>
  <g id="Grupo_1099963" data-name="Grupo 1099963" transform="translate(250.029 138.235)">
    <g id="Grupo_1099962" data-name="Grupo 1099962" transform="translate(0 0)" clip-path="url(#clip-path-4)">
      <rect id="Rectángulo_401773" data-name="Rectángulo 401773" width="47.286" height="13.675" transform="translate(0 0)" fill="url(#linear-gradient-2)"/>
    </g>
  </g>
  <g id="Grupo_1099965" data-name="Grupo 1099965" transform="translate(105.629)">
    <g id="Grupo_1099964" data-name="Grupo 1099964" transform="translate(0 0)" clip-path="url(#clip-path)">
      <rect id="Rectángulo_401774" data-name="Rectángulo 401774" width="205.859" height="5.326" transform="translate(8.816 134.292)" fill="#f3dacb"/>
      <path id="Trazado_877601" data-name="Trazado 877601" d="M233.437,282.535c-.676,4.329-1.33,7.651-1.983,10.13l-.005.02a3.082,3.082,0,0,1-2.465,2.248c-.943.163-2.03.315-3.124.449-2.345.279-4.714.461-5.764.484-5.523.108-11.264-2.605-15.549-9.761-3.691-6.165-12.464-47.655-13.935-54.731-1.832-3.164-5.64-13.878-4.053-15.209,2.078-1.742,8.327-4.326,8.843-2.506.385,1.148,3.359,4.927,5.082,11.179,2.8,5.114,17.338,22.364,26.6,33.286a28.9,28.9,0,0,1,6.6,22.769q-.117.814-.244,1.642" transform="translate(-32.371 -174.466)" fill="#df8b72"/>
      <path id="Trazado_877602" data-name="Trazado 877602" d="M254.725,212.061s4.754-3.8,4.532-7.822-.124-5.692.9-7.98-3.537-2.7-5.081,3.292-4.5,10.242-.347,12.51" transform="translate(-88.748 -164.426)" fill="#df8b72"/>
      <path id="Trazado_877603" data-name="Trazado 877603" d="M259.972,205.931a1.955,1.955,0,0,0,.07.72,1.717,1.717,0,0,0,.343.651,1.66,1.66,0,0,0,.277.252,1.616,1.616,0,0,0,.693.242,1.019,1.019,0,0,0,.182,0c.06,0,.12,0,.18-.005-.118-.028-.237-.034-.35-.068a1.874,1.874,0,0,1-.329-.114,1.723,1.723,0,0,1-.3-.168,1.66,1.66,0,0,1-.247-.234,1.982,1.982,0,0,1-.346-.593,3.213,3.213,0,0,1-.175-.686" transform="translate(-93.496 -170.575)" fill="#3b1e1c"/>
      <path id="Trazado_877604" data-name="Trazado 877604" d="M262.689,208.112h16.157l1.7-27.127H260.99Z" transform="translate(-112.788 -156.913)" fill="#e8bb3b"/>
      <path id="Trazado_877605" data-name="Trazado 877605" d="M259.516,174.849h19.066a.846.846,0,0,1,.676.337l.817,1.083a.846.846,0,0,1-.675,1.356H258.7a.846.846,0,0,1-.675-1.356l.818-1.083a.845.845,0,0,1,.675-.337" transform="translate(-111.069 -153.552)" fill="#f3dacb"/>
      <path id="Trazado_877606" data-name="Trazado 877606" d="M276.191,206.971a4.369,4.369,0,1,0,4.369-4.369,4.368,4.368,0,0,0-4.369,4.369" transform="translate(-124.047 -168.751)" fill="#fff"/>
      <path id="Trazado_877607" data-name="Trazado 877607" d="M284.585,204.995a6,6,0,1,0-6,6,6.008,6.008,0,0,0,6-6m-.741,0a5.26,5.26,0,1,1-5.26-5.259,5.266,5.266,0,0,1,5.26,5.259" transform="translate(-122.071 -166.776)" fill="#312113"/>
      <path id="Trazado_877608" data-name="Trazado 877608" d="M426.247,366.632H445.4l6.945-36.174a9.4,9.4,0,0,0-9.235-11.177h0a9.4,9.4,0,0,0-9.235,7.63Z" transform="translate(-359.51 -232.651)" fill="#fff"/>
      <path id="Trazado_877609" data-name="Trazado 877609" d="M452.342,330.171a9.684,9.684,0,1,0-19.021-3.651L425.7,366.24l-.064.332h19.722Zm-18.47-3.546a9.123,9.123,0,0,1,17.919,3.441l-6.9,35.947H426.31Z" transform="translate(-359.234 -232.312)" fill="#3b1e1c"/>
      <path id="Trazado_877610" data-name="Trazado 877610" d="M442.842,360.074l-.767-.148,5.439-28.33a7.364,7.364,0,1,0-14.464-2.777l-3.25,16.926-.767-.148,3.25-16.925a8.145,8.145,0,0,1,16,3.072Z" transform="translate(-356.684 -234.174)" fill="#3b1e1c"/>
      <rect id="Rectángulo_401775" data-name="Rectángulo 401775" width="50.717" height="3.228" transform="translate(70.848 130.754)" fill="#fff"/>
      <path id="Trazado_877611" data-name="Trazado 877611" d="M413.767,416.205H362.489v3.788h51.278Zm-50.717.56h50.156v2.667H363.05Z" transform="translate(-291.922 -285.732)" fill="#3b1e1c"/>
      <rect id="Rectángulo_401776" data-name="Rectángulo 401776" width="41.598" height="0.782" transform="translate(79.967 130.362)" fill="#3b1e1c"/>
      <path id="Trazado_877612" data-name="Trazado 877612" d="M418.428,298.718H309.093a5.7,5.7,0,0,1-5.668-5.106l-6.917-66.046a5.7,5.7,0,0,1,5.668-6.292H411.511a5.7,5.7,0,0,1,5.667,5.105l6.917,66.046a5.7,5.7,0,0,1-5.668,6.293" transform="translate(-272.421 -178.977)" fill="#fff"/>
      <path id="Trazado_877613" data-name="Trazado 877613" d="M422.532,296.681a5.988,5.988,0,0,0,1.5-4.625l-6.917-66.045a5.966,5.966,0,0,0-5.947-5.357H301.837a5.98,5.98,0,0,0-5.947,6.6l6.917,66.045a5.967,5.967,0,0,0,5.947,5.357H418.089a5.989,5.989,0,0,0,4.443-1.978m-11.36-75.466a5.407,5.407,0,0,1,5.389,4.854l6.917,66.046a5.417,5.417,0,0,1-5.389,5.983H308.755a5.408,5.408,0,0,1-5.39-4.855L296.448,227.2a5.419,5.419,0,0,1,5.389-5.983Z" transform="translate(-272.083 -178.638)" fill="#3b1e1c"/>
      <path id="Trazado_877614" data-name="Trazado 877614" d="M309.572,293.861l-6.633-63.33a3.019,3.019,0,0,1,3-3.333H415.276a3.012,3.012,0,0,1,3,2.7l6.7,63.959Z" transform="translate(-276.187 -182.222)" fill="#f3dacb"/>
      <path id="Trazado_877615" data-name="Trazado 877615" d="M410.775,299.156H301.441c-.123,0-.243-.006-.363-.018l.078-.777a2.8,2.8,0,0,0,.285.014H410.775a2.836,2.836,0,0,0,2.821-3.131L406.678,229.2a2.828,2.828,0,0,0-2.82-2.541v-.781a3.607,3.607,0,0,1,3.6,3.241l6.918,66.045a3.618,3.618,0,0,1-3.6,3.994" transform="translate(-264.769 -181.498)" fill="#3b1e1c"/>
      <path id="Trazado_877616" data-name="Trazado 877616" d="M415.2,317.012h45.536l-.026-.247H415.177Z" transform="translate(-362.727 -231.273)" fill="#3b1e1c"/>
      <path id="Trazado_877617" data-name="Trazado 877617" d="M457.413,360.523h.641l-.045-.427h-.214l-.023-.214h-.427Z" transform="translate(-379.116 -254.886)" fill="#3b1e1c"/>
      <path id="Trazado_877618" data-name="Trazado 877618" d="M429.271,360.356l.045.427h-.863l-.045-.427Zm-1.729,0,.045.427h-.863l-.045-.427Zm-1.729,0,.045.427h-.863l-.045-.427Zm-1.729,0,.045.427h-.863l-.045-.427Zm-1.726,0,.045.427h-.866l-.045-.427Zm-1.733,0,.045.427h-.863l-.045-.427Zm-1.726,0,.045.427h-.866l-.045-.427Zm-1.729,0,.045.427h-.867l-.045-.427Zm-1.729,0,.045.427h-.866l-.045-.427Zm-1.729,0,.045.427h-.866l-.045-.427Zm-1.729,0,.045.427h-.863l-.045-.427Zm-1.729,0,.045.427h-.863l-.045-.427Zm-1.729,0,.045.427h-.863l-.045-.427Z" transform="translate(-327.904 -255.146)" fill="#3b1e1c"/>
      <path id="Trazado_877619" data-name="Trazado 877619" d="M404.378,360.523h.641l-.067-.641h-.427l.023.214h-.214Z" transform="translate(-302.102 -254.886)" fill="#3b1e1c"/>
      <path id="Trazado_877620" data-name="Trazado 877620" d="M405.109,310.2l.091.863h-.428l-.091-.863Zm.182,1.729.091.863h-.428l-.091-.863Zm.182,1.729.09.863h-.427l-.091-.863Zm.181,1.726.091.867h-.427l-.091-.867Zm.182,1.729.091.866H405.5l-.091-.866Zm.182,1.729.091.867h-.428l-.091-.867Zm.181,1.729.091.866h-.428l-.091-.866Zm.182,1.729.091.867h-.427l-.091-.867Zm.182,1.729.09.863h-.428l-.09-.863Zm.181,1.729.091.863h-.428l-.09-.863Zm.182,1.729.091.863h-.428l-.091-.863Zm.182,1.729.091.863h-.428l-.091-.863Zm.181,1.725.091.867h-.427l-.091-.867Z" transform="translate(-304.62 -227.678)" fill="#3b1e1c"/>
      <path id="Trazado_877621" data-name="Trazado 877621" d="M410.187,307.511h.427l-.067-.641h-.641l.045.427h.214Z" transform="translate(-310.217 -225.854)" fill="#3b1e1c"/>
      <path id="Trazado_877622" data-name="Trazado 877622" d="M434.893,306.869l.045.427h-.863l-.045-.427Zm-1.729,0,.045.427h-.863l-.045-.427Zm-1.729,0,.045.427h-.863l-.045-.427Zm-1.729,0,.045.427h-.863l-.045-.427Zm-1.729,0,.045.427h-.863l-.045-.427Zm-1.729,0,.045.427h-.863l-.045-.427Zm-1.725,0,.045.427H423.7l-.045-.427Zm-1.729,0,.045.427h-.867l-.045-.427Zm-1.729,0,.045.427h-.866l-.045-.427Zm-1.729,0,.045.427h-.866l-.045-.427Zm-1.729,0,.045.427h-.863l-.045-.427Zm-1.729,0,.045.427h-.863l-.045-.427Zm-1.729,0,.045.427h-.863l-.045-.427Z" transform="translate(-336.069 -225.854)" fill="#3b1e1c"/>
      <path id="Trazado_877623" data-name="Trazado 877623" d="M463.034,307.511h.427l-.023-.213h.214l-.045-.427h-.641Z" transform="translate(-387.259 -225.854)" fill="#3b1e1c"/>
      <path id="Trazado_877624" data-name="Trazado 877624" d="M458.6,310.2l.091.863h-.428l-.09-.863Zm.182,1.729.091.863h-.428l-.09-.863Zm.182,1.729.09.863h-.427l-.091-.863Zm.181,1.726.091.867H458.8l-.091-.867Zm.182,1.729.091.866h-.428l-.091-.866Zm.181,1.729.091.867h-.428l-.091-.867Zm.182,1.729.091.866h-.428l-.091-.866Zm.182,1.729.091.867h-.428l-.091-.867Zm.181,1.729.091.863h-.427l-.091-.863Zm.182,1.729.091.863h-.428l-.09-.863Zm.182,1.729.091.863h-.428l-.09-.863Zm.182,1.729.09.863h-.427l-.09-.863Zm.181,1.725.091.867h-.427l-.091-.867Z" transform="translate(-382.302 -227.678)" fill="#3b1e1c"/>
      <path id="Trazado_877625" data-name="Trazado 877625" d="M415.381,332.075,419.97,317.3l0-.011h2l0,.011,7.765,14.777h1.148l.043.41H427.2l-.043-.41h1.828l-2.364-4.65h-4.83l-1.288,4.65h1.729l.043.41H414.3l-.043-.41Zm10.97-5.122-2.885-5.641-1.528,5.641Z" transform="translate(-332.505 -231.559)" fill="#c34915"/>
      <path id="Trazado_877626" data-name="Trazado 877626" d="M404.658,360.649l-.178-1.688h-1.688l.178,1.688Z" transform="translate(-301.044 -254.382)" fill="#fff"/>
      <path id="Trazado_877627" data-name="Trazado 877627" d="M404.425,358.69l.2,1.934h-1.934l-.2-1.934Zm-1.512,1.685h1.44l-.151-1.44h-1.44Z" transform="translate(-300.878 -254.234)" fill="#3b1e1c"/>
      <path id="Trazado_877628" data-name="Trazado 877628" d="M407.469,333.906l-.177-1.688H405.6l.178,1.688Z" transform="translate(-305.126 -239.736)" fill="#fff"/>
      <path id="Trazado_877629" data-name="Trazado 877629" d="M407.236,331.947l.2,1.934h-1.934l-.2-1.934Zm-1.512,1.686h1.44l-.151-1.441h-1.441Z" transform="translate(-304.961 -239.588)" fill="#3b1e1c"/>
      <path id="Trazado_877630" data-name="Trazado 877630" d="M410.279,307.164l-.177-1.688h-1.688l.177,1.688Z" transform="translate(-309.208 -225.091)" fill="#fff"/>
      <path id="Trazado_877631" data-name="Trazado 877631" d="M410.047,305.205l.2,1.934h-1.934l-.2-1.934Zm-1.511,1.689h1.44l-.151-1.444h-1.441Z" transform="translate(-309.043 -224.942)" fill="#3b1e1c"/>
      <path id="Trazado_877632" data-name="Trazado 877632" d="M458.143,360.649l-.177-1.688h-1.688l.177,1.688Z" transform="translate(-378.723 -254.382)" fill="#fff"/>
      <path id="Trazado_877633" data-name="Trazado 877633" d="M457.911,358.69l.2,1.934H456.18l-.2-1.934Zm-1.512,1.685h1.444l-.151-1.44h-1.444Z" transform="translate(-378.558 -254.234)" fill="#3b1e1c"/>
      <path id="Trazado_877634" data-name="Trazado 877634" d="M460.954,333.906l-.178-1.688h-1.688l.178,1.688Z" transform="translate(-382.805 -239.736)" fill="#fff"/>
      <path id="Trazado_877635" data-name="Trazado 877635" d="M460.722,331.947l.2,1.934h-1.934l-.2-1.934Zm-1.512,1.686h1.444l-.152-1.441h-1.444Z" transform="translate(-382.641 -239.588)" fill="#3b1e1c"/>
      <path id="Trazado_877636" data-name="Trazado 877636" d="M463.765,307.164l-.177-1.688H461.9l.178,1.688Z" transform="translate(-386.887 -225.091)" fill="#fff"/>
      <path id="Trazado_877637" data-name="Trazado 877637" d="M463.534,305.205l.2,1.934H461.8l-.2-1.934Zm-1.511,1.689h1.444l-.152-1.444h-1.444Z" transform="translate(-386.724 -224.942)" fill="#3b1e1c"/>
      <path id="Trazado_877638" data-name="Trazado 877638" d="M437.023,307.164l-.177-1.688h-1.689l.177,1.688Z" transform="translate(-348.049 -225.091)" fill="#fff"/>
      <path id="Trazado_877639" data-name="Trazado 877639" d="M436.789,305.205l.2,1.934h-1.935l-.2-1.934Zm-1.511,1.689h1.444l-.152-1.444h-1.445Z" transform="translate(-347.882 -224.942)" fill="#3b1e1c"/>
      <path id="Trazado_877640" data-name="Trazado 877640" d="M431.4,360.649l-.177-1.688h-1.689l.177,1.688Z" transform="translate(-339.884 -254.382)" fill="#fff"/>
      <path id="Trazado_877641" data-name="Trazado 877641" d="M431.168,358.69l.2,1.934h-1.934l-.2-1.934Zm-1.512,1.685H431.1l-.151-1.44h-1.444Z" transform="translate(-339.718 -254.234)" fill="#3b1e1c"/>
      <path id="Trazado_877642" data-name="Trazado 877642" d="M499.541,323.191a19.675,19.675,0,0,0,3.189,7.716h3.262a16.829,16.829,0,0,0,1.567-7.716c-3.546-1.873-4.074-6.065-4.074-6.065h-.338l.7,6.638a1.167,1.167,0,0,1,.892,1,.9.9,0,0,1-.915,1.022,1.162,1.162,0,0,1-1.129-1.022.9.9,0,0,1,.683-1l-.7-6.638h-.338s.353,4.192-2.8,6.065" transform="translate(-447.729 -231.471)" fill="#fff"/>
    </g>
  </g>
  <g id="Grupo_1099967" data-name="Grupo 1099967" transform="translate(157.31 85.53)">
    <g id="Grupo_1099966" data-name="Grupo 1099966" transform="translate(0 0)" clip-path="url(#clip-path-6)">
      <path id="Trazado_877643" data-name="Trazado 877643" d="M505.465,316.85H495.441l1.475,14.031H506.94Z" transform="translate(-496.916 -316.85)" fill="url(#linear-gradient-3)"/>
    </g>
  </g>
  <g id="Grupo_1099969" data-name="Grupo 1099969" transform="translate(105.629)">
    <g id="Grupo_1099968" data-name="Grupo 1099968" transform="translate(0 0)" clip-path="url(#clip-path)">
      <path id="Trazado_877645" data-name="Trazado 877645" d="M501.164,348.742h4.818l-.213-2.028h-4.818Z" transform="translate(-446.77 -247.675)" fill="#c34915"/>
      <path id="Trazado_877646" data-name="Trazado 877646" d="M332.179,330.779h24.438l-3.3-31.372H335.174l-5.664,5.978Z" transform="translate(-219.853 -221.767)" fill="#778aeb"/>
      <path id="Trazado_877647" data-name="Trazado 877647" d="M335,299.208h18.272l3.317,31.553H331.968l-2.683-25.525Zm-5.525,6.109,2.655,25.262h24.257L353.11,299.39H335.09l-.033.037-5.542,5.85Z" transform="translate(-219.725 -221.658)" fill="#3b1e1c"/>
      <path id="Trazado_877648" data-name="Trazado 877648" d="M346.385,339.472l-8.51-7.406-6.23,7.406Z" transform="translate(-210.588 -239.653)" fill="#fff"/>
      <path id="Trazado_877649" data-name="Trazado 877649" d="M331.041,339.26l.1-.121,2.236-2.654.078-.091.075-.091,3.89-4.621L345.835,339l.1.088.1.084.237.208H330.937Zm6.424-7.228-3.757,4.467-.156.183-2.063,2.457h14.144Z" transform="translate(-210.156 -239.442)" fill="#778aeb"/>
      <path id="Trazado_877650" data-name="Trazado 877650" d="M368.614,334.393l-10.4-11.6-4.622,6.736.511,4.865Z" transform="translate(-242.745 -234.574)" fill="#fff"/>
      <path id="Trazado_877651" data-name="Trazado 877651" d="M353.03,329.205l.158-.234,4.543-6.617,7.926,8.84.087.1.091.1,2.365,2.639.108.121.112.124h-14.89L353,329.246Zm.723,4.826h14.13l-2.2-2.457-.087-.1-.087-.1-7.732-8.624-4.514,6.577Z" transform="translate(-242.283 -234.334)" fill="#778aeb"/>
      <path id="Trazado_877652" data-name="Trazado 877652" d="M381.188,299.408l-5.664,5.978h6.293Z" transform="translate(-265.868 -221.768)" fill="#fff"/>
      <path id="Trazado_877653" data-name="Trazado 877653" d="M375.28,305.145l5.664-5.977a.116.116,0,0,1,.133-.022.071.071,0,0,1,.035.022.132.132,0,0,1,.05.092l.628,5.977a.109.109,0,0,1-.111.124h-6.292a.135.135,0,0,1-.1-.044.089.089,0,0,1-.026-.037.121.121,0,0,1,.015-.135m6.252-.033-.585-5.564-5.276,5.564Z" transform="translate(-265.719 -221.618)" fill="#3b1e1c"/>
      <path id="Trazado_877654" data-name="Trazado 877654" d="M411.612,351.171h54.477l-.026-.247H411.586Z" transform="translate(-366.452 -249.98)" fill="#3b1e1c"/>
      <path id="Trazado_877655" data-name="Trazado 877655" d="M338.331,237.12H427.81l2.29,21.787H340.621Z" transform="translate(-297.326 -187.655)" fill="#82b59b"/>
      <path id="Trazado_877656" data-name="Trazado 877656" d="M338.3,264.692l19.528-7.221,18.432,6.037,31.226-11.314,19.617,6.083.949,9.026H338.572Z" transform="translate(-295.263 -195.911)" fill="#e8bb3b"/>
      <path id="Trazado_877657" data-name="Trazado 877657" d="M487.007,241.439h19.944a1.573,1.573,0,0,1,1.528,1.383,1.221,1.221,0,0,1-1.237,1.382H487.3a1.573,1.573,0,0,1-1.528-1.382,1.222,1.222,0,0,1,1.237-1.383" transform="translate(-442.404 -190.021)" fill="#fff"/>
      <path id="Trazado_877658" data-name="Trazado 877658" d="M489.556,245.155a.252.252,0,0,1,.247.223.2.2,0,0,1-.2.22.251.251,0,0,1-.242-.22.2.2,0,0,1,.2-.223" transform="translate(-425.347 -192.056)" fill="#e6e6e6"/>
      <path id="Trazado_877659" data-name="Trazado 877659" d="M494.2,245.155a.252.252,0,0,1,.243.223.2.2,0,0,1-.2.22.251.251,0,0,1-.246-.22.2.2,0,0,1,.2-.223" transform="translate(-432.085 -192.056)" fill="#e6e6e6"/>
      <path id="Trazado_877660" data-name="Trazado 877660" d="M498.837,245.155a.252.252,0,0,1,.243.223.2.2,0,0,1-.2.22.251.251,0,0,1-.246-.22.2.2,0,0,1,.2-.223" transform="translate(-438.822 -192.056)" fill="#e6e6e6"/>
      <path id="Trazado_877661" data-name="Trazado 877661" d="M530.9,242.9a.585.585,0,0,1,.569.512.455.455,0,0,1-.461.516.544.544,0,0,1-.31-.1.575.575,0,0,1-.16-.161.541.541,0,0,1-.1-.256.454.454,0,0,1,.458-.512m.085.812a.266.266,0,0,0,.268-.3.342.342,0,0,0-.331-.3.262.262,0,0,0-.265.3.339.339,0,0,0,.328.3" transform="translate(-485.605 -190.821)" fill="#e6e6e6"/>
      <path id="Trazado_877662" data-name="Trazado 877662" d="M532.573,244.593l-.409.457L532,244.9l.408-.457Z" transform="translate(-487.403 -191.664)" fill="#e6e6e6"/>
      <path id="Trazado_877663" data-name="Trazado 877663" d="M457.183,251.727a3.8,3.8,0,0,0,3.693,3.342,2.952,2.952,0,0,0,2.99-3.342,3.8,3.8,0,0,0-3.693-3.341,2.952,2.952,0,0,0-2.99,3.341" transform="translate(-384.866 -193.825)" fill="#fff"/>
      <path id="Trazado_877664" data-name="Trazado 877664" d="M431.244,270.941l.82,0-.084-.82-.82,0Z" transform="translate(-341.282 -205.729)" fill="#fff"/>
      <path id="Trazado_877665" data-name="Trazado 877665" d="M361.271,270.941l.82,0-.084-.82-.82,0Z" transform="translate(-239.656 -205.729)" fill="#fff"/>
      <path id="Trazado_877666" data-name="Trazado 877666" d="M433.711,246.9l.82,0-.084-.82-.82,0Z" transform="translate(-344.865 -192.563)" fill="#fff"/>
      <path id="Trazado_877667" data-name="Trazado 877667" d="M398.755,246.9l.82,0-.084-.82-.82,0Z" transform="translate(-294.096 -192.563)" fill="#fff"/>
      <path id="Trazado_877668" data-name="Trazado 877668" d="M396.228,270.941l.82,0-.084-.82-.82,0Z" transform="translate(-290.426 -205.729)" fill="#fff"/>
      <path id="Trazado_877669" data-name="Trazado 877669" d="M362.525,258.719l.82,0-.084-.82h-.82Z" transform="translate(-241.477 -199.036)" fill="#fff"/>
      <path id="Trazado_877670" data-name="Trazado 877670" d="M432.517,258.549l.82,0-.084-.82h-.82Z" transform="translate(-343.13 -198.943)" fill="#fff"/>
      <path id="Trazado_877671" data-name="Trazado 877671" d="M363.738,246.9l.82,0-.084-.82-.82,0Z" transform="translate(-243.239 -192.563)" fill="#fff"/>
      <path id="Trazado_877672" data-name="Trazado 877672" d="M381.963,252.25h.168l1.824,0,.057.578.029.278-1.8,0,.471,4.584-1.01,0-.471-4.585-1.613,0h-.19l-.09-.856Z" transform="translate(-269.817 -195.937)" fill="#fff"/>
      <path id="Trazado_877673" data-name="Trazado 877673" d="M388.738,257.122a2.189,2.189,0,0,1,.144-1.1,1.769,1.769,0,0,1,1.733-1.042,2.372,2.372,0,0,1,2.362,2.128,1.865,1.865,0,0,1-2.073,2.121,2.31,2.31,0,0,1-1.739-.68l.457-.6a1.649,1.649,0,0,0,1.173.453,1.1,1.1,0,0,0,1.241-.99l-3.254-.008c-.018-.095-.037-.212-.045-.289m3.242-.347a1.3,1.3,0,0,0-1.283-1.012.992.992,0,0,0-1.072,1.005Z" transform="translate(-283.012 -197.438)" fill="#fff"/>
      <path id="Trazado_877674" data-name="Trazado 877674" d="M399.889,257.209l.086-.128-1.76-2.032,1.049,0,1.156,1.364.877-1.36,1.082,0-1.075,1.634-.265.406,1.834,2.109-1.072,0-1.219-1.441-.92,1.437-1.093,0Z" transform="translate(-297.189 -197.474)" fill="#fff"/>
      <path id="Trazado_877675" data-name="Trazado 877675" d="M409.009,257.731l.166-.574a.971.971,0,0,0,.559.176c.373,0,.555-.219.513-.621l-.2-1.974-1.112,0-.078-.775,1.111,0-.1-.95.969,0,.1.947.688,0,.078.775h-.684l.206,2a1.6,1.6,0,0,1,.009.186c.014.8-.451,1.21-1.3,1.21a1.655,1.655,0,0,1-.962-.285Z" transform="translate(-310.828 -196.358)" fill="#fff"/>
      <path id="Trazado_877676" data-name="Trazado 877676" d="M431.171,270.619h.469a.138.138,0,0,0,.14-.157.178.178,0,0,0-.172-.156h-.157l-.016-.156a.178.178,0,0,0-.172-.157.138.138,0,0,0-.14.157Z" transform="translate(-340.981 -205.659)" fill="#fff"/>
      <path id="Trazado_877677" data-name="Trazado 877677" d="M393.3,270.687h.622a.18.18,0,0,1,.174.157.139.139,0,0,1-.141.153h-.621a.176.176,0,0,1-.173-.153.138.138,0,0,1,.141-.157m-1.865,0h.622a.177.177,0,0,1,.174.157.137.137,0,0,1-.141.153h-.622a.175.175,0,0,1-.17-.153.137.137,0,0,1,.137-.157m-1.861,0h.621a.176.176,0,0,1,.17.157.136.136,0,0,1-.137.153h-.622a.177.177,0,0,1-.173-.153.138.138,0,0,1,.141-.157m-1.864,0h.621a.181.181,0,0,1,.174.157.139.139,0,0,1-.142.153h-.622a.177.177,0,0,1-.173-.153.138.138,0,0,1,.141-.157m-1.865,0h.622a.177.177,0,0,1,.173.157.136.136,0,0,1-.141.153h-.622a.175.175,0,0,1-.17-.153.137.137,0,0,1,.137-.157m-1.861,0h.622a.177.177,0,0,1,.17.157.136.136,0,0,1-.137.153h-.622a.176.176,0,0,1-.173-.153.138.138,0,0,1,.141-.157m-1.865,0h.622a.18.18,0,0,1,.174.157.139.139,0,0,1-.141.153h-.622a.176.176,0,0,1-.173-.153.138.138,0,0,1,.141-.157m-1.865,0h.622a.177.177,0,0,1,.174.157.137.137,0,0,1-.141.153h-.622a.176.176,0,0,1-.17-.153.137.137,0,0,1,.137-.157m-1.86,0h.622a.176.176,0,0,1,.17.157.136.136,0,0,1-.137.153h-.622a.177.177,0,0,1-.174-.153.138.138,0,0,1,.141-.157m-1.865,0h.622a.181.181,0,0,1,.174.157.139.139,0,0,1-.141.153h-.622a.176.176,0,0,1-.173-.153.138.138,0,0,1,.141-.157m-1.865,0h.622a.177.177,0,0,1,.174.157.137.137,0,0,1-.141.153H374.7a.176.176,0,0,1-.17-.153.137.137,0,0,1,.137-.157m-1.861,0h.622a.176.176,0,0,1,.17.157.136.136,0,0,1-.138.153h-.622a.177.177,0,0,1-.173-.153.138.138,0,0,1,.141-.157m-1.865,0h.622a.178.178,0,0,1,.174.157.137.137,0,0,1-.141.153h-.622a.177.177,0,0,1-.174-.153.138.138,0,0,1,.141-.157m-1.864,0h.621a.178.178,0,0,1,.174.157.137.137,0,0,1-.141.153h-.622a.175.175,0,0,1-.17-.153.137.137,0,0,1,.137-.157m-1.861,0h.622a.176.176,0,0,1,.17.157.136.136,0,0,1-.138.153h-.622a.176.176,0,0,1-.173-.153.138.138,0,0,1,.141-.157m-1.865,0h.622a.177.177,0,0,1,.174.157.137.137,0,0,1-.141.153h-.622a.176.176,0,0,1-.173-.153.137.137,0,0,1,.14-.157" transform="translate(-273.484 -206.038)" fill="#fff"/>
      <path id="Trazado_877678" data-name="Trazado 877678" d="M361.918,270.619h.469l-.049-.469a.177.177,0,0,0-.172-.157.138.138,0,0,0-.14.157l.016.156h-.156a.138.138,0,0,0-.14.156.178.178,0,0,0,.173.157" transform="translate(-240.204 -205.659)" fill="#fff"/>
      <path id="Trazado_877679" data-name="Trazado 877679" d="M362.271,250a.18.18,0,0,1,.174.157l.063.6a.138.138,0,0,1-.141.157.177.177,0,0,1-.174-.157l-.063-.6a.14.14,0,0,1,.141-.157m.19,1.809a.178.178,0,0,1,.174.157l.063.6a.14.14,0,0,1-.141.157.181.181,0,0,1-.174-.157l-.063-.6a.138.138,0,0,1,.141-.157m.19,1.81a.177.177,0,0,1,.174.157l.063.6s0,.011,0,.014a.134.134,0,0,1-.139.139.173.173,0,0,1-.168-.139.021.021,0,0,1-.005-.014l-.063-.6a.138.138,0,0,1,.141-.157m.19,1.809a.177.177,0,0,1,.173.157l.063.6a.138.138,0,0,1-.141.157.177.177,0,0,1-.174-.157l-.063-.6a.138.138,0,0,1,.141-.157m.19,1.81a.177.177,0,0,1,.173.154l.063.6a.138.138,0,0,1-.141.157.177.177,0,0,1-.174-.157l-.063-.6a.137.137,0,0,1,.141-.154" transform="translate(-241.262 -194.708)" fill="#fff"/>
      <path id="Trazado_877680" data-name="Trazado 877680" d="M364.752,247.269a.138.138,0,0,0,.14-.156l-.049-.469h-.469a.138.138,0,0,0-.14.156.178.178,0,0,0,.173.157h.156l.017.156a.177.177,0,0,0,.172.156" transform="translate(-243.836 -192.871)" fill="#fff"/>
      <path id="Trazado_877681" data-name="Trazado 877681" d="M395.83,246.643h.622a.18.18,0,0,1,.173.157.14.14,0,0,1-.141.157h-.622a.177.177,0,0,1-.174-.157.138.138,0,0,1,.141-.157m-1.865,0h.622a.178.178,0,0,1,.174.157.138.138,0,0,1-.141.157H394a.176.176,0,0,1-.17-.157.137.137,0,0,1,.137-.157m-1.861,0h.618a.177.177,0,0,1,.174.157.138.138,0,0,1-.141.157h-.618a.177.177,0,0,1-.174-.157.138.138,0,0,1,.141-.157m-1.865,0h.622a.18.18,0,0,1,.174.157.14.14,0,0,1-.141.157h-.622a.177.177,0,0,1-.174-.157.138.138,0,0,1,.141-.157m-1.865,0H389a.177.177,0,0,1,.174.157.138.138,0,0,1-.141.157h-.622a.177.177,0,0,1-.17-.157.137.137,0,0,1,.137-.157m-1.861,0h.618a.177.177,0,0,1,.173.157.137.137,0,0,1-.14.157h-.618a.177.177,0,0,1-.174-.157.138.138,0,0,1,.141-.157m-1.865,0h.621a.18.18,0,0,1,.174.157.14.14,0,0,1-.141.157h-.622a.177.177,0,0,1-.174-.157.138.138,0,0,1,.141-.157m-1.865,0h.622a.177.177,0,0,1,.174.157.138.138,0,0,1-.141.157h-.621a.176.176,0,0,1-.17-.157.137.137,0,0,1,.137-.157m-1.861,0h.622a.176.176,0,0,1,.17.157.137.137,0,0,1-.137.157h-.621a.177.177,0,0,1-.174-.157.138.138,0,0,1,.141-.157m-1.865,0h.622a.181.181,0,0,1,.174.157.14.14,0,0,1-.141.157h-.622a.177.177,0,0,1-.174-.157.138.138,0,0,1,.14-.157m-1.864,0h.621a.176.176,0,0,1,.173.157.137.137,0,0,1-.14.157h-.622a.176.176,0,0,1-.17-.157.137.137,0,0,1,.137-.157m-1.861,0h.622a.177.177,0,0,1,.17.157.137.137,0,0,1-.137.157h-.621a.177.177,0,0,1-.174-.157.138.138,0,0,1,.141-.157m-1.865,0h.622a.18.18,0,0,1,.174.157.139.139,0,0,1-.141.157H373.5a.177.177,0,0,1-.174-.157.138.138,0,0,1,.141-.157m-1.865,0h.621a.178.178,0,0,1,.174.157.138.138,0,0,1-.141.157h-.622a.176.176,0,0,1-.17-.157.137.137,0,0,1,.137-.157m-1.861,0h.622a.176.176,0,0,1,.17.157.137.137,0,0,1-.137.157h-.621a.177.177,0,0,1-.174-.157.138.138,0,0,1,.14-.157m-1.864,0h.622a.18.18,0,0,1,.174.157.14.14,0,0,1-.141.157h-.622a.177.177,0,0,1-.174-.157.138.138,0,0,1,.141-.157" transform="translate(-277.155 -192.871)" fill="#fff"/>
      <path id="Trazado_877682" data-name="Trazado 877682" d="M433.87,247.269a.138.138,0,0,0,.14-.156l-.017-.156h.157a.138.138,0,0,0,.14-.157.178.178,0,0,0-.173-.156h-.469l.049.469a.178.178,0,0,0,.173.156" transform="translate(-344.634 -192.871)" fill="#fff"/>
      <path id="Trazado_877683" data-name="Trazado 877683" d="M432.31,250a.179.179,0,0,1,.17.157l.063.6a.137.137,0,0,1-.137.157.177.177,0,0,1-.174-.157l-.063-.6a.14.14,0,0,1,.141-.157m.19,1.809a.177.177,0,0,1,.171.157l.063.6a.139.139,0,0,1-.137.157.18.18,0,0,1-.174-.157l-.063-.6a.137.137,0,0,1,.14-.157m.19,1.81a.176.176,0,0,1,.17.157l.063.6a.137.137,0,0,1-.138.154.177.177,0,0,1-.173-.154l-.063-.6a.138.138,0,0,1,.141-.157m.19,1.809a.176.176,0,0,1,.17.157l.063.6a.138.138,0,0,1-.137.157.177.177,0,0,1-.174-.157l-.063-.6a.138.138,0,0,1,.141-.157m.19,1.81a.176.176,0,0,1,.17.154l.063.6a.137.137,0,0,1-.137.157.177.177,0,0,1-.174-.157l-.063-.6a.137.137,0,0,1,.141-.154" transform="translate(-342.978 -194.708)" fill="#fff"/>
      <path id="Trazado_877684" data-name="Trazado 877684" d="M389.038,273.251l-.226,2.44-.468-.681-.248.448-.454-.274.248-.448-.793-.114Z" transform="translate(-278.325 -207.443)" fill="#fff"/>
      <path id="Trazado_877685" data-name="Trazado 877685" d="M410.22,412.814s1.781-9.659,10.06-9.659c9.193,0,13.236,5.423,15.45,9.562Z" transform="translate(-335.476 -278.585)" fill="#3b1e1c"/>
      <path id="Trazado_877686" data-name="Trazado 877686" d="M214.7,501.285c6.782,7.394,11.809,13.541,21.178,35.04,2.656,6.094,10.108,12.354,10.108,12.354-4.4-2.214-30.785,37.666-12.226,37.96,0,0-13.22,2.759-29.007-15.53s-23.553-61.351-22.012-70.979,20.12-11.751,31.959,1.156" transform="translate(-42.747 -327.38)" fill="#778aeb"/>
      <path id="Trazado_877687" data-name="Trazado 877687" d="M209.769,500.129c1.54-9.625,20.12-11.752,31.959,1.156a81.516,81.516,0,0,1,13.614,19.128c-.909.06-2.062.154-2.593.169a39.236,39.236,0,0,0-5.6.609,19.135,19.135,0,0,0-13.948,9.763c-6.252,11.378.3,25.267,7.716,34.207a66.014,66.014,0,0,0,13.614,12.023c-.962,5.367.435,9.361,6.261,9.454,0,0-13.22,2.759-29.007-15.53s-23.552-61.352-22.012-70.979" transform="translate(-69.774 -327.38)" fill="#3b1e1c"/>
      <path id="Trazado_877688" data-name="Trazado 877688" d="M331.392,501.285c6.783,7.394,11.809,13.541,21.178,35.04,2.655,6.094,10.107,12.354,10.107,12.354-4.4-2.214-30.785,37.666-12.225,37.96,0,0-13.22,2.759-29.008-15.53s-23.552-61.351-22.012-70.979,20.121-11.751,31.959,1.156" transform="translate(-212.223 -327.38)" fill="#778aeb"/>
      <path id="Trazado_877689" data-name="Trazado 877689" d="M273.85,493.316c-8.631,2.9-24.343,1.388-40.633,1.388s-48.039,2.114-57.478-2.129c-6.726-3.023-22.122-13.235-11.385-27.86s100.734-17.492,110.175-17.863,22.46,38.689-.679,46.464" transform="translate(-73.672 -302.514)" fill="#778aeb"/>
      <path id="Trazado_877690" data-name="Trazado 877690" d="M165.693,226.521c.007-.011.016-.023.022-.033.825-1.376-15.577,7.518-14.283,7.248l1.078,8.012s10.374,4.749,16.352-1.779Z" transform="translate(48.486 -181.753)" fill="#df8b72"/>
      <path id="Trazado_877691" data-name="Trazado 877691" d="M139.884,257.99c-13.274,4.668-21.752,15.113-29.048,45.306s-16.688,33.242-19.156,41.634c0,0,30.506,16.422,45.853,44.457,0,0,51.961,4.119,48.752-38.088s4.729-50.467,2.838-66.22-15.236-29.437-24.311-30.3c-7.482-.71-14.681-.4-24.929,3.209" transform="translate(54.925 -197.16)" fill="#82b59b"/>
      <path id="Trazado_877692" data-name="Trazado 877692" d="M300.769,321.984s-14.516,16.451-18.949,21.871c-12.046,4.779-32.4,11.172-34.819,11.84-2.684.74-4.166.555-8.238-3.332s-5-2.776-10-1.3-6.479-1.388-8.793,4.073-6.381,6.516-6.294,7.683c.145,1.948,5.692-.371,5.692-.371s0,3.1,2.036,3.194,1.11-2.453,2.036-4.4,5.6-3.98,6.711.046,5.923,4.674,5.923,4.674h55.582a5.567,5.567,0,0,0,2.04-.039c8.675-1.83,24.168-12.332,33.324-24.89s-12.479-32.1-26.256-19.055" transform="translate(-140.058 -231.771)" fill="#df8b72"/>
      <path id="Trazado_877693" data-name="Trazado 877693" d="M218.195,269.842c4.223,2.77,8.159,7.574,4.462,19.284s-18.133,30.217-31.852,42.114c0,0-24.612-12.248-22.657-29.518,0,0,21.079-23.517,29.165-29.736s16.223-5.2,20.881-2.145" transform="translate(-14.324 -204.251)" fill="#82b59b"/>
      <path id="Trazado_877694" data-name="Trazado 877694" d="M199.931,355.36a15.128,15.128,0,0,1-3.235-.311l.19-.758a16.472,16.472,0,0,0,17.334-7.866l.665.41a17.036,17.036,0,0,1-14.954,8.525" transform="translate(-18.043 -247.517)" fill="#3b1e1c"/>
      <path id="Trazado_877695" data-name="Trazado 877695" d="M191.5,363.89l-.235-.11A53.843,53.843,0,0,1,175.239,351.4l.6-.5a52.911,52.911,0,0,0,15.529,12.065c2.169-1.987,21.694-20.166,29.641-37.165l.707.332c-8.445,18.064-29.806,37.4-30.021,37.592Z" transform="translate(-15.168 -236.218)" fill="#3b1e1c"/>
      <path id="Trazado_877696" data-name="Trazado 877696" d="M159.985,238.781s8.682-1.543,12.919-12.531c0,0-.111-1.526-.153-1.5-11.157,6.536-14.436,4.706-12.766,14.026" transform="translate(40.729 -180.883)" fill="#3b1e1c"/>
      <path id="Trazado_877697" data-name="Trazado 877697" d="M166.857,209.876c5.023.171,14.466-6.294,16.685-10.8.791-1.607.684-5.966.111-8.093-1.809-6.668-3.232-12.706-8.269-14.721-2.123-.844-7.575-.413-9.573-.085-6.588,1.1-8.094,6.3-8.408,12.964-.354,7.48.6,20.438,9.454,20.74" transform="translate(30.534 -154.055)" fill="#df8b72"/>
      <path id="Trazado_877698" data-name="Trazado 877698" d="M206.61,212.865c-.471-.149-2.838-.949-3.159-2.076a1.006,1.006,0,0,1,.24-.969,8.193,8.193,0,0,0,1.579-5.965,3.484,3.484,0,0,0-3.713-1.017l-.213-.731a4.3,4.3,0,0,1,4.6,1.365l.055.074.015.091a8.911,8.911,0,0,1-1.741,6.679c-.106.123-.1.2-.085.265.154.539,1.676,1.248,2.657,1.559Z" transform="translate(-12.101 -168.373)" fill="#3b1e1c"/>
      <path id="Trazado_877699" data-name="Trazado 877699" d="M194.867,230.478a13.417,13.417,0,0,1-2.489-.493l.233-.724a12.045,12.045,0,0,0,6.95-.018l.273.711a10.857,10.857,0,0,1-4.966.523" transform="translate(-1.039 -183.342)" fill="#3b1e1c"/>
      <path id="Trazado_877700" data-name="Trazado 877700" d="M188.886,209.393a1.246,1.246,0,1,1-2.176-.669,8.348,8.348,0,0,0,2.176.669" transform="translate(12.599 -172.104)" fill="#3b1e1c"/>
      <path id="Trazado_877701" data-name="Trazado 877701" d="M208.85,208.573a1.191,1.191,0,0,1,.012.193,1.247,1.247,0,0,1-2.493-.1,1.233,1.233,0,0,1,.306-.76,8.367,8.367,0,0,0,2.175.669" transform="translate(-16.396 -171.655)" fill="#3b1e1c"/>
      <path id="Trazado_877702" data-name="Trazado 877702" d="M187.765,204.01c-3.783-2.155-4.954-.569-4.965-.553l-.634-.422c.061-.092,1.524-2.221,5.976.313Z" transform="translate(15.272 -168.483)" fill="#3b1e1c"/>
      <path id="Trazado_877703" data-name="Trazado 877703" d="M173.354,173.55l1.037,5.5a6.187,6.187,0,0,0,1.8-.021c.23-5.581,4.843-4.352,4.843-4.352,4.474-6.334-.957-17.318-5.864-17.11,0,0-3.652-6.727-14.091-4.2s-9.676,8.94-9.676,8.94-2.93,1.081-2.725,6.044,3.355,10.308,3.355,10.308l.165-4.348s10.067-.935,15.6-7.029c1.12,5.553,5.558,6.269,5.558,6.269" transform="translate(35.87 -141.477)" fill="#3b1e1c"/>
      <path id="Trazado_877704" data-name="Trazado 877704" d="M186.191,209.431a1.33,1.33,0,1,0,1.151-1.488,1.331,1.331,0,0,0-1.151,1.488" transform="translate(12.757 -171.67)" fill="#3b1e1c"/>
      <path id="Trazado_877705" data-name="Trazado 877705" d="M206.207,208.2a1.33,1.33,0,1,0,1.151-1.488,1.331,1.331,0,0,0-1.151,1.488" transform="translate(-16.313 -170.995)" fill="#3b1e1c"/>
      <path id="Trazado_877706" data-name="Trazado 877706" d="M135.3,199.161l4.219,1.072,13.738,3.635.518.132.647.165.013,0,.081.021.2-.806.068-.267,0-.02-.094-.024h-.005l-1.009-.256-.423-.107-13.435-3.558-4.25-1.08h0Z" transform="translate(69.819 -166.269)" fill="#e8bb3b"/>
      <path id="Trazado_877707" data-name="Trazado 877707" d="M153.979,201.937l.243-.957-19.217-5.027-.243.957Z" transform="translate(70.634 -165.11)" fill="#dd9425"/>
      <path id="Trazado_877708" data-name="Trazado 877708" d="M153.436,199.869l.261-1.025-19.217-5.027-.26,1.025Z" transform="translate(71.407 -163.94)" fill="#e8bb3b"/>
      <path id="Trazado_877709" data-name="Trazado 877709" d="M130.5,208.683l.628-2.469a.267.267,0,0,0-.193-.324l-1.269-.323a.267.267,0,0,0-.324.193l-.627,2.47a.266.266,0,0,0,.192.323l1.269.323a.267.267,0,0,0,.323-.193" transform="translate(96.463 -170.371)" fill="#c24914"/>
      <path id="Trazado_877710" data-name="Trazado 877710" d="M131.736,207.967l.95.242a.161.161,0,0,0,.2-.116l.013-.05.759-2.986.013-.05a.161.161,0,0,0-.116-.2l-.95-.242a.161.161,0,0,0-.2.117l0,.02-.246.966-.015.058-.228.9h0l-.278,1.091-.013.05a.163.163,0,0,0-.005.036.16.16,0,0,0,.121.16" transform="translate(92.609 -169.826)" fill="#f3dacb"/>
      <path id="Trazado_877711" data-name="Trazado 877711" d="M178.767,196.833l.766-3.016-1.476.416-1.231.347a.173.173,0,0,0-.074.29l.916.892Z" transform="translate(26.352 -163.94)" fill="#f3dacb"/>
      <path id="Trazado_877712" data-name="Trazado 877712" d="M180.933,196.266l.389-1.529-1.231.346a.173.173,0,0,0-.074.29Z" transform="translate(23.088 -164.444)" fill="#3d1d1e"/>
      <path id="Trazado_877713" data-name="Trazado 877713" d="M145.844,204.969a4.7,4.7,0,1,0,4.886-4.5,4.7,4.7,0,0,0-4.886,4.5" transform="translate(64.611 -167.581)" fill="#df8b72"/>
      <path id="Trazado_877714" data-name="Trazado 877714" d="M153.448,210.748a1.259,1.259,0,0,1-.7-.3c-.582-.5-.244-1.163,0-1.647.3-.586.362-.816.154-1.028a3.409,3.409,0,0,0-.423-.339c-.421-.306-.9-.653-.931-1.194a1.29,1.29,0,0,1,.5-1.012,2.582,2.582,0,0,1,2.752-.461l-.312.694a1.823,1.823,0,0,0-1.918.322c-.174.164-.266.31-.26.41.011.184.348.43.619.626a4.2,4.2,0,0,1,.517.42c.628.638.239,1.4-.019,1.908-.247.488-.286.637-.185.724.48.41,1.436-.325,1.445-.333l.478.593a2.574,2.574,0,0,1-1.718.618" transform="translate(62.096 -169.821)" fill="#3b1e1c"/>
      <path id="Trazado_877715" data-name="Trazado 877715" d="M295.835,198.3c-3.365,2.632.7,5.285.7,5.285a2.961,2.961,0,0,0,.1,4.739,6.8,6.8,0,0,0,.032,2.843,3.1,3.1,0,0,0,4.53-1.266,2.114,2.114,0,0,0-1.166-3.174c1.993-.863,2.516-3.083,2.106-3.967-.4-.867-2.365-.819-2.444-.817a3.51,3.51,0,0,0,1.352-2.771c0-1.784-2.164-2.219-2.271-2.241a3.145,3.145,0,0,0,2.646-3.365c.222-1.564-2.51-3.637-5.687-.366s.1,5.1.1,5.1" transform="translate(-149.599 -162.651)" fill="#df8b72"/>
      <path id="Trazado_877716" data-name="Trazado 877716" d="M303.235,214.718a3.8,3.8,0,0,0-1.614.342,3.371,3.371,0,0,0-.715.43,2.617,2.617,0,0,0-.565.607,5.366,5.366,0,0,1,.646-.494,5.193,5.193,0,0,1,.707-.381,7.126,7.126,0,0,1,.753-.288c.258-.081.519-.156.788-.216" transform="translate(-153.277 -175.386)" fill="#3b1e1c"/>
      <path id="Trazado_877717" data-name="Trazado 877717" d="M302.708,225.231a3.8,3.8,0,0,0-1.614.342,3.378,3.378,0,0,0-.715.43,2.653,2.653,0,0,0-.565.607,5.4,5.4,0,0,1,.646-.494,5.189,5.189,0,0,1,.707-.381,7.267,7.267,0,0,1,.754-.288c.258-.081.518-.156.787-.216" transform="translate(-152.512 -181.144)" fill="#3b1e1c"/>
      <path id="Trazado_877718" data-name="Trazado 877718" d="M304.974,203.548a3.793,3.793,0,0,0-1.613.342,3.368,3.368,0,0,0-.715.43,2.614,2.614,0,0,0-.565.607,5.47,5.47,0,0,1,.646-.493,5.167,5.167,0,0,1,.707-.381,7.256,7.256,0,0,1,.753-.288c.258-.081.519-.156.788-.216" transform="translate(-155.804 -169.269)" fill="#3b1e1c"/>
      <path id="Trazado_877719" data-name="Trazado 877719" d="M180.7,617.42h0c1.635,0,2.96-.8,2.96-1.781V549.964h-5.92V615.64c0,.983,1.325,1.781,2.961,1.781" transform="translate(21.754 -358.985)" fill="#f3dacb"/>
      <rect id="Rectángulo_401778" data-name="Rectángulo 401778" width="0.758" height="64.246" transform="translate(200.303 191.734)" fill="#3b1e1c"/>
      <path id="Trazado_877720" data-name="Trazado 877720" d="M218.417,490.694h6.077s16.724-2.643,12.851-34.92a11.089,11.089,0,0,0-7.183-9.1,153.883,153.883,0,0,0-51.783-8.7s-.242.023-.637.1a152.276,152.276,0,0,1,46.343,8.6,11.078,11.078,0,0,1,7.182,9.1c3.873,32.277-12.85,34.92-12.85,34.92" transform="translate(-32.512 -297.654)" fill="#f3dacb"/>
      <path id="Trazado_877721" data-name="Trazado 877721" d="M276.167,454.3c5.111,15.333,10.347,28.293,10.347,28.293s2.489,8.105,12.587,8.105h6.077c-10.1,0-12.594-8.105-12.594-8.105s-5.236-12.961-10.339-28.293c-4.4-13.2,4.239-15.773,6.714-16.226q-2.668-.1-5.44-.1s-12.463,1-7.352,16.322" transform="translate(-143.728 -297.654)" fill="#f3dacb"/>
      <path id="Trazado_877722" data-name="Trazado 877722" d="M245.128,490.519c.712-.111,17.406-3.131,13.486-35.755a11.782,11.782,0,0,0-7.675-9.724,154.78,154.78,0,0,0-52.043-8.749l-.062,0a10.848,10.848,0,0,0-7.636,4.432c-2.062,3.117-2.188,7.454-.375,12.892,5.059,15.177,10.308,28.206,10.338,28.275.026.087,2.779,8.637,13.314,8.637h30.593Zm5.292-44.053a10.269,10.269,0,0,1,6.689,8.479c3.63,30.224-11.209,33.865-12.17,34.067H214.476c-9.387,0-11.767-7.258-11.886-7.627-.052-.13-5.284-13.119-10.328-28.248-1.655-4.966-1.591-8.855.193-11.563a9.434,9.434,0,0,1,6.477-3.766,153.184,153.184,0,0,1,51.488,8.658" transform="translate(-59.136 -296.732)" fill="#3b1e1c"/>
      <path id="Trazado_877723" data-name="Trazado 877723" d="M81.178,427.513H25.4c2.518-.489,15.235-4.754,11.973-40.849-1.944-21.525,11.132-54.533,15.173-63.313h57.793c.161,1.021-.246,2.56-2.236,4.8-4.487,5.047-14.022,44.12-15.33,55.337-1.272,10.9,9.109,36.751-11.6,44.027" transform="translate(163.953 -234.879)" fill="#c34915"/>
      <path id="Trazado_877724" data-name="Trazado 877724" d="M24.85,427.456H80.673l.044-.015c15.624-5.491,13.744-21.736,12.371-33.6-.492-4.24-.915-7.9-.594-10.655,1.367-11.715,10.864-50.239,15.264-55.188,1.743-1.961,2.518-3.65,2.3-5.022l-.036-.23h-58.2l-.073.158c-4.866,10.573-17.082,42.583-15.2,63.453,3.235,35.8-9.223,40.066-11.753,40.557Zm55.729-.545h-54c4.29-1.878,13.32-9.539,10.513-40.6-1.864-20.647,10.181-52.323,15.077-63.016h57.373c.064,1.156-.69,2.652-2.195,4.345-4.448,5-14.025,43.726-15.4,55.487-.328,2.815.1,6.506.594,10.78,1.425,12.318,3.2,27.645-11.967,33.006" transform="translate(164.505 -234.55)" fill="#3b1e1c"/>
      <path id="Trazado_877725" data-name="Trazado 877725" d="M80.4,427.433H24.564v-.759H80.275c15.067-5.338,13.3-20.611,11.878-32.885-.5-4.281-.923-7.979-.593-10.806,1.215-10.418,10.721-50.257,15.423-55.546,1.443-1.623,2.187-3.055,2.172-4.167H84.147v-.759h25.68l.051.32c.222,1.4-.561,3.123-2.327,5.11-4.39,4.937-13.871,43.422-15.236,55.129-.321,2.741.1,6.4.593,10.631,1.376,11.9,3.262,28.19-12.441,33.71Z" transform="translate(164.791 -234.42)" fill="#3b1e1c"/>
      <rect id="Rectángulo_401779" data-name="Rectángulo 401779" width="38.698" height="0.759" transform="translate(227.408 109.622)" fill="#3b1e1c"/>
      <rect id="Rectángulo_401780" data-name="Rectángulo 401780" width="38.698" height="0.759" transform="translate(225.212 116.944)" fill="#3b1e1c"/>
      <rect id="Rectángulo_401781" data-name="Rectángulo 401781" width="38.699" height="0.758" transform="translate(222.282 124.266)" fill="#3b1e1c"/>
    </g>
  </g>
  <rect id="Rectángulo_401798" data-name="Rectángulo 401798" width="383.396" height="1.56" transform="translate(0 203.146)" fill="#3b1e1c"/>
</svg>
