<svg xmlns="http://www.w3.org/2000/svg" xmlns:xlink="http://www.w3.org/1999/xlink" width="400" height="468" viewBox="0 0 400 468">
  <defs>
    <clipPath id="clip-path">
      <rect id="Rect치ngulo_402912" data-name="Rect치ngulo 402912" width="400" height="468" rx="10" transform="translate(180.024 3515.663)" fill="#ffc7b8"/>
    </clipPath>
  </defs>
  <g id="Enmascarar_grupo_1098695" data-name="Enmascarar grupo 1098695" transform="translate(-180.024 -3515.663)" clip-path="url(#clip-path)">
    <g id="Grupo_1101074" data-name="Grupo 1101074" transform="translate(602.422 3888.528) rotate(90)" opacity="0.1">
      <g id="Grupo_1101073" data-name="Grupo 1101073" transform="translate(102.791 44.794) rotate(180)">
        <path id="Trazado_911251" data-name="Trazado 911251" d="M0,0H80.443a22.4,22.4,0,0,1,0,44.793H0Z" transform="translate(0 0)" fill="none" stroke="#1c1d26" stroke-miterlimit="10" stroke-width="2"/>
        <path id="Trazado_911252" data-name="Trazado 911252" d="M0,0H54.053A15.034,15.034,0,0,1,69.07,15.049h0A15.033,15.033,0,0,1,54.053,30.1H0Z" transform="translate(0 7.347)" fill="none" stroke="#1c1d26" stroke-miterlimit="10" stroke-width="2"/>
        <path id="Trazado_911253" data-name="Trazado 911253" d="M0,0H30.743a8.559,8.559,0,0,1,0,17.119H0Z" transform="translate(0 13.837)" fill="none" stroke="#1c1d26" stroke-miterlimit="10" stroke-width="2"/>
      </g>
    </g>
    <g id="Grupo_1101075" data-name="Grupo 1101075" transform="translate(178.028 3513.67)" opacity="0.48">
      <rect id="Rect치ngulo_402911" data-name="Rect치ngulo 402911" width="31.932" height="31.932" transform="translate(0.028 0)" fill="#ff7650"/>
      <path id="Trazado_911254" data-name="Trazado 911254" d="M77.088,41.051H45.16V9.123A31.928,31.928,0,0,1,77.088,41.051Z" transform="translate(-13.233 -9.123)" fill="#ffd69b"/>
      <path id="Trazado_911255" data-name="Trazado 911255" d="M10.877,43.407H42.8V75.335A31.928,31.928,0,0,1,10.877,43.407" transform="translate(-10.877 -11.477)" fill="#fff4e4"/>
      <path id="Trazado_911256" data-name="Trazado 911256" d="M70.181,59.921a8.506,8.506,0,1,1-8.506-8.506,8.506,8.506,0,0,1,8.506,8.506" transform="translate(-13.783 -12.029)" fill="#85a9e3"/>
    </g>
  </g>
</svg>
