<svg xmlns="http://www.w3.org/2000/svg" width="50" height="50" viewBox="0 0 50 50">
  <g id="Grupo_1102222" data-name="Grupo 1102222" transform="translate(-181.051 -750)">
    <g id="Grupo_1102221" data-name="Grupo 1102221" transform="translate(0.176)">
      <rect id="Rectángulo_403269" data-name="Rectángulo 403269" width="50" height="50" transform="translate(180.875 750)" fill="#ffc7b8"/>
    </g>
    <g id="Grupo_1101641" data-name="Grupo 1101641" transform="translate(-2.051 133)">
      <g id="Grupo_1101199" data-name="Grupo 1101199" transform="translate(190.102 624)">
        <path id="Trazado_911258" data-name="Trazado 911258" d="M18,0A18,18,0,1,1,0,18,18,18,0,0,1,18,0Z" transform="translate(0 0)" fill="#3c3c3c"/>
      </g>
      <g id="Grupo_1101642" data-name="Grupo 1101642" transform="translate(197.102 632)">
        <path id="Trazado_911832" data-name="Trazado 911832" d="M57.037,15.62l7.857,7.857V7.676Z" transform="translate(-43.915 -5.91)" fill="#b6b5b6"/>
        <path id="Trazado_911833" data-name="Trazado 911833" d="M.848,13.565l4.933,4.987L.848,23.485ZM0,25.533l6.978-6.977L0,11.5Z" transform="translate(0 -8.855)" fill="#b6b5b6"/>
        <rect id="Rectángulo_403398" data-name="Rectángulo 403398" width="1.618" height="1.618" transform="translate(9.547 0)" fill="#b6b5b6"/>
        <rect id="Rectángulo_403399" data-name="Rectángulo 403399" width="1.618" height="1.618" transform="translate(9.547 2.531)" fill="#b6b5b6"/>
        <rect id="Rectángulo_403400" data-name="Rectángulo 403400" width="1.618" height="1.618" transform="translate(9.547 5.061)" fill="#b6b5b6"/>
        <rect id="Rectángulo_403401" data-name="Rectángulo 403401" width="1.618" height="1.618" transform="translate(9.547 7.591)" fill="#b6b5b6"/>
        <rect id="Rectángulo_403402" data-name="Rectángulo 403402" width="1.618" height="1.618" transform="translate(9.547 10.122)" fill="#b6b5b6"/>
        <rect id="Rectángulo_403403" data-name="Rectángulo 403403" width="1.618" height="1.618" transform="translate(9.547 12.653)" fill="#b6b5b6"/>
        <rect id="Rectángulo_403404" data-name="Rectángulo 403404" width="1.618" height="1.618" transform="translate(9.547 15.183)" fill="#b6b5b6"/>
        <rect id="Rectángulo_403405" data-name="Rectángulo 403405" width="1.618" height="1.618" transform="translate(9.547 17.714)" fill="#b6b5b6"/>
      </g>
    </g>
  </g>
</svg>
