<svg xmlns="http://www.w3.org/2000/svg" xmlns:xlink="http://www.w3.org/1999/xlink" width="372.026" height="183" viewBox="0 0 372.026 183">
  <defs>
    <clipPath id="clip-path">
      <rect id="Rectángulo_403005" data-name="Rectángulo 403005" width="48.61" height="39.65" fill="none"/>
    </clipPath>
  </defs>
  <g id="Grupo_1101754" data-name="Grupo 1101754" transform="translate(-1020 -1130)">
    <g id="Grupo_1101649" data-name="Grupo 1101649">
      <rect id="Rectángulo_403309" data-name="Rectángulo 403309" width="345" height="183" rx="9" transform="translate(1047.026 1130)" fill="#fff"/>
      <g id="Grupo_1101574" data-name="Grupo 1101574" transform="translate(209.974 -81)">
        <circle id="Elipse_11536" data-name="Elipse 11536" cx="35.5" cy="35.5" r="35.5" transform="translate(810.026 1267)" fill="#3c3c3c"/>
        <g id="Grupo_1101209" data-name="Grupo 1101209" transform="translate(821.279 1282.539)">
          <path id="Trazado_911315" data-name="Trazado 911315" d="M7.234,0V7.234H0v5.25H7.234v7.234h5.25V12.485h7.235V7.234H12.484V0Z" transform="translate(0 0)" fill="#b6b5b6"/>
          <g id="Grupo_1101208" data-name="Grupo 1101208" transform="translate(0 0)">
            <g id="Grupo_1101207" data-name="Grupo 1101207" clip-path="url(#clip-path)">
              <path id="Trazado_911316" data-name="Trazado 911316" d="M36.105,27.862,26.746,48.007l1.379,1.379,8.651-8.65a2.635,2.635,0,1,1,2.161,2.16l-8.651,8.651,1.379,1.379L51.81,43.566l4.727-9.645L45.75,23.135Z" transform="translate(-15.348 -13.276)" fill="#b6b5b6"/>
              <path id="Trazado_911317" data-name="Trazado 911317" d="M91.2,15.344l-9.32-9.32a1.037,1.037,0,0,0-1.466,0l-5.664,5.664L85.538,22.474,91.2,16.81a1.037,1.037,0,0,0,0-1.466" transform="translate(-42.895 -3.282)" fill="#b6b5b6"/>
            </g>
          </g>
        </g>
      </g>
    </g>
    <g id="Grupo_1101753" data-name="Grupo 1101753" transform="translate(0 7.283)">
      <g id="Grupo_1101750" data-name="Grupo 1101750" transform="translate(-45.587 345.91)">
        <path id="Trazado_911891" data-name="Trazado 911891" d="M-1552.582-10649.362l155.244-23.667s29.447-.807,20.772-48.748-48.489-21.387-70.285-20.718-1.519-44.65-44.258-57.484-39.549,37.261-39.549,37.261l-42.441,43.979v54.364Z" transform="translate(2751.174 11592.89)" fill="#fdeded" stroke="#048fe5" stroke-width="1"/>
        <g id="Rectángulo_403461" data-name="Rectángulo 403461" transform="translate(1219.13 827.48)" fill="#048fe5" stroke="#048fe5" stroke-width="1">
          <rect width="3.279" height="3.279" stroke="none"/>
          <rect x="0.5" y="0.5" width="2.279" height="2.279" fill="none"/>
        </g>
        <g id="Rectángulo_403466" data-name="Rectángulo 403466" transform="translate(1177.325 871.744)" fill="#048fe5" stroke="#048fe5" stroke-width="1">
          <rect width="3.279" height="3.279" stroke="none"/>
          <rect x="0.5" y="0.5" width="2.279" height="2.279" fill="none"/>
        </g>
        <g id="Rectángulo_403469" data-name="Rectángulo 403469" transform="translate(1198.325 849.744)" fill="#fff" stroke="#048fe5" stroke-width="1">
          <rect width="3.279" height="3.279" stroke="none"/>
          <rect x="0.5" y="0.5" width="2.279" height="2.279" fill="none"/>
        </g>
        <g id="Rectángulo_403467" data-name="Rectángulo 403467" transform="translate(1176.505 926.665)" fill="#048fe5" stroke="#048fe5" stroke-width="1">
          <rect width="3.279" height="3.279" stroke="none"/>
          <rect x="0.5" y="0.5" width="2.279" height="2.279" fill="none"/>
        </g>
        <g id="Rectángulo_403462" data-name="Rectángulo 403462" transform="translate(1259.296 792.232)" fill="#048fe5" stroke="#048fe5" stroke-width="1">
          <rect width="3.279" height="3.279" stroke="none"/>
          <rect x="0.5" y="0.5" width="2.279" height="2.279" fill="none"/>
        </g>
        <g id="Rectángulo_403463" data-name="Rectángulo 403463" transform="translate(1303.56 848.792)" fill="#048fe5" stroke="#048fe5" stroke-width="1">
          <rect width="3.279" height="3.279" stroke="none"/>
          <rect x="0.5" y="0.5" width="2.279" height="2.279" fill="none"/>
        </g>
        <g id="Rectángulo_403464" data-name="Rectángulo 403464" transform="translate(1373.236 870.105)" fill="#048fe5" stroke="#048fe5" stroke-width="1">
          <rect width="3.279" height="3.279" stroke="none"/>
          <rect x="0.5" y="0.5" width="2.279" height="2.279" fill="none"/>
        </g>
        <g id="Rectángulo_403470" data-name="Rectángulo 403470" transform="translate(1196.685 941.888)" fill="#048fe5" stroke="#048fe5" stroke-width="1">
          <rect width="3.279" height="3.279" stroke="none"/>
          <rect x="0.5" y="0.5" width="2.279" height="2.279" fill="none"/>
        </g>
      </g>
      <g id="Grupo_1101751" data-name="Grupo 1101751" transform="translate(1173.953 1193.856) rotate(97)">
        <path id="Trazado_911315-2" data-name="Trazado 911315" d="M3.541,0V3.542H0v2.57H3.541V9.654h2.57V6.112H9.654V3.542H6.112V0Z" transform="translate(14.354 -9.266) rotate(-7)" fill="#323232"/>
        <g id="Grupo_1101208-2" data-name="Grupo 1101208" transform="translate(0 0)">
          <g id="Grupo_1101752" data-name="Grupo 1101752">
            <path id="Trazado_911316-2" data-name="Trazado 911316" d="M31.328,25.449l-4.1,10.238.675.675L31.857,32.2c-.066-.4-.148-1.269.158-1.575A1.29,1.29,0,0,1,33.84,32.45c-.306.306-1.582.081-1.582.081l-3.951,4.162.675.675,10.035-4.23,2.314-4.722L36.05,23.135Z" transform="translate(-21.166 -18.308)" fill="#323232"/>
            <path id="Trazado_911317-2" data-name="Trazado 911317" d="M82.805,10.432,78.242,5.869a.507.507,0,0,0-.718,0L74.752,8.642l5.281,5.281,2.773-2.773a.507.507,0,0,0,0-.718" transform="translate(-59.156 -4.527)" fill="#323232"/>
          </g>
        </g>
      </g>
    </g>
  </g>
</svg>
