<svg xmlns="http://www.w3.org/2000/svg" xmlns:xlink="http://www.w3.org/1999/xlink" width="295" height="286" viewBox="0 0 295 286">
  <defs>
    <clipPath id="clip-path">
      <rect id="Rectángulo_403565" data-name="Rectángulo 403565" width="218.722" height="219.159" transform="translate(0 0)" fill="#ffeacc"/>
    </clipPath>
  </defs>
  <g id="Grupo_1101917" data-name="Grupo 1101917" transform="translate(-313.051 -1384.849)">
    <g id="Trazado_912567" data-name="Trazado 912567" transform="translate(313.051 1384.849)" fill="#fffaf4">
      <path d="M 286 285.5 L 9 285.5 C 4.313076972961426 285.5 0.5 281.6869201660156 0.5 277 L 0.5 9 C 0.5 4.313076972961426 4.313076972961426 0.5 9 0.5 L 286 0.5 C 290.6869201660156 0.5 294.5 4.313076972961426 294.5 9 L 294.5 277 C 294.5 281.6869201660156 290.6869201660156 285.5 286 285.5 Z" stroke="none"/>
      <path d="M 9 1 C 4.588775634765625 1 1 4.588775634765625 1 9 L 1 277 C 1 281.4112243652344 4.588775634765625 285 9 285 L 286 285 C 290.4112243652344 285 294 281.4112243652344 294 277 L 294 9 C 294 4.588775634765625 290.4112243652344 1 286 1 L 9 1 M 9 0 L 286 0 C 290.9705505371094 0 295 4.029449462890625 295 9 L 295 277 C 295 281.9705505371094 290.9705505371094 286 286 286 L 9 286 C 4.029449462890625 286 0 281.9705505371094 0 277 L 0 9 C 0 4.029449462890625 4.029449462890625 0 9 0 Z" stroke="none" fill="#9a9ef7"/>
    </g>
    <g id="Grupo_1101914" data-name="Grupo 1101914" transform="translate(350.262 1422.752)">
      <g id="Grupo_1101914-2" data-name="Grupo 1101914" transform="translate(0 -0.004)" clip-path="url(#clip-path)">
        <path id="Trazado_912563" data-name="Trazado 912563" d="M218.668,53.651A17.486,17.486,0,0,0,210,38.545c-5.255-3.075-12.424-3.311-17.659,0q-26.89,17.005-54.816,32.291Q117.54,81.774,97.067,91.8c7.976-13.111,16.008-26.223,22.633-40.082A199.071,199.071,0,0,0,131.352,22.14,17.5,17.5,0,0,0,109.832.62,312.244,312.244,0,0,0,70.239,12.579,347.3,347.3,0,0,0,28.834,31.2q-10.3,5.5-20.157,11.764A18.374,18.374,0,0,0,.638,53.418a13.252,13.252,0,0,0-.312,6.976A13.02,13.02,0,0,0,2.4,66.9c2.408,3.735,5.994,7.024,10.455,8.04l4.651.625a17.414,17.414,0,0,0,8.83-2.388,312.124,312.124,0,0,1,35.41-19.385q4.168-1.942,8.392-3.759,6.915-2.856,13.96-5.383c-3.273,6.1-6.755,12.094-10.308,18.033-7.245,12.11-14.8,24.041-21.6,36.416-3.831,6.977-7.411,14.1-10.537,21.419l-1.764,4.179a13.251,13.251,0,0,0-.312,6.976,8.707,8.707,0,0,0,1.194,4.415,13.114,13.114,0,0,0,3.617,5.63l3.541,2.735,4.179,1.764a13.252,13.252,0,0,0,6.976.312,13.02,13.02,0,0,0,6.5-2.076q29.284-12.438,57.743-26.706,24.037-12.055,47.4-25.387-7.758,16.548-16.921,32.39c-4.274,7.4-8.811,14.631-13.419,21.825-4.413,6.891-8.812,13.814-12.544,21.1a137.467,137.467,0,0,0-7.011,16.128,72.014,72.014,0,0,0-3.416,13.206,13.253,13.253,0,0,0-.312,6.976,13.02,13.02,0,0,0,2.076,6.5A13.22,13.22,0,0,0,123.7,215.4a13.174,13.174,0,0,0,5.949,3.131l4.651.625a17.414,17.414,0,0,0,8.83-2.388l3.541-2.735a17.478,17.478,0,0,0,4.5-7.719,74.515,74.515,0,0,1,4.349-15.67,177.023,177.023,0,0,1,12-21.557c5-7.929,10.118-15.777,14.869-23.863A455.274,455.274,0,0,0,210,89.388c2.091-5.022,4.192-10.074,5.788-15.28a55.619,55.619,0,0,0,1.877-8,60.116,60.116,0,0,0,1.008-12.46" transform="translate(0 0.004)" fill="#ffeacc"/>
      </g>
    </g>
    <g id="Grupo_1101916" data-name="Grupo 1101916">
      <g id="Elipse_11561" data-name="Elipse 11561" transform="translate(466.176 1606)" fill="none" stroke="#d3d3d3" stroke-width="1">
        <circle cx="18" cy="18" r="18" stroke="none"/>
        <circle cx="18" cy="18" r="17.5" fill="none"/>
      </g>
      <g id="Grupo_1101915" data-name="Grupo 1101915" transform="translate(470.629 1616)">
        <path id="Trazado_912565" data-name="Trazado 912565" d="M65.618.477h0A1.626,1.626,0,0,0,63.37.427L54.877,8.21A5.939,5.939,0,0,1,56.851,9.4a4.754,4.754,0,0,1,1.034,1.819l7.783-8.493A1.626,1.626,0,0,0,65.618.477" transform="translate(-43.592 0)" fill="#323232"/>
        <path id="Trazado_912566" data-name="Trazado 912566" d="M24.041,47.629a2.1,2.1,0,0,1-.413,1.233,16.9,16.9,0,0,1-1.464,1.692.176.176,0,0,0,.1.3,17.741,17.741,0,0,0,3.565.505c.483-.032,2.784.092,4.1-1.227a3.468,3.468,0,0,0-1.118-5.644,3.208,3.208,0,0,0-2.61-.015,3.5,3.5,0,0,0-2.16,3.159" transform="translate(-17.566 -35.11)" fill="#fff" stroke="#000" stroke-width="0.3"/>
      </g>
    </g>
  </g>
</svg>
