<svg xmlns="http://www.w3.org/2000/svg" xmlns:xlink="http://www.w3.org/1999/xlink" width="369.583" height="183" viewBox="0 0 369.583 183">
  <defs>
    <clipPath id="clip-path">
      <rect id="Rectángulo_403018" data-name="Rectángulo 403018" width="49.87" height="38.176" fill="none"/>
    </clipPath>
  </defs>
  <g id="Grupo_1101757" data-name="Grupo 1101757" transform="translate(593.583 10480)">
    <g id="Grupo_1101650" data-name="Grupo 1101650" transform="translate(0 -0.063)">
      <rect id="Rectángulo_403312" data-name="Rectángulo 403312" width="345" height="183" rx="9" transform="translate(-569 -10479.937)" fill="#fff"/>
      <g id="Grupo_1101224" data-name="Grupo 1101224" transform="translate(-1403.609 -11690.937)">
        <circle id="Elipse_11536" data-name="Elipse 11536" cx="35.5" cy="35.5" r="35.5" transform="translate(810.026 1267)" fill="#3c3c3c"/>
        <g id="Grupo_1101229" data-name="Grupo 1101229" transform="translate(820.591 1284.312)">
          <rect id="Rectángulo_403017" data-name="Rectángulo 403017" width="20.23" height="2.758" transform="translate(0 6.235)" fill="#b6b5b6"/>
          <g id="Grupo_1101230" data-name="Grupo 1101230" transform="translate(0 0)">
            <g id="Grupo_1101229-2" data-name="Grupo 1101229" clip-path="url(#clip-path)">
              <path id="Trazado_911330" data-name="Trazado 911330" d="M36.348,22.263l-9.6,20.667,1.415,1.415,8.875-8.874a2.7,2.7,0,1,1,2.217,2.216l-8.875,8.875,1.415,1.415,20.667-9.6,4.849-9.895L46.243,17.414Z" transform="translate(-15.052 -9.8)" fill="#b6b5b6"/>
              <path id="Trazado_911331" data-name="Trazado 911331" d="M91.628,9.873,82.067.311a1.063,1.063,0,0,0-1.5,0L74.752,6.122,85.818,17.187l5.811-5.811a1.063,1.063,0,0,0,0-1.5" transform="translate(-42.07 0)" fill="#b6b5b6"/>
            </g>
          </g>
        </g>
      </g>
    </g>
    <g id="Grupo_1101755" data-name="Grupo 1101755" transform="translate(-1598.026 -11602.717)">
      <g id="Grupo_1101750" data-name="Grupo 1101750" transform="translate(-45.587 345.91)">
        <path id="Trazado_911891" data-name="Trazado 911891" d="M-1552.582-10649.362l155.244-23.667s29.447-.807,20.772-48.748-48.489-21.387-70.285-20.718-1.519-44.65-44.258-57.484-39.549,37.261-39.549,37.261l-42.441,98.343Z" transform="translate(2751.174 11592.89)" fill="#fdeded" stroke="#048fe5" stroke-width="1"/>
        <g id="Rectángulo_403461" data-name="Rectángulo 403461" transform="translate(1219.13 827.48)" fill="#048fe5" stroke="#048fe5" stroke-width="1">
          <rect width="3.279" height="3.279" stroke="none"/>
          <rect x="0.5" y="0.5" width="2.279" height="2.279" fill="none"/>
        </g>
        <g id="Rectángulo_403469" data-name="Rectángulo 403469" transform="translate(1208.325 853.744)" fill="#048fe5" stroke="#048fe5" stroke-width="1">
          <rect width="3.279" height="3.279" stroke="none"/>
          <rect x="0.5" y="0.5" width="2.279" height="2.279" fill="none"/>
        </g>
        <g id="Rectángulo_403467" data-name="Rectángulo 403467" transform="translate(1176.505 926.665)" fill="#048fe5" stroke="#048fe5" stroke-width="1">
          <rect width="3.279" height="3.279" stroke="none"/>
          <rect x="0.5" y="0.5" width="2.279" height="2.279" fill="none"/>
        </g>
        <g id="Rectángulo_403462" data-name="Rectángulo 403462" transform="translate(1259.296 792.232)" fill="#048fe5" stroke="#048fe5" stroke-width="1">
          <rect width="3.279" height="3.279" stroke="none"/>
          <rect x="0.5" y="0.5" width="2.279" height="2.279" fill="none"/>
        </g>
        <g id="Rectángulo_403463" data-name="Rectángulo 403463" transform="translate(1303.56 848.792)" fill="#048fe5" stroke="#048fe5" stroke-width="1">
          <rect width="3.279" height="3.279" stroke="none"/>
          <rect x="0.5" y="0.5" width="2.279" height="2.279" fill="none"/>
        </g>
        <g id="Rectángulo_403464" data-name="Rectángulo 403464" transform="translate(1373.236 870.105)" fill="#048fe5" stroke="#048fe5" stroke-width="1">
          <rect width="3.279" height="3.279" stroke="none"/>
          <rect x="0.5" y="0.5" width="2.279" height="2.279" fill="none"/>
        </g>
        <g id="Rectángulo_403470" data-name="Rectángulo 403470" transform="translate(1196.685 941.888)" fill="#048fe5" stroke="#048fe5" stroke-width="1">
          <rect width="3.279" height="3.279" stroke="none"/>
          <rect x="0.5" y="0.5" width="2.279" height="2.279" fill="none"/>
        </g>
      </g>
      <g id="Grupo_1101751" data-name="Grupo 1101751" transform="translate(1187.953 1207.856) rotate(97)">
        <g id="Grupo_1101756" data-name="Grupo 1101756" transform="translate(26.258 16.926)">
          <g id="Grupo_1101208" data-name="Grupo 1101208" transform="translate(0 0)">
            <g id="Grupo_1101752" data-name="Grupo 1101752">
              <path id="Trazado_911316" data-name="Trazado 911316" d="M31.328,25.449l-4.1,10.238.675.675L31.857,32.2c-.066-.4-.148-1.269.158-1.575A1.29,1.29,0,0,1,33.84,32.45c-.306.306-1.582.081-1.582.081l-3.951,4.162.675.675,10.035-4.23,2.314-4.722L36.05,23.135Z" transform="translate(-21.166 -18.308)" fill="#323232"/>
              <path id="Trazado_911317" data-name="Trazado 911317" d="M82.805,10.432,78.242,5.869a.507.507,0,0,0-.718,0L74.752,8.642l5.281,5.281,2.773-2.773a.507.507,0,0,0,0-.718" transform="translate(-59.156 -4.527)" fill="#323232"/>
            </g>
          </g>
          <path id="Línea_609" data-name="Línea 609" d="M.226,10.047-.993.122.993-.122,2.211,9.8Z" transform="translate(19.286 -9.998)" fill="#323232"/>
        </g>
      </g>
    </g>
  </g>
</svg>
