<svg xmlns="http://www.w3.org/2000/svg" xmlns:xlink="http://www.w3.org/1999/xlink" width="295" height="274" viewBox="0 0 295 274">
  <defs>
    <clipPath id="clip-path">
      <rect id="Rectángulo_403491" data-name="Rectángulo 403491" width="253.511" height="219.547" fill="none"/>
    </clipPath>
  </defs>
  <g id="Grupo_1102225" data-name="Grupo 1102225" transform="translate(-328.051 -1386)">
    <g id="Grupo_1101784" data-name="Grupo 1101784" transform="translate(15)">
      <path id="Trazado_911990" data-name="Trazado 911990" d="M9,0H286a9,9,0,0,1,9,9V265a9,9,0,0,1-9,9H9a9,9,0,0,1-9-9V9A9,9,0,0,1,9,0Z" transform="translate(313.051 1386)" fill="#c1edb0"/>
      <g id="Grupo_1101782" data-name="Grupo 1101782">
        <g id="Grupo_1101781" data-name="Grupo 1101781" transform="translate(333.795 1417)">
          <g id="Grupo_1101778" data-name="Grupo 1101778">
            <g id="Grupo_1101777" data-name="Grupo 1101777" clip-path="url(#clip-path)">
              <path id="Trazado_913178" data-name="Trazado 913178" d="M1.216,0h6V-1.168H2.608v-9.616H1.216ZM11.568-7.92a3.781,3.781,0,0,0-3.84,4.112A3.682,3.682,0,0,0,11.44.176,3.785,3.785,0,0,0,15.3-3.936,3.667,3.667,0,0,0,11.568-7.92Zm-.032,1.056c1.664,0,2.32,1.664,2.32,2.976,0,1.744-1.008,3.008-2.352,3.008-1.376,0-2.352-1.28-2.352-2.976C9.152-5.328,9.872-6.864,11.536-6.864ZM17.072,0h1.392V-4.128a3.963,3.963,0,0,1,.064-.656,1.975,1.975,0,0,1,1.888-1.808,2.115,2.115,0,0,1,.48.048V-7.872a1.523,1.523,0,0,0-.4-.048,2.323,2.323,0,0,0-2.144,1.7h-.064l-.048-1.52H17.008c.048.72.064,1.5.064,2.416ZM28.208-3.616a5.31,5.31,0,0,0,.048-.656c0-1.424-.672-3.648-3.2-3.648-2.256,0-3.632,1.84-3.632,4.176A3.6,3.6,0,0,0,25.232.16a6.272,6.272,0,0,0,2.576-.48l-.24-1.008a5.092,5.092,0,0,1-2.144.4,2.481,2.481,0,0,1-2.656-2.688ZM22.784-4.624a2.333,2.333,0,0,1,2.16-2.288A2,2,0,0,1,26.9-4.624ZM30,0h1.376V-4.672a1.941,1.941,0,0,1,.112-.688,1.924,1.924,0,0,1,1.744-1.408c1.072,0,1.616.9,1.616,2.128V0h1.376V-4.784a2.319,2.319,0,0,1,.112-.7A1.823,1.823,0,0,1,38-6.768c1.136,0,1.68.9,1.68,2.384V0h1.376V-4.56c0-2.688-1.52-3.36-2.544-3.36a2.643,2.643,0,0,0-1.712.544,3.19,3.19,0,0,0-.864,1.008H35.9A2.289,2.289,0,0,0,33.712-7.92,2.669,2.669,0,0,0,31.28-6.5h-.048l-.064-1.248H29.936c.048.64.064,1.3.064,2.1ZM48.144,0V-7.744H46.736V0Zm-.7-10.8a.858.858,0,0,0-.88.88.837.837,0,0,0,.848.864.832.832,0,0,0,.9-.864A.836.836,0,0,0,47.44-10.8ZM50.48,3.168h1.392V-1.04H51.9A2.716,2.716,0,0,0,54.288.176c1.824,0,3.52-1.376,3.52-4.16,0-2.352-1.408-3.936-3.28-3.936a3.044,3.044,0,0,0-2.752,1.5h-.032L51.68-7.744H50.416c.032.736.064,1.536.064,2.528ZM51.872-4.48a2.283,2.283,0,0,1,.1-.576A2.247,2.247,0,0,1,54.1-6.8c1.488,0,2.3,1.328,2.3,2.88,0,1.776-.864,2.992-2.352,2.992a2.173,2.173,0,0,1-2.112-1.648,3.17,3.17,0,0,1-.064-.576ZM59.04-.368A4.416,4.416,0,0,0,61.216.16c1.84,0,2.9-.96,2.9-2.32,0-1.152-.688-1.824-2.032-2.336-1.008-.384-1.472-.672-1.472-1.312,0-.576.464-1.056,1.3-1.056a3.014,3.014,0,0,1,1.584.448L63.84-7.44a3.865,3.865,0,0,0-1.9-.48,2.388,2.388,0,0,0-2.672,2.272c0,.928.656,1.7,2.048,2.192,1.04.384,1.44.752,1.44,1.424,0,.64-.48,1.152-1.5,1.152a3.69,3.69,0,0,1-1.856-.56ZM72.4-7.744H70.992v4.752a2.059,2.059,0,0,1-.128.72,2.036,2.036,0,0,1-1.856,1.28c-1.28,0-1.728-.992-1.728-2.464V-7.744H65.872v4.528c0,2.72,1.456,3.392,2.672,3.392a2.914,2.914,0,0,0,2.56-1.44h.032L71.216,0h1.248c-.048-.608-.064-1.312-.064-2.112ZM74.736,0h1.376V-4.672a1.941,1.941,0,0,1,.112-.688,1.924,1.924,0,0,1,1.744-1.408c1.072,0,1.616.9,1.616,2.128V0H80.96V-4.784a2.319,2.319,0,0,1,.112-.7,1.823,1.823,0,0,1,1.664-1.28c1.136,0,1.68.9,1.68,2.384V0h1.376V-4.56c0-2.688-1.52-3.36-2.544-3.36a2.643,2.643,0,0,0-1.712.544,3.19,3.19,0,0,0-.864,1.008H80.64A2.289,2.289,0,0,0,78.448-7.92,2.669,2.669,0,0,0,76.016-6.5h-.048L75.9-7.744H74.672c.048.64.064,1.3.064,2.1Z" transform="translate(63.919 14.546)"/>
            </g>
          </g>
          <path id="Trazado_913170" data-name="Trazado 913170" d="M6.448-11.36v4.624H6.416A2.589,2.589,0,0,0,4.08-7.92C2.192-7.92.592-6.336.608-3.76.608-1.408,2.048.176,3.92.176a2.864,2.864,0,0,0,2.64-1.52h.032L6.656,0H7.92c-.048-.528-.064-1.312-.064-2v-9.36Zm0,8.112a2.446,2.446,0,0,1-.064.608A2.117,2.117,0,0,1,4.32-.96c-1.52,0-2.288-1.3-2.288-2.864,0-1.712.864-2.992,2.32-2.992A2.071,2.071,0,0,1,6.384-5.184a2.485,2.485,0,0,1,.064.592ZM13.472-7.92a3.781,3.781,0,0,0-3.84,4.112A3.682,3.682,0,0,0,13.344.176,3.785,3.785,0,0,0,17.2-3.936,3.667,3.667,0,0,0,13.472-7.92ZM13.44-6.864c1.664,0,2.32,1.664,2.32,2.976,0,1.744-1.008,3.008-2.352,3.008-1.376,0-2.352-1.28-2.352-2.976C11.056-5.328,11.776-6.864,13.44-6.864ZM18.976,0h1.408V-11.36H18.976Zm7.056-7.92a3.781,3.781,0,0,0-3.84,4.112A3.682,3.682,0,0,0,25.9.176,3.785,3.785,0,0,0,29.76-3.936,3.667,3.667,0,0,0,26.032-7.92ZM26-6.864c1.664,0,2.32,1.664,2.32,2.976,0,1.744-1.008,3.008-2.352,3.008-1.376,0-2.352-1.28-2.352-2.976C23.616-5.328,24.336-6.864,26-6.864ZM31.536,0h1.392V-4.128a3.963,3.963,0,0,1,.064-.656A1.975,1.975,0,0,1,34.88-6.592a2.115,2.115,0,0,1,.48.048V-7.872a1.523,1.523,0,0,0-.4-.048,2.323,2.323,0,0,0-2.144,1.7h-.064L32.7-7.744H31.472c.048.72.064,1.5.064,2.416Zm8.08-.368A4.416,4.416,0,0,0,41.792.16c1.84,0,2.9-.96,2.9-2.32,0-1.152-.688-1.824-2.032-2.336-1.008-.384-1.472-.672-1.472-1.312,0-.576.464-1.056,1.3-1.056a3.014,3.014,0,0,1,1.584.448l.352-1.024a3.865,3.865,0,0,0-1.9-.48A2.388,2.388,0,0,0,39.84-5.648c0,.928.656,1.7,2.048,2.192,1.04.384,1.44.752,1.44,1.424,0,.64-.48,1.152-1.5,1.152a3.69,3.69,0,0,1-1.856-.56ZM47.9,0V-7.744H46.5V0Zm-.7-10.8a.858.858,0,0,0-.88.88.837.837,0,0,0,.848.864.832.832,0,0,0,.9-.864A.836.836,0,0,0,47.2-10.8Zm3.36,1.2v1.856h-1.2v1.072h1.2v4.224A2.869,2.869,0,0,0,51.1-.432a1.951,1.951,0,0,0,1.52.592,3.447,3.447,0,0,0,1.248-.192l-.064-1.056a3.132,3.132,0,0,1-.816.1c-.784,0-1.056-.544-1.056-1.5V-6.672h2.016V-7.744H51.936V-9.968ZM64.5,0a10.9,10.9,0,0,1-.128-1.856v-2.9c0-1.552-.576-3.168-2.944-3.168a4.806,4.806,0,0,0-2.544.688l.32.928a3.858,3.858,0,0,1,2.016-.576,1.6,1.6,0,0,1,1.76,1.792v.16c-2.992-.016-4.656,1.008-4.656,2.88A2.206,2.206,0,0,0,60.688.176,2.884,2.884,0,0,0,63.056-.976H63.1L63.216,0ZM63.008-2.608a1.47,1.47,0,0,1-.08.448,1.927,1.927,0,0,1-1.872,1.3,1.246,1.246,0,0,1-1.328-1.344c0-1.5,1.744-1.776,3.28-1.744ZM66.64,0h1.376V-4.672a1.941,1.941,0,0,1,.112-.688,1.924,1.924,0,0,1,1.744-1.408c1.072,0,1.616.9,1.616,2.128V0h1.376V-4.784a2.319,2.319,0,0,1,.112-.7,1.823,1.823,0,0,1,1.664-1.28c1.136,0,1.68.9,1.68,2.384V0H77.7V-4.56c0-2.688-1.52-3.36-2.544-3.36a2.643,2.643,0,0,0-1.712.544,3.19,3.19,0,0,0-.864,1.008h-.032A2.289,2.289,0,0,0,70.352-7.92,2.669,2.669,0,0,0,67.92-6.5h-.048l-.064-1.248H66.576c.048.64.064,1.3.064,2.1ZM86.208-3.616a5.311,5.311,0,0,0,.048-.656c0-1.424-.672-3.648-3.2-3.648-2.256,0-3.632,1.84-3.632,4.176A3.6,3.6,0,0,0,83.232.16a6.272,6.272,0,0,0,2.576-.48l-.24-1.008a5.092,5.092,0,0,1-2.144.4,2.481,2.481,0,0,1-2.656-2.688ZM80.784-4.624a2.333,2.333,0,0,1,2.16-2.288A2,2,0,0,1,84.9-4.624ZM88.32-9.6v1.856h-1.2v1.072h1.2v4.224a2.869,2.869,0,0,0,.544,2.016,1.951,1.951,0,0,0,1.52.592,3.447,3.447,0,0,0,1.248-.192l-.064-1.056a3.132,3.132,0,0,1-.816.1c-.784,0-1.056-.544-1.056-1.5V-6.672h2.016V-7.744H89.7V-9.968ZM93.3,1.872a19.506,19.506,0,0,0,1.52-3.888l-1.568.16a23.021,23.021,0,0,1-.96,3.824Z" transform="translate(52.104 35.011)"/>
          <path id="Trazado_913169" data-name="Trazado 913169" d="M6.448-1.344A4,4,0,0,1,4.72-.96a2.655,2.655,0,0,1-2.688-2.9A2.68,2.68,0,0,1,4.768-6.784,3.265,3.265,0,0,1,6.4-6.416L6.72-7.5a4.707,4.707,0,0,0-1.952-.4A3.935,3.935,0,0,0,.608-3.792,3.679,3.679,0,0,0,4.464.16,5.186,5.186,0,0,0,6.688-.288ZM11.424-7.92a3.781,3.781,0,0,0-3.84,4.112A3.682,3.682,0,0,0,11.3.176a3.785,3.785,0,0,0,3.856-4.112A3.667,3.667,0,0,0,11.424-7.92Zm-.032,1.056c1.664,0,2.32,1.664,2.32,2.976C13.712-2.144,12.7-.88,11.36-.88c-1.376,0-2.352-1.28-2.352-2.976C9.008-5.328,9.728-6.864,11.392-6.864ZM16.928,0h1.408V-4.656a2.024,2.024,0,0,1,.1-.656,2,2,0,0,1,1.888-1.44c1.328,0,1.792,1.04,1.792,2.288V0H23.52V-4.624c0-2.656-1.664-3.3-2.736-3.3a2.848,2.848,0,0,0-2.56,1.456h-.032l-.08-1.28H16.864c.048.64.064,1.3.064,2.1Zm8.336-.368A4.416,4.416,0,0,0,27.44.16c1.84,0,2.9-.96,2.9-2.32,0-1.152-.688-1.824-2.032-2.336-1.008-.384-1.472-.672-1.472-1.312,0-.576.464-1.056,1.3-1.056a3.014,3.014,0,0,1,1.584.448l.352-1.024a3.865,3.865,0,0,0-1.9-.48,2.388,2.388,0,0,0-2.672,2.272c0,.928.656,1.7,2.048,2.192,1.04.384,1.44.752,1.44,1.424,0,.64-.48,1.152-1.5,1.152a3.69,3.69,0,0,1-1.856-.56Zm13.1-3.248a5.311,5.311,0,0,0,.048-.656c0-1.424-.672-3.648-3.2-3.648-2.256,0-3.632,1.84-3.632,4.176A3.6,3.6,0,0,0,35.392.16a6.272,6.272,0,0,0,2.576-.48l-.24-1.008a5.092,5.092,0,0,1-2.144.4,2.481,2.481,0,0,1-2.656-2.688ZM32.944-4.624A2.333,2.333,0,0,1,35.1-6.912a2,2,0,0,1,1.952,2.288Zm12.5,3.28a4,4,0,0,1-1.728.384,2.655,2.655,0,0,1-2.688-2.9A2.68,2.68,0,0,1,43.76-6.784a3.265,3.265,0,0,1,1.632.368l.32-1.088a4.707,4.707,0,0,0-1.952-.4A3.935,3.935,0,0,0,39.6-3.792,3.679,3.679,0,0,0,43.456.16,5.186,5.186,0,0,0,45.68-.288ZM48.064-9.6v1.856h-1.2v1.072h1.2v4.224a2.869,2.869,0,0,0,.544,2.016,1.951,1.951,0,0,0,1.52.592,3.447,3.447,0,0,0,1.248-.192l-.064-1.056a3.132,3.132,0,0,1-.816.1c-.784,0-1.056-.544-1.056-1.5V-6.672h2.016V-7.744H49.44V-9.968ZM59.072-3.616a5.311,5.311,0,0,0,.048-.656c0-1.424-.672-3.648-3.2-3.648-2.256,0-3.632,1.84-3.632,4.176A3.6,3.6,0,0,0,56.1.16a6.272,6.272,0,0,0,2.576-.48l-.24-1.008a5.092,5.092,0,0,1-2.144.4,2.481,2.481,0,0,1-2.656-2.688ZM53.648-4.624a2.333,2.333,0,0,1,2.16-2.288A2,2,0,0,1,57.76-4.624ZM61.184-9.6v1.856h-1.2v1.072h1.2v4.224a2.869,2.869,0,0,0,.544,2.016,1.951,1.951,0,0,0,1.52.592A3.447,3.447,0,0,0,64.5-.032l-.064-1.056a3.132,3.132,0,0,1-.816.1c-.784,0-1.056-.544-1.056-1.5V-6.672h2.016V-7.744H62.56V-9.968ZM72.64-7.744H71.232v4.752a2.059,2.059,0,0,1-.128.72,2.036,2.036,0,0,1-1.856,1.28c-1.28,0-1.728-.992-1.728-2.464V-7.744H66.112v4.528c0,2.72,1.456,3.392,2.672,3.392a2.914,2.914,0,0,0,2.56-1.44h.032L71.456,0H72.7c-.048-.608-.064-1.312-.064-2.112ZM81.2-3.616a5.311,5.311,0,0,0,.048-.656c0-1.424-.672-3.648-3.2-3.648-2.256,0-3.632,1.84-3.632,4.176A3.6,3.6,0,0,0,78.224.16,6.272,6.272,0,0,0,80.8-.32l-.24-1.008a5.092,5.092,0,0,1-2.144.4A2.481,2.481,0,0,1,75.76-3.616ZM75.776-4.624a2.333,2.333,0,0,1,2.16-2.288,2,2,0,0,1,1.952,2.288ZM82.992,0h1.392V-4.128a3.963,3.963,0,0,1,.064-.656,1.975,1.975,0,0,1,1.888-1.808,2.115,2.115,0,0,1,.48.048V-7.872a1.523,1.523,0,0,0-.4-.048,2.323,2.323,0,0,0-2.144,1.7h-.064l-.048-1.52H82.928c.048.72.064,1.5.064,2.416ZM97.184,0a10.9,10.9,0,0,1-.128-1.856v-2.9c0-1.552-.576-3.168-2.944-3.168a4.806,4.806,0,0,0-2.544.688l.32.928A3.858,3.858,0,0,1,93.9-6.88a1.6,1.6,0,0,1,1.76,1.792v.16c-2.992-.016-4.656,1.008-4.656,2.88A2.206,2.206,0,0,0,93.376.176,2.884,2.884,0,0,0,95.744-.976h.048L95.9,0ZM95.7-2.608a1.469,1.469,0,0,1-.08.448,1.927,1.927,0,0,1-1.872,1.3,1.246,1.246,0,0,1-1.328-1.344c0-1.5,1.744-1.776,3.28-1.744Zm8.912-8.752v4.624h-.032A2.589,2.589,0,0,0,102.24-7.92c-1.888,0-3.488,1.584-3.472,4.16,0,2.352,1.44,3.936,3.312,3.936a2.864,2.864,0,0,0,2.64-1.52h.032L104.816,0h1.264c-.048-.528-.064-1.312-.064-2v-9.36Zm0,8.112a2.446,2.446,0,0,1-.064.608A2.117,2.117,0,0,1,102.48-.96c-1.52,0-2.288-1.3-2.288-2.864,0-1.712.864-2.992,2.32-2.992a2.071,2.071,0,0,1,2.032,1.632,2.486,2.486,0,0,1,.064.592ZM109.76,0V-7.744h-1.408V0Zm-.7-10.8a.858.858,0,0,0-.88.88.837.837,0,0,0,.848.864.832.832,0,0,0,.9-.864A.836.836,0,0,0,109.056-10.8ZM112.1,3.168h1.392V-1.04h.032A2.716,2.716,0,0,0,115.9.176c1.824,0,3.52-1.376,3.52-4.16,0-2.352-1.408-3.936-3.28-3.936a3.044,3.044,0,0,0-2.752,1.5h-.032L113.3-7.744h-1.264c.032.736.064,1.536.064,2.528Zm1.392-7.648a2.284,2.284,0,0,1,.1-.576A2.247,2.247,0,0,1,115.712-6.8c1.488,0,2.3,1.328,2.3,2.88,0,1.776-.864,2.992-2.352,2.992a2.173,2.173,0,0,1-2.112-1.648,3.171,3.171,0,0,1-.064-.576ZM122.608,0V-7.744H121.2V0Zm-.7-10.8a.858.858,0,0,0-.88.88.837.837,0,0,0,.848.864.832.832,0,0,0,.9-.864A.836.836,0,0,0,121.9-10.8ZM124.4-.368a4.416,4.416,0,0,0,2.176.528c1.84,0,2.9-.96,2.9-2.32,0-1.152-.688-1.824-2.032-2.336-1.008-.384-1.472-.672-1.472-1.312,0-.576.464-1.056,1.3-1.056a3.014,3.014,0,0,1,1.584.448L129.2-7.44a3.865,3.865,0,0,0-1.9-.48,2.388,2.388,0,0,0-2.672,2.272c0,.928.656,1.7,2.048,2.192,1.04.384,1.44.752,1.44,1.424,0,.64-.48,1.152-1.5,1.152a3.69,3.69,0,0,1-1.856-.56Zm12.16-.976a4,4,0,0,1-1.728.384,2.655,2.655,0,0,1-2.688-2.9,2.68,2.68,0,0,1,2.736-2.928,3.265,3.265,0,0,1,1.632.368l.32-1.088a4.707,4.707,0,0,0-1.952-.4,3.935,3.935,0,0,0-4.16,4.112A3.679,3.679,0,0,0,134.576.16,5.186,5.186,0,0,0,136.8-.288ZM139.856,0V-7.744h-1.408V0Zm-.7-10.8a.858.858,0,0,0-.88.88.837.837,0,0,0,.848.864.832.832,0,0,0,.9-.864A.836.836,0,0,0,139.152-10.8ZM142.192,0H143.6V-4.656a2.025,2.025,0,0,1,.1-.656,2,2,0,0,1,1.888-1.44c1.328,0,1.792,1.04,1.792,2.288V0h1.408V-4.624c0-2.656-1.664-3.3-2.736-3.3a2.848,2.848,0,0,0-2.56,1.456h-.032l-.08-1.28h-1.248c.048.64.064,1.3.064,2.1Zm14.32-7.744-.064,1.168h-.032A2.576,2.576,0,0,0,154-7.92c-1.776,0-3.488,1.488-3.488,4.112,0,2.144,1.376,3.776,3.3,3.776a2.764,2.764,0,0,0,2.464-1.3h.032v.864c0,1.952-1.056,2.7-2.5,2.7a4.367,4.367,0,0,1-2.272-.608L151.184,2.7a5,5,0,0,0,2.576.64,4.105,4.105,0,0,0,2.816-.928c.752-.672,1.1-1.76,1.1-3.536v-4.5c0-.944.032-1.568.064-2.128ZM156.288-3.3a2.45,2.45,0,0,1-.112.752,2.058,2.058,0,0,1-1.952,1.44c-1.52,0-2.288-1.264-2.288-2.784,0-1.792.96-2.928,2.3-2.928a2.028,2.028,0,0,1,1.968,1.488,2.005,2.005,0,0,1,.08.64Z" transform="translate(40.286 55.476)"/>
          <path id="Trazado_913171" data-name="Trazado 913171" d="M7.392-3.616a5.31,5.31,0,0,0,.048-.656c0-1.424-.672-3.648-3.2-3.648C1.984-7.92.608-6.08.608-3.744A3.6,3.6,0,0,0,4.416.16,6.272,6.272,0,0,0,6.992-.32l-.24-1.008a5.092,5.092,0,0,1-2.144.4A2.481,2.481,0,0,1,1.952-3.616ZM1.968-4.624a2.333,2.333,0,0,1,2.16-2.288A2,2,0,0,1,6.08-4.624ZM9.184,0h1.408V-11.36H9.184Zm5.184,0V-7.744H12.96V0Zm-.7-10.8a.858.858,0,0,0-.88.88.837.837,0,0,0,.848.864.832.832,0,0,0,.9-.864A.836.836,0,0,0,13.664-10.8Zm3.36,1.2v1.856h-1.2v1.072h1.2v4.224a2.869,2.869,0,0,0,.544,2.016,1.951,1.951,0,0,0,1.52.592,3.447,3.447,0,0,0,1.248-.192l-.064-1.056a3.132,3.132,0,0,1-.816.1c-.784,0-1.056-.544-1.056-1.5V-6.672h2.016V-7.744H18.4V-9.968ZM22,1.872a19.506,19.506,0,0,0,1.52-3.888l-1.568.16a23.021,23.021,0,0,1-.96,3.824Zm6.064-2.24A4.416,4.416,0,0,0,30.24.16c1.84,0,2.9-.96,2.9-2.32,0-1.152-.688-1.824-2.032-2.336-1.008-.384-1.472-.672-1.472-1.312,0-.576.464-1.056,1.3-1.056a3.014,3.014,0,0,1,1.584.448l.352-1.024a3.865,3.865,0,0,0-1.9-.48,2.388,2.388,0,0,0-2.672,2.272c0,.928.656,1.7,2.048,2.192,1.04.384,1.44.752,1.44,1.424,0,.64-.48,1.152-1.5,1.152a3.69,3.69,0,0,1-1.856-.56Zm13.1-3.248a5.31,5.31,0,0,0,.048-.656c0-1.424-.672-3.648-3.2-3.648-2.256,0-3.632,1.84-3.632,4.176A3.6,3.6,0,0,0,38.192.16a6.272,6.272,0,0,0,2.576-.48l-.24-1.008a5.092,5.092,0,0,1-2.144.4,2.481,2.481,0,0,1-2.656-2.688ZM35.744-4.624A2.333,2.333,0,0,1,37.9-6.912a2,2,0,0,1,1.952,2.288Zm12.5-6.736v4.624h-.032A2.589,2.589,0,0,0,45.872-7.92c-1.888,0-3.488,1.584-3.472,4.16,0,2.352,1.44,3.936,3.312,3.936a2.864,2.864,0,0,0,2.64-1.52h.032L48.448,0h1.264c-.048-.528-.064-1.312-.064-2v-9.36Zm0,8.112a2.446,2.446,0,0,1-.064.608A2.117,2.117,0,0,1,46.112-.96c-1.52,0-2.288-1.3-2.288-2.864,0-1.712.864-2.992,2.32-2.992a2.071,2.071,0,0,1,2.032,1.632,2.485,2.485,0,0,1,.064.592ZM60.656-11.36v4.624h-.032A2.589,2.589,0,0,0,58.288-7.92c-1.888,0-3.488,1.584-3.472,4.16,0,2.352,1.44,3.936,3.312,3.936a2.864,2.864,0,0,0,2.64-1.52H60.8L60.864,0h1.264c-.048-.528-.064-1.312-.064-2v-9.36Zm0,8.112a2.446,2.446,0,0,1-.064.608A2.117,2.117,0,0,1,58.528-.96c-1.52,0-2.288-1.3-2.288-2.864,0-1.712.864-2.992,2.32-2.992a2.071,2.071,0,0,1,2.032,1.632,2.485,2.485,0,0,1,.064.592ZM65.808,0V-7.744H64.4V0Zm-.7-10.8a.858.858,0,0,0-.88.88.837.837,0,0,0,.848.864.832.832,0,0,0,.9-.864A.836.836,0,0,0,65.1-10.8ZM73.712,0a10.9,10.9,0,0,1-.128-1.856v-2.9c0-1.552-.576-3.168-2.944-3.168a4.806,4.806,0,0,0-2.544.688l.32.928a3.858,3.858,0,0,1,2.016-.576,1.6,1.6,0,0,1,1.76,1.792v.16c-2.992-.016-4.656,1.008-4.656,2.88A2.206,2.206,0,0,0,69.9.176,2.884,2.884,0,0,0,72.272-.976h.048L72.432,0ZM72.224-2.608a1.469,1.469,0,0,1-.08.448,1.927,1.927,0,0,1-1.872,1.3,1.246,1.246,0,0,1-1.328-1.344c0-1.5,1.744-1.776,3.28-1.744ZM75.856,0h1.376V-4.672a1.941,1.941,0,0,1,.112-.688,1.924,1.924,0,0,1,1.744-1.408c1.072,0,1.616.9,1.616,2.128V0H82.08V-4.784a2.319,2.319,0,0,1,.112-.7,1.823,1.823,0,0,1,1.664-1.28c1.136,0,1.68.9,1.68,2.384V0h1.376V-4.56c0-2.688-1.52-3.36-2.544-3.36a2.643,2.643,0,0,0-1.712.544,3.19,3.19,0,0,0-.864,1.008H81.76A2.289,2.289,0,0,0,79.568-7.92,2.669,2.669,0,0,0,77.136-6.5h-.048l-.064-1.248H75.792c.048.64.064,1.3.064,2.1ZM92.592,0H94V-4.656a2.025,2.025,0,0,1,.1-.656,2,2,0,0,1,1.888-1.44c1.328,0,1.792,1.04,1.792,2.288V0h1.408V-4.624c0-2.656-1.664-3.3-2.736-3.3a2.848,2.848,0,0,0-2.56,1.456h-.032l-.08-1.28H92.528c.048.64.064,1.3.064,2.1Zm12.16-7.92a3.781,3.781,0,0,0-3.84,4.112A3.682,3.682,0,0,0,104.624.176a3.785,3.785,0,0,0,3.856-4.112A3.667,3.667,0,0,0,104.752-7.92Zm-.032,1.056c1.664,0,2.32,1.664,2.32,2.976,0,1.744-1.008,3.008-2.352,3.008-1.376,0-2.352-1.28-2.352-2.976C102.336-5.328,103.056-6.864,104.72-6.864ZM110.256,0h1.408V-4.656a2.025,2.025,0,0,1,.1-.656,2,2,0,0,1,1.888-1.44c1.328,0,1.792,1.04,1.792,2.288V0h1.408V-4.624c0-2.656-1.664-3.3-2.736-3.3a2.848,2.848,0,0,0-2.56,1.456h-.032l-.08-1.28h-1.248c.048.64.064,1.3.064,2.1Zm15.36-7.744h-1.408v4.752a2.059,2.059,0,0,1-.128.72,2.036,2.036,0,0,1-1.856,1.28c-1.28,0-1.728-.992-1.728-2.464V-7.744h-1.408v4.528c0,2.72,1.456,3.392,2.672,3.392a2.914,2.914,0,0,0,2.56-1.44h.032L124.432,0h1.248c-.048-.608-.064-1.312-.064-2.112ZM127.952,0h1.376V-4.672a1.941,1.941,0,0,1,.112-.688,1.924,1.924,0,0,1,1.744-1.408c1.072,0,1.616.9,1.616,2.128V0h1.376V-4.784a2.319,2.319,0,0,1,.112-.7,1.823,1.823,0,0,1,1.664-1.28c1.136,0,1.68.9,1.68,2.384V0h1.376V-4.56c0-2.688-1.52-3.36-2.544-3.36a2.643,2.643,0,0,0-1.712.544,3.19,3.19,0,0,0-.864,1.008h-.032a2.289,2.289,0,0,0-2.192-1.552A2.669,2.669,0,0,0,129.232-6.5h-.048l-.064-1.248h-1.232c.048.64.064,1.3.064,2.1ZM141.3,0h1.376V-4.672a1.941,1.941,0,0,1,.112-.688,1.924,1.924,0,0,1,1.744-1.408c1.072,0,1.616.9,1.616,2.128V0h1.376V-4.784a2.319,2.319,0,0,1,.112-.7,1.823,1.823,0,0,1,1.664-1.28c1.136,0,1.68.9,1.68,2.384V0h1.376V-4.56c0-2.688-1.52-3.36-2.544-3.36a2.643,2.643,0,0,0-1.712.544,3.19,3.19,0,0,0-.864,1.008H147.2a2.289,2.289,0,0,0-2.192-1.552A2.669,2.669,0,0,0,142.576-6.5h-.048l-.064-1.248h-1.232c.048.64.064,1.3.064,2.1Zm11.9-7.744,2.864,7.136a1.227,1.227,0,0,1,.1.368,1.011,1.011,0,0,1-.112.336,4.269,4.269,0,0,1-1.184,1.568,3.724,3.724,0,0,1-1.232.688l.352,1.184a3.815,3.815,0,0,0,1.728-.912c.96-.832,1.648-2.192,2.656-4.848l2.112-5.52h-1.488L157.456-3.2c-.192.56-.352,1.152-.5,1.616h-.032c-.128-.464-.32-1.072-.5-1.584l-1.7-4.576Z" transform="translate(28.467 75.94)"/>
          <path id="Trazado_913172" data-name="Trazado 913172" d="M1.168,0H2.576V-4.656a2.025,2.025,0,0,1,.1-.656A2,2,0,0,1,4.56-6.752c1.328,0,1.792,1.04,1.792,2.288V0H7.76V-4.624c0-2.656-1.664-3.3-2.736-3.3a2.848,2.848,0,0,0-2.56,1.456H2.432l-.08-1.28H1.1c.048.64.064,1.3.064,2.1ZM11.456,0V-7.744H10.048V0Zm-.7-10.8a.858.858,0,0,0-.88.88.837.837,0,0,0,.848.864.832.832,0,0,0,.9-.864A.836.836,0,0,0,10.752-10.8ZM14.944,0l.064-1.28h.048A2.759,2.759,0,0,0,17.648.176c1.728,0,3.472-1.376,3.472-4.144.016-2.352-1.344-3.952-3.264-3.952A2.884,2.884,0,0,0,15.216-6.5h-.032V-11.36H13.792V-2c0,.688-.032,1.472-.064,2Zm.24-4.5a2.775,2.775,0,0,1,.08-.576A2.245,2.245,0,0,1,17.408-6.8c1.5,0,2.3,1.328,2.3,2.88,0,1.776-.88,2.976-2.352,2.976a2.173,2.173,0,0,1-2.112-1.648,2.636,2.636,0,0,1-.064-.512ZM22.9,0H24.3V-4.672a1.7,1.7,0,0,1,.1-.672,2.023,2.023,0,0,1,1.888-1.408c1.328,0,1.792,1.056,1.792,2.3V0h1.408V-4.608c0-2.672-1.664-3.312-2.7-3.312a2.9,2.9,0,0,0-1.44.4,2.613,2.613,0,0,0-1.008.992H24.3V-11.36H22.9Zm18.5-3.616a5.31,5.31,0,0,0,.048-.656c0-1.424-.672-3.648-3.2-3.648-2.256,0-3.632,1.84-3.632,4.176A3.6,3.6,0,0,0,38.416.16a6.272,6.272,0,0,0,2.576-.48l-.24-1.008a5.092,5.092,0,0,1-2.144.4,2.481,2.481,0,0,1-2.656-2.688ZM35.968-4.624a2.333,2.333,0,0,1,2.16-2.288A2,2,0,0,1,40.08-4.624Zm13.7-3.12H48.256v4.752a2.059,2.059,0,0,1-.128.72,2.036,2.036,0,0,1-1.856,1.28c-1.28,0-1.728-.992-1.728-2.464V-7.744H43.136v4.528c0,2.72,1.456,3.392,2.672,3.392a2.914,2.914,0,0,0,2.56-1.44H48.4L48.48,0h1.248c-.048-.608-.064-1.312-.064-2.112ZM53.408,0V-7.744H52V0Zm-.7-10.8a.858.858,0,0,0-.88.88.837.837,0,0,0,.848.864.832.832,0,0,0,.9-.864A.836.836,0,0,0,52.7-10.8ZM55.2-.368A4.416,4.416,0,0,0,57.376.16c1.84,0,2.9-.96,2.9-2.32,0-1.152-.688-1.824-2.032-2.336-1.008-.384-1.472-.672-1.472-1.312,0-.576.464-1.056,1.3-1.056a3.014,3.014,0,0,1,1.584.448L60-7.44a3.865,3.865,0,0,0-1.9-.48,2.388,2.388,0,0,0-2.672,2.272c0,.928.656,1.7,2.048,2.192,1.04.384,1.44.752,1.44,1.424,0,.64-.48,1.152-1.5,1.152a3.69,3.69,0,0,1-1.856-.56ZM62.08,0h1.376V-4.672a1.941,1.941,0,0,1,.112-.688,1.924,1.924,0,0,1,1.744-1.408c1.072,0,1.616.9,1.616,2.128V0H68.3V-4.784a2.319,2.319,0,0,1,.112-.7,1.823,1.823,0,0,1,1.664-1.28c1.136,0,1.68.9,1.68,2.384V0h1.376V-4.56c0-2.688-1.52-3.36-2.544-3.36a2.643,2.643,0,0,0-1.712.544,3.19,3.19,0,0,0-.864,1.008h-.032A2.289,2.289,0,0,0,65.792-7.92,2.669,2.669,0,0,0,63.36-6.5h-.048l-.064-1.248H62.016c.048.64.064,1.3.064,2.1ZM78.7-7.92a3.781,3.781,0,0,0-3.84,4.112A3.682,3.682,0,0,0,78.576.176a3.785,3.785,0,0,0,3.856-4.112A3.667,3.667,0,0,0,78.7-7.92Zm-.032,1.056c1.664,0,2.32,1.664,2.32,2.976,0,1.744-1.008,3.008-2.352,3.008-1.376,0-2.352-1.28-2.352-2.976C76.288-5.328,77.008-6.864,78.672-6.864Zm10.816-4.5v4.624h-.032A2.589,2.589,0,0,0,87.12-7.92c-1.888,0-3.488,1.584-3.472,4.16,0,2.352,1.44,3.936,3.312,3.936a2.864,2.864,0,0,0,2.64-1.52h.032L89.7,0H90.96c-.048-.528-.064-1.312-.064-2v-9.36Zm0,8.112a2.446,2.446,0,0,1-.064.608A2.117,2.117,0,0,1,87.36-.96c-1.52,0-2.288-1.3-2.288-2.864,0-1.712.864-2.992,2.32-2.992a2.071,2.071,0,0,1,2.032,1.632,2.486,2.486,0,0,1,.064.592ZM96.944-9.6v1.856h-1.2v1.072h1.2v4.224a2.869,2.869,0,0,0,.544,2.016,1.951,1.951,0,0,0,1.52.592,3.447,3.447,0,0,0,1.248-.192l-.064-1.056a3.132,3.132,0,0,1-.816.1c-.784,0-1.056-.544-1.056-1.5V-6.672h2.016V-7.744H98.32V-9.968ZM103.328,0V-7.744H101.92V0Zm-.7-10.8a.858.858,0,0,0-.88.88.837.837,0,0,0,.848.864.832.832,0,0,0,.9-.864A.836.836,0,0,0,102.624-10.8ZM105.664,0h1.408V-4.656a2.025,2.025,0,0,1,.1-.656,2,2,0,0,1,1.888-1.44c1.328,0,1.792,1.04,1.792,2.288V0h1.408V-4.624c0-2.656-1.664-3.3-2.736-3.3a2.848,2.848,0,0,0-2.56,1.456h-.032l-.08-1.28H105.6c.048.64.064,1.3.064,2.1Zm14.16-1.344A4,4,0,0,1,118.1-.96a2.655,2.655,0,0,1-2.688-2.9,2.68,2.68,0,0,1,2.736-2.928,3.265,3.265,0,0,1,1.632.368L120.1-7.5a4.707,4.707,0,0,0-1.952-.4,3.935,3.935,0,0,0-4.16,4.112A3.679,3.679,0,0,0,117.84.16a5.186,5.186,0,0,0,2.224-.448ZM123.12,0V-7.744h-1.408V0Zm-.7-10.8a.858.858,0,0,0-.88.88.837.837,0,0,0,.848.864.832.832,0,0,0,.9-.864A.836.836,0,0,0,122.416-10.8Zm8.32-.56v4.624H130.7a2.589,2.589,0,0,0-2.336-1.184c-1.888,0-3.488,1.584-3.472,4.16,0,2.352,1.44,3.936,3.312,3.936a2.864,2.864,0,0,0,2.64-1.52h.032L130.944,0h1.264c-.048-.528-.064-1.312-.064-2v-9.36Zm0,8.112a2.446,2.446,0,0,1-.064.608,2.117,2.117,0,0,1-2.064,1.68c-1.52,0-2.288-1.3-2.288-2.864,0-1.712.864-2.992,2.32-2.992a2.071,2.071,0,0,1,2.032,1.632,2.485,2.485,0,0,1,.064.592Zm10.224-4.5h-1.408v4.752a2.059,2.059,0,0,1-.128.72,2.036,2.036,0,0,1-1.856,1.28c-1.28,0-1.728-.992-1.728-2.464V-7.744h-1.408v4.528c0,2.72,1.456,3.392,2.672,3.392a2.914,2.914,0,0,0,2.56-1.44h.032L139.776,0h1.248c-.048-.608-.064-1.312-.064-2.112ZM143.3,0H144.7V-4.656a2.025,2.025,0,0,1,.1-.656,2,2,0,0,1,1.888-1.44c1.328,0,1.792,1.04,1.792,2.288V0h1.408V-4.624c0-2.656-1.664-3.3-2.736-3.3a2.848,2.848,0,0,0-2.56,1.456h-.032l-.08-1.28h-1.248c.048.64.064,1.3.064,2.1Zm9.088-9.6v1.856h-1.2v1.072h1.2v4.224a2.869,2.869,0,0,0,.544,2.016,1.951,1.951,0,0,0,1.52.592A3.447,3.447,0,0,0,155.7-.032l-.064-1.056a3.132,3.132,0,0,1-.816.1c-.784,0-1.056-.544-1.056-1.5V-6.672h2.016V-7.744H153.76V-9.968Zm14.848,1.856h-1.408v4.752a2.059,2.059,0,0,1-.128.72,2.036,2.036,0,0,1-1.856,1.28c-1.28,0-1.728-.992-1.728-2.464V-7.744H160.7v4.528c0,2.72,1.456,3.392,2.672,3.392a2.914,2.914,0,0,0,2.56-1.44h.032L166.048,0H167.3c-.048-.608-.064-1.312-.064-2.112ZM169.888-9.6v1.856h-1.2v1.072h1.2v4.224a2.869,2.869,0,0,0,.544,2.016,1.951,1.951,0,0,0,1.52.592A3.447,3.447,0,0,0,173.2-.032l-.064-1.056a3.132,3.132,0,0,1-.816.1c-.784,0-1.056-.544-1.056-1.5V-6.672h2.016V-7.744h-2.016V-9.968Z" transform="translate(16.649 96.405)"/>
          <path id="Trazado_913173" data-name="Trazado 913173" d="M1.168,0H2.576V-11.36H1.168Zm9.344,0a10.9,10.9,0,0,1-.128-1.856v-2.9c0-1.552-.576-3.168-2.944-3.168A4.806,4.806,0,0,0,4.9-7.232l.32.928A3.858,3.858,0,0,1,7.232-6.88a1.6,1.6,0,0,1,1.76,1.792v.16C6-4.944,4.336-3.92,4.336-2.048A2.206,2.206,0,0,0,6.7.176,2.884,2.884,0,0,0,9.072-.976H9.12L9.232,0ZM9.024-2.608a1.47,1.47,0,0,1-.08.448,1.927,1.927,0,0,1-1.872,1.3A1.246,1.246,0,0,1,5.744-2.208c0-1.5,1.744-1.776,3.28-1.744ZM15.936-7.92A3.781,3.781,0,0,0,12.1-3.808,3.682,3.682,0,0,0,15.808.176a3.785,3.785,0,0,0,3.856-4.112A3.667,3.667,0,0,0,15.936-7.92ZM15.9-6.864c1.664,0,2.32,1.664,2.32,2.976,0,1.744-1.008,3.008-2.352,3.008C14.5-.88,13.52-2.16,13.52-3.856,13.52-5.328,14.24-6.864,15.9-6.864ZM21.44,0h1.392V-4.128a3.963,3.963,0,0,1,.064-.656,1.975,1.975,0,0,1,1.888-1.808,2.115,2.115,0,0,1,.48.048V-7.872a1.523,1.523,0,0,0-.4-.048,2.323,2.323,0,0,0-2.144,1.7h-.064l-.048-1.52H21.376c.048.72.064,1.5.064,2.416ZM32.576-3.616a5.311,5.311,0,0,0,.048-.656c0-1.424-.672-3.648-3.2-3.648-2.256,0-3.632,1.84-3.632,4.176A3.6,3.6,0,0,0,29.6.16a6.272,6.272,0,0,0,2.576-.48l-.24-1.008a5.092,5.092,0,0,1-2.144.4,2.481,2.481,0,0,1-2.656-2.688ZM27.152-4.624a2.333,2.333,0,0,1,2.16-2.288,2,2,0,0,1,1.952,2.288Zm13.44,1.008a5.31,5.31,0,0,0,.048-.656c0-1.424-.672-3.648-3.2-3.648-2.256,0-3.632,1.84-3.632,4.176A3.6,3.6,0,0,0,37.616.16a6.272,6.272,0,0,0,2.576-.48l-.24-1.008a5.092,5.092,0,0,1-2.144.4,2.481,2.481,0,0,1-2.656-2.688ZM35.168-4.624a2.333,2.333,0,0,1,2.16-2.288A2,2,0,0,1,39.28-4.624ZM42.7-9.6v1.856H41.5v1.072h1.2v4.224a2.869,2.869,0,0,0,.544,2.016,1.951,1.951,0,0,0,1.52.592,3.447,3.447,0,0,0,1.248-.192l-.064-1.056a3.132,3.132,0,0,1-.816.1c-.784,0-1.056-.544-1.056-1.5V-6.672H46.1V-7.744H44.08V-9.968Zm13.648-1.76v4.624H56.32A2.589,2.589,0,0,0,53.984-7.92c-1.888,0-3.488,1.584-3.472,4.16,0,2.352,1.44,3.936,3.312,3.936a2.864,2.864,0,0,0,2.64-1.52H56.5L56.56,0h1.264c-.048-.528-.064-1.312-.064-2v-9.36Zm0,8.112a2.446,2.446,0,0,1-.064.608A2.117,2.117,0,0,1,54.224-.96c-1.52,0-2.288-1.3-2.288-2.864,0-1.712.864-2.992,2.32-2.992a2.071,2.071,0,0,1,2.032,1.632,2.485,2.485,0,0,1,.064.592ZM63.376-7.92a3.781,3.781,0,0,0-3.84,4.112A3.682,3.682,0,0,0,63.248.176,3.785,3.785,0,0,0,67.1-3.936,3.667,3.667,0,0,0,63.376-7.92Zm-.032,1.056c1.664,0,2.32,1.664,2.32,2.976,0,1.744-1.008,3.008-2.352,3.008-1.376,0-2.352-1.28-2.352-2.976C60.96-5.328,61.68-6.864,63.344-6.864ZM68.88,0h1.408V-11.36H68.88Zm7.056-7.92A3.781,3.781,0,0,0,72.1-3.808,3.682,3.682,0,0,0,75.808.176a3.785,3.785,0,0,0,3.856-4.112A3.667,3.667,0,0,0,75.936-7.92ZM75.9-6.864c1.664,0,2.32,1.664,2.32,2.976,0,1.744-1.008,3.008-2.352,3.008C74.5-.88,73.52-2.16,73.52-3.856,73.52-5.328,74.24-6.864,75.9-6.864ZM81.44,0h1.392V-4.128a3.963,3.963,0,0,1,.064-.656,1.975,1.975,0,0,1,1.888-1.808,2.115,2.115,0,0,1,.48.048V-7.872a1.523,1.523,0,0,0-.4-.048,2.323,2.323,0,0,0-2.144,1.7h-.064l-.048-1.52H81.376c.048.72.064,1.5.064,2.416ZM92.576-3.616a5.311,5.311,0,0,0,.048-.656c0-1.424-.672-3.648-3.2-3.648-2.256,0-3.632,1.84-3.632,4.176A3.6,3.6,0,0,0,89.6.16a6.272,6.272,0,0,0,2.576-.48l-.24-1.008a5.092,5.092,0,0,1-2.144.4,2.481,2.481,0,0,1-2.656-2.688ZM87.152-4.624a2.333,2.333,0,0,1,2.16-2.288,2,2,0,0,1,1.952,2.288ZM97.76,0h1.376V-4.672a1.941,1.941,0,0,1,.112-.688,1.924,1.924,0,0,1,1.744-1.408c1.072,0,1.616.9,1.616,2.128V0h1.376V-4.784a2.319,2.319,0,0,1,.112-.7,1.823,1.823,0,0,1,1.664-1.28c1.136,0,1.68.9,1.68,2.384V0h1.376V-4.56c0-2.688-1.52-3.36-2.544-3.36a2.643,2.643,0,0,0-1.712.544,3.19,3.19,0,0,0-.864,1.008h-.032a2.289,2.289,0,0,0-2.192-1.552A2.669,2.669,0,0,0,99.04-6.5h-.048l-.064-1.248H97.7c.048.64.064,1.3.064,2.1Zm18.912,0a10.9,10.9,0,0,1-.128-1.856v-2.9c0-1.552-.576-3.168-2.944-3.168a4.806,4.806,0,0,0-2.544.688l.32.928a3.858,3.858,0,0,1,2.016-.576,1.6,1.6,0,0,1,1.76,1.792v.16c-2.992-.016-4.656,1.008-4.656,2.88A2.206,2.206,0,0,0,112.864.176a2.884,2.884,0,0,0,2.368-1.152h.048l.112.976Zm-1.488-2.608a1.469,1.469,0,0,1-.08.448,1.927,1.927,0,0,1-1.872,1.3A1.246,1.246,0,0,1,111.9-2.208c0-1.5,1.744-1.776,3.28-1.744Zm9.072-5.136-.064,1.168h-.032a2.576,2.576,0,0,0-2.416-1.344c-1.776,0-3.488,1.488-3.488,4.112,0,2.144,1.376,3.776,3.3,3.776a2.764,2.764,0,0,0,2.464-1.3h.032v.864c0,1.952-1.056,2.7-2.5,2.7a4.367,4.367,0,0,1-2.272-.608L118.928,2.7a5,5,0,0,0,2.576.64,4.105,4.105,0,0,0,2.816-.928c.752-.672,1.1-1.76,1.1-3.536v-4.5c0-.944.032-1.568.064-2.128ZM124.032-3.3a2.45,2.45,0,0,1-.112.752,2.058,2.058,0,0,1-1.952,1.44c-1.52,0-2.288-1.264-2.288-2.784,0-1.792.96-2.928,2.3-2.928a2.028,2.028,0,0,1,1.968,1.488,2.005,2.005,0,0,1,.08.64ZM127.584,0h1.408V-4.656a2.024,2.024,0,0,1,.1-.656,2,2,0,0,1,1.888-1.44c1.328,0,1.792,1.04,1.792,2.288V0h1.408V-4.624c0-2.656-1.664-3.3-2.736-3.3a2.848,2.848,0,0,0-2.56,1.456h-.032l-.08-1.28H127.52c.048.64.064,1.3.064,2.1Zm14.448,0a10.9,10.9,0,0,1-.128-1.856v-2.9c0-1.552-.576-3.168-2.944-3.168a4.806,4.806,0,0,0-2.544.688l.32.928a3.858,3.858,0,0,1,2.016-.576,1.6,1.6,0,0,1,1.76,1.792v.16c-2.992-.016-4.656,1.008-4.656,2.88A2.206,2.206,0,0,0,138.224.176a2.884,2.884,0,0,0,2.368-1.152h.048l.112.976Zm-1.488-2.608a1.469,1.469,0,0,1-.08.448,1.927,1.927,0,0,1-1.872,1.3,1.246,1.246,0,0,1-1.328-1.344c0-1.5,1.744-1.776,3.28-1.744ZM153.136,0a10.9,10.9,0,0,1-.128-1.856v-2.9c0-1.552-.576-3.168-2.944-3.168a4.806,4.806,0,0,0-2.544.688l.32.928a3.858,3.858,0,0,1,2.016-.576,1.6,1.6,0,0,1,1.76,1.792v.16c-2.992-.016-4.656,1.008-4.656,2.88A2.206,2.206,0,0,0,149.328.176,2.884,2.884,0,0,0,151.7-.976h.048l.112.976Zm-1.488-2.608a1.469,1.469,0,0,1-.08.448,1.927,1.927,0,0,1-1.872,1.3,1.246,1.246,0,0,1-1.328-1.344c0-1.5,1.744-1.776,3.28-1.744ZM155.28,0h1.408V-11.36H155.28Zm5.184,0V-7.744h-1.408V0Zm-.7-10.8a.858.858,0,0,0-.88.88.837.837,0,0,0,.848.864.832.832,0,0,0,.9-.864A.836.836,0,0,0,159.76-10.8Zm8.32,13.968h1.408V-5.616c0-.8.016-1.472.048-2.128h-1.328l-.048,1.168h-.032a2.545,2.545,0,0,0-2.384-1.344c-1.632,0-3.5,1.28-3.5,4.176,0,2.352,1.472,3.92,3.28,3.92A2.756,2.756,0,0,0,168.048-1.2h.032Zm0-6.32a2.365,2.365,0,0,1-.112.672,2.1,2.1,0,0,1-2.016,1.536c-1.552,0-2.288-1.344-2.288-2.88,0-1.744.88-2.976,2.336-2.976a2.058,2.058,0,0,1,2.016,1.6,2.4,2.4,0,0,1,.064.592Zm10.208-4.592H176.88v4.752a2.059,2.059,0,0,1-.128.72A2.036,2.036,0,0,1,174.9-.992c-1.28,0-1.728-.992-1.728-2.464V-7.744H171.76v4.528c0,2.72,1.456,3.392,2.672,3.392a2.914,2.914,0,0,0,2.56-1.44h.032L177.1,0h1.248c-.048-.608-.064-1.312-.064-2.112ZM186.192,0a10.9,10.9,0,0,1-.128-1.856v-2.9c0-1.552-.576-3.168-2.944-3.168a4.806,4.806,0,0,0-2.544.688l.32.928a3.858,3.858,0,0,1,2.016-.576,1.6,1.6,0,0,1,1.76,1.792v.16c-2.992-.016-4.656,1.008-4.656,2.88A2.206,2.206,0,0,0,182.384.176a2.884,2.884,0,0,0,2.368-1.152h.048l.112.976ZM184.7-2.608a1.469,1.469,0,0,1-.08.448,1.927,1.927,0,0,1-1.872,1.3,1.246,1.246,0,0,1-1.328-1.344c0-1.5,1.744-1.776,3.28-1.744ZM188.336,0h1.376V-4.672a1.941,1.941,0,0,1,.112-.688,1.924,1.924,0,0,1,1.744-1.408c1.072,0,1.616.9,1.616,2.128V0h1.376V-4.784a2.319,2.319,0,0,1,.112-.7,1.823,1.823,0,0,1,1.664-1.28c1.136,0,1.68.9,1.68,2.384V0h1.376V-4.56c0-2.688-1.52-3.36-2.544-3.36a2.643,2.643,0,0,0-1.712.544,3.19,3.19,0,0,0-.864,1.008h-.032a2.289,2.289,0,0,0-2.192-1.552A2.669,2.669,0,0,0,189.616-6.5h-.048L189.5-7.744h-1.232c.048.64.064,1.3.064,2.1Z" transform="translate(6.399 116.87)"/>
          <path id="Trazado_913174" data-name="Trazado 913174" d="M7.392-3.616a5.31,5.31,0,0,0,.048-.656c0-1.424-.672-3.648-3.2-3.648C1.984-7.92.608-6.08.608-3.744A3.6,3.6,0,0,0,4.416.16,6.272,6.272,0,0,0,6.992-.32l-.24-1.008a5.092,5.092,0,0,1-2.144.4A2.481,2.481,0,0,1,1.952-3.616ZM1.968-4.624a2.333,2.333,0,0,1,2.16-2.288A2,2,0,0,1,6.08-4.624ZM9.184,0h1.392V-4.128a3.963,3.963,0,0,1,.064-.656,1.975,1.975,0,0,1,1.888-1.808,2.115,2.115,0,0,1,.48.048V-7.872a1.523,1.523,0,0,0-.4-.048,2.323,2.323,0,0,0-2.144,1.7H10.4l-.048-1.52H9.12c.048.72.064,1.5.064,2.416ZM19.84,0a10.9,10.9,0,0,1-.128-1.856v-2.9c0-1.552-.576-3.168-2.944-3.168a4.806,4.806,0,0,0-2.544.688l.32.928A3.858,3.858,0,0,1,16.56-6.88a1.6,1.6,0,0,1,1.76,1.792v.16c-2.992-.016-4.656,1.008-4.656,2.88A2.206,2.206,0,0,0,16.032.176,2.884,2.884,0,0,0,18.4-.976h.048L18.56,0ZM18.352-2.608a1.47,1.47,0,0,1-.08.448A1.927,1.927,0,0,1,16.4-.864a1.246,1.246,0,0,1-1.328-1.344c0-1.5,1.744-1.776,3.28-1.744ZM22.176-9.6v1.856h-1.2v1.072h1.2v4.224A2.869,2.869,0,0,0,22.72-.432,1.951,1.951,0,0,0,24.24.16a3.447,3.447,0,0,0,1.248-.192l-.064-1.056a3.132,3.132,0,0,1-.816.1c-.784,0-1.056-.544-1.056-1.5V-6.672h2.016V-7.744H23.552V-9.968Zm7.408,1.856L32.528,0h1.344l3.04-7.744H35.44l-1.5,4.352c-.256.7-.48,1.344-.656,1.984h-.048a19.915,19.915,0,0,0-.624-1.984l-1.52-4.352ZM41.216-7.92a3.781,3.781,0,0,0-3.84,4.112A3.682,3.682,0,0,0,41.088.176a3.785,3.785,0,0,0,3.856-4.112A3.667,3.667,0,0,0,41.216-7.92Zm-.032,1.056c1.664,0,2.32,1.664,2.32,2.976C43.5-2.144,42.5-.88,41.152-.88,39.776-.88,38.8-2.16,38.8-3.856,38.8-5.328,39.52-6.864,41.184-6.864ZM46.72,0h1.408V-11.36H46.72ZM56.976-7.744H55.568v4.752a2.059,2.059,0,0,1-.128.72,2.036,2.036,0,0,1-1.856,1.28c-1.28,0-1.728-.992-1.728-2.464V-7.744H50.448v4.528C50.448-.5,51.9.176,53.12.176a2.914,2.914,0,0,0,2.56-1.44h.032L55.792,0H57.04c-.048-.608-.064-1.312-.064-2.112ZM59.632-9.6v1.856h-1.2v1.072h1.2v4.224a2.869,2.869,0,0,0,.544,2.016A1.951,1.951,0,0,0,61.7.16a3.447,3.447,0,0,0,1.248-.192L62.88-1.088a3.132,3.132,0,0,1-.816.1c-.784,0-1.056-.544-1.056-1.5V-6.672h2.016V-7.744H61.008V-9.968ZM64.608,3.168H66V-1.04h.032A2.716,2.716,0,0,0,68.416.176c1.824,0,3.52-1.376,3.52-4.16,0-2.352-1.408-3.936-3.28-3.936a3.044,3.044,0,0,0-2.752,1.5h-.032l-.064-1.328H64.544c.032.736.064,1.536.064,2.528ZM66-4.48a2.283,2.283,0,0,1,.1-.576A2.247,2.247,0,0,1,68.224-6.8c1.488,0,2.3,1.328,2.3,2.88,0,1.776-.864,2.992-2.352,2.992a2.173,2.173,0,0,1-2.112-1.648A3.171,3.171,0,0,1,66-3.152ZM79.28,0a10.9,10.9,0,0,1-.128-1.856v-2.9c0-1.552-.576-3.168-2.944-3.168a4.806,4.806,0,0,0-2.544.688l.32.928A3.858,3.858,0,0,1,76-6.88a1.6,1.6,0,0,1,1.76,1.792v.16C74.768-4.944,73.1-3.92,73.1-2.048A2.206,2.206,0,0,0,75.472.176,2.884,2.884,0,0,0,77.84-.976h.048L78,0ZM77.792-2.608a1.469,1.469,0,0,1-.08.448,1.927,1.927,0,0,1-1.872,1.3,1.246,1.246,0,0,1-1.328-1.344c0-1.5,1.744-1.776,3.28-1.744ZM81.616-9.6v1.856h-1.2v1.072h1.2v4.224A2.869,2.869,0,0,0,82.16-.432,1.951,1.951,0,0,0,83.68.16a3.447,3.447,0,0,0,1.248-.192l-.064-1.056a3.132,3.132,0,0,1-.816.1c-.784,0-1.056-.544-1.056-1.5V-6.672h2.016V-7.744H82.992V-9.968ZM87.12.176a.937.937,0,0,0,.96-1.008.934.934,0,0,0-.944-1.008.946.946,0,0,0-.96,1.008A.942.942,0,0,0,87.12.176Zm6.128-10.96v6.352c0,3.344,1.664,4.608,3.872,4.608,2.336,0,4.08-1.36,4.08-4.672v-6.288H99.792V-4.4c0,2.384-1.024,3.44-2.624,3.44-1.44,0-2.512-1.024-2.512-3.44v-6.384ZM104.016-9.6v1.856h-1.2v1.072h1.2v4.224a2.869,2.869,0,0,0,.544,2.016,1.951,1.951,0,0,0,1.52.592,3.447,3.447,0,0,0,1.248-.192l-.064-1.056a3.132,3.132,0,0,1-.816.1c-.784,0-1.056-.544-1.056-1.5V-6.672h2.016V-7.744h-2.016V-9.968ZM111.5-7.744,113.84,0h1.28l1.248-3.68a22.913,22.913,0,0,0,.7-2.56h.032a25.81,25.81,0,0,0,.688,2.544L118.976,0h1.28l2.5-7.744H121.36l-1.1,3.888a23.287,23.287,0,0,0-.592,2.512h-.048c-.176-.784-.4-1.6-.688-2.528l-1.2-3.872h-1.184L115.28-3.792c-.256.832-.512,1.664-.688,2.448h-.048c-.144-.8-.352-1.6-.576-2.464l-1.024-3.936ZM125.568,0V-7.744H124.16V0Zm-.7-10.8a.858.858,0,0,0-.88.88.837.837,0,0,0,.848.864.832.832,0,0,0,.9-.864A.836.836,0,0,0,124.864-10.8Zm2.5,10.432a4.416,4.416,0,0,0,2.176.528c1.84,0,2.9-.96,2.9-2.32,0-1.152-.688-1.824-2.032-2.336-1.008-.384-1.472-.672-1.472-1.312,0-.576.464-1.056,1.3-1.056a3.014,3.014,0,0,1,1.584.448l.352-1.024a3.865,3.865,0,0,0-1.9-.48,2.388,2.388,0,0,0-2.672,2.272c0,.928.656,1.7,2.048,2.192,1.04.384,1.44.752,1.44,1.424,0,.64-.48,1.152-1.5,1.152a3.69,3.69,0,0,1-1.856-.56ZM135.648,0V-7.744H134.24V0Zm-.7-10.8a.858.858,0,0,0-.88.88.837.837,0,0,0,.848.864.832.832,0,0,0,.9-.864A.836.836,0,0,0,134.944-10.8ZM147.6-3.616a5.309,5.309,0,0,0,.048-.656c0-1.424-.672-3.648-3.2-3.648-2.256,0-3.632,1.84-3.632,4.176a3.6,3.6,0,0,0,3.808,3.9A6.272,6.272,0,0,0,147.2-.32l-.24-1.008a5.092,5.092,0,0,1-2.144.4,2.481,2.481,0,0,1-2.656-2.688Zm-5.424-1.008a2.333,2.333,0,0,1,2.16-2.288,2,2,0,0,1,1.952,2.288ZM149.392,0H150.8V-4.656a2.025,2.025,0,0,1,.1-.656,2,2,0,0,1,1.888-1.44c1.328,0,1.792,1.04,1.792,2.288V0h1.408V-4.624c0-2.656-1.664-3.3-2.736-3.3a2.848,2.848,0,0,0-2.56,1.456h-.032l-.08-1.28h-1.248c.048.64.064,1.3.064,2.1ZM159.68,0V-7.744h-1.408V0Zm-.7-10.8a.858.858,0,0,0-.88.88.837.837,0,0,0,.848.864.832.832,0,0,0,.9-.864A.836.836,0,0,0,158.976-10.8ZM162.016,0h1.376V-4.672a1.941,1.941,0,0,1,.112-.688,1.924,1.924,0,0,1,1.744-1.408c1.072,0,1.616.9,1.616,2.128V0h1.376V-4.784a2.319,2.319,0,0,1,.112-.7,1.823,1.823,0,0,1,1.664-1.28c1.136,0,1.68.9,1.68,2.384V0h1.376V-4.56c0-2.688-1.52-3.36-2.544-3.36a2.643,2.643,0,0,0-1.712.544,3.19,3.19,0,0,0-.864,1.008h-.032a2.289,2.289,0,0,0-2.192-1.552A2.669,2.669,0,0,0,163.3-6.5h-.048l-.064-1.248h-1.232c.048.64.064,1.3.064,2.1Zm22.3,0a10.9,10.9,0,0,1-.128-1.856v-2.9c0-1.552-.576-3.168-2.944-3.168a4.806,4.806,0,0,0-2.544.688l.32.928a3.858,3.858,0,0,1,2.016-.576,1.6,1.6,0,0,1,1.76,1.792v.16c-2.992-.016-4.656,1.008-4.656,2.88A2.206,2.206,0,0,0,180.512.176,2.884,2.884,0,0,0,182.88-.976h.048L183.04,0Zm-1.488-2.608a1.469,1.469,0,0,1-.08.448,1.927,1.927,0,0,1-1.872,1.3,1.246,1.246,0,0,1-1.328-1.344c0-1.5,1.744-1.776,3.28-1.744Zm8.912-8.752v4.624h-.032a2.589,2.589,0,0,0-2.336-1.184c-1.888,0-3.488,1.584-3.472,4.16,0,2.352,1.44,3.936,3.312,3.936a2.864,2.864,0,0,0,2.64-1.52h.032L191.952,0h1.264c-.048-.528-.064-1.312-.064-2v-9.36Zm0,8.112a2.446,2.446,0,0,1-.064.608,2.117,2.117,0,0,1-2.064,1.68c-1.52,0-2.288-1.3-2.288-2.864,0-1.712.864-2.992,2.32-2.992a2.071,2.071,0,0,1,2.032,1.632,2.485,2.485,0,0,1,.064.592Z" transform="translate(18.218 137.334)"/>
          <path id="Trazado_913175" data-name="Trazado 913175" d="M1.168,0H2.544V-4.672a1.941,1.941,0,0,1,.112-.688A1.924,1.924,0,0,1,4.4-6.768c1.072,0,1.616.9,1.616,2.128V0H7.392V-4.784a2.319,2.319,0,0,1,.112-.7,1.823,1.823,0,0,1,1.664-1.28c1.136,0,1.68.9,1.68,2.384V0h1.376V-4.56c0-2.688-1.52-3.36-2.544-3.36a2.643,2.643,0,0,0-1.712.544A3.19,3.19,0,0,0,7.1-6.368H7.072A2.289,2.289,0,0,0,4.88-7.92,2.669,2.669,0,0,0,2.448-6.5H2.4L2.336-7.744H1.1c.048.64.064,1.3.064,2.1ZM15.92,0V-7.744H14.512V0Zm-.7-10.8a.858.858,0,0,0-.88.88.837.837,0,0,0,.848.864.832.832,0,0,0,.9-.864A.836.836,0,0,0,15.216-10.8ZM18.256,0h1.408V-4.656a2.024,2.024,0,0,1,.1-.656,2,2,0,0,1,1.888-1.44c1.328,0,1.792,1.04,1.792,2.288V0h1.408V-4.624c0-2.656-1.664-3.3-2.736-3.3a2.848,2.848,0,0,0-2.56,1.456H19.52l-.08-1.28H18.192c.048.64.064,1.3.064,2.1ZM28.544,0V-7.744H27.136V0Zm-.7-10.8a.858.858,0,0,0-.88.88.837.837,0,0,0,.848.864.832.832,0,0,0,.9-.864A.836.836,0,0,0,27.84-10.8ZM30.88,0h1.376V-4.672a1.941,1.941,0,0,1,.112-.688,1.924,1.924,0,0,1,1.744-1.408c1.072,0,1.616.9,1.616,2.128V0H37.1V-4.784a2.319,2.319,0,0,1,.112-.7,1.823,1.823,0,0,1,1.664-1.28c1.136,0,1.68.9,1.68,2.384V0h1.376V-4.56c0-2.688-1.52-3.36-2.544-3.36a2.643,2.643,0,0,0-1.712.544,3.19,3.19,0,0,0-.864,1.008h-.032A2.289,2.289,0,0,0,34.592-7.92,2.669,2.669,0,0,0,32.16-6.5h-.048l-.064-1.248H30.816c.048.64.064,1.3.064,2.1ZM46.656-7.744,49.6,0h1.344l3.04-7.744H52.512l-1.5,4.352c-.256.7-.48,1.344-.656,1.984H50.3a19.915,19.915,0,0,0-.624-1.984L48.16-7.744Zm14.56,4.128a5.31,5.31,0,0,0,.048-.656c0-1.424-.672-3.648-3.2-3.648-2.256,0-3.632,1.84-3.632,4.176A3.6,3.6,0,0,0,58.24.16a6.272,6.272,0,0,0,2.576-.48l-.24-1.008a5.092,5.092,0,0,1-2.144.4,2.481,2.481,0,0,1-2.656-2.688ZM55.792-4.624a2.333,2.333,0,0,1,2.16-2.288A2,2,0,0,1,59.9-4.624ZM63.008,0h1.408V-4.656a2.025,2.025,0,0,1,.1-.656A2,2,0,0,1,66.4-6.752c1.328,0,1.792,1.04,1.792,2.288V0H69.6V-4.624c0-2.656-1.664-3.3-2.736-3.3A2.848,2.848,0,0,0,64.3-6.464h-.032l-.08-1.28H62.944c.048.64.064,1.3.064,2.1ZM73.3,0V-7.744H71.888V0Zm-.7-10.8a.858.858,0,0,0-.88.88.837.837,0,0,0,.848.864.832.832,0,0,0,.9-.864A.836.836,0,0,0,72.592-10.8ZM81.2,0a10.9,10.9,0,0,1-.128-1.856v-2.9c0-1.552-.576-3.168-2.944-3.168a4.806,4.806,0,0,0-2.544.688l.32.928A3.858,3.858,0,0,1,77.92-6.88a1.6,1.6,0,0,1,1.76,1.792v.16c-2.992-.016-4.656,1.008-4.656,2.88A2.206,2.206,0,0,0,77.392.176,2.884,2.884,0,0,0,79.76-.976h.048L79.92,0ZM79.712-2.608a1.469,1.469,0,0,1-.08.448,1.927,1.927,0,0,1-1.872,1.3,1.246,1.246,0,0,1-1.328-1.344c0-1.5,1.744-1.776,3.28-1.744ZM83.344,0H84.72V-4.672a1.941,1.941,0,0,1,.112-.688,1.924,1.924,0,0,1,1.744-1.408c1.072,0,1.616.9,1.616,2.128V0h1.376V-4.784a2.319,2.319,0,0,1,.112-.7,1.823,1.823,0,0,1,1.664-1.28c1.136,0,1.68.9,1.68,2.384V0H94.4V-4.56c0-2.688-1.52-3.36-2.544-3.36a2.643,2.643,0,0,0-1.712.544,3.19,3.19,0,0,0-.864,1.008h-.032A2.289,2.289,0,0,0,87.056-7.92,2.669,2.669,0,0,0,84.624-6.5h-.048l-.064-1.248H83.28c.048.64.064,1.3.064,2.1Zm13.44,1.872A19.506,19.506,0,0,0,98.3-2.016l-1.568.16a23.021,23.021,0,0,1-.96,3.824Zm11.888,1.3h1.408V-5.616c0-.8.016-1.472.048-2.128H108.8l-.048,1.168h-.032a2.545,2.545,0,0,0-2.384-1.344c-1.632,0-3.5,1.28-3.5,4.176,0,2.352,1.472,3.92,3.28,3.92A2.756,2.756,0,0,0,108.64-1.2h.032Zm0-6.32a2.365,2.365,0,0,1-.112.672,2.1,2.1,0,0,1-2.016,1.536c-1.552,0-2.288-1.344-2.288-2.88,0-1.744.88-2.976,2.336-2.976a2.058,2.058,0,0,1,2.016,1.6,2.4,2.4,0,0,1,.064.592ZM118.88-7.744h-1.408v4.752a2.059,2.059,0,0,1-.128.72,2.036,2.036,0,0,1-1.856,1.28c-1.28,0-1.728-.992-1.728-2.464V-7.744h-1.408v4.528c0,2.72,1.456,3.392,2.672,3.392a2.914,2.914,0,0,0,2.56-1.44h.032L117.7,0h1.248c-.048-.608-.064-1.312-.064-2.112ZM122.624,0V-7.744h-1.408V0Zm-.7-10.8a.858.858,0,0,0-.88.88.837.837,0,0,0,.848.864.832.832,0,0,0,.9-.864A.836.836,0,0,0,121.92-10.8Zm2.5,10.432a4.416,4.416,0,0,0,2.176.528c1.84,0,2.9-.96,2.9-2.32,0-1.152-.688-1.824-2.032-2.336-1.008-.384-1.472-.672-1.472-1.312,0-.576.464-1.056,1.3-1.056a3.014,3.014,0,0,1,1.584.448l.352-1.024a3.865,3.865,0,0,0-1.9-.48,2.388,2.388,0,0,0-2.672,2.272c0,.928.656,1.7,2.048,2.192,1.04.384,1.44.752,1.44,1.424,0,.64-.48,1.152-1.5,1.152a3.69,3.69,0,0,1-1.856-.56Z" transform="translate(30.036 157.799)"/>
          <path id="Trazado_913176" data-name="Trazado 913176" d="M1.168,0H2.576V-4.656a2.025,2.025,0,0,1,.1-.656A2,2,0,0,1,4.56-6.752c1.328,0,1.792,1.04,1.792,2.288V0H7.76V-4.624c0-2.656-1.664-3.3-2.736-3.3a2.848,2.848,0,0,0-2.56,1.456H2.432l-.08-1.28H1.1c.048.64.064,1.3.064,2.1Zm12.16-7.92a3.781,3.781,0,0,0-3.84,4.112A3.682,3.682,0,0,0,13.2.176a3.785,3.785,0,0,0,3.856-4.112A3.667,3.667,0,0,0,13.328-7.92ZM13.3-6.864c1.664,0,2.32,1.664,2.32,2.976,0,1.744-1.008,3.008-2.352,3.008-1.376,0-2.352-1.28-2.352-2.976C10.912-5.328,11.632-6.864,13.3-6.864Zm4.992,6.5A4.416,4.416,0,0,0,20.464.16c1.84,0,2.9-.96,2.9-2.32,0-1.152-.688-1.824-2.032-2.336-1.008-.384-1.472-.672-1.472-1.312,0-.576.464-1.056,1.3-1.056a3.014,3.014,0,0,1,1.584.448l.352-1.024a3.865,3.865,0,0,0-1.9-.48,2.388,2.388,0,0,0-2.672,2.272c0,.928.656,1.7,2.048,2.192C21.6-3.072,22-2.7,22-2.032c0,.64-.48,1.152-1.5,1.152a3.69,3.69,0,0,1-1.856-.56Zm7.2-9.232v1.856h-1.2v1.072h1.2v4.224a2.869,2.869,0,0,0,.544,2.016,1.951,1.951,0,0,0,1.52.592A3.447,3.447,0,0,0,28.8-.032l-.064-1.056a3.132,3.132,0,0,1-.816.1c-.784,0-1.056-.544-1.056-1.5V-6.672H28.88V-7.744H26.864V-9.968ZM30.464,0h1.392V-4.128a3.963,3.963,0,0,1,.064-.656,1.975,1.975,0,0,1,1.888-1.808,2.115,2.115,0,0,1,.48.048V-7.872a1.523,1.523,0,0,0-.4-.048,2.323,2.323,0,0,0-2.144,1.7H31.68l-.048-1.52H30.4c.048.72.064,1.5.064,2.416ZM42.176-7.744H40.768v4.752a2.059,2.059,0,0,1-.128.72,2.036,2.036,0,0,1-1.856,1.28c-1.28,0-1.728-.992-1.728-2.464V-7.744H35.648v4.528C35.648-.5,37.1.176,38.32.176a2.914,2.914,0,0,0,2.56-1.44h.032L40.992,0H42.24c-.048-.608-.064-1.312-.064-2.112Zm7.616-3.616v4.624H49.76A2.589,2.589,0,0,0,47.424-7.92c-1.888,0-3.488,1.584-3.472,4.16,0,2.352,1.44,3.936,3.312,3.936a2.864,2.864,0,0,0,2.64-1.52h.032L50,0h1.264c-.048-.528-.064-1.312-.064-2v-9.36Zm0,8.112a2.446,2.446,0,0,1-.064.608A2.117,2.117,0,0,1,47.664-.96c-1.52,0-2.288-1.3-2.288-2.864,0-1.712.864-2.992,2.32-2.992a2.071,2.071,0,0,1,2.032,1.632,2.485,2.485,0,0,1,.064.592Zm13.36-.368a5.31,5.31,0,0,0,.048-.656C63.2-5.7,62.528-7.92,60-7.92c-2.256,0-3.632,1.84-3.632,4.176A3.6,3.6,0,0,0,60.176.16a6.272,6.272,0,0,0,2.576-.48l-.24-1.008a5.092,5.092,0,0,1-2.144.4,2.481,2.481,0,0,1-2.656-2.688ZM57.728-4.624a2.333,2.333,0,0,1,2.16-2.288A2,2,0,0,1,61.84-4.624Zm6.224-3.12,2.624,3.792L63.824,0h1.552L66.5-1.744c.288-.464.56-.88.816-1.344h.032c.272.464.528.9.832,1.344L69.312,0h1.6l-2.72-4,2.64-3.744h-1.52L68.224-6.1c-.256.416-.512.816-.768,1.28h-.048c-.256-.432-.5-.832-.784-1.264l-1.1-1.664ZM78.016-3.616a5.311,5.311,0,0,0,.048-.656c0-1.424-.672-3.648-3.2-3.648-2.256,0-3.632,1.84-3.632,4.176A3.6,3.6,0,0,0,75.04.16a6.272,6.272,0,0,0,2.576-.48l-.24-1.008a5.092,5.092,0,0,1-2.144.4,2.481,2.481,0,0,1-2.656-2.688ZM72.592-4.624a2.333,2.333,0,0,1,2.16-2.288A2,2,0,0,1,76.7-4.624ZM79.808,0H81.2V-4.128a3.963,3.963,0,0,1,.064-.656,1.975,1.975,0,0,1,1.888-1.808,2.115,2.115,0,0,1,.48.048V-7.872a1.523,1.523,0,0,0-.4-.048,2.323,2.323,0,0,0-2.144,1.7h-.064l-.048-1.52H79.744c.048.72.064,1.5.064,2.416ZM90.016-1.344a4,4,0,0,1-1.728.384,2.655,2.655,0,0,1-2.688-2.9,2.68,2.68,0,0,1,2.736-2.928,3.265,3.265,0,0,1,1.632.368l.32-1.088a4.707,4.707,0,0,0-1.952-.4,3.935,3.935,0,0,0-4.16,4.112A3.679,3.679,0,0,0,88.032.16a5.186,5.186,0,0,0,2.224-.448ZM93.312,0V-7.744H91.9V0Zm-.7-10.8a.858.858,0,0,0-.88.88.837.837,0,0,0,.848.864.832.832,0,0,0,.9-.864A.836.836,0,0,0,92.608-10.8ZM99.36-9.6v1.856h-1.2v1.072h1.2v4.224A2.869,2.869,0,0,0,99.9-.432a1.951,1.951,0,0,0,1.52.592,3.447,3.447,0,0,0,1.248-.192l-.064-1.056a3.132,3.132,0,0,1-.816.1c-.784,0-1.056-.544-1.056-1.5V-6.672h2.016V-7.744h-2.016V-9.968ZM109.9,0a10.9,10.9,0,0,1-.128-1.856v-2.9c0-1.552-.576-3.168-2.944-3.168a4.806,4.806,0,0,0-2.544.688l.32.928a3.858,3.858,0,0,1,2.016-.576,1.6,1.6,0,0,1,1.76,1.792v.16c-2.992-.016-4.656,1.008-4.656,2.88A2.206,2.206,0,0,0,106.1.176a2.884,2.884,0,0,0,2.368-1.152h.048l.112.976Zm-1.488-2.608a1.469,1.469,0,0,1-.08.448,1.927,1.927,0,0,1-1.872,1.3,1.246,1.246,0,0,1-1.328-1.344c0-1.5,1.744-1.776,3.28-1.744ZM112.24-9.6v1.856h-1.2v1.072h1.2v4.224a2.869,2.869,0,0,0,.544,2.016A1.951,1.951,0,0,0,114.3.16a3.447,3.447,0,0,0,1.248-.192l-.064-1.056a3.132,3.132,0,0,1-.816.1c-.784,0-1.056-.544-1.056-1.5V-6.672h2.016V-7.744h-2.016V-9.968ZM118.624,0V-7.744h-1.408V0Zm-.7-10.8a.858.858,0,0,0-.88.88.837.837,0,0,0,.848.864.832.832,0,0,0,.9-.864A.836.836,0,0,0,117.92-10.8Zm6.32,2.88a3.781,3.781,0,0,0-3.84,4.112A3.682,3.682,0,0,0,124.112.176a3.785,3.785,0,0,0,3.856-4.112A3.667,3.667,0,0,0,124.24-7.92Zm-.032,1.056c1.664,0,2.32,1.664,2.32,2.976,0,1.744-1.008,3.008-2.352,3.008-1.376,0-2.352-1.28-2.352-2.976C121.824-5.328,122.544-6.864,124.208-6.864ZM129.744,0h1.408V-4.656a2.025,2.025,0,0,1,.1-.656,2,2,0,0,1,1.888-1.44c1.328,0,1.792,1.04,1.792,2.288V0h1.408V-4.624c0-2.656-1.664-3.3-2.736-3.3a2.848,2.848,0,0,0-2.56,1.456h-.032l-.08-1.28H129.68c.048.64.064,1.3.064,2.1Z" transform="translate(41.855 178.264)"/>
          <path id="Trazado_913177" data-name="Trazado 913177" d="M7.648-7.744H6.24v4.752a2.059,2.059,0,0,1-.128.72A2.036,2.036,0,0,1,4.256-.992c-1.28,0-1.728-.992-1.728-2.464V-7.744H1.12v4.528C1.12-.5,2.576.176,3.792.176a2.914,2.914,0,0,0,2.56-1.44h.032L6.464,0H7.712c-.048-.608-.064-1.312-.064-2.112ZM9.984,0h1.408V-11.36H9.984ZM13.76,0h1.408V-11.36H13.76ZM23.1,0a10.9,10.9,0,0,1-.128-1.856v-2.9c0-1.552-.576-3.168-2.944-3.168a4.806,4.806,0,0,0-2.544.688l.32.928a3.858,3.858,0,0,1,2.016-.576,1.6,1.6,0,0,1,1.76,1.792v.16c-2.992-.016-4.656,1.008-4.656,2.88A2.206,2.206,0,0,0,19.3.176,2.884,2.884,0,0,0,21.664-.976h.048L21.824,0ZM21.616-2.608a1.47,1.47,0,0,1-.08.448,1.927,1.927,0,0,1-1.872,1.3,1.246,1.246,0,0,1-1.328-1.344c0-1.5,1.744-1.776,3.28-1.744ZM25.248,0h1.376V-4.672a1.941,1.941,0,0,1,.112-.688A1.924,1.924,0,0,1,28.48-6.768c1.072,0,1.616.9,1.616,2.128V0h1.376V-4.784a2.319,2.319,0,0,1,.112-.7,1.823,1.823,0,0,1,1.664-1.28c1.136,0,1.68.9,1.68,2.384V0H36.3V-4.56c0-2.688-1.52-3.36-2.544-3.36a2.643,2.643,0,0,0-1.712.544,3.19,3.19,0,0,0-.864,1.008h-.032A2.289,2.289,0,0,0,28.96-7.92,2.669,2.669,0,0,0,26.528-6.5H26.48l-.064-1.248H25.184c.048.64.064,1.3.064,2.1ZM43.872-1.344a4,4,0,0,1-1.728.384,2.655,2.655,0,0,1-2.688-2.9,2.68,2.68,0,0,1,2.736-2.928,3.265,3.265,0,0,1,1.632.368l.32-1.088a4.707,4.707,0,0,0-1.952-.4,3.935,3.935,0,0,0-4.16,4.112A3.679,3.679,0,0,0,41.888.16a5.186,5.186,0,0,0,2.224-.448ZM48.848-7.92a3.781,3.781,0,0,0-3.84,4.112A3.682,3.682,0,0,0,48.72.176a3.785,3.785,0,0,0,3.856-4.112A3.667,3.667,0,0,0,48.848-7.92Zm-.032,1.056c1.664,0,2.32,1.664,2.32,2.976,0,1.744-1.008,3.008-2.352,3.008-1.376,0-2.352-1.28-2.352-2.976C46.432-5.328,47.152-6.864,48.816-6.864ZM54.352,0h1.392V-4.128a3.963,3.963,0,0,1,.064-.656A1.975,1.975,0,0,1,57.7-6.592a2.115,2.115,0,0,1,.48.048V-7.872a1.523,1.523,0,0,0-.4-.048,2.323,2.323,0,0,0-2.144,1.7h-.064l-.048-1.52H54.288c.048.72.064,1.5.064,2.416ZM59.7,3.168h1.392V-1.04h.032A2.716,2.716,0,0,0,63.5.176c1.824,0,3.52-1.376,3.52-4.16,0-2.352-1.408-3.936-3.28-3.936a3.044,3.044,0,0,0-2.752,1.5H60.96L60.9-7.744H59.632c.032.736.064,1.536.064,2.528ZM61.088-4.48a2.283,2.283,0,0,1,.1-.576A2.247,2.247,0,0,1,63.312-6.8c1.488,0,2.3,1.328,2.3,2.88,0,1.776-.864,2.992-2.352,2.992a2.173,2.173,0,0,1-2.112-1.648,3.17,3.17,0,0,1-.064-.576Zm13.936.864a5.311,5.311,0,0,0,.048-.656c0-1.424-.672-3.648-3.2-3.648-2.256,0-3.632,1.84-3.632,4.176A3.6,3.6,0,0,0,72.048.16a6.272,6.272,0,0,0,2.576-.48l-.24-1.008a5.092,5.092,0,0,1-2.144.4,2.481,2.481,0,0,1-2.656-2.688ZM69.6-4.624a2.333,2.333,0,0,1,2.16-2.288,2,2,0,0,1,1.952,2.288ZM76.816,0h1.392V-4.128a3.963,3.963,0,0,1,.064-.656A1.975,1.975,0,0,1,80.16-6.592a2.115,2.115,0,0,1,.48.048V-7.872a1.523,1.523,0,0,0-.4-.048,2.323,2.323,0,0,0-2.144,1.7h-.064l-.048-1.52H76.752c.048.72.064,1.5.064,2.416ZM84.9-.368A4.416,4.416,0,0,0,87.072.16c1.84,0,2.9-.96,2.9-2.32,0-1.152-.688-1.824-2.032-2.336-1.008-.384-1.472-.672-1.472-1.312,0-.576.464-1.056,1.3-1.056a3.014,3.014,0,0,1,1.584.448L89.7-7.44a3.865,3.865,0,0,0-1.9-.48A2.388,2.388,0,0,0,85.12-5.648c0,.928.656,1.7,2.048,2.192,1.04.384,1.44.752,1.44,1.424,0,.64-.48,1.152-1.5,1.152a3.69,3.69,0,0,1-1.856-.56Zm13.36-7.376H96.848v4.752a2.059,2.059,0,0,1-.128.72,2.036,2.036,0,0,1-1.856,1.28c-1.28,0-1.728-.992-1.728-2.464V-7.744H91.728v4.528C91.728-.5,93.184.176,94.4.176a2.914,2.914,0,0,0,2.56-1.44h.032L97.072,0H98.32c-.048-.608-.064-1.312-.064-2.112Zm1.792,7.376a4.416,4.416,0,0,0,2.176.528c1.84,0,2.9-.96,2.9-2.32,0-1.152-.688-1.824-2.032-2.336-1.008-.384-1.472-.672-1.472-1.312,0-.576.464-1.056,1.3-1.056a3.014,3.014,0,0,1,1.584.448l.352-1.024a3.865,3.865,0,0,0-1.9-.48,2.388,2.388,0,0,0-2.672,2.272c0,.928.656,1.7,2.048,2.192,1.04.384,1.44.752,1.44,1.424,0,.64-.48,1.152-1.5,1.152a3.69,3.69,0,0,1-1.856-.56Zm12.16-.976a4,4,0,0,1-1.728.384,2.655,2.655,0,0,1-2.688-2.9,2.68,2.68,0,0,1,2.736-2.928,3.265,3.265,0,0,1,1.632.368l.32-1.088a4.707,4.707,0,0,0-1.952-.4,3.935,3.935,0,0,0-4.16,4.112A3.679,3.679,0,0,0,110.224.16a5.186,5.186,0,0,0,2.224-.448ZM115.5,0V-7.744H114.1V0Zm-.7-10.8a.858.858,0,0,0-.88.88.837.837,0,0,0,.848.864.832.832,0,0,0,.9-.864A.836.836,0,0,0,114.8-10.8Zm3.04,13.968h1.392V-1.04h.032A2.716,2.716,0,0,0,121.648.176c1.824,0,3.52-1.376,3.52-4.16,0-2.352-1.408-3.936-3.28-3.936a3.044,3.044,0,0,0-2.752,1.5H119.1l-.064-1.328h-1.264c.032.736.064,1.536.064,2.528Zm1.392-7.648a2.284,2.284,0,0,1,.1-.576A2.247,2.247,0,0,1,121.456-6.8c1.488,0,2.3,1.328,2.3,2.88,0,1.776-.864,2.992-2.352,2.992A2.173,2.173,0,0,1,119.3-2.576a3.171,3.171,0,0,1-.064-.576ZM128.352,0V-7.744h-1.408V0Zm-.7-10.8a.858.858,0,0,0-.88.88.837.837,0,0,0,.848.864.832.832,0,0,0,.9-.864A.836.836,0,0,0,127.648-10.8Zm3.36,1.2v1.856h-1.2v1.072h1.2v4.224a2.869,2.869,0,0,0,.544,2.016,1.951,1.951,0,0,0,1.52.592,3.447,3.447,0,0,0,1.248-.192l-.064-1.056a3.132,3.132,0,0,1-.816.1c-.784,0-1.056-.544-1.056-1.5V-6.672H134.4V-7.744h-2.016V-9.968Z" transform="translate(53.673 198.728)"/>
          <g id="Grupo_1101780" data-name="Grupo 1101780">
            <g id="Grupo_1101779" data-name="Grupo 1101779" clip-path="url(#clip-path)">
              <path id="Trazado_911896" data-name="Trazado 911896" d="M190.3.5H63.819L.578,110.037,63.819,219.573H190.3l63.241-109.536Z" transform="translate(-0.304 -0.263)" fill="none" stroke="#000" stroke-miterlimit="10" stroke-width="1"/>
            </g>
          </g>
        </g>
      </g>
    </g>
    <g id="Grupo_1101826" data-name="Grupo 1101826" transform="translate(318.652 779.987)">
      <g id="Rectángulo_403216" data-name="Rectángulo 403216" transform="translate(261.448 795.611)" fill="none" stroke="#262626" stroke-width="1" stroke-dasharray="1">
        <rect width="27.951" height="27.951" rx="13.975" stroke="none"/>
        <rect x="0.5" y="0.5" width="26.951" height="26.951" rx="13.475" fill="none"/>
      </g>
      <path id="Trazado_911713" data-name="Trazado 911713" d="M0,0V12.613L3.556,9.057H9.1Z" transform="translate(260.051 793.464)" stroke="#fff" stroke-width="0.4"/>
      <g id="Grupo_1101457" data-name="Grupo 1101457" transform="translate(270.304 799.771)">
        <path id="Unión_2" data-name="Unión 2" d="M12.44,20.465a14.178,14.178,0,0,1-5.679-2.289,14.178,14.178,0,0,1-5.679,2.289.553.553,0,0,1-.128.01A.957.957,0,0,1,.83,18.569,11.844,11.844,0,0,0,5.281,16.86v-.905H5.274a1,1,0,0,1-1-1v-.119a1,1,0,0,1,1-1h.007V3.375A5.777,5.777,0,0,0,1.143,1.913c-.062,0-.124,0-.188,0A.956.956,0,0,1,.938,0c.068,0,.137,0,.2,0A7.584,7.584,0,0,1,6.762,2.161,7.58,7.58,0,0,1,12.381,0c.067,0,.135,0,.2,0a.956.956,0,0,1-.017,1.913c-.064,0-.123,0-.184,0A5.838,5.838,0,0,0,8.242,3.381V13.836H9.629a1,1,0,0,1,1,1v.119a1,1,0,0,1-1,1H8.242v.905a12.029,12.029,0,0,0,4.451,1.709.957.957,0,0,1-.125,1.906A.568.568,0,0,1,12.44,20.465Z" transform="translate(0 0)" fill="#020202" stroke="#fff" stroke-linecap="round" stroke-width="0.3"/>
      </g>
    </g>
  </g>
</svg>
