<svg xmlns="http://www.w3.org/2000/svg" width="85" height="85" viewBox="0 0 85 85">
  <g id="Grupo_1101786" data-name="Grupo 1101786" transform="translate(-652.051 -1409)">
    <circle id="Elipse_11558" data-name="Elipse 11558" cx="42.5" cy="42.5" r="42.5" transform="translate(652.051 1409)" fill="#6b6dac"/>
    <g id="texto" transform="translate(669.051 1426)" style="isolation: isolate">
      <path id="Trazado_911897" data-name="Trazado 911897" d="M0,51H51V0H0ZM1.7,1.7H49.3V49.3H1.7Zm0,0" fill="#f4f4fe"/>
      <path id="Trazado_911898" data-name="Trazado 911898" d="M177.5,120.5V112H152v8.5h5.1v-3.4h5.1v18.7h-5.1v5.1h15.3v-5.1h-5.1V117.1h5.1v3.4Zm-11.9-5.1v22.1h5.1v1.7H158.8v-1.7h5.1V115.4h-8.5v3.4h-1.7v-5.1h22.1v5.1h-1.7v-3.4Zm0,0" transform="translate(-135.85 -100.1)" fill="#f4f4fe"/>
      <path id="Trazado_911899" data-name="Trazado 911899" d="M43.475,38.081l-10.2-5.95A.85.85,0,0,0,32,32.865v14.45a.85.85,0,0,0,.637.823.882.882,0,0,0,.213.027.85.85,0,0,0,.743-.438l4.045-7.28,5.533-.79a.85.85,0,0,0,.308-1.576Zm-6.5.743a.851.851,0,0,0-.622.43L33.7,44.035v-9.69l6.813,3.974Zm0,0" transform="translate(-28.6 -28.615)" fill="#f4f4fe"/>
      <g id="Grupo_1101785" data-name="Grupo 1101785" transform="translate(10.2 3.4)">
        <path id="Trazado_911900" data-name="Trazado 911900" d="M96,32h3.4v1.7H96Zm0,0" transform="translate(-96 -32)" fill="#f4f4fe"/>
        <path id="Trazado_911901" data-name="Trazado 911901" d="M144,32h3.4v1.7H144Zm0,0" transform="translate(-138.9 -32)" fill="#f4f4fe"/>
        <path id="Trazado_911902" data-name="Trazado 911902" d="M192,32h3.4v1.7H192Zm0,0" transform="translate(-181.8 -32)" fill="#f4f4fe"/>
        <path id="Trazado_911903" data-name="Trazado 911903" d="M240,32h3.4v1.7H240Zm0,0" transform="translate(-224.7 -32)" fill="#f4f4fe"/>
        <path id="Trazado_911904" data-name="Trazado 911904" d="M288,32h3.4v1.7H288Zm0,0" transform="translate(-267.6 -32)" fill="#f4f4fe"/>
        <path id="Trazado_911905" data-name="Trazado 911905" d="M336,32h3.4v1.7H336Zm0,0" transform="translate(-310.5 -32)" fill="#f4f4fe"/>
        <path id="Trazado_911906" data-name="Trazado 911906" d="M384,32h3.4v1.7H384Zm0,0" transform="translate(-353.4 -32)" fill="#f4f4fe"/>
      </g>
      <path id="Trazado_911907" data-name="Trazado 911907" d="M144,432h3.4v1.7H144Zm0,0" transform="translate(-128.7 -386.1)" fill="#f4f4fe"/>
      <path id="Trazado_911908" data-name="Trazado 911908" d="M192,432h3.4v1.7H192Zm0,0" transform="translate(-171.6 -386.1)" fill="#f4f4fe"/>
      <path id="Trazado_911909" data-name="Trazado 911909" d="M96,432h3.4v1.7H96Zm0,0" transform="translate(-85.8 -386.1)" fill="#f4f4fe"/>
      <path id="Trazado_911910" data-name="Trazado 911910" d="M240,432h3.4v1.7H240Zm0,0" transform="translate(-214.5 -386.1)" fill="#f4f4fe"/>
      <path id="Trazado_911911" data-name="Trazado 911911" d="M288,432h3.4v1.7H288Zm0,0" transform="translate(-257.4 -386.1)" fill="#f4f4fe"/>
      <path id="Trazado_911912" data-name="Trazado 911912" d="M336,432h3.4v1.7H336Zm0,0" transform="translate(-300.3 -386.1)" fill="#f4f4fe"/>
      <path id="Trazado_911913" data-name="Trazado 911913" d="M384,432h3.4v1.7H384Zm0,0" transform="translate(-343.2 -386.1)" fill="#f4f4fe"/>
      <path id="Trazado_911914" data-name="Trazado 911914" d="M432,32h1.7v3.4H432Zm0,0" transform="translate(-386.1 -28.6)" fill="#f4f4fe"/>
      <path id="Trazado_911915" data-name="Trazado 911915" d="M432,80h1.7v3.4H432Zm0,0" transform="translate(-386.1 -71.5)" fill="#f4f4fe"/>
      <path id="Trazado_911916" data-name="Trazado 911916" d="M432,128h1.7v3.4H432Zm0,0" transform="translate(-386.1 -114.4)" fill="#f4f4fe"/>
      <path id="Trazado_911917" data-name="Trazado 911917" d="M432,176h1.7v3.4H432Zm0,0" transform="translate(-386.1 -157.3)" fill="#f4f4fe"/>
      <path id="Trazado_911918" data-name="Trazado 911918" d="M432,224h1.7v3.4H432Zm0,0" transform="translate(-386.1 -200.2)" fill="#f4f4fe"/>
      <path id="Trazado_911919" data-name="Trazado 911919" d="M432,272h1.7v3.4H432Zm0,0" transform="translate(-386.1 -243.1)" fill="#f4f4fe"/>
      <path id="Trazado_911920" data-name="Trazado 911920" d="M432,320h1.7v3.4H432Zm0,0" transform="translate(-386.1 -286)" fill="#f4f4fe"/>
      <path id="Trazado_911921" data-name="Trazado 911921" d="M432,368h1.7v3.4H432Zm0,0" transform="translate(-386.1 -328.9)" fill="#f4f4fe"/>
      <path id="Trazado_911922" data-name="Trazado 911922" d="M432,416h1.7v3.4H432Zm0,0" transform="translate(-386.1 -371.8)" fill="#f4f4fe"/>
      <path id="Trazado_911923" data-name="Trazado 911923" d="M32,224h1.7v3.4H32Zm0,0" transform="translate(-28.6 -200.2)" fill="#f4f4fe"/>
      <path id="Trazado_911924" data-name="Trazado 911924" d="M32,272h1.7v3.4H32Zm0,0" transform="translate(-28.6 -243.1)" fill="#f4f4fe"/>
      <path id="Trazado_911925" data-name="Trazado 911925" d="M32,320h1.7v3.4H32Zm0,0" transform="translate(-28.6 -286)" fill="#f4f4fe"/>
      <path id="Trazado_911926" data-name="Trazado 911926" d="M32,368h1.7v3.4H32Zm0,0" transform="translate(-28.6 -328.9)" fill="#f4f4fe"/>
      <path id="Trazado_911927" data-name="Trazado 911927" d="M33.7,416H32v3.4h5.1v-1.7H33.7Zm0,0" transform="translate(-28.6 -371.8)" fill="#f4f4fe"/>
    </g>
  </g>
</svg>
