<svg xmlns="http://www.w3.org/2000/svg" xmlns:xlink="http://www.w3.org/1999/xlink" width="369.419" height="183" viewBox="0 0 369.419 183">
  <defs>
    <clipPath id="clip-path">
      <rect id="Rectángulo_403019" data-name="Rectángulo 403019" width="26.541" height="38.74" transform="translate(0 0)" fill="none"/>
    </clipPath>
    <clipPath id="clip-path-2">
      <rect id="Rectángulo_403472" data-name="Rectángulo 403472" width="16.974" height="24.776" transform="translate(0 0)" fill="#323232"/>
    </clipPath>
  </defs>
  <g id="Grupo_1101762" data-name="Grupo 1101762" transform="translate(593.026 10215.937)">
    <g id="Grupo_1101651" data-name="Grupo 1101651">
      <rect id="Rectángulo_403315" data-name="Rectángulo 403315" width="345" height="183" rx="9" transform="translate(-568.607 -10215.937)" fill="#fff"/>
      <g id="Grupo_1101233" data-name="Grupo 1101233" transform="translate(-1399.444 164)">
        <g id="Grupo_1101226" data-name="Grupo 1101226" transform="translate(806.417 -10324)">
          <circle id="Elipse_11536" data-name="Elipse 11536" cx="35.5" cy="35.5" r="35.5" transform="translate(0 0)" fill="#3c3c3c"/>
        </g>
        <g id="Grupo_1101231" data-name="Grupo 1101231" transform="translate(831.477 -10308.645)" clip-path="url(#clip-path)">
          <path id="Trazado_911332" data-name="Trazado 911332" d="M26.24,26.24,0,0V37.714a1.026,1.026,0,0,0,2.052,0V4.955L24.789,27.691A1.026,1.026,0,0,0,26.24,26.24" transform="translate(0 0)" fill="#b6b5b6"/>
        </g>
      </g>
    </g>
    <g id="Grupo_1101758" data-name="Grupo 1101758" transform="translate(-1597.026 -11340.653)">
      <g id="Grupo_1101750" data-name="Grupo 1101750" transform="translate(-45.587 345.91)">
        <path id="Trazado_911891" data-name="Trazado 911891" d="M-1552.582-10649.362l155.244-23.667s29.447-.807,20.772-48.748-48.489-21.387-70.285-20.718-1.519-44.65-44.258-57.484-39.549,37.261-39.549,37.261-52.965,37.029-58.446,65.368S-1552.582-10649.362-1552.582-10649.362Z" transform="translate(2751.174 11592.89)" fill="#fdeded" stroke="#048fe5" stroke-width="1"/>
        <g id="Rectángulo_403461" data-name="Rectángulo 403461" transform="translate(1219.13 827.48)" fill="#048fe5" stroke="#048fe5" stroke-width="1">
          <rect width="3.279" height="3.279" stroke="none"/>
          <rect x="0.5" y="0.5" width="2.279" height="2.279" fill="none"/>
        </g>
        <g id="Rectángulo_403469" data-name="Rectángulo 403469" transform="translate(1196.325 847.152)" fill="#048fe5" stroke="#048fe5" stroke-width="1">
          <rect width="3.279" height="3.279" stroke="none"/>
          <rect x="0.5" y="0.5" width="2.279" height="2.279" fill="none"/>
        </g>
        <g id="Rectángulo_403462" data-name="Rectángulo 403462" transform="translate(1259.296 792.232)" fill="#048fe5" stroke="#048fe5" stroke-width="1">
          <rect width="3.279" height="3.279" stroke="none"/>
          <rect x="0.5" y="0.5" width="2.279" height="2.279" fill="none"/>
        </g>
        <g id="Rectángulo_403463" data-name="Rectángulo 403463" transform="translate(1303.56 848.792)" fill="#048fe5" stroke="#048fe5" stroke-width="1">
          <rect width="3.279" height="3.279" stroke="none"/>
          <rect x="0.5" y="0.5" width="2.279" height="2.279" fill="none"/>
        </g>
        <g id="Rectángulo_403464" data-name="Rectángulo 403464" transform="translate(1373.236 870.105)" fill="#048fe5" stroke="#048fe5" stroke-width="1">
          <rect width="3.279" height="3.279" stroke="none"/>
          <rect x="0.5" y="0.5" width="2.279" height="2.279" fill="none"/>
        </g>
        <g id="Rectángulo_403470" data-name="Rectángulo 403470" transform="translate(1196.685 941.888)" fill="#048fe5" stroke="#048fe5" stroke-width="1">
          <rect width="3.279" height="3.279" stroke="none"/>
          <rect x="0.5" y="0.5" width="2.279" height="2.279" fill="none"/>
        </g>
        <g id="Grupo_1101761" data-name="Grupo 1101761" transform="matrix(0.326, -0.946, 0.946, 0.326, -189.76, 1905.363)">
          <line id="Línea_608" data-name="Línea 608" y1="15.788" x2="70.983" transform="translate(1357.645 941.422)" fill="none" stroke="#048fe5" stroke-width="1"/>
          <g id="Elipse_11556" data-name="Elipse 11556" transform="translate(1426.764 939.546)" fill="#fff" stroke="#048fe5" stroke-width="1">
            <circle cx="2.127" cy="2.127" r="2.127" stroke="none"/>
            <circle cx="2.127" cy="2.127" r="1.627" fill="none"/>
          </g>
          <g id="Elipse_11557" data-name="Elipse 11557" transform="translate(1355.505 955.499)" fill="#fff" stroke="#048fe5" stroke-width="1">
            <circle cx="2.127" cy="2.127" r="2.127" stroke="none"/>
            <circle cx="2.127" cy="2.127" r="1.627" fill="none"/>
          </g>
        </g>
        <g id="Rectángulo_403471" data-name="Rectángulo 403471" transform="translate(1160.577 893.152)" fill="#fff" stroke="#048fe5" stroke-width="1">
          <rect width="3.279" height="3.279" stroke="none"/>
          <rect x="0.5" y="0.5" width="2.279" height="2.279" fill="none"/>
        </g>
      </g>
    </g>
    <g id="Grupo_1101759" data-name="Grupo 1101759" transform="translate(-479.652 -10099.622) rotate(-17)" clip-path="url(#clip-path-2)">
      <path id="Trazado_911892" data-name="Trazado 911892" d="M16.782,16.782,0,0V24.12a.656.656,0,0,0,1.312,0V3.169L15.854,17.71a.656.656,0,1,0,.928-.928" transform="translate(0 0)" fill="#323232"/>
    </g>
  </g>
</svg>
