<svg id="Grupo_1101241" data-name="Grupo 1101241" xmlns="http://www.w3.org/2000/svg" xmlns:xlink="http://www.w3.org/1999/xlink" width="67.5" height="67.5" viewBox="0 0 67.5 67.5">
  <defs>
    <clipPath id="clip-path">
      <rect id="Rectángulo_403020" data-name="Rectángulo 403020" width="44.824" height="36.963" fill="none"/>
    </clipPath>
  </defs>
  <circle id="Elipse_11536" data-name="Elipse 11536" cx="33.75" cy="33.75" r="33.75" transform="translate(0 0)" fill="#3c3c3c"/>
  <g id="Grupo_1101234" data-name="Grupo 1101234" transform="translate(12.976 15.269)">
    <g id="Grupo_1101234-2" data-name="Grupo 1101234" transform="translate(0 0)" clip-path="url(#clip-path)">
      <path id="Trazado_911333" data-name="Trazado 911333" d="M27.869,22.109l-9.3,20.01,1.37,1.37L28.535,34.9a2.617,2.617,0,1,1,2.146,2.146l-8.593,8.593,1.37,1.37,20.01-9.3,4.695-9.58L37.449,17.414Z" transform="translate(-10.71 -10.042)" fill="#b6b5b6"/>
      <path id="Trazado_911334" data-name="Trazado 911334" d="M82.918,9.559,73.66.3A1.03,1.03,0,0,0,72.2.3L66.578,5.927,77.292,16.641l5.626-5.626a1.03,1.03,0,0,0,0-1.456" transform="translate(-38.395 0)" fill="#b6b5b6"/>
      <path id="Trazado_911335" data-name="Trazado 911335" d="M3.976,31.516a8.222,8.222,0,0,1-1.917-5.272V24.551a8.264,8.264,0,0,1,1.613-4.888l2.6-3.5a10.338,10.338,0,0,0,2.018-6.114A10.228,10.228,0,0,0,4.5,2.081L2.743.651a1.03,1.03,0,0,0-1.3,1.6L3.2,3.678a8.178,8.178,0,0,1,3.028,6.368,8.264,8.264,0,0,1-1.614,4.888l-2.6,3.5A10.339,10.339,0,0,0,0,24.551v1.693a10.286,10.286,0,0,0,2.4,6.595l2.552,3.046a1.03,1.03,0,1,0,1.579-1.322Z" transform="translate(0 -0.242)" fill="#b6b5b6"/>
    </g>
  </g>
</svg>
